<?xml version="1.0" encoding="UTF-8" standalone="no"?>
<!-- Created with Inkscape (http://www.inkscape.org/) -->

<svg
   xmlns:dc="http://purl.org/dc/elements/1.1/"
   xmlns:cc="http://creativecommons.org/ns#"
   xmlns:rdf="http://www.w3.org/1999/02/22-rdf-syntax-ns#"
   xmlns:svg="http://www.w3.org/2000/svg"
   xmlns="http://www.w3.org/2000/svg"
   xmlns:sodipodi="http://sodipodi.sourceforge.net/DTD/sodipodi-0.dtd"
   xmlns:inkscape="http://www.inkscape.org/namespaces/inkscape"
   width="259.29166mm"
   height="259.29166mm"
   viewBox="0 0 259.29166 259.29166"
   version="1.1"
   id="svg4324"
   inkscape:version="0.92.4 (5da689c313, 2019-01-14)"
   sodipodi:docname="grain-worker.svg">
  <defs
     id="defs4318" />
  <sodipodi:namedview
     id="base"
     pagecolor="#ffffff"
     bordercolor="#666666"
     borderopacity="1.0"
     inkscape:pageopacity="0.0"
     inkscape:pageshadow="2"
     inkscape:zoom="0.35"
     inkscape:cx="207.14285"
     inkscape:cy="718.57142"
     inkscape:document-units="mm"
     inkscape:current-layer="layer1"
     showgrid="false"
     inkscape:window-width="2560"
     inkscape:window-height="1017"
     inkscape:window-x="-8"
     inkscape:window-y="-8"
     inkscape:window-maximized="1" />
  <metadata
     id="metadata4321">
    <rdf:RDF>
      <cc:Work
         rdf:about="">
        <dc:format>image/svg+xml</dc:format>
        <dc:type
           rdf:resource="http://purl.org/dc/dcmitype/StillImage" />
        <dc:title></dc:title>
      </cc:Work>
    </rdf:RDF>
  </metadata>
  <g
     inkscape:label="Layer 1"
     inkscape:groupmode="layer"
     id="layer1"
     transform="translate(-51.026787,-79.663692)">
    <g
       id="g4164"
       transform="matrix(0.26458333,0,0,0.26458333,48.380954,77.017859)">
      <path
         id="path4162"
         d="M 500,990 C 231.3,990 10,768.7 10,500 10,231.3 231.3,10 500,10 768.7,10 990,231.3 990,500 990,768.7 768.7,990 500,990 Z M 500,73.2 C 266.1,73.2 73.2,266.1 73.2,500 73.2,733.9 266,926.8 500,926.8 733.9,926.8 926.8,734 926.8,500 926.8,266.1 733.9,73.2 500,73.2 Z"
         inkscape:connector-curvature="0" />
    </g>
    <g
       id="g4212"
       transform="matrix(0.17789594,0,0,0.15581822,90.213087,131.77881)">
      <g
         id="g4210"
         transform="matrix(0.1,0,0,-0.1,0,511)">
        <path
           id="path4204"
           d="m 4727.7,4994.6 c -67.5,-10.2 -194.2,-38.8 -282.1,-63.4 l -161.5,-42.9 10.2,-65.4 c 26.6,-149.2 132.9,-1081.4 132.9,-1157 0,-67.5 -6.1,-81.8 -40.9,-81.8 -49,0 -59.3,34.8 -206.5,684.8 -57.2,259.6 -114.5,478.3 -122.6,488.6 -10.2,12.3 -75.6,-18.4 -155.4,-73.6 -449.7,-298.4 -690.9,-682.8 -772.7,-1222.4 -32.7,-210.5 -67.5,-296.4 -132.9,-316.9 -20.4,-6.1 -61.3,-30.7 -89.9,-53.1 -53.2,-40.9 -53.2,-47 -53.2,-304.6 0,-243.3 4.1,-267.8 47,-316.8 30.7,-36.8 73.6,-57.2 137,-65.4 51.1,-6.1 120.6,-32.7 153.3,-57.2 116.5,-87.9 286.2,-171.7 492.7,-241.2 977.1,-339.3 2424.4,-237.1 3092.8,218.7 73.6,49.1 130.8,73.6 179.9,73.6 51.1,0 87.9,16.3 130.8,59.3 l 59.3,59.3 v 265.7 c 0,290.3 0,290.3 -139,359.8 -81.8,42.9 -116.5,118.6 -134.9,298.4 -55.2,511 -323,942.4 -774.7,1242.9 -79.7,55.2 -145.1,85.8 -155.4,73.6 -8.2,-10.2 -65.4,-228.9 -122.6,-488.6 -145.2,-641.9 -159.5,-684.8 -204.4,-684.8 -20.4,0 -42.9,12.3 -47,26.6 -8.2,20.4 98.1,964.9 134.9,1202 l 12.3,73.6 -118.6,34.7 c -276,79.6 -635.7,110.2 -868.8,73.5 z"
           inkscape:connector-curvature="0" />
        <path
           id="path4206"
           d="m 3119,1981.4 c 0,-26.6 -30.7,-79.7 -69.5,-120.6 -83.8,-90 -114.5,-208.5 -114.5,-451.8 0,-335.2 147.2,-715.5 396.6,-1026.2 102.2,-126.7 149.2,-208.5 196.2,-339.3 204.4,-564.2 650,-995.5 1165.2,-1132.5 703.2,-184 1477.9,310.7 1780.5,1138.6 40.9,110.4 92,206.5 149.2,273.9 202.4,239.2 333.2,486.5 402.7,764.5 81.8,325 30.7,719.6 -104.2,803.4 -24.5,16.3 -40.9,49.1 -40.9,81.8 v 55.2 l -147.2,-69.5 c -357.7,-163.5 -766.6,-276 -1159,-314.8 -316.8,-32.7 -983.3,-28.6 -1249,8.2 -394.5,55.2 -746.1,159.4 -1046.6,308.7 -75.6,38.8 -143.1,69.5 -149.2,69.5 -6.2,0 -10.3,-22.5 -10.3,-49.1 z"
           inkscape:connector-curvature="0" />
        <path
           id="path4208"
           d="m 3200.7,-884.5 c -1263.3,-455.8 -1584.2,-613.3 -1901.1,-928.1 -331.2,-333.2 -623.5,-924 -756.3,-1527 -49.1,-220.8 -92,-654.1 -73.6,-727.7 16.3,-71.5 65.4,-100.2 327.1,-200.3 742,-278 1888.8,-449.7 3415.8,-511 554,-20.4 1727.3,-12.3 1886.8,16.3 l 65.4,10.2 v 795.2 795.2 H 5664 c -670.5,0 -658.2,-26.6 -202.4,431.3 l 343.4,345.4 860.6,-4.1 858.6,-6.1 v -378.2 -378.2 l -341.4,-6.1 -343.4,-4.1 v -776.8 c 0,-519.2 6.1,-776.8 20.4,-776.8 12.3,0 157.4,14.3 323,30.7 836.1,87.9 1582.2,245.3 2085,443.6 284.2,110.4 284.2,110.4 253.5,443.6 -30.7,323 -83.8,572.4 -186,883.1 -245.3,733.9 -648,1236.7 -1197.9,1500.4 -296.4,143.1 -899.4,376.2 -1559.7,605.1 l -233,81.8 -149.2,-141.1 c -316.8,-302.5 -635.7,-464 -1024.1,-517.2 -462,-65.4 -1001.6,143.1 -1388,533.5 -67.5,67.5 -130.8,122.7 -143.1,120.6 -10.3,0.1 -208.6,-69.4 -439.6,-153.2 z"
           inkscape:connector-curvature="0" />
      </g>
    </g>
  </g>
</svg>
