<?xml version="1.0" standalone="no"?>
<!DOCTYPE svg PUBLIC "-//W3C//DTD SVG 1.1//EN" "http://www.w3.org/Graphics/SVG/1.1/DTD/svg11.dtd" >
<svg xmlns="http://www.w3.org/2000/svg" xmlns:xlink="http://www.w3.org/1999/xlink" version="1.1">
<metadata>
Created by FontForge 20170731 at Tue Jan 21 18:19:04 2014
 By Aleksey,,,
Copyright 2008. OurType &#38; Peter Verheul. www.ourtype.com
</metadata>
<defs>
<font id="RijksoverheidSerifWeb-Bold" horiz-adv-x="520" >
  <font-face 
    font-family="RijksoverheidSerifWeb Bold"
    font-weight="700"
    font-stretch="normal"
    units-per-em="1000"
    panose-1="0 0 0 0 0 0 0 0 0 0"
    ascent="740"
    descent="-260"
    x-height="480"
    cap-height="647"
    bbox="-20807.5 -27693 18838 17518"
    underline-thickness="0"
    underline-position="0"
    unicode-range="U+0020-1F6B2"
  />
<missing-glyph horiz-adv-x="629" 
d="M0 0v635h629v-635h-629zM175 147l141 141l140 -141l37 37l-141 140l141 141l-37 37l-140 -142l-141 142l-38 -37l142 -141l-141 -139z" />
    <glyph glyph-name="fi" unicode="fi" horiz-adv-x="593" 
 />
    <glyph glyph-name="fl" unicode="fl" horiz-adv-x="595" 
 />
    <glyph glyph-name=".notdef" horiz-adv-x="629" 
d="M0 0v635h629v-635h-629zM175 147l141 141l140 -141l37 37l-141 140l141 141l-37 37l-140 -142l-141 142l-38 -37l142 -141l-141 -139z" />
    <glyph glyph-name=".null" horiz-adv-x="0" 
 />
    <glyph glyph-name="nonmarkingreturn" horiz-adv-x="333" 
 />
    <glyph glyph-name="space" unicode=" " horiz-adv-x="192" 
 />
    <glyph glyph-name="exclam" unicode="!" horiz-adv-x="321" 
d="M290 677l-36 -75l-36 -172q-5 -25 -8 -60.5t-3 -60.5q0 -28 4.5 -60t11.5 -58q-58 0 -94 35.5t-36 96.5q0 59 15.5 130t15.5 126q0 21 -3.5 42t-10.5 40q45 8 85.5 12t94.5 4zM82 62q0 30 21 51t51 21t51 -21t21 -51t-21 -51t-51 -21t-51 21t-21 51z" />
    <glyph glyph-name="quotedbl" unicode="&#x22;" horiz-adv-x="439" 
d="M79 644h108l-4 -83q-1 -31 -12.5 -94l-11.5 -63h-51l-12 62.5t-13 93.5zM256 644h107l-4 -83q-1 -31 -12.5 -94l-11.5 -63h-51l-12 62.5t-13 93.5z" />
    <glyph glyph-name="numbersign" unicode="#" 
d="M194 222h126l26 209h-126zM384 224h106l-8 -63h-106l-21 -170h-65l21 170h-123l-22 -170h-65l21 170h-107l8 63h107l25 205h-106l7 63h107l22 172h65l-21 -172h123l22 172h65l-21 -172h106l-8 -63h-106z" />
    <glyph glyph-name="dollar" unicode="$" 
d="M180 495q0 -26 16 -47.5t56 -41.5v163q-35 -8 -53.5 -28.5t-18.5 -45.5zM352 146q0 30 -17.5 51.5t-62.5 45.5v-177q37 7 58.5 28.5t21.5 51.5zM300 653q55 0 88.5 -5.5t67.5 -20.5l-11 -162h-37l-5 26q-8 43 -33.5 63t-79.5 20h-2v-185l71 -33q63 -30 91 -68t28 -95
q0 -75 -58 -133.5t-145 -72.5v-74h-39v70h-10q-54 0 -94.5 7t-75.5 20v164h37l7 -30q10 -43 40.5 -62.5t92.5 -19.5h3v200l-67 35q-51 26 -77.5 67.5t-26.5 97.5q0 70 51.5 122t132.5 65v76h39v-72h12z" />
    <glyph glyph-name="percent" unicode="%" horiz-adv-x="740" 
d="M560 690l43 -24l-431 -718l-42 24zM177 314q-65 0 -105 38t-40 120t44.5 128.5t110.5 46.5q64 0 104 -38t40 -120t-44.5 -128.5t-109.5 -46.5zM180 360q23 0 39 26t16 94q0 73 -13.5 96.5t-38.5 23.5q-23 0 -39 -29t-16 -91q0 -73 15 -96.5t37 -23.5zM553 -11
q-65 0 -105 38t-40 120t44.5 128.5t110.5 46.5q64 0 104 -38t40 -120t-44.5 -128.5t-109.5 -46.5zM556 35q23 0 39 26t16 94q0 73 -13.5 96.5t-38.5 23.5q-23 0 -39 -29t-16 -91q0 -73 15 -96.5t37 -23.5z" />
    <glyph glyph-name="ampersand" unicode="&#x26;" horiz-adv-x="641" 
d="M349 490q0 49 -20.5 73.5t-50.5 24.5q-33 0 -56.5 -25t-23.5 -70q0 -30 9.5 -52t30.5 -43l40 -41q31 20 51 55t20 78zM409 87l-185 180q-26 -17 -41.5 -47t-15.5 -66q0 -48 34.5 -77t81.5 -29q44 0 74 10t52 29zM637 348v-22q-35 -11 -47 -22t-12 -28q0 -39 -12.5 -75
t-38.5 -67q28 -20 51.5 -33.5t56.5 -27.5q-2 -40 -24.5 -63t-50.5 -23q-18 0 -34.5 7.5t-35.5 23.5l-31 28q-42 -34 -88.5 -50.5t-104.5 -16.5q-112 0 -168.5 45t-56.5 114q0 55 38.5 101t106.5 68v1l-27 27q-40 40 -55.5 71t-15.5 68q0 72 56 124t144 52q78 0 122.5 -42
t44.5 -100t-39 -108.5t-93 -74.5v-1l156 -149q13 27 19 54t6 61l-73 25v27q35 9 60.5 12.5t50.5 3.5q27 0 47.5 -2t47.5 -8z" />
    <glyph glyph-name="quotesingle" unicode="'" horiz-adv-x="262" 
d="M79 644h108l-4 -83q-1 -31 -12.5 -94l-11.5 -63h-51l-12 62.5t-13 93.5z" />
    <glyph glyph-name="parenleft" unicode="(" horiz-adv-x="300" 
d="M313 -215q-8 -14 -25 -22.5t-39 -8.5q-58 0 -128.5 117t-70.5 337q0 215 84 358t128 143q10 0 17 -4.5t11 -13.5q-60 -48 -109.5 -172t-49.5 -289q0 -201 66.5 -323t115.5 -122z" />
    <glyph glyph-name="parenright" unicode=")" horiz-adv-x="300" 
d="M-13 679q8 13 25 21.5t39 8.5q58 0 128.5 -117t70.5 -336q0 -216 -84 -359t-128 -143q-10 0 -17 4.5t-11 13.5q60 48 109.5 172t49.5 290q0 201 -66.5 323t-115.5 122z" />
    <glyph glyph-name="asterisk" unicode="*" horiz-adv-x="500" 
d="M175 615q14 19 27.5 28.5t27.5 9.5q21 0 35 -21.5t14 -61.5q0 -23 -2.5 -42t-8.5 -36l2 -1q22 16 48.5 43t42.5 50q28 -10 41.5 -23.5t13.5 -29.5q0 -31 -43 -52t-100 -21l-1 -2q23 -16 56.5 -33.5t60.5 -24.5q0 -36 -12.5 -53.5t-33.5 -17.5q-25 0 -55 32.5t-46 83.5
l-2 -1q-8 -27 -13.5 -61.5t-5.5 -67.5q-10 -4 -19.5 -5.5t-16.5 -1.5q-22 0 -35 12.5t-13 32.5t23.5 56t57.5 60l-1 2q-28 0 -66 -6t-63 -16q-11 16 -16 28.5t-5 22.5q0 19 14 31.5t37 12.5q22 0 56.5 -13t58.5 -31l2 1q-9 27 -26 60.5t-34 55.5z" />
    <glyph glyph-name="plus" unicode="+" 
d="M294 258h178v-65h-178v-193h-68v193h-178v65h178v192h68v-192z" />
    <glyph glyph-name="comma" unicode="," horiz-adv-x="275" 
d="M208 64q0 -72 -45 -131t-91 -76l-39 9q34 38 52 79t18 87l-43 52q16 23 37.5 36.5t42.5 13.5q29 0 48.5 -18.5t19.5 -51.5z" />
    <glyph glyph-name="hyphen" unicode="-" horiz-adv-x="314" 
d="M291 325l-21 -96l-243 -14l23 95z" />
    <glyph glyph-name="period" unicode="." horiz-adv-x="275" 
d="M66 62q0 30 21 51t51 21t51 -21t21 -51t-21 -51t-51 -21t-51 21t-21 51z" />
    <glyph glyph-name="slash" unicode="/" horiz-adv-x="325" 
d="M244 720l60 -12l-221 -951l-61 12z" />
    <glyph glyph-name="zero" unicode="0" 
 />
    <glyph glyph-name="one" unicode="1" 
 />
    <glyph glyph-name="two" unicode="2" 
 />
    <glyph glyph-name="three" unicode="3" 
 />
    <glyph glyph-name="four" unicode="4" 
 />
    <glyph glyph-name="five" unicode="5" 
d="M-20096 14333v635h629v-635h-629zM-19921 14480l141 141l140 -141l37 37l-141 140l141 141l-37 37l-140 -142l-141 142l-38 -37l142 -141l-141 -139zM13589 2174v158.866h-1248.79v-158.866h1248.79zM13241.6 2210.78l-279.935 35.2754l-277.949 -35.2754
l-73.458 9.25586l279.935 35.0264l-279.935 35.2754l73.458 9.25684l277.949 -35.5254l279.935 35.5254l75.4434 -9.25684l-281.92 -35.2754l279.935 -34.7754z" />
    <glyph glyph-name="six" unicode="6" 
d="M-127 -43v188.748h186.965v-188.748h-186.965zM-74.9824 0.694336l41.9102 41.9111l41.6143 -41.9111l10.998 10.998l-41.9111 41.6143l41.9111 41.9102l-10.998 10.998l-41.6143 -42.208l-41.9102 42.208l-11.2959 -10.998l42.209 -41.9102l-41.9111 -41.3174z" />
    <glyph glyph-name="seven" unicode="7" 
 />
    <glyph glyph-name="eight" unicode="8" 
 />
    <glyph glyph-name="nine" unicode="9" 
 />
    <glyph glyph-name="colon" unicode=":" horiz-adv-x="275" 
d="M66 411q0 30 21 51t51 21t51 -21t21 -51t-21 -51t-51 -21t-51 21t-21 51zM66 62q0 30 21 51t51 21t51 -21t21 -51t-21 -51t-51 -21t-51 21t-21 51z" />
    <glyph glyph-name="semicolon" unicode=";" horiz-adv-x="275" 
d="M66 411q0 30 21 51t51 21t51 -21t21 -51t-21 -51t-51 -21t-51 21t-21 51zM208 64q0 -72 -45 -131t-91 -76l-39 9q34 38 52 79t18 87l-43 52q16 23 37.5 36.5t42.5 13.5q29 0 48.5 -18.5t19.5 -51.5z" />
    <glyph glyph-name="less" unicode="&#x3c;" 
d="M380 473l42 -54l-245 -193l246 -194l-45 -56l-305 246z" />
    <glyph glyph-name="equal" unicode="=" 
d="M51 334h418v-64h-418v64zM51 181h418v-65h-418v65z" />
    <glyph glyph-name="greater" unicode="&#x3e;" 
d="M140 -23l-41 54l244 193l-246 194l45 56l306 -246z" />
    <glyph glyph-name="question" unicode="?" horiz-adv-x="435" 
d="M424 541q0 -48 -41 -96t-136 -106l-60 -37q6 -26 16 -53t22 -51q-7 -1 -15.5 -2.5t-15.5 -1.5q-37 0 -60.5 22t-23.5 56q0 25 13.5 47.5t54.5 57.5l55 47q31 27 46 51.5t15 52.5q0 37 -22.5 57t-64.5 20q-34 0 -73.5 -29.5t-62.5 -67.5q-7 13 -12.5 29t-5.5 37
q0 45 42.5 75.5t141.5 30.5q88 0 137.5 -38t49.5 -101zM99 62q0 30 21 51t51 21t51 -21t21 -51t-21 -51t-51 -21t-51 21t-21 51z" />
    <glyph glyph-name="at" unicode="@" horiz-adv-x="858" 
d="M577 -19q-22 10 -41.5 23t-29.5 28q-19 -16 -58.5 -31t-75.5 -15q-62 0 -99 33t-37 82q0 66 68.5 110t196.5 44v31q0 68 -21 93t-62 25q-34 0 -77 -21t-76 -54q-3 11 -5 25.5t-2 26.5q0 48 37.5 73t139.5 25q93 0 139 -37.5t46 -100.5q0 -17 -1.5 -44t-2.5 -48l-4 -159
q6 -14 16 -25t24 -18q40 20 77 91.5t37 161.5q0 140 -89.5 219.5t-219.5 79.5q-152 0 -252.5 -109t-100.5 -276q0 -157 77.5 -238t163.5 -81q39 0 74.5 6t72.5 19q3 -5 4 -12t1 -14q0 -24 -37 -44t-111 -20q-113 0 -214 97t-101 278q0 199 127.5 323t303.5 124
q159 0 262 -95.5t103 -249.5t-87 -240t-166 -86zM501 73v129q-69 0 -107.5 -24.5t-38.5 -61.5q0 -27 19 -44t51 -17q19 0 40 5t36 13z" />
    <glyph glyph-name="A" unicode="A" horiz-adv-x="591" 
d="M48 87l194 550l131 13l170 -598l53 -19v-26q-25 -8 -56.5 -12.5t-62.5 -4.5q-30 0 -60 2t-58 8v23q24 8 32.5 23.5t3.5 35.5l-29 106h-189l-37 -137l60 -18v-26q-28 -9 -59 -13t-68 -4q-20 0 -41.5 2.5t-42.5 7.5v23q24 10 37 23t22 41zM351 254l-69 279h-1l-86 -279h156
z" />
    <glyph glyph-name="B" unicode="B" horiz-adv-x="575" 
d="M537 184q0 -85 -75 -140.5t-206 -55.5q-77 0 -126 2.5t-91 9.5v23q27 10 42 29.5t15 59.5v468l-63 23v29q57 8 108.5 11.5t126.5 3.5q128 0 185 -40t57 -112q0 -63 -49 -108.5t-121 -52.5v-1q94 0 145.5 -39t51.5 -110zM378 482q0 47 -30.5 73t-84.5 26q-10 0 -19 -0.5
t-19 -1.5v-228q73 0 113 35t40 96zM400 173q0 58 -38.5 89t-105.5 31h-31v-237q13 -1 24.5 -1.5t22.5 -0.5q51 0 89.5 33.5t38.5 85.5z" />
    <glyph glyph-name="C" unicode="C" horiz-adv-x="559" 
d="M520 623l-9 -160h-34l-5 24q-10 43 -37 65.5t-81 22.5q-64 0 -116.5 -64t-52.5 -194q0 -134 52.5 -195.5t114.5 -61.5q54 0 81.5 18t44.5 58l11 25h34l-10 -146q-29 -14 -78.5 -23t-112.5 -9q-119 0 -201.5 81.5t-82.5 238.5t94.5 253t224.5 96q57 0 95.5 -7t67.5 -22z
" />
    <glyph glyph-name="D" unicode="D" horiz-adv-x="682" 
d="M644 349q0 -166 -115 -262.5t-272 -96.5q-66 0 -115.5 1.5t-102.5 8.5v23q28 11 42.5 30.5t14.5 60.5v466l-63 23v29q59 8 114 11.5t128 3.5q172 0 270.5 -77.5t98.5 -220.5zM500 330q0 119 -67.5 181.5t-160.5 62.5q-10 0 -22 -0.5t-24 -1.5v-506q13 -2 23.5 -3t21.5 -1
q92 0 160.5 65.5t68.5 202.5z" />
    <glyph glyph-name="E" unicode="E" horiz-adv-x="489" 
d="M472 141l-18 -141h-415v27q30 11 43.5 30t13.5 56v468l-63 27v32h417l-8 -162h-37l-3 19q-6 40 -24.5 55.5t-61.5 15.5h-90v-216h94q31 0 46.5 8.5t21.5 27.5l7 22h34v-196h-34l-4 22q-5 25 -17 37t-36 12h-112v-215h111q40 0 58.5 12.5t30.5 37.5l10 21h36z" />
    <glyph glyph-name="F" unicode="F" horiz-adv-x="463" 
d="M33 608v32h420l-8 -162h-36l-3 19q-6 37 -25 54t-62 17h-93v-224h92q31 0 48 10.5t24 34.5l7 22h34v-202h-34l-5 25q-4 22 -19.5 32.5t-41.5 10.5h-105v-224l73 -20v-26q-30 -7 -67 -12t-75 -5q-28 0 -61 2.5t-57 7.5v23q28 10 42.5 30t14.5 57v471z" />
    <glyph glyph-name="G" unicode="G" horiz-adv-x="622" 
d="M561 206v-219q-43 0 -68 7.5t-42 26.5q-21 -16 -58.5 -27t-79.5 -11q-116 0 -195.5 81.5t-79.5 230.5q0 165 96.5 261t245.5 96q53 0 95 -7t76 -23l-12 -159h-34l-6 26q-10 45 -40.5 65.5t-87.5 20.5q-78 0 -132 -64.5t-54 -197.5q0 -127 48.5 -189.5t116.5 -62.5
q23 0 46 5t40 12v181l-59 18v27q35 9 65 12.5t64 3.5q37 0 61 -2t51 -8v-22q-29 -12 -43 -32.5t-14 -49.5z" />
    <glyph glyph-name="H" unicode="H" horiz-adv-x="694" 
d="M467 584l-63 20v26q31 8 66 12.5t75 4.5q27 0 56.5 -3t52.5 -7v-23q-27 -11 -41.5 -29.5t-14.5 -55.5v-477l62 -19v-26q-31 -8 -65.5 -12.5t-74.5 -4.5q-27 0 -56.5 2.5t-53.5 7.5v23q28 11 42.5 30t14.5 56v185h-240v-242l62 -19v-26q-31 -8 -65.5 -12.5t-74.5 -4.5
q-27 0 -56.5 2.5t-53.5 7.5v23q28 11 42.5 30t14.5 56v475l-63 20v26q31 8 66 12.5t75 4.5q27 0 56.5 -3t52.5 -7v-23q-27 -11 -41.5 -29.5t-14.5 -55.5v-157h240v212z" />
    <glyph glyph-name="I" unicode="I" horiz-adv-x="323" 
d="M289 33v-26q-28 -7 -63.5 -12t-71.5 -5q-39 0 -65 2.5t-50 7.5v23q27 10 42 29.5t15 59.5v472l-63 20v26q34 8 69 12.5t72 4.5q30 0 56.5 -2.5t52.5 -7.5v-23q-31 -13 -43.5 -32t-12.5 -55v-475z" />
    <glyph glyph-name="J" unicode="J" horiz-adv-x="323" 
d="M283 637v-23q-29 -12 -42.5 -31.5t-13.5 -56.5v-433q0 -109 -43 -163.5t-98 -54.5q-19 0 -36.5 3.5t-35.5 10.5v16q34 21 58 67t24 106v506l-63 20v26q37 9 70.5 13t71.5 4q31 0 56.5 -2.5t51.5 -7.5z" />
    <glyph glyph-name="K" unicode="K" horiz-adv-x="608" 
d="M287 33v-26q-29 -8 -60.5 -12.5t-75.5 -4.5q-34 0 -61 2.5t-51 7.5v23q31 12 44 32t13 58v471l-63 20v26q35 9 69.5 13t69.5 4q31 0 57.5 -2.5t53.5 -7.5v-23q-31 -13 -43.5 -32t-12.5 -56v-474zM630 35v-23q-24 -13 -48.5 -19t-58.5 -6q-37 0 -67 17.5t-64 69.5
l-161 250v5l218 256v2l-57 17v26q39 10 69.5 13.5t65.5 3.5q23 0 43 -2.5t39 -7.5v-23q-25 -11 -42.5 -22.5t-35.5 -31.5l-174 -197l164 -235q22 -32 47 -53t62 -40z" />
    <glyph glyph-name="L" unicode="L" horiz-adv-x="471" 
d="M474 147l-18 -147h-417v25q27 10 42 28.5t15 52.5v478l-63 20v26q37 9 70.5 13t67.5 4t60.5 -2.5t51.5 -7.5v-23q-31 -13 -43.5 -33t-12.5 -55v-454h100q47 0 70.5 13t35.5 39l11 23h30z" />
    <glyph glyph-name="M" unicode="M" horiz-adv-x="821" 
d="M803 33v-26q-22 -8 -51.5 -12.5t-64.5 -4.5q-39 0 -68.5 2t-60.5 8v23q30 11 43.5 31t13.5 60l-14 409l-1 1l-171 -528l-71 -6l-173 533l-1 -1l-19 -469l63 -20v-26q-31 -9 -59.5 -13t-63.5 -4q-23 0 -45.5 3t-41.5 7v18q25 12 39 29t16 40l43 495l-56 21v33q43 4 86 6
t78 2h60l137 -449h1l147 449h64q33 0 68 -2t71 -6v-33l-59 -19l31 -534z" />
    <glyph glyph-name="N" unicode="N" horiz-adv-x="645" 
d="M611 638v-22q-30 -13 -42 -33t-12 -63v-520l-91 -11l-289 486l-1 -1v-422l61 -19v-26q-22 -8 -47 -12.5t-53 -4.5q-30 0 -53.5 2.5t-44.5 7.5v23q30 10 43.5 31.5t13.5 60.5v466l-59 22v33q34 4 74.5 5.5t74.5 1.5h42l248 -417l1 1v359l-63 19v27q28 7 54.5 11.5
t54.5 4.5q30 0 49 -2.5t39 -7.5z" />
    <glyph glyph-name="O" unicode="O" horiz-adv-x="689" 
d="M651 345q0 -176 -96 -269.5t-223 -93.5q-128 0 -211 85t-83 234q0 160 98.5 256t224.5 96q125 0 207.5 -84t82.5 -224zM505 325q0 129 -48.5 188t-107.5 59q-63 0 -113.5 -63t-50.5 -191t49 -191.5t109 -63.5q59 0 110.5 58t51.5 204z" />
    <glyph glyph-name="P" unicode="P" horiz-adv-x="570" 
d="M413 437q0 67 -40.5 103.5t-106.5 36.5q-10 0 -20 -1l-20 -2v-274q15 -4 28.5 -5.5t26.5 -1.5q54 0 93 38t39 106zM550 451q0 -99 -75.5 -164t-177.5 -65q-24 0 -40.5 3.5t-29.5 9.5v-182l72 -20v-26q-27 -7 -64.5 -12t-80.5 -5q-28 0 -59.5 2.5t-55.5 7.5v23
q28 10 42.5 29.5t14.5 54.5v473l-63 23v29q58 8 117 11.5t127 3.5q136 0 204.5 -51t68.5 -145z" />
    <glyph glyph-name="Q" unicode="Q" horiz-adv-x="689" 
d="M405 -6v-1q19 -5 40.5 -14t37.5 -19l61 -34q40 -22 64 -31t42 -9q15 0 28.5 1t30.5 5v-27q-17 -31 -47.5 -49t-67.5 -18q-39 0 -77 14.5t-81 48.5l-164 128q-106 22 -170 101.5t-64 210.5q0 157 97.5 254.5t225.5 97.5q126 0 208 -84.5t82 -223.5q0 -143 -69 -232.5
t-177 -118.5zM505 325q0 129 -48.5 188t-107.5 59q-63 0 -113.5 -63t-50.5 -191t49 -191.5t109 -63.5q59 0 110.5 58t51.5 204z" />
    <glyph glyph-name="R" unicode="R" horiz-adv-x="600" 
d="M227 243v-191l60 -19v-26q-28 -8 -61.5 -13t-73.5 -5q-29 0 -58.5 3t-54.5 8v23q28 10 42.5 30t14.5 56v472l-63 22v30q56 7 114.5 10.5t128.5 3.5q131 0 189.5 -44t58.5 -125q0 -72 -38.5 -122.5t-101.5 -66.5l128 -170q24 -31 47 -51t52 -35v-22q-22 -12 -48 -18
t-58 -6q-39 0 -66 15t-57 61l-117 180h-38zM390 457q0 59 -34 89.5t-90 30.5q-10 0 -20.5 -1t-19.5 -2v-269h39q51 0 88 37t37 115z" />
    <glyph glyph-name="S" unicode="S" horiz-adv-x="490" 
d="M280 653q55 0 88.5 -5.5t67.5 -20.5l-11 -162h-37l-5 26q-8 43 -33.5 63t-79.5 20q-53 0 -81.5 -24t-28.5 -55q0 -27 17 -49t60 -42l102 -48q63 -30 91 -68t28 -95q0 -84 -74 -147t-178 -63q-54 0 -94.5 7t-75.5 20v164h37l7 -30q10 -43 40.5 -62.5t92.5 -19.5
q54 0 86.5 23.5t32.5 60.5q0 31 -18 52.5t-65 46.5l-100 52q-51 26 -77.5 67.5t-26.5 97.5q0 81 67.5 136t167.5 55z" />
    <glyph glyph-name="T" unicode="T" horiz-adv-x="496" 
d="M-3 479v164q57 -1 135.5 -2.5t128.5 -1.5q65 0 122.5 2t115.5 7v-169h-37l-5 25q-6 33 -21.5 51t-44.5 18h-77v-521l72 -19v-26q-34 -8 -67 -12.5t-76 -4.5q-38 0 -66 2t-51 8v23q26 10 41.5 30t15.5 58v462h-67q-31 0 -49.5 -18t-26.5 -51l-6 -25h-37z" />
    <glyph glyph-name="U" unicode="U" horiz-adv-x="666" 
d="M639 636v-22q-31 -13 -43.5 -32.5t-12.5 -53.5v-277q0 -131 -70 -198.5t-177 -67.5q-128 0 -190.5 53t-62.5 152v395l-62 19v26q34 8 69 12.5t70 4.5q34 0 58.5 -2t52.5 -8v-23q-31 -12 -44 -32.5t-13 -59.5v-310q0 -68 36.5 -105t100.5 -37q61 0 99 40t38 126v348
l-62 20v26q31 9 59 13.5t56 4.5t51.5 -3t46.5 -9z" />
    <glyph glyph-name="V" unicode="V" horiz-adv-x="513" 
d="M536 636v-22q-19 -8 -33 -23.5t-24 -44.5l-185 -553l-72 -3l-203 595l-53 19v26q33 9 61 13t59 4q36 0 60 -2t58 -8v-23q-23 -9 -29 -25.5t1 -43.5l111 -361h1l106 401l-61 19v26q30 8 61 12.5t63 4.5q24 0 43.5 -3t35.5 -8z" />
    <glyph glyph-name="W" unicode="W" horiz-adv-x="832" 
d="M834 637v-23q-22 -11 -34 -26.5t-19 -40.5l-157 -553l-84 -4l-125 498h-1l-117 -494l-84 -4l-178 595l-56 19v27q28 8 60 12t63 4q35 0 62.5 -2t52.5 -7v-23q-22 -6 -29.5 -19t-1.5 -38l93 -366h1l87 395l-44 17v26q29 9 56 13t59 4q28 0 55 -2.5t46 -7.5v-23
q-14 -7 -18.5 -19.5t0.5 -34.5l90 -367h1l82 392l-57 19v26q33 9 61 13t56 4q25 0 43.5 -2t36.5 -8z" />
    <glyph glyph-name="X" unicode="X" horiz-adv-x="554" 
d="M564 31v-24q-28 -8 -53 -11.5t-59 -3.5q-36 0 -65 2t-59 6v23q19 4 26.5 17t-2.5 33l-93 181l-102 -204l59 -17v-27q-34 -8 -59 -11t-68 -3q-30 0 -53.5 2t-46.5 6v23q27 7 45.5 19.5t28.5 31.5l146 247l-148 266l-55 17v26q26 8 55 12.5t61 4.5q34 0 61.5 -2t58.5 -8
v-24q-19 -7 -26 -19t-1 -25l76 -158l95 176l-51 17v26q33 8 60 12.5t58 4.5q25 0 45 -2t42 -8v-23q-19 -5 -33.5 -16.5t-30.5 -37.5l-133 -206l166 -304z" />
    <glyph glyph-name="Y" unicode="Y" 
d="M206 637v-23q-19 -7 -26 -21.5t4 -36.5l102 -204h2l110 234l-51 18v26q28 8 55 12.5t56 4.5q28 0 45 -2.5t37 -7.5v-23q-19 -7 -30 -20t-27 -41l-151 -271v-230l62 -19v-26q-31 -8 -62 -12t-77 -4q-36 0 -61.5 2t-49.5 7v23q25 7 41 24t16 48v161l-172 330l-49 18v26
q27 8 58 12.5t60 4.5q34 0 57 -2.5t51 -7.5z" />
    <glyph glyph-name="Z" unicode="Z" horiz-adv-x="501" 
d="M480 640l8 -21l-296 -541h151q46 0 67.5 15.5t33.5 52.5l8 25h38l-14 -171h-442l-8 19l294 545h-156q-29 0 -49 -16.5t-31 -50.5l-7 -22h-40l14 165h429z" />
    <glyph glyph-name="bracketleft" unicode="[" horiz-adv-x="275" 
d="M94 707h172l-8 -51h-93v-843h101l-8 -49h-164v943z" />
    <glyph glyph-name="backslash" unicode="\" horiz-adv-x="325" 
d="M82 720l222 -951l-61 -12l-221 951z" />
    <glyph glyph-name="bracketright" unicode="]" horiz-adv-x="275" 
d="M182 -236h-172l7 50h93v843h-100l7 50h165v-943z" />
    <glyph glyph-name="asciicircum" unicode="^" 
d="M14 153l251 307l246 -305l-56 -46l-194 246l-194 -244z" />
    <glyph glyph-name="underscore" unicode="_" horiz-adv-x="500" 
d="M0 -71h500v-65h-500v65z" />
    <glyph glyph-name="grave" unicode="`" horiz-adv-x="450" 
d="M144 658q0 23 18.5 35.5t67.5 12.5q7 -45 31.5 -96.5t49.5 -82.5l-14 -8q-35 0 -94 49.5t-59 89.5z" />
    <glyph glyph-name="a" unicode="a" horiz-adv-x="483" 
d="M455 39q-13 -15 -41.5 -31.5t-54.5 -25.5q-16 9 -30.5 22t-25.5 28q-18 -16 -57.5 -31t-75.5 -15q-63 0 -100.5 32t-37.5 83q0 66 69 112.5t197 46.5v25q0 73 -21 99t-61 26q-36 0 -78 -20.5t-75 -53.5q-3 12 -5.5 25t-2.5 26q0 47 39 73.5t139 26.5q92 0 139.5 -38
t47.5 -101q0 -18 -1.5 -49.5t-2.5 -53.5l-4 -155q7 -13 18.5 -27t24.5 -24zM299 73v134q-70 0 -108.5 -27t-38.5 -64q0 -28 19 -44.5t52 -16.5q19 0 40 5t36 13z" />
    <glyph glyph-name="b" unicode="b" horiz-adv-x="549" 
d="M204 646v-209q22 20 57.5 33.5t70.5 13.5q81 0 132.5 -53t51.5 -159q0 -138 -79 -210.5t-186 -72.5q-51 0 -99.5 4t-86.5 11q7 22 11.5 50t4.5 53v535l-64 29v25q35 12 75 18t68 5h51zM387 248q0 77 -34 115.5t-78 38.5q-21 0 -38.5 -4.5t-33.5 -11.5v-323q13 -4 25.5 -6
t25.5 -2q51 0 92 46t41 147z" />
    <glyph glyph-name="c" unicode="c" horiz-adv-x="416" 
d="M404 71q0 -37 -38.5 -61.5t-115.5 -24.5q-92 0 -154.5 62.5t-62.5 168.5q0 124 72.5 196.5t181.5 72.5q66 0 91.5 -18t25.5 -51q0 -21 -7.5 -39.5t-19.5 -33.5q-25 29 -54 46t-60 17q-40 0 -70.5 -42t-30.5 -129q0 -78 36.5 -120.5t87.5 -42.5q29 0 58 9t54 23
q3 -7 4.5 -15.5t1.5 -17.5z" />
    <glyph glyph-name="d" unicode="d" horiz-adv-x="542" 
d="M347 642l-67 29v25q35 12 76.5 18t69.5 5h51l-7 -73v-552q7 -15 17 -30.5t24 -28.5q-19 -15 -46 -29t-55 -24q-16 11 -32 27.5t-25 30.5q-24 -23 -59 -38t-67 -15q-84 0 -139 58t-55 162q0 134 73 205.5t175 71.5q16 0 36 -1.5t30 -4.5v164zM348 85v325q-11 3 -28.5 5
t-34.5 2q-49 0 -86 -46t-37 -147q0 -81 33 -121.5t73 -40.5q22 0 44 6.5t36 16.5z" />
    <glyph glyph-name="e" unicode="e" horiz-adv-x="478" 
d="M450 298q0 -16 -0.5 -32.5t-1.5 -38.5h-289q0 -69 42 -111t103 -42q32 0 70.5 11t66.5 25q1 -6 2 -14t1 -16q0 -36 -47.5 -65.5t-136.5 -29.5q-99 0 -163 62t-64 168q0 133 67.5 202.5t160.5 69.5q87 0 138 -51t51 -138zM335 289q0 72 -24 103.5t-62 31.5q-34 0 -63 -38
t-29 -97h178z" />
    <glyph glyph-name="f" unicode="f" horiz-adv-x="310" 
d="M210 47l60 -16v-23q-29 -9 -61.5 -13t-80.5 -4q-22 0 -47.5 2.5t-45.5 6.5v20q19 8 35.5 24.5t16.5 36.5v319h-56v45l56 25l-1 66q-1 78 52 131t155 53q66 0 89.5 -15.5t23.5 -44.5q0 -10 -2.5 -22t-6.5 -23q-29 16 -64 24.5t-67 8.5q-25 0 -42 -24t-17 -75
q0 -12 1.5 -42t2.5 -44h115l-8 -63h-108v-353z" />
    <glyph glyph-name="g" unicode="g" horiz-adv-x="495" 
d="M327 315q0 58 -24.5 86t-55.5 28q-35 0 -61 -33.5t-26 -99.5q0 -57 24.5 -87.5t54.5 -30.5q36 0 62 32.5t26 104.5zM112 -23v1q-29 11 -43.5 30t-14.5 48t23 56t56 37v1q-38 13 -68 50t-30 93q0 82 63 138t155 56q32 0 64 -10t47 -24q14 15 39.5 26t52.5 11q14 0 25.5 -2
t20.5 -6l-7 -78q-27 7 -54.5 9.5t-58.5 2.5v-1q28 -16 49 -46t21 -63q0 -82 -62 -132.5t-157 -50.5q-16 0 -33.5 3t-28.5 7q-9 -5 -16.5 -16.5t-7.5 -22.5q0 -20 17 -30.5t51 -9.5l127 4q77 2 112.5 -29t35.5 -93q0 -75 -76 -131t-189 -56q-104 0 -155.5 33t-51.5 87
q0 38 27 68t67 40zM153 -49q-17 -9 -27.5 -25.5t-10.5 -35.5q0 -28 32 -48t93 -20q72 0 112 24.5t40 56.5q0 22 -16.5 35t-55.5 13h-167z" />
    <glyph glyph-name="h" unicode="h" horiz-adv-x="580" 
d="M507 47l53 -16v-23q-25 -8 -57 -12.5t-75 -4.5q-21 0 -42 2.5t-39 6.5v20q19 10 28 26.5t9 41.5v187q0 66 -27 94t-70 28q-21 0 -41.5 -6t-33.5 -14v-330l56 -16v-23q-29 -9 -60.5 -13t-77.5 -4q-22 0 -47.5 2.5t-45.5 6.5v20q19 8 35.5 24.5t16.5 36.5v561l-64 29v25
q35 12 73.5 18t69.5 5h51l-7 -73v-219q27 27 64 41.5t80 14.5q72 0 111.5 -40t39.5 -124v-272z" />
    <glyph glyph-name="i" unicode="i" horiz-adv-x="292" 
d="M225 631q0 -34 -21 -54.5t-52 -20.5q-30 0 -50 19.5t-20 50.5q0 30 20.5 51t53.5 21q30 0 49.5 -18t19.5 -49zM89 402l-62 29v24q36 12 74.5 18t66.5 6l51 -1l-7 -71v-360l56 -16v-23q-28 -9 -60.5 -13t-78.5 -4q-22 0 -47.5 2.5t-44.5 6.5v20q19 8 35.5 24.5t16.5 36.5
v321z" />
    <glyph glyph-name="j" unicode="j" horiz-adv-x="282" 
d="M223 631q0 -34 -21 -54.5t-52 -20.5q-30 0 -50 19.5t-20 50.5q0 30 20.5 51t53.5 21q30 0 49.5 -18t19.5 -49zM212 405v-424q0 -129 -37.5 -178t-97.5 -49q-31 0 -53.5 11.5t-30.5 30.5v17q37 0 66.5 36t29.5 106v447l-61 29v24q35 12 73.5 18t66.5 6l51 -1z" />
    <glyph glyph-name="k" unicode="k" horiz-adv-x="507" 
d="M217 719l-8 -73v-382l55 50q34 29 60 75.5t26 81.5q16 6 34.5 9t35.5 3q13 0 26.5 -2.5t27.5 -6.5q-1 -40 -31 -86.5t-93 -94.5l-25 -17l133 -172q22 -28 40 -43t36 -21v-26q-22 -13 -46 -18t-52 -5t-50 11t-41 39l-136 197v-191l51 -16v-23q-29 -9 -59 -13t-74 -4
q-22 0 -47.5 2.5t-44.5 6.5v20q19 8 35 24.5t16 37.5v560l-64 29v25q36 12 76 18t68 5h51z" />
    <glyph glyph-name="l" unicode="l" horiz-adv-x="289" 
d="M86 81v561l-64 29v25q35 12 75 18t68 5h51l-7 -73v-599l55 -16v-23q-28 -9 -60 -13t-78 -4q-22 0 -47.5 2.5t-44.5 6.5v20q19 8 35.5 24.5t16.5 36.5z" />
    <glyph glyph-name="m" unicode="m" horiz-adv-x="860" 
d="M207 480v-56q28 28 66.5 43.5t81.5 15.5q45 0 78 -17.5t47 -46.5q26 25 70.5 44.5t90.5 19.5q69 0 107.5 -40t38.5 -125v-271l53 -16v-23q-25 -8 -57 -12.5t-74 -4.5q-22 0 -43 2.5t-39 6.5v20q19 10 28 26.5t9 41.5v190q0 62 -27 90.5t-70 28.5q-19 0 -38.5 -4.5
t-34.5 -11.5q2 -13 4 -31t2 -35v-268l52 -16v-23q-25 -8 -56 -12.5t-74 -4.5q-21 0 -42 2.5t-39 6.5v20q18 10 27 26.5t9 41.5v184q0 69 -24.5 97t-67.5 28q-22 0 -41 -6t-32 -14v-330l54 -16v-23q-28 -9 -59 -13t-77 -4q-22 0 -47.5 2.5t-45.5 6.5v20q19 8 35.5 24.5
t16.5 36.5v322l-61 29v25q35 11 73.5 17.5t66.5 5.5h39z" />
    <glyph glyph-name="n" unicode="n" horiz-adv-x="580" 
d="M28 432v25q35 11 73.5 17.5t66.5 5.5h39v-56q27 27 67 43t83 16q69 0 109.5 -40t40.5 -125v-271l53 -16v-23q-25 -8 -57 -12.5t-74 -4.5q-22 0 -43 2.5t-39 6.5v20q19 10 28 26.5t9 41.5v188q0 64 -27 92.5t-69 28.5q-22 0 -42.5 -6t-33.5 -14v-330l56 -16v-23
q-29 -9 -60.5 -13t-77.5 -4q-22 0 -47.5 2.5t-45.5 6.5v20q19 8 35.5 24.5t16.5 36.5v322z" />
    <glyph glyph-name="o" unicode="o" horiz-adv-x="559" 
d="M526 257q0 -129 -80 -201.5t-176 -72.5q-104 0 -170.5 64t-66.5 170q0 120 77 196t182 76q103 0 168.5 -64t65.5 -168zM393 249q0 84 -33.5 125.5t-76.5 41.5q-42 0 -79.5 -46t-37.5 -145q0 -83 34.5 -126t75.5 -43q40 0 78.5 44.5t38.5 148.5z" />
    <glyph glyph-name="p" unicode="p" horiz-adv-x="553" 
d="M207 387v-323q13 -4 26.5 -6.5t29.5 -2.5q49 0 88.5 46t39.5 144q0 81 -35 119t-80 38q-20 0 -37 -4t-32 -11zM273 -207v-23q-28 -9 -62.5 -13t-85.5 -4q-22 0 -47.5 2.5t-44.5 6.5v20q19 8 35.5 24.5t16.5 36.5v560l-62 29v25q36 11 74.5 17.5t66.5 5.5h39v-50
q25 24 61 39t71 15q81 0 133 -53.5t52 -162.5q0 -136 -75 -207.5t-174 -71.5q-17 0 -33.5 3.5t-29.5 7.5v-190z" />
    <glyph glyph-name="q" unicode="q" horiz-adv-x="545" 
d="M471 -190l60 -17v-23q-28 -9 -60 -13t-82 -4q-22 0 -47.5 2.5t-45.5 6.5v20q19 8 35.5 24.5t16.5 36.5v187q-22 -18 -56.5 -30.5t-65.5 -12.5q-82 0 -137 58t-55 163q0 130 73 203t174 73q21 0 42 -4.5t36 -11.5l78 19h41l-7 -89v-588zM349 83v325q-9 4 -27.5 7t-33.5 3
q-51 0 -88 -46.5t-37 -147.5q0 -81 32.5 -121.5t72.5 -40.5q24 0 47 7t34 14z" />
    <glyph glyph-name="r" unicode="r" horiz-adv-x="367" 
d="M212 47l71 -16v-23q-29 -9 -66.5 -13t-86.5 -4q-22 0 -47.5 2.5t-45.5 6.5v20q19 8 35.5 24.5t16.5 36.5v322l-61 29v25q35 11 73.5 17.5t66.5 5.5h39v-77h2l27 35q19 25 37.5 35.5t43.5 10.5q27 0 40 -12t13 -37q0 -19 -4 -39t-11 -39q-17 10 -32.5 15.5t-31.5 5.5
q-22 0 -41.5 -7.5t-37.5 -22.5v-301z" />
    <glyph glyph-name="s" unicode="s" horiz-adv-x="405" 
d="M381 147q0 -66 -58 -115t-151 -49q-75 0 -108.5 22t-33.5 63q0 13 3 28t7 25q38 -30 76 -45t75 -15q38 0 57 13t19 35t-16 37t-60 31l-55 20q-48 17 -73.5 48.5t-25.5 79.5q0 66 53 114.5t146 48.5q67 0 96 -20t29 -54q0 -14 -2 -27t-6 -28q-25 21 -59.5 34t-64.5 13
q-46 0 -66.5 -14.5t-20.5 -33.5t14 -33.5t57 -28.5l61 -20q58 -19 82.5 -50.5t24.5 -78.5z" />
    <glyph glyph-name="t" unicode="t" horiz-adv-x="332" 
d="M332 91l8 -10q-4 -46 -34.5 -70t-88.5 -24q-69 0 -104.5 34t-35.5 106q0 27 1 71t2 75l4 128h-50v43l135 109l45 4l-5 -92h118l-8 -66h-115l-2 -117q-1 -29 -1 -57v-53q0 -54 17 -76.5t48 -22.5q18 0 34.5 5t31.5 13z" />
    <glyph glyph-name="u" unicode="u" horiz-adv-x="560" 
d="M360 405l-55 29v24q35 12 71 18t64 6h51l-8 -73v-318q7 -13 17.5 -28t22.5 -27q-14 -13 -44.5 -29t-58.5 -25q-15 10 -29.5 26t-23.5 32q-22 -22 -62 -37.5t-83 -15.5q-72 0 -110.5 38.5t-38.5 128.5v251l-57 29v24q35 12 72 18t65 6h51l-8 -73v-213q0 -70 23.5 -99
t65.5 -29q21 0 41 6t34 13v318z" />
    <glyph glyph-name="v" unicode="v" horiz-adv-x="429" 
d="M-20 480h220v-30l-45 -24l94 -282h1l90 277l-49 27v32h166v-30l-29 -26l-176 -434l-63 -3l-172 432l-37 29v32z" />
    <glyph glyph-name="w" unicode="w" horiz-adv-x="681" 
d="M-21 480h225v-30l-46 -23l71 -286h1l83 285l-43 22v32h188v-30l-26 -20l74 -288h1l85 278l-50 28v32h167v-30l-27 -22l-171 -437l-59 -3l-107 344h-1l-104 -341l-65 -3l-153 429l-43 31v32z" />
    <glyph glyph-name="x" unicode="x" horiz-adv-x="443" 
d="M5 480h210v-30l-35 -17l64 -140l68 134l-41 21v32h162v-30l-30 -25l-113 -170l121 -209l43 -15v-23q-25 -8 -53.5 -12.5t-62.5 -4.5q-27 0 -51.5 2t-41.5 7v20q17 6 22.5 16t0.5 20l-62 131l-75 -142l46 -14v-23q-30 -9 -52.5 -13t-57.5 -4q-22 0 -42.5 2.5t-38.5 6.5v20
q16 4 33.5 16t27.5 28l112 170l-112 189l-42 25v32z" />
    <glyph glyph-name="y" unicode="y" horiz-adv-x="418" 
d="M-29 480h228v-30l-47 -26l96 -269h1l82 267l-50 26v32h162v-30l-27 -25l-143 -386q-63 -172 -120 -228.5t-98 -56.5q-37 0 -54.5 21.5t-17.5 74.5q13 -3 26.5 -4.5t27.5 -1.5q28 0 70 37t67 111l12 35l-171 392l-44 29v32z" />
    <glyph glyph-name="z" unicode="z" horiz-adv-x="418" 
d="M387 480l11 -25l-217 -384h96q34 0 52 10.5t28 32.5l13 29h32l-16 -143h-353l-11 22l222 387h-95q-29 0 -45 -10.5t-27 -35.5l-10 -22h-32l13 139h339z" />
    <glyph glyph-name="braceleft" unicode="{" horiz-adv-x="275" 
d="M100 593q0 55 30 88t79 33q23 0 35 -11t12 -30q-44 0 -64 -18t-20 -52v-244q0 -50 -40.5 -82t-126.5 -42v-1q86 -1 126.5 -36.5t40.5 -89.5v-235q0 -39 22 -58t66 -19q0 -19 -13.5 -30.5t-40.5 -11.5q-53 0 -79.5 28t-26.5 76v232q0 40 -32.5 72.5t-104.5 55.5v33
q72 16 104.5 41.5t32.5 59.5v241z" />
    <glyph glyph-name="bar" unicode="|" horiz-adv-x="300" 
d="M116 736h68v-1000h-68v1000z" />
    <glyph glyph-name="braceright" unicode="}" horiz-adv-x="275" 
d="M176 -125q0 -55 -30 -88t-79 -33q-23 0 -35 11t-12 30q44 0 64 18t20 52v245q0 50 40.5 82t126.5 42v1q-86 1 -126.5 36.5t-40.5 89.5v234q0 39 -22 58t-66 19q0 19 13.5 30.5t40.5 11.5q53 0 79.5 -28t26.5 -76v-231q0 -40 32.5 -72.5t104.5 -55.5v-33
q-72 -16 -104.5 -41.5t-32.5 -59.5v-242z" />
    <glyph glyph-name="asciitilde" unicode="~" 
d="M145 324q16 0 33.5 -3t36.5 -8l61 -16q11 -3 24 -5t24 -2q17 0 32.5 15.5t15.5 33.5q14 -13 22.5 -29.5t8.5 -36.5q0 -27 -23 -45t-52 -18q-17 0 -35 2.5t-33 6.5l-62 17q-14 4 -27 6t-23 2q-18 0 -31.5 -13t-13.5 -29q-13 12 -21.5 28t-8.5 34q0 28 19 44t53 16z" />
    <glyph glyph-name="uni00A0" unicode="&#xa0;" horiz-adv-x="192" 
 />
    <glyph glyph-name="exclamdown" unicode="&#xa1;" horiz-adv-x="321" 
d="M239 417q0 -30 -21 -51t-51 -21t-51 21t-21 51t21 51t51 21t51 -21t21 -51zM31 -198l36 75l36 172q5 25 8 60.5t3 60.5q0 28 -4.5 60t-11.5 58q58 0 94 -35.5t36 -96.5q0 -59 -15.5 -130t-15.5 -126q0 -21 3.5 -42t10.5 -40q-45 -8 -85.5 -12t-94.5 -4z" />
    <glyph glyph-name="cent" unicode="&#xa2;" 
d="M206 235q0 -72 30.5 -113.5t75.5 -48.5v333h-5q-40 0 -70.5 -42t-30.5 -129zM448 71q0 -30 -25 -52t-75 -30v-89h-36v86q-4 -1 -9 -1h-9q-92 0 -154.5 62.5t-62.5 168.5q0 118 67 190t168 78v95h36v-94q56 -2 78 -20t22 -49q0 -21 -7.5 -39.5t-19.5 -33.5
q-16 19 -35 33.5t-38 21.5v-325q25 2 49 10.5t45 20.5q3 -7 4.5 -15.5t1.5 -17.5z" />
    <glyph glyph-name="sterling" unicode="&#xa3;" horiz-adv-x="519" 
d="M225 79h132q40 0 58.5 12.5t30.5 37.5l10 21h36l-18 -150h-427v27q30 11 43.5 30t13.5 56l9 179h-62v46l65 19l6 137q3 72 64.5 117.5t161.5 45.5q74 0 102 -13.5t28 -38.5q0 -13 -3 -28t-10 -28q-28 21 -62.5 30.5t-68.5 9.5q-38 0 -64.5 -25t-28.5 -67l-6 -140h174
l-10 -65h-166z" />
    <glyph glyph-name="currency" unicode="&#xa4;" 
d="M365 494l45 45l41 -41l-45 -45q16 -22 25 -48.5t9 -56.5t-9 -56.5t-25 -48.5l45 -45l-41 -41l-45 45q-22 -16 -48.5 -25t-56.5 -9t-56.5 9t-48.5 25l-45 -45l-41 41l44 44q-16 22 -24.5 49t-8.5 57t9 57t25 49l-44 44l40 41l44 -45q22 16 49 25t57 9t56.5 -9t48.5 -25z
M260 464q-48 0 -82 -34t-34 -82t34 -82t82 -34t82 34t34 82t-34 82t-82 34z" />
    <glyph glyph-name="yen" unicode="&#xa5;" 
d="M210 637v-23q-19 -7 -25.5 -21.5t3.5 -36.5l98 -204h2l106 234l-51 18v26q28 8 55 12.5t56 4.5q28 0 45 -2.5t37 -7.5v-23q-19 -7 -30.5 -20t-26.5 -41l-147 -263h156v-48h-160v-46h160v-48h-160v-96l62 -19v-26q-31 -8 -60 -12t-75 -4q-36 0 -61.5 2t-49.5 7v23
q25 7 41 24t16 48v53h-152v48h152v46h-152v48h134l-150 296l-49 18v26q27 8 58 12.5t60 4.5q34 0 57 -2.5t51 -7.5z" />
    <glyph glyph-name="brokenbar" unicode="&#xa6;" horiz-adv-x="300" 
d="M116 736h68v-406h-68v406zM116 141h68v-405h-68v405z" />
    <glyph glyph-name="section" unicode="&#xa7;" horiz-adv-x="500" 
d="M112 436q0 -38 15.5 -76t46.5 -79l107 -138q37 -47 55.5 -91t18.5 -92q0 -38 -16.5 -74.5t-39.5 -59.5q25 0 62.5 54t37.5 129q0 46 -16.5 85.5t-50.5 82.5l-98 124q-37 47 -54.5 84.5t-17.5 75.5q0 46 18 80.5t48 52.5q-41 0 -78.5 -46t-37.5 -112zM289 573
q-40 0 -60.5 -28.5t-20.5 -69.5q0 -27 19 -62.5t58 -84.5l99 -124q32 -40 49.5 -83.5t17.5 -95.5q0 -116 -78.5 -194t-164.5 -78q-37 0 -79.5 9t-70.5 24v153h38l7 -33q11 -41 39 -61.5t70 -20.5q37 0 64.5 30t27.5 81q0 40 -18.5 83.5t-56.5 93.5l-108 141q-32 43 -47 83.5
t-15 85.5q0 90 66 158t161 68q55 0 88.5 -6.5t67.5 -21.5l-11 -160h-37l-5 26q-8 43 -37 65t-63 22z" />
    <glyph glyph-name="dieresis" unicode="&#xa8;" horiz-adv-x="450" 
d="M371 607q0 -24 -16 -40t-38 -16q-24 0 -38 15t-14 38t15.5 40.5t39.5 17.5q22 0 36.5 -15t14.5 -40zM199 607q0 -24 -16 -40t-38 -16q-24 0 -38 15t-14 38t15.5 40.5t39.5 17.5q22 0 36.5 -15t14.5 -40z" />
    <glyph glyph-name="copyright" unicode="&#xa9;" horiz-adv-x="850" 
d="M427 651q140 0 239 -96t99 -236q0 -138 -101.5 -238t-240.5 -100q-143 0 -240.5 96t-97.5 238q0 138 102 237t240 99zM424 603q-116 0 -197 -83.5t-81 -201.5q0 -122 81 -205.5t199 -83.5q116 0 197.5 83t81.5 204q0 120 -82.5 203.5t-198.5 83.5zM456 191q29 0 49.5 12
t30.5 37l5 12h24l-13 -94q-25 -13 -54.5 -19t-63.5 -6q-70 0 -125 51t-55 136q0 89 61.5 145.5t137.5 56.5q31 0 62 -7.5t48 -17.5l-9 -92h-24l-5 16q-7 22 -26 35.5t-46 13.5q-34 0 -62 -35t-28 -110q0 -68 30.5 -101t62.5 -33z" />
    <glyph glyph-name="ordfeminine" unicode="&#xaa;" horiz-adv-x="329" 
d="M314 349q-9 -9 -30.5 -20.5t-40.5 -17.5q-11 6 -21.5 14.5t-18.5 18.5q-13 -10 -39 -19.5t-51 -9.5q-44 0 -70 20.5t-26 54.5q0 43 46.5 73t134.5 30v16q0 45 -14 62t-39 17q-23 0 -53 -14t-52 -36q-2 9 -4 18.5t-2 19.5q0 31 26.5 47.5t97.5 16.5q66 0 99 -24t33 -66
q0 -12 -1 -33t-1 -35l-3 -100q4 -7 12.5 -16.5t16.5 -16.5zM199 372v85q-44 0 -68.5 -16.5t-24.5 -40.5q0 -17 13 -27.5t34 -10.5q11 0 24 2.5t22 7.5z" />
    <glyph glyph-name="guillemotleft" unicode="&#xab;" horiz-adv-x="477" 
d="M464 420q-30 -25 -59.5 -57t-51.5 -60l-32 -44l48 -80q18 -30 39 -55.5t44 -47.5q-14 -5 -30.5 -8.5t-36.5 -3.5q-28 0 -52.5 16.5t-46.5 57.5l-64 115l56 81q42 60 71.5 82.5t52.5 22.5q18 0 33.5 -4.5t28.5 -14.5zM266 420q-30 -25 -59.5 -57t-51.5 -60l-32 -44l48 -80
q18 -30 39 -55.5t44 -47.5q-14 -5 -30.5 -8.5t-36.5 -3.5q-28 0 -52.5 16.5t-46.5 57.5l-64 115l56 81q42 60 71.5 82.5t52.5 22.5q18 0 33.5 -4.5t28.5 -14.5z" />
    <glyph glyph-name="logicalnot" unicode="&#xac;" 
d="M469 326v-200h-70v134h-348v66h418z" />
    <glyph glyph-name="uni00AD" unicode="&#xad;" horiz-adv-x="314" 
d="M-19968 16803l634.38 -772.511l-839.537 714.996l-634.38 772.511zM-20054.7 16823.1l-47.333 -11.2568l-327.723 330.675l-12.4209 -2.9541l328.059 -330.595l-47.333 -11.2568l86.3486 -87.0703l44.999 13.6094l330.057 -333.027l13.7549 1.81641l-330.392 332.948
l49.3311 8.82324z" />
    <glyph glyph-name="registered" unicode="&#xae;" horiz-adv-x="850" 
d="M-92 -118l75 -58.5t88.5 -175.5t38.5 -199.5t50.5 -187.5t44 -132.5t145 -38.5t145.5 -30t37.5 -34t49 -29t129.5 -75.5t-352 449.5zM989.5 -1205.5q95.5 -6.5 134.5 -110.5t64.5 -127t42.5 -35.5t45.5 -40.5t52 -31.5t37 -7t40.5 -42t74 -48.5t57.5 -92.5t21 -155
t-327 312t-242 378zM1641.5 -2158.5q26.5 -49.5 51.5 -124.5t43 -97.5t61 -47.5t44 -36t74 -37.5t107.5 -50t75 -33.5t78 -123.5t55 -156t19.5 -60t117 -57.5t221 -62.5t113.5 -76.5t10 -121t51.5 -144.5t52 -113t20 -42.5t101.5 -72t176 -161t115 -195.5t105.5 -184.5
t106.5 -187t51.5 -102t54.5 -103.5t38 -121t119.5 -90.5t126.5 -145t73.5 -140.5t154.5 -119.5t102 -112t70.5 -61h83.5h53.5h106h183.5h217.5t-1578 1614t-1654.5 1564.5zM5085 -23867v0l227 125l-21369 125v165l119 -4241q-178 219 -97 5564.5t81 5202.5
q21074 11589 21039 -6941z" />
    <glyph glyph-name="macron" unicode="&#xaf;" horiz-adv-x="450" 
d="M358 570h-266v74h266v-74z" />
    <glyph glyph-name="degree" unicode="&#xb0;" horiz-adv-x="440" 
 />
    <glyph glyph-name="plusminus" unicode="&#xb1;" 
d="M295 326h174v-66h-174v-134h-69v134h-175v66h175v129h69v-129zM51 65h418v-65h-418v65z" />
    <glyph glyph-name="twosuperior" unicode="&#xb2;" horiz-adv-x="326" 
d="M242 319q-28 0 -94.5 2t-121.5 2l-5 38l111 91q29 24 42.5 45.5t13.5 43.5q0 24 -16 38t-44 14q-22 0 -44.5 -13t-43.5 -33q-5 9 -8 19t-3 23q0 22 28 39.5t94 17.5q72 0 105.5 -25t33.5 -62q0 -35 -21.5 -65t-68.5 -59l-81 -54h59q37 0 67 4t61 12q2 -7 3.5 -16t1.5 -19
q0 -22 -16 -32.5t-53 -10.5z" />
    <glyph glyph-name="threesuperior" unicode="&#xb3;" horiz-adv-x="326" 
d="M294 572q0 -31 -30.5 -55t-82.5 -31v-1q62 0 91.5 -19.5t29.5 -50.5q0 -43 -45 -72t-121 -29q-60 0 -82 13t-22 34q0 7 3 15.5t7 15.5q18 -13 43.5 -23t44.5 -10q31 0 50.5 13t19.5 34q0 20 -22 32.5t-72 12.5q-7 0 -16.5 -0.5t-16.5 -1.5l-7 49l29 -1q39 -1 69 15t30 42
q0 19 -15 29.5t-44 10.5q-21 0 -44 -9t-39 -23q-4 9 -6 18.5t-2 18.5q0 19 27 33t92 14q69 0 100 -21t31 -53z" />
    <glyph glyph-name="acute" unicode="&#xb4;" horiz-adv-x="450" 
d="M305 658q0 -40 -59 -89.5t-94 -49.5l-13 8q25 31 49 82.5t31 96.5q49 0 67.5 -12.5t18.5 -35.5z" />
    <glyph glyph-name="uni00B5" unicode="&#xb5;" horiz-adv-x="553" 
 />
    <glyph glyph-name="paragraph" unicode="&#xb6;" horiz-adv-x="500" 
d="M498 636v-23q-31 -13 -43.5 -32t-12.5 -55v-711l62 -19v-26q-28 -7 -68.5 -12t-76.5 -5q-39 0 -73 2.5t-58 7.5v23q27 10 42 29.5t15 59.5v334q-14 -8 -36 -13t-41 -5q-69 0 -117 49t-48 145q0 117 82 189.5t201 72.5q34 0 85 -3.5t87 -7.5zM340 595v-788h49v788h-49z
" />
    <glyph glyph-name="periodcentered" unicode="&#xb7;" horiz-adv-x="275" 
d="M66 254q0 30 21 51t51 21t51 -21t21 -51t-21 -51t-51 -21t-51 21t-21 51z" />
    <glyph glyph-name="cedilla" unicode="&#xb8;" horiz-adv-x="270" 
d="M136 6h41v-55q40 0 61 -16.5t21 -44.5q0 -43 -42.5 -76.5t-96.5 -33.5q-40 0 -62.5 22t-22.5 68q23 -15 47.5 -24t49.5 -9q22 0 35.5 11t13.5 24q0 16 -14.5 26t-50.5 10z" />
    <glyph glyph-name="onesuperior" unicode="&#xb9;" horiz-adv-x="326" 
d="M291 332q-31 -9 -60.5 -13.5t-67.5 -4.5q-30 0 -59 2.5t-54 8.5v15q25 5 50 17t25 36v198l-74 -4v33q27 11 64 17t69 6q9 0 21 -1t20 -2q-3 -13 -5 -29.5t-2 -29.5v-219l73 -15v-15z" />
    <glyph glyph-name="ordmasculine" unicode="&#xba;" horiz-adv-x="388" 
d="M366 493q0 -87 -55.5 -134t-122.5 -47q-73 0 -119.5 41.5t-46.5 111.5q0 78 54 127.5t128 49.5q72 0 117 -41.5t45 -107.5zM262 487q0 54 -20 79t-46 25t-48 -28t-22 -94q0 -53 20 -79.5t46 -26.5q25 0 47.5 28.5t22.5 95.5z" />
    <glyph glyph-name="guillemotright" unicode="&#xbb;" horiz-adv-x="477" 
d="M212 84q30 25 59 57t51 60l33 44l-48 80q-19 30 -39.5 55.5t-43.5 47.5q14 5 30.5 8.5t36.5 3.5q28 0 52.5 -16.5t46.5 -57.5l64 -115l-56 -81q-42 -60 -71.5 -82.5t-52.5 -22.5q-18 0 -33.5 4.5t-28.5 14.5zM14 84q30 25 59 57t51 60l33 44l-48 80q-19 30 -39.5 55.5
t-43.5 47.5q14 5 30.5 8.5t36.5 3.5q28 0 52.5 -16.5t46.5 -57.5l64 -115l-56 -81q-42 -60 -71.5 -82.5t-52.5 -22.5q-18 0 -33.5 4.5t-28.5 14.5z" />
    <glyph glyph-name="onequarter" unicode="&#xbc;" horiz-adv-x="740" 
d="M572 690l43 -24l-431 -718l-42 24zM299 332q-31 -9 -60.5 -13.5t-67.5 -4.5q-30 0 -59 2.5t-54 8.5v15q25 5 50 17t25 36v198l-74 -4v33q27 11 64 17t69 6q9 0 21 -1t20 -2q-3 -13 -5 -29.5t-2 -29.5v-219l73 -15v-15zM618 321h39q-3 -21 -4.5 -47.5t-1.5 -51.5v-96h15
q7 0 14 1.5t14 4.5q1 -7 2 -13t1 -14q0 -21 -8 -29.5t-26 -8.5h-13v-34l51 -14v-14q-23 -7 -48 -10.5t-50 -3.5q-24 0 -48.5 3.5t-43.5 7.5v15q16 2 31.5 7.5t15.5 19.5v24h-160q0 89 63.5 161.5t156.5 91.5zM566 255l-1 1q-34 -18 -64 -55.5t-40 -73.5h101v66q0 17 1 33.5
t3 28.5z" />
    <glyph glyph-name="onehalf" unicode="&#xbd;" horiz-adv-x="740" 
d="M560 690l43 -24l-431 -718l-42 24zM299 332q-31 -9 -60.5 -13.5t-67.5 -4.5q-30 0 -59 2.5t-54 8.5v15q25 5 50 17t25 36v198l-74 -4v33q27 11 64 17t69 6q9 0 21 -1t20 -2q-3 -13 -5 -29.5t-2 -29.5v-219l73 -15v-15zM715 39q0 -22 -16 -32.5t-53 -10.5q-28 0 -94.5 2
t-121.5 2l-5 38l111 91q29 24 42.5 45.5t13.5 43.5q0 24 -16 38t-44 14q-22 0 -44.5 -13t-43.5 -33q-5 9 -8 19t-3 23q0 22 28 39.5t94 17.5q72 0 105.5 -25t33.5 -62q0 -35 -21.5 -65t-68.5 -59l-81 -54h59q37 0 67 4t61 12q2 -7 3.5 -16t1.5 -19z" />
    <glyph glyph-name="threequarters" unicode="&#xbe;" horiz-adv-x="740" 
d="M572 690l43 -24l-431 -718l-42 24zM302 572q0 -31 -30.5 -55t-82.5 -31v-1q62 0 91.5 -19.5t29.5 -50.5q0 -43 -45 -72t-121 -29q-60 0 -82 13t-22 34q0 7 3 15.5t7 15.5q18 -13 43.5 -23t44.5 -10q31 0 50.5 13t19.5 34q0 20 -22 32.5t-72 12.5q-7 0 -16.5 -0.5
t-16.5 -1.5l-7 49l29 -1q39 -1 69 15t30 42q0 19 -15 29.5t-44 10.5q-21 0 -44 -9t-39 -23q-4 9 -6 18.5t-2 18.5q0 19 27 33t92 14q69 0 100 -21t31 -53zM614 321h39q-3 -21 -4.5 -47.5t-1.5 -51.5v-96h15q7 0 14 1.5t14 4.5q1 -7 2 -13t1 -14q0 -21 -8 -29.5t-26 -8.5h-13
v-34l51 -14v-14q-23 -7 -48 -10.5t-50 -3.5q-24 0 -48.5 3.5t-43.5 7.5v15q16 2 31.5 7.5t15.5 19.5v24h-160q0 89 63.5 161.5t156.5 91.5zM562 255l-1 1q-34 -18 -64 -55.5t-40 -73.5h101v66q0 17 1 33.5t3 28.5z" />
    <glyph glyph-name="questiondown" unicode="&#xbf;" horiz-adv-x="435" 
d="M337 417q0 -30 -21 -51t-51 -21t-51 21t-21 51t21 51t51 21t51 -21t21 -51zM12 -62q0 48 41 96t136 106l60 37q-6 26 -16 53t-22 51q7 1 15.5 2.5t15.5 1.5q37 0 60.5 -22t23.5 -56q0 -25 -13.5 -47.5t-54.5 -57.5l-55 -47q-31 -27 -46 -51.5t-15 -52.5q0 -37 22.5 -57
t64.5 -20q34 0 73.5 29.5t62.5 67.5q7 -13 12.5 -29t5.5 -37q0 -45 -42.5 -75.5t-141.5 -30.5q-88 0 -137.5 38t-49.5 101z" />
    <glyph glyph-name="Agrave" unicode="&#xc0;" horiz-adv-x="591" 
d="M48 87l194 550l131 13l170 -598l53 -19v-26q-25 -8 -56.5 -12.5t-62.5 -4.5q-30 0 -60 2t-58 8v23q24 8 32.5 23.5t3.5 35.5l-29 106h-189l-37 -137l60 -18v-26q-28 -9 -59 -13t-68 -4q-20 0 -41.5 2.5t-42.5 7.5v23q24 10 37 23t22 41zM351 254l-69 279h-1l-86 -279h156
zM203 808q0 23 18.5 35.5t67.5 12.5q7 -45 31.5 -96.5t49.5 -82.5l-14 -8q-35 0 -94 49.5t-59 89.5z" />
    <glyph glyph-name="Aacute" unicode="&#xc1;" horiz-adv-x="591" 
d="M48 87l194 550l131 13l170 -598l53 -19v-26q-25 -8 -56.5 -12.5t-62.5 -4.5q-30 0 -60 2t-58 8v23q24 8 32.5 23.5t3.5 35.5l-29 106h-189l-37 -137l60 -18v-26q-28 -9 -59 -13t-68 -4q-20 0 -41.5 2.5t-42.5 7.5v23q24 10 37 23t22 41zM351 254l-69 279h-1l-86 -279h156
zM400 808q0 -40 -59 -89.5t-94 -49.5l-13 8q25 31 49 82.5t31 96.5q49 0 67.5 -12.5t18.5 -35.5z" />
    <glyph glyph-name="Acircumflex" unicode="&#xc2;" horiz-adv-x="591" 
d="M48 87l194 550l131 13l170 -598l53 -19v-26q-25 -8 -56.5 -12.5t-62.5 -4.5q-30 0 -60 2t-58 8v23q24 8 32.5 23.5t3.5 35.5l-29 106h-189l-37 -137l60 -18v-26q-28 -9 -59 -13t-68 -4q-20 0 -41.5 2.5t-42.5 7.5v23q24 10 37 23t22 41zM351 254l-69 279h-1l-86 -279h156
zM289 850l45 8l144 -161l-16 -17q-31 0 -56.5 10t-49.5 34q-14 13 -26 29.5t-21 33.5l-113 -108q-16 7 -27.5 18t-19.5 24z" />
    <glyph glyph-name="Atilde" unicode="&#xc3;" horiz-adv-x="591" 
d="M48 87l194 550l131 13l170 -598l53 -19v-26q-25 -8 -56.5 -12.5t-62.5 -4.5q-30 0 -60 2t-58 8v23q24 8 32.5 23.5t3.5 35.5l-29 106h-189l-37 -137l60 -18v-26q-28 -9 -59 -13t-68 -4q-20 0 -41.5 2.5t-42.5 7.5v23q24 10 37 23t22 41zM351 254l-69 279h-1l-86 -279h156
zM207 811q16 0 33.5 -3t36.5 -8l61 -15q11 -4 24 -6t24 -2q17 0 32.5 15.5t15.5 33.5q14 -13 22.5 -29.5t8.5 -35.5q0 -28 -23 -46t-52 -18q-17 0 -35 2.5t-33 6.5l-62 17q-14 4 -27 6t-23 2q-18 0 -31.5 -13t-13.5 -29q-13 12 -21.5 28t-8.5 34q0 28 19 44t53 16z" />
    <glyph glyph-name="Adieresis" unicode="&#xc4;" horiz-adv-x="591" 
d="M48 87l194 550l131 13l170 -598l53 -19v-26q-25 -8 -56.5 -12.5t-62.5 -4.5q-30 0 -60 2t-58 8v23q24 8 32.5 23.5t3.5 35.5l-29 106h-189l-37 -137l60 -18v-26q-28 -9 -59 -13t-68 -4q-20 0 -41.5 2.5t-42.5 7.5v23q24 10 37 23t22 41zM351 254l-69 279h-1l-86 -279h156
zM442 744q0 -24 -16 -40t-38 -16q-24 0 -38 15t-14 38t15.5 40.5t39.5 17.5q22 0 36.5 -15t14.5 -40zM270 744q0 -24 -16 -40t-38 -16q-24 0 -38 15t-14 38t15.5 40.5t39.5 17.5q22 0 36.5 -15t14.5 -40z" />
    <glyph glyph-name="Aring" unicode="&#xc5;" horiz-adv-x="591" 
d="M48 87l194 550l131 13l170 -598l53 -19v-26q-25 -8 -56.5 -12.5t-62.5 -4.5q-30 0 -60 2t-58 8v23q24 8 32.5 23.5t3.5 35.5l-29 106h-189l-37 -137l60 -18v-26q-28 -9 -59 -13t-68 -4q-20 0 -41.5 2.5t-42.5 7.5v23q24 10 37 23t22 41zM351 254l-69 279h-1l-86 -279h156
zM299 853q42 0 69.5 -26t27.5 -70q0 -40 -28.5 -67.5t-67.5 -27.5q-40 0 -67.5 25t-27.5 68q0 42 28 70t66 28zM299 811q-21 0 -33.5 -15.5t-12.5 -40.5q0 -24 14 -38t33 -14q22 0 34.5 14t12.5 38q0 26 -13.5 41t-34.5 15z" />
    <glyph glyph-name="AE" unicode="&#xc6;" horiz-adv-x="743" 
d="M349 559l-139 -307h140v307h-1zM726 141l-18 -141h-415v27q30 11 43.5 30t13.5 56v77h-162l-52 -139l56 -18v-26q-28 -9 -55 -13t-64 -4q-20 0 -39.5 2.5t-40.5 7.5v23q19 9 30.5 23.5t24.5 40.5l270 553h386l-8 -162h-37l-3 19q-6 40 -24.5 55.5t-61.5 15.5h-90v-216h94
q31 0 46.5 8.5t21.5 27.5l7 22h34v-196h-34l-4 22q-5 25 -17 37t-36 12h-112v-215h111q40 0 58.5 12.5t30.5 37.5l10 21h36z" />
    <glyph glyph-name="Ccedilla" unicode="&#xc7;" horiz-adv-x="559" 
d="M520 623l-9 -160h-34l-5 24q-10 43 -37 65.5t-81 22.5q-64 0 -116.5 -64t-52.5 -194q0 -134 52.5 -195.5t114.5 -61.5q54 0 81.5 18t44.5 58l11 25h34l-10 -146q-27 -13 -71 -22t-100 -10v-36q40 0 61 -16.5t21 -44.5q0 -43 -42.5 -76.5t-96.5 -33.5q-40 0 -62.5 22
t-22.5 68q23 -15 47.5 -24t49.5 -9q22 0 35.5 11t13.5 24q0 16 -14.5 26t-50.5 10l16 80q-110 8 -184.5 89t-74.5 230q0 157 94.5 253t224.5 96q57 0 95.5 -7t67.5 -22z" />
    <glyph glyph-name="Egrave" unicode="&#xc8;" horiz-adv-x="489" 
d="M472 141l-18 -141h-415v27q30 11 43.5 30t13.5 56v468l-63 27v32h417l-8 -162h-37l-3 19q-6 40 -24.5 55.5t-61.5 15.5h-90v-216h94q31 0 46.5 8.5t21.5 27.5l7 22h34v-196h-34l-4 22q-5 25 -17 37t-36 12h-112v-215h111q40 0 58.5 12.5t30.5 37.5l10 21h36zM172 808
q0 23 18.5 35.5t67.5 12.5q7 -45 31.5 -96.5t49.5 -82.5l-14 -8q-35 0 -94 49.5t-59 89.5z" />
    <glyph glyph-name="Eacute" unicode="&#xc9;" horiz-adv-x="489" 
d="M472 141l-18 -141h-415v27q30 11 43.5 30t13.5 56v468l-63 27v32h417l-8 -162h-37l-3 19q-6 40 -24.5 55.5t-61.5 15.5h-90v-216h94q31 0 46.5 8.5t21.5 27.5l7 22h34v-196h-34l-4 22q-5 25 -17 37t-36 12h-112v-215h111q40 0 58.5 12.5t30.5 37.5l10 21h36zM387 808
q0 -40 -59 -89.5t-94 -49.5l-13 8q25 31 49 82.5t31 96.5q49 0 67.5 -12.5t18.5 -35.5z" />
    <glyph glyph-name="Ecircumflex" unicode="&#xca;" horiz-adv-x="489" 
d="M472 141l-18 -141h-415v27q30 11 43.5 30t13.5 56v468l-63 27v32h417l-8 -162h-37l-3 19q-6 40 -24.5 55.5t-61.5 15.5h-90v-216h94q31 0 46.5 8.5t21.5 27.5l7 22h34v-196h-34l-4 22q-5 25 -17 37t-36 12h-112v-215h111q40 0 58.5 12.5t30.5 37.5l10 21h36zM247 850
l45 8l144 -161l-16 -17q-31 0 -56.5 10t-49.5 34q-14 13 -26 29.5t-21 33.5l-113 -108q-16 7 -27.5 18t-19.5 24z" />
    <glyph glyph-name="Edieresis" unicode="&#xcb;" horiz-adv-x="489" 
d="M472 141l-18 -141h-415v27q30 11 43.5 30t13.5 56v468l-63 27v32h417l-8 -162h-37l-3 19q-6 40 -24.5 55.5t-61.5 15.5h-90v-216h94q31 0 46.5 8.5t21.5 27.5l7 22h34v-196h-34l-4 22q-5 25 -17 37t-36 12h-112v-215h111q40 0 58.5 12.5t30.5 37.5l10 21h36zM416 757
q0 -24 -16 -40t-38 -16q-24 0 -38 15t-14 38t15.5 40.5t39.5 17.5q22 0 36.5 -15t14.5 -40zM244 757q0 -24 -16 -40t-38 -16q-24 0 -38 15t-14 38t15.5 40.5t39.5 17.5q22 0 36.5 -15t14.5 -40z" />
    <glyph glyph-name="Igrave" unicode="&#xcc;" horiz-adv-x="323" 
d="M289 33v-26q-28 -7 -63.5 -12t-71.5 -5q-39 0 -65 2.5t-50 7.5v23q27 10 42 29.5t15 59.5v472l-63 20v26q34 8 69 12.5t72 4.5q30 0 56.5 -2.5t52.5 -7.5v-23q-31 -13 -43.5 -32t-12.5 -55v-475zM73 808q0 23 18.5 35.5t67.5 12.5q7 -45 31.5 -96.5t49.5 -82.5l-14 -8
q-35 0 -94 49.5t-59 89.5z" />
    <glyph glyph-name="Iacute" unicode="&#xcd;" horiz-adv-x="323" 
d="M289 33v-26q-28 -7 -63.5 -12t-71.5 -5q-39 0 -65 2.5t-50 7.5v23q27 10 42 29.5t15 59.5v472l-63 20v26q34 8 69 12.5t72 4.5q30 0 56.5 -2.5t52.5 -7.5v-23q-31 -13 -43.5 -32t-12.5 -55v-475zM266 808q0 -40 -59 -89.5t-94 -49.5l-13 8q25 31 49 82.5t31 96.5
q49 0 67.5 -12.5t18.5 -35.5z" />
    <glyph glyph-name="Icircumflex" unicode="&#xce;" horiz-adv-x="323" 
d="M289 33v-26q-28 -7 -63.5 -12t-71.5 -5q-39 0 -65 2.5t-50 7.5v23q27 10 42 29.5t15 59.5v472l-63 20v26q34 8 69 12.5t72 4.5q30 0 56.5 -2.5t52.5 -7.5v-23q-31 -13 -43.5 -32t-12.5 -55v-475zM137 850l45 8l144 -161l-16 -17q-31 0 -56.5 10t-49.5 34q-14 13 -26 29.5
t-21 33.5l-113 -108q-16 7 -27.5 18t-19.5 24z" />
    <glyph glyph-name="Idieresis" unicode="&#xcf;" horiz-adv-x="323" 
d="M289 33v-26q-28 -7 -63.5 -12t-71.5 -5q-39 0 -65 2.5t-50 7.5v23q27 10 42 29.5t15 59.5v472l-63 20v26q34 8 69 12.5t72 4.5q30 0 56.5 -2.5t52.5 -7.5v-23q-31 -13 -43.5 -32t-12.5 -55v-475zM307 757q0 -24 -16 -40t-38 -16q-24 0 -38 15t-14 38t15.5 40.5t39.5 17.5
q22 0 36.5 -15t14.5 -40zM135 757q0 -24 -16 -40t-38 -16q-24 0 -38 15t-14 38t15.5 40.5t39.5 17.5q22 0 36.5 -15t14.5 -40z" />
    <glyph glyph-name="Eth" unicode="&#xd0;" horiz-adv-x="680" 
d="M642 349q0 -166 -115 -262.5t-272 -96.5q-66 0 -114.5 1.5t-101.5 8.5v23q28 11 42.5 30.5t14.5 60.5v184h-77v58h77v224l-63 23v29q59 8 113 11.5t127 3.5q172 0 270.5 -77.5t98.5 -220.5zM498 330q0 119 -67.5 181.5t-160.5 62.5q-10 0 -22 -0.5t-24 -1.5v-216h129v-58
h-129v-232q13 -2 23.5 -3t21.5 -1q92 0 160.5 65.5t68.5 202.5z" />
    <glyph glyph-name="Ntilde" unicode="&#xd1;" horiz-adv-x="645" 
d="M611 638v-22q-30 -13 -42 -33t-12 -63v-520l-91 -11l-289 486l-1 -1v-422l61 -19v-26q-22 -8 -47 -12.5t-53 -4.5q-30 0 -53.5 2.5t-44.5 7.5v23q30 10 43.5 31.5t13.5 60.5v466l-59 22v33q34 4 74.5 5.5t74.5 1.5h42l248 -417l1 1v359l-63 19v27q28 7 54.5 11.5
t54.5 4.5q30 0 49 -2.5t39 -7.5zM248 800q16 0 33.5 -3t36.5 -8l61 -15q11 -4 24 -6t24 -2q17 0 32.5 15.5t15.5 33.5q14 -13 22.5 -29.5t8.5 -35.5q0 -28 -23 -46t-52 -18q-17 0 -35 2.5t-33 6.5l-62 17q-14 4 -27 6t-23 2q-18 0 -31.5 -13t-13.5 -29q-13 12 -21.5 28
t-8.5 34q0 28 19 44t53 16z" />
    <glyph glyph-name="Ograve" unicode="&#xd2;" horiz-adv-x="689" 
d="M651 345q0 -176 -96 -269.5t-223 -93.5q-128 0 -211 85t-83 234q0 160 98.5 256t224.5 96q125 0 207.5 -84t82.5 -224zM505 325q0 129 -48.5 188t-107.5 59q-63 0 -113.5 -63t-50.5 -191t49 -191.5t109 -63.5q59 0 110.5 58t51.5 204zM263 808q0 23 18.5 35.5t67.5 12.5
q7 -45 31.5 -96.5t49.5 -82.5l-14 -8q-35 0 -94 49.5t-59 89.5z" />
    <glyph glyph-name="Oacute" unicode="&#xd3;" horiz-adv-x="689" 
d="M651 345q0 -176 -96 -269.5t-223 -93.5q-128 0 -211 85t-83 234q0 160 98.5 256t224.5 96q125 0 207.5 -84t82.5 -224zM505 325q0 129 -48.5 188t-107.5 59q-63 0 -113.5 -63t-50.5 -191t49 -191.5t109 -63.5q59 0 110.5 58t51.5 204zM450 808q0 -40 -59 -89.5t-94 -49.5
l-13 8q25 31 49 82.5t31 96.5q49 0 67.5 -12.5t18.5 -35.5z" />
    <glyph glyph-name="Ocircumflex" unicode="&#xd4;" horiz-adv-x="689" 
d="M651 345q0 -176 -96 -269.5t-223 -93.5q-128 0 -211 85t-83 234q0 160 98.5 256t224.5 96q125 0 207.5 -84t82.5 -224zM505 325q0 129 -48.5 188t-107.5 59q-63 0 -113.5 -63t-50.5 -191t49 -191.5t109 -63.5q59 0 110.5 58t51.5 204zM341 850l45 8l144 -161l-16 -17
q-31 0 -56.5 10t-49.5 34q-14 13 -26 29.5t-21 33.5l-113 -108q-16 7 -27.5 18t-19.5 24z" />
    <glyph glyph-name="Otilde" unicode="&#xd5;" horiz-adv-x="689" 
d="M651 345q0 -176 -96 -269.5t-223 -93.5q-128 0 -211 85t-83 234q0 160 98.5 256t224.5 96q125 0 207.5 -84t82.5 -224zM505 325q0 129 -48.5 188t-107.5 59q-63 0 -113.5 -63t-50.5 -191t49 -191.5t109 -63.5q59 0 110.5 58t51.5 204zM264 814q16 0 33.5 -3t36.5 -8
l61 -15q11 -4 24 -6t24 -2q17 0 32.5 15.5t15.5 33.5q14 -13 22.5 -29.5t8.5 -35.5q0 -28 -23 -46t-52 -18q-17 0 -35 2.5t-33 6.5l-62 17q-14 4 -27 6t-23 2q-18 0 -31.5 -13t-13.5 -29q-13 12 -21.5 28t-8.5 34q0 28 19 44t53 16z" />
    <glyph glyph-name="Odieresis" unicode="&#xd6;" horiz-adv-x="689" 
d="M651 345q0 -176 -96 -269.5t-223 -93.5q-128 0 -211 85t-83 234q0 160 98.5 256t224.5 96q125 0 207.5 -84t82.5 -224zM505 325q0 129 -48.5 188t-107.5 59q-63 0 -113.5 -63t-50.5 -191t49 -191.5t109 -63.5q59 0 110.5 58t51.5 204zM501 744q0 -24 -16 -40t-38 -16
q-24 0 -38 15t-14 38t15.5 40.5t39.5 17.5q22 0 36.5 -15t14.5 -40zM329 744q0 -24 -16 -40t-38 -16q-24 0 -38 15t-14 38t15.5 40.5t39.5 17.5q22 0 36.5 -15t14.5 -40z" />
    <glyph glyph-name="multiply" unicode="&#xd7;" 
d="M306 224l136 -135l-46 -46l-135 136l-136 -136l-47 46l136 135l-136 136l47 47l136 -136l135 136l47 -47z" />
    <glyph glyph-name="Oslash" unicode="&#xd8;" horiz-adv-x="689" 
d="M185 318q0 -51 8.5 -92t22.5 -71l230 371q-20 23 -45.5 34.5t-51.5 11.5q-63 0 -113.5 -63t-50.5 -191zM505 325q0 51 -8.5 90.5t-22.5 68.5l-230 -372q21 -25 46.5 -37t52.5 -12q59 0 110.5 58t51.5 204zM651 345q0 -176 -96 -269.5t-223 -93.5q-41 0 -78.5 9t-68.5 26
l-66 -108l-41 22l69 111q-51 40 -80 106t-29 153q0 160 98.5 256t224.5 96q40 0 76 -9t67 -25l60 97l40 -21l-63 -101q51 -40 80.5 -104t29.5 -145z" />
    <glyph glyph-name="Ugrave" unicode="&#xd9;" horiz-adv-x="666" 
d="M639 636v-22q-31 -13 -43.5 -32.5t-12.5 -53.5v-277q0 -131 -70 -198.5t-177 -67.5q-128 0 -190.5 53t-62.5 152v395l-62 19v26q34 8 69 12.5t70 4.5q34 0 58.5 -2t52.5 -8v-23q-31 -12 -44 -32.5t-13 -59.5v-310q0 -68 36.5 -105t100.5 -37q61 0 99 40t38 126v348
l-62 20v26q31 9 59 13.5t56 4.5t51.5 -3t46.5 -9zM241 808q0 23 18.5 35.5t67.5 12.5q7 -45 31.5 -96.5t49.5 -82.5l-14 -8q-35 0 -94 49.5t-59 89.5z" />
    <glyph glyph-name="Uacute" unicode="&#xda;" horiz-adv-x="666" 
d="M639 636v-22q-31 -13 -43.5 -32.5t-12.5 -53.5v-277q0 -131 -70 -198.5t-177 -67.5q-128 0 -190.5 53t-62.5 152v395l-62 19v26q34 8 69 12.5t70 4.5q34 0 58.5 -2t52.5 -8v-23q-31 -12 -44 -32.5t-13 -59.5v-310q0 -68 36.5 -105t100.5 -37q61 0 99 40t38 126v348
l-62 20v26q31 9 59 13.5t56 4.5t51.5 -3t46.5 -9zM453 808q0 -40 -59 -89.5t-94 -49.5l-13 8q25 31 49 82.5t31 96.5q49 0 67.5 -12.5t18.5 -35.5z" />
    <glyph glyph-name="Ucircumflex" unicode="&#xdb;" horiz-adv-x="666" 
d="M639 636v-22q-31 -13 -43.5 -32.5t-12.5 -53.5v-277q0 -131 -70 -198.5t-177 -67.5q-128 0 -190.5 53t-62.5 152v395l-62 19v26q34 8 69 12.5t70 4.5q34 0 58.5 -2t52.5 -8v-23q-31 -12 -44 -32.5t-13 -59.5v-310q0 -68 36.5 -105t100.5 -37q61 0 99 40t38 126v348
l-62 20v26q31 9 59 13.5t56 4.5t51.5 -3t46.5 -9zM327 850l45 8l144 -161l-16 -17q-31 0 -56.5 10t-49.5 34q-14 13 -26 29.5t-21 33.5l-113 -108q-16 7 -27.5 18t-19.5 24z" />
    <glyph glyph-name="Udieresis" unicode="&#xdc;" horiz-adv-x="666" 
d="M639 636v-22q-31 -13 -43.5 -32.5t-12.5 -53.5v-277q0 -131 -70 -198.5t-177 -67.5q-128 0 -190.5 53t-62.5 152v395l-62 19v26q34 8 69 12.5t70 4.5q34 0 58.5 -2t52.5 -8v-23q-31 -12 -44 -32.5t-13 -59.5v-310q0 -68 36.5 -105t100.5 -37q61 0 99 40t38 126v348
l-62 20v26q31 9 59 13.5t56 4.5t51.5 -3t46.5 -9zM492 744q0 -24 -16 -40t-38 -16q-24 0 -38 15t-14 38t15.5 40.5t39.5 17.5q22 0 36.5 -15t14.5 -40zM320 744q0 -24 -16 -40t-38 -16q-24 0 -38 15t-14 38t15.5 40.5t39.5 17.5q22 0 36.5 -15t14.5 -40z" />
    <glyph glyph-name="Yacute" unicode="&#xdd;" 
d="M206 637v-23q-19 -7 -26 -21.5t4 -36.5l102 -204h2l110 234l-51 18v26q28 8 55 12.5t56 4.5q28 0 45 -2.5t37 -7.5v-23q-19 -7 -30 -20t-27 -41l-151 -271v-230l62 -19v-26q-31 -8 -62 -12t-77 -4q-36 0 -61.5 2t-49.5 7v23q25 7 41 24t16 48v161l-172 330l-49 18v26
q27 8 58 12.5t60 4.5q34 0 57 -2.5t51 -7.5zM392 808q0 -40 -59 -89.5t-94 -49.5l-13 8q25 31 49 82.5t31 96.5q49 0 67.5 -12.5t18.5 -35.5z" />
    <glyph glyph-name="Thorn" unicode="&#xde;" horiz-adv-x="568" 
d="M411 328q0 66 -40 102.5t-104 36.5q-10 0 -22.5 -0.5t-22.5 -1.5v-274q12 -3 27 -5t31 -2q51 0 91 37t40 107zM284 33v-26q-28 -7 -63.5 -12t-71.5 -5q-39 0 -62.5 2.5t-47.5 7.5v23q27 10 42 29.5t15 59.5v472l-63 20v26q34 8 66.5 12.5t69.5 4.5q30 0 56.5 -2.5
t52.5 -7.5v-23q-29 -12 -42 -30t-14 -50h2l28 2t29 1q129 0 198 -50t69 -146q0 -99 -79 -164t-180 -65q-19 0 -35 3.5t-31 10.5h-1v-74z" />
    <glyph glyph-name="germandbls" unicode="&#xdf;" horiz-adv-x="611" 
d="M206 50l47 -16v-22q-28 -10 -57 -15.5t-68 -5.5q-22 0 -47.5 2.5t-45.5 6.5v20q19 8 35.5 24.5t16.5 36.5v319h-53v37l55 28v77q0 75 56.5 126.5t179.5 51.5q113 0 168 -44.5t55 -110.5q0 -87 -80.5 -127.5t-80.5 -82.5q0 -20 12.5 -33.5t52.5 -28.5l54 -21
q50 -19 73.5 -50t23.5 -80q0 -66 -54.5 -112.5t-141.5 -46.5q-72 0 -104 23t-32 64q0 13 2 27.5t4 24.5q37 -29 75 -45.5t73 -16.5q31 0 47.5 12.5t16.5 32.5q0 18 -13.5 33t-50.5 31l-48 20q-46 19 -69.5 50.5t-23.5 78.5q0 78 77 126t77 108q0 47 -31 75.5t-90 28.5
q-57 0 -86 -29.5t-29 -72.5q0 -16 2 -53.5t2 -56.5v-394z" />
    <glyph glyph-name="agrave" unicode="&#xe0;" horiz-adv-x="483" 
d="M455 39q-13 -15 -41.5 -31.5t-54.5 -25.5q-16 9 -30.5 22t-25.5 28q-18 -16 -57.5 -31t-75.5 -15q-63 0 -100.5 32t-37.5 83q0 66 69 112.5t197 46.5v25q0 73 -21 99t-61 26q-36 0 -78 -20.5t-75 -53.5q-3 12 -5.5 25t-2.5 26q0 47 39 73.5t139 26.5q92 0 139.5 -38
t47.5 -101q0 -18 -1.5 -49.5t-2.5 -53.5l-4 -155q7 -13 18.5 -27t24.5 -24zM299 73v134q-70 0 -108.5 -27t-38.5 -64q0 -28 19 -44.5t52 -16.5q19 0 40 5t36 13zM161 658q0 23 18.5 35.5t67.5 12.5q7 -45 31.5 -96.5t49.5 -82.5l-14 -8q-35 0 -94 49.5t-59 89.5z" />
    <glyph glyph-name="aacute" unicode="&#xe1;" horiz-adv-x="483" 
d="M455 39q-13 -15 -41.5 -31.5t-54.5 -25.5q-16 9 -30.5 22t-25.5 28q-18 -16 -57.5 -31t-75.5 -15q-63 0 -100.5 32t-37.5 83q0 66 69 112.5t197 46.5v25q0 73 -21 99t-61 26q-36 0 -78 -20.5t-75 -53.5q-3 12 -5.5 25t-2.5 26q0 47 39 73.5t139 26.5q92 0 139.5 -38
t47.5 -101q0 -18 -1.5 -49.5t-2.5 -53.5l-4 -155q7 -13 18.5 -27t24.5 -24zM299 73v134q-70 0 -108.5 -27t-38.5 -64q0 -28 19 -44.5t52 -16.5q19 0 40 5t36 13zM353 658q0 -40 -59 -89.5t-94 -49.5l-13 8q25 31 49 82.5t31 96.5q49 0 67.5 -12.5t18.5 -35.5z" />
    <glyph glyph-name="acircumflex" unicode="&#xe2;" horiz-adv-x="483" 
d="M455 39q-13 -15 -41.5 -31.5t-54.5 -25.5q-16 9 -30.5 22t-25.5 28q-18 -16 -57.5 -31t-75.5 -15q-63 0 -100.5 32t-37.5 83q0 66 69 112.5t197 46.5v25q0 73 -21 99t-61 26q-36 0 -78 -20.5t-75 -53.5q-3 12 -5.5 25t-2.5 26q0 47 39 73.5t139 26.5q92 0 139.5 -38
t47.5 -101q0 -18 -1.5 -49.5t-2.5 -53.5l-4 -155q7 -13 18.5 -27t24.5 -24zM299 73v134q-70 0 -108.5 -27t-38.5 -64q0 -28 19 -44.5t52 -16.5q19 0 40 5t36 13zM214 700l45 8l144 -161l-16 -17q-31 0 -56.5 10t-49.5 34q-14 13 -26 29.5t-21 33.5l-113 -108q-16 7 -27.5 18
t-19.5 24z" />
    <glyph glyph-name="atilde" unicode="&#xe3;" horiz-adv-x="483" 
d="M455 39q-13 -15 -41.5 -31.5t-54.5 -25.5q-16 9 -30.5 22t-25.5 28q-18 -16 -57.5 -31t-75.5 -15q-63 0 -100.5 32t-37.5 83q0 66 69 112.5t197 46.5v25q0 73 -21 99t-61 26q-36 0 -78 -20.5t-75 -53.5q-3 12 -5.5 25t-2.5 26q0 47 39 73.5t139 26.5q92 0 139.5 -38
t47.5 -101q0 -18 -1.5 -49.5t-2.5 -53.5l-4 -155q7 -13 18.5 -27t24.5 -24zM299 73v134q-70 0 -108.5 -27t-38.5 -64q0 -28 19 -44.5t52 -16.5q19 0 40 5t36 13zM145 661q16 0 33.5 -3t36.5 -8l61 -15q11 -4 24 -6t24 -2q17 0 32.5 15.5t15.5 33.5q14 -13 22.5 -29.5
t8.5 -35.5q0 -28 -23 -46t-52 -18q-17 0 -35 2.5t-33 6.5l-62 17q-14 4 -27 6t-23 2q-18 0 -31.5 -13t-13.5 -29q-13 12 -21.5 28t-8.5 34q0 28 19 44t53 16z" />
    <glyph glyph-name="adieresis" unicode="&#xe4;" horiz-adv-x="483" 
d="M455 39q-13 -15 -41.5 -31.5t-54.5 -25.5q-16 9 -30.5 22t-25.5 28q-18 -16 -57.5 -31t-75.5 -15q-63 0 -100.5 32t-37.5 83q0 66 69 112.5t197 46.5v25q0 73 -21 99t-61 26q-36 0 -78 -20.5t-75 -53.5q-3 12 -5.5 25t-2.5 26q0 47 39 73.5t139 26.5q92 0 139.5 -38
t47.5 -101q0 -18 -1.5 -49.5t-2.5 -53.5l-4 -155q7 -13 18.5 -27t24.5 -24zM299 73v134q-70 0 -108.5 -27t-38.5 -64q0 -28 19 -44.5t52 -16.5q19 0 40 5t36 13zM383 607q0 -24 -16 -40t-38 -16q-24 0 -38 15t-14 38t15.5 40.5t39.5 17.5q22 0 36.5 -15t14.5 -40zM211 607
q0 -24 -16 -40t-38 -16q-24 0 -38 15t-14 38t15.5 40.5t39.5 17.5q22 0 36.5 -15t14.5 -40z" />
    <glyph glyph-name="aring" unicode="&#xe5;" horiz-adv-x="483" 
d="M455 39q-13 -15 -41.5 -31.5t-54.5 -25.5q-16 9 -30.5 22t-25.5 28q-18 -16 -57.5 -31t-75.5 -15q-63 0 -100.5 32t-37.5 83q0 66 69 112.5t197 46.5v25q0 73 -21 99t-61 26q-36 0 -78 -20.5t-75 -53.5q-3 12 -5.5 25t-2.5 26q0 47 39 73.5t139 26.5q92 0 139.5 -38
t47.5 -101q0 -18 -1.5 -49.5t-2.5 -53.5l-4 -155q7 -13 18.5 -27t24.5 -24zM299 73v134q-70 0 -108.5 -27t-38.5 -64q0 -28 19 -44.5t52 -16.5q19 0 40 5t36 13zM245 719q42 0 69.5 -26t27.5 -70q0 -40 -28.5 -67.5t-67.5 -27.5q-40 0 -67.5 25t-27.5 68q0 42 28 70t66 28z
M245 677q-21 0 -33.5 -15.5t-12.5 -40.5q0 -24 14 -38t33 -14q22 0 34.5 14t12.5 38q0 26 -13.5 41t-34.5 15z" />
    <glyph glyph-name="ae" unicode="&#xe6;" horiz-adv-x="736" 
d="M708 298q0 -16 -0.5 -32.5t-1.5 -38.5h-289q0 -69 42 -111t103 -42q32 0 70.5 11t66.5 25q1 -6 2 -14t1 -16q0 -36 -47.5 -65.5t-136.5 -29.5q-53 0 -96.5 18.5t-73.5 52.5q-36 -31 -86 -50.5t-95 -19.5q-63 0 -101 31t-38 82q0 70 72 115.5t195 45.5v25q0 73 -21 99
t-61 26q-36 0 -78 -20.5t-75 -53.5q-3 12 -5.5 25t-2.5 26q0 47 39 73.5t139 26.5q56 0 92 -15t55 -42q29 27 65.5 42t76.5 15q87 0 138 -51t51 -138zM593 289q0 72 -24 103.5t-62 31.5q-34 0 -63 -38t-29 -97h178zM325 88q-14 25 -22.5 55t-9.5 64h-1q-69 0 -106.5 -27
t-37.5 -64q0 -28 20 -44.5t52 -16.5q23 0 53 9.5t52 23.5z" />
    <glyph glyph-name="ccedilla" unicode="&#xe7;" horiz-adv-x="416" 
d="M223 -14q-81 8 -135.5 69.5t-54.5 160.5q0 124 72.5 196.5t181.5 72.5q66 0 91.5 -18t25.5 -51q0 -21 -7.5 -39.5t-19.5 -33.5q-25 29 -54 46t-60 17q-40 0 -70.5 -42t-30.5 -129q0 -78 36.5 -120.5t87.5 -42.5q29 0 58 9t54 23q3 -7 4.5 -15.5t1.5 -17.5
q0 -34 -34.5 -58t-101.5 -28v-34q40 0 61 -16.5t21 -44.5q0 -43 -42.5 -76.5t-96.5 -33.5q-40 0 -63 22t-23 68q23 -15 48 -24t50 -9q22 0 35 11t13 24q0 16 -14 26t-50 10z" />
    <glyph glyph-name="egrave" unicode="&#xe8;" horiz-adv-x="478" 
d="M450 298q0 -16 -0.5 -32.5t-1.5 -38.5h-289q0 -69 42 -111t103 -42q32 0 70.5 11t66.5 25q1 -6 2 -14t1 -16q0 -36 -47.5 -65.5t-136.5 -29.5q-99 0 -163 62t-64 168q0 133 67.5 202.5t160.5 69.5q87 0 138 -51t51 -138zM335 289q0 72 -24 103.5t-62 31.5q-34 0 -63 -38
t-29 -97h178zM174 658q0 23 18.5 35.5t67.5 12.5q7 -45 31.5 -96.5t49.5 -82.5l-14 -8q-35 0 -94 49.5t-59 89.5z" />
    <glyph glyph-name="eacute" unicode="&#xe9;" horiz-adv-x="478" 
d="M450 298q0 -16 -0.5 -32.5t-1.5 -38.5h-289q0 -69 42 -111t103 -42q32 0 70.5 11t66.5 25q1 -6 2 -14t1 -16q0 -36 -47.5 -65.5t-136.5 -29.5q-99 0 -163 62t-64 168q0 133 67.5 202.5t160.5 69.5q87 0 138 -51t51 -138zM335 289q0 72 -24 103.5t-62 31.5q-34 0 -63 -38
t-29 -97h178zM366 658q0 -40 -59 -89.5t-94 -49.5l-13 8q25 31 49 82.5t31 96.5q49 0 67.5 -12.5t18.5 -35.5z" />
    <glyph glyph-name="ecircumflex" unicode="&#xea;" horiz-adv-x="478" 
d="M450 298q0 -16 -0.5 -32.5t-1.5 -38.5h-289q0 -69 42 -111t103 -42q32 0 70.5 11t66.5 25q1 -6 2 -14t1 -16q0 -36 -47.5 -65.5t-136.5 -29.5q-99 0 -163 62t-64 168q0 133 67.5 202.5t160.5 69.5q87 0 138 -51t51 -138zM335 289q0 72 -24 103.5t-62 31.5q-34 0 -63 -38
t-29 -97h178zM232 700l45 8l144 -161l-16 -17q-31 0 -56.5 10t-49.5 34q-14 13 -26 29.5t-21 33.5l-113 -108q-16 7 -27.5 18t-19.5 24z" />
    <glyph glyph-name="edieresis" unicode="&#xeb;" horiz-adv-x="478" 
d="M450 298q0 -16 -0.5 -32.5t-1.5 -38.5h-289q0 -69 42 -111t103 -42q32 0 70.5 11t66.5 25q1 -6 2 -14t1 -16q0 -36 -47.5 -65.5t-136.5 -29.5q-99 0 -163 62t-64 168q0 133 67.5 202.5t160.5 69.5q87 0 138 -51t51 -138zM335 289q0 72 -24 103.5t-62 31.5q-34 0 -63 -38
t-29 -97h178zM387 607q0 -24 -16 -40t-38 -16q-24 0 -38 15t-14 38t15.5 40.5t39.5 17.5q22 0 36.5 -15t14.5 -40zM215 607q0 -24 -16 -40t-38 -16q-24 0 -38 15t-14 38t15.5 40.5t39.5 17.5q22 0 36.5 -15t14.5 -40z" />
    <glyph glyph-name="igrave" unicode="&#xec;" horiz-adv-x="292" 
d="M89 402l-62 29v24q36 12 74.5 18t66.5 6l51 -1l-7 -71v-360l56 -16v-23q-28 -9 -60.5 -13t-78.5 -4q-22 0 -47.5 2.5t-44.5 6.5v20q19 8 35.5 24.5t16.5 36.5v321zM68 658q0 23 18.5 35.5t67.5 12.5q7 -45 31.5 -96.5t49.5 -82.5l-14 -8q-35 0 -94 49.5t-59 89.5z" />
    <glyph glyph-name="iacute" unicode="&#xed;" horiz-adv-x="292" 
d="M89 402l-62 29v24q36 12 74.5 18t66.5 6l51 -1l-7 -71v-360l56 -16v-23q-28 -9 -60.5 -13t-78.5 -4q-22 0 -47.5 2.5t-44.5 6.5v20q19 8 35.5 24.5t16.5 36.5v321zM248 658q0 -40 -59 -89.5t-94 -49.5l-13 8q25 31 49 82.5t31 96.5q49 0 67.5 -12.5t18.5 -35.5z" />
    <glyph glyph-name="icircumflex" unicode="&#xee;" horiz-adv-x="292" 
d="M89 402l-62 29v24q36 12 74.5 18t66.5 6l51 -1l-7 -71v-360l56 -16v-23q-28 -9 -60.5 -13t-78.5 -4q-22 0 -47.5 2.5t-44.5 6.5v20q19 8 35.5 24.5t16.5 36.5v321zM127 700l45 8l144 -161l-16 -17q-31 0 -56.5 10t-49.5 34q-14 13 -26 29.5t-21 33.5l-113 -108
q-16 7 -27.5 18t-19.5 24z" />
    <glyph glyph-name="idieresis" unicode="&#xef;" horiz-adv-x="292" 
d="M89 402l-62 29v24q36 12 74.5 18t66.5 6l51 -1l-7 -71v-360l56 -16v-23q-28 -9 -60.5 -13t-78.5 -4q-22 0 -47.5 2.5t-44.5 6.5v20q19 8 35.5 24.5t16.5 36.5v321zM290 607q0 -24 -16 -40t-38 -16q-24 0 -38 15t-14 38t15.5 40.5t39.5 17.5q22 0 36.5 -15t14.5 -40z
M118 607q0 -24 -16 -40t-38 -16q-24 0 -38 15t-14 38t15.5 40.5t39.5 17.5q22 0 36.5 -15t14.5 -40z" />
    <glyph glyph-name="eth" unicode="&#xf0;" horiz-adv-x="568" 
d="M172 647q-26 0 -52 -6.5t-52 -18.5q-3 10 -4.5 19t-1.5 19q0 24 27 42t98 18q36 0 71.5 -8.5t67.5 -25.5l90 62l31 -43l-72 -50q66 -51 108.5 -145.5t42.5 -230.5q0 -141 -76 -218.5t-177 -77.5q-107 0 -173.5 64t-66.5 170q0 119 77 195.5t178 76.5q31 0 55.5 -8
t44.5 -24l4 1q-16 45 -42 81t-57 61l-119 -82l-31 43l101 69q-18 8 -36.5 12.5t-35.5 4.5zM393 251q0 44 -1.5 74t-6.5 67q-24 12 -48.5 18t-52.5 6q-33 0 -75.5 -45t-42.5 -146q0 -83 34 -126t77 -43q40 0 78 45t38 150z" />
    <glyph glyph-name="ntilde" unicode="&#xf1;" horiz-adv-x="580" 
d="M28 432v25q35 11 73.5 17.5t66.5 5.5h39v-56q27 27 67 43t83 16q69 0 109.5 -40t40.5 -125v-271l53 -16v-23q-25 -8 -57 -12.5t-74 -4.5q-22 0 -43 2.5t-39 6.5v20q19 10 28 26.5t9 41.5v188q0 64 -27 92.5t-69 28.5q-22 0 -42.5 -6t-33.5 -14v-330l56 -16v-23
q-29 -9 -60.5 -13t-77.5 -4q-22 0 -47.5 2.5t-45.5 6.5v20q19 8 35.5 24.5t16.5 36.5v322zM196 661q16 0 33.5 -3t36.5 -8l61 -15q11 -4 24 -6t24 -2q17 0 32.5 15.5t15.5 33.5q14 -13 22.5 -29.5t8.5 -35.5q0 -28 -23 -46t-52 -18q-17 0 -35 2.5t-33 6.5l-62 17
q-14 4 -27 6t-23 2q-18 0 -31.5 -13t-13.5 -29q-13 12 -21.5 28t-8.5 34q0 28 19 44t53 16z" />
    <glyph glyph-name="ograve" unicode="&#xf2;" horiz-adv-x="559" 
d="M526 257q0 -129 -80 -201.5t-176 -72.5q-104 0 -170.5 64t-66.5 170q0 120 77 196t182 76q103 0 168.5 -64t65.5 -168zM393 249q0 84 -33.5 125.5t-76.5 41.5q-42 0 -79.5 -46t-37.5 -145q0 -83 34.5 -126t75.5 -43q40 0 78.5 44.5t38.5 148.5zM182 658q0 23 18.5 35.5
t67.5 12.5q7 -45 31.5 -96.5t49.5 -82.5l-14 -8q-35 0 -94 49.5t-59 89.5z" />
    <glyph glyph-name="oacute" unicode="&#xf3;" horiz-adv-x="559" 
d="M526 257q0 -129 -80 -201.5t-176 -72.5q-104 0 -170.5 64t-66.5 170q0 120 77 196t182 76q103 0 168.5 -64t65.5 -168zM393 249q0 84 -33.5 125.5t-76.5 41.5q-42 0 -79.5 -46t-37.5 -145q0 -83 34.5 -126t75.5 -43q40 0 78.5 44.5t38.5 148.5zM394 658q0 -40 -59 -89.5
t-94 -49.5l-13 8q25 31 49 82.5t31 96.5q49 0 67.5 -12.5t18.5 -35.5z" />
    <glyph glyph-name="ocircumflex" unicode="&#xf4;" horiz-adv-x="559" 
d="M526 257q0 -129 -80 -201.5t-176 -72.5q-104 0 -170.5 64t-66.5 170q0 120 77 196t182 76q103 0 168.5 -64t65.5 -168zM393 249q0 84 -33.5 125.5t-76.5 41.5q-42 0 -79.5 -46t-37.5 -145q0 -83 34.5 -126t75.5 -43q40 0 78.5 44.5t38.5 148.5zM259 700l45 8l144 -161
l-16 -17q-31 0 -56.5 10t-49.5 34q-14 13 -26 29.5t-21 33.5l-113 -108q-16 7 -27.5 18t-19.5 24z" />
    <glyph glyph-name="otilde" unicode="&#xf5;" horiz-adv-x="559" 
d="M526 257q0 -129 -80 -201.5t-176 -72.5q-104 0 -170.5 64t-66.5 170q0 120 77 196t182 76q103 0 168.5 -64t65.5 -168zM393 249q0 84 -33.5 125.5t-76.5 41.5q-42 0 -79.5 -46t-37.5 -145q0 -83 34.5 -126t75.5 -43q40 0 78.5 44.5t38.5 148.5zM190 661q16 0 33.5 -3
t36.5 -8l61 -15q11 -4 24 -6t24 -2q17 0 32.5 15.5t15.5 33.5q14 -13 22.5 -29.5t8.5 -35.5q0 -28 -23 -46t-52 -18q-17 0 -35 2.5t-33 6.5l-62 17q-14 4 -27 6t-23 2q-18 0 -31.5 -13t-13.5 -29q-13 12 -21.5 28t-8.5 34q0 28 19 44t53 16z" />
    <glyph glyph-name="odieresis" unicode="&#xf6;" horiz-adv-x="559" 
d="M526 257q0 -129 -80 -201.5t-176 -72.5q-104 0 -170.5 64t-66.5 170q0 120 77 196t182 76q103 0 168.5 -64t65.5 -168zM393 249q0 84 -33.5 125.5t-76.5 41.5q-42 0 -79.5 -46t-37.5 -145q0 -83 34.5 -126t75.5 -43q40 0 78.5 44.5t38.5 148.5zM426 607q0 -24 -16 -40
t-38 -16q-24 0 -38 15t-14 38t15.5 40.5t39.5 17.5q22 0 36.5 -15t14.5 -40zM254 607q0 -24 -16 -40t-38 -16q-24 0 -38 15t-14 38t15.5 40.5t39.5 17.5q22 0 36.5 -15t14.5 -40z" />
    <glyph glyph-name="divide" unicode="&#xf7;" 
d="M313 403q0 -21 -17 -38.5t-38 -17.5q-24 0 -38 15t-14 38q0 22 16.5 40t40.5 18q22 0 36 -16t14 -39zM51 258h418v-65h-418v65zM313 47q0 -22 -17 -39t-38 -17q-24 0 -38 15t-14 38q0 21 16.5 39.5t40.5 18.5q22 0 36 -16t14 -39z" />
    <glyph glyph-name="oslash" unicode="&#xf8;" horiz-adv-x="559" 
d="M166 225q0 -33 6 -59.5t16 -46.5l160 269q-14 13 -31 20.5t-34 7.5q-42 0 -79.5 -46t-37.5 -145zM393 249q0 31 -5.5 57t-14.5 45l-161 -267q14 -14 30.5 -21t33.5 -7q40 0 78.5 44.5t38.5 148.5zM526 257q0 -129 -80 -201.5t-176 -72.5q-28 0 -54 5t-48 14l-56 -95
l-41 22l57 94q-45 30 -70 80t-25 114q0 120 77 196t182 76q28 0 53.5 -5t47.5 -15l58 97l41 -21l-58 -98q43 -30 67.5 -79t24.5 -111z" />
    <glyph glyph-name="ugrave" unicode="&#xf9;" horiz-adv-x="560" 
d="M360 405l-55 29v24q35 12 71 18t64 6h51l-8 -73v-318q7 -13 17.5 -28t22.5 -27q-14 -13 -44.5 -29t-58.5 -25q-15 10 -29.5 26t-23.5 32q-22 -22 -62 -37.5t-83 -15.5q-72 0 -110.5 38.5t-38.5 128.5v251l-57 29v24q35 12 72 18t65 6h51l-8 -73v-213q0 -70 23.5 -99
t65.5 -29q21 0 41 6t34 13v318zM189 658q0 23 18.5 35.5t67.5 12.5q7 -45 31.5 -96.5t49.5 -82.5l-14 -8q-35 0 -94 49.5t-59 89.5z" />
    <glyph glyph-name="uacute" unicode="&#xfa;" horiz-adv-x="560" 
d="M360 405l-55 29v24q35 12 71 18t64 6h51l-8 -73v-318q7 -13 17.5 -28t22.5 -27q-14 -13 -44.5 -29t-58.5 -25q-15 10 -29.5 26t-23.5 32q-22 -22 -62 -37.5t-83 -15.5q-72 0 -110.5 38.5t-38.5 128.5v251l-57 29v24q35 12 72 18t65 6h51l-8 -73v-213q0 -70 23.5 -99
t65.5 -29q21 0 41 6t34 13v318zM376 658q0 -40 -59 -89.5t-94 -49.5l-13 8q25 31 49 82.5t31 96.5q49 0 67.5 -12.5t18.5 -35.5z" />
    <glyph glyph-name="ucircumflex" unicode="&#xfb;" horiz-adv-x="560" 
d="M360 405l-55 29v24q35 12 71 18t64 6h51l-8 -73v-318q7 -13 17.5 -28t22.5 -27q-14 -13 -44.5 -29t-58.5 -25q-15 10 -29.5 26t-23.5 32q-22 -22 -62 -37.5t-83 -15.5q-72 0 -110.5 38.5t-38.5 128.5v251l-57 29v24q35 12 72 18t65 6h51l-8 -73v-213q0 -70 23.5 -99
t65.5 -29q21 0 41 6t34 13v318zM261 700l45 8l144 -161l-16 -17q-31 0 -56.5 10t-49.5 34q-14 13 -26 29.5t-21 33.5l-113 -108q-16 7 -27.5 18t-19.5 24z" />
    <glyph glyph-name="udieresis" unicode="&#xfc;" horiz-adv-x="560" 
d="M360 405l-55 29v24q35 12 71 18t64 6h51l-8 -73v-318q7 -13 17.5 -28t22.5 -27q-14 -13 -44.5 -29t-58.5 -25q-15 10 -29.5 26t-23.5 32q-22 -22 -62 -37.5t-83 -15.5q-72 0 -110.5 38.5t-38.5 128.5v251l-57 29v24q35 12 72 18t65 6h51l-8 -73v-213q0 -70 23.5 -99
t65.5 -29q21 0 41 6t34 13v318zM419 607q0 -24 -16 -40t-38 -16q-24 0 -38 15t-14 38t15.5 40.5t39.5 17.5q22 0 36.5 -15t14.5 -40zM247 607q0 -24 -16 -40t-38 -16q-24 0 -38 15t-14 38t15.5 40.5t39.5 17.5q22 0 36.5 -15t14.5 -40z" />
    <glyph glyph-name="yacute" unicode="&#xfd;" horiz-adv-x="418" 
d="M-29 480h228v-30l-47 -26l96 -269h1l82 267l-50 26v32h162v-30l-27 -25l-143 -386q-63 -172 -120 -228.5t-98 -56.5q-37 0 -54.5 21.5t-17.5 74.5q13 -3 26.5 -4.5t27.5 -1.5q28 0 70 37t67 111l12 35l-171 392l-44 29v32zM322 658q0 -40 -59 -89.5t-94 -49.5l-13 8
q25 31 49 82.5t31 96.5q49 0 67.5 -12.5t18.5 -35.5z" />
    <glyph glyph-name="thorn" unicode="&#xfe;" horiz-adv-x="553" 
d="M207 387v-323q13 -4 26.5 -6.5t29.5 -2.5q49 0 88.5 46t39.5 144q0 81 -35 119t-80 38q-20 0 -37 -4t-32 -11zM209 646v-214q25 24 58 38t68 14q81 0 133 -53.5t52 -162.5q0 -136 -75 -207.5t-174 -71.5q-17 0 -33.5 3.5t-29.5 7.5v-190l65 -17v-23q-28 -9 -62.5 -13
t-85.5 -4q-22 0 -47.5 2.5t-44.5 6.5v20q19 8 35.5 24.5t16.5 36.5v799l-63 29v25q35 12 75 17.5t68 5.5h51z" />
    <glyph glyph-name="ydieresis" unicode="&#xff;" horiz-adv-x="418" 
d="M-29 480h228v-30l-47 -26l96 -269h1l82 267l-50 26v32h162v-30l-27 -25l-143 -386q-63 -172 -120 -228.5t-98 -56.5q-37 0 -54.5 21.5t-17.5 74.5q13 -3 26.5 -4.5t27.5 -1.5q28 0 70 37t67 111l12 35l-171 392l-44 29v32zM366 607q0 -24 -16 -40t-38 -16q-24 0 -38 15
t-14 38t15.5 40.5t39.5 17.5q22 0 36.5 -15t14.5 -40zM194 607q0 -24 -16 -40t-38 -16q-24 0 -38 15t-14 38t15.5 40.5t39.5 17.5q22 0 36.5 -15t14.5 -40z" />
    <glyph glyph-name="Amacron" unicode="&#x100;" horiz-adv-x="591" 
d="M48 87l194 550l131 13l170 -598l53 -19v-26q-25 -8 -56.5 -12.5t-62.5 -4.5q-30 0 -60 2t-58 8v23q24 8 32.5 23.5t3.5 35.5l-29 106h-189l-37 -137l60 -18v-26q-28 -9 -59 -13t-68 -4q-20 0 -41.5 2.5t-42.5 7.5v23q24 10 37 23t22 41zM351 254l-69 279h-1l-86 -279h156
zM435 720h-266v74h266v-74z" />
    <glyph glyph-name="amacron" unicode="&#x101;" horiz-adv-x="483" 
d="M455 39q-13 -15 -41.5 -31.5t-54.5 -25.5q-16 9 -30.5 22t-25.5 28q-18 -16 -57.5 -31t-75.5 -15q-63 0 -100.5 32t-37.5 83q0 66 69 112.5t197 46.5v25q0 73 -21 99t-61 26q-36 0 -78 -20.5t-75 -53.5q-3 12 -5.5 25t-2.5 26q0 47 39 73.5t139 26.5q92 0 139.5 -38
t47.5 -101q0 -18 -1.5 -49.5t-2.5 -53.5l-4 -155q7 -13 18.5 -27t24.5 -24zM299 73v134q-70 0 -108.5 -27t-38.5 -64q0 -28 19 -44.5t52 -16.5q19 0 40 5t36 13zM375 570h-266v74h266v-74z" />
    <glyph glyph-name="Abreve" unicode="&#x102;" horiz-adv-x="591" 
d="M48 87l194 550l131 13l170 -598l53 -19v-26q-25 -8 -56.5 -12.5t-62.5 -4.5q-30 0 -60 2t-58 8v23q24 8 32.5 23.5t3.5 35.5l-29 106h-189l-37 -137l60 -18v-26q-28 -9 -59 -13t-68 -4q-20 0 -41.5 2.5t-42.5 7.5v23q24 10 37 23t22 41zM351 254l-69 279h-1l-86 -279h156
zM296 679q-50 0 -95 37.5t-76 105.5q18 11 31.5 18t37.5 12q22 -54 51 -81t59 -27q31 0 58.5 28t49.5 82q16 -7 28 -17.5t20 -24.5q-22 -57 -67.5 -95t-96.5 -38z" />
    <glyph glyph-name="abreve" unicode="&#x103;" horiz-adv-x="483" 
d="M455 39q-13 -15 -41.5 -31.5t-54.5 -25.5q-16 9 -30.5 22t-25.5 28q-18 -16 -57.5 -31t-75.5 -15q-63 0 -100.5 32t-37.5 83q0 66 69 112.5t197 46.5v25q0 73 -21 99t-61 26q-36 0 -78 -20.5t-75 -53.5q-3 12 -5.5 25t-2.5 26q0 47 39 73.5t139 26.5q92 0 139.5 -38
t47.5 -101q0 -18 -1.5 -49.5t-2.5 -53.5l-4 -155q7 -13 18.5 -27t24.5 -24zM299 73v134q-70 0 -108.5 -27t-38.5 -64q0 -28 19 -44.5t52 -16.5q19 0 40 5t36 13zM245 529q-50 0 -95 37.5t-76 105.5q18 11 31.5 18t37.5 12q22 -54 51 -81t59 -27q31 0 58.5 28t49.5 82
q16 -7 28 -17.5t20 -24.5q-22 -57 -67.5 -95t-96.5 -38z" />
    <glyph glyph-name="Aogonek" unicode="&#x104;" horiz-adv-x="591" 
d="M48 87l194 550l131 13l170 -598l53 -19v-26q-17 -5 -38 -9.5t-43 -5.5l-37 -48q-10 -12 -17.5 -28.5t-7.5 -31.5q0 -23 13.5 -36t35.5 -13q20 0 40 5t39 13q0 -32 -25.5 -53t-72.5 -21q-49 0 -78 23.5t-29 66.5q0 25 14.5 48t38.5 42l36 31q-27 1 -54 3t-52 7v23
q24 8 32.5 23.5t3.5 35.5l-29 106h-189l-37 -137l60 -18v-26q-28 -9 -59 -13t-68 -4q-20 0 -41.5 2.5t-42.5 7.5v23q24 10 37 23t22 41zM351 254l-69 279h-1l-86 -279h156z" />
    <glyph glyph-name="aogonek" unicode="&#x105;" horiz-adv-x="483" 
d="M455 39q-8 -9 -21.5 -19t-29.5 -18l-45 -58q-10 -12 -17.5 -28.5t-7.5 -31.5q0 -23 13.5 -36t35.5 -13q20 0 40 5t39 13q0 -32 -25.5 -53t-72.5 -21q-49 0 -78 23.5t-29 66.5q0 25 14.5 48t38.5 42l36 31q-12 8 -23 19t-20 23q-18 -16 -57.5 -31t-75.5 -15
q-63 0 -100.5 32t-37.5 83q0 66 69 112.5t197 46.5v25q0 73 -21 99t-61 26q-36 0 -78 -20.5t-75 -53.5q-3 12 -5.5 25t-2.5 26q0 47 39 73.5t139 26.5q92 0 139.5 -38t47.5 -101q0 -18 -1.5 -49.5t-2.5 -53.5l-4 -155q7 -13 18.5 -27t24.5 -24zM299 73v134q-70 0 -108.5 -27
t-38.5 -64q0 -28 19 -44.5t52 -16.5q19 0 40 5t36 13z" />
    <glyph glyph-name="Cacute" unicode="&#x106;" horiz-adv-x="559" 
d="M520 623l-9 -160h-34l-5 24q-10 43 -37 65.5t-81 22.5q-64 0 -116.5 -64t-52.5 -194q0 -134 52.5 -195.5t114.5 -61.5q54 0 81.5 18t44.5 58l11 25h34l-10 -146q-29 -14 -78.5 -23t-112.5 -9q-119 0 -201.5 81.5t-82.5 238.5t94.5 253t224.5 96q57 0 95.5 -7t67.5 -22z
M432 808q0 -40 -59 -89.5t-94 -49.5l-13 8q25 31 49 82.5t31 96.5q49 0 67.5 -12.5t18.5 -35.5z" />
    <glyph glyph-name="cacute" unicode="&#x107;" horiz-adv-x="416" 
d="M404 71q0 -37 -38.5 -61.5t-115.5 -24.5q-92 0 -154.5 62.5t-62.5 168.5q0 124 72.5 196.5t181.5 72.5q66 0 91.5 -18t25.5 -51q0 -21 -7.5 -39.5t-19.5 -33.5q-25 29 -54 46t-60 17q-40 0 -70.5 -42t-30.5 -129q0 -78 36.5 -120.5t87.5 -42.5q29 0 58 9t54 23
q3 -7 4.5 -15.5t1.5 -17.5zM358 658q0 -40 -59 -89.5t-94 -49.5l-13 8q25 31 49 82.5t31 96.5q49 0 67.5 -12.5t18.5 -35.5z" />
    <glyph glyph-name="Ccircumflex" unicode="&#x108;" horiz-adv-x="559" 
d="M520 623l-9 -160h-34l-5 24q-10 43 -37 65.5t-81 22.5q-64 0 -116.5 -64t-52.5 -194q0 -134 52.5 -195.5t114.5 -61.5q54 0 81.5 18t44.5 58l11 25h34l-10 -146q-29 -14 -78.5 -23t-112.5 -9q-119 0 -201.5 81.5t-82.5 238.5t94.5 253t224.5 96q57 0 95.5 -7t67.5 -22z
M323 850l45 8l144 -161l-16 -17q-31 0 -56.5 10t-49.5 34q-14 13 -26 29.5t-21 33.5l-113 -108q-16 7 -27.5 18t-19.5 24z" />
    <glyph glyph-name="ccircumflex" unicode="&#x109;" horiz-adv-x="416" 
d="M404 71q0 -37 -38.5 -61.5t-115.5 -24.5q-92 0 -154.5 62.5t-62.5 168.5q0 124 72.5 196.5t181.5 72.5q66 0 91.5 -18t25.5 -51q0 -21 -7.5 -39.5t-19.5 -33.5q-25 29 -54 46t-60 17q-40 0 -70.5 -42t-30.5 -129q0 -78 36.5 -120.5t87.5 -42.5q29 0 58 9t54 23
q3 -7 4.5 -15.5t1.5 -17.5zM236 700l45 8l144 -161l-16 -17q-31 0 -56.5 10t-49.5 34q-14 13 -26 29.5t-21 33.5l-113 -108q-16 7 -27.5 18t-19.5 24z" />
    <glyph glyph-name="Cdotaccent" unicode="&#x10a;" horiz-adv-x="559" 
d="M520 623l-9 -160h-34l-5 24q-10 43 -37 65.5t-81 22.5q-64 0 -116.5 -64t-52.5 -194q0 -134 52.5 -195.5t114.5 -61.5q54 0 81.5 18t44.5 58l11 25h34l-10 -146q-29 -14 -78.5 -23t-112.5 -9q-119 0 -201.5 81.5t-82.5 238.5t94.5 253t224.5 96q57 0 95.5 -7t67.5 -22z
M403 764q0 -21 -17 -38.5t-38 -17.5q-24 0 -38 15t-14 38q0 21 16.5 39.5t40.5 18.5q22 0 36 -16t14 -39z" />
    <glyph glyph-name="cdotaccent" unicode="&#x10b;" horiz-adv-x="416" 
d="M404 71q0 -37 -38.5 -61.5t-115.5 -24.5q-92 0 -154.5 62.5t-62.5 168.5q0 124 72.5 196.5t181.5 72.5q66 0 91.5 -18t25.5 -51q0 -21 -7.5 -39.5t-19.5 -33.5q-25 29 -54 46t-60 17q-40 0 -70.5 -42t-30.5 -129q0 -78 36.5 -120.5t87.5 -42.5q29 0 58 9t54 23
q3 -7 4.5 -15.5t1.5 -17.5zM321 607q0 -21 -17 -38.5t-38 -17.5q-24 0 -38 15t-14 38q0 21 16.5 39.5t40.5 18.5q22 0 36 -16t14 -39z" />
    <glyph glyph-name="Ccaron" unicode="&#x10c;" horiz-adv-x="559" 
d="M520 623l-9 -160h-34l-5 24q-10 43 -37 65.5t-81 22.5q-64 0 -116.5 -64t-52.5 -194q0 -134 52.5 -195.5t114.5 -61.5q54 0 81.5 18t44.5 58l11 25h34l-10 -146q-29 -14 -78.5 -23t-112.5 -9q-119 0 -201.5 81.5t-82.5 238.5t94.5 253t224.5 96q57 0 95.5 -7t67.5 -22z
M319 679l-143 156q18 12 35 19t42 14l97 -117l112 117q16 -7 28 -18t20 -24l-144 -141z" />
    <glyph glyph-name="ccaron" unicode="&#x10d;" horiz-adv-x="416" 
d="M404 71q0 -37 -38.5 -61.5t-115.5 -24.5q-92 0 -154.5 62.5t-62.5 168.5q0 124 72.5 196.5t181.5 72.5q66 0 91.5 -18t25.5 -51q0 -21 -7.5 -39.5t-19.5 -33.5q-25 29 -54 46t-60 17q-40 0 -70.5 -42t-30.5 -129q0 -78 36.5 -120.5t87.5 -42.5q29 0 58 9t54 23
q3 -7 4.5 -15.5t1.5 -17.5zM235 526l-143 156q18 12 35 19t42 14l97 -117l112 117q16 -7 28 -18t20 -24l-144 -141z" />
    <glyph glyph-name="Dcaron" unicode="&#x10e;" horiz-adv-x="682" 
d="M644 349q0 -166 -115 -262.5t-272 -96.5q-66 0 -115.5 1.5t-102.5 8.5v23q28 11 42.5 30.5t14.5 60.5v466l-63 23v29q59 8 114 11.5t128 3.5q172 0 270.5 -77.5t98.5 -220.5zM500 330q0 119 -67.5 181.5t-160.5 62.5q-10 0 -22 -0.5t-24 -1.5v-506q13 -2 23.5 -3t21.5 -1
q92 0 160.5 65.5t68.5 202.5zM317 679l-143 156q18 12 35 19t42 14l97 -117l112 117q16 -7 28 -18t20 -24l-144 -141z" />
    <glyph glyph-name="dcaron" unicode="&#x10f;" horiz-adv-x="542" 
d="M347 642l-67 29v25q35 12 76.5 18t69.5 5h51l-7 -73v-552q7 -15 17 -30.5t24 -28.5q-19 -15 -46 -29t-55 -24q-16 11 -32 27.5t-25 30.5q-24 -23 -59 -38t-67 -15q-84 0 -139 58t-55 162q0 134 73 205.5t175 71.5q16 0 36 -1.5t30 -4.5v164zM348 85v325q-11 3 -28.5 5
t-34.5 2q-49 0 -86 -46t-37 -147q0 -81 33 -121.5t73 -40.5q22 0 44 6.5t36 16.5zM472 749v1004.4h994.905v-1004.4h-994.905zM748.802 981.514l223.023 223.023l221.442 -223.023l58.5234 58.5234l-223.023 221.442l223.023 223.023l-58.5234 58.5234l-221.442 -224.604
l-223.023 224.604l-60.1055 -58.5234l224.605 -223.023l-223.023 -219.86z" />
    <glyph glyph-name="Dcroat" unicode="&#x110;" horiz-adv-x="680" 
d="M642 349q0 -166 -115 -262.5t-272 -96.5q-66 0 -114.5 1.5t-101.5 8.5v23q28 11 42.5 30.5t14.5 60.5v184h-77v58h77v224l-63 23v29q59 8 113 11.5t127 3.5q172 0 270.5 -77.5t98.5 -220.5zM498 330q0 119 -67.5 181.5t-160.5 62.5q-10 0 -22 -0.5t-24 -1.5v-216h129v-58
h-129v-232q13 -2 23.5 -3t21.5 -1q92 0 160.5 65.5t68.5 202.5z" />
    <glyph glyph-name="dcroat" unicode="&#x111;" horiz-adv-x="542" 
d="M347 642l-67 29v25q35 12 76.5 18t69.5 5h51l-7 -73v-23q17 1 34.5 2t35.5 3q0 -32 -11 -50t-44 -19l-15 -1v-464q7 -15 17 -30.5t24 -28.5q-19 -15 -46 -29t-55 -24q-16 11 -32 27.5t-25 30.5q-24 -23 -59 -38t-67 -15q-84 0 -139 58t-55 162q0 134 73 205.5t175 71.5
q16 0 36 -1.5t30 -4.5v78q-35 -1 -68 -3t-58 -5q0 34 11.5 52.5t51.5 18.5l63 1v22zM348 85v325q-11 3 -28.5 5t-34.5 2q-49 0 -86 -46t-37 -147q0 -81 33 -121.5t73 -40.5q22 0 44 6.5t36 16.5z" />
    <glyph glyph-name="Emacron" unicode="&#x112;" horiz-adv-x="489" 
d="M472 141l-18 -141h-415v27q30 11 43.5 30t13.5 56v468l-63 27v32h417l-8 -162h-37l-3 19q-6 40 -24.5 55.5t-61.5 15.5h-90v-216h94q31 0 46.5 8.5t21.5 27.5l7 22h34v-196h-34l-4 22q-5 25 -17 37t-36 12h-112v-215h111q40 0 58.5 12.5t30.5 37.5l10 21h36zM396 720
h-266v74h266v-74z" />
    <glyph glyph-name="emacron" unicode="&#x113;" horiz-adv-x="478" 
d="M450 298q0 -16 -0.5 -32.5t-1.5 -38.5h-289q0 -69 42 -111t103 -42q32 0 70.5 11t66.5 25q1 -6 2 -14t1 -16q0 -36 -47.5 -65.5t-136.5 -29.5q-99 0 -163 62t-64 168q0 133 67.5 202.5t160.5 69.5q87 0 138 -51t51 -138zM335 289q0 72 -24 103.5t-62 31.5q-34 0 -63 -38
t-29 -97h178zM395 570h-266v74h266v-74z" />
    <glyph glyph-name="Ebreve" unicode="&#x114;" horiz-adv-x="489" 
d="M472 141l-18 -141h-415v27q30 11 43.5 30t13.5 56v468l-63 27v32h417l-8 -162h-37l-3 19q-6 40 -24.5 55.5t-61.5 15.5h-90v-216h94q31 0 46.5 8.5t21.5 27.5l7 22h34v-196h-34l-4 22q-5 25 -17 37t-36 12h-112v-215h111q40 0 58.5 12.5t30.5 37.5l10 21h36zM265 679
q-50 0 -95 37.5t-76 105.5q18 11 31.5 18t37.5 12q22 -54 51 -81t59 -27q31 0 58.5 28t49.5 82q16 -7 28 -17.5t20 -24.5q-22 -57 -67.5 -95t-96.5 -38z" />
    <glyph glyph-name="ebreve" unicode="&#x115;" horiz-adv-x="478" 
d="M450 298q0 -16 -0.5 -32.5t-1.5 -38.5h-289q0 -69 42 -111t103 -42q32 0 70.5 11t66.5 25q1 -6 2 -14t1 -16q0 -36 -47.5 -65.5t-136.5 -29.5q-99 0 -163 62t-64 168q0 133 67.5 202.5t160.5 69.5q87 0 138 -51t51 -138zM335 289q0 72 -24 103.5t-62 31.5q-34 0 -63 -38
t-29 -97h178zM264 529q-50 0 -95 37.5t-76 105.5q18 11 31.5 18t37.5 12q22 -54 51 -81t59 -27q31 0 58.5 28t49.5 82q16 -7 28 -17.5t20 -24.5q-22 -57 -67.5 -95t-96.5 -38z" />
    <glyph glyph-name="Edotaccent" unicode="&#x116;" horiz-adv-x="489" 
d="M472 141l-18 -141h-415v27q30 11 43.5 30t13.5 56v468l-63 27v32h417l-8 -162h-37l-3 19q-6 40 -24.5 55.5t-61.5 15.5h-90v-216h94q31 0 46.5 8.5t21.5 27.5l7 22h34v-196h-34l-4 22q-5 25 -17 37t-36 12h-112v-215h111q40 0 58.5 12.5t30.5 37.5l10 21h36zM327 759
q0 -21 -17 -38.5t-38 -17.5q-24 0 -38 15t-14 38q0 21 16.5 39.5t40.5 18.5q22 0 36 -16t14 -39z" />
    <glyph glyph-name="edotaccent" unicode="&#x117;" horiz-adv-x="478" 
d="M450 298q0 -16 -0.5 -32.5t-1.5 -38.5h-289q0 -69 42 -111t103 -42q32 0 70.5 11t66.5 25q1 -6 2 -14t1 -16q0 -36 -47.5 -65.5t-136.5 -29.5q-99 0 -163 62t-64 168q0 133 67.5 202.5t160.5 69.5q87 0 138 -51t51 -138zM335 289q0 72 -24 103.5t-62 31.5q-34 0 -63 -38
t-29 -97h178zM318 607q0 -21 -17 -38.5t-38 -17.5q-24 0 -38 15t-14 38q0 21 16.5 39.5t40.5 18.5q22 0 36 -16t14 -39z" />
    <glyph glyph-name="Eogonek" unicode="&#x118;" horiz-adv-x="489" 
d="M472 141l-18 -141h-54l-43 -56q-10 -12 -17.5 -28.5t-7.5 -31.5q0 -23 13.5 -36t35.5 -13q20 0 40 5t39 13q0 -32 -25.5 -53t-72.5 -21q-49 0 -78 23.5t-29 66.5q0 25 14.5 48t38.5 42l48 41h-317v27q30 11 43.5 30t13.5 56v468l-63 27v32h417l-8 -162h-37l-3 19
q-6 40 -24.5 55.5t-61.5 15.5h-90v-216h94q31 0 46.5 8.5t21.5 27.5l7 22h34v-196h-34l-4 22q-5 25 -17 37t-36 12h-112v-215h111q40 0 58.5 12.5t30.5 37.5l10 21h36z" />
    <glyph glyph-name="eogonek" unicode="&#x119;" horiz-adv-x="478" 
d="M450 298q0 -16 -0.5 -32.5t-1.5 -38.5h-289q0 -69 42 -111t103 -42q32 0 70.5 11t66.5 25q1 -6 2 -14t1 -16q0 -25 -22.5 -47.5t-65.5 -35.5l-41 -53q-10 -12 -17.5 -28.5t-7.5 -31.5q0 -23 13.5 -36t35.5 -13q19 0 39.5 5t39.5 13q0 -32 -25.5 -53t-72.5 -21
q-50 0 -78.5 23.5t-28.5 66.5q0 25 14.5 48t37.5 42l32 28q-9 -1 -18.5 -1.5t-18.5 -0.5q-99 0 -163 62t-64 168q0 133 67.5 202.5t160.5 69.5q87 0 138 -51t51 -138zM335 289q0 72 -24 103.5t-62 31.5q-34 0 -63 -38t-29 -97h178z" />
    <glyph glyph-name="Ecaron" unicode="&#x11a;" horiz-adv-x="489" 
d="M472 141l-18 -141h-415v27q30 11 43.5 30t13.5 56v468l-63 27v32h417l-8 -162h-37l-3 19q-6 40 -24.5 55.5t-61.5 15.5h-90v-216h94q31 0 46.5 8.5t21.5 27.5l7 22h34v-196h-34l-4 22q-5 25 -17 37t-36 12h-112v-215h111q40 0 58.5 12.5t30.5 37.5l10 21h36zM247 679
l-143 156q18 12 35 19t42 14l97 -117l112 117q16 -7 28 -18t20 -24l-144 -141z" />
    <glyph glyph-name="ecaron" unicode="&#x11b;" horiz-adv-x="478" 
d="M450 298q0 -16 -0.5 -32.5t-1.5 -38.5h-289q0 -69 42 -111t103 -42q32 0 70.5 11t66.5 25q1 -6 2 -14t1 -16q0 -36 -47.5 -65.5t-136.5 -29.5q-99 0 -163 62t-64 168q0 133 67.5 202.5t160.5 69.5q87 0 138 -51t51 -138zM335 289q0 72 -24 103.5t-62 31.5q-34 0 -63 -38
t-29 -97h178zM239 526l-143 156q18 12 35 19t42 14l97 -117l112 117q16 -7 28 -18t20 -24l-144 -141z" />
    <glyph glyph-name="Gcircumflex" unicode="&#x11c;" horiz-adv-x="622" 
d="M561 206v-219q-43 0 -68 7.5t-42 26.5q-21 -16 -58.5 -27t-79.5 -11q-116 0 -195.5 81.5t-79.5 230.5q0 165 96.5 261t245.5 96q53 0 95 -7t76 -23l-12 -159h-34l-6 26q-10 45 -40.5 65.5t-87.5 20.5q-78 0 -132 -64.5t-54 -197.5q0 -127 48.5 -189.5t116.5 -62.5
q23 0 46 5t40 12v181l-59 18v27q35 9 65 12.5t64 3.5q37 0 61 -2t51 -8v-22q-29 -12 -43 -32.5t-14 -49.5zM337 852l45 8l144 -161l-16 -17q-31 0 -56.5 10t-49.5 34q-14 13 -26 29.5t-21 33.5l-113 -108q-16 7 -27.5 18t-19.5 24z" />
    <glyph glyph-name="gcircumflex" unicode="&#x11d;" horiz-adv-x="495" 
d="M327 315q0 58 -24.5 86t-55.5 28q-35 0 -61 -33.5t-26 -99.5q0 -57 24.5 -87.5t54.5 -30.5q36 0 62 32.5t26 104.5zM112 -23v1q-29 11 -43.5 30t-14.5 48t23 56t56 37v1q-38 13 -68 50t-30 93q0 82 63 138t155 56q32 0 64 -10t47 -24q14 15 39.5 26t52.5 11q14 0 25.5 -2
t20.5 -6l-7 -78q-27 7 -54.5 9.5t-58.5 2.5v-1q28 -16 49 -46t21 -63q0 -82 -62 -132.5t-157 -50.5q-16 0 -33.5 3t-28.5 7q-9 -5 -16.5 -16.5t-7.5 -22.5q0 -20 17 -30.5t51 -9.5l127 4q77 2 112.5 -29t35.5 -93q0 -75 -76 -131t-189 -56q-104 0 -155.5 33t-51.5 87
q0 38 27 68t67 40zM153 -49q-17 -9 -27.5 -25.5t-10.5 -35.5q0 -28 32 -48t93 -20q72 0 112 24.5t40 56.5q0 22 -16.5 35t-55.5 13h-167zM229 700l45 8l144 -161l-16 -17q-31 0 -56.5 10t-49.5 34q-14 13 -26 29.5t-21 33.5l-113 -108q-16 7 -27.5 18t-19.5 24z" />
    <glyph glyph-name="Gbreve" unicode="&#x11e;" horiz-adv-x="622" 
d="M561 206v-219q-43 0 -68 7.5t-42 26.5q-21 -16 -58.5 -27t-79.5 -11q-116 0 -195.5 81.5t-79.5 230.5q0 165 96.5 261t245.5 96q53 0 95 -7t76 -23l-12 -159h-34l-6 26q-10 45 -40.5 65.5t-87.5 20.5q-78 0 -132 -64.5t-54 -197.5q0 -127 48.5 -189.5t116.5 -62.5
q23 0 46 5t40 12v181l-59 18v27q35 9 65 12.5t64 3.5q37 0 61 -2t51 -8v-22q-29 -12 -43 -32.5t-14 -49.5zM365 681q-50 0 -95 37.5t-76 105.5q18 11 31.5 18t37.5 12q22 -54 51 -81t59 -27q31 0 58.5 28t49.5 82q16 -7 28 -17.5t20 -24.5q-22 -57 -67.5 -95t-96.5 -38z" />
    <glyph glyph-name="gbreve" unicode="&#x11f;" horiz-adv-x="495" 
d="M327 315q0 58 -24.5 86t-55.5 28q-35 0 -61 -33.5t-26 -99.5q0 -57 24.5 -87.5t54.5 -30.5q36 0 62 32.5t26 104.5zM112 -23v1q-29 11 -43.5 30t-14.5 48t23 56t56 37v1q-38 13 -68 50t-30 93q0 82 63 138t155 56q32 0 64 -10t47 -24q14 15 39.5 26t52.5 11q14 0 25.5 -2
t20.5 -6l-7 -78q-27 7 -54.5 9.5t-58.5 2.5v-1q28 -16 49 -46t21 -63q0 -82 -62 -132.5t-157 -50.5q-16 0 -33.5 3t-28.5 7q-9 -5 -16.5 -16.5t-7.5 -22.5q0 -20 17 -30.5t51 -9.5l127 4q77 2 112.5 -29t35.5 -93q0 -75 -76 -131t-189 -56q-104 0 -155.5 33t-51.5 87
q0 38 27 68t67 40zM153 -49q-17 -9 -27.5 -25.5t-10.5 -35.5q0 -28 32 -48t93 -20q72 0 112 24.5t40 56.5q0 22 -16.5 35t-55.5 13h-167zM251 529q-50 0 -95 37.5t-76 105.5q18 11 31.5 18t37.5 12q22 -54 51 -81t59 -27q31 0 58.5 28t49.5 82q16 -7 28 -17.5t20 -24.5
q-22 -57 -67.5 -95t-96.5 -38z" />
    <glyph glyph-name="Gdotaccent" unicode="&#x120;" horiz-adv-x="622" 
d="M561 206v-219q-43 0 -68 7.5t-42 26.5q-21 -16 -58.5 -27t-79.5 -11q-116 0 -195.5 81.5t-79.5 230.5q0 165 96.5 261t245.5 96q53 0 95 -7t76 -23l-12 -159h-34l-6 26q-10 45 -40.5 65.5t-87.5 20.5q-78 0 -132 -64.5t-54 -197.5q0 -127 48.5 -189.5t116.5 -62.5
q23 0 46 5t40 12v181l-59 18v27q35 9 65 12.5t64 3.5q37 0 61 -2t51 -8v-22q-29 -12 -43 -32.5t-14 -49.5zM422 764q0 -21 -17 -38.5t-38 -17.5q-24 0 -38 15t-14 38q0 21 16.5 39.5t40.5 18.5q22 0 36 -16t14 -39z" />
    <glyph glyph-name="gdotaccent" unicode="&#x121;" horiz-adv-x="495" 
d="M327 315q0 58 -24.5 86t-55.5 28q-35 0 -61 -33.5t-26 -99.5q0 -57 24.5 -87.5t54.5 -30.5q36 0 62 32.5t26 104.5zM112 -23v1q-29 11 -43.5 30t-14.5 48t23 56t56 37v1q-38 13 -68 50t-30 93q0 82 63 138t155 56q32 0 64 -10t47 -24q14 15 39.5 26t52.5 11q14 0 25.5 -2
t20.5 -6l-7 -78q-27 7 -54.5 9.5t-58.5 2.5v-1q28 -16 49 -46t21 -63q0 -82 -62 -132.5t-157 -50.5q-16 0 -33.5 3t-28.5 7q-9 -5 -16.5 -16.5t-7.5 -22.5q0 -20 17 -30.5t51 -9.5l127 4q77 2 112.5 -29t35.5 -93q0 -75 -76 -131t-189 -56q-104 0 -155.5 33t-51.5 87
q0 38 27 68t67 40zM153 -49q-17 -9 -27.5 -25.5t-10.5 -35.5q0 -28 32 -48t93 -20q72 0 112 24.5t40 56.5q0 22 -16.5 35t-55.5 13h-167zM301 607q0 -21 -17 -38.5t-38 -17.5q-24 0 -38 15t-14 38q0 21 16.5 39.5t40.5 18.5q22 0 36 -16t14 -39z" />
    <glyph glyph-name="Gcommaaccent" unicode="&#x122;" horiz-adv-x="622" 
d="M561 206v-219q-43 0 -68 7.5t-42 26.5q-21 -16 -58.5 -27t-79.5 -11q-116 0 -195.5 81.5t-79.5 230.5q0 165 96.5 261t245.5 96q53 0 95 -7t76 -23l-12 -159h-34l-6 26q-10 45 -40.5 65.5t-87.5 20.5q-78 0 -132 -64.5t-54 -197.5q0 -127 48.5 -189.5t116.5 -62.5
q23 0 46 5t40 12v181l-59 18v27q35 9 65 12.5t64 3.5q37 0 61 -2t51 -8v-22q-29 -12 -43 -32.5t-14 -49.5zM247 0v1004.4h994.905v-1004.4h-994.905zM523.802 232.514l223.023 223.023l221.442 -223.023l58.5234 58.5234l-223.023 221.442l223.023 223.023l-58.5234 58.5234
l-221.442 -224.604l-223.023 224.604l-60.1055 -58.5234l224.605 -223.023l-223.023 -219.86z" />
    <glyph glyph-name="gcommaaccent" unicode="&#x123;" horiz-adv-x="495" 
d="M327 315q0 58 -24.5 86t-55.5 28q-35 0 -61 -33.5t-26 -99.5q0 -57 24.5 -87.5t54.5 -30.5q36 0 62 32.5t26 104.5zM112 -23v1q-29 11 -43.5 30t-14.5 48t23 56t56 37v1q-38 13 -68 50t-30 93q0 82 63 138t155 56q32 0 64 -10t47 -24q14 15 39.5 26t52.5 11q14 0 25.5 -2
t20.5 -6l-7 -78q-27 7 -54.5 9.5t-58.5 2.5v-1q28 -16 49 -46t21 -63q0 -82 -62 -132.5t-157 -50.5q-16 0 -33.5 3t-28.5 7q-9 -5 -16.5 -16.5t-7.5 -22.5q0 -20 17 -30.5t51 -9.5l127 4q77 2 112.5 -29t35.5 -93q0 -75 -76 -131t-189 -56q-104 0 -155.5 33t-51.5 87
q0 38 27 68t67 40zM153 -49q-17 -9 -27.5 -25.5t-10.5 -35.5q0 -28 32 -48t93 -20q72 0 112 24.5t40 56.5q0 22 -16.5 35t-55.5 13h-167zM243 519q-22 0 -38 15t-16 41q0 43 35 85.5t57 42.5q5 0 9.5 -2t8.5 -5q-13 -21 -19.5 -45.5t-6.5 -49.5l34 -41q-11 -19 -28 -30
t-36 -11z" />
    <glyph glyph-name="Hcircumflex" unicode="&#x124;" horiz-adv-x="694" 
d="M467 584l-63 20v26q31 8 66 12.5t75 4.5q27 0 56.5 -3t52.5 -7v-23q-27 -11 -41.5 -29.5t-14.5 -55.5v-477l62 -19v-26q-31 -8 -65.5 -12.5t-74.5 -4.5q-27 0 -56.5 2.5t-53.5 7.5v23q28 11 42.5 30t14.5 56v185h-240v-242l62 -19v-26q-31 -8 -65.5 -12.5t-74.5 -4.5
q-27 0 -56.5 2.5t-53.5 7.5v23q28 11 42.5 30t14.5 56v475l-63 20v26q31 8 66 12.5t75 4.5q27 0 56.5 -3t52.5 -7v-23q-27 -11 -41.5 -29.5t-14.5 -55.5v-157h240v212zM322 857l45 8l144 -161l-16 -17q-31 0 -56.5 10t-49.5 34q-14 13 -26 29.5t-21 33.5l-113 -108
q-16 7 -27.5 18t-19.5 24z" />
    <glyph glyph-name="hcircumflex" unicode="&#x125;" horiz-adv-x="580" 
d="M507 47l53 -16v-23q-25 -8 -57 -12.5t-75 -4.5q-21 0 -42 2.5t-39 6.5v20q19 10 28 26.5t9 41.5v187q0 66 -27 94t-70 28q-21 0 -41.5 -6t-33.5 -14v-330l56 -16v-23q-29 -9 -60.5 -13t-77.5 -4q-22 0 -47.5 2.5t-45.5 6.5v20q19 8 35.5 24.5t16.5 36.5v561l-64 29v25
q35 12 73.5 18t69.5 5h51l-7 -73v-219q27 27 64 41.5t80 14.5q72 0 111.5 -40t39.5 -124v-272zM261 901l45 8l144 -161l-16 -17q-31 0 -56.5 10t-49.5 34q-14 13 -26 29.5t-21 33.5l-113 -108q-16 7 -27.5 18t-19.5 24z" />
    <glyph glyph-name="Hbar" unicode="&#x126;" horiz-adv-x="694" 
d="M39 0v23q28 11 42.5 30t14.5 56v362h-1q-16 0 -31.5 -1t-32.5 -2q-1 4 -2.5 11.5t-1.5 13.5q0 15 11.5 23.5t54.5 10.5h3v57l-63 20v26q31 8 66 12.5t75 4.5q27 0 56.5 -3t52.5 -7v-23q-27 -11 -41.5 -29.5t-14.5 -55.5v-1l240 3v53l-63 20v26q31 8 66 12.5t75 4.5
q27 0 56.5 -3t52.5 -7v-23q-26 -11 -40.5 -29t-15.5 -52q16 0 31.5 1t32.5 3q1 -4 2.5 -12t1.5 -14q0 -20 -13 -27t-55 -8v-424l62 -19v-26q-31 -8 -65.5 -12.5t-74.5 -4.5q-27 0 -56.5 2.5t-53.5 7.5v23q28 11 42.5 30t14.5 56v185h-240v-242l62 -19v-26
q-31 -8 -65.5 -12.5t-74.5 -4.5q-27 0 -56.5 2.5t-53.5 7.5zM227 372h240v103l-240 -3v-100z" />
    <glyph glyph-name="hbar" unicode="&#x127;" horiz-adv-x="578" 
d="M506 47l53 -16v-23q-25 -8 -57 -12.5t-75 -4.5q-21 0 -42 2.5t-39 6.5v20q19 10 28 26.5t9 41.5v187q0 66 -27 94t-70 28q-21 0 -41.5 -6t-33.5 -14v-330l56 -16v-23q-29 -9 -60.5 -13t-77.5 -4q-22 0 -47.5 2.5t-45.5 6.5v20q19 8 35.5 24.5t16.5 36.5v458l-73 -6
q0 34 11.5 52.5t51.5 18.5h10v38l-64 29v25q35 12 73.5 18t69.5 5h51l-7 -73v-39l53 1q17 1 34.5 2t35.5 3q0 -32 -11 -50t-44 -19l-68 -2v-115q27 27 64 41.5t80 14.5q72 0 111.5 -40t39.5 -124v-272z" />
    <glyph glyph-name="Itilde" unicode="&#x128;" horiz-adv-x="323" 
d="M289 33v-26q-28 -7 -63.5 -12t-71.5 -5q-39 0 -65 2.5t-50 7.5v23q27 10 42 29.5t15 59.5v472l-63 20v26q34 8 69 12.5t72 4.5q30 0 56.5 -2.5t52.5 -7.5v-23q-31 -13 -43.5 -32t-12.5 -55v-475zM70 818q16 0 33.5 -3t36.5 -8l61 -15q11 -4 24 -6t24 -2q17 0 32.5 15.5
t15.5 33.5q14 -13 22.5 -29.5t8.5 -35.5q0 -28 -23 -46t-52 -18q-17 0 -35 2.5t-33 6.5l-62 17q-14 4 -27 6t-23 2q-18 0 -31.5 -13t-13.5 -29q-13 12 -21.5 28t-8.5 34q0 28 19 44t53 16z" />
    <glyph glyph-name="itilde" unicode="&#x129;" horiz-adv-x="292" 
d="M89 402l-62 29v24q36 12 74.5 18t66.5 6l51 -1l-7 -71v-360l56 -16v-23q-28 -9 -60.5 -13t-78.5 -4q-22 0 -47.5 2.5t-44.5 6.5v20q19 8 35.5 24.5t16.5 36.5v321zM57 661q16 0 33.5 -3t36.5 -8l61 -15q11 -4 24 -6t24 -2q17 0 32.5 15.5t15.5 33.5q14 -13 22.5 -29.5
t8.5 -35.5q0 -28 -23 -46t-52 -18q-17 0 -35 2.5t-33 6.5l-62 17q-14 4 -27 6t-23 2q-18 0 -31.5 -13t-13.5 -29q-13 12 -21.5 28t-8.5 34q0 28 19 44t53 16z" />
    <glyph glyph-name="Imacron" unicode="&#x12a;" horiz-adv-x="323" 
d="M289 33v-26q-28 -7 -63.5 -12t-71.5 -5q-39 0 -65 2.5t-50 7.5v23q27 10 42 29.5t15 59.5v472l-63 20v26q34 8 69 12.5t72 4.5q30 0 56.5 -2.5t52.5 -7.5v-23q-31 -13 -43.5 -32t-12.5 -55v-475zM296 723h-266v74h266v-74z" />
    <glyph glyph-name="imacron" unicode="&#x12b;" horiz-adv-x="292" 
d="M89 402l-62 29v24q36 12 74.5 18t66.5 6l51 -1l-7 -71v-360l56 -16v-23q-28 -9 -60.5 -13t-78.5 -4q-22 0 -47.5 2.5t-44.5 6.5v20q19 8 35.5 24.5t16.5 36.5v321zM283 570h-266v74h266v-74z" />
    <glyph glyph-name="Ibreve" unicode="&#x12c;" horiz-adv-x="323" 
d="M289 33v-26q-28 -7 -63.5 -12t-71.5 -5q-39 0 -65 2.5t-50 7.5v23q27 10 42 29.5t15 59.5v472l-63 20v26q34 8 69 12.5t72 4.5q30 0 56.5 -2.5t52.5 -7.5v-23q-31 -13 -43.5 -32t-12.5 -55v-475zM166 681q-50 0 -95 37.5t-76 105.5q18 11 31.5 18t37.5 12q22 -54 51 -81
t59 -27q31 0 58.5 28t49.5 82q16 -7 28 -17.5t20 -24.5q-22 -57 -67.5 -95t-96.5 -38z" />
    <glyph glyph-name="ibreve" unicode="&#x12d;" horiz-adv-x="292" 
d="M89 402l-62 29v24q36 12 74.5 18t66.5 6l51 -1l-7 -71v-360l56 -16v-23q-28 -9 -60.5 -13t-78.5 -4q-22 0 -47.5 2.5t-44.5 6.5v20q19 8 35.5 24.5t16.5 36.5v321zM154 529q-50 0 -95 37.5t-76 105.5q18 11 31.5 18t37.5 12q22 -54 51 -81t59 -27q31 0 58.5 28t49.5 82
q16 -7 28 -17.5t20 -24.5q-22 -57 -67.5 -95t-96.5 -38z" />
    <glyph glyph-name="Iogonek" unicode="&#x12e;" horiz-adv-x="323" 
d="M289 33v-26q-23 -6 -51 -10.5t-57 -5.5l-36 -47q-10 -12 -17.5 -28.5t-7.5 -31.5q0 -23 13.5 -36t35.5 -13q20 0 40 5t39 13q0 -32 -25.5 -53t-72.5 -21q-49 0 -78 23.5t-29 66.5q0 25 14.5 48t38.5 42l36 31q-29 1 -51 3.5t-42 6.5v23q27 10 42 29.5t15 59.5v472l-63 20
v26q34 8 69 12.5t72 4.5q30 0 56.5 -2.5t52.5 -7.5v-23q-31 -13 -43.5 -32t-12.5 -55v-475z" />
    <glyph glyph-name="iogonek" unicode="&#x12f;" horiz-adv-x="292" 
d="M225 631q0 -34 -21 -54.5t-52 -20.5q-30 0 -50 19.5t-20 50.5q0 30 20.5 51t53.5 21q30 0 49.5 -18t19.5 -49zM89 402l-62 29v24q36 12 74.5 18t66.5 6l51 -1l-7 -71v-360l56 -16v-23q-20 -6 -42 -10.5t-49 -5.5l-37 -48q-10 -12 -17.5 -28.5t-7.5 -31.5q0 -23 13.5 -36
t35.5 -13q20 0 40 5t39 13q0 -32 -25.5 -53t-72.5 -21q-49 0 -78 23.5t-29 66.5q0 25 14.5 48t38.5 42l37 32q-22 0 -47 2.5t-44 6.5v20q19 8 35.5 24.5t16.5 36.5v321z" />
    <glyph glyph-name="Idotaccent" unicode="&#x130;" horiz-adv-x="323" 
d="M289 33v-26q-28 -7 -63.5 -12t-71.5 -5q-39 0 -65 2.5t-50 7.5v23q27 10 42 29.5t15 59.5v472l-63 20v26q34 8 69 12.5t72 4.5q30 0 56.5 -2.5t52.5 -7.5v-23q-31 -13 -43.5 -32t-12.5 -55v-475zM216 760q0 -21 -17 -38.5t-38 -17.5q-24 0 -38 15t-14 38q0 21 16.5 39.5
t40.5 18.5q22 0 36 -16t14 -39z" />
    <glyph glyph-name="dotlessi" unicode="&#x131;" horiz-adv-x="292" 
d="M89 402l-62 29v24q36 12 74.5 18t66.5 6l51 -1l-7 -71v-360l56 -16v-23q-28 -9 -60.5 -13t-78.5 -4q-22 0 -47.5 2.5t-44.5 6.5v20q19 8 35.5 24.5t16.5 36.5v321z" />
    <glyph glyph-name="IJ" unicode="&#x132;" horiz-adv-x="646" 
d="M606 637v-23q-29 -12 -42.5 -31.5t-13.5 -56.5v-433q0 -109 -43 -163.5t-98 -54.5q-19 0 -36.5 3.5t-35.5 10.5v16q34 21 58 67t24 106v506l-63 20v26q37 9 70.5 13t71.5 4q31 0 56.5 -2.5t51.5 -7.5zM289 33v-26q-28 -7 -63.5 -12t-71.5 -5q-39 0 -65 2.5t-50 7.5v23
q27 10 42 29.5t15 59.5v472l-63 20v26q34 8 69 12.5t72 4.5q30 0 56.5 -2.5t52.5 -7.5v-23q-31 -13 -43.5 -32t-12.5 -55v-475z" />
    <glyph glyph-name="ij" unicode="&#x133;" horiz-adv-x="574" 
d="M515 631q0 -34 -21 -54.5t-52 -20.5q-30 0 -50 19.5t-20 50.5q0 30 20.5 51t53.5 21q30 0 49.5 -18t19.5 -49zM225 631q0 -34 -21 -54.5t-52 -20.5q-30 0 -50 19.5t-20 50.5q0 30 20.5 51t53.5 21q30 0 49.5 -18t19.5 -49zM504 405v-424q0 -129 -37.5 -178t-97.5 -49
q-31 0 -53.5 11.5t-30.5 30.5v17q37 0 66.5 36t29.5 106v447l-61 29v24q35 12 73.5 18t66.5 6l51 -1zM89 402l-62 29v24q36 12 74.5 18t66.5 6l51 -1l-7 -71v-360l56 -16v-23q-28 -9 -60.5 -13t-78.5 -4q-22 0 -47.5 2.5t-44.5 6.5v20q19 8 35.5 24.5t16.5 36.5v321z" />
    <glyph glyph-name="Jcircumflex" unicode="&#x134;" horiz-adv-x="323" 
d="M283 637v-23q-29 -12 -42.5 -31.5t-13.5 -56.5v-433q0 -109 -43 -163.5t-98 -54.5q-19 0 -36.5 3.5t-35.5 10.5v16q34 21 58 67t24 106v506l-63 20v26q37 9 70.5 13t71.5 4q31 0 56.5 -2.5t51.5 -7.5zM135 852l45 8l144 -161l-16 -17q-31 0 -56.5 10t-49.5 34
q-14 13 -26 29.5t-21 33.5l-113 -108q-16 7 -27.5 18t-19.5 24z" />
    <glyph glyph-name="jcircumflex" unicode="&#x135;" horiz-adv-x="282" 
d="M119 700l45 8l144 -161l-17 -17q-31 0 -56.5 10t-49.5 34q-14 13 -26 29.5t-21 33.5l-112 -108q-16 7 -28 18t-20 24zM212 405v-424q0 -129 -37.5 -178t-97.5 -49q-31 0 -53.5 11.5t-30.5 30.5v17q37 0 66.5 36t29.5 106v447l-61 29v24q35 12 73.5 18t66.5 6l51 -1z" />
    <glyph glyph-name="Kcommaaccent" unicode="&#x136;" horiz-adv-x="608" 
d="M287 33v-26q-29 -8 -60.5 -12.5t-75.5 -4.5q-34 0 -61 2.5t-51 7.5v23q31 12 44 32t13 58v471l-63 20v26q35 9 69.5 13t69.5 4q31 0 57.5 -2.5t53.5 -7.5v-23q-31 -13 -43.5 -32t-12.5 -56v-474zM630 35v-23q-24 -13 -48.5 -19t-58.5 -6q-37 0 -67 17.5t-64 69.5
l-161 250v5l218 256v2l-57 17v26q39 10 69.5 13.5t65.5 3.5q23 0 43 -2.5t39 -7.5v-23q-25 -11 -42.5 -22.5t-35.5 -31.5l-174 -197l164 -235q22 -32 47 -53t62 -40zM215 0v1004.4h994.905v-1004.4h-994.905zM491.802 232.514l223.023 223.023l221.442 -223.023
l58.5234 58.5234l-223.023 221.442l223.023 223.023l-58.5234 58.5234l-221.442 -224.604l-223.023 224.604l-60.1055 -58.5234l224.605 -223.023l-223.023 -219.86z" />
    <glyph glyph-name="kcommaaccent" unicode="&#x137;" horiz-adv-x="507" 
d="M217 719l-8 -73v-382l55 50q34 29 60 75.5t26 81.5q16 6 34.5 9t35.5 3q13 0 26.5 -2.5t27.5 -6.5q-1 -40 -31 -86.5t-93 -94.5l-25 -17l133 -172q22 -28 40 -43t36 -21v-26q-22 -13 -46 -18t-52 -5t-50 11t-41 39l-136 197v-191l51 -16v-23q-29 -9 -59 -13t-74 -4
q-22 0 -47.5 2.5t-44.5 6.5v20q19 8 35 24.5t16 37.5v560l-64 29v25q36 12 76 18t68 5h51zM173 0v1004.4h994.905v-1004.4h-994.905zM449.802 232.514l223.023 223.023l221.442 -223.023l58.5234 58.5234l-223.023 221.442l223.023 223.023l-58.5234 58.5234
l-221.442 -224.604l-223.023 224.604l-60.1055 -58.5234l224.605 -223.023l-223.023 -219.86z" />
    <glyph glyph-name="Lacute" unicode="&#x139;" horiz-adv-x="471" 
d="M474 147l-18 -147h-417v25q27 10 42 28.5t15 52.5v478l-63 20v26q37 9 70.5 13t67.5 4t60.5 -2.5t51.5 -7.5v-23q-31 -13 -43.5 -33t-12.5 -55v-454h100q47 0 70.5 13t35.5 39l11 23h30zM278 808q0 -40 -59 -89.5t-94 -49.5l-13 8q25 31 49 82.5t31 96.5q49 0 67.5 -12.5
t18.5 -35.5z" />
    <glyph glyph-name="lacute" unicode="&#x13a;" horiz-adv-x="289" 
d="M86 81v561l-64 29v25q35 12 75 18t68 5h51l-7 -73v-599l55 -16v-23q-28 -9 -60 -13t-78 -4q-22 0 -47.5 2.5t-44.5 6.5v20q19 8 35.5 24.5t16.5 36.5zM234 878q0 -40 -59 -89.5t-94 -49.5l-13 8q25 31 49 82.5t31 96.5q49 0 67.5 -12.5t18.5 -35.5z" />
    <glyph glyph-name="Lcommaaccent" unicode="&#x13b;" horiz-adv-x="471" 
d="M474 147l-18 -147h-417v25q27 10 42 28.5t15 52.5v478l-63 20v26q37 9 70.5 13t67.5 4t60.5 -2.5t51.5 -7.5v-23q-31 -13 -43.5 -33t-12.5 -55v-454h100q47 0 70.5 13t35.5 39l11 23h30zM155 0v1004.4h994.905v-1004.4h-994.905zM431.802 232.514l223.023 223.023
l221.442 -223.023l58.5234 58.5234l-223.023 221.442l223.023 223.023l-58.5234 58.5234l-221.442 -224.604l-223.023 224.604l-60.1055 -58.5234l224.605 -223.023l-223.023 -219.86z" />
    <glyph glyph-name="lcommaaccent" unicode="&#x13c;" horiz-adv-x="289" 
d="M86 81v561l-64 29v25q35 12 75 18t68 5h51l-7 -73v-599l55 -16v-23q-28 -9 -60 -13t-78 -4q-22 0 -47.5 2.5t-44.5 6.5v20q19 8 35.5 24.5t16.5 36.5zM41 0v1004.4h994.905v-1004.4h-994.905zM317.802 232.514l223.023 223.023l221.442 -223.023l58.5234 58.5234
l-223.023 221.442l223.023 223.023l-58.5234 58.5234l-221.442 -224.604l-223.023 224.604l-60.1055 -58.5234l224.605 -223.023l-223.023 -219.86z" />
    <glyph glyph-name="Lcaron" unicode="&#x13d;" horiz-adv-x="471" 
d="M474 147l-18 -147h-417v25q27 10 42 28.5t15 52.5v478l-63 20v26q37 9 70.5 13t67.5 4t60.5 -2.5t51.5 -7.5v-23q-31 -13 -43.5 -33t-12.5 -55v-454h100q47 0 70.5 13t35.5 39l11 23h30zM286 713v1004.4h994.905v-1004.4h-994.905zM562.802 945.514l223.023 223.023
l221.442 -223.023l58.5234 58.5234l-223.023 221.442l223.023 223.023l-58.5234 58.5234l-221.442 -224.604l-223.023 224.604l-60.1055 -58.5234l224.605 -223.023l-223.023 -219.86z" />
    <glyph glyph-name="lcaron" unicode="&#x13e;" horiz-adv-x="296" 
d="M93 81v561l-64 29v25q35 12 75 18t68 5h51l-7 -73v-599l55 -16v-23q-28 -9 -60 -13t-78 -4q-22 0 -47.5 2.5t-44.5 6.5v20q19 8 35.5 24.5t16.5 36.5zM214 750v1004.4h994.905v-1004.4h-994.905zM490.802 982.514l223.023 223.023l221.442 -223.023l58.5234 58.5234
l-223.023 221.442l223.023 223.023l-58.5234 58.5234l-221.442 -224.604l-223.023 224.604l-60.1055 -58.5234l224.605 -223.023l-223.023 -219.86z" />
    <glyph glyph-name="Ldot" unicode="&#x13f;" horiz-adv-x="471" 
d="M474 147l-18 -147h-417v25q27 10 42 28.5t15 52.5v478l-63 20v26q37 9 70.5 13t67.5 4t60.5 -2.5t51.5 -7.5v-23q-31 -13 -43.5 -33t-12.5 -55v-454h100q47 0 70.5 13t35.5 39l11 23h30zM460 282q0 -28 -20.5 -50.5t-49.5 -22.5t-48 20.5t-19 48.5t21.5 51.5t52.5 23.5
q26 0 44.5 -20.5t18.5 -50.5z" />
    <glyph glyph-name="ldot" unicode="&#x140;" horiz-adv-x="328" 
d="M93 81v561l-64 29v25q35 12 75 18t68 5h51l-7 -73v-599l55 -16v-23q-28 -9 -60 -13t-78 -4q-22 0 -47.5 2.5t-44.5 6.5v20q19 8 35.5 24.5t16.5 36.5zM381 255q0 -28 -21 -50.5t-49 -22.5q-29 0 -48 20.5t-19 48.5t21.5 51.5t52.5 23.5q26 0 44.5 -20.5t18.5 -50.5z" />
    <glyph glyph-name="Lslash" unicode="&#x141;" horiz-adv-x="471" 
d="M474 147l-18 -147h-417v25q27 10 42 28.5t15 52.5v139l-44 -25l-27 50l71 41v273l-63 20v26q37 9 70.5 13t67.5 4t60.5 -2.5t51.5 -7.5v-23q-31 -13 -43.5 -33t-12.5 -55v-138l117 68l27 -50l-144 -84v-250h100q47 0 70.5 13t35.5 39l11 23h30z" />
    <glyph glyph-name="lslash" unicode="&#x142;" horiz-adv-x="294" 
d="M92 81v205l-72 -42l-28 50l100 58v290l-64 29v25q35 12 75 18t68 5h51l-7 -73v-222l75 44l28 -51l-103 -60v-310l55 -16v-23q-28 -9 -60 -13t-78 -4q-22 0 -47.5 2.5t-44.5 6.5v20q19 8 35.5 24.5t16.5 36.5z" />
    <glyph glyph-name="Nacute" unicode="&#x143;" horiz-adv-x="645" 
d="M611 638v-22q-30 -13 -42 -33t-12 -63v-520l-91 -11l-289 486l-1 -1v-422l61 -19v-26q-22 -8 -47 -12.5t-53 -4.5q-30 0 -53.5 2.5t-44.5 7.5v23q30 10 43.5 31.5t13.5 60.5v466l-59 22v33q34 4 74.5 5.5t74.5 1.5h42l248 -417l1 1v359l-63 19v27q28 7 54.5 11.5
t54.5 4.5q30 0 49 -2.5t39 -7.5zM454 808q0 -40 -59 -89.5t-94 -49.5l-13 8q25 31 49 82.5t31 96.5q49 0 67.5 -12.5t18.5 -35.5z" />
    <glyph glyph-name="nacute" unicode="&#x144;" horiz-adv-x="580" 
d="M28 432v25q35 11 73.5 17.5t66.5 5.5h39v-56q27 27 67 43t83 16q69 0 109.5 -40t40.5 -125v-271l53 -16v-23q-25 -8 -57 -12.5t-74 -4.5q-22 0 -43 2.5t-39 6.5v20q19 10 28 26.5t9 41.5v188q0 64 -27 92.5t-69 28.5q-22 0 -42.5 -6t-33.5 -14v-330l56 -16v-23
q-29 -9 -60.5 -13t-77.5 -4q-22 0 -47.5 2.5t-45.5 6.5v20q19 8 35.5 24.5t16.5 36.5v322zM373 658q0 -40 -59 -89.5t-94 -49.5l-13 8q25 31 49 82.5t31 96.5q49 0 67.5 -12.5t18.5 -35.5z" />
    <glyph glyph-name="Ncommaaccent" unicode="&#x145;" horiz-adv-x="645" 
d="M611 638v-22q-30 -13 -42 -33t-12 -63v-520l-91 -11l-289 486l-1 -1v-422l61 -19v-26q-22 -8 -47 -12.5t-53 -4.5q-30 0 -53.5 2.5t-44.5 7.5v23q30 10 43.5 31.5t13.5 60.5v466l-59 22v33q34 4 74.5 5.5t74.5 1.5h42l248 -417l1 1v359l-63 19v27q28 7 54.5 11.5
t54.5 4.5q30 0 49 -2.5t39 -7.5zM220 0v1004.4h994.905v-1004.4h-994.905zM496.802 232.514l223.023 223.023l221.442 -223.023l58.5234 58.5234l-223.023 221.442l223.023 223.023l-58.5234 58.5234l-221.442 -224.604l-223.023 224.604l-60.1055 -58.5234
l224.605 -223.023l-223.023 -219.86z" />
    <glyph glyph-name="ncommaaccent" unicode="&#x146;" horiz-adv-x="580" 
d="M28 432v25q35 11 73.5 17.5t66.5 5.5h39v-56q27 27 67 43t83 16q69 0 109.5 -40t40.5 -125v-271l53 -16v-23q-25 -8 -57 -12.5t-74 -4.5q-22 0 -43 2.5t-39 6.5v20q19 10 28 26.5t9 41.5v188q0 64 -27 92.5t-69 28.5q-22 0 -42.5 -6t-33.5 -14v-330l56 -16v-23
q-29 -9 -60.5 -13t-77.5 -4q-22 0 -47.5 2.5t-45.5 6.5v20q19 8 35.5 24.5t16.5 36.5v322zM187 0v1004.4h994.905v-1004.4h-994.905zM463.802 232.514l223.023 223.023l221.442 -223.023l58.5234 58.5234l-223.023 221.442l223.023 223.023l-58.5234 58.5234
l-221.442 -224.604l-223.023 224.604l-60.1055 -58.5234l224.605 -223.023l-223.023 -219.86z" />
    <glyph glyph-name="Ncaron" unicode="&#x147;" horiz-adv-x="645" 
d="M611 638v-22q-30 -13 -42 -33t-12 -63v-520l-91 -11l-289 486l-1 -1v-422l61 -19v-26q-22 -8 -47 -12.5t-53 -4.5q-30 0 -53.5 2.5t-44.5 7.5v23q30 10 43.5 31.5t13.5 60.5v466l-59 22v33q34 4 74.5 5.5t74.5 1.5h42l248 -417l1 1v359l-63 19v27q28 7 54.5 11.5
t54.5 4.5q30 0 49 -2.5t39 -7.5zM310 679l-143 156q18 12 35 19t42 14l97 -117l112 117q16 -7 28 -18t20 -24l-144 -141z" />
    <glyph glyph-name="ncaron" unicode="&#x148;" horiz-adv-x="580" 
d="M28 432v25q35 11 73.5 17.5t66.5 5.5h39v-56q27 27 67 43t83 16q69 0 109.5 -40t40.5 -125v-271l53 -16v-23q-25 -8 -57 -12.5t-74 -4.5q-22 0 -43 2.5t-39 6.5v20q19 10 28 26.5t9 41.5v188q0 64 -27 92.5t-69 28.5q-22 0 -42.5 -6t-33.5 -14v-330l56 -16v-23
q-29 -9 -60.5 -13t-77.5 -4q-22 0 -47.5 2.5t-45.5 6.5v20q19 8 35.5 24.5t16.5 36.5v322zM265 526l-143 156q18 12 35 19t42 14l97 -117l112 117q16 -7 28 -18t20 -24l-144 -141z" />
    <glyph glyph-name="napostrophe" unicode="&#x149;" horiz-adv-x="580" 
d="M201 647q0 -43 -34.5 -85.5t-56.5 -42.5q-5 0 -9.5 1.5t-8.5 5.5q12 21 18.5 45t6.5 49l-33 41q11 19 28 30.5t35 11.5q23 0 38.5 -15t15.5 -41zM28 432v25q35 11 73.5 17.5t66.5 5.5h39v-56q27 27 67 43t83 16q69 0 109.5 -40t40.5 -125v-271l53 -16v-23
q-25 -8 -57 -12.5t-74 -4.5q-22 0 -43 2.5t-39 6.5v20q19 10 28 26.5t9 41.5v188q0 64 -27 92.5t-69 28.5q-22 0 -42.5 -6t-33.5 -14v-330l56 -16v-23q-29 -9 -60.5 -13t-77.5 -4q-22 0 -47.5 2.5t-45.5 6.5v20q19 8 35.5 24.5t16.5 36.5v322z" />
    <glyph glyph-name="Eng" unicode="&#x14a;" horiz-adv-x="645" 
d="M557 520v-498q0 -109 -33 -163.5t-88 -54.5q-19 0 -36.5 3.5t-35.5 10.5v16q31 17 65 55.5t40 101.5l-292 484l-1 -1v-422l61 -19v-26q-22 -8 -47 -12.5t-53 -4.5q-30 0 -53.5 2.5t-44.5 7.5v23q30 10 43.5 31.5t13.5 60.5v466l-59 22v33q34 4 74.5 5.5t74.5 1.5h42
l248 -417l1 1v359l-63 19v27q28 7 54.5 11.5t54.5 4.5q30 0 49 -2.5t39 -7.5v-22q-30 -13 -42 -33t-12 -63z" />
    <glyph glyph-name="eng" unicode="&#x14b;" horiz-adv-x="580" 
d="M384 -45v321q0 64 -27 92.5t-69 28.5q-22 0 -42.5 -6t-33.5 -14v-330l56 -16v-23q-29 -9 -60.5 -13t-77.5 -4q-22 0 -47.5 2.5t-45.5 6.5v20q19 8 35.5 24.5t16.5 36.5v322l-61 29v25q35 11 73.5 17.5t66.5 5.5h39v-56q27 27 67 43t83 16q69 0 109.5 -40t40.5 -125v-337
q0 -129 -37.5 -178t-97.5 -49q-31 0 -53.5 11.5t-30.5 30.5v17q37 0 66.5 36t29.5 106z" />
    <glyph glyph-name="Omacron" unicode="&#x14c;" horiz-adv-x="689" 
d="M651 345q0 -176 -96 -269.5t-223 -93.5q-128 0 -211 85t-83 234q0 160 98.5 256t224.5 96q125 0 207.5 -84t82.5 -224zM505 325q0 129 -48.5 188t-107.5 59q-63 0 -113.5 -63t-50.5 -191t49 -191.5t109 -63.5q59 0 110.5 58t51.5 204zM480 722h-266v74h266v-74z" />
    <glyph glyph-name="omacron" unicode="&#x14d;" horiz-adv-x="559" 
d="M526 257q0 -129 -80 -201.5t-176 -72.5q-104 0 -170.5 64t-66.5 170q0 120 77 196t182 76q103 0 168.5 -64t65.5 -168zM393 249q0 84 -33.5 125.5t-76.5 41.5q-42 0 -79.5 -46t-37.5 -145q0 -83 34.5 -126t75.5 -43q40 0 78.5 44.5t38.5 148.5zM423 570h-266v74h266v-74z
" />
    <glyph glyph-name="Obreve" unicode="&#x14e;" horiz-adv-x="689" 
d="M651 345q0 -176 -96 -269.5t-223 -93.5q-128 0 -211 85t-83 234q0 160 98.5 256t224.5 96q125 0 207.5 -84t82.5 -224zM505 325q0 129 -48.5 188t-107.5 59q-63 0 -113.5 -63t-50.5 -191t49 -191.5t109 -63.5q59 0 110.5 58t51.5 204zM348 685q-50 0 -95 37.5t-76 105.5
q18 11 31.5 18t37.5 12q22 -54 51 -81t59 -27q31 0 58.5 28t49.5 82q16 -7 28 -17.5t20 -24.5q-22 -57 -67.5 -95t-96.5 -38z" />
    <glyph glyph-name="obreve" unicode="&#x14f;" horiz-adv-x="559" 
d="M526 257q0 -129 -80 -201.5t-176 -72.5q-104 0 -170.5 64t-66.5 170q0 120 77 196t182 76q103 0 168.5 -64t65.5 -168zM393 249q0 84 -33.5 125.5t-76.5 41.5q-42 0 -79.5 -46t-37.5 -145q0 -83 34.5 -126t75.5 -43q40 0 78.5 44.5t38.5 148.5zM283 529q-50 0 -95 37.5
t-76 105.5q18 11 31.5 18t37.5 12q22 -54 51 -81t59 -27q31 0 58.5 28t49.5 82q16 -7 28 -17.5t20 -24.5q-22 -57 -67.5 -95t-96.5 -38z" />
    <glyph glyph-name="Ohungarumlaut" unicode="&#x150;" horiz-adv-x="689" 
d="M651 345q0 -176 -96 -269.5t-223 -93.5q-128 0 -211 85t-83 234q0 160 98.5 256t224.5 96q125 0 207.5 -84t82.5 -224zM505 325q0 129 -48.5 188t-107.5 59q-63 0 -113.5 -63t-50.5 -191t49 -191.5t109 -63.5q59 0 110.5 58t51.5 204zM570 803q0 -40 -62 -87t-102 -47
l-12 9q26 28 54 78t38 94q37 0 60.5 -13t23.5 -34zM379 803q0 -40 -62 -87t-102 -47l-12 9q26 28 54.5 78t38.5 94q37 0 60 -13t23 -34z" />
    <glyph glyph-name="ohungarumlaut" unicode="&#x151;" horiz-adv-x="559" 
d="M526 257q0 -129 -80 -201.5t-176 -72.5q-104 0 -170.5 64t-66.5 170q0 120 77 196t182 76q103 0 168.5 -64t65.5 -168zM393 249q0 84 -33.5 125.5t-76.5 41.5q-42 0 -79.5 -46t-37.5 -145q0 -83 34.5 -126t75.5 -43q40 0 78.5 44.5t38.5 148.5zM501 653q0 -40 -62 -87
t-102 -47l-12 9q26 28 54 78t38 94q37 0 60.5 -13t23.5 -34zM310 653q0 -40 -62 -87t-102 -47l-12 9q26 28 54.5 78t38.5 94q37 0 60 -13t23 -34z" />
    <glyph glyph-name="OE" unicode="&#x152;" horiz-adv-x="823" 
d="M431 94v446q-16 14 -36.5 23t-44.5 9q-64 0 -114.5 -63t-50.5 -191q0 -130 49.5 -192.5t107.5 -62.5q26 0 47.5 7.5t41.5 23.5zM453 640h331l-8 -162h-37l-3 19q-6 40 -24.5 55.5t-61.5 15.5h-90v-216h94q31 0 46.5 8.5t21.5 27.5l7 22h34v-196h-34l-4 22q-5 25 -17 37
t-36 12h-112v-215h111q40 0 58.5 12.5t30.5 37.5l10 21h36l-18 -141h-346q-31 -10 -56 -14t-55 -4q-128 0 -210.5 85t-82.5 234q0 157 98 254.5t224 97.5q25 0 48 -3.5t45 -9.5z" />
    <glyph glyph-name="oe" unicode="&#x153;" horiz-adv-x="834" 
d="M691 289q0 72 -24 103.5t-62 31.5q-34 0 -63 -38t-29 -97h178zM393 249q0 84 -33.5 125.5t-76.5 41.5q-42 0 -79.5 -46t-37.5 -145q0 -83 34.5 -126t75.5 -43q40 0 78.5 44.5t38.5 148.5zM806 298q0 -16 -0.5 -32.5t-1.5 -38.5h-289q0 -69 42 -111t103 -42q32 0 70.5 11
t66.5 25q1 -6 2 -14t1 -16q0 -36 -47.5 -65.5t-136.5 -29.5q-57 0 -99 20.5t-68 59.5q-34 -40 -81 -61t-98 -21q-104 0 -170.5 64t-66.5 170q0 120 77 196t182 76q57 0 101.5 -20t72.5 -57q27 36 65.5 55.5t85.5 19.5q87 0 138 -51t51 -138z" />
    <glyph glyph-name="Racute" unicode="&#x154;" horiz-adv-x="600" 
d="M227 243v-191l60 -19v-26q-28 -8 -61.5 -13t-73.5 -5q-29 0 -58.5 3t-54.5 8v23q28 10 42.5 30t14.5 56v472l-63 22v30q56 7 114.5 10.5t128.5 3.5q131 0 189.5 -44t58.5 -125q0 -72 -38.5 -122.5t-101.5 -66.5l128 -170q24 -31 47 -51t52 -35v-22q-22 -12 -48 -18
t-58 -6q-39 0 -66 15t-57 61l-117 180h-38zM390 457q0 59 -34 89.5t-90 30.5q-10 0 -20.5 -1t-19.5 -2v-269h39q51 0 88 37t37 115zM387 808q0 -40 -59 -89.5t-94 -49.5l-13 8q25 31 49 82.5t31 96.5q49 0 67.5 -12.5t18.5 -35.5z" />
    <glyph glyph-name="racute" unicode="&#x155;" horiz-adv-x="367" 
d="M212 47l71 -16v-23q-29 -9 -66.5 -13t-86.5 -4q-22 0 -47.5 2.5t-45.5 6.5v20q19 8 35.5 24.5t16.5 36.5v322l-61 29v25q35 11 73.5 17.5t66.5 5.5h39v-77h2l27 35q19 25 37.5 35.5t43.5 10.5q27 0 40 -12t13 -37q0 -19 -4 -39t-11 -39q-17 10 -32.5 15.5t-31.5 5.5
q-22 0 -41.5 -7.5t-37.5 -22.5v-301zM324 658q0 -40 -59 -89.5t-94 -49.5l-13 8q25 31 49 82.5t31 96.5q49 0 67.5 -12.5t18.5 -35.5z" />
    <glyph glyph-name="Rcommaaccent" unicode="&#x156;" horiz-adv-x="600" 
d="M227 243v-191l60 -19v-26q-28 -8 -61.5 -13t-73.5 -5q-29 0 -58.5 3t-54.5 8v23q28 10 42.5 30t14.5 56v472l-63 22v30q56 7 114.5 10.5t128.5 3.5q131 0 189.5 -44t58.5 -125q0 -72 -38.5 -122.5t-101.5 -66.5l128 -170q24 -31 47 -51t52 -35v-22q-22 -12 -48 -18
t-58 -6q-39 0 -66 15t-57 61l-117 180h-38zM390 457q0 59 -34 89.5t-90 30.5q-10 0 -20.5 -1t-19.5 -2v-269h39q51 0 88 37t37 115zM212 0v1004.4h994.905v-1004.4h-994.905zM488.802 232.514l223.023 223.023l221.442 -223.023l58.5234 58.5234l-223.023 221.442
l223.023 223.023l-58.5234 58.5234l-221.442 -224.604l-223.023 224.604l-60.1055 -58.5234l224.605 -223.023l-223.023 -219.86z" />
    <glyph glyph-name="rcommaaccent" unicode="&#x157;" horiz-adv-x="367" 
d="M212 47l71 -16v-23q-29 -9 -66.5 -13t-86.5 -4q-22 0 -47.5 2.5t-45.5 6.5v20q19 8 35.5 24.5t16.5 36.5v322l-61 29v25q35 11 73.5 17.5t66.5 5.5h39v-77h2l27 35q19 25 37.5 35.5t43.5 10.5q27 0 40 -12t13 -37q0 -19 -4 -39t-11 -39q-17 10 -32.5 15.5t-31.5 5.5
q-22 0 -41.5 -7.5t-37.5 -22.5v-301zM48 0v1004.4h994.905v-1004.4h-994.905zM324.802 232.514l223.023 223.023l221.442 -223.023l58.5234 58.5234l-223.023 221.442l223.023 223.023l-58.5234 58.5234l-221.442 -224.604l-223.023 224.604l-60.1055 -58.5234
l224.605 -223.023l-223.023 -219.86z" />
    <glyph glyph-name="Rcaron" unicode="&#x158;" horiz-adv-x="600" 
d="M227 243v-191l60 -19v-26q-28 -8 -61.5 -13t-73.5 -5q-29 0 -58.5 3t-54.5 8v23q28 10 42.5 30t14.5 56v472l-63 22v30q56 7 114.5 10.5t128.5 3.5q131 0 189.5 -44t58.5 -125q0 -72 -38.5 -122.5t-101.5 -66.5l128 -170q24 -31 47 -51t52 -35v-22q-22 -12 -48 -18
t-58 -6q-39 0 -66 15t-57 61l-117 180h-38zM390 457q0 59 -34 89.5t-90 30.5q-10 0 -20.5 -1t-19.5 -2v-269h39q51 0 88 37t37 115zM277 679l-143 156q18 12 35 19t42 14l97 -117l112 117q16 -7 28 -18t20 -24l-144 -141z" />
    <glyph glyph-name="rcaron" unicode="&#x159;" horiz-adv-x="367" 
d="M212 47l71 -16v-23q-29 -9 -66.5 -13t-86.5 -4q-22 0 -47.5 2.5t-45.5 6.5v20q19 8 35.5 24.5t16.5 36.5v322l-61 29v25q35 11 73.5 17.5t66.5 5.5h39v-77h2l27 35q19 25 37.5 35.5t43.5 10.5q27 0 40 -12t13 -37q0 -19 -4 -39t-11 -39q-17 10 -32.5 15.5t-31.5 5.5
q-22 0 -41.5 -7.5t-37.5 -22.5v-301zM186 526l-143 156q18 12 35 19t42 14l97 -117l112 117q16 -7 28 -18t20 -24l-144 -141z" />
    <glyph glyph-name="Sacute" unicode="&#x15a;" horiz-adv-x="490" 
d="M280 653q55 0 88.5 -5.5t67.5 -20.5l-11 -162h-37l-5 26q-8 43 -33.5 63t-79.5 20q-53 0 -81.5 -24t-28.5 -55q0 -27 17 -49t60 -42l102 -48q63 -30 91 -68t28 -95q0 -84 -74 -147t-178 -63q-54 0 -94.5 7t-75.5 20v164h37l7 -30q10 -43 40.5 -62.5t92.5 -19.5
q54 0 86.5 23.5t32.5 60.5q0 31 -18 52.5t-65 46.5l-100 52q-51 26 -77.5 67.5t-26.5 97.5q0 81 67.5 136t167.5 55zM351 808q0 -40 -59 -89.5t-94 -49.5l-13 8q25 31 49 82.5t31 96.5q49 0 67.5 -12.5t18.5 -35.5z" />
    <glyph glyph-name="sacute" unicode="&#x15b;" horiz-adv-x="405" 
d="M381 147q0 -66 -58 -115t-151 -49q-75 0 -108.5 22t-33.5 63q0 13 3 28t7 25q38 -30 76 -45t75 -15q38 0 57 13t19 35t-16 37t-60 31l-55 20q-48 17 -73.5 48.5t-25.5 79.5q0 66 53 114.5t146 48.5q67 0 96 -20t29 -54q0 -14 -2 -27t-6 -28q-25 21 -59.5 34t-64.5 13
q-46 0 -66.5 -14.5t-20.5 -33.5t14 -33.5t57 -28.5l61 -20q58 -19 82.5 -50.5t24.5 -78.5zM314 658q0 -40 -59 -89.5t-94 -49.5l-13 8q25 31 49 82.5t31 96.5q49 0 67.5 -12.5t18.5 -35.5z" />
    <glyph glyph-name="Scircumflex" unicode="&#x15c;" horiz-adv-x="490" 
d="M280 653q55 0 88.5 -5.5t67.5 -20.5l-11 -162h-37l-5 26q-8 43 -33.5 63t-79.5 20q-53 0 -81.5 -24t-28.5 -55q0 -27 17 -49t60 -42l102 -48q63 -30 91 -68t28 -95q0 -84 -74 -147t-178 -63q-54 0 -94.5 7t-75.5 20v164h37l7 -30q10 -43 40.5 -62.5t92.5 -19.5
q54 0 86.5 23.5t32.5 60.5q0 31 -18 52.5t-65 46.5l-100 52q-51 26 -77.5 67.5t-26.5 97.5q0 81 67.5 136t167.5 55zM234 852l45 8l144 -161l-16 -17q-31 0 -56.5 10t-49.5 34q-14 13 -26 29.5t-21 33.5l-113 -108q-16 7 -27.5 18t-19.5 24z" />
    <glyph glyph-name="scircumflex" unicode="&#x15d;" horiz-adv-x="405" 
d="M381 147q0 -66 -58 -115t-151 -49q-75 0 -108.5 22t-33.5 63q0 13 3 28t7 25q38 -30 76 -45t75 -15q38 0 57 13t19 35t-16 37t-60 31l-55 20q-48 17 -73.5 48.5t-25.5 79.5q0 66 53 114.5t146 48.5q67 0 96 -20t29 -54q0 -14 -2 -27t-6 -28q-25 21 -59.5 34t-64.5 13
q-46 0 -66.5 -14.5t-20.5 -33.5t14 -33.5t57 -28.5l61 -20q58 -19 82.5 -50.5t24.5 -78.5zM194 700l45 8l144 -161l-16 -17q-31 0 -56.5 10t-49.5 34q-14 13 -26 29.5t-21 33.5l-113 -108q-16 7 -27.5 18t-19.5 24z" />
    <glyph glyph-name="uni015E" unicode="&#x15e;" horiz-adv-x="490" 
 />
    <glyph glyph-name="uni015F" unicode="&#x15f;" horiz-adv-x="405" 
d="M0 0v-840.375h-1135.03v840.375h1135.03zM-315.788 -194.544l-254.436 -186.603l-252.63 186.603l-66.7676 -48.9658l254.436 -185.28l-254.436 -186.603l66.7676 -48.9668l252.63 187.926l254.436 -187.926l68.5713 48.9668l-256.24 186.603l254.436 183.956z" />
    <glyph glyph-name="Scaron" unicode="&#x160;" horiz-adv-x="490" 
d="M280 653q55 0 88.5 -5.5t67.5 -20.5l-11 -162h-37l-5 26q-8 43 -33.5 63t-79.5 20q-53 0 -81.5 -24t-28.5 -55q0 -27 17 -49t60 -42l102 -48q63 -30 91 -68t28 -95q0 -84 -74 -147t-178 -63q-54 0 -94.5 7t-75.5 20v164h37l7 -30q10 -43 40.5 -62.5t92.5 -19.5
q54 0 86.5 23.5t32.5 60.5q0 31 -18 52.5t-65 46.5l-100 52q-51 26 -77.5 67.5t-26.5 97.5q0 81 67.5 136t167.5 55zM232 676l-143 156q18 12 35 19t42 14l97 -117l112 117q16 -7 28 -18t20 -24l-144 -141z" />
    <glyph glyph-name="scaron" unicode="&#x161;" horiz-adv-x="405" 
d="M381 147q0 -66 -58 -115t-151 -49q-75 0 -108.5 22t-33.5 63q0 13 3 28t7 25q38 -30 76 -45t75 -15q38 0 57 13t19 35t-16 37t-60 31l-55 20q-48 17 -73.5 48.5t-25.5 79.5q0 66 53 114.5t146 48.5q67 0 96 -20t29 -54q0 -14 -2 -27t-6 -28q-25 21 -59.5 34t-64.5 13
q-46 0 -66.5 -14.5t-20.5 -33.5t14 -33.5t57 -28.5l61 -20q58 -19 82.5 -50.5t24.5 -78.5zM180 526l-143 156q18 12 35 19t42 14l97 -117l112 117q16 -7 28 -18t20 -24l-144 -141z" />
    <glyph glyph-name="uni0162" unicode="&#x162;" horiz-adv-x="496" 
 />
    <glyph glyph-name="uni0163" unicode="&#x163;" horiz-adv-x="332" 
 />
    <glyph glyph-name="Tcaron" unicode="&#x164;" horiz-adv-x="496" 
d="M-3 479v164q57 -1 135.5 -2.5t128.5 -1.5q65 0 122.5 2t115.5 7v-169h-37l-5 25q-6 33 -21.5 51t-44.5 18h-77v-521l72 -19v-26q-34 -8 -67 -12.5t-76 -4.5q-38 0 -66 2t-51 8v23q26 10 41.5 30t15.5 58v462h-67q-31 0 -49.5 -18t-26.5 -51l-6 -25h-37zM223 679l-143 156
q18 12 35 19t42 14l97 -117l112 117q16 -7 28 -18t20 -24l-144 -141z" />
    <glyph glyph-name="tcaron" unicode="&#x165;" horiz-adv-x="342" 
d="M332 91l8 -10q-4 -46 -34.5 -70t-88.5 -24q-69 0 -104.5 34t-35.5 106q0 27 1 71t2 75l4 128h-50v43l135 109l45 4l-5 -92h118l-8 -66h-115l-2 -117q-1 -29 -1 -57v-53q0 -54 17 -76.5t48 -22.5q18 0 34.5 5t31.5 13zM231 753v1004.4h994.905v-1004.4h-994.905z
M507.802 985.514l223.023 223.023l221.442 -223.023l58.5234 58.5234l-223.023 221.442l223.023 223.023l-58.5234 58.5234l-221.442 -224.604l-223.023 224.604l-60.1055 -58.5234l224.605 -223.023l-223.023 -219.86z" />
    <glyph glyph-name="Tbar" unicode="&#x166;" horiz-adv-x="496" 
d="M-3 479v164q57 -1 135.5 -2.5t128.5 -1.5q65 0 122.5 2t115.5 7v-169h-37l-5 25q-6 33 -21.5 51t-44.5 18h-77v-225l24 1q25 1 47.5 1.5t47.5 2.5q1 -4 2.5 -13.5t1.5 -15.5q0 -22 -18.5 -29t-87.5 -8l-17 -1v-234l72 -19v-26q-34 -8 -67 -12.5t-76 -4.5q-38 0 -66 2
t-51 8v23q26 10 41.5 30t15.5 58v172h-27q-25 -1 -47.5 -1.5t-47.5 -2.5q-1 4 -2 12t-1 14q0 19 18 29.5t87 10.5h20v228h-67q-31 0 -49.5 -18t-26.5 -51l-6 -25h-37z" />
    <glyph glyph-name="tbar" unicode="&#x167;" horiz-adv-x="332" 
d="M332 91l8 -10q-4 -46 -34.5 -70t-88.5 -24q-69 0 -104.5 34t-35.5 106q0 19 0.5 48.5t1.5 57.5h-53v57h54l4 111h-50v43l135 109l45 4l-5 -92h118l-8 -66h-115l-2 -109h103l-10 -57h-94v-61q0 -54 17 -76.5t48 -22.5q18 0 34.5 5t31.5 13z" />
    <glyph glyph-name="Utilde" unicode="&#x168;" horiz-adv-x="666" 
d="M639 636v-22q-31 -13 -43.5 -32.5t-12.5 -53.5v-277q0 -131 -70 -198.5t-177 -67.5q-128 0 -190.5 53t-62.5 152v395l-62 19v26q34 8 69 12.5t70 4.5q34 0 58.5 -2t52.5 -8v-23q-31 -12 -44 -32.5t-13 -59.5v-310q0 -68 36.5 -105t100.5 -37q61 0 99 40t38 126v348
l-62 20v26q31 9 59 13.5t56 4.5t51.5 -3t46.5 -9zM245 818q16 0 33.5 -3t36.5 -8l61 -15q11 -4 24 -6t24 -2q17 0 32.5 15.5t15.5 33.5q14 -13 22.5 -29.5t8.5 -35.5q0 -28 -23 -46t-52 -18q-17 0 -35 2.5t-33 6.5l-62 17q-14 4 -27 6t-23 2q-18 0 -31.5 -13t-13.5 -29
q-13 12 -21.5 28t-8.5 34q0 28 19 44t53 16z" />
    <glyph glyph-name="utilde" unicode="&#x169;" horiz-adv-x="560" 
d="M360 405l-55 29v24q35 12 71 18t64 6h51l-8 -73v-318q7 -13 17.5 -28t22.5 -27q-14 -13 -44.5 -29t-58.5 -25q-15 10 -29.5 26t-23.5 32q-22 -22 -62 -37.5t-83 -15.5q-72 0 -110.5 38.5t-38.5 128.5v251l-57 29v24q35 12 72 18t65 6h51l-8 -73v-213q0 -70 23.5 -99
t65.5 -29q21 0 41 6t34 13v318zM183 661q16 0 33.5 -3t36.5 -8l61 -15q11 -4 24 -6t24 -2q17 0 32.5 15.5t15.5 33.5q14 -13 22.5 -29.5t8.5 -35.5q0 -28 -23 -46t-52 -18q-17 0 -35 2.5t-33 6.5l-62 17q-14 4 -27 6t-23 2q-18 0 -31.5 -13t-13.5 -29q-13 12 -21.5 28
t-8.5 34q0 28 19 44t53 16z" />
    <glyph glyph-name="Umacron" unicode="&#x16a;" horiz-adv-x="666" 
d="M639 636v-22q-31 -13 -43.5 -32.5t-12.5 -53.5v-277q0 -131 -70 -198.5t-177 -67.5q-128 0 -190.5 53t-62.5 152v395l-62 19v26q34 8 69 12.5t70 4.5q34 0 58.5 -2t52.5 -8v-23q-31 -12 -44 -32.5t-13 -59.5v-310q0 -68 36.5 -105t100.5 -37q61 0 99 40t38 126v348
l-62 20v26q31 9 59 13.5t56 4.5t51.5 -3t46.5 -9zM469 722h-266v74h266v-74z" />
    <glyph glyph-name="umacron" unicode="&#x16b;" horiz-adv-x="560" 
d="M360 405l-55 29v24q35 12 71 18t64 6h51l-8 -73v-318q7 -13 17.5 -28t22.5 -27q-14 -13 -44.5 -29t-58.5 -25q-15 10 -29.5 26t-23.5 32q-22 -22 -62 -37.5t-83 -15.5q-72 0 -110.5 38.5t-38.5 128.5v251l-57 29v24q35 12 72 18t65 6h51l-8 -73v-213q0 -70 23.5 -99
t65.5 -29q21 0 41 6t34 13v318zM409 570h-266v74h266v-74z" />
    <glyph glyph-name="Ubreve" unicode="&#x16c;" horiz-adv-x="666" 
d="M639 636v-22q-31 -13 -43.5 -32.5t-12.5 -53.5v-277q0 -131 -70 -198.5t-177 -67.5q-128 0 -190.5 53t-62.5 152v395l-62 19v26q34 8 69 12.5t70 4.5q34 0 58.5 -2t52.5 -8v-23q-31 -12 -44 -32.5t-13 -59.5v-310q0 -68 36.5 -105t100.5 -37q61 0 99 40t38 126v348
l-62 20v26q31 9 59 13.5t56 4.5t51.5 -3t46.5 -9zM337 681q-50 0 -95 37.5t-76 105.5q18 11 31.5 18t37.5 12q22 -54 51 -81t59 -27q31 0 58.5 28t49.5 82q16 -7 28 -17.5t20 -24.5q-22 -57 -67.5 -95t-96.5 -38z" />
    <glyph glyph-name="ubreve" unicode="&#x16d;" horiz-adv-x="560" 
d="M360 405l-55 29v24q35 12 71 18t64 6h51l-8 -73v-318q7 -13 17.5 -28t22.5 -27q-14 -13 -44.5 -29t-58.5 -25q-15 10 -29.5 26t-23.5 32q-22 -22 -62 -37.5t-83 -15.5q-72 0 -110.5 38.5t-38.5 128.5v251l-57 29v24q35 12 72 18t65 6h51l-8 -73v-213q0 -70 23.5 -99
t65.5 -29q21 0 41 6t34 13v318zM280 529q-50 0 -95 37.5t-76 105.5q18 11 31.5 18t37.5 12q22 -54 51 -81t59 -27q31 0 58.5 28t49.5 82q16 -7 28 -17.5t20 -24.5q-22 -57 -67.5 -95t-96.5 -38z" />
    <glyph glyph-name="Uring" unicode="&#x16e;" horiz-adv-x="666" 
d="M639 636v-22q-31 -13 -43.5 -32.5t-12.5 -53.5v-277q0 -131 -70 -198.5t-177 -67.5q-128 0 -190.5 53t-62.5 152v395l-62 19v26q34 8 69 12.5t70 4.5q34 0 58.5 -2t52.5 -8v-23q-31 -12 -44 -32.5t-13 -59.5v-310q0 -68 36.5 -105t100.5 -37q61 0 99 40t38 126v348
l-62 20v26q31 9 59 13.5t56 4.5t51.5 -3t46.5 -9zM340 876q42 0 69.5 -26t27.5 -70q0 -40 -28.5 -67.5t-67.5 -27.5q-40 0 -67.5 25t-27.5 68q0 42 28 70t66 28zM340 834q-21 0 -33.5 -15.5t-12.5 -40.5q0 -24 14 -38t33 -14q22 0 34.5 14t12.5 38q0 26 -13.5 41t-34.5 15z
" />
    <glyph glyph-name="uring" unicode="&#x16f;" horiz-adv-x="560" 
d="M360 405l-55 29v24q35 12 71 18t64 6h51l-8 -73v-318q7 -13 17.5 -28t22.5 -27q-14 -13 -44.5 -29t-58.5 -25q-15 10 -29.5 26t-23.5 32q-22 -22 -62 -37.5t-83 -15.5q-72 0 -110.5 38.5t-38.5 128.5v251l-57 29v24q35 12 72 18t65 6h51l-8 -73v-213q0 -70 23.5 -99
t65.5 -29q21 0 41 6t34 13v318zM276 719q42 0 69.5 -26t27.5 -70q0 -40 -28.5 -67.5t-67.5 -27.5q-40 0 -67.5 25t-27.5 68q0 42 28 70t66 28zM276 677q-21 0 -33.5 -15.5t-12.5 -40.5q0 -24 14 -38t33 -14q22 0 34.5 14t12.5 38q0 26 -13.5 41t-34.5 15z" />
    <glyph glyph-name="Uhungarumlaut" unicode="&#x170;" horiz-adv-x="666" 
d="M639 636v-22q-31 -13 -43.5 -32.5t-12.5 -53.5v-277q0 -131 -70 -198.5t-177 -67.5q-128 0 -190.5 53t-62.5 152v395l-62 19v26q34 8 69 12.5t70 4.5q34 0 58.5 -2t52.5 -8v-23q-31 -12 -44 -32.5t-13 -59.5v-310q0 -68 36.5 -105t100.5 -37q61 0 99 40t38 126v348
l-62 20v26q31 9 59 13.5t56 4.5t51.5 -3t46.5 -9zM568 803q0 -40 -62 -87t-102 -47l-12 9q26 28 54 78t38 94q37 0 60.5 -13t23.5 -34zM377 803q0 -40 -62 -87t-102 -47l-12 9q26 28 54.5 78t38.5 94q37 0 60 -13t23 -34z" />
    <glyph glyph-name="uhungarumlaut" unicode="&#x171;" horiz-adv-x="560" 
d="M360 405l-55 29v24q35 12 71 18t64 6h51l-8 -73v-318q7 -13 17.5 -28t22.5 -27q-14 -13 -44.5 -29t-58.5 -25q-15 10 -29.5 26t-23.5 32q-22 -22 -62 -37.5t-83 -15.5q-72 0 -110.5 38.5t-38.5 128.5v251l-57 29v24q35 12 72 18t65 6h51l-8 -73v-213q0 -70 23.5 -99
t65.5 -29q21 0 41 6t34 13v318zM499 655q0 -40 -62 -87t-102 -47l-12 9q26 28 54 78t38 94q37 0 60.5 -13t23.5 -34zM308 655q0 -40 -62 -87t-102 -47l-12 9q26 28 54.5 78t38.5 94q37 0 60 -13t23 -34z" />
    <glyph glyph-name="Uogonek" unicode="&#x172;" horiz-adv-x="666" 
d="M639 636v-22q-31 -13 -43.5 -32.5t-12.5 -53.5v-277q0 -104 -45.5 -168.5t-120.5 -85.5l-40 -53q-10 -12 -17.5 -28.5t-7.5 -31.5q0 -23 13.5 -36t35.5 -13q20 0 40 5t39 13q0 -32 -25.5 -53t-72.5 -21q-49 0 -78 23.5t-29 66.5q0 25 14.5 48t38.5 42l31 27q-5 -1 -11 -1
h-12q-128 0 -190.5 53t-62.5 152v395l-62 19v26q34 8 69 12.5t70 4.5q34 0 58.5 -2t52.5 -8v-23q-31 -12 -44 -32.5t-13 -59.5v-310q0 -68 36.5 -105t100.5 -37q61 0 99 40t38 126v348l-62 20v26q31 9 59 13.5t56 4.5t51.5 -3t46.5 -9z" />
    <glyph glyph-name="uogonek" unicode="&#x173;" horiz-adv-x="560" 
d="M360 405l-55 29v24q35 12 71 18t64 6h51l-8 -73v-318q7 -13 17.5 -28t22.5 -27q-9 -8 -25.5 -18t-34.5 -18l-43 -56q-10 -12 -17.5 -28.5t-7.5 -31.5q0 -23 13.5 -36t35.5 -13q20 0 40 5t39 13q0 -32 -25.5 -53t-72.5 -21q-49 0 -78 23.5t-29 66.5q0 25 14.5 48t38.5 42
l37 32q-12 10 -23 23t-18 26q-22 -22 -62 -37.5t-83 -15.5q-72 0 -110.5 38.5t-38.5 128.5v251l-57 29v24q35 12 72 18t65 6h51l-8 -73v-213q0 -70 23.5 -99t65.5 -29q21 0 41 6t34 13v318z" />
    <glyph glyph-name="Wcircumflex" unicode="&#x174;" horiz-adv-x="832" 
d="M834 637v-23q-22 -11 -34 -26.5t-19 -40.5l-157 -553l-84 -4l-125 498h-1l-117 -494l-84 -4l-178 595l-56 19v27q28 8 60 12t63 4q35 0 62.5 -2t52.5 -7v-23q-22 -6 -29.5 -19t-1.5 -38l93 -366h1l87 395l-44 17v26q29 9 56 13t59 4q28 0 55 -2.5t46 -7.5v-23
q-14 -7 -18.5 -19.5t0.5 -34.5l90 -367h1l82 392l-57 19v26q33 9 61 13t56 4q25 0 43.5 -2t36.5 -8zM401 852l45 8l144 -161l-16 -17q-31 0 -56.5 10t-49.5 34q-14 13 -26 29.5t-21 33.5l-113 -108q-16 7 -27.5 18t-19.5 24z" />
    <glyph glyph-name="wcircumflex" unicode="&#x175;" horiz-adv-x="681" 
d="M-21 480h225v-30l-46 -23l71 -286h1l83 285l-43 22v32h188v-30l-26 -20l74 -288h1l85 278l-50 28v32h167v-30l-27 -22l-171 -437l-59 -3l-107 344h-1l-104 -341l-65 -3l-153 429l-43 31v32zM315 700l45 8l144 -161l-16 -17q-31 0 -56.5 10t-49.5 34q-14 13 -26 29.5
t-21 33.5l-113 -108q-16 7 -27.5 18t-19.5 24z" />
    <glyph glyph-name="Ycircumflex" unicode="&#x176;" 
d="M206 637v-23q-19 -7 -26 -21.5t4 -36.5l102 -204h2l110 234l-51 18v26q28 8 55 12.5t56 4.5q28 0 45 -2.5t37 -7.5v-23q-19 -7 -30 -20t-27 -41l-151 -271v-230l62 -19v-26q-31 -8 -62 -12t-77 -4q-36 0 -61.5 2t-49.5 7v23q25 7 41 24t16 48v161l-172 330l-49 18v26
q27 8 58 12.5t60 4.5q34 0 57 -2.5t51 -7.5zM251 852l45 8l144 -161l-16 -17q-31 0 -56.5 10t-49.5 34q-14 13 -26 29.5t-21 33.5l-113 -108q-16 7 -27.5 18t-19.5 24z" />
    <glyph glyph-name="ycircumflex" unicode="&#x177;" horiz-adv-x="418" 
d="M-29 480h228v-30l-47 -26l96 -269h1l82 267l-50 26v32h162v-30l-27 -25l-143 -386q-63 -172 -120 -228.5t-98 -56.5q-37 0 -54.5 21.5t-17.5 74.5q13 -3 26.5 -4.5t27.5 -1.5q28 0 70 37t67 111l12 35l-171 392l-44 29v32zM197 700l45 8l144 -161l-16 -17q-31 0 -56.5 10
t-49.5 34q-14 13 -26 29.5t-21 33.5l-113 -108q-16 7 -27.5 18t-19.5 24z" />
    <glyph glyph-name="Ydieresis" unicode="&#x178;" 
d="M206 637v-23q-19 -7 -26 -21.5t4 -36.5l102 -204h2l110 234l-51 18v26q28 8 55 12.5t56 4.5q28 0 45 -2.5t37 -7.5v-23q-19 -7 -30 -20t-27 -41l-151 -271v-230l62 -19v-26q-31 -8 -62 -12t-77 -4q-36 0 -61.5 2t-49.5 7v23q25 7 41 24t16 48v161l-172 330l-49 18v26
q27 8 58 12.5t60 4.5q34 0 57 -2.5t51 -7.5zM416 738q0 -24 -16 -40t-38 -16q-24 0 -38 15t-14 38t15.5 40.5t39.5 17.5q22 0 36.5 -15t14.5 -40zM244 738q0 -24 -16 -40t-38 -16q-24 0 -38 15t-14 38t15.5 40.5t39.5 17.5q22 0 36.5 -15t14.5 -40z" />
    <glyph glyph-name="Zacute" unicode="&#x179;" horiz-adv-x="501" 
d="M480 640l8 -21l-296 -541h151q46 0 67.5 15.5t33.5 52.5l8 25h38l-14 -171h-442l-8 19l294 545h-156q-29 0 -49 -16.5t-31 -50.5l-7 -22h-40l14 165h429zM374 808q0 -40 -59 -89.5t-94 -49.5l-13 8q25 31 49 82.5t31 96.5q49 0 67.5 -12.5t18.5 -35.5z" />
    <glyph glyph-name="zacute" unicode="&#x17a;" horiz-adv-x="418" 
d="M387 480l11 -25l-217 -384h96q34 0 52 10.5t28 32.5l13 29h32l-16 -143h-353l-11 22l222 387h-95q-29 0 -45 -10.5t-27 -35.5l-10 -22h-32l13 139h339zM321 658q0 -40 -59 -89.5t-94 -49.5l-13 8q25 31 49 82.5t31 96.5q49 0 67.5 -12.5t18.5 -35.5z" />
    <glyph glyph-name="Zdotaccent" unicode="&#x17b;" horiz-adv-x="501" 
d="M480 640l8 -21l-296 -541h151q46 0 67.5 15.5t33.5 52.5l8 25h38l-14 -171h-442l-8 19l294 545h-156q-29 0 -49 -16.5t-31 -50.5l-7 -22h-40l14 165h429zM313 764q0 -21 -17 -38.5t-38 -17.5q-24 0 -38 15t-14 38q0 21 16.5 39.5t40.5 18.5q22 0 36 -16t14 -39z" />
    <glyph glyph-name="zdotaccent" unicode="&#x17c;" horiz-adv-x="418" 
d="M387 480l11 -25l-217 -384h96q34 0 52 10.5t28 32.5l13 29h32l-16 -143h-353l-11 22l222 387h-95q-29 0 -45 -10.5t-27 -35.5l-10 -22h-32l13 139h339zM279 607q0 -21 -17 -38.5t-38 -17.5q-24 0 -38 15t-14 38q0 21 16.5 39.5t40.5 18.5q22 0 36 -16t14 -39z" />
    <glyph glyph-name="Zcaron" unicode="&#x17d;" horiz-adv-x="501" 
d="M480 640l8 -21l-296 -541h151q46 0 67.5 15.5t33.5 52.5l8 25h38l-14 -171h-442l-8 19l294 545h-156q-29 0 -49 -16.5t-31 -50.5l-7 -22h-40l14 165h429zM240 676l-143 156q18 12 35 19t42 14l97 -117l112 117q16 -7 28 -18t20 -24l-144 -141z" />
    <glyph glyph-name="zcaron" unicode="&#x17e;" horiz-adv-x="418" 
d="M387 480l11 -25l-217 -384h96q34 0 52 10.5t28 32.5l13 29h32l-16 -143h-353l-11 22l222 387h-95q-29 0 -45 -10.5t-27 -35.5l-10 -22h-32l13 139h339zM192 527l-143 156q18 12 35 19t42 14l97 -117l112 117q16 -7 28 -18t20 -24l-144 -141z" />
    <glyph glyph-name="florin" unicode="&#x192;" 
d="M513 602q0 -13 -3 -26.5t-10 -26.5q-28 20 -56 29.5t-54 9.5q-30 0 -51.5 -24t-23.5 -67l-6 -150h161l-9 -66h-154l-13 -316q-4 -85 -43.5 -125.5t-88.5 -40.5q-25 0 -52.5 7.5t-43.5 17.5v20q44 12 73.5 40.5t31.5 72.5l16 324h-115l10 66h108l6 147q3 72 58.5 117.5
t147.5 45.5q63 0 87 -14t24 -41z" />
    <glyph glyph-name="uni0218" unicode="&#x218;" horiz-adv-x="490" 
d="M-126 24v369.978h366.481v-369.978h-366.481zM-24.0381 109.648l82.1533 82.1523l81.5693 -82.1523l21.5576 21.5576l-82.1523 81.5693l82.1523 82.1533l-21.5576 21.5576l-81.5693 -82.7354l-82.1533 82.7354l-22.1396 -21.5576l82.7344 -82.1533l-82.1523 -80.9863z
M18209 342v635h629v-635h-629zM18384 489l141 141l140 -141l37 37l-141 140l141 141l-37 37l-140 -142l-141 142l-38 -37l142 -141l-141 -139zM0 0v-496.521h-871.594v496.521h871.594zM-242.494 -114.942l-195.381 -110.251l-193.996 110.251l-51.2695 -28.9307
l195.381 -109.47l-195.381 -110.251l51.2695 -28.9307l193.996 111.032l195.381 -111.032l52.6562 28.9307l-196.768 110.251l195.382 108.688z" />
    <glyph glyph-name="uni0219" unicode="&#x219;" horiz-adv-x="405" 
d="M0 0l-504.155 372.497l-913.632 51.0986l504.155 -372.497zM-370.9 100.448l-316.75 94.166l-91.4062 -71.3379l-83.1191 24.71l93.6523 70.6709l-316.751 94.166l24.3672 18.6992l316.093 -94.6719l92.0635 71.8438l84.5723 -24.792l-94.3115 -71.1758l315.163 -92.9932
zM0 0v-314.555h-311.582v314.555h311.582zM-86.6885 -72.8184l-69.8457 -69.8457l-69.3506 69.8457l-18.3281 -18.3281l69.8457 -69.3506l-69.8457 -69.8457l18.3281 -18.3291l69.3506 70.3418l69.8457 -70.3418l18.8242 18.3291l-70.3418 69.8457l69.8467 68.8555z" />
    <glyph glyph-name="uni021A" unicode="&#x21a;" horiz-adv-x="496" 
d="M-3 479v164q57 -1 135.5 -2.5t128.5 -1.5q65 0 122.5 2t115.5 7v-169h-37l-5 25q-6 33 -21.5 51t-44.5 18h-77v-521l72 -19v-26q-34 -8 -67 -12.5t-76 -4.5q-38 0 -66 2t-51 8v23q26 10 41.5 30t15.5 58v462h-67q-31 0 -49.5 -18t-26.5 -51l-6 -25h-37zM144 0v1004.4
h994.905v-1004.4h-994.905zM420.802 232.514l223.023 223.023l221.442 -223.023l58.5234 58.5234l-223.023 221.442l223.023 223.023l-58.5234 58.5234l-221.442 -224.604l-223.023 224.604l-60.1055 -58.5234l224.605 -223.023l-223.023 -219.86z" />
    <glyph glyph-name="uni021B" unicode="&#x21b;" horiz-adv-x="332" 
d="M332 91l8 -10q-4 -46 -34.5 -70t-88.5 -24q-69 0 -104.5 34t-35.5 106q0 27 1 71t2 75l4 128h-50v43l135 109l45 4l-5 -92h118l-8 -66h-115l-2 -117q-1 -29 -1 -57v-53q0 -54 17 -76.5t48 -22.5q18 0 34.5 5t31.5 13zM95 0v1004.4h994.905v-1004.4h-994.905z
M371.802 232.514l223.023 223.023l221.442 -223.023l58.5234 58.5234l-223.023 221.442l223.023 223.023l-58.5234 58.5234l-221.442 -224.604l-223.023 224.604l-60.1055 -58.5234l224.605 -223.023l-223.023 -219.86z" />
    <glyph glyph-name="circumflex" unicode="&#x2c6;" horiz-adv-x="450" 
d="M207 700l45 8l144 -161l-16 -17q-31 0 -56.5 10t-49.5 34q-14 13 -26 29.5t-21 33.5l-113 -108q-16 7 -27.5 18t-19.5 24z" />
    <glyph glyph-name="caron" unicode="&#x2c7;" horiz-adv-x="450" 
d="M200 526l-143 156q18 12 35 19t42 14l97 -117l112 117q16 -7 28 -18t20 -24l-144 -141z" />
    <glyph glyph-name="uni02C9" unicode="&#x2c9;" horiz-adv-x="242" 
d="M14 539v64h219v-64h-219z" />
    <glyph glyph-name="breve" unicode="&#x2d8;" horiz-adv-x="450" 
d="M227 529q-50 0 -95 37.5t-76 105.5q18 11 31.5 18t37.5 12q22 -54 51 -81t59 -27q31 0 58.5 28t49.5 82q16 -7 28 -17.5t20 -24.5q-22 -57 -67.5 -95t-96.5 -38z" />
    <glyph glyph-name="dotaccent" unicode="&#x2d9;" horiz-adv-x="450" 
d="M279 607q0 -21 -17 -38.5t-38 -17.5q-24 0 -38 15t-14 38q0 21 16.5 39.5t40.5 18.5q22 0 36 -16t14 -39z" />
    <glyph glyph-name="ring" unicode="&#x2da;" horiz-adv-x="450" 
d="M224 719q42 0 69.5 -26t27.5 -70q0 -40 -28.5 -67.5t-67.5 -27.5q-40 0 -67.5 25t-27.5 68q0 42 28 70t66 28zM224 677q-21 0 -33.5 -15.5t-12.5 -40.5q0 -24 14 -38t33 -14q22 0 34.5 14t12.5 38q0 26 -13.5 41t-34.5 15z" />
    <glyph glyph-name="ogonek" unicode="&#x2db;" horiz-adv-x="270" 
d="M190 6l-48 -62q-10 -12 -17.5 -28.5t-7.5 -31.5q0 -23 13.5 -36t35.5 -13q20 0 40 5t39 13q0 -32 -25.5 -53t-72.5 -21q-49 0 -78 23.5t-29 66.5q0 25 14.5 48t38.5 42l55 47h42z" />
    <glyph glyph-name="tilde" unicode="&#x2dc;" horiz-adv-x="450" 
d="M135 661q16 0 33.5 -3t36.5 -8l61 -15q11 -4 24 -6t24 -2q17 0 32.5 15.5t15.5 33.5q14 -13 22.5 -29.5t8.5 -35.5q0 -28 -23 -46t-52 -18q-17 0 -35 2.5t-33 6.5l-62 17q-14 4 -27 6t-23 2q-18 0 -31.5 -13t-13.5 -29q-13 12 -21.5 28t-8.5 34q0 28 19 44t53 16z" />
    <glyph glyph-name="hungarumlaut" unicode="&#x2dd;" horiz-adv-x="450" 
d="M403 659q0 -40 -62 -87t-102 -47l-12 9q26 28 54 78t38 94q37 0 60.5 -13t23.5 -34zM212 659q0 -40 -62 -87t-102 -47l-12 9q26 28 54.5 78t38.5 94q37 0 60 -13t23 -34z" />
    <glyph glyph-name="uni0394" unicode="&#x394;" horiz-adv-x="582" 
d="M562 0h-542l277 670zM263 463l-173 -419h338z" />
    <glyph glyph-name="uni03A9" unicode="&#x3a9;" horiz-adv-x="689" 
d="M173 78h74v40q-94 15 -151.5 75.5t-57.5 163.5q0 118 97.5 207t225.5 89q122 0 206 -74t84 -178q0 -118 -61.5 -189t-148.5 -93v-41h75h40q44 17 56 42l10 21h36l-22 -141h-251v176q48 13 84 62t36 142q0 96 -48 144t-108 48q-63 0 -113.5 -54.5t-50.5 -144.5
q0 -85 34 -132.5t85 -63.5v-177h-251l-22 141h36l10 -21q12 -25 34 -33.5t62 -8.5z" />
    <glyph glyph-name="uni03BC" unicode="&#x3bc;" horiz-adv-x="553" 
 />
    <glyph glyph-name="pi" unicode="&#x3c0;" horiz-adv-x="596" 
d="M507 350v-303l53 -16v-23q-25 -8 -57 -12.5t-74 -4.5q-22 0 -43 2.5t-39 6.5v20q19 10 28 26.5t9 41.5v304h-172v-345l56 -16v-23q-29 -9 -60.5 -13t-77.5 -4q-22 0 -47.5 2.5t-45.5 6.5v20q19 8 35.5 24.5t16.5 36.5v306l-61 29v25q35 11 73.5 17t66.5 6h286
q27 0 54.5 -3t50.5 -7v-23q-27 -11 -39.5 -27.5t-12.5 -53.5z" />
    <glyph glyph-name="Wgrave" unicode="&#x1e80;" horiz-adv-x="832" 
d="M834 637v-23q-22 -11 -34 -26.5t-19 -40.5l-157 -553l-84 -4l-125 498h-1l-117 -494l-84 -4l-178 595l-56 19v27q28 8 60 12t63 4q35 0 62.5 -2t52.5 -7v-23q-22 -6 -29.5 -19t-1.5 -38l93 -366h1l87 395l-44 17v26q29 9 56 13t59 4q28 0 55 -2.5t46 -7.5v-23
q-14 -7 -18.5 -19.5t0.5 -34.5l90 -367h1l82 392l-57 19v26q33 9 61 13t56 4q25 0 43.5 -2t36.5 -8zM350 808q0 23 18.5 35.5t67.5 12.5q7 -45 31.5 -96.5t49.5 -82.5l-14 -8q-35 0 -94 49.5t-59 89.5z" />
    <glyph glyph-name="wgrave" unicode="&#x1e81;" horiz-adv-x="681" 
d="M-21 480h225v-30l-46 -23l71 -286h1l83 285l-43 22v32h188v-30l-26 -20l74 -288h1l85 278l-50 28v32h167v-30l-27 -22l-171 -437l-59 -3l-107 344h-1l-104 -341l-65 -3l-153 429l-43 31v32zM248 658q0 23 18.5 35.5t67.5 12.5q7 -45 31.5 -96.5t49.5 -82.5l-14 -8
q-35 0 -94 49.5t-59 89.5z" />
    <glyph glyph-name="Wacute" unicode="&#x1e82;" horiz-adv-x="832" 
d="M834 637v-23q-22 -11 -34 -26.5t-19 -40.5l-157 -553l-84 -4l-125 498h-1l-117 -494l-84 -4l-178 595l-56 19v27q28 8 60 12t63 4q35 0 62.5 -2t52.5 -7v-23q-22 -6 -29.5 -19t-1.5 -38l93 -366h1l87 395l-44 17v26q29 9 56 13t59 4q28 0 55 -2.5t46 -7.5v-23
q-14 -7 -18.5 -19.5t0.5 -34.5l90 -367h1l82 392l-57 19v26q33 9 61 13t56 4q25 0 43.5 -2t36.5 -8zM514 808q0 -40 -59 -89.5t-94 -49.5l-13 8q25 31 49 82.5t31 96.5q49 0 67.5 -12.5t18.5 -35.5z" />
    <glyph glyph-name="wacute" unicode="&#x1e83;" horiz-adv-x="681" 
d="M-21 480h225v-30l-46 -23l71 -286h1l83 285l-43 22v32h188v-30l-26 -20l74 -288h1l85 278l-50 28v32h167v-30l-27 -22l-171 -437l-59 -3l-107 344h-1l-104 -341l-65 -3l-153 429l-43 31v32zM415 658q0 -40 -59 -89.5t-94 -49.5l-13 8q25 31 49 82.5t31 96.5
q49 0 67.5 -12.5t18.5 -35.5z" />
    <glyph glyph-name="Wdieresis" unicode="&#x1e84;" horiz-adv-x="832" 
d="M834 637v-23q-22 -11 -34 -26.5t-19 -40.5l-157 -553l-84 -4l-125 498h-1l-117 -494l-84 -4l-178 595l-56 19v27q28 8 60 12t63 4q35 0 62.5 -2t52.5 -7v-23q-22 -6 -29.5 -19t-1.5 -38l93 -366h1l87 395l-44 17v26q29 9 56 13t59 4q28 0 55 -2.5t46 -7.5v-23
q-14 -7 -18.5 -19.5t0.5 -34.5l90 -367h1l82 392l-57 19v26q33 9 61 13t56 4q25 0 43.5 -2t36.5 -8zM564 764q0 -24 -16 -40t-38 -16q-24 0 -38 15t-14 38t15.5 40.5t39.5 17.5q22 0 36.5 -15t14.5 -40zM392 764q0 -24 -16 -40t-38 -16q-24 0 -38 15t-14 38t15.5 40.5
t39.5 17.5q22 0 36.5 -15t14.5 -40z" />
    <glyph glyph-name="wdieresis" unicode="&#x1e85;" horiz-adv-x="681" 
d="M-21 480h225v-30l-46 -23l71 -286h1l83 285l-43 22v32h188v-30l-26 -20l74 -288h1l85 278l-50 28v32h167v-30l-27 -22l-171 -437l-59 -3l-107 344h-1l-104 -341l-65 -3l-153 429l-43 31v32zM475 607q0 -24 -16 -40t-38 -16q-24 0 -38 15t-14 38t15.5 40.5t39.5 17.5
q22 0 36.5 -15t14.5 -40zM303 607q0 -24 -16 -40t-38 -16q-24 0 -38 15t-14 38t15.5 40.5t39.5 17.5q22 0 36.5 -15t14.5 -40z" />
    <glyph glyph-name="Ygrave" unicode="&#x1ef2;" 
d="M206 637v-23q-19 -7 -26 -21.5t4 -36.5l102 -204h2l110 234l-51 18v26q28 8 55 12.5t56 4.5q28 0 45 -2.5t37 -7.5v-23q-19 -7 -30 -20t-27 -41l-151 -271v-230l62 -19v-26q-31 -8 -62 -12t-77 -4q-36 0 -61.5 2t-49.5 7v23q25 7 41 24t16 48v161l-172 330l-49 18v26
q27 8 58 12.5t60 4.5q34 0 57 -2.5t51 -7.5zM188 808q0 23 18.5 35.5t67.5 12.5q7 -45 31.5 -96.5t49.5 -82.5l-14 -8q-35 0 -94 49.5t-59 89.5z" />
    <glyph glyph-name="ygrave" unicode="&#x1ef3;" horiz-adv-x="418" 
d="M-29 480h228v-30l-47 -26l96 -269h1l82 267l-50 26v32h162v-30l-27 -25l-143 -386q-63 -172 -120 -228.5t-98 -56.5q-37 0 -54.5 21.5t-17.5 74.5q13 -3 26.5 -4.5t27.5 -1.5q28 0 70 37t67 111l12 35l-171 392l-44 29v32zM121 658q0 23 18.5 35.5t67.5 12.5
q7 -45 31.5 -96.5t49.5 -82.5l-14 -8q-35 0 -94 49.5t-59 89.5z" />
    <glyph glyph-name="endash" unicode="&#x2013;" horiz-adv-x="500" 
d="M0 258h500v-65h-500v65z" />
    <glyph glyph-name="emdash" unicode="&#x2014;" horiz-adv-x="1000" 
d="M0 258h1000v-65h-1000v65z" />
    <glyph glyph-name="quoteleft" unicode="&#x2018;" horiz-adv-x="262" 
d="M53 511q0 72 45 131t91 76l39 -9q-34 -38 -52 -79t-18 -87l43 -52q-16 -23 -37.5 -36.5t-42.5 -13.5q-29 0 -48.5 18.5t-19.5 51.5z" />
    <glyph glyph-name="quoteright" unicode="&#x2019;" horiz-adv-x="262" 
d="M208 641q0 -72 -45 -131t-91 -76l-39 9q34 38 52 79t18 87l-43 52q16 23 37.5 36.5t42.5 13.5q29 0 48.5 -18.5t19.5 -51.5z" />
    <glyph glyph-name="quotesinglbase" unicode="&#x201a;" horiz-adv-x="262" 
d="M208 64q0 -72 -45 -131t-91 -76l-39 9q34 38 52 79t18 87l-43 52q16 23 37.5 36.5t42.5 13.5q29 0 48.5 -18.5t19.5 -51.5z" />
    <glyph glyph-name="quotedblleft" unicode="&#x201c;" horiz-adv-x="439" 
d="M49 511q0 72 45 131t91 76l39 -9q-34 -38 -52 -79t-18 -87l43 -52q-16 -23 -37.5 -36.5t-42.5 -13.5q-29 0 -48.5 18.5t-19.5 51.5zM230 511q0 72 45 131t91 76l39 -9q-34 -38 -52 -79t-18 -87l43 -52q-16 -23 -37.5 -36.5t-42.5 -13.5q-29 0 -48.5 18.5t-19.5 51.5z" />
    <glyph glyph-name="quotedblright" unicode="&#x201d;" horiz-adv-x="439" 
d="M389 641q0 -72 -45 -131t-91 -76l-39 9q34 38 52 79t18 87l-43 52q16 23 37.5 36.5t42.5 13.5q29 0 48.5 -18.5t19.5 -51.5zM208 641q0 -72 -45 -131t-91 -76l-39 9q34 38 52 79t18 87l-43 52q16 23 37.5 36.5t42.5 13.5q29 0 48.5 -18.5t19.5 -51.5z" />
    <glyph glyph-name="quotedblbase" unicode="&#x201e;" horiz-adv-x="439" 
d="M389 64q0 -72 -45 -131t-91 -76l-39 9q34 38 52 79t18 87l-43 52q16 23 37.5 36.5t42.5 13.5q29 0 48.5 -18.5t19.5 -51.5zM208 64q0 -72 -45 -131t-91 -76l-39 9q34 38 52 79t18 87l-43 52q16 23 37.5 36.5t42.5 13.5q29 0 48.5 -18.5t19.5 -51.5z" />
    <glyph glyph-name="dagger" unicode="&#x2020;" horiz-adv-x="548" 
d="M306 466q41 12 90.5 17.5t89.5 5.5q0 -26 -4.5 -43t-13.5 -36l-162 17v-516q0 -54 -6 -88t-25 -71q-21 35 -27 66.5t-6 85.5v523l-162 -17q-10 19 -13.5 38t-3.5 41q40 0 89 -5.5t90 -17.5v48q0 26 -7 60.5t-19 57.5q20 8 36 11.5t32 3.5q9 0 19.5 -1.5t20.5 -4.5
q-7 -21 -12.5 -56.5t-5.5 -58.5v-60z" />
    <glyph glyph-name="daggerdbl" unicode="&#x2021;" horiz-adv-x="548" 
d="M306 466q41 12 90.5 17.5t89.5 5.5q0 -27 -4.5 -43.5t-13.5 -35.5l-162 17v-70q0 -48 -5.5 -75.5t-26.5 -61.5q-21 34 -26.5 61t-5.5 68v78l-161 -17q-10 19 -14 36.5t-4 42.5q40 0 89 -5.5t90 -17.5v59q0 20 -7 52t-19 55q19 7 33.5 11t30.5 4q12 0 22 -1.5t22 -4.5
q-7 -21 -12.5 -51t-5.5 -51v-73zM242 -64q-41 -11 -90 -17t-89 -6q0 27 4 44t13 35l162 -16v70q0 47 6 74.5t26 61.5q21 -34 26.5 -60.5t5.5 -67.5v-78l162 16q9 -19 13.5 -36.5t4.5 -42.5q-40 0 -89.5 6t-90.5 17v-58q0 -21 7.5 -53t18.5 -55q-19 -7 -33.5 -10.5
t-30.5 -3.5q-12 0 -22 1t-21 4q7 21 12 51.5t5 50.5v73z" />
    <glyph glyph-name="bullet" unicode="&#x2022;" horiz-adv-x="361" 
d="M181 140q-51 0 -86 37t-35 87t35 87t86 37t85.5 -37t34.5 -87t-34.5 -87t-85.5 -37z" />
    <glyph glyph-name="ellipsis" unicode="&#x2026;" horiz-adv-x="696" 
d="M500 62q0 30 21 51t51 21t51 -21t21 -51t-21 -51t-51 -21t-51 21t-21 51zM283 62q0 30 21 51t51 21t51 -21t21 -51t-21 -51t-51 -21t-51 21t-21 51zM66 62q0 30 21 51t51 21t51 -21t21 -51t-21 -51t-51 -21t-51 21t-21 51z" />
    <glyph glyph-name="perthousand" unicode="&#x2030;" horiz-adv-x="1091" 
d="M560 690l43 -24l-431 -718l-42 24zM177 314q-65 0 -105 38t-40 120t44.5 128.5t110.5 46.5q64 0 104 -38t40 -120t-44.5 -128.5t-109.5 -46.5zM180 360q23 0 39 26t16 94q0 73 -13.5 96.5t-38.5 23.5q-23 0 -39 -29t-16 -91q0 -73 15 -96.5t37 -23.5zM905 -11
q-65 0 -105 38t-40 120t44.5 128.5t110.5 46.5q64 0 104 -38t40 -120t-44.5 -128.5t-109.5 -46.5zM553 -11q-65 0 -105 38t-40 120t44.5 128.5t110.5 46.5q64 0 104 -38t40 -120t-44.5 -128.5t-109.5 -46.5zM908 35q23 0 39 26t16 94q0 73 -13.5 96.5t-38.5 23.5
q-23 0 -39 -29t-16 -91q0 -73 15 -96.5t37 -23.5zM556 35q23 0 39 26t16 94q0 73 -13.5 96.5t-38.5 23.5q-23 0 -39 -29t-16 -91q0 -73 15 -96.5t37 -23.5z" />
    <glyph glyph-name="guilsinglleft" unicode="&#x2039;" horiz-adv-x="279" 
d="M266 420q-30 -25 -59.5 -57t-51.5 -60l-32 -44l48 -80q18 -30 39 -55.5t44 -47.5q-14 -5 -30.5 -8.5t-36.5 -3.5q-28 0 -52.5 16.5t-46.5 57.5l-64 115l56 81q42 60 71.5 82.5t52.5 22.5q18 0 33.5 -4.5t28.5 -14.5z" />
    <glyph glyph-name="guilsinglright" unicode="&#x203a;" horiz-adv-x="279" 
d="M14 84q30 25 59 57t51 60l33 44l-48 80q-19 30 -39.5 55.5t-43.5 47.5q14 5 30.5 8.5t36.5 3.5q28 0 52.5 -16.5t46.5 -57.5l64 -115l-56 -81q-42 -60 -71.5 -82.5t-52.5 -22.5q-18 0 -33.5 4.5t-28.5 14.5z" />
    <glyph glyph-name="fraction" unicode="&#x2044;" horiz-adv-x="29" 
d="M250 674l42 -24l-519 -753l-42 24z" />
    <glyph glyph-name="Euro" unicode="&#x20ac;" 
d="M512 623l-9 -160h-34l-5 24q-10 43 -34 65.5t-72 22.5q-49 0 -91.5 -45.5t-56.5 -135.5l232 13l-2 -45l-235 -15v-30v-23.5t1 -22.5l238 14l-2 -45l-230 -15q16 -86 57 -125.5t87 -39.5q48 0 72.5 18t41.5 58l11 25h34l-10 -146q-29 -14 -75.5 -23t-103.5 -9
q-96 0 -168 59t-93 174l-54 -3v47l48 3q-1 10 -1 20v20v17.5t1 17.5l-50 -3v47l56 3q23 122 106 194.5t190 72.5q51 0 86.5 -7t64.5 -22z" />
    <glyph glyph-name="trademark" unicode="&#x2122;" horiz-adv-x="773" 
 />
    <glyph glyph-name="uni2126" unicode="&#x2126;" horiz-adv-x="689" 
d="M173 78h74v40q-94 15 -151.5 75.5t-57.5 163.5q0 118 97.5 207t225.5 89q122 0 206 -74t84 -178q0 -118 -61.5 -189t-148.5 -93v-41h75h40q44 17 56 42l10 21h36l-22 -141h-251v176q48 13 84 62t36 142q0 96 -48 144t-108 48q-63 0 -113.5 -54.5t-50.5 -144.5
q0 -85 34 -132.5t85 -63.5v-177h-251l-22 141h36l10 -21q12 -25 34 -33.5t62 -8.5z" />
    <glyph glyph-name="arrowleft" unicode="&#x2190;" horiz-adv-x="864" 
d="M35 319l241 240l52 -52q-13 -30 -40 -68t-61 -70v-2h602v-96h-602v-2q34 -32 61.5 -70t40.5 -68l-53 -53z" />
    <glyph glyph-name="arrowup" unicode="&#x2191;" horiz-adv-x="591" 
d="M296 696l240 -241l-53 -53q-30 13 -67.5 40t-69.5 61h-2v-601h-96v601h-2q-32 -34 -70 -61t-68 -40l-53 53z" />
    <glyph glyph-name="arrowright" unicode="&#x2192;" horiz-adv-x="864" 
d="M829 319l-241 -241l-53 53q13 30 40.5 68t61.5 70v2h-602v96h602v2q-34 32 -61 70t-40 68l52 52z" />
    <glyph glyph-name="arrowdown" unicode="&#x2193;" horiz-adv-x="591" 
d="M296 -98l-241 241l53 53q30 -13 68 -40t70 -61h2v601h96v-601h2q32 34 69.5 61t67.5 40l53 -53z" />
    <glyph glyph-name="arrowboth" unicode="&#x2194;" horiz-adv-x="864" 
d="M829 319l-241 -241l-53 53q13 30 40.5 68t61.5 70v2h-410v-2q34 -32 61.5 -70t40.5 -68l-53 -53l-241 241l241 240l52 -52q-13 -30 -40 -68t-61 -70v-2h410v2q-34 32 -61 70t-40 68l52 52z" />
    <glyph glyph-name="arrowupdn" unicode="&#x2195;" horiz-adv-x="591" 
d="M295 -98l-240 241l52 53q30 -13 68.5 -40t70.5 -61h2v410h-2q-32 -34 -70.5 -61.5t-68.5 -40.5l-52 53l240 241l241 -241l-53 -53q-30 13 -67.5 40.5t-69.5 61.5h-2v-410h2q32 34 69.5 61t67.5 40l53 -53z" />
    <glyph glyph-name="uni2196" unicode="&#x2196;" horiz-adv-x="705" 
d="M55 696h340v-75q-31 -12 -77 -19.5t-92 -6.5l-2 -1l426 -426l-68 -68l-426 426l-1 -2q1 -46 -6 -92.5t-19 -76.5h-75v341z" />
    <glyph glyph-name="uni2197" unicode="&#x2197;" horiz-adv-x="705" 
d="M650 696v-341h-75q-12 30 -19 76.5t-6 92.5l-1 2l-426 -426l-68 68l426 426l-2 1q-46 -1 -92 6.5t-77 19.5v75h340z" />
    <glyph glyph-name="uni2198" unicode="&#x2198;" horiz-adv-x="705" 
d="M650 -98h-340v75q31 12 77 19.5t92 6.5l2 1l-426 426l68 68l426 -426l1 2q-1 46 6 92.5t19 76.5h75v-341z" />
    <glyph glyph-name="uni2199" unicode="&#x2199;" horiz-adv-x="705" 
d="M55 -98v341h75q12 -30 19 -76.5t6 -92.5l1 -2l426 426l68 -68l-426 -426l2 -1q46 1 92 -6.5t77 -19.5v-75h-340z" />
    <glyph glyph-name="partialdiff" unicode="&#x2202;" horiz-adv-x="568" 
d="M172 647q-26 0 -52 -6.5t-52 -18.5q-3 10 -4.5 19t-1.5 19q0 24 27 42t98 18q130 0 234.5 -109.5t104.5 -331.5q0 -141 -76 -218.5t-177 -77.5q-107 0 -173.5 64t-66.5 170q0 119 77 195.5t178 76.5q31 0 55.5 -8t44.5 -24l4 1q-31 87 -94 138t-126 51zM393 251
q0 44 -1.5 74t-6.5 67q-24 12 -48.5 18t-52.5 6q-33 0 -75.5 -45t-42.5 -146q0 -83 34 -126t77 -43q40 0 78 45t38 150z" />
    <glyph glyph-name="product" unicode="&#x220f;" horiz-adv-x="694" 
d="M467 109v453h-240v-510l62 -19v-26q-31 -8 -65.5 -12.5t-74.5 -4.5q-27 0 -56.5 2.5t-53.5 7.5v23q28 11 42.5 30t14.5 56v472l-63 20v26q25 5 67 9t74 4h371q27 0 56.5 -3t52.5 -7v-23q-27 -11 -41.5 -27.5t-14.5 -53.5v-474l62 -19v-26q-31 -8 -65.5 -12.5t-74.5 -4.5
q-27 0 -56.5 2.5t-53.5 7.5v23q28 11 42.5 30t14.5 56z" />
    <glyph glyph-name="summation" unicode="&#x2211;" horiz-adv-x="480" 
d="M143 90h189q40 0 58.5 12.5t30.5 37.5l10 21h36l-18 -161h-414q0 49 9.5 77.5t28.5 45.5l175 186l-156 204q-19 25 -28 60.5t-9 66.5h389l-8 -170h-37l-3 19q-6 40 -24.5 55.5t-61.5 15.5h-102l162 -230z" />
    <glyph glyph-name="minus" unicode="&#x2212;" 
d="M41 258h437v-65h-437v65z" />
    <glyph glyph-name="uni2215" unicode="&#x2215;" horiz-adv-x="29" 
d="M250 674l42 -24l-519 -753l-42 24z" />
    <glyph glyph-name="uni2219" unicode="&#x2219;" horiz-adv-x="275" 
d="M206 255q0 -28 -21 -50.5t-50 -22.5t-47.5 20.5t-18.5 48.5t21 51.5t52 23.5q26 0 45 -20.5t19 -50.5z" />
    <glyph glyph-name="radical" unicode="&#x221a;" horiz-adv-x="436" 
d="M463 769l44 -13l-250 -768h-33l-148 439l-90 -22l-11 43l167 45l116 -349h1z" />
    <glyph glyph-name="infinity" unicode="&#x221e;" horiz-adv-x="660" 
d="M491 483q54 0 98.5 -48.5t44.5 -121.5q0 -75 -44 -120.5t-99 -45.5q-46 0 -87 28.5t-65 82.5h-1l-33 -44q-25 -32 -57 -48t-75 -16q-52 0 -96.5 47t-44.5 117t46.5 118t100.5 48q42 0 82.5 -30.5t61.5 -76.5l32 42q25 33 59 50.5t77 17.5zM176 411q-36 0 -62 -27.5
t-26 -67.5q0 -39 24.5 -64.5t58.5 -25.5q25 0 47.5 14t47.5 51l31 44q-22 34 -54 55t-67 21zM491 404q-22 0 -44.5 -16t-47.5 -50l-32 -43q22 -37 53 -58t69 -21q37 0 63 26t26 69t-24 68t-63 25z" />
    <glyph glyph-name="integral" unicode="&#x222b;" horiz-adv-x="405" 
d="M266 644v-712q0 -80 -51 -131.5t-147 -51.5q-61 0 -81 13.5t-20 41.5q0 10 2.5 22t6.5 23q28 -15 54 -22t57 -7q24 0 40 22.5t16 76.5v712q0 80 51.5 132t147.5 52q61 0 80.5 -14t19.5 -42q0 -10 -2.5 -22t-6.5 -23q-28 15 -54 22t-57 7q-24 0 -40 -22.5t-16 -76.5z" />
    <glyph glyph-name="approxequal" unicode="&#x2248;" 
d="M42 331q22 14 50 23.5t50 9.5q21 0 44.5 -3t40.5 -10l78 -30q20 -7 38.5 -11t37.5 -4q17 0 39.5 8.5t39.5 19.5l17 -60q-22 -14 -49.5 -23.5t-47.5 -9.5q-24 0 -47 3.5t-40 10.5l-78 30q-17 7 -36.5 10t-38.5 3t-40 -8.5t-41 -18.5zM42 177q22 14 50 23.5t50 9.5
q21 0 44.5 -3t40.5 -10l78 -30q20 -7 38.5 -11t37.5 -4q17 0 39.5 8.5t39.5 19.5l17 -60q-22 -14 -49.5 -23.5t-47.5 -9.5q-24 0 -47 3.5t-40 10.5l-78 30q-17 7 -36.5 10t-38.5 3t-40 -8.5t-41 -18.5z" />
    <glyph glyph-name="notequal" unicode="&#x2260;" 
d="M261 270h-210v64h248l109 183l41 -21l-97 -162h117v-64h-155l-53 -89h208v-65h-246l-111 -187l-41 22l98 165h-118v65h157z" />
    <glyph glyph-name="lessequal" unicode="&#x2264;" 
d="M393 106l-329 184l330 183l31 -59l-234 -121l236 -125zM41 65h437v-65h-437v65z" />
    <glyph glyph-name="greaterequal" unicode="&#x2265;" 
d="M124 476l329 -185l-330 -183l-32 59l234 122l-236 124zM41 65h437v-65h-437v65z" />
    <glyph glyph-name="lozenge" unicode="&#x25ca;" horiz-adv-x="474" 
 />
    <glyph glyph-name="commaaccent" unicode="&#xf6c3;" horiz-adv-x="205" 
d="M0 0v1004.4h994.905v-1004.4h-994.905zM276.802 232.514l223.023 223.023l221.442 -223.023l58.5234 58.5234l-223.023 221.442l223.023 223.023l-58.5234 58.5234l-221.442 -224.604l-223.023 224.604l-60.1055 -58.5234l224.605 -223.023l-223.023 -219.86z" />
    <glyph glyph-name="fiets" unicode="&#x1f6b2;" horiz-adv-x="747" 
d="M602 -3q-39 0 -67 28t-28 67q0 33 21 59t52 33q-27 82 -91 119t-159 37l-20 -43q31 -22 50.5 -57.5t19.5 -77.5q0 -67 -48.5 -116t-116.5 -49t-116.5 49t-48.5 116q0 68 48.5 116.5t116.5 48.5q18 0 35 -4t33 -11l38 81q33 71 56.5 101t56.5 30q41 0 53.5 -3.5
t12.5 -13.5t-11.5 -13t-60.5 -3q-16 0 -35 -28.5t-50 -93.5q51 0 88 -8.5t68 -24.5l45 54q-25 0 -41.5 7.5t-16.5 16.5q0 13 16 15.5t90 2.5q37 0 49.5 -7t12.5 -20q0 -9 -15 -12.5t-52 -3.5l-67 -67q34 -23 58 -58t34 -77q36 -5 60.5 -31.5t24.5 -63.5q0 -39 -28 -67
t-67 -28zM215 29q54 0 93.5 39.5t39.5 93.5q0 32 -14.5 60t-38.5 46q-13 -24 -28.5 -50t-28.5 -42q2 -3 3 -6.5t1 -7.5q0 -10 -8 -18.5t-19 -8.5t-19 8.5t-8 18.5q0 11 8 19t18 8q10 16 27 43.5t25 44.5l3 6q-12 6 -26 9t-28 3q-54 0 -93.5 -39.5t-39.5 -93.5t39.5 -93.5
t93.5 -39.5zM602 26q27 0 46.5 19.5t19.5 46.5q0 23 -15 41.5t-35 22.5q1 -9 2 -22t1 -27q2 -3 3.5 -7t1.5 -8q0 -10 -7 -17t-17 -7q-9 0 -16.5 7t-7.5 17q0 7 4 13t11 9q-1 10 -2 21t-3 21q-22 -4 -37 -22.5t-15 -41.5q0 -27 19.5 -46.5t46.5 -19.5z" />
    <glyph glyph-name="zero.osf" horiz-adv-x="511" 
d="M248 -18q-107 0 -162.5 63t-55.5 179q0 119 63 192.5t171 73.5q107 0 162.5 -63t55.5 -179q0 -119 -61.5 -192.5t-172.5 -73.5zM254 51q43 0 69.5 47t26.5 139q0 98 -24.5 141t-67.5 43t-69.5 -47t-26.5 -139q0 -98 24.5 -141t67.5 -43z" />
    <glyph glyph-name="one.osf" horiz-adv-x="373" 
d="M326 15q-28 -11 -66.5 -17.5t-89.5 -6.5q-24 0 -54 2.5t-57 6.5v23q36 13 55.5 34.5t19.5 49.5v292l-92 -5v44q40 20 88 31t83 11q12 0 26.5 -1t24.5 -2q-4 -19 -7 -46.5t-3 -47.5v-329l72 -16v-23z" />
    <glyph glyph-name="two.osf" horiz-adv-x="461" 
d="M432 67q0 -36 -25.5 -55t-85.5 -19q-44 0 -128 3.5t-162 3.5l-7 68l183 161q34 30 50.5 55t16.5 53q0 29 -20 47.5t-56 18.5q-34 0 -72 -19.5t-70 -54.5q-7 13 -11 30t-4 36q0 36 43 62.5t136 26.5q91 0 139 -36.5t48 -89.5q0 -47 -30.5 -88.5t-93.5 -82.5l-144 -99v-1
h71q51 0 107.5 10t103.5 26q5 -11 8 -27t3 -29z" />
    <glyph glyph-name="three.osf" horiz-adv-x="455" 
d="M411 339q0 -60 -48.5 -111.5t-119.5 -66.5v-1q79 0 125 -36t46 -101q0 -80 -77.5 -140t-177.5 -60q-75 0 -107 22t-32 59q0 10 2.5 21t6.5 20q27 -22 65 -36t70 -14q47 0 84 30t37 79q0 48 -39 77t-108 29q-10 0 -22 -1.5t-22 -3.5l-13 72h44q59 1 108 39t49 95
q0 43 -28.5 67.5t-73.5 24.5q-31 0 -65.5 -17.5t-67.5 -51.5q-7 14 -10.5 30.5t-3.5 31.5q0 34 43.5 61t135.5 27q93 0 146 -42t53 -103z" />
    <glyph glyph-name="four.osf" horiz-adv-x="505" 
d="M489 68q0 -35 -15.5 -50.5t-47.5 -15.5h-28v-67q0 -60 -21.5 -86t-62.5 -26q-15 0 -27 2.5t-25 7.5q10 19 15.5 44.5t5.5 47.5v79h-253l-5 68q31 136 117.5 251t192.5 163l70 -13q-4 -49 -5.5 -93.5t-1.5 -90.5v-193h29q14 0 28 4.5t25 11.5q4 -9 6.5 -20.5t2.5 -23.5z
M292 378l-2 2q-51 -43 -105 -126.5t-74 -160.5h175v180q0 28 1 54.5t5 50.5z" />
    <glyph glyph-name="five.osf" horiz-adv-x="455" 
d="M423 46q0 -90 -77 -156.5t-186 -66.5q-73 0 -105 22t-32 59q0 12 3 23t7 18q28 -22 65.5 -36t65.5 -14q54 0 93.5 34.5t39.5 91.5q0 50 -39.5 81t-105.5 31q-22 0 -44.5 -2.5t-41.5 -8.5l13 354q19 -1 47 -2.5t47 -1.5q52 0 123.5 3.5t124.5 8.5q1 -7 3 -18t2 -20
q0 -38 -23.5 -55.5t-77.5 -17.5h-170l-6 -163q14 4 35.5 6t40.5 2q88 0 143 -45.5t55 -126.5z" />
    <glyph glyph-name="six.osf" horiz-adv-x="506" 
d="M180 391l1 -1q20 13 46 20.5t51 7.5q93 0 143 -51.5t50 -144.5q0 -112 -68.5 -177t-154.5 -65q-92 0 -152 66.5t-60 182.5q0 195 104 307.5t242 112.5q62 0 83.5 -13t21.5 -39q0 -10 -3.5 -23t-9.5 -22q-23 12 -49.5 18t-54.5 6q-56 0 -113.5 -49t-76.5 -136zM169 335
q-3 -18 -5 -44.5t-2 -47.5q0 -104 28 -149t65 -45q33 0 61.5 36t28.5 112q0 75 -33 111.5t-80 36.5q-16 0 -33.5 -3t-29.5 -7z" />
    <glyph glyph-name="seven.osf" horiz-adv-x="443" 
d="M429 447l-104 -242q-37 -86 -75 -183t-72 -201q-60 0 -81.5 13t-21.5 36q0 29 33.5 103.5t117.5 224.5l94 168h-221q-41 0 -59.5 22.5t-18.5 88.5q60 -4 126 -5.5t115 -1.5q25 0 69.5 1.5t75.5 4.5z" />
    <glyph glyph-name="eight.osf" horiz-adv-x="493" 
d="M465 169q0 -76 -68.5 -131.5t-160.5 -55.5q-97 0 -150 44t-53 110q0 55 37.5 102t103.5 71v1l-60 46q-29 22 -44.5 52t-15.5 71q0 64 58 117.5t147 53.5q90 0 138 -42t48 -106q0 -50 -33 -92t-84 -67v-1l67 -46q37 -25 53.5 -54.5t16.5 -72.5zM349 494q0 39 -26.5 63
t-67.5 24q-37 0 -63.5 -23.5t-26.5 -56.5q0 -28 15 -49.5t49 -46.5l51 -37q30 22 49.5 56t19.5 70zM346 139q0 26 -15.5 48.5t-54.5 50.5l-55 40q-39 -22 -62.5 -56t-23.5 -74q0 -41 31 -69t78 -28q43 0 72.5 24t29.5 64z" />
    <glyph glyph-name="nine.osf" horiz-adv-x="506" 
d="M341 144q2 16 3 36t1 36q0 110 -30.5 153t-67.5 43q-36 0 -61.5 -35.5t-25.5 -98.5q0 -73 32 -109.5t75 -36.5q22 0 40 3t34 9zM332 87l-1 1q-20 -15 -42 -22t-54 -7q-81 0 -140 56t-59 148q0 96 64 158.5t154 62.5q96 0 157.5 -64.5t61.5 -188.5q0 -195 -103.5 -302.5
t-222.5 -107.5q-68 0 -94.5 19.5t-26.5 56.5q0 10 2.5 19t5.5 17q25 -16 58 -27t63 -11q55 0 111 54.5t66 137.5z" />
    <glyph glyph-name="Gcedilla" horiz-adv-x="622" 
d="M-110 72v635h629v-635h-629zM65 219l141 141l140 -141l37 37l-141 140l141 141l-37 37l-140 -142l-141 142l-38 -37l142 -141l-141 -139zM5267 10628v-1190.2h-1178.95v1190.2h1178.95zM4938.99 10352.5l-264.28 -264.28l-262.405 264.28l-69.3506 -69.3506
l264.28 -262.405l-264.28 -264.28l69.3506 -69.3506l262.405 266.155l264.28 -266.155l71.2246 69.3506l-266.154 264.28l264.28 260.531z" />
    <glyph glyph-name="Kcedilla" horiz-adv-x="608" 
 />
    <glyph glyph-name="Lcedilla" horiz-adv-x="471" 
d="M-93 68v170.804h169.189v-170.804h-169.189zM-45.9277 107.54l37.9258 37.9268l37.6582 -37.9268l9.95215 9.95215l-37.9268 37.6582l37.9268 37.9258l-9.95215 9.95312l-37.6582 -38.1953l-37.9258 38.1953l-10.2217 -9.95312l38.1953 -37.9258l-37.9268 -37.3887z" />
    <glyph glyph-name="Ncedilla" horiz-adv-x="645" 
d="M2 -88l167.121 51.1602l-1100.17 474.283l-167.121 -51.1592zM-265.401 55.7979l-209.513 117.679l-281.98 94.2031l-54.9785 30.8809l283.467 -95.0391l-209.512 117.678l74.4531 -24.918l207.5 -117.004l283.993 -94.8779l56.7275 -31.6338l-285.479 95.7119
l210.038 -117.517z" />
    <glyph glyph-name="Rcedilla" horiz-adv-x="600" 
d="M-403.46 3.58496v-5.17578l-119.856 -0.514648v-0.705078q55.9326 -0.216797 122.854 -0.351562q66.9199 -0.135742 146.824 -0.135742q57.9316 0 116.861 0.0810547t108.87 0.216797v0.623047q-55.9336 0.271484 -84.8984 0.813477q-28.9658 0.541992 -28.9658 1.51758
v12.791l125.85 0.595703v0.813477q-111.866 0.189453 -228.727 0.28418q-116.861 0.0947266 -256.694 0.0947266q-261.688 0 -378.549 -1.19238q-116.861 -1.19238 -116.861 -3.3877q0 -1.95117 76.9082 -3.31934q76.9092 -1.36816 202.759 -1.80176l-255.695 -4.60742
q-47.9434 -0.839844 -93.8877 -1.38184q-45.9453 -0.541992 -103.877 -0.948242v-0.59668q43.9482 -0.325195 95.8857 -0.487305q51.9385 -0.163086 115.862 -0.163086q77.9072 0 131.843 0.407227q53.9355 0.40625 113.864 1.65234l233.722 4.87793h75.9092z
M-729.071 9.38477q0 1.59863 67.9189 2.4248q67.9189 0.827148 179.785 0.827148q19.9766 0 40.9512 -0.0273438q20.9756 -0.0273438 38.9541 -0.0546875v-7.28906h-77.9072q-101.879 0 -175.791 1.00195q-73.9111 1.00293 -73.9111 3.11719z" />
    <glyph glyph-name="caronquoteleft" horiz-adv-x="205" 
 />
    <glyph glyph-name="caronquoteright" horiz-adv-x="205" 
 />
    <glyph glyph-name="gcedilla" horiz-adv-x="495" 
d="M0 0v-260.062h-257.604v260.062h257.604zM-71.6709 -60.2031l-57.7451 -57.7461l-57.3369 57.7461l-15.1533 -15.1533l57.7461 -57.3369l-57.7461 -57.7451l15.1533 -15.1533l57.3369 58.1553l57.7451 -58.1553l15.5635 15.1533l-58.1562 57.7451l57.7461 56.9277z" />
    <glyph glyph-name="kcedilla" horiz-adv-x="507" 
d="M534 287q0 -129 -80 -201.5t-176 -72.5q-104 0 -170.5 64t-66.5 170q0 120 77 196t182 76q103 0 168.5 -64t65.5 -168zM401 279q0 84 -33.5 125.5t-76.5 41.5q-42 0 -79.5 -46t-37.5 -145q0 -83 34.5 -126t75.5 -43q40 0 78.5 44.5t38.5 148.5zM434 637q0 -24 -16 -40
t-38 -16q-24 0 -38 15t-14 38t15.5 40.5t39.5 17.5q22 0 36.5 -15t14.5 -40zM262 637q0 -24 -16 -40t-38 -16q-24 0 -38 15t-14 38t15.5 40.5t39.5 17.5q22 0 36.5 -15t14.5 -40zM0 0v1032.15h1022.39v-1032.15h-1022.39zM284.45 238.938l229.185 229.186l227.561 -229.186
l60.1406 60.1406l-229.186 227.561l229.186 229.185l-60.1406 60.1416l-227.561 -230.811l-229.185 230.811l-61.7666 -60.1416l230.811 -229.185l-229.186 -225.935zM17848 8978v793.827h786.327v-793.827h-786.327zM18066.8 9161.77l176.268 176.268l175.017 -176.268
l46.2549 46.2549l-176.268 175.017l176.268 176.268l-46.2549 46.2549l-175.017 -177.518l-176.268 177.518l-47.5049 -46.2549l177.518 -176.268l-176.268 -173.767z" />
    <glyph glyph-name="lcedilla" horiz-adv-x="289" 
 />
    <glyph glyph-name="ncedilla" horiz-adv-x="580" 
d="M0 0v635h629v-635h-629zM175 147l141 141l140 -141l37 37l-141 140l141 141l-37 37l-140 -142l-141 142l-38 -37l142 -141l-141 -139zM283 637v-23q-29 -12 -42.5 -31.5t-13.5 -56.5v-433q0 -109 -43 -163.5t-98 -54.5q-19 0 -36.5 3.5t-35.5 10.5v16q34 21 58 67t24 106
v506l-63 20v26q37 9 70.5 13t71.5 4q31 0 56.5 -2.5t51.5 -7.5zM135 852l45 8l144 -161l-16 -17q-31 0 -56.5 10t-49.5 34q-14 13 -26 29.5t-21 33.5l-113 -108q-16 7 -27.5 18t-19.5 24z" />
    <glyph glyph-name="rcedilla" horiz-adv-x="367" 
d="M0 0v476.25h61.6182v-476.25h-61.6182zM17.1436 110.25l13.8125 105.75l13.7139 -105.75l3.625 27.75l-13.8125 105l13.8125 105.75l-3.625 27.75l-13.7139 -106.5l-13.8125 106.5l-3.72266 -27.75l13.9102 -105.75l-13.8125 -104.25zM0 0v-311.027h754.116v311.027
h-754.116zM209.81 -72.002l169.047 -69.0625l167.849 69.0625l44.3594 -18.123l-169.047 -68.5723l169.047 -69.0635l-44.3594 -18.1221l-167.849 69.5527l-169.047 -69.5527l-45.5586 18.1221l170.246 69.0635l-169.047 68.083z" />
    </font>
</defs>
</svg>
