<?xml version="1.0" standalone="no"?>
<!DOCTYPE svg PUBLIC "-//W3C//DTD SVG 1.1//EN" "http://www.w3.org/Graphics/SVG/1.1/DTD/svg11.dtd" >
<svg xmlns="http://www.w3.org/2000/svg" xmlns:xlink="http://www.w3.org/1999/xlink" version="1.1">
<metadata>
Created by FontForge 20170731 at Tue Jan 21 18:19:08 2014
 By Aleksey,,,
Copyright 2008. OurType &#38; Peter Verheul. www.ourtype.com
</metadata>
<defs>
<font id="RijksoverheidSerifWeb-Regular" horiz-adv-x="520" >
  <font-face 
    font-family="RijksoverheidSerifWeb Regular"
    font-weight="400"
    font-stretch="normal"
    units-per-em="1000"
    panose-1="0 0 0 0 0 0 0 0 0 0"
    ascent="740"
    descent="-260"
    x-height="472"
    cap-height="642"
    bbox="-275 -264 1010 921"
    underline-thickness="0"
    underline-position="0"
    unicode-range="U+0020-1F6B2"
  />
<missing-glyph horiz-adv-x="629" 
d="M0 0v635h629v-635h-629zM175 147l141 141l140 -141l37 37l-141 140l141 141l-37 37l-140 -142l-141 142l-38 -37l142 -141l-141 -139z" />
    <glyph glyph-name="fi" unicode="fi" horiz-adv-x="558" 
d="M46 0v17q19 7 36 21.5t17 32.5v334h-55v35l55 22v78q-1 78 53 128t168 50q78 0 105 -13t27 -35q0 -14 -3 -25t-7 -20q-32 15 -76 24.5t-88 9.5q-51 0 -76 -28.5t-25 -85.5q0 -14 1.5 -44t2.5 -42h147q32 8 62.5 12.5t50.5 4.5h32l-5 -54v-380l56 -15v-19
q-25 -9 -51.5 -13t-64.5 -4q-17 0 -37.5 2t-37.5 7v17q20 7 36.5 21.5t16.5 32.5v339h-206v-368l64 -15v-19q-25 -9 -53.5 -13t-69.5 -4q-18 0 -38 2t-37 7z" />
    <glyph glyph-name="fl" unicode="fl" horiz-adv-x="557" 
d="M46 0v17q19 7 36 21.5t17 32.5v334h-55v35l55 22v65q0 87 49 139t145 52q20 0 39.5 -4.5t35.5 -10.5q22 7 41.5 11t34.5 4h32l-5 -56v-620l56 -15v-19q-25 -9 -52 -13t-64 -4q-18 0 -38 2t-37 7v17q19 7 36 21.5t17 32.5v569q-31 13 -63 16t-68 3q-38 0 -59.5 -29
t-21.5 -89q0 -15 1.5 -41t2.5 -41h126l-11 -54h-116v-363l64 -15v-19q-25 -9 -53.5 -13t-69.5 -4q-18 0 -38 2t-37 7z" />
    <glyph glyph-name=".notdef" horiz-adv-x="629" 
d="M0 0v635h629v-635h-629zM175 147l141 141l140 -141l37 37l-141 140l141 141l-37 37l-140 -142l-141 142l-38 -37l142 -141l-141 -139z" />
    <glyph glyph-name=".null" horiz-adv-x="0" 
 />
    <glyph glyph-name="nonmarkingreturn" horiz-adv-x="333" 
 />
    <glyph glyph-name="space" unicode=" " horiz-adv-x="196" 
 />
    <glyph glyph-name="exclam" unicode="!" horiz-adv-x="305" 
d="M198 175q-37 0 -64.5 32t-27.5 97q0 52 14.5 134.5t14.5 136.5q0 22 -3.5 42t-10.5 39q34 8 66 12t69 4l-30 -70l-33 -187q-4 -26 -7 -62.5t-3 -61.5q0 -32 4 -61.5t11 -54.5zM89 47q0 24 17 41t41 17t41 -17t17 -41t-17 -41t-41 -17t-41 17t-17 41z" />
    <glyph glyph-name="quotedbl" unicode="&#x22;" horiz-adv-x="399" 
d="M109 429l-10.5 52.5t-11.5 81.5l-3 79h86l-3 -78q-1 -30 -11 -82.5l-10 -52.5h-37zM256 429l-10 52.5t-11 81.5l-4 79h86l-3 -78q-1 -30 -11 -82.5l-10 -52.5h-37z" />
    <glyph glyph-name="numbersign" unicode="#" 
d="M192 211h140l27 226h-139zM114 -15l22 177h-121l6 51h122l27 223h-121l6 51h121l22 177h52l-22 -177h137l22 177h51l-22 -177h120l-7 -51h-119l-27 -223h119l-7 -51h-119l-22 -177h-51l21 177h-136l-22 -177h-52z" />
    <glyph glyph-name="dollar" unicode="$" 
d="M238 390l9 -5l1 195q-40 -8 -64 -31.5t-24 -57.5q0 -31 19 -55.5t59 -45.5zM279 54q40 10 64.5 35.5t24.5 63.5q0 28 -22.5 55.5t-65.5 52.5zM62 8v145h29l7 -25q11 -41 42.5 -60t88.5 -19h17l1 230l-73 42q-46 26 -70.5 64.5t-24.5 87.5q0 67 48 112t121 58l1 71h33
l-1 -67q6 1 11.5 1h11.5q46 0 78 -5.5t62 -17.5l-9 -141h-29l-4 20q-10 46 -34 63.5t-74 17.5q-4 0 -7 -0.5t-6 -0.5l-1 -217l61 -31q53 -28 83 -67t30 -87q0 -72 -50 -124t-126 -66v-72h-33v68q-5 -1 -10.5 -1h-10.5q-47 0 -88.5 5t-73.5 16z" />
    <glyph glyph-name="percent" unicode="%" horiz-adv-x="712" 
d="M115 -33l429 717l37 -21l-429 -717zM180 310q-63 0 -101 40t-38 116q0 82 41.5 129t107.5 47q62 0 100 -40t38 -116q0 -79 -42.5 -127.5t-105.5 -48.5zM183 350q31 0 51 32.5t20 95.5q0 68 -19.5 96t-48.5 28q-31 0 -51 -32.5t-20 -95.5q0 -68 19.5 -96t48.5 -28z
M383 148q0 82 41.5 129t107.5 47q62 0 100 -40t38 -116q0 -79 -42.5 -127.5t-105.5 -48.5t-101 40t-38 116zM457 156q0 -68 19.5 -96t48.5 -28q31 0 51 32.5t20 95.5q0 68 -19.5 96t-48.5 28q-31 0 -51 -32.5t-20 -95.5z" />
    <glyph glyph-name="ampersand" unicode="&#x26;" horiz-adv-x="616" 
d="M254 342q42 21 67.5 60.5t25.5 88.5t-25 75.5t-62 26.5q-36 0 -64 -31t-28 -76q0 -28 11.5 -54.5t31.5 -46.5zM133 152q0 -54 35.5 -85.5t92.5 -31.5q51 0 87 15t61 43l-199 189q-34 -19 -55.5 -55t-21.5 -75zM49 138q0 51 33.5 98t96.5 76v1l-27 27q-31 30 -45.5 60.5
t-14.5 69.5q0 72 54 123t123 51q66 0 110 -41t44 -101q0 -61 -40.5 -110t-94.5 -76v-1l166 -155q18 33 26 71.5t8 79.5l-63 16v22q31 9 53 12.5t50 3.5q25 0 41 -2t38 -8v-19q-24 -6 -41.5 -14t-17.5 -22q0 -40 -13.5 -85t-42.5 -84q34 -28 67 -48.5t70 -36.5
q-7 -27 -24.5 -42t-38.5 -15q-16 0 -32 7.5t-41 28.5l-43 37q-43 -44 -91 -64t-112 -20q-93 0 -145.5 43t-52.5 117z" />
    <glyph glyph-name="quotesingle" unicode="'" horiz-adv-x="253" 
d="M109 433l-10.5 52.5t-11.5 81.5l-3 79h86l-3 -78q-1 -30 -11 -82.5l-10 -52.5h-37z" />
    <glyph glyph-name="parenleft" unicode="(" horiz-adv-x="300" 
d="M55 208q0 210 80.5 354.5t124.5 144.5q9 0 15 -4.5t10 -13.5q-62 -46 -113 -174t-51 -285q0 -204 67.5 -324.5t123.5 -120.5q-10 -13 -25 -20.5t-35 -7.5q-57 0 -127 119t-70 332z" />
    <glyph glyph-name="parenright" unicode=")" horiz-adv-x="300" 
d="M15 -224q62 46 113 173.5t51 285.5q0 204 -67.5 324.5t-123.5 120.5q10 13 25 20.5t35 7.5q57 0 127 -119t70 -332q0 -210 -80.5 -354.5t-124.5 -144.5q-9 0 -15 4.5t-10 13.5z" />
    <glyph glyph-name="asterisk" unicode="*" horiz-adv-x="500" 
d="M180 303q-12 0 -20.5 11.5t-8.5 28.5q0 26 23.5 64.5t57.5 61.5v1q-43 0 -75.5 -3.5t-68.5 -10.5q-10 13 -14.5 21.5t-4.5 16.5q0 14 14 25.5t42 11.5q29 0 62.5 -12t55.5 -29l1 1q-8 29 -25 68.5t-33 62.5q11 19 20 25.5t19 6.5q21 0 36.5 -23.5t15.5 -72.5
q0 -25 -3 -42.5t-8 -29.5l1 -1q25 16 58 44.5t50 51.5q29 -9 36.5 -17.5t7.5 -20.5q0 -29 -48 -55t-102 -26v-1q23 -19 60 -41t65 -32q0 -35 -8.5 -45t-24.5 -10q-26 0 -64 37t-49 82h-1q-10 -28 -20 -70t-11 -71q-11 -4 -18.5 -6t-17.5 -2z" />
    <glyph glyph-name="plus" unicode="+" 
d="M48 200v51h185v199h54v-199h185v-51h-185v-200h-54v200h-185z" />
    <glyph glyph-name="comma" unicode="," horiz-adv-x="275" 
d="M75 65q12 19 30 31.5t34 12.5q23 0 38.5 -15.5t15.5 -41.5q0 -69 -43.5 -122t-74.5 -62l-27 7q31 32 46.5 67.5t15.5 78.5z" />
    <glyph glyph-name="hyphen" unicode="-" horiz-adv-x="304" 
d="M29 231l19 73l231 10l-14 -72z" />
    <glyph glyph-name="period" unicode="." horiz-adv-x="275" 
d="M79 47q0 24 17 41t41 17t41 -17t17 -41t-17 -41t-41 -17t-41 17t-17 41z" />
    <glyph glyph-name="slash" unicode="/" horiz-adv-x="325" 
d="M21 -231l235 951l49 -10l-234 -951z" />
    <glyph glyph-name="zero" unicode="0" 
d="M250 -17q-92 0 -151 77.5t-59 235.5q0 174 66.5 263t162.5 89q92 0 151 -79t59 -237q0 -174 -66.5 -261.5t-162.5 -87.5zM256 41q57 0 93 69.5t36 204.5q0 139 -34 207t-88 68q-57 0 -93 -71t-36 -206q0 -139 34 -205.5t88 -66.5z" />
    <glyph glyph-name="one" unicode="1" 
d="M111 0v19q54 8 83 29.5t29 44.5v477l-119 -6v33q34 19 86 31.5t92 12.5q8 0 18.5 -0.5t17.5 -1.5q-4 -17 -6 -37.5t-2 -39.5v-512l114 -21v-21q-37 -11 -81.5 -14.5t-90.5 -3.5q-33 0 -74.5 3t-66.5 7z" />
    <glyph glyph-name="two" unicode="2" 
d="M41 0l-6 61l227 230q45 45 67 88.5t22 85.5q0 51 -34.5 82.5t-91.5 31.5q-39 0 -80.5 -22.5t-71.5 -61.5q-4 13 -8.5 30t-4.5 35q0 32 47 58.5t135 26.5q96 0 150.5 -46t54.5 -113q0 -58 -30.5 -114t-109.5 -130l-187 -176h127q62 0 116 8.5t105 27.5q4 -9 6 -20t2 -27
q0 -28 -23.5 -44.5t-83.5 -16.5q-49 0 -149.5 3t-178.5 3z" />
    <glyph glyph-name="three" unicode="3" 
d="M57 54q0 9 2.5 17t5.5 14q28 -16 65.5 -24.5t77.5 -8.5q61 0 103 31.5t42 82.5q0 52 -41 84.5t-128 32.5q-10 0 -25 -1.5t-24 -3.5l-10 65l48 1q67 1 118.5 40t51.5 97q0 48 -32 73t-80 25q-37 0 -78 -17.5t-68 -47.5q-5 11 -8.5 26t-3.5 29q0 28 44 52t130 24
q87 0 140 -42t53 -105q0 -54 -46.5 -105.5t-112.5 -69.5v-1q77 0 123.5 -41.5t46.5 -103.5q0 -78 -75 -134t-168 -56q-87 0 -119 18.5t-32 48.5z" />
    <glyph glyph-name="four" unicode="4" 
d="M31 150q0 107 102.5 265t233.5 230h38q-6 -51 -8 -108.5t-2 -114.5v-200h35q14 0 26.5 5t24.5 13q4 -7 6 -16t2 -19q0 -28 -13.5 -42t-50.5 -14h-30v-104l58 -16v-22q-28 -8 -53 -12.5t-56 -4.5q-21 0 -45.5 2.5t-45.5 7.5v19q25 7 41.5 23t16.5 44v64h-280zM107 222h204
v176q0 37 1.5 77t5.5 69h-1q-60 -51 -123.5 -146.5t-86.5 -175.5z" />
    <glyph glyph-name="five" unicode="5" 
d="M57 59q0 9 2 18t5 15q34 -19 76.5 -29.5t83.5 -10.5q62 0 103.5 35.5t41.5 94.5q0 58 -38.5 90.5t-109.5 32.5q-25 0 -56 -2.5t-55 -6.5v339h229q28 0 54 3t51 8q4 -7 5.5 -15.5t1.5 -17.5q0 -25 -25 -39.5t-96 -14.5h-157v-191q18 3 40.5 4.5t45.5 1.5q93 0 148.5 -48
t55.5 -125q0 -92 -74.5 -152t-166.5 -60q-88 0 -126.5 19.5t-38.5 50.5z" />
    <glyph glyph-name="six" unicode="6" 
d="M52 232q0 193 104 303t223 110q63 0 83 -10t20 -27q0 -9 -1.5 -18.5t-5.5 -16.5q-23 6 -50 10t-51 4q-57 0 -121 -55t-90 -152q25 15 53.5 22.5t55.5 7.5q91 0 150 -54t59 -138q0 -101 -69 -166t-150 -65q-84 0 -147 64.5t-63 180.5zM270 45q43 0 79.5 37t36.5 110
q0 76 -39 116t-94 40q-27 0 -54.5 -3.5t-46.5 -10.5q-4 -25 -5.5 -47t-1.5 -48q0 -103 38 -148.5t87 -45.5z" />
    <glyph glyph-name="seven" unicode="7" 
d="M146 23q0 25 36 108.5t118 250.5l87 177h-256q-37 0 -51.5 16t-14.5 65q28 -2 60.5 -3.5t60.5 -1.5h300l-114 -250q-37 -81 -80 -188.5t-70 -203.5q-10 -3 -21.5 -5.5t-21.5 -2.5q-16 0 -24.5 9t-8.5 29z" />
    <glyph glyph-name="eight" unicode="8" 
d="M49 145q0 59 42.5 106.5t111.5 72.5l-59 42q-34 24 -51 53t-17 67q0 63 56.5 112t143.5 49q80 0 131.5 -40.5t51.5 -105.5q0 -50 -33 -95t-93 -70l63 -42q36 -24 56 -54t20 -72q0 -72 -60.5 -127.5t-158.5 -55.5q-100 0 -152 45t-52 115zM234 394l55 -36q46 26 70 61
t24 74q0 43 -32 69.5t-83 26.5q-54 0 -85 -29t-31 -63q0 -25 17 -48.5t65 -54.5zM128 151q0 -48 38 -79t94 -31q53 0 91.5 31t38.5 79q0 29 -22 56t-59 52l-62 41q-51 -22 -85 -63t-34 -86z" />
    <glyph glyph-name="nine" unicode="9" 
d="M284 291q25 0 50.5 3.5t40.5 7.5q2 13 3.5 35t1.5 34q0 123 -38.5 170t-87.5 47q-40 0 -73.5 -39.5t-33.5 -108.5q0 -68 40 -108.5t97 -40.5zM48 51q0 7 2 16t3 15q26 -15 63.5 -26t75.5 -11q51 0 104.5 50t71.5 154q-21 -7 -54.5 -13t-61.5 -6q-84 0 -140.5 51.5
t-56.5 146.5q0 93 62.5 155t144.5 62q84 0 147 -66.5t63 -190.5q0 -202 -92.5 -301.5t-197.5 -99.5q-78 0 -106 17t-28 47z" />
    <glyph glyph-name="colon" unicode=":" horiz-adv-x="275" 
d="M137 366q-24 0 -41 17t-17 41t17 41t41 17t41 -17t17 -41t-17 -41t-41 -17zM79 47q0 24 17 41t41 17t41 -17t17 -41t-17 -41t-41 -17t-41 17t-17 41z" />
    <glyph glyph-name="semicolon" unicode=";" horiz-adv-x="275" 
d="M137 366q-24 0 -41 17t-17 41t17 41t41 17t41 -17t17 -41t-17 -41t-41 -17zM75 65q12 19 30 31.5t34 12.5q23 0 38.5 -15.5t15.5 -41.5q0 -69 -43.5 -122t-74.5 -62l-27 7q31 32 46.5 67.5t15.5 78.5z" />
    <glyph glyph-name="less" unicode="&#x3c;" 
d="M77 222l300 244l34 -42l-249 -200l250 -196l-36 -45z" />
    <glyph glyph-name="equal" unicode="=" 
d="M49 266v52h421v-52h-421zM49 133v52h421v-52h-421z" />
    <glyph glyph-name="greater" unicode="&#x3e;" 
d="M109 26l250 199l-250 197l36 44l298 -239l-299 -243z" />
    <glyph glyph-name="question" unicode="?" horiz-adv-x="435" 
d="M199 184q-29 0 -51 20.5t-22 52.5q0 25 13.5 49t53.5 61l65 59q28 25 42 50.5t14 52.5q0 40 -25.5 62t-71.5 22q-39 0 -77 -28t-58 -65q-7 9 -12 23.5t-5 32.5q0 40 39.5 68.5t127.5 28.5q79 0 125.5 -36t46.5 -95q0 -40 -29.5 -82t-127.5 -120l-60 -48q5 -27 15 -54
t23 -50q-6 -1 -13 -2.5t-13 -1.5zM118 47q0 24 17 41t41 17t41 -17t17 -41t-17 -41t-41 -17t-41 17t-17 41z" />
    <glyph glyph-name="at" unicode="@" horiz-adv-x="837" 
d="M35 209q0 190 126 313.5t302 123.5q146 0 246.5 -95.5t100.5 -247.5q0 -143 -87 -231.5t-164 -88.5q-14 9 -27.5 21t-22.5 28q-21 -20 -58 -34t-77 -14q-56 0 -91.5 31.5t-35.5 79.5q0 66 69 114.5t191 48.5v27q0 81 -21 106t-68 25q-41 0 -80 -17t-70 -48q-1 7 -2 14.5
t-1 15.5q0 48 38.5 74.5t125.5 26.5q75 0 118 -36t43 -98q0 -16 -1.5 -47.5t-2.5 -53.5l-3 -162q5 -13 13.5 -25.5t21.5 -22.5q46 19 90 91t44 167q0 143 -90 223t-206 80q-154 0 -255.5 -109t-101.5 -271q0 -164 80 -244t167 -80q39 0 74 6t75 20q2 -4 3 -9t1 -11
q0 -22 -39 -43t-111 -21q-116 0 -215 98t-99 275zM333 110q0 -30 20 -48t58 -18q23 0 50 8t46 19v140q-84 0 -129 -30.5t-45 -70.5z" />
    <glyph glyph-name="A" unicode="A" horiz-adv-x="541" 
d="M-14 0v19q23 8 36 21.5t23 42.5l198 554l70 9l184 -601l52 -17v-21q-22 -9 -47 -13t-52 -4q-28 0 -52.5 2t-51.5 8v19q29 7 40 21.5t6 33.5l-34 124h-202l-46 -156l59 -13v-22q-28 -9 -52 -13t-58 -4q-16 0 -35 2.5t-38 7.5zM173 252h172l-79 288h-1z" />
    <glyph glyph-name="B" unicode="B" horiz-adv-x="534" 
d="M48 0v19q25 6 41.5 23t16.5 51v492l-63 21v22q47 9 88 11.5t112 2.5q108 0 161.5 -38.5t53.5 -109.5q0 -57 -44 -103.5t-102 -57.5v-1q78 0 126 -41t48 -110q0 -81 -70.5 -137.5t-186.5 -56.5q-53 0 -97 2.5t-84 10.5zM191 347q81 0 128.5 36.5t47.5 101.5q0 48 -33 75.5
t-98 27.5q-10 0 -21 -1t-24 -2v-238zM191 46q15 -2 27 -3t26 -1q60 0 103.5 36.5t43.5 93.5q0 63 -43 95t-125 32h-32v-253z" />
    <glyph glyph-name="C" unicode="C" horiz-adv-x="540" 
d="M43 299q0 157 91.5 252.5t209.5 95.5q51 0 86.5 -7t61.5 -20l-8 -139h-27l-4 18q-12 46 -37.5 66.5t-79.5 20.5q-74 0 -134.5 -72t-60.5 -202q0 -138 58.5 -202.5t127.5 -64.5q55 0 85.5 18.5t46.5 58.5l10 24h27l-10 -132q-28 -14 -72.5 -22.5t-101.5 -8.5
q-108 0 -188.5 80.5t-80.5 235.5z" />
    <glyph glyph-name="D" unicode="D" horiz-adv-x="638" 
d="M48 0v19q27 8 42.5 25t15.5 51v490l-63 21v22q49 8 95.5 11t107.5 3q157 0 253 -78t96 -221q0 -164 -109 -258.5t-255 -94.5q-59 0 -97.5 1.5t-85.5 8.5zM192 53q13 -1 24.5 -2.5t24.5 -1.5q105 0 181 72t76 205q0 124 -73.5 191t-180.5 67q-12 0 -25.5 -1t-26.5 -2v-528
z" />
    <glyph glyph-name="E" unicode="E" horiz-adv-x="469" 
d="M48 0v23q31 8 44.5 24.5t13.5 49.5v489l-63 27v23h377l-8 -147h-29l-3 18q-6 37 -23.5 53.5t-63.5 16.5h-100v-230h102q30 0 46.5 9t22.5 28l7 24h27v-189h-27l-5 23q-5 25 -18.5 38t-32.5 13h-122v-234h119q42 0 63.5 14.5t34.5 39.5l10 19h28l-21 -132h-379z" />
    <glyph glyph-name="F" unicode="F" horiz-adv-x="435" 
d="M48 0v19q28 7 43 24.5t15 48.5v494l-63 28v22h377l-7 -147h-29l-3 18q-6 37 -23.5 53.5t-63.5 16.5h-101v-239h101q27 0 45.5 11.5t25.5 38.5l6 22h28v-195h-28l-5 26q-4 20 -18.5 31.5t-36.5 11.5h-118v-239l73 -16v-22q-25 -7 -56 -12t-63 -5q-28 0 -53.5 2.5
t-45.5 7.5z" />
    <glyph glyph-name="G" unicode="G" horiz-adv-x="592" 
d="M43 293q0 166 94 260t219 94q52 0 92 -7t70 -21l-10 -138h-28l-4 19q-10 46 -41.5 66t-89.5 20q-81 0 -142.5 -71.5t-61.5 -199.5q0 -134 54.5 -202t135.5 -68q28 0 56 5.5t49 14.5v194l-63 16v22q31 9 57 12.5t57 3.5q28 0 49 -2t43 -8v-19q-29 -7 -43.5 -25.5
t-14.5 -43.5v-227q-31 0 -47.5 7t-29.5 25q-19 -15 -57.5 -26t-83.5 -11q-109 0 -184.5 83t-75.5 227z" />
    <glyph glyph-name="H" unicode="H" horiz-adv-x="659" 
d="M48 0v19q27 7 42.5 24.5t15.5 48.5v496l-63 16v22q28 7 57 11.5t60 4.5q21 0 45.5 -2.5t45.5 -7.5v-19q-27 -7 -42.5 -23t-15.5 -47v-182h274v227l-64 16v22q28 7 57 11.5t60 4.5q22 0 46.5 -2.5t45.5 -7.5v-19q-27 -7 -43 -23t-16 -47v-498l64 -16v-22q-28 -8 -57 -12.5
t-60 -4.5q-22 0 -46 2.5t-45 7.5v19q27 7 42.5 24.5t15.5 48.5v209h-274v-256l63 -16v-22q-28 -8 -57 -12.5t-60 -4.5q-21 0 -45.5 2.5t-45.5 7.5z" />
    <glyph glyph-name="I" unicode="I" horiz-adv-x="299" 
d="M48 0v19q25 7 41.5 23.5t16.5 53.5v492l-63 16v22q31 8 59 12t56 4t50 -2.5t43 -7.5v-19q-32 -9 -45 -25.5t-13 -46.5v-496l63 -16v-22q-25 -7 -54 -12t-61 -5q-30 0 -51.5 2.5t-41.5 7.5z" />
    <glyph glyph-name="J" unicode="J" horiz-adv-x="291" 
d="M29 -103q32 20 54.5 65.5t22.5 110.5v515l-63 16v22q31 8 58.5 12t56.5 4q28 0 48.5 -2.5t44.5 -7.5v-19q-30 -8 -44 -24t-14 -49v-452q0 -109 -36.5 -161t-79.5 -52q-12 0 -23.5 2t-24.5 7v13z" />
    <glyph glyph-name="K" unicode="K" horiz-adv-x="557" 
d="M48 0v19q32 10 45 27.5t13 49.5v492l-63 16v22q28 8 57.5 12t56.5 4t49.5 -2.5t44.5 -7.5v-19q-31 -9 -44.5 -25t-13.5 -49v-494l63 -16v-22q-28 -8 -54.5 -12.5t-64.5 -4.5q-28 0 -49.5 2.5t-39.5 7.5zM196 319v4l237 269v1l-54 12v21q33 10 56.5 13t52.5 3q19 0 36 -2
t33 -7v-19q-21 -10 -38 -22t-35 -31l-200 -223l178 -226q25 -32 49 -50t62 -35v-20q-16 -10 -32 -16t-39 -6q-36 0 -62.5 16.5t-62.5 66.5z" />
    <glyph glyph-name="L" unicode="L" horiz-adv-x="450" 
d="M48 0v23q28 6 43 22.5t15 48.5v494l-63 16v22q28 7 57.5 11.5t55.5 4.5q30 0 50 -2t45 -8v-19q-32 -10 -45 -26t-13 -47v-481h112q43 0 69.5 13.5t39.5 41.5l11 23h25l-23 -137h-379z" />
    <glyph glyph-name="M" unicode="M" horiz-adv-x="778" 
d="M19 0v18q28 8 42.5 22.5t16.5 36.5l44 511l-58 17v29q34 4 71.5 5.5t64.5 1.5h36l157 -485h1l152 485h43q27 0 59 -1.5t62 -5.5v-29l-62 -15l44 -550l58 -11v-22q-18 -8 -43 -12.5t-54 -4.5q-34 0 -59 2t-51 8v19q31 7 45.5 26t13.5 50l-25 454h-2l-178 -555l-39 -5
l-180 559l-1 -1l-31 -501l65 -17v-22q-32 -10 -55.5 -13.5t-59.5 -3.5q-17 0 -37.5 3t-39.5 7z" />
    <glyph glyph-name="N" unicode="N" horiz-adv-x="631" 
d="M48 0v19q33 9 45.5 28.5t12.5 59.5v481l-63 17v29q28 4 57 5.5t53 1.5h37l278 -457l2 1v406l-64 16v21q25 7 50 12t50 5q30 0 47.5 -2.5t36.5 -8.5v-18q-33 -10 -45 -29t-12 -65v-524l-47 -11l-316 521l-1 -1v-462l61 -16v-22q-22 -8 -44 -12.5t-47 -4.5q-30 0 -51.5 2.5
t-39.5 7.5z" />
    <glyph glyph-name="O" unicode="O" horiz-adv-x="653" 
d="M43 301q0 156 93 251.5t209 95.5q110 0 187.5 -81.5t77.5 -219.5q0 -172 -91 -268t-210 -96q-110 0 -188 85t-78 233zM319 47q72 0 132.5 68.5t60.5 213.5q0 131 -54.5 193t-123.5 62q-72 0 -132 -70t-60 -201t54.5 -198.5t122.5 -67.5z" />
    <glyph glyph-name="P" unicode="P" horiz-adv-x="525" 
d="M192 294q15 -4 32 -6t32 -2q62 0 104.5 42t42.5 114q0 68 -43.5 106.5t-117.5 38.5q-13 0 -25 -1t-25 -2v-290zM48 0v19q29 8 43.5 25t14.5 48v493l-63 21v22q48 8 94 11t112 3q119 0 183 -49.5t64 -139.5q0 -97 -73.5 -161.5t-166.5 -64.5q-18 0 -34 4t-29 11v-197
l73 -16v-22q-23 -7 -55 -12t-66 -5q-22 0 -50 2.5t-47 7.5z" />
    <glyph glyph-name="Q" unicode="Q" horiz-adv-x="653" 
d="M278 -14q-101 15 -168 96.5t-67 218.5q0 151 91 249t211 98q112 0 188.5 -83.5t76.5 -217.5q0 -143 -66.5 -233.5t-167.5 -119.5v-1q19 -7 41 -17.5t38 -19.5l66 -38q43 -25 66 -33.5t41 -8.5q15 0 26.5 1t27.5 4v-19q-16 -25 -39 -38.5t-54 -13.5q-33 0 -67 13.5
t-71 39.5zM319 49q72 0 132.5 67.5t60.5 212.5q0 131 -54.5 192t-123.5 61q-72 0 -132 -69t-60 -200t54.5 -197.5t122.5 -66.5z" />
    <glyph glyph-name="R" unicode="R" horiz-adv-x="548" 
d="M48 0v19q29 8 43.5 25t14.5 51v491l-63 20v22q47 8 93.5 11.5t105.5 3.5q113 0 168 -43.5t55 -125.5q0 -74 -39 -122.5t-105 -68.5l141 -189q18 -24 42 -41.5t51 -26.5v-19q-14 -10 -33 -16t-43 -6q-32 0 -56 15.5t-51 55.5l-132 200h-47v-211l63 -16v-22q-25 -7 -53 -12
t-61 -5q-26 0 -49 2.5t-45 7.5zM193 304h39q58 0 100 38.5t42 116.5q0 61 -37 95t-101 34q-10 0 -21.5 -1.5t-21.5 -2.5v-280z" />
    <glyph glyph-name="S" unicode="S" horiz-adv-x="451" 
d="M35 8v145h29l7 -25q11 -41 38.5 -60t84.5 -19q55 0 93 29t38 75q0 29 -20.5 57t-66.5 55l-95 56q-46 27 -68.5 65t-22.5 87q0 74 61 124.5t148 50.5q46 0 78 -5.5t62 -17.5l-9 -141h-29l-4 20q-10 46 -34 63.5t-74 17.5q-54 0 -86 -28.5t-32 -65.5q0 -31 17 -55.5
t57 -45.5l99 -54q52 -28 78.5 -67t26.5 -87q0 -78 -66 -136.5t-156 -58.5q-47 0 -84.5 5t-69.5 16z" />
    <glyph glyph-name="T" unicode="T" horiz-adv-x="464" 
d="M130 0v19q28 8 43.5 25.5t15.5 47.5v491h-75q-34 0 -52.5 -17.5t-25.5 -49.5l-6 -23h-31v146q51 -1 123 -2t117 -1q66 0 118.5 2t107.5 6v-151h-31l-4 23q-4 33 -19 50t-45 17h-91v-538l74 -16v-22q-27 -8 -56 -12.5t-64 -4.5q-32 0 -54.5 2t-44.5 8z" />
    <glyph glyph-name="U" unicode="U" horiz-adv-x="635" 
d="M92 183v405l-64 16v22q28 7 57 11.5t57 4.5q25 0 47.5 -2t47.5 -7v-20q-32 -8 -45.5 -25t-13.5 -54v-334q0 -69 40 -109.5t107 -40.5q65 0 106.5 43t41.5 133v362l-64 16v22q28 8 54.5 12.5t52.5 4.5q24 0 43.5 -3t41.5 -8v-19q-33 -11 -45.5 -27.5t-12.5 -47.5v-300
q0 -126 -65 -189t-164 -63q-108 0 -165 52t-57 145z" />
    <glyph glyph-name="V" unicode="V" horiz-adv-x="525" 
d="M244 -9l-196 598l-54 17v21q25 8 49.5 12t49.5 4q28 0 45.5 -1.5t46.5 -7.5v-19q-24 -7 -31 -23.5t0 -38.5l120 -410h1l130 445l-63 17v21q28 8 54 12.5t54 4.5q19 0 35 -2.5t33 -7.5v-19q-20 -7 -33.5 -22.5t-23.5 -46.5l-177 -551z" />
    <glyph glyph-name="W" unicode="W" horiz-adv-x="798" 
d="M224 -9l-187 597l-55 17v21q25 8 51.5 12.5t50.5 4.5t45 -1.5t44 -7.5v-19q-23 -5 -30.5 -19t-0.5 -38l109 -403h1l106 433l-53 16v22q28 8 54.5 12t54.5 4q22 0 44 -2.5t37 -7.5v-19q-15 -5 -19.5 -17.5t0.5 -34.5l97 -405h1l110 431l-61 19v21q28 8 54 12t51 4
q20 0 35 -2.5t30 -7.5v-18q-19 -13 -31 -28.5t-19 -41.5l-164 -550l-39 -4l-139 528h-1l-138 -524z" />
    <glyph glyph-name="X" unicode="X" horiz-adv-x="519" 
d="M-11 0v19q25 8 44 22t31 33l150 246l-149 271l-54 13v22q19 7 44.5 12t50.5 5q28 0 49 -2.5t47 -8.5v-19q-19 -4 -26 -15t-2 -21l94 -189l108 200l-58 16v22q27 8 51.5 12t54.5 4q22 0 39.5 -2t37.5 -8v-19q-19 -5 -33.5 -16t-30.5 -38l-132 -217l171 -299l52 -15v-21
q-23 -7 -44 -10.5t-49 -3.5q-27 0 -48.5 1.5t-48.5 5.5v18q17 4 24.5 17t-0.5 30l-111 202l-124 -224l65 -14v-23q-34 -7 -58.5 -10t-58.5 -3q-27 0 -46 1.5t-40 5.5z" />
    <glyph glyph-name="Y" unicode="Y" horiz-adv-x="498" 
d="M147 0v19q25 6 42 22t17 50v189l-165 310l-54 16v21q24 7 50 11.5t51 4.5q27 0 46.5 -2t47.5 -7v-19q-24 -7 -32 -22t2 -37l112 -214h1l121 246l-60 17v21q28 8 53 12t51 4q21 0 36 -2t33 -7v-19q-19 -8 -30.5 -21.5t-25.5 -41.5l-151 -268v-238l64 -16v-22
q-25 -7 -53.5 -12t-63.5 -5q-28 0 -49.5 2.5t-42.5 7.5z" />
    <glyph glyph-name="Z" unicode="Z" horiz-adv-x="463" 
d="M28 0l-9 25l316 552h-175q-30 0 -50.5 -17t-31.5 -51l-7 -22h-32l12 149h389l9 -22l-314 -555h177q48 0 69 16t35 55l6 19h32l-16 -149h-410z" />
    <glyph glyph-name="bracketleft" unicode="[" horiz-adv-x="275" 
d="M157 -194h103l-8 -41h-151v942h159l-8 -42h-95v-859z" />
    <glyph glyph-name="backslash" unicode="\" horiz-adv-x="325" 
d="M255 -241l-234 951l49 10l235 -951z" />
    <glyph glyph-name="bracketright" unicode="]" horiz-adv-x="275" 
d="M24 -193h95v859h-103l8 41h151v-942h-159z" />
    <glyph glyph-name="asciicircum" unicode="^" 
d="M62 115l-42 34l244 300l238 -299l-44 -36l-197 251z" />
    <glyph glyph-name="underscore" unicode="_" horiz-adv-x="500" 
d="M0 -78h500v-51h-500v51z" />
    <glyph glyph-name="grave" unicode="`" horiz-adv-x="450" 
d="M298 515q-34 0 -89.5 51t-55.5 93q0 19 14 28.5t50 9.5q9 -43 36.5 -95.5t52.5 -80.5z" />
    <glyph glyph-name="a" unicode="a" horiz-adv-x="448" 
d="M33 96q0 66 69 114.5t191 48.5v27q0 81 -21 106t-68 25q-41 0 -80 -17t-70 -48q-1 7 -2 14.5t-1 15.5q0 48 38.5 74.5t125.5 26.5q75 0 118 -36t43 -98q0 -16 -1.5 -47.5t-2.5 -53.5l-3 -162q5 -13 16 -27t24 -24q-11 -13 -30 -27t-38 -24q-14 9 -25.5 21t-20.5 28
q-21 -20 -58 -34t-77 -14q-56 0 -91.5 31.5t-35.5 79.5zM119 111q0 -30 20 -48t58 -18q23 0 50 8t46 19v140q-84 0 -129 -30.5t-45 -70.5z" />
    <glyph glyph-name="b" unicode="b" horiz-adv-x="522" 
d="M85 4q4 22 7 49t3 49v549l-66 27v22q34 10 65 14t55 4h34l-6 -56v-226q23 20 57 33t69 13q75 0 128 -55t53 -156q0 -139 -77.5 -210.5t-178.5 -71.5q-34 0 -73.5 4.5t-69.5 10.5zM176 53q13 -4 26 -6t27 -2q69 0 119 49t50 158q0 78 -38 120.5t-89 42.5q-29 0 -52.5 -6.5
t-42.5 -17.5v-338z" />
    <glyph glyph-name="c" unicode="c" horiz-adv-x="403" 
d="M38 215q0 122 68 194.5t167 72.5q60 0 84 -17t24 -42q0 -14 -3.5 -27t-8.5 -25q-28 22 -56.5 34t-59.5 12q-51 0 -89.5 -48.5t-38.5 -135.5q0 -89 41.5 -134t99.5 -45q29 0 60 11.5t54 28.5q2 -4 3.5 -11t1.5 -14q0 -35 -37.5 -59.5t-108.5 -24.5q-81 0 -141 63t-60 167z
" />
    <glyph glyph-name="d" unicode="d" horiz-adv-x="510" 
d="M38 204q0 134 71 206t168 72q18 0 37.5 -2t31.5 -5v176l-68 27v22q34 10 68 14t56 4h32l-6 -56v-573q5 -15 14.5 -30t23.5 -28q-15 -13 -32 -24.5t-38 -22.5q-15 12 -28 28t-20 32q-24 -25 -60.5 -41t-67.5 -16q-75 0 -128.5 59t-53.5 158zM245 52q28 0 56.5 9t45.5 23
v331q-13 4 -33 7.5t-40 3.5q-63 0 -106 -51t-43 -155q0 -81 36.5 -124.5t83.5 -43.5z" />
    <glyph glyph-name="e" unicode="e" horiz-adv-x="453" 
d="M38 214q0 130 65.5 199.5t143.5 69.5q81 0 127 -50.5t46 -136.5v-29.5t-1 -34.5h-295q0 -84 43 -130.5t105 -46.5q37 0 75 12t66 31q1 -4 2.5 -11.5t1.5 -14.5q0 -34 -46.5 -60.5t-125.5 -26.5q-85 0 -146 62.5t-61 166.5zM126 284h214q0 73 -28.5 109t-72.5 36
q-41 0 -77 -43t-36 -102z" />
    <glyph glyph-name="f" unicode="f" horiz-adv-x="299" 
d="M46 0v17q19 7 36 21.5t17 32.5v334h-55v35l55 22v74q-1 79 49.5 130.5t142.5 51.5q53 0 76 -13t23 -35q0 -7 -1.5 -16.5t-3.5 -16.5q-28 10 -65.5 15.5t-67.5 5.5q-31 0 -52.5 -28t-21.5 -81q0 -11 1.5 -42.5t2.5 -47.5h128l-11 -54h-118v-363l63 -15v-19
q-25 -9 -53.5 -13t-69.5 -4q-18 0 -38 2t-37 7z" />
    <glyph glyph-name="g" unicode="g" horiz-adv-x="474" 
d="M226 167q46 0 77.5 34.5t31.5 107.5q0 63 -30 93.5t-70 30.5q-43 0 -74 -38t-31 -103q0 -63 29.5 -94t66.5 -31zM62 56q0 28 21 54t49 36v1q-34 13 -62 50.5t-28 88.5q0 84 59 141t140 57q31 0 63 -10.5t45 -22.5q13 13 38.5 22.5t49.5 9.5q13 0 24.5 -2t18.5 -4l-7 -66
q-24 5 -51 8t-56 3v-1q25 -19 41 -48.5t16 -60.5q0 -87 -61 -141t-142 -54q-16 0 -32.5 3.5t-29.5 8.5q-11 -7 -21.5 -21t-10.5 -27q0 -22 17.5 -34t46.5 -12l140 1q63 1 97 -28t34 -84q0 -71 -70 -123t-174 -52q-94 0 -142.5 34t-48.5 83q0 40 27.5 70t67.5 41v1
q-28 10 -43.5 30t-15.5 48zM102 -117q0 -31 32.5 -53.5t95.5 -22.5q71 0 114.5 29.5t43.5 65.5q0 29 -19 45t-55 16h-161q-22 -10 -36.5 -32.5t-14.5 -47.5z" />
    <glyph glyph-name="h" unicode="h" horiz-adv-x="550" 
d="M47 0v17q20 7 36.5 21.5t16.5 32.5v580l-65 27v22q34 10 64.5 14t55.5 4h32l-5 -56v-239q27 26 62.5 40.5t82.5 14.5q63 0 101.5 -39.5t38.5 -116.5v-280l52 -15v-19q-21 -8 -47.5 -12.5t-58.5 -4.5q-15 0 -32.5 2t-31.5 7v17q18 8 27 23.5t9 42.5v191q0 73 -28 104
t-74 31q-29 0 -56.5 -9t-44.5 -22v-336l56 -15v-19q-25 -9 -51.5 -13t-64.5 -4q-17 0 -37.5 2t-37.5 7z" />
    <glyph glyph-name="i" unicode="i" horiz-adv-x="272" 
d="M142 568q-22 0 -37.5 16t-15.5 41q0 23 15.5 41t41.5 18q21 0 36.5 -14.5t15.5 -39.5q0 -26 -16 -44t-40 -18zM47 0v17q20 7 36.5 21.5t16.5 32.5v338l-64 27v21q34 10 66 14.5t53 4.5h32l-5 -54v-380l56 -15v-19q-25 -9 -51.5 -13t-64.5 -4q-17 0 -37.5 2t-37.5 7z" />
    <glyph glyph-name="j" unicode="j" horiz-adv-x="258" 
d="M138 568q-22 0 -37.5 16t-15.5 41q0 23 15.5 41t41.5 18q21 0 36.5 -14.5t15.5 -39.5q0 -26 -16 -44t-40 -18zM96 -52v461l-64 27v21q34 10 66 14.5t54 4.5h32l-6 -56v-449q0 -122 -32.5 -168.5t-80.5 -46.5q-16 0 -31.5 6t-24.5 18v16q33 0 60 38t27 114z" />
    <glyph glyph-name="k" unicode="k" horiz-adv-x="471" 
d="M46 0v17q20 7 37 21.5t17 32.5v580l-66 27v22q34 10 66.5 14t53.5 4h34l-6 -56v-400l55 48q40 34 71.5 80t31.5 80q13 4 25.5 6t27.5 2q11 0 20.5 -2.5t19.5 -6.5q-1 -32 -34.5 -79.5t-101.5 -96.5l-35 -25l154 -187q21 -25 39.5 -36.5t34.5 -11.5v-21q-16 -11 -34 -16
t-40 -5q-21 0 -39 9.5t-32 28.5l-163 215v-202l52 -16v-19q-28 -9 -53 -12.5t-60 -3.5q-17 0 -37.5 2t-37.5 7z" />
    <glyph glyph-name="l" unicode="l" horiz-adv-x="268" 
d="M47 0v17q19 7 36 21.5t17 32.5v580l-65 27v22q34 10 66.5 14t53.5 4h32l-5 -56v-620l56 -15v-19q-25 -9 -52 -13t-64 -4q-18 0 -38 2t-37 7z" />
    <glyph glyph-name="m" unicode="m" horiz-adv-x="815" 
d="M47 0v17q19 7 36 21.5t17 32.5v338l-65 27v22q34 10 66 14t54 4h24v-54q26 25 64.5 40.5t82.5 15.5q35 0 66.5 -17t46.5 -44q23 23 67.5 42t86.5 19q63 0 101 -39t38 -120v-277l52 -15v-19q-21 -8 -47.5 -12.5t-58.5 -4.5q-15 0 -32.5 2t-31.5 7v17q19 8 27.5 23.5
t8.5 42.5v195q0 68 -28 99.5t-74 31.5q-27 0 -52 -6.5t-44 -16.5q3 -16 4.5 -36t1.5 -39v-269l52 -15v-19q-21 -8 -47 -12.5t-58 -4.5q-16 0 -33 2t-32 7v17q19 8 27.5 23.5t8.5 42.5v184q0 83 -24.5 112.5t-70.5 29.5q-30 0 -56.5 -9t-42.5 -22v-336l56 -15v-19
q-26 -9 -52.5 -13t-63.5 -4q-18 0 -38 2t-37 7z" />
    <glyph glyph-name="n" unicode="n" horiz-adv-x="550" 
d="M47 0v17q19 7 36 21.5t17 32.5v338l-65 27v22q34 10 66 14t54 4h24v-54q25 25 65 40.5t83 15.5q62 0 101 -39.5t39 -116.5v-280l52 -15v-19q-20 -8 -46.5 -12.5t-58.5 -4.5q-16 0 -33 2t-32 7v17q19 8 27.5 23.5t8.5 42.5v191q0 73 -28 104t-72 31q-31 0 -59 -9t-44 -22
v-336l56 -15v-19q-25 -9 -52 -13t-64 -4q-18 0 -38 2t-37 7z" />
    <glyph glyph-name="o" unicode="o" horiz-adv-x="533" 
d="M40 215q0 122 71.5 195.5t163.5 73.5t155 -63.5t63 -167.5q0 -123 -72.5 -196t-161.5 -73q-90 0 -154.5 61t-64.5 170zM131 225q0 -90 40.5 -136.5t93.5 -46.5q50 0 93.5 50t43.5 152q0 87 -40.5 134.5t-93.5 47.5q-51 0 -94 -51t-43 -150z" />
    <glyph glyph-name="p" unicode="p" horiz-adv-x="523" 
d="M176 52q13 -4 29.5 -5.5t34.5 -1.5q66 0 112.5 48.5t46.5 154.5q0 82 -40 124t-91 42q-27 0 -50 -6t-42 -17v-339zM177 1v-196l66 -14v-20q-25 -8 -56 -12t-70 -4q-18 0 -38 2t-37 7v17q19 7 36 21t17 33v574l-65 27v22q34 10 66 14t54 4h24v-46q24 22 59.5 36.5
t69.5 14.5q75 0 128.5 -54.5t53.5 -155.5q0 -139 -74 -210.5t-170 -71.5q-16 0 -34 3.5t-30 8.5z" />
    <glyph glyph-name="q" unicode="q" horiz-adv-x="508" 
d="M38 206q0 130 70.5 202.5t171.5 72.5q20 0 39 -3.5t35 -10.5l55 19h23l-6 -84v-597l58 -14v-20q-25 -8 -51.5 -12t-65.5 -4q-18 0 -38.5 2t-37.5 7v17q19 7 36 21t17 33v208q-22 -22 -59.5 -39t-70.5 -17q-72 0 -124 58t-52 161zM241 52q33 0 62 10t42 21v332
q-10 4 -31 8t-38 4q-66 0 -108.5 -51.5t-42.5 -155.5q0 -83 35 -125.5t81 -42.5z" />
    <glyph glyph-name="r" unicode="r" horiz-adv-x="336" 
d="M47 0v17q19 7 36 21.5t17 32.5v338l-65 27v22q34 10 66 14t54 4h24v-70h1l28 31q20 22 41.5 33t46.5 11q26 0 39 -11t13 -32q0 -14 -4.5 -30t-11.5 -30q-14 11 -30 17t-32 6q-23 0 -45 -10.5t-43 -30.5v-318l69 -15v-19q-25 -9 -53 -13t-71 -4q-22 0 -42.5 2t-37.5 7z
" />
    <glyph glyph-name="s" unicode="s" horiz-adv-x="370" 
d="M32 67q0 10 2.5 21.5t6.5 19.5q34 -31 67.5 -47t73.5 -16q42 0 63.5 18t21.5 44t-18.5 45t-67.5 40l-50 21q-43 19 -66.5 50t-23.5 74q0 59 48 103t126 44q60 0 86 -17t26 -45q0 -11 -1.5 -21.5t-3.5 -20.5q-24 16 -55 27t-59 11q-48 0 -71 -18.5t-23 -43.5
q0 -27 16.5 -44.5t61.5 -34.5l54 -21q54 -21 76.5 -50.5t22.5 -73.5q0 -57 -51 -102t-135 -45q-66 0 -96.5 21t-30.5 61z" />
    <glyph glyph-name="t" unicode="t" horiz-adv-x="310" 
d="M87 126q0 36 1 74.5t2 72.5l3 133h-55v33l108 107l33 4l-4 -90h132l-7 -54h-128l-2 -126q-1 -31 -1 -60v-57q0 -60 16.5 -84.5t44.5 -24.5q22 0 40.5 7t33.5 19l10 -4q-3 -44 -30 -66.5t-78 -22.5q-60 0 -89.5 33.5t-29.5 105.5z" />
    <glyph glyph-name="u" unicode="u" horiz-adv-x="531" 
d="M90 153v256l-57 28v21q34 10 62.5 14.5t49.5 4.5h33l-6 -56v-226q0 -78 24.5 -108.5t72.5 -30.5q28 0 54.5 9t43.5 20v324l-58 28v21q34 10 63 14.5t50 4.5h33l-6 -56v-338q5 -13 15.5 -26t22.5 -26q-11 -12 -30 -25t-38 -22q-15 10 -27.5 25.5t-19.5 32.5
q-19 -17 -58.5 -35t-85.5 -18q-63 0 -100.5 39t-37.5 125z" />
    <glyph glyph-name="v" unicode="v" horiz-adv-x="414" 
d="M191 -14l-170 437l-41 29v24h191v-24l-57 -24l108 -317h1l111 314l-57 27v24h154v-24l-28 -23l-178 -441z" />
    <glyph glyph-name="w" unicode="w" horiz-adv-x="667" 
d="M173 -14l-150 436l-43 30v24h194v-24l-58 -24l89 -321h1l99 319l-55 26v24h170v-24l-29 -22l90 -322h1l103 317l-57 27v24h154v-24l-27 -22l-168 -442l-42 -2l-111 368h-1l-115 -366z" />
    <glyph glyph-name="x" unicode="x" horiz-adv-x="426" 
d="M-10 0v17q19 6 35.5 18t26.5 27l120 173l-122 192l-44 25v24h180v-24l-44 -19l83 -153l87 148l-53 24v24h153v-24l-30 -22l-125 -180l135 -208l42 -15v-19q-21 -8 -42.5 -12.5t-50.5 -4.5q-22 0 -40 2.5t-33 6.5v17q20 7 25.5 17t-0.5 20l-90 143l-95 -156l54 -14v-19
q-26 -9 -49 -13t-55 -4q-17 0 -34.5 2.5t-33.5 6.5z" />
    <glyph glyph-name="y" unicode="y" horiz-adv-x="399" 
d="M161 -15l17 45l-158 393l-38 29v24h184v-24l-54 -24l106 -305h1l95 302l-56 27v24h150v-24l-25 -22l-141 -390q-59 -164 -115 -224.5t-94 -60.5q-30 0 -45.5 16.5t-15.5 61.5q10 -2 21 -3t24 -1q31 0 72 37.5t72 118.5z" />
    <glyph glyph-name="z" unicode="z" horiz-adv-x="390" 
d="M17 15l246 400h-117q-29 0 -47 -12t-25 -31l-9 -25h-30l11 125l320 -1l8 -18l-243 -397h123q39 0 56.5 9.5t26.5 28.5l16 33h27l-14 -127h-341z" />
    <glyph glyph-name="braceleft" unicode="{" horiz-adv-x="275" 
d="M107 97q0 38 -33 70t-105 57v22q67 13 102.5 40t35.5 61v247q0 53 29.5 87t77.5 34q21 0 32 -9.5t11 -27.5q-50 0 -72.5 -20.5t-22.5 -53.5v-249q0 -49 -38.5 -81.5t-118.5 -38.5v-1q86 -6 121.5 -37.5t35.5 -80.5v-241q0 -38 25.5 -59.5t75.5 -21.5q0 -17 -12 -27.5
t-34 -10.5q-52 0 -81 29t-29 74v238z" />
    <glyph glyph-name="bar" unicode="|" horiz-adv-x="300" 
d="M123 -264v1000h54v-1000h-54z" />
    <glyph glyph-name="braceright" unicode="}" horiz-adv-x="275" 
d="M115 115q0 49 38.5 81.5t118.5 38.5v1q-86 6 -121.5 37.5t-35.5 80.5v241q0 38 -25.5 59.5t-75.5 21.5q0 17 12 27.5t34 10.5q52 0 81 -29t29 -74v-238q0 -38 33 -70t105 -57v-22q-67 -13 -102.5 -40t-35.5 -61v-247q0 -53 -29.5 -87t-77.5 -34q-21 0 -32 9.5t-11 27.5
q50 0 72.5 20.5t22.5 53.5v249z" />
    <glyph glyph-name="asciitilde" unicode="~" 
d="M136 211q-11 9 -18 22.5t-7 29.5q0 24 17.5 38.5t49.5 14.5q16 0 33 -3.5t36 -9.5l48 -13q12 -4 25 -6t23 -2q18 0 33 15t15 34q11 -10 18 -23.5t7 -29.5q0 -25 -21 -42t-49 -17q-16 0 -33.5 3t-33.5 7l-49 15q-14 4 -26.5 6.5t-22.5 2.5q-18 0 -31.5 -13t-13.5 -29z" />
    <glyph glyph-name="uni00A0" unicode="&#xa0;" horiz-adv-x="196" 
 />
    <glyph glyph-name="exclamdown" unicode="&#xa1;" horiz-adv-x="305" 
d="M159 368q-24 0 -41 17t-17 41t17 41t41 17t41 -17t17 -41t-17 -41t-41 -17zM50 -199l30 70l33 187q4 26 7 62.5t3 61.5q0 32 -4 61.5t-11 54.5q37 0 64.5 -32t27.5 -97q0 -52 -14.5 -134.5t-14.5 -136.5q0 -22 3.5 -42t10.5 -39q-34 -8 -66 -12t-69 -4z" />
    <glyph glyph-name="cent" unicode="&#xa2;" 
d="M172 233q0 -85 38 -130t93 -49v363h-3q-51 0 -89.5 -48.5t-38.5 -135.5zM85 215q0 117 62.5 188.5t155.5 77.5v85h32v-84q51 -2 72 -19t21 -40q0 -14 -3.5 -27t-8.5 -25q-20 16 -40 26.5t-41 15.5v-358q25 4 49 14.5t43 24.5q2 -4 3.5 -11t1.5 -14q0 -28 -25 -50.5
t-72 -29.5v-81h-32v78q-4 -1 -8.5 -1h-8.5q-81 0 -141 63t-60 167z" />
    <glyph glyph-name="sterling" unicode="&#xa3;" 
d="M67 0v23q31 8 44.5 24.5t13.5 49.5l9 198h-58v39l61 12l5 146q2 68 59.5 112.5t137.5 44.5q70 0 98 -11t28 -30q0 -10 -3 -22t-8 -24q-27 16 -62.5 24t-69.5 8q-43 0 -71 -26t-30 -73l-6 -148h177l-7 -52h-172l-7 -236h143q42 0 63.5 14.5t34.5 39.5l10 19h28l-21 -132
h-397z" />
    <glyph glyph-name="currency" unicode="&#xa4;" 
d="M110 162l-36 36l44 43q-16 22 -25.5 49.5t-9.5 57.5t9.5 57t26.5 49l-45 44l36 36l44 -45q22 16 49 26t57 10t57 -9.5t49 -26.5l44 45l36 -36l-45 -44q16 -22 26 -49t10 -57t-9.5 -57.5t-25.5 -49.5l44 -43l-36 -36l-44 44q-22 -16 -49 -25.5t-57 -9.5t-57 9.5t-49 26.5z
M260 227q50 0 85.5 35.5t35.5 85.5t-35.5 85.5t-85.5 35.5t-85.5 -35.5t-35.5 -85.5t35.5 -85.5t85.5 -35.5z" />
    <glyph glyph-name="yen" unicode="&#xa5;" 
d="M162 0v19q25 6 42 22t17 50v69h-159v41h159v50h-159v41h153l-155 298l-54 16v21q24 7 50 11.5t51 4.5q27 0 46.5 -2t47.5 -7v-19q-24 -7 -32 -22t2 -37l108 -214h1l117 246l-60 17v21q28 8 53 12t51 4q21 0 36 -2t33 -7v-19q-19 -8 -30.5 -21.5t-25.5 -41.5l-144 -259
h162v-41h-167v-50h167v-41h-167v-115l64 -16v-22q-25 -7 -52.5 -12t-62.5 -5q-28 0 -49.5 2.5t-42.5 7.5z" />
    <glyph glyph-name="brokenbar" unicode="&#xa6;" horiz-adv-x="300" 
d="M123 322v414h54v-414h-54zM123 151h54v-415h-54v415z" />
    <glyph glyph-name="section" unicode="&#xa7;" horiz-adv-x="500" 
d="M290 133q31 -42 48 -83.5t17 -90.5q0 -38 -17.5 -76t-39.5 -60q25 0 60.5 52.5t35.5 128.5q0 46 -15.5 84.5t-46.5 77.5l-99 126q-40 50 -56 87t-16 76q0 47 17 82.5t45 54.5q-36 0 -71 -46t-35 -113q0 -36 16 -76t49 -83zM72 -77h29l7 -25q11 -41 42 -61.5t73 -20.5
q33 0 60.5 32.5t27.5 90.5q0 43 -17.5 84t-48.5 83l-107 142q-36 47 -52 89.5t-16 83.5q0 89 63.5 156t154.5 67q46 0 74 -5.5t58 -17.5l-9 -141h-29l-4 20q-10 46 -33.5 63t-63.5 17q-33 0 -56 -33t-23 -78q0 -30 18.5 -67t55.5 -85l102 -131q29 -37 45.5 -79t16.5 -92
q0 -104 -73 -181t-165 -77q-37 0 -69.5 7t-60.5 22v137z" />
    <glyph glyph-name="dieresis" unicode="&#xa8;" horiz-adv-x="450" 
d="M154 568q-20 0 -34 14t-14 34t14 34t34 14t34 -14t14 -34t-14 -34t-34 -14zM310 568q-20 0 -34 14t-14 34t14 34t34 14t34 -14t14 -34t-14 -34t-34 -14z" />
    <glyph glyph-name="copyright" unicode="&#xa9;" horiz-adv-x="850" 
d="M89 313q0 138 101 238t239 100q139 0 235.5 -96t96.5 -234t-100.5 -239t-239.5 -101t-235.5 96.5t-96.5 235.5zM143 317q0 -121 82.5 -207t199.5 -86t199.5 86t82.5 207q0 119 -83 205t-199 86q-117 0 -199.5 -86t-82.5 -205zM260 319q0 90 60 146t130 56q31 0 59 -6
t45 -16l-9 -84h-16l-5 16q-7 22 -27.5 35.5t-52.5 13.5q-40 0 -73 -40.5t-33 -112.5q0 -73 33.5 -111t73.5 -38q32 0 52 12t28 37l5 16h16l-5 -82q-25 -13 -50.5 -20t-59.5 -7q-64 0 -117.5 50.5t-53.5 134.5z" />
    <glyph glyph-name="ordfeminine" unicode="&#xaa;" horiz-adv-x="316" 
d="M114 315q-40 0 -65.5 21t-25.5 52q0 43 48.5 74t133.5 31v17q0 51 -14.5 67t-45.5 16q-27 0 -55 -11.5t-50 -32.5q-1 6 -2 12.5t-1 12.5q0 31 27 48t90 17q57 0 87.5 -23.5t30.5 -64.5q0 -10 -1.5 -31t-1.5 -35l-2 -104q4 -8 11.5 -17t16.5 -16q-7 -9 -23 -18.5
t-31 -16.5q-10 6 -18.5 14.5t-14.5 17.5q-13 -10 -41 -20t-53 -10zM143 357q16 0 33 4t29 11v89q-54 0 -84 -19t-30 -44q0 -19 13.5 -30t38.5 -11z" />
    <glyph glyph-name="guillemotleft" unicode="&#xab;" horiz-adv-x="450" 
d="M279 138l-65 115l54 79q41 60 69.5 83.5t45.5 23.5q14 0 26 -4.5t25 -14.5q-31 -25 -62 -57.5t-55 -63.5l-29 -38l48 -80q19 -31 41 -57.5t44 -47.5q-13 -5 -27.5 -8.5t-30.5 -3.5q-19 0 -39 15.5t-45 58.5zM101 138l-65 115l54 79q41 60 69.5 83.5t45.5 23.5
q14 0 26 -4.5t25 -14.5q-31 -25 -62 -57.5t-55 -63.5l-29 -38l48 -80q19 -31 41 -57.5t44 -47.5q-13 -5 -27.5 -8.5t-30.5 -3.5q-19 0 -39 15.5t-45 58.5z" />
    <glyph glyph-name="logicalnot" unicode="&#xac;" 
d="M49 264v51h421v-196h-55v145h-366z" />
    <glyph glyph-name="uni00AD" unicode="&#xad;" horiz-adv-x="304" 
d="M29 231l19 73l231 10l-14 -72z" />
    <glyph glyph-name="registered" unicode="&#xae;" horiz-adv-x="850" 
d="M89 313q0 138 101 238t239 100q139 0 235.5 -96t96.5 -234t-100.5 -239t-239.5 -101t-235.5 96.5t-96.5 235.5zM143 317q0 -121 82.5 -207t199.5 -86t199.5 86t82.5 207q0 119 -83 205t-199 86q-117 0 -199.5 -86t-82.5 -205zM279 148v14q17 5 25.5 15.5t8.5 29.5v270
l-37 11v17q28 5 67.5 8t83.5 3q70 0 105.5 -27.5t35.5 -70.5q0 -37 -24.5 -67.5t-64.5 -42.5l55 -73q19 -26 40.5 -41t43.5 -22v-11q-10 -10 -25.5 -16.5t-32.5 -6.5q-22 0 -45.5 15.5t-51.5 60.5l-44 69h-40v-107l40 -12v-12q-18 -7 -35.5 -10t-34.5 -3q-18 0 -35.5 2.5
t-34.5 6.5zM379 316h28q36 0 62.5 23.5t26.5 66.5q0 32 -22 51t-59 19q-7 0 -17.5 -0.5t-18.5 -1.5v-158z" />
    <glyph glyph-name="macron" unicode="&#xaf;" horiz-adv-x="450" 
d="M92 575v59h266v-59h-266z" />
    <glyph glyph-name="degree" unicode="&#xb0;" horiz-adv-x="440" 
d="M219 368q-57 0 -99 40.5t-42 97.5q0 58 42 101t100 43t100.5 -41t42.5 -101q0 -57 -43.5 -98.5t-100.5 -41.5zM220 411q36 0 64 28.5t28 67.5q0 40 -28.5 70t-63.5 30q-36 0 -63.5 -30t-27.5 -69t27.5 -68t63.5 -29z" />
    <glyph glyph-name="plusminus" unicode="&#xb1;" 
d="M233 119v145h-184v51h184v136h55v-136h182v-51h-182v-145h-55zM49 0v52h421v-52h-421z" />
    <glyph glyph-name="twosuperior" unicode="&#xb2;" horiz-adv-x="326" 
d="M27 323l-4 33l128 103q28 22 42 44.5t14 42.5q0 25 -18.5 40t-49.5 15q-26 0 -51 -12.5t-46 -33.5q-4 7 -6 15t-2 18q0 21 28 38.5t91 17.5q66 0 97.5 -24.5t31.5 -58.5q0 -33 -20.5 -62.5t-64.5 -60.5l-97 -69h67q39 0 69.5 4t62.5 12q2 -6 3.5 -12.5t1.5 -16.5
q0 -18 -14.5 -27t-53.5 -9q-28 0 -91 1.5t-118 1.5z" />
    <glyph glyph-name="threesuperior" unicode="&#xb3;" horiz-adv-x="326" 
d="M140 315q-60 0 -82.5 11t-22.5 30q0 7 2.5 13t6.5 13q19 -12 45 -21t48 -9q35 0 58.5 15.5t23.5 38.5q0 21 -25.5 35.5t-82.5 14.5q-7 0 -15.5 -0.5t-15.5 -1.5l-7 40h26q44 -1 78 17.5t34 46.5q0 21 -16.5 32.5t-46.5 11.5q-24 0 -50 -10t-43 -24q-4 7 -6 15.5t-2 17.5
q0 16 28.5 29.5t88.5 13.5q61 0 91 -21t30 -52q0 -30 -30 -54.5t-76 -32.5v-1q56 0 85.5 -19.5t29.5 -50.5q0 -41 -44.5 -69.5t-109.5 -28.5z" />
    <glyph glyph-name="acute" unicode="&#xb4;" horiz-adv-x="450" 
d="M152 515l-8 6q25 28 52.5 80.5t36.5 95.5q36 0 50 -9.5t14 -28.5q0 -42 -55.5 -93t-89.5 -51z" />
    <glyph glyph-name="uni00B5" unicode="&#xb5;" horiz-adv-x="535" 
d="M175 7v-246h-81v648l-57 28v21q34 10 62.5 14.5t49.5 4.5h33l-6 -56v-226q0 -78 24.5 -108.5t72.5 -30.5q28 0 54.5 9t43.5 20v324l-58 28v21q34 10 63 14.5t50 4.5h33l-6 -56v-338q5 -13 15.5 -26t22.5 -26q-11 -12 -30 -25t-38 -22q-15 10 -27.5 25.5t-19.5 32.5
q-19 -17 -55.5 -35t-82.5 -18q-17 0 -33.5 5t-29.5 13z" />
    <glyph glyph-name="paragraph" unicode="&#xb6;" horiz-adv-x="500" 
d="M221 211q-66 0 -113 46.5t-47 133.5q0 113 78.5 182.5t185.5 69.5q39 0 83.5 -3.5t82.5 -9.5v-19q-27 -7 -43 -21.5t-16 -48.5v-723l68 -19v-22q-35 -10 -71.5 -15.5t-73.5 -5.5q-29 0 -58 3.5t-57 10.5v19q27 7 42.5 24.5t15.5 48.5v367q-14 -8 -36 -13t-41 -5z
M344 -200h43v800h-43v-800z" />
    <glyph glyph-name="periodcentered" unicode="&#xb7;" horiz-adv-x="275" 
d="M138 189q-24 0 -41 17t-17 41t17 41t41 17t41 -17t17 -41t-17 -41t-41 -17z" />
    <glyph glyph-name="cedilla" unicode="&#xb8;" horiz-adv-x="270" 
d="M143 6h34v-58q37 0 56.5 -16t19.5 -40q0 -40 -40 -72.5t-89 -32.5q-35 0 -54.5 19.5t-19.5 54.5q19 -12 39.5 -19t42.5 -7q25 0 40 13t15 26q0 16 -13.5 26t-47.5 10z" />
    <glyph glyph-name="onesuperior" unicode="&#xb9;" horiz-adv-x="326" 
d="M65 323v12q33 7 53 25t20 48v189l-76 -5v26q22 10 57 16.5t63 6.5h15t14 -1q-2 -11 -4 -25t-2 -24v-227l77 -15v-8q-20 -12 -52.5 -19.5t-72.5 -7.5q-24 0 -49 2.5t-43 6.5z" />
    <glyph glyph-name="ordmasculine" unicode="&#xba;" horiz-adv-x="381" 
d="M183 312q-66 0 -111 42t-45 109q0 80 53 127.5t120 47.5q66 0 109.5 -41.5t43.5 -105.5q0 -86 -54 -132.5t-116 -46.5zM187 354q33 0 61 30.5t28 99.5q0 55 -24.5 83.5t-58.5 28.5t-61.5 -31t-27.5 -97q0 -55 24.5 -84.5t58.5 -29.5z" />
    <glyph glyph-name="guillemotright" unicode="&#xbb;" horiz-adv-x="450" 
d="M193 84q31 25 62.5 57.5t54.5 63.5l29 38l-48 80q-19 31 -40.5 57.5t-43.5 47.5q13 5 27 8.5t31 3.5q19 0 38.5 -15.5t44.5 -58.5l66 -115l-55 -79q-41 -60 -69.5 -83.5t-44.5 -23.5q-15 0 -27 4.5t-25 14.5zM16 84q31 25 62.5 57.5t54.5 63.5l29 38l-48 80
q-19 31 -40.5 57.5t-43.5 47.5q13 5 27 8.5t31 3.5q19 0 38.5 -15.5t44.5 -58.5l66 -115l-55 -79q-41 -60 -69.5 -83.5t-44.5 -23.5q-15 0 -27 4.5t-25 14.5z" />
    <glyph glyph-name="onequarter" unicode="&#xbc;" horiz-adv-x="712" 
d="M127 -33l429 717l37 -21l-429 -717zM73 323v12q33 7 53 25t20 48v189l-76 -5v26q22 10 57 16.5t63 6.5h15t14 -1q-2 -11 -4 -25t-2 -24v-227l77 -15v-8q-20 -12 -52.5 -19.5t-72.5 -7.5q-24 0 -49 2.5t-43 6.5zM361 71q0 71 65 147t153 99h31q-3 -22 -5 -49t-2 -52v-99
h17q8 0 15.5 1.5t14.5 5.5q2 -6 3 -11t1 -12q0 -16 -8.5 -23.5t-28.5 -7.5h-15v-44l47 -12v-11q-17 -7 -37.5 -9.5t-39.5 -2.5q-13 0 -39.5 2.5t-39.5 6.5v12q16 3 29.5 12t13.5 23v24h-175zM416 117h122v78q0 19 1 36.5t2 30.5l-1 1q-39 -19 -76 -63t-48 -83z" />
    <glyph glyph-name="onehalf" unicode="&#xbd;" horiz-adv-x="712" 
d="M115 -33l429 717l37 -21l-429 -717zM73 323v12q33 7 53 25t20 48v189l-76 -5v26q22 10 57 16.5t63 6.5h15t14 -1q-2 -11 -4 -25t-2 -24v-227l77 -15v-8q-20 -12 -52.5 -21.5t-72.5 -9.5q-24 0 -49 4.5t-43 8.5zM395 0l-4 33l128 103q28 22 42 44.5t14 42.5q0 25 -18.5 40
t-49.5 15q-26 0 -51 -12.5t-46 -33.5q-4 7 -6 15t-2 18q0 21 28 38.5t91 17.5q66 0 97.5 -24.5t31.5 -58.5q0 -33 -20.5 -62.5t-64.5 -60.5l-97 -69h67q39 0 69.5 4t62.5 12q2 -6 3.5 -12.5t1.5 -16.5q0 -18 -14.5 -27t-53.5 -9q-28 0 -91 1.5t-118 1.5z" />
    <glyph glyph-name="threequarters" unicode="&#xbe;" horiz-adv-x="712" 
d="M123 -33l429 717l37 -21l-429 -717zM43 356q0 7 2.5 13t6.5 13q19 -12 45 -21t48 -9q35 0 58.5 15.5t23.5 38.5q0 21 -25.5 35.5t-82.5 14.5q-7 0 -15.5 -0.5t-15.5 -1.5l-7 40h26q44 -1 78 17.5t34 46.5q0 21 -16.5 32.5t-46.5 11.5q-24 0 -50 -10t-43 -24q-4 7 -6 15.5
t-2 17.5q0 16 28.5 29.5t88.5 13.5q61 0 91 -21t30 -52q0 -30 -30 -54.5t-76 -32.5v-1q56 0 85.5 -19.5t29.5 -50.5q0 -41 -44.5 -69.5t-109.5 -28.5q-60 0 -82.5 11t-22.5 30zM361 71q0 71 65 147t153 99h31q-3 -22 -5 -49t-2 -52v-99h17q8 0 15.5 1.5t14.5 5.5q2 -6 3 -11
t1 -12q0 -16 -8.5 -23.5t-28.5 -7.5h-15v-44l47 -12v-11q-17 -7 -37.5 -9.5t-39.5 -2.5q-13 0 -39.5 2.5t-39.5 6.5v12q16 3 29.5 12t13.5 23v24h-175zM416 117h122v78q0 19 1 36.5t2 30.5l-1 1q-39 -19 -76 -63t-48 -83z" />
    <glyph glyph-name="questiondown" unicode="&#xbf;" horiz-adv-x="435" 
d="M259 369q-24 0 -41 17t-17 41t17 41t41 17t41 -17t17 -41t-17 -41t-41 -17zM31 -68q0 40 29.5 82t127.5 120l60 48q-5 27 -15 54t-23 50q6 1 13 2.5t13 1.5q29 0 51 -20.5t22 -52.5q0 -25 -13.5 -49t-53.5 -61l-65 -59q-28 -25 -42 -50.5t-14 -52.5q0 -40 25.5 -62
t71.5 -22q39 0 77 28t58 65q7 -9 12 -23.5t5 -32.5q0 -40 -39.5 -68.5t-127.5 -28.5q-79 0 -125.5 36t-46.5 95z" />
    <glyph glyph-name="Agrave" unicode="&#xc0;" horiz-adv-x="541" 
d="M-14 0v19q23 8 36 21.5t23 42.5l198 554l70 9l184 -601l52 -17v-21q-22 -9 -47 -13t-52 -4q-28 0 -52.5 2t-51.5 8v19q29 7 40 21.5t6 33.5l-34 124h-202l-46 -156l59 -13v-22q-28 -9 -52 -13t-58 -4q-16 0 -35 2.5t-38 7.5zM173 252h172l-79 288h-1zM332 665
q-34 0 -89.5 51t-55.5 93q0 19 14 28.5t50 9.5q9 -43 36.5 -95.5t52.5 -80.5z" />
    <glyph glyph-name="Aacute" unicode="&#xc1;" horiz-adv-x="541" 
d="M-14 0v19q23 8 36 21.5t23 42.5l198 554l70 9l184 -601l52 -17v-21q-22 -9 -47 -13t-52 -4q-28 0 -52.5 2t-51.5 8v19q29 7 40 21.5t6 33.5l-34 124h-202l-46 -156l59 -13v-22q-28 -9 -52 -13t-58 -4q-16 0 -35 2.5t-38 7.5zM173 252h172l-79 288h-1zM227 665l-8 6
q25 28 52.5 80.5t36.5 95.5q36 0 50 -9.5t14 -28.5q0 -42 -55.5 -93t-89.5 -51z" />
    <glyph glyph-name="Acircumflex" unicode="&#xc2;" horiz-adv-x="541" 
d="M-14 0v19q23 8 36 21.5t23 42.5l198 554l70 9l184 -601l52 -17v-21q-22 -9 -47 -13t-52 -4q-28 0 -52.5 2t-51.5 8v19q29 7 40 21.5t6 33.5l-34 124h-202l-46 -156l59 -13v-22q-28 -9 -52 -13t-58 -4q-16 0 -35 2.5t-38 7.5zM173 252h172l-79 288h-1zM174 678
q-13 7 -22 16t-16 22l134 127l36 6l141 -154l-14 -14q-27 0 -49.5 10t-47.5 35q-14 14 -27 31t-22 35z" />
    <glyph glyph-name="Atilde" unicode="&#xc3;" horiz-adv-x="541" 
d="M-14 0v19q23 8 36 21.5t23 42.5l198 554l70 9l184 -601l52 -17v-21q-22 -9 -47 -13t-52 -4q-28 0 -52.5 2t-51.5 8v19q29 7 40 21.5t6 33.5l-34 124h-202l-46 -156l59 -13v-22q-28 -9 -52 -13t-58 -4q-16 0 -35 2.5t-38 7.5zM173 252h172l-79 288h-1zM157 691
q-11 9 -18 23t-7 30q0 24 17.5 38t49.5 14q16 0 33 -3t36 -9l48 -14q12 -4 25 -6t23 -2q18 0 33 15t15 34q11 -10 18 -23t7 -29q0 -25 -21 -42.5t-49 -17.5q-16 0 -33.5 3t-33.5 8l-49 15q-14 4 -26.5 6t-22.5 2q-18 0 -31.5 -13t-13.5 -29z" />
    <glyph glyph-name="Adieresis" unicode="&#xc4;" horiz-adv-x="541" 
d="M-14 0v19q23 8 36 21.5t23 42.5l198 554l70 9l184 -601l52 -17v-21q-22 -9 -47 -13t-52 -4q-28 0 -52.5 2t-51.5 8v19q29 7 40 21.5t6 33.5l-34 124h-202l-46 -156l59 -13v-22q-28 -9 -52 -13t-58 -4q-16 0 -35 2.5t-38 7.5zM173 252h172l-79 288h-1zM200 684
q-20 0 -34 14t-14 34t14 34t34 14t34 -14t14 -34t-14 -34t-34 -14zM356 684q-20 0 -34 14t-14 34t14 34t34 14t34 -14t14 -34t-14 -34t-34 -14z" />
    <glyph glyph-name="Aring" unicode="&#xc5;" horiz-adv-x="541" 
d="M-14 0v19q23 8 36 21.5t23 42.5l198 554l70 9l184 -601l52 -17v-21q-22 -9 -47 -13t-52 -4q-28 0 -52.5 2t-51.5 8v19q29 7 40 21.5t6 33.5l-34 124h-202l-46 -156l59 -13v-22q-28 -9 -52 -13t-58 -4q-16 0 -35 2.5t-38 7.5zM173 252h172l-79 288h-1zM270 654
q-37 0 -62.5 23.5t-25.5 62.5q0 37 25.5 63.5t60.5 26.5q38 0 64 -24t26 -64q0 -37 -26 -62.5t-62 -25.5zM270 688q22 0 34.5 14t12.5 38q0 25 -13.5 40.5t-34.5 15.5t-34 -16t-13 -40q0 -23 14.5 -37.5t33.5 -14.5z" />
    <glyph glyph-name="AE" unicode="&#xc6;" horiz-adv-x="706" 
d="M194 252h149v320h-1zM-11 0v19q19 8 30.5 23.5t24.5 40.5l274 553h339l-8 -147h-29l-3 18q-6 37 -23.5 53.5t-63.5 16.5h-100v-230h102q30 0 46.5 9t22.5 28l7 24h27v-189h-27l-5 23q-5 25 -18.5 38t-32.5 13h-122v-234h119q42 0 63.5 14.5t34.5 39.5l10 19h28l-21 -132
h-379v23q31 8 44.5 24.5t13.5 49.5v104h-170l-68 -159l63 -13v-22q-28 -9 -52 -13t-58 -4q-16 0 -33 2.5t-36 7.5z" />
    <glyph glyph-name="Ccedilla" unicode="&#xc7;" horiz-adv-x="540" 
d="M192 -141q19 -12 39.5 -19t42.5 -7q25 0 40 13t15 26q0 16 -13.5 26t-47.5 10l13 77q-98 10 -168 89.5t-70 224.5q0 157 91.5 252.5t209.5 95.5q51 0 86.5 -7t61.5 -20l-8 -139h-27l-4 18q-12 46 -37.5 66.5t-79.5 20.5q-74 0 -134.5 -72t-60.5 -202q0 -138 58.5 -202.5
t127.5 -64.5q55 0 85.5 18.5t46.5 58.5l10 24h27l-10 -132q-27 -13 -70 -21.5t-97 -9.5v-37q37 0 56.5 -16t19.5 -40q0 -40 -40 -72.5t-89 -32.5q-35 0 -54.5 19.5t-19.5 54.5z" />
    <glyph glyph-name="Egrave" unicode="&#xc8;" horiz-adv-x="469" 
d="M48 0v23q31 8 44.5 24.5t13.5 49.5v489l-63 27v23h377l-8 -147h-29l-3 18q-6 37 -23.5 53.5t-63.5 16.5h-100v-230h102q30 0 46.5 9t22.5 28l7 24h27v-189h-27l-5 23q-5 25 -18.5 38t-32.5 13h-122v-234h119q42 0 63.5 14.5t34.5 39.5l10 19h28l-21 -132h-379zM299 665
q-34 0 -89.5 51t-55.5 93q0 19 14 28.5t50 9.5q9 -43 36.5 -95.5t52.5 -80.5z" />
    <glyph glyph-name="Eacute" unicode="&#xc9;" horiz-adv-x="469" 
d="M48 0v23q31 8 44.5 24.5t13.5 49.5v489l-63 27v23h377l-8 -147h-29l-3 18q-6 37 -23.5 53.5t-63.5 16.5h-100v-230h102q30 0 46.5 9t22.5 28l7 24h27v-189h-27l-5 23q-5 25 -18.5 38t-32.5 13h-122v-234h119q42 0 63.5 14.5t34.5 39.5l10 19h28l-21 -132h-379zM218 665
l-8 6q25 28 52.5 80.5t36.5 95.5q36 0 50 -9.5t14 -28.5q0 -42 -55.5 -93t-89.5 -51z" />
    <glyph glyph-name="Ecircumflex" unicode="&#xca;" horiz-adv-x="469" 
d="M48 0v23q31 8 44.5 24.5t13.5 49.5v489l-63 27v23h377l-8 -147h-29l-3 18q-6 37 -23.5 53.5t-63.5 16.5h-100v-230h102q30 0 46.5 9t22.5 28l7 24h27v-189h-27l-5 23q-5 25 -18.5 38t-32.5 13h-122v-234h119q42 0 63.5 14.5t34.5 39.5l10 19h28l-21 -132h-379zM143 678
q-13 7 -22 16t-16 22l134 127l36 6l141 -154l-14 -14q-27 0 -49.5 10t-47.5 35q-14 14 -27 31t-22 35z" />
    <glyph glyph-name="Edieresis" unicode="&#xcb;" horiz-adv-x="469" 
d="M48 0v23q31 8 44.5 24.5t13.5 49.5v489l-63 27v23h377l-8 -147h-29l-3 18q-6 37 -23.5 53.5t-63.5 16.5h-100v-230h102q30 0 46.5 9t22.5 28l7 24h27v-189h-27l-5 23q-5 25 -18.5 38t-32.5 13h-122v-234h119q42 0 63.5 14.5t34.5 39.5l10 19h28l-21 -132h-379zM181 706
q-20 0 -34 14t-14 34t14 34t34 14t34 -14t14 -34t-14 -34t-34 -14zM337 706q-20 0 -34 14t-14 34t14 34t34 14t34 -14t14 -34t-14 -34t-34 -14z" />
    <glyph glyph-name="Igrave" unicode="&#xcc;" horiz-adv-x="299" 
d="M48 0v19q25 7 41.5 23.5t16.5 53.5v492l-63 16v22q31 8 59 12t56 4t50 -2.5t43 -7.5v-19q-32 -9 -45 -25.5t-13 -46.5v-496l63 -16v-22q-25 -7 -54 -12t-61 -5q-30 0 -51.5 2.5t-41.5 7.5zM208 665q-34 0 -89.5 51t-55.5 93q0 19 14 28.5t50 9.5q9 -43 36.5 -95.5
t52.5 -80.5z" />
    <glyph glyph-name="Iacute" unicode="&#xcd;" horiz-adv-x="299" 
d="M48 0v19q25 7 41.5 23.5t16.5 53.5v492l-63 16v22q31 8 59 12t56 4t50 -2.5t43 -7.5v-19q-32 -9 -45 -25.5t-13 -46.5v-496l63 -16v-22q-25 -7 -54 -12t-61 -5q-30 0 -51.5 2.5t-41.5 7.5zM95 665l-8 6q25 28 52.5 80.5t36.5 95.5q36 0 50 -9.5t14 -28.5q0 -42 -55.5 -93
t-89.5 -51z" />
    <glyph glyph-name="Icircumflex" unicode="&#xce;" horiz-adv-x="299" 
d="M48 0v19q25 7 41.5 23.5t16.5 53.5v492l-63 16v22q31 8 59 12t56 4t50 -2.5t43 -7.5v-19q-32 -9 -45 -25.5t-13 -46.5v-496l63 -16v-22q-25 -7 -54 -12t-61 -5q-30 0 -51.5 2.5t-41.5 7.5zM35 678q-13 7 -22 16t-16 22l134 127l36 6l141 -154l-14 -14q-27 0 -49.5 10
t-47.5 35q-14 14 -27 31t-22 35z" />
    <glyph glyph-name="Idieresis" unicode="&#xcf;" horiz-adv-x="299" 
d="M48 0v19q25 7 41.5 23.5t16.5 53.5v492l-63 16v22q31 8 59 12t56 4t50 -2.5t43 -7.5v-19q-32 -9 -45 -25.5t-13 -46.5v-496l63 -16v-22q-25 -7 -54 -12t-61 -5q-30 0 -51.5 2.5t-41.5 7.5zM81 706q-20 0 -34 14t-14 34t14 34t34 14t34 -14t14 -34t-14 -34t-34 -14z
M237 706q-20 0 -34 14t-14 34t14 34t34 14t34 -14t14 -34t-14 -34t-34 -14z" />
    <glyph glyph-name="Eth" unicode="&#xd0;" horiz-adv-x="638" 
d="M48 0v19q27 8 42.5 25t15.5 51v204h-82v51h82v235l-63 21v22q49 8 95.5 11t107.5 3q157 0 253 -78t96 -221q0 -164 -109 -258.5t-255 -94.5q-59 0 -97.5 1.5t-85.5 8.5zM192 53q13 -1 24.5 -2.5t24.5 -1.5q105 0 181 72t76 205q0 124 -73.5 191t-180.5 67q-12 0 -25.5 -1
t-26.5 -2v-231h145v-51h-145v-246z" />
    <glyph glyph-name="Ntilde" unicode="&#xd1;" horiz-adv-x="631" 
d="M48 0v19q33 9 45.5 28.5t12.5 59.5v481l-63 17v29q28 4 57 5.5t53 1.5h37l278 -457l2 1v406l-64 16v21q25 7 50 12t50 5q30 0 47.5 -2.5t36.5 -8.5v-18q-33 -10 -45 -29t-12 -65v-524l-47 -11l-316 521l-1 -1v-462l61 -16v-22q-22 -8 -44 -12.5t-47 -4.5q-30 0 -51.5 2.5
t-39.5 7.5zM213 672q-11 9 -18 23t-7 30q0 24 17.5 38t49.5 14q16 0 33 -3t36 -9l48 -14q12 -4 25 -6t23 -2q18 0 33 15t15 34q11 -10 18 -23t7 -29q0 -25 -21 -42.5t-49 -17.5q-16 0 -33.5 3t-33.5 8l-49 15q-14 4 -26.5 6t-22.5 2q-18 0 -31.5 -13t-13.5 -29z" />
    <glyph glyph-name="Ograve" unicode="&#xd2;" horiz-adv-x="653" 
d="M43 301q0 156 93 251.5t209 95.5q110 0 187.5 -81.5t77.5 -219.5q0 -172 -91 -268t-210 -96q-110 0 -188 85t-78 233zM319 47q72 0 132.5 68.5t60.5 213.5q0 131 -54.5 193t-123.5 62q-72 0 -132 -70t-60 -201t54.5 -198.5t122.5 -67.5zM395 665q-34 0 -89.5 51t-55.5 93
q0 19 14 28.5t50 9.5q9 -43 36.5 -95.5t52.5 -80.5z" />
    <glyph glyph-name="Oacute" unicode="&#xd3;" horiz-adv-x="653" 
d="M43 301q0 156 93 251.5t209 95.5q110 0 187.5 -81.5t77.5 -219.5q0 -172 -91 -268t-210 -96q-110 0 -188 85t-78 233zM319 47q72 0 132.5 68.5t60.5 213.5q0 131 -54.5 193t-123.5 62q-72 0 -132 -70t-60 -201t54.5 -198.5t122.5 -67.5zM265 665l-8 6q25 28 52.5 80.5
t36.5 95.5q36 0 50 -9.5t14 -28.5q0 -42 -55.5 -93t-89.5 -51z" />
    <glyph glyph-name="Ocircumflex" unicode="&#xd4;" horiz-adv-x="653" 
d="M43 301q0 156 93 251.5t209 95.5q110 0 187.5 -81.5t77.5 -219.5q0 -172 -91 -268t-210 -96q-110 0 -188 85t-78 233zM319 47q72 0 132.5 68.5t60.5 213.5q0 131 -54.5 193t-123.5 62q-72 0 -132 -70t-60 -201t54.5 -198.5t122.5 -67.5zM229 678q-13 7 -22 16t-16 22
l134 127l36 6l141 -154l-14 -14q-27 0 -49.5 10t-47.5 35q-14 14 -27 31t-22 35z" />
    <glyph glyph-name="Otilde" unicode="&#xd5;" horiz-adv-x="653" 
d="M43 301q0 156 93 251.5t209 95.5q110 0 187.5 -81.5t77.5 -219.5q0 -172 -91 -268t-210 -96q-110 0 -188 85t-78 233zM319 47q72 0 132.5 68.5t60.5 213.5q0 131 -54.5 193t-123.5 62q-72 0 -132 -70t-60 -201t54.5 -198.5t122.5 -67.5zM215 692q-11 9 -18 23t-7 30
q0 24 17.5 38t49.5 14q16 0 33 -3t36 -9l48 -14q12 -4 25 -6t23 -2q18 0 33 15t15 34q11 -10 18 -23t7 -29q0 -25 -21 -42.5t-49 -17.5q-16 0 -33.5 3t-33.5 8l-49 15q-14 4 -26.5 6t-22.5 2q-18 0 -31.5 -13t-13.5 -29z" />
    <glyph glyph-name="Odieresis" unicode="&#xd6;" horiz-adv-x="653" 
d="M43 301q0 156 93 251.5t209 95.5q110 0 187.5 -81.5t77.5 -219.5q0 -172 -91 -268t-210 -96q-110 0 -188 85t-78 233zM319 47q72 0 132.5 68.5t60.5 213.5q0 131 -54.5 193t-123.5 62q-72 0 -132 -70t-60 -201t54.5 -198.5t122.5 -67.5zM265 685q-20 0 -34 14t-14 34
t14 34t34 14t34 -14t14 -34t-14 -34t-34 -14zM421 685q-20 0 -34 14t-14 34t14 34t34 14t34 -14t14 -34t-14 -34t-34 -14z" />
    <glyph glyph-name="multiply" unicode="&#xd7;" 
d="M83 85l141 139l-142 141l38 37l141 -142l140 142l37 -37l-141 -141l141 -140l-37 -37l-140 141l-141 -141z" />
    <glyph glyph-name="Oslash" unicode="&#xd8;" horiz-adv-x="653" 
d="M187 128l250 416q-22 20 -48.5 30t-54.5 10q-72 0 -132 -70t-60 -201q0 -59 12 -105.5t33 -79.5zM211 96q23 -25 51 -37t57 -12q72 0 132.5 68.5t60.5 213.5q0 62 -13.5 108.5t-35.5 77.5zM76 -56l63 105q-44 40 -70 104.5t-26 147.5q0 156 93 251.5t209 95.5
q36 0 70 -9.5t63 -27.5l54 90l33 -17l-57 -94q46 -38 74 -100.5t28 -142.5q0 -172 -91 -268t-210 -96q-39 0 -74.5 11t-66.5 31l-59 -98z" />
    <glyph glyph-name="Ugrave" unicode="&#xd9;" horiz-adv-x="635" 
d="M92 183v405l-64 16v22q28 7 57 11.5t57 4.5q25 0 47.5 -2t47.5 -7v-20q-32 -8 -45.5 -25t-13.5 -54v-334q0 -69 40 -109.5t107 -40.5q65 0 106.5 43t41.5 133v362l-64 16v22q28 8 54.5 12.5t52.5 4.5q24 0 43.5 -3t41.5 -8v-19q-33 -11 -45.5 -27.5t-12.5 -47.5v-300
q0 -126 -65 -189t-164 -63q-108 0 -165 52t-57 145zM371 665q-34 0 -89.5 51t-55.5 93q0 19 14 28.5t50 9.5q9 -43 36.5 -95.5t52.5 -80.5z" />
    <glyph glyph-name="Uacute" unicode="&#xda;" horiz-adv-x="635" 
d="M92 183v405l-64 16v22q28 7 57 11.5t57 4.5q25 0 47.5 -2t47.5 -7v-20q-32 -8 -45.5 -25t-13.5 -54v-334q0 -69 40 -109.5t107 -40.5q65 0 106.5 43t41.5 133v362l-64 16v22q28 8 54.5 12.5t52.5 4.5q24 0 43.5 -3t41.5 -8v-19q-33 -11 -45.5 -27.5t-12.5 -47.5v-300
q0 -126 -65 -189t-164 -63q-108 0 -165 52t-57 145zM266 665l-8 6q25 28 52.5 80.5t36.5 95.5q36 0 50 -9.5t14 -28.5q0 -42 -55.5 -93t-89.5 -51z" />
    <glyph glyph-name="Ucircumflex" unicode="&#xdb;" horiz-adv-x="635" 
d="M92 183v405l-64 16v22q28 7 57 11.5t57 4.5q25 0 47.5 -2t47.5 -7v-20q-32 -8 -45.5 -25t-13.5 -54v-334q0 -69 40 -109.5t107 -40.5q65 0 106.5 43t41.5 133v362l-64 16v22q28 8 54.5 12.5t52.5 4.5q24 0 43.5 -3t41.5 -8v-19q-33 -11 -45.5 -27.5t-12.5 -47.5v-300
q0 -126 -65 -189t-164 -63q-108 0 -165 52t-57 145zM205 678q-13 7 -22 16t-16 22l134 127l36 6l141 -154l-14 -14q-27 0 -49.5 10t-47.5 35q-14 14 -27 31t-22 35z" />
    <glyph glyph-name="Udieresis" unicode="&#xdc;" horiz-adv-x="635" 
d="M92 183v405l-64 16v22q28 7 57 11.5t57 4.5q25 0 47.5 -2t47.5 -7v-20q-32 -8 -45.5 -25t-13.5 -54v-334q0 -69 40 -109.5t107 -40.5q65 0 106.5 43t41.5 133v362l-64 16v22q28 8 54.5 12.5t52.5 4.5q24 0 43.5 -3t41.5 -8v-19q-33 -11 -45.5 -27.5t-12.5 -47.5v-300
q0 -126 -65 -189t-164 -63q-108 0 -165 52t-57 145zM252 684q-20 0 -34 14t-14 34t14 34t34 14t34 -14t14 -34t-14 -34t-34 -14zM408 684q-20 0 -34 14t-14 34t14 34t34 14t34 -14t14 -34t-14 -34t-34 -14z" />
    <glyph glyph-name="Yacute" unicode="&#xdd;" horiz-adv-x="498" 
d="M147 0v19q25 6 42 22t17 50v189l-165 310l-54 16v21q24 7 50 11.5t51 4.5q27 0 46.5 -2t47.5 -7v-19q-24 -7 -32 -22t2 -37l112 -214h1l121 246l-60 17v21q28 8 53 12t51 4q21 0 36 -2t33 -7v-19q-19 -8 -30.5 -21.5t-25.5 -41.5l-151 -268v-238l64 -16v-22
q-25 -7 -53.5 -12t-63.5 -5q-28 0 -49.5 2.5t-42.5 7.5zM223 665l-8 6q25 28 52.5 80.5t36.5 95.5q36 0 50 -9.5t14 -28.5q0 -42 -55.5 -93t-89.5 -51z" />
    <glyph glyph-name="Thorn" unicode="&#xde;" horiz-adv-x="524" 
d="M189 173q15 -4 31.5 -6t32.5 -2q60 0 104.5 40t44.5 115q0 69 -44 107t-116 38q-12 0 -26 -1t-27 -2v-289zM48 0v19q25 7 41.5 23.5t16.5 53.5v492l-63 16v22q31 8 57 12t54 4t50 -2.5t43 -7.5v-19q-32 -9 -45 -25.5t-13 -46.5v-23h1q15 1 30.5 2t28.5 1q114 0 180 -48
t66 -142q0 -98 -75 -162t-165 -64q-18 0 -34 4.5t-31 11.5h-1v-76l63 -16v-22q-25 -7 -54 -12t-61 -5q-30 0 -49.5 2.5t-39.5 7.5z" />
    <glyph glyph-name="germandbls" unicode="&#xdf;" horiz-adv-x="565" 
d="M46 0v17q19 7 36 21.5t17 32.5v334h-54v33l54 22l1 89q0 70 52 120t151 50q87 0 140 -44.5t53 -113.5q0 -84 -77 -126.5t-77 -86.5q0 -25 15.5 -42t58.5 -35l48 -19q46 -19 67.5 -47.5t21.5 -70.5q0 -62 -47.5 -106t-127.5 -44q-66 0 -96 22.5t-30 62.5q0 10 1.5 20.5
t2.5 20.5q32 -31 66 -48.5t72 -17.5q37 0 58.5 17.5t21.5 44.5q0 25 -16 43.5t-60 37.5l-43 17q-44 19 -65 47.5t-21 71.5q0 67 76 114.5t76 110.5q0 54 -34.5 87.5t-90.5 33.5q-60 0 -90 -31.5t-30 -74.5q0 -17 1.5 -59.5t1.5 -61.5v-398l53 -13v-19q-25 -11 -51 -16
t-60 -5q-18 0 -38 2t-37 7z" />
    <glyph glyph-name="agrave" unicode="&#xe0;" horiz-adv-x="448" 
d="M33 96q0 66 69 114.5t191 48.5v27q0 81 -21 106t-68 25q-41 0 -80 -17t-70 -48q-1 7 -2 14.5t-1 15.5q0 48 38.5 74.5t125.5 26.5q75 0 118 -36t43 -98q0 -16 -1.5 -47.5t-2.5 -53.5l-3 -162q5 -13 16 -27t24 -24q-11 -13 -30 -27t-38 -24q-14 9 -25.5 21t-20.5 28
q-21 -20 -58 -34t-77 -14q-56 0 -91.5 31.5t-35.5 79.5zM119 111q0 -30 20 -48t58 -18q23 0 50 8t46 19v140q-84 0 -129 -30.5t-45 -70.5zM298 515q-34 0 -89.5 51t-55.5 93q0 19 14 28.5t50 9.5q9 -43 36.5 -95.5t52.5 -80.5z" />
    <glyph glyph-name="aacute" unicode="&#xe1;" horiz-adv-x="448" 
d="M33 96q0 66 69 114.5t191 48.5v27q0 81 -21 106t-68 25q-41 0 -80 -17t-70 -48q-1 7 -2 14.5t-1 15.5q0 48 38.5 74.5t125.5 26.5q75 0 118 -36t43 -98q0 -16 -1.5 -47.5t-2.5 -53.5l-3 -162q5 -13 16 -27t24 -24q-11 -13 -30 -27t-38 -24q-14 9 -25.5 21t-20.5 28
q-21 -20 -58 -34t-77 -14q-56 0 -91.5 31.5t-35.5 79.5zM119 111q0 -30 20 -48t58 -18q23 0 50 8t46 19v140q-84 0 -129 -30.5t-45 -70.5zM178 515l-8 6q25 28 52.5 80.5t36.5 95.5q36 0 50 -9.5t14 -28.5q0 -42 -55.5 -93t-89.5 -51z" />
    <glyph glyph-name="acircumflex" unicode="&#xe2;" horiz-adv-x="448" 
d="M33 96q0 66 69 114.5t191 48.5v27q0 81 -21 106t-68 25q-41 0 -80 -17t-70 -48q-1 7 -2 14.5t-1 15.5q0 48 38.5 74.5t125.5 26.5q75 0 118 -36t43 -98q0 -16 -1.5 -47.5t-2.5 -53.5l-3 -162q5 -13 16 -27t24 -24q-11 -13 -30 -27t-38 -24q-14 9 -25.5 21t-20.5 28
q-21 -20 -58 -34t-77 -14q-56 0 -91.5 31.5t-35.5 79.5zM119 111q0 -30 20 -48t58 -18q23 0 50 8t46 19v140q-84 0 -129 -30.5t-45 -70.5zM101 528q-13 7 -22 16t-16 22l134 127l36 6l141 -154l-14 -14q-27 0 -49.5 10t-47.5 35q-14 14 -27 31t-22 35z" />
    <glyph glyph-name="atilde" unicode="&#xe3;" horiz-adv-x="448" 
d="M33 96q0 66 69 114.5t191 48.5v27q0 81 -21 106t-68 25q-41 0 -80 -17t-70 -48q-1 7 -2 14.5t-1 15.5q0 48 38.5 74.5t125.5 26.5q75 0 118 -36t43 -98q0 -16 -1.5 -47.5t-2.5 -53.5l-3 -162q5 -13 16 -27t24 -24q-11 -13 -30 -27t-38 -24q-14 9 -25.5 21t-20.5 28
q-21 -20 -58 -34t-77 -14q-56 0 -91.5 31.5t-35.5 79.5zM119 111q0 -30 20 -48t58 -18q23 0 50 8t46 19v140q-84 0 -129 -30.5t-45 -70.5zM89 541q-11 9 -18 23t-7 30q0 24 17.5 38t49.5 14q16 0 33 -3t36 -9l48 -14q12 -4 25 -6t23 -2q18 0 33 15t15 34q11 -10 18 -23
t7 -29q0 -25 -21 -42.5t-49 -17.5q-16 0 -33.5 3t-33.5 8l-49 15q-14 4 -26.5 6t-22.5 2q-18 0 -31.5 -13t-13.5 -29z" />
    <glyph glyph-name="adieresis" unicode="&#xe4;" horiz-adv-x="448" 
d="M33 96q0 66 69 114.5t191 48.5v27q0 81 -21 106t-68 25q-41 0 -80 -17t-70 -48q-1 7 -2 14.5t-1 15.5q0 48 38.5 74.5t125.5 26.5q75 0 118 -36t43 -98q0 -16 -1.5 -47.5t-2.5 -53.5l-3 -162q5 -13 16 -27t24 -24q-11 -13 -30 -27t-38 -24q-14 9 -25.5 21t-20.5 28
q-21 -20 -58 -34t-77 -14q-56 0 -91.5 31.5t-35.5 79.5zM119 111q0 -30 20 -48t58 -18q23 0 50 8t46 19v140q-84 0 -129 -30.5t-45 -70.5zM147 568q-20 0 -34 14t-14 34t14 34t34 14t34 -14t14 -34t-14 -34t-34 -14zM303 568q-20 0 -34 14t-14 34t14 34t34 14t34 -14t14 -34
t-14 -34t-34 -14z" />
    <glyph glyph-name="aring" unicode="&#xe5;" horiz-adv-x="448" 
d="M33 96q0 66 69 114.5t191 48.5v27q0 81 -21 106t-68 25q-41 0 -80 -17t-70 -48q-1 7 -2 14.5t-1 15.5q0 48 38.5 74.5t125.5 26.5q75 0 118 -36t43 -98q0 -16 -1.5 -47.5t-2.5 -53.5l-3 -162q5 -13 16 -27t24 -24q-11 -13 -30 -27t-38 -24q-14 9 -25.5 21t-20.5 28
q-21 -20 -58 -34t-77 -14q-56 0 -91.5 31.5t-35.5 79.5zM119 111q0 -30 20 -48t58 -18q23 0 50 8t46 19v140q-84 0 -129 -30.5t-45 -70.5zM223 530q-37 0 -62.5 23.5t-25.5 62.5q0 37 25.5 63.5t60.5 26.5q38 0 64 -24t26 -64q0 -37 -26 -62.5t-62 -25.5zM223 564
q22 0 34.5 14t12.5 38q0 25 -13.5 40.5t-34.5 15.5t-34 -16t-13 -40q0 -23 14.5 -37.5t33.5 -14.5z" />
    <glyph glyph-name="ae" unicode="&#xe6;" horiz-adv-x="699" 
d="M33 96q0 66 69 114.5t191 48.5v27q0 81 -21 106t-68 25q-41 0 -80 -17t-70 -48q-1 7 -2 14.5t-1 15.5q0 48 38.5 74.5t125.5 26.5q52 0 87.5 -18t52.5 -49q28 32 64 49.5t74 17.5q81 0 127 -50.5t46 -136.5v-29.5t-1 -34.5h-295q0 -84 43 -130.5t105 -46.5q37 0 75 12
t66 31q1 -4 2.5 -11.5t1.5 -14.5q0 -34 -46.5 -60.5t-125.5 -26.5q-48 0 -88.5 20t-68.5 57q-36 -34 -83.5 -55.5t-90.5 -21.5q-56 0 -91.5 31.5t-35.5 79.5zM372 284h214q0 73 -28.5 109t-72.5 36q-41 0 -77 -43t-36 -102zM119 111q0 -30 20 -48t57 -18q28 0 62.5 13.5
t57.5 31.5q-13 25 -21 56t-8 66q-81 -1 -124.5 -31t-43.5 -70z" />
    <glyph glyph-name="ccedilla" unicode="&#xe7;" horiz-adv-x="403" 
d="M135 -139q19 -12 39.5 -19t42.5 -7q25 0 40 13t15 26q0 16 -13.5 26t-47.5 10l13 76q-76 6 -131 68t-55 161q0 122 68 194.5t167 72.5q60 0 84 -17t24 -42q0 -14 -3.5 -27t-8.5 -25q-28 22 -56.5 34t-59.5 12q-51 0 -89.5 -48.5t-38.5 -135.5q0 -89 41.5 -134t99.5 -45
q29 0 60 11.5t54 28.5q2 -4 3.5 -11t1.5 -14q0 -32 -31.5 -55.5t-91.5 -27.5v-38q37 0 56.5 -16t19.5 -40q0 -40 -40 -72.5t-89 -32.5q-35 0 -54.5 19.5t-19.5 54.5z" />
    <glyph glyph-name="egrave" unicode="&#xe8;" horiz-adv-x="453" 
d="M38 214q0 130 65.5 199.5t143.5 69.5q81 0 127 -50.5t46 -136.5v-29.5t-1 -34.5h-295q0 -84 43 -130.5t105 -46.5q37 0 75 12t66 31q1 -4 2.5 -11.5t1.5 -14.5q0 -34 -46.5 -60.5t-125.5 -26.5q-85 0 -146 62.5t-61 166.5zM126 284h214q0 73 -28.5 109t-72.5 36
q-41 0 -77 -43t-36 -102zM320 515q-34 0 -89.5 51t-55.5 93q0 19 14 28.5t50 9.5q9 -43 36.5 -95.5t52.5 -80.5z" />
    <glyph glyph-name="eacute" unicode="&#xe9;" horiz-adv-x="453" 
d="M38 214q0 130 65.5 199.5t143.5 69.5q81 0 127 -50.5t46 -136.5v-29.5t-1 -34.5h-295q0 -84 43 -130.5t105 -46.5q37 0 75 12t66 31q1 -4 2.5 -11.5t1.5 -14.5q0 -34 -46.5 -60.5t-125.5 -26.5q-85 0 -146 62.5t-61 166.5zM126 284h214q0 73 -28.5 109t-72.5 36
q-41 0 -77 -43t-36 -102zM212 515l-8 6q25 28 52.5 80.5t36.5 95.5q36 0 50 -9.5t14 -28.5q0 -42 -55.5 -93t-89.5 -51z" />
    <glyph glyph-name="ecircumflex" unicode="&#xea;" horiz-adv-x="453" 
d="M38 214q0 130 65.5 199.5t143.5 69.5q81 0 127 -50.5t46 -136.5v-29.5t-1 -34.5h-295q0 -84 43 -130.5t105 -46.5q37 0 75 12t66 31q1 -4 2.5 -11.5t1.5 -14.5q0 -34 -46.5 -60.5t-125.5 -26.5q-85 0 -146 62.5t-61 166.5zM126 284h214q0 73 -28.5 109t-72.5 36
q-41 0 -77 -43t-36 -102zM128 528q-13 7 -22 16t-16 22l134 127l36 6l141 -154l-14 -14q-27 0 -49.5 10t-47.5 35q-14 14 -27 31t-22 35z" />
    <glyph glyph-name="edieresis" unicode="&#xeb;" horiz-adv-x="453" 
d="M38 214q0 130 65.5 199.5t143.5 69.5q81 0 127 -50.5t46 -136.5v-29.5t-1 -34.5h-295q0 -84 43 -130.5t105 -46.5q37 0 75 12t66 31q1 -4 2.5 -11.5t1.5 -14.5q0 -34 -46.5 -60.5t-125.5 -26.5q-85 0 -146 62.5t-61 166.5zM126 284h214q0 73 -28.5 109t-72.5 36
q-41 0 -77 -43t-36 -102zM157 568q-20 0 -34 14t-14 34t14 34t34 14t34 -14t14 -34t-14 -34t-34 -14zM313 568q-20 0 -34 14t-14 34t14 34t34 14t34 -14t14 -34t-14 -34t-34 -14z" />
    <glyph glyph-name="igrave" unicode="&#xec;" horiz-adv-x="272" 
d="M47 0v17q20 7 36.5 21.5t16.5 32.5v338l-64 27v21q34 10 66 14.5t53 4.5h32l-5 -54v-380l56 -15v-19q-25 -9 -51.5 -13t-64.5 -4q-17 0 -37.5 2t-37.5 7zM212 515q-34 0 -89.5 51t-55.5 93q0 19 14 28.5t50 9.5q9 -43 36.5 -95.5t52.5 -80.5z" />
    <glyph glyph-name="iacute" unicode="&#xed;" horiz-adv-x="272" 
d="M47 0v17q20 7 36.5 21.5t16.5 32.5v338l-64 27v21q34 10 66 14.5t53 4.5h32l-5 -54v-380l56 -15v-19q-25 -9 -51.5 -13t-64.5 -4q-17 0 -37.5 2t-37.5 7zM89 515l-8 6q25 28 52.5 80.5t36.5 95.5q36 0 50 -9.5t14 -28.5q0 -42 -55.5 -93t-89.5 -51z" />
    <glyph glyph-name="icircumflex" unicode="&#xee;" horiz-adv-x="272" 
d="M47 0v17q20 7 36.5 21.5t16.5 32.5v338l-64 27v21q34 10 66 14.5t53 4.5h32l-5 -54v-380l56 -15v-19q-25 -9 -51.5 -13t-64.5 -4q-17 0 -37.5 2t-37.5 7zM26 528q-13 7 -22 16t-16 22l134 127l36 6l141 -154l-14 -14q-27 0 -49.5 10t-47.5 35q-14 14 -27 31t-22 35z" />
    <glyph glyph-name="idieresis" unicode="&#xef;" horiz-adv-x="272" 
d="M47 0v17q20 7 36.5 21.5t16.5 32.5v338l-64 27v21q34 10 66 14.5t53 4.5h32l-5 -54v-380l56 -15v-19q-25 -9 -51.5 -13t-64.5 -4q-17 0 -37.5 2t-37.5 7zM55 568q-20 0 -34 14t-14 34t14 34t34 14t34 -14t14 -34t-14 -34t-34 -14zM211 568q-20 0 -34 14t-14 34t14 34
t34 14t34 -14t14 -34t-14 -34t-34 -14z" />
    <glyph glyph-name="eth" unicode="&#xf0;" horiz-adv-x="545" 
d="M40 215q0 122 71.5 195.5t162.5 73.5q34 0 62.5 -10.5t53.5 -32.5l2 1q-16 51 -40.5 91.5t-54.5 68.5l-120 -72l-24 38l105 64q-22 13 -45.5 20.5t-47.5 7.5q-25 0 -50.5 -7t-49.5 -19q-2 9 -3.5 16t-1.5 15q0 20 26 36.5t89 16.5q37 0 74.5 -12t71.5 -36l95 58l24 -39
l-81 -49q57 -54 95.5 -148.5t38.5 -228.5q0 -132 -72.5 -205.5t-162.5 -73.5t-154 61t-64 170zM131 225q0 -90 40.5 -136.5t92.5 -46.5q50 0 94 49.5t44 156.5q0 31 -3 65.5t-8 64.5q-22 20 -57.5 34t-66.5 14q-51 0 -93.5 -51t-42.5 -150z" />
    <glyph glyph-name="ntilde" unicode="&#xf1;" horiz-adv-x="550" 
d="M47 0v17q19 7 36 21.5t17 32.5v338l-65 27v22q34 10 66 14t54 4h24v-54q25 25 65 40.5t83 15.5q62 0 101 -39.5t39 -116.5v-280l52 -15v-19q-20 -8 -46.5 -12.5t-58.5 -4.5q-16 0 -33 2t-32 7v17q19 8 27.5 23.5t8.5 42.5v191q0 73 -28 104t-72 31q-31 0 -59 -9t-44 -22
v-336l56 -15v-19q-25 -9 -52 -13t-64 -4q-18 0 -38 2t-37 7zM148 541q-11 9 -18 23t-7 30q0 24 17.5 38t49.5 14q16 0 33 -3t36 -9l48 -14q12 -4 25 -6t23 -2q18 0 33 15t15 34q11 -10 18 -23t7 -29q0 -25 -21 -42.5t-49 -17.5q-16 0 -33.5 3t-33.5 8l-49 15q-14 4 -26.5 6
t-22.5 2q-18 0 -31.5 -13t-13.5 -29z" />
    <glyph glyph-name="ograve" unicode="&#xf2;" horiz-adv-x="533" 
d="M40 215q0 122 71.5 195.5t163.5 73.5t155 -63.5t63 -167.5q0 -123 -72.5 -196t-161.5 -73q-90 0 -154.5 61t-64.5 170zM131 225q0 -90 40.5 -136.5t93.5 -46.5q50 0 93.5 50t43.5 152q0 87 -40.5 134.5t-93.5 47.5q-51 0 -94 -51t-43 -150zM320 515q-34 0 -89.5 51
t-55.5 93q0 19 14 28.5t50 9.5q9 -43 36.5 -95.5t52.5 -80.5z" />
    <glyph glyph-name="oacute" unicode="&#xf3;" horiz-adv-x="533" 
d="M40 215q0 122 71.5 195.5t163.5 73.5t155 -63.5t63 -167.5q0 -123 -72.5 -196t-161.5 -73q-90 0 -154.5 61t-64.5 170zM131 225q0 -90 40.5 -136.5t93.5 -46.5q50 0 93.5 50t43.5 152q0 87 -40.5 134.5t-93.5 47.5q-51 0 -94 -51t-43 -150zM231 515l-8 6q25 28 52.5 80.5
t36.5 95.5q36 0 50 -9.5t14 -28.5q0 -42 -55.5 -93t-89.5 -51z" />
    <glyph glyph-name="ocircumflex" unicode="&#xf4;" horiz-adv-x="533" 
d="M40 215q0 122 71.5 195.5t163.5 73.5t155 -63.5t63 -167.5q0 -123 -72.5 -196t-161.5 -73q-90 0 -154.5 61t-64.5 170zM131 225q0 -90 40.5 -136.5t93.5 -46.5q50 0 93.5 50t43.5 152q0 87 -40.5 134.5t-93.5 47.5q-51 0 -94 -51t-43 -150zM154 528q-13 7 -22 16t-16 22
l134 127l36 6l141 -154l-14 -14q-27 0 -49.5 10t-47.5 35q-14 14 -27 31t-22 35z" />
    <glyph glyph-name="otilde" unicode="&#xf5;" horiz-adv-x="533" 
d="M40 215q0 122 71.5 195.5t163.5 73.5t155 -63.5t63 -167.5q0 -123 -72.5 -196t-161.5 -73q-90 0 -154.5 61t-64.5 170zM131 225q0 -90 40.5 -136.5t93.5 -46.5q50 0 93.5 50t43.5 152q0 87 -40.5 134.5t-93.5 47.5q-51 0 -94 -51t-43 -150zM144 541q-11 9 -18 23t-7 30
q0 24 17.5 38t49.5 14q16 0 33 -3t36 -9l48 -14q12 -4 25 -6t23 -2q18 0 33 15t15 34q11 -10 18 -23t7 -29q0 -25 -21 -42.5t-49 -17.5q-16 0 -33.5 3t-33.5 8l-49 15q-14 4 -26.5 6t-22.5 2q-18 0 -31.5 -13t-13.5 -29z" />
    <glyph glyph-name="odieresis" unicode="&#xf6;" horiz-adv-x="533" 
d="M40 215q0 122 71.5 195.5t163.5 73.5t155 -63.5t63 -167.5q0 -123 -72.5 -196t-161.5 -73q-90 0 -154.5 61t-64.5 170zM131 225q0 -90 40.5 -136.5t93.5 -46.5q50 0 93.5 50t43.5 152q0 87 -40.5 134.5t-93.5 47.5q-51 0 -94 -51t-43 -150zM200 568q-20 0 -34 14t-14 34
t14 34t34 14t34 -14t14 -34t-14 -34t-34 -14zM356 568q-20 0 -34 14t-14 34t14 34t34 14t34 -14t14 -34t-14 -34t-34 -14z" />
    <glyph glyph-name="divide" unicode="&#xf7;" 
d="M258 363q-21 0 -32.5 12.5t-11.5 31.5t14 34.5t35 15.5q18 0 29.5 -13.5t11.5 -33.5q0 -17 -14 -32t-32 -15zM49 200v51h421v-51h-421zM214 37q0 19 14 34.5t35 15.5q18 0 29.5 -13.5t11.5 -33.5q0 -18 -14 -33t-32 -15q-21 0 -32.5 13t-11.5 32z" />
    <glyph glyph-name="oslash" unicode="&#xf8;" horiz-adv-x="533" 
d="M161 102l178 299q-16 12 -34 18.5t-37 6.5q-51 0 -94 -51t-43 -150q0 -39 8 -70t22 -53zM186 72q16 -15 36.5 -22.5t42.5 -7.5q50 0 93.5 50t43.5 152q0 41 -10 74t-27 56zM66 -57l53 88q-36 30 -57.5 76.5t-21.5 107.5q0 122 71.5 195.5t163.5 73.5q27 0 52.5 -6
t47.5 -17l52 87l33 -16l-54 -91q40 -30 63.5 -78t23.5 -110q0 -123 -72.5 -196t-161.5 -73q-30 0 -58 7t-52 20l-50 -85z" />
    <glyph glyph-name="ugrave" unicode="&#xf9;" horiz-adv-x="531" 
d="M90 153v256l-57 28v21q34 10 62.5 14.5t49.5 4.5h33l-6 -56v-226q0 -78 24.5 -108.5t72.5 -30.5q28 0 54.5 9t43.5 20v324l-58 28v21q34 10 63 14.5t50 4.5h33l-6 -56v-338q5 -13 15.5 -26t22.5 -26q-11 -12 -30 -25t-38 -22q-15 10 -27.5 25.5t-19.5 32.5
q-19 -17 -58.5 -35t-85.5 -18q-63 0 -100.5 39t-37.5 125zM340 515q-34 0 -89.5 51t-55.5 93q0 19 14 28.5t50 9.5q9 -43 36.5 -95.5t52.5 -80.5z" />
    <glyph glyph-name="uacute" unicode="&#xfa;" horiz-adv-x="531" 
d="M90 153v256l-57 28v21q34 10 62.5 14.5t49.5 4.5h33l-6 -56v-226q0 -78 24.5 -108.5t72.5 -30.5q28 0 54.5 9t43.5 20v324l-58 28v21q34 10 63 14.5t50 4.5h33l-6 -56v-338q5 -13 15.5 -26t22.5 -26q-11 -12 -30 -25t-38 -22q-15 10 -27.5 25.5t-19.5 32.5
q-19 -17 -58.5 -35t-85.5 -18q-63 0 -100.5 39t-37.5 125zM215 515l-8 6q25 28 52.5 80.5t36.5 95.5q36 0 50 -9.5t14 -28.5q0 -42 -55.5 -93t-89.5 -51z" />
    <glyph glyph-name="ucircumflex" unicode="&#xfb;" horiz-adv-x="531" 
d="M90 153v256l-57 28v21q34 10 62.5 14.5t49.5 4.5h33l-6 -56v-226q0 -78 24.5 -108.5t72.5 -30.5q28 0 54.5 9t43.5 20v324l-58 28v21q34 10 63 14.5t50 4.5h33l-6 -56v-338q5 -13 15.5 -26t22.5 -26q-11 -12 -30 -25t-38 -22q-15 10 -27.5 25.5t-19.5 32.5
q-19 -17 -58.5 -35t-85.5 -18q-63 0 -100.5 39t-37.5 125zM159 528q-13 7 -22 16t-16 22l134 127l36 6l141 -154l-14 -14q-27 0 -49.5 10t-47.5 35q-14 14 -27 31t-22 35z" />
    <glyph glyph-name="udieresis" unicode="&#xfc;" horiz-adv-x="531" 
d="M90 153v256l-57 28v21q34 10 62.5 14.5t49.5 4.5h33l-6 -56v-226q0 -78 24.5 -108.5t72.5 -30.5q28 0 54.5 9t43.5 20v324l-58 28v21q34 10 63 14.5t50 4.5h33l-6 -56v-338q5 -13 15.5 -26t22.5 -26q-11 -12 -30 -25t-38 -22q-15 10 -27.5 25.5t-19.5 32.5
q-19 -17 -58.5 -35t-85.5 -18q-63 0 -100.5 39t-37.5 125zM192 568q-20 0 -34 14t-14 34t14 34t34 14t34 -14t14 -34t-14 -34t-34 -14zM348 568q-20 0 -34 14t-14 34t14 34t34 14t34 -14t14 -34t-14 -34t-34 -14z" />
    <glyph glyph-name="yacute" unicode="&#xfd;" horiz-adv-x="399" 
d="M161 -15l17 45l-158 393l-38 29v24h184v-24l-54 -24l106 -305h1l95 302l-56 27v24h150v-24l-25 -22l-141 -390q-59 -164 -115 -224.5t-94 -60.5q-30 0 -45.5 16.5t-15.5 61.5q10 -2 21 -3t24 -1q31 0 72 37.5t72 118.5zM155 515l-8 6q25 28 52.5 80.5t36.5 95.5
q36 0 50 -9.5t14 -28.5q0 -42 -55.5 -93t-89.5 -51z" />
    <glyph glyph-name="thorn" unicode="&#xfe;" horiz-adv-x="523" 
d="M176 52q13 -4 29.5 -5.5t34.5 -1.5q66 0 112.5 48.5t46.5 154.5q0 82 -40 124t-91 42q-27 0 -50 -6t-42 -17v-339zM177 1v-196l66 -14v-20q-25 -8 -56 -12t-70 -4q-18 0 -38 2t-37 7v17q19 7 36 21t17 33v816l-65 27v22q34 10 66.5 14t53.5 4h31l-5 -56v-231q23 22 58 36
t69 14q75 0 128.5 -54.5t53.5 -155.5q0 -139 -74 -210.5t-170 -71.5q-16 0 -34 3.5t-30 8.5z" />
    <glyph glyph-name="ydieresis" unicode="&#xff;" horiz-adv-x="399" 
d="M161 -15l17 45l-158 393l-38 29v24h184v-24l-54 -24l106 -305h1l95 302l-56 27v24h150v-24l-25 -22l-141 -390q-59 -164 -115 -224.5t-94 -60.5q-30 0 -45.5 16.5t-15.5 61.5q10 -2 21 -3t24 -1q31 0 72 37.5t72 118.5zM133 568q-20 0 -34 14t-14 34t14 34t34 14t34 -14
t14 -34t-14 -34t-34 -14zM289 568q-20 0 -34 14t-14 34t14 34t34 14t34 -14t14 -34t-14 -34t-34 -14z" />
    <glyph glyph-name="Amacron" unicode="&#x100;" horiz-adv-x="541" 
d="M-14 0v19q23 8 36 21.5t23 42.5l198 554l70 9l184 -601l52 -17v-21q-22 -9 -47 -13t-52 -4q-28 0 -52.5 2t-51.5 8v19q29 7 40 21.5t6 33.5l-34 124h-202l-46 -156l59 -13v-22q-28 -9 -52 -13t-58 -4q-16 0 -35 2.5t-38 7.5zM173 252h172l-79 288h-1zM144 725v59h266v-59
h-266z" />
    <glyph glyph-name="amacron" unicode="&#x101;" horiz-adv-x="448" 
d="M33 96q0 66 69 114.5t191 48.5v27q0 81 -21 106t-68 25q-41 0 -80 -17t-70 -48q-1 7 -2 14.5t-1 15.5q0 48 38.5 74.5t125.5 26.5q75 0 118 -36t43 -98q0 -16 -1.5 -47.5t-2.5 -53.5l-3 -162q5 -13 16 -27t24 -24q-11 -13 -30 -27t-38 -24q-14 9 -25.5 21t-20.5 28
q-21 -20 -58 -34t-77 -14q-56 0 -91.5 31.5t-35.5 79.5zM119 111q0 -30 20 -48t58 -18q23 0 50 8t46 19v140q-84 0 -129 -30.5t-45 -70.5zM87 575v59h266v-59h-266z" />
    <glyph glyph-name="Abreve" unicode="&#x102;" horiz-adv-x="541" 
d="M-14 0v19q23 8 36 21.5t23 42.5l198 554l70 9l184 -601l52 -17v-21q-22 -9 -47 -13t-52 -4q-28 0 -52.5 2t-51.5 8v19q29 7 40 21.5t6 33.5l-34 124h-202l-46 -156l59 -13v-22q-28 -9 -52 -13t-58 -4q-16 0 -35 2.5t-38 7.5zM173 252h172l-79 288h-1zM273 677
q-41 0 -83.5 31.5t-78.5 98.5q13 11 25 19t30 13q30 -58 58 -82t54 -24q25 0 52 26t56 83q13 -7 22 -16t16 -21q-28 -60 -68.5 -94t-82.5 -34z" />
    <glyph glyph-name="abreve" unicode="&#x103;" horiz-adv-x="448" 
d="M33 96q0 66 69 114.5t191 48.5v27q0 81 -21 106t-68 25q-41 0 -80 -17t-70 -48q-1 7 -2 14.5t-1 15.5q0 48 38.5 74.5t125.5 26.5q75 0 118 -36t43 -98q0 -16 -1.5 -47.5t-2.5 -53.5l-3 -162q5 -13 16 -27t24 -24q-11 -13 -30 -27t-38 -24q-14 9 -25.5 21t-20.5 28
q-21 -20 -58 -34t-77 -14q-56 0 -91.5 31.5t-35.5 79.5zM119 111q0 -30 20 -48t58 -18q23 0 50 8t46 19v140q-84 0 -129 -30.5t-45 -70.5zM227 527q-41 0 -83.5 31.5t-78.5 98.5q13 11 25 19t30 13q30 -58 58 -82t54 -24q25 0 52 26t56 83q13 -7 22 -16t16 -21
q-28 -60 -68.5 -94t-82.5 -34z" />
    <glyph glyph-name="Aogonek" unicode="&#x104;" horiz-adv-x="541" 
d="M-14 0v19q23 8 36 21.5t23 42.5l198 554l70 9l184 -601l52 -17v-21q-17 -7 -36 -11t-39 -5l-36 -47q-9 -12 -17 -28.5t-8 -31.5q0 -24 13.5 -37t34.5 -13q19 0 38.5 5.5t36.5 13.5q0 -29 -22 -47.5t-69 -18.5q-44 0 -70.5 23t-26.5 63q0 25 14 46.5t34 38.5l36 32
q-22 1 -43 3.5t-43 6.5v19q29 7 40 21.5t6 33.5l-34 124h-202l-46 -156l59 -13v-22q-28 -9 -52 -13t-58 -4q-16 0 -35 2.5t-38 7.5zM173 252h172l-79 288h-1z" />
    <glyph glyph-name="aogonek" unicode="&#x105;" horiz-adv-x="448" 
d="M33 96q0 66 69 114.5t191 48.5v27q0 81 -21 106t-68 25q-41 0 -80 -17t-70 -48q-1 7 -2 14.5t-1 15.5q0 48 38.5 74.5t125.5 26.5q75 0 118 -36t43 -98q0 -16 -1.5 -47.5t-2.5 -53.5l-3 -162q5 -13 16 -27t24 -24q-8 -10 -20 -20t-25 -18l-41 -53q-9 -12 -17 -28.5
t-8 -31.5q0 -24 13.5 -37t34.5 -13q19 0 38.5 5.5t36.5 13.5q0 -29 -22 -47.5t-69 -18.5q-44 0 -70.5 23t-26.5 63q0 25 14 46.5t34 38.5l43 38q-8 7 -15.5 16.5t-13.5 20.5q-21 -20 -58 -34t-77 -14q-56 0 -91.5 31.5t-35.5 79.5zM119 111q0 -30 20 -48t58 -18q23 0 50 8
t46 19v140q-84 0 -129 -30.5t-45 -70.5z" />
    <glyph glyph-name="Cacute" unicode="&#x106;" horiz-adv-x="540" 
d="M43 299q0 157 91.5 252.5t209.5 95.5q51 0 86.5 -7t61.5 -20l-8 -139h-27l-4 18q-12 46 -37.5 66.5t-79.5 20.5q-74 0 -134.5 -72t-60.5 -202q0 -138 58.5 -202.5t127.5 -64.5q55 0 85.5 18.5t46.5 58.5l10 24h27l-10 -132q-28 -14 -72.5 -22.5t-101.5 -8.5
q-108 0 -188.5 80.5t-80.5 235.5zM269 665l-8 6q25 28 52.5 80.5t36.5 95.5q36 0 50 -9.5t14 -28.5q0 -42 -55.5 -93t-89.5 -51z" />
    <glyph glyph-name="cacute" unicode="&#x107;" horiz-adv-x="403" 
d="M38 215q0 122 68 194.5t167 72.5q60 0 84 -17t24 -42q0 -14 -3.5 -27t-8.5 -25q-28 22 -56.5 34t-59.5 12q-51 0 -89.5 -48.5t-38.5 -135.5q0 -89 41.5 -134t99.5 -45q29 0 60 11.5t54 28.5q2 -4 3.5 -11t1.5 -14q0 -35 -37.5 -59.5t-108.5 -24.5q-81 0 -141 63t-60 167z
M194 515l-8 6q25 28 52.5 80.5t36.5 95.5q36 0 50 -9.5t14 -28.5q0 -42 -55.5 -93t-89.5 -51z" />
    <glyph glyph-name="Ccircumflex" unicode="&#x108;" horiz-adv-x="540" 
d="M43 299q0 157 91.5 252.5t209.5 95.5q51 0 86.5 -7t61.5 -20l-8 -139h-27l-4 18q-12 46 -37.5 66.5t-79.5 20.5q-74 0 -134.5 -72t-60.5 -202q0 -138 58.5 -202.5t127.5 -64.5q55 0 85.5 18.5t46.5 58.5l10 24h27l-10 -132q-28 -14 -72.5 -22.5t-101.5 -8.5
q-108 0 -188.5 80.5t-80.5 235.5zM220 678q-13 7 -22 16t-16 22l134 127l36 6l141 -154l-14 -14q-27 0 -49.5 10t-47.5 35q-14 14 -27 31t-22 35z" />
    <glyph glyph-name="ccircumflex" unicode="&#x109;" horiz-adv-x="403" 
d="M38 215q0 122 68 194.5t167 72.5q60 0 84 -17t24 -42q0 -14 -3.5 -27t-8.5 -25q-28 22 -56.5 34t-59.5 12q-51 0 -89.5 -48.5t-38.5 -135.5q0 -89 41.5 -134t99.5 -45q29 0 60 11.5t54 28.5q2 -4 3.5 -11t1.5 -14q0 -35 -37.5 -59.5t-108.5 -24.5q-81 0 -141 63t-60 167z
M132 528q-13 7 -22 16t-16 22l134 127l36 6l141 -154l-14 -14q-27 0 -49.5 10t-47.5 35q-14 14 -27 31t-22 35z" />
    <glyph glyph-name="Cdotaccent" unicode="&#x10a;" horiz-adv-x="540" 
d="M43 299q0 157 91.5 252.5t209.5 95.5q51 0 86.5 -7t61.5 -20l-8 -139h-27l-4 18q-12 46 -37.5 66.5t-79.5 20.5q-74 0 -134.5 -72t-60.5 -202q0 -138 58.5 -202.5t127.5 -64.5q55 0 85.5 18.5t46.5 58.5l10 24h27l-10 -132q-28 -14 -72.5 -22.5t-101.5 -8.5
q-108 0 -188.5 80.5t-80.5 235.5zM338 709q-21 0 -32.5 13t-11.5 32q0 17 14 33.5t35 16.5q18 0 29.5 -14t11.5 -33t-14 -33.5t-32 -14.5z" />
    <glyph glyph-name="cdotaccent" unicode="&#x10b;" horiz-adv-x="403" 
d="M38 215q0 122 68 194.5t167 72.5q60 0 84 -17t24 -42q0 -14 -3.5 -27t-8.5 -25q-28 22 -56.5 34t-59.5 12q-51 0 -89.5 -48.5t-38.5 -135.5q0 -89 41.5 -134t99.5 -45q29 0 60 11.5t54 28.5q2 -4 3.5 -11t1.5 -14q0 -35 -37.5 -59.5t-108.5 -24.5q-81 0 -141 63t-60 167z
M256 557q-21 0 -32.5 13t-11.5 32q0 17 14 33.5t35 16.5q18 0 29.5 -14t11.5 -33t-14 -33.5t-32 -14.5z" />
    <glyph glyph-name="Ccaron" unicode="&#x10c;" horiz-adv-x="540" 
d="M43 299q0 157 91.5 252.5t209.5 95.5q51 0 86.5 -7t61.5 -20l-8 -139h-27l-4 18q-12 46 -37.5 66.5t-79.5 20.5q-74 0 -134.5 -72t-60.5 -202q0 -138 58.5 -202.5t127.5 -64.5q55 0 85.5 18.5t46.5 58.5l10 24h27l-10 -132q-28 -14 -72.5 -22.5t-101.5 -8.5
q-108 0 -188.5 80.5t-80.5 235.5zM315 674l-137 147q13 11 26.5 19t32.5 15l100 -123l114 124q13 -7 22 -16t16 -22l-138 -138z" />
    <glyph glyph-name="ccaron" unicode="&#x10d;" horiz-adv-x="403" 
d="M38 215q0 122 68 194.5t167 72.5q60 0 84 -17t24 -42q0 -14 -3.5 -27t-8.5 -25q-28 22 -56.5 34t-59.5 12q-51 0 -89.5 -48.5t-38.5 -135.5q0 -89 41.5 -134t99.5 -45q29 0 60 11.5t54 28.5q2 -4 3.5 -11t1.5 -14q0 -35 -37.5 -59.5t-108.5 -24.5q-81 0 -141 63t-60 167z
M231 524l-137 147q13 11 26.5 19t32.5 15l100 -123l114 124q13 -7 22 -16t16 -22l-138 -138z" />
    <glyph glyph-name="Dcaron" unicode="&#x10e;" horiz-adv-x="638" 
d="M48 0v19q27 8 42.5 25t15.5 51v490l-63 21v22q49 8 95.5 11t107.5 3q157 0 253 -78t96 -221q0 -164 -109 -258.5t-255 -94.5q-59 0 -97.5 1.5t-85.5 8.5zM192 53q13 -1 24.5 -2.5t24.5 -1.5q105 0 181 72t76 205q0 124 -73.5 191t-180.5 67q-12 0 -25.5 -1t-26.5 -2v-528
zM296 674l-137 147q13 11 26.5 19t32.5 15l100 -123l114 124q13 -7 22 -16t16 -22l-138 -138z" />
    <glyph glyph-name="dcaron" unicode="&#x10f;" horiz-adv-x="510" 
d="M38 204q0 134 71 206t168 72q18 0 37.5 -2t31.5 -5v176l-68 27v22q34 10 68 14t56 4h32l-6 -56v-573q5 -15 14.5 -30t23.5 -28q-15 -13 -32 -24.5t-38 -22.5q-15 12 -28 28t-20 32q-24 -25 -60.5 -41t-67.5 -16q-75 0 -128.5 59t-53.5 158zM245 52q28 0 56.5 9t45.5 23
v331q-13 4 -33 7.5t-40 3.5q-63 0 -106 -51t-43 -155q0 -81 36.5 -124.5t83.5 -43.5zM478 653q9 18 24.5 28.5t31.5 10.5q21 0 34.5 -13.5t13.5 -36.5q0 -43 -30 -82t-50 -39q-5 0 -9 1.5t-8 4.5q11 19 17 40t6 48z" />
    <glyph glyph-name="Dcroat" unicode="&#x110;" horiz-adv-x="638" 
d="M48 0v19q27 8 42.5 25t15.5 51v204h-82v51h82v235l-63 21v22q49 8 95.5 11t107.5 3q157 0 253 -78t96 -221q0 -164 -109 -258.5t-255 -94.5q-59 0 -97.5 1.5t-85.5 8.5zM192 53q13 -1 24.5 -2.5t24.5 -1.5q105 0 181 72t76 205q0 124 -73.5 191t-180.5 67q-12 0 -25.5 -1
t-26.5 -2v-231h145v-51h-145v-246z" />
    <glyph glyph-name="dcroat" unicode="&#x111;" horiz-adv-x="507" 
d="M38 204q0 134 71 206t168 72q18 0 37.5 -2t31.5 -5v83q-36 -1 -71.5 -3t-62.5 -6q0 29 11.5 45t51.5 16h71v41l-68 27v22q34 10 68 14t56 4h32l-6 -56v-49q18 1 38.5 2.5t40.5 3.5q0 -28 -12.5 -43t-51.5 -16l-15 -1v-470q5 -15 14.5 -30t23.5 -28q-15 -13 -32 -24.5
t-38 -22.5q-15 12 -28 28t-20 32q-24 -25 -60.5 -41t-67.5 -16q-75 0 -128.5 59t-53.5 158zM245 52q28 0 56.5 9t45.5 23v331q-13 4 -33 7.5t-40 3.5q-63 0 -106 -51t-43 -155q0 -81 36.5 -124.5t83.5 -43.5z" />
    <glyph glyph-name="Emacron" unicode="&#x112;" horiz-adv-x="469" 
d="M48 0v23q31 8 44.5 24.5t13.5 49.5v489l-63 27v23h377l-8 -147h-29l-3 18q-6 37 -23.5 53.5t-63.5 16.5h-100v-230h102q30 0 46.5 9t22.5 28l7 24h27v-189h-27l-5 23q-5 25 -18.5 38t-32.5 13h-122v-234h119q42 0 63.5 14.5t34.5 39.5l10 19h28l-21 -132h-379zM118 725
v59h266v-59h-266z" />
    <glyph glyph-name="emacron" unicode="&#x113;" horiz-adv-x="453" 
d="M38 214q0 130 65.5 199.5t143.5 69.5q81 0 127 -50.5t46 -136.5v-29.5t-1 -34.5h-295q0 -84 43 -130.5t105 -46.5q37 0 75 12t66 31q1 -4 2.5 -11.5t1.5 -14.5q0 -34 -46.5 -60.5t-125.5 -26.5q-85 0 -146 62.5t-61 166.5zM126 284h214q0 73 -28.5 109t-72.5 36
q-41 0 -77 -43t-36 -102zM120 575v59h266v-59h-266z" />
    <glyph glyph-name="Ebreve" unicode="&#x114;" horiz-adv-x="469" 
d="M48 0v23q31 8 44.5 24.5t13.5 49.5v489l-63 27v23h377l-8 -147h-29l-3 18q-6 37 -23.5 53.5t-63.5 16.5h-100v-230h102q30 0 46.5 9t22.5 28l7 24h27v-189h-27l-5 23q-5 25 -18.5 38t-32.5 13h-122v-234h119q42 0 63.5 14.5t34.5 39.5l10 19h28l-21 -132h-379zM255 677
q-41 0 -83.5 31.5t-78.5 98.5q13 11 25 19t30 13q30 -58 58 -82t54 -24q25 0 52 26t56 83q13 -7 22 -16t16 -21q-28 -60 -68.5 -94t-82.5 -34z" />
    <glyph glyph-name="ebreve" unicode="&#x115;" horiz-adv-x="453" 
d="M38 214q0 130 65.5 199.5t143.5 69.5q81 0 127 -50.5t46 -136.5v-29.5t-1 -34.5h-295q0 -84 43 -130.5t105 -46.5q37 0 75 12t66 31q1 -4 2.5 -11.5t1.5 -14.5q0 -34 -46.5 -60.5t-125.5 -26.5q-85 0 -146 62.5t-61 166.5zM126 284h214q0 73 -28.5 109t-72.5 36
q-41 0 -77 -43t-36 -102zM252 527q-41 0 -83.5 31.5t-78.5 98.5q13 11 25 19t30 13q30 -58 58 -82t54 -24q25 0 52 26t56 83q13 -7 22 -16t16 -21q-28 -60 -68.5 -94t-82.5 -34z" />
    <glyph glyph-name="Edotaccent" unicode="&#x116;" horiz-adv-x="469" 
d="M48 0v23q31 8 44.5 24.5t13.5 49.5v489l-63 27v23h377l-8 -147h-29l-3 18q-6 37 -23.5 53.5t-63.5 16.5h-100v-230h102q30 0 46.5 9t22.5 28l7 24h27v-189h-27l-5 23q-5 25 -18.5 38t-32.5 13h-122v-234h119q42 0 63.5 14.5t34.5 39.5l10 19h28l-21 -132h-379zM264 707
q-21 0 -32.5 13t-11.5 32q0 17 14 33.5t35 16.5q18 0 29.5 -14t11.5 -33t-14 -33.5t-32 -14.5z" />
    <glyph glyph-name="edotaccent" unicode="&#x117;" horiz-adv-x="453" 
d="M38 214q0 130 65.5 199.5t143.5 69.5q81 0 127 -50.5t46 -136.5v-29.5t-1 -34.5h-295q0 -84 43 -130.5t105 -46.5q37 0 75 12t66 31q1 -4 2.5 -11.5t1.5 -14.5q0 -34 -46.5 -60.5t-125.5 -26.5q-85 0 -146 62.5t-61 166.5zM126 284h214q0 73 -28.5 109t-72.5 36
q-41 0 -77 -43t-36 -102zM250 557q-21 0 -32.5 13t-11.5 32q0 17 14 33.5t35 16.5q18 0 29.5 -14t11.5 -33t-14 -33.5t-32 -14.5z" />
    <glyph glyph-name="Eogonek" unicode="&#x118;" horiz-adv-x="463" 
d="M42 0v23q31 8 44.5 24.5t13.5 49.5v489l-63 27v23h377l-8 -147h-29l-3 18q-6 37 -23.5 53.5t-63.5 16.5h-100v-230h102q30 0 46.5 9t22.5 28l7 24h27v-189h-27l-5 23q-5 25 -18.5 38t-32.5 13h-122v-234h119q42 0 63.5 14.5t34.5 39.5l10 19h28l-21 -132h-52l-43 -56
q-9 -12 -17 -28.5t-8 -31.5q0 -24 13.5 -37t34.5 -13q19 0 38.5 5.5t36.5 13.5q0 -29 -22 -47.5t-69 -18.5q-44 0 -70.5 23t-26.5 63q0 25 14 46.5t34 38.5l48 42h-290z" />
    <glyph glyph-name="eogonek" unicode="&#x119;" horiz-adv-x="453" 
d="M38 214q0 130 65.5 199.5t143.5 69.5q81 0 127 -50.5t46 -136.5v-29.5t-1 -34.5h-295q0 -84 43 -130.5t105 -46.5q37 0 75 12t66 31q1 -4 2.5 -11.5t1.5 -14.5q0 -24 -23 -44.5t-64 -31.5l-40 -52q-9 -12 -17 -28.5t-8 -31.5q0 -24 13.5 -37t34.5 -13q19 0 38.5 5.5
t36.5 13.5q0 -29 -22 -47.5t-69 -18.5q-44 0 -70.5 23t-26.5 63q0 25 14 46.5t34 38.5l32 29q-8 -1 -17 -1.5t-18 -0.5q-85 0 -146 62.5t-61 166.5zM126 284h214q0 73 -28.5 109t-72.5 36q-41 0 -77 -43t-36 -102z" />
    <glyph glyph-name="Ecaron" unicode="&#x11a;" horiz-adv-x="469" 
d="M48 0v23q31 8 44.5 24.5t13.5 49.5v489l-63 27v23h377l-8 -147h-29l-3 18q-6 37 -23.5 53.5t-63.5 16.5h-100v-230h102q30 0 46.5 9t22.5 28l7 24h27v-189h-27l-5 23q-5 25 -18.5 38t-32.5 13h-122v-234h119q42 0 63.5 14.5t34.5 39.5l10 19h28l-21 -132h-379zM242 674
l-137 147q13 11 26.5 19t32.5 15l100 -123l114 124q13 -7 22 -16t16 -22l-138 -138z" />
    <glyph glyph-name="ecaron" unicode="&#x11b;" horiz-adv-x="453" 
d="M38 214q0 130 65.5 199.5t143.5 69.5q81 0 127 -50.5t46 -136.5v-29.5t-1 -34.5h-295q0 -84 43 -130.5t105 -46.5q37 0 75 12t66 31q1 -4 2.5 -11.5t1.5 -14.5q0 -34 -46.5 -60.5t-125.5 -26.5q-85 0 -146 62.5t-61 166.5zM126 284h214q0 73 -28.5 109t-72.5 36
q-41 0 -77 -43t-36 -102zM234 524l-137 147q13 11 26.5 19t32.5 15l100 -123l114 124q13 -7 22 -16t16 -22l-138 -138z" />
    <glyph glyph-name="Gcircumflex" unicode="&#x11c;" horiz-adv-x="592" 
d="M43 293q0 166 94 260t219 94q52 0 92 -7t70 -21l-10 -138h-28l-4 19q-10 46 -41.5 66t-89.5 20q-81 0 -142.5 -71.5t-61.5 -199.5q0 -134 54.5 -202t135.5 -68q28 0 56 5.5t49 14.5v194l-63 16v22q31 9 57 12.5t57 3.5q28 0 49 -2t43 -8v-19q-29 -7 -43.5 -25.5
t-14.5 -43.5v-227q-31 0 -47.5 7t-29.5 25q-19 -15 -57.5 -26t-83.5 -11q-109 0 -184.5 83t-75.5 227zM224 679q-13 7 -22 16t-16 22l134 127l36 6l141 -154l-14 -14q-27 0 -49.5 10t-47.5 35q-14 14 -27 31t-22 35z" />
    <glyph glyph-name="gcircumflex" unicode="&#x11d;" horiz-adv-x="469" 
d="M226 167q46 0 77.5 34.5t31.5 107.5q0 63 -30 93.5t-70 30.5q-43 0 -74 -38t-31 -103q0 -63 29.5 -94t66.5 -31zM62 56q0 28 21 54t49 36v1q-34 13 -62 50.5t-28 88.5q0 84 59 141t140 57q31 0 63 -10.5t45 -22.5q13 13 38.5 22.5t49.5 9.5q13 0 24.5 -2t18.5 -4l-7 -66
q-24 5 -51 8t-56 3v-1q25 -19 41 -48.5t16 -60.5q0 -87 -61 -141t-142 -54q-16 0 -32.5 3.5t-29.5 8.5q-11 -7 -21.5 -21t-10.5 -27q0 -22 17.5 -34t46.5 -12l140 1q63 1 97 -28t34 -84q0 -71 -70 -123t-174 -52q-94 0 -142.5 34t-48.5 83q0 40 27.5 70t67.5 41v1
q-28 10 -43.5 30t-15.5 48zM102 -117q0 -31 32.5 -53.5t95.5 -22.5q71 0 114.5 29.5t43.5 65.5q0 29 -19 45t-55 16h-161q-22 -10 -36.5 -32.5t-14.5 -47.5zM127 528q-13 7 -22 16t-16 22l134 127l36 6l141 -154l-14 -14q-27 0 -49.5 10t-47.5 35q-14 14 -27 31t-22 35z" />
    <glyph glyph-name="Gbreve" unicode="&#x11e;" horiz-adv-x="592" 
d="M43 293q0 166 94 260t219 94q52 0 92 -7t70 -21l-10 -138h-28l-4 19q-10 46 -41.5 66t-89.5 20q-81 0 -142.5 -71.5t-61.5 -199.5q0 -134 54.5 -202t135.5 -68q28 0 56 5.5t49 14.5v194l-63 16v22q31 9 57 12.5t57 3.5q28 0 49 -2t43 -8v-19q-29 -7 -43.5 -25.5
t-14.5 -43.5v-227q-31 0 -47.5 7t-29.5 25q-19 -15 -57.5 -26t-83.5 -11q-109 0 -184.5 83t-75.5 227zM345 678q-41 0 -83.5 31.5t-78.5 98.5q13 11 25 19t30 13q30 -58 58 -82t54 -24q25 0 52 26t56 83q13 -7 22 -16t16 -21q-28 -60 -68.5 -94t-82.5 -34z" />
    <glyph glyph-name="gbreve" unicode="&#x11f;" horiz-adv-x="469" 
d="M226 167q46 0 77.5 34.5t31.5 107.5q0 63 -30 93.5t-70 30.5q-43 0 -74 -38t-31 -103q0 -63 29.5 -94t66.5 -31zM62 56q0 28 21 54t49 36v1q-34 13 -62 50.5t-28 88.5q0 84 59 141t140 57q31 0 63 -10.5t45 -22.5q13 13 38.5 22.5t49.5 9.5q13 0 24.5 -2t18.5 -4l-7 -66
q-24 5 -51 8t-56 3v-1q25 -19 41 -48.5t16 -60.5q0 -87 -61 -141t-142 -54q-16 0 -32.5 3.5t-29.5 8.5q-11 -7 -21.5 -21t-10.5 -27q0 -22 17.5 -34t46.5 -12l140 1q63 1 97 -28t34 -84q0 -71 -70 -123t-174 -52q-94 0 -142.5 34t-48.5 83q0 40 27.5 70t67.5 41v1
q-28 10 -43.5 30t-15.5 48zM102 -117q0 -31 32.5 -53.5t95.5 -22.5q71 0 114.5 29.5t43.5 65.5q0 29 -19 45t-55 16h-161q-22 -10 -36.5 -32.5t-14.5 -47.5zM239 527q-41 0 -83.5 31.5t-78.5 98.5q13 11 25 19t30 13q30 -58 58 -82t54 -24q25 0 52 26t56 83q13 -7 22 -16
t16 -21q-28 -60 -68.5 -94t-82.5 -34z" />
    <glyph glyph-name="Gdotaccent" unicode="&#x120;" horiz-adv-x="592" 
d="M43 293q0 166 94 260t219 94q52 0 92 -7t70 -21l-10 -138h-28l-4 19q-10 46 -41.5 66t-89.5 20q-81 0 -142.5 -71.5t-61.5 -199.5q0 -134 54.5 -202t135.5 -68q28 0 56 5.5t49 14.5v194l-63 16v22q31 9 57 12.5t57 3.5q28 0 49 -2t43 -8v-19q-29 -7 -43.5 -25.5
t-14.5 -43.5v-227q-31 0 -47.5 7t-29.5 25q-19 -15 -57.5 -26t-83.5 -11q-109 0 -184.5 83t-75.5 227zM349 710q-21 0 -32.5 13t-11.5 32q0 17 14 33.5t35 16.5q18 0 29.5 -14t11.5 -33t-14 -33.5t-32 -14.5z" />
    <glyph glyph-name="gdotaccent" unicode="&#x121;" horiz-adv-x="469" 
d="M226 167q46 0 77.5 34.5t31.5 107.5q0 63 -30 93.5t-70 30.5q-43 0 -74 -38t-31 -103q0 -63 29.5 -94t66.5 -31zM62 56q0 28 21 54t49 36v1q-34 13 -62 50.5t-28 88.5q0 84 59 141t140 57q31 0 63 -10.5t45 -22.5q13 13 38.5 22.5t49.5 9.5q13 0 24.5 -2t18.5 -4l-7 -66
q-24 5 -51 8t-56 3v-1q25 -19 41 -48.5t16 -60.5q0 -87 -61 -141t-142 -54q-16 0 -32.5 3.5t-29.5 8.5q-11 -7 -21.5 -21t-10.5 -27q0 -22 17.5 -34t46.5 -12l140 1q63 1 97 -28t34 -84q0 -71 -70 -123t-174 -52q-94 0 -142.5 34t-48.5 83q0 40 27.5 70t67.5 41v1
q-28 10 -43.5 30t-15.5 48zM102 -117q0 -31 32.5 -53.5t95.5 -22.5q71 0 114.5 29.5t43.5 65.5q0 29 -19 45t-55 16h-161q-22 -10 -36.5 -32.5t-14.5 -47.5zM234 557q-21 0 -32.5 13t-11.5 32q0 17 14 33.5t35 16.5q18 0 29.5 -14t11.5 -33t-14 -33.5t-32 -14.5z" />
    <glyph glyph-name="Gcommaaccent" unicode="&#x122;" horiz-adv-x="592" 
d="M43 293q0 166 94 260t219 94q52 0 92 -7t70 -21l-10 -138h-28l-4 19q-10 46 -41.5 66t-89.5 20q-81 0 -142.5 -71.5t-61.5 -199.5q0 -134 54.5 -202t135.5 -68q28 0 56 5.5t49 14.5v194l-63 16v22q31 9 57 12.5t57 3.5q28 0 49 -2t43 -8v-19q-29 -7 -43.5 -25.5
t-14.5 -43.5v-227q-31 0 -47.5 7t-29.5 25q-19 -15 -57.5 -26t-83.5 -11q-109 0 -184.5 83t-75.5 227zM284 -90q9 18 24.5 28.5t31.5 10.5q21 0 34.5 -13.5t13.5 -36.5q0 -43 -30 -82t-50 -39q-5 0 -9 1.5t-8 4.5q11 19 17 40t6 48z" />
    <glyph glyph-name="gcommaaccent" unicode="&#x123;" horiz-adv-x="469" 
d="M287 554q-9 -18 -24.5 -28.5t-31.5 -10.5q-21 0 -34.5 13.5t-13.5 36.5q0 43 30 82t50 39q5 0 9 -1.5t8 -4.5q-11 -19 -17 -40t-6 -48zM226 167q46 0 77.5 34.5t31.5 107.5q0 63 -30 93.5t-70 30.5q-43 0 -74 -38t-31 -103q0 -63 29.5 -94t66.5 -31zM62 56q0 28 21 54
t49 36v1q-34 13 -62 50.5t-28 88.5q0 84 59 141t140 57q31 0 63 -10.5t45 -22.5q13 13 38.5 22.5t49.5 9.5q13 0 24.5 -2t18.5 -4l-7 -66q-24 5 -51 8t-56 3v-1q25 -19 41 -48.5t16 -60.5q0 -87 -61 -141t-142 -54q-16 0 -32.5 3.5t-29.5 8.5q-11 -7 -21.5 -21t-10.5 -27
q0 -22 17.5 -34t46.5 -12l140 1q63 1 97 -28t34 -84q0 -71 -70 -123t-174 -52q-94 0 -142.5 34t-48.5 83q0 40 27.5 70t67.5 41v1q-28 10 -43.5 30t-15.5 48zM102 -117q0 -31 32.5 -53.5t95.5 -22.5q71 0 114.5 29.5t43.5 65.5q0 29 -19 45t-55 16h-161q-22 -10 -36.5 -32.5
t-14.5 -47.5z" />
    <glyph glyph-name="Hcircumflex" unicode="&#x124;" horiz-adv-x="659" 
d="M48 0v19q27 7 42.5 24.5t15.5 48.5v496l-63 16v22q28 7 57 11.5t60 4.5q21 0 45.5 -2.5t45.5 -7.5v-19q-27 -7 -42.5 -23t-15.5 -47v-182h274v227l-64 16v22q28 7 57 11.5t60 4.5q22 0 46.5 -2.5t45.5 -7.5v-19q-27 -7 -43 -23t-16 -47v-498l64 -16v-22q-28 -8 -57 -12.5
t-60 -4.5q-22 0 -46 2.5t-45 7.5v19q27 7 42.5 24.5t15.5 48.5v209h-274v-256l63 -16v-22q-28 -8 -57 -12.5t-60 -4.5q-21 0 -45.5 2.5t-45.5 7.5zM213 680q-13 7 -22 16t-16 22l134 127l36 6l141 -154l-14 -14q-27 0 -49.5 10t-47.5 35q-14 14 -27 31t-22 35z" />
    <glyph glyph-name="hcircumflex" unicode="&#x125;" horiz-adv-x="550" 
d="M47 0v17q20 7 36.5 21.5t16.5 32.5v580l-65 27v22q34 10 64.5 14t55.5 4h32l-5 -56v-239q27 26 62.5 40.5t82.5 14.5q63 0 101.5 -39.5t38.5 -116.5v-280l52 -15v-19q-21 -8 -47.5 -12.5t-58.5 -4.5q-15 0 -32.5 2t-31.5 7v17q18 8 27 23.5t9 42.5v191q0 73 -28 104
t-74 31q-29 0 -56.5 -9t-44.5 -22v-336l56 -15v-19q-25 -9 -51.5 -13t-64.5 -4q-17 0 -37.5 2t-37.5 7zM159 721q-13 7 -22 16t-16 22l134 127l36 6l141 -154l-14 -14q-27 0 -49.5 10t-47.5 35q-14 14 -27 31t-22 35z" />
    <glyph glyph-name="Hbar" unicode="&#x126;" horiz-adv-x="648" 
d="M42 0v19q27 7 42.5 24.5t15.5 48.5v377q-16 0 -33.5 -1.5t-33.5 -2.5q-1 4 -2.5 9.5t-1.5 11.5q0 16 12.5 21.5t58.5 6.5v74l-63 16v22q28 7 57 11.5t60 4.5q21 0 45.5 -2.5t45.5 -7.5v-19q-27 -7 -42.5 -23t-15.5 -47v-28l274 3v70l-64 16v22q28 7 57 11.5t60 4.5
q22 0 46.5 -2.5t45.5 -7.5v-19q-27 -7 -43 -23t-16 -47v-24h1q17 0 34 1t36 3q1 -4 2.5 -10.5t1.5 -12.5q0 -17 -14 -21.5t-61 -5.5v-428l64 -16v-22q-28 -8 -57 -12.5t-60 -4.5q-22 0 -46 2.5t-45 7.5v19q27 7 42.5 24.5t15.5 48.5v209h-274v-256l63 -16v-22
q-28 -8 -57 -12.5t-60 -4.5q-21 0 -45.5 2.5t-45.5 7.5zM187 361h274v111l-274 -2v-109z" />
    <glyph glyph-name="hbar" unicode="&#x127;" horiz-adv-x="550" 
d="M47 0v17q20 7 36.5 21.5t16.5 32.5v473q-22 -1 -42.5 -3t-37.5 -4q0 29 11.5 45t51.5 16h17v53l-65 27v22q34 10 64.5 14t55.5 4h32l-5 -56v-63l52 2q19 1 39.5 2.5t41.5 3.5q0 -28 -12.5 -43t-51.5 -16l-69 -2v-123q27 26 62.5 40.5t82.5 14.5q63 0 101.5 -39.5
t38.5 -116.5v-280l52 -15v-19q-21 -8 -47.5 -12.5t-58.5 -4.5q-15 0 -32.5 2t-31.5 7v17q18 8 27 23.5t9 42.5v191q0 73 -28 104t-74 31q-29 0 -56.5 -9t-44.5 -22v-336l56 -15v-19q-25 -9 -51.5 -13t-64.5 -4q-17 0 -37.5 2t-37.5 7z" />
    <glyph glyph-name="Itilde" unicode="&#x128;" horiz-adv-x="299" 
d="M48 0v19q25 7 41.5 23.5t16.5 53.5v492l-63 16v22q31 8 59 12t56 4t50 -2.5t43 -7.5v-19q-32 -9 -45 -25.5t-13 -46.5v-496l63 -16v-22q-25 -7 -54 -12t-61 -5q-30 0 -51.5 2.5t-41.5 7.5zM22 693q-11 9 -18 23t-7 30q0 24 17.5 38t49.5 14q16 0 33 -3t36 -9l48 -14
q12 -4 25 -6t23 -2q18 0 33 15t15 34q11 -10 18 -23t7 -29q0 -25 -21 -42.5t-49 -17.5q-16 0 -33.5 3t-33.5 8l-49 15q-14 4 -26.5 6t-22.5 2q-18 0 -31.5 -13t-13.5 -29z" />
    <glyph glyph-name="itilde" unicode="&#x129;" horiz-adv-x="272" 
d="M47 0v17q20 7 36.5 21.5t16.5 32.5v338l-64 27v21q34 10 66 14.5t53 4.5h32l-5 -54v-380l56 -15v-19q-25 -9 -51.5 -13t-64.5 -4q-17 0 -37.5 2t-37.5 7zM13 541q-11 9 -18 23t-7 30q0 24 17.5 38t49.5 14q16 0 33 -3t36 -9l48 -14q12 -4 25 -6t23 -2q18 0 33 15t15 34
q11 -10 18 -23t7 -29q0 -25 -21 -42.5t-49 -17.5q-16 0 -33.5 3t-33.5 8l-49 15q-14 4 -26.5 6t-22.5 2q-18 0 -31.5 -13t-13.5 -29z" />
    <glyph glyph-name="Imacron" unicode="&#x12a;" horiz-adv-x="299" 
d="M48 0v19q25 7 41.5 23.5t16.5 53.5v492l-63 16v22q31 8 59 12t56 4t50 -2.5t43 -7.5v-19q-32 -9 -45 -25.5t-13 -46.5v-496l63 -16v-22q-25 -7 -54 -12t-61 -5q-30 0 -51.5 2.5t-41.5 7.5zM17 725v59h266v-59h-266z" />
    <glyph glyph-name="imacron" unicode="&#x12b;" horiz-adv-x="272" 
d="M47 0v17q20 7 36.5 21.5t16.5 32.5v338l-64 27v21q34 10 66 14.5t53 4.5h32l-5 -54v-380l56 -15v-19q-25 -9 -51.5 -13t-64.5 -4q-17 0 -37.5 2t-37.5 7zM7 575v59h266v-59h-266z" />
    <glyph glyph-name="Ibreve" unicode="&#x12c;" horiz-adv-x="299" 
d="M48 0v19q25 7 41.5 23.5t16.5 53.5v492l-63 16v22q31 8 59 12t56 4t50 -2.5t43 -7.5v-19q-32 -9 -45 -25.5t-13 -46.5v-496l63 -16v-22q-25 -7 -54 -12t-61 -5q-30 0 -51.5 2.5t-41.5 7.5zM156 678q-41 0 -83.5 31.5t-78.5 98.5q13 11 25 19t30 13q30 -58 58 -82t54 -24
q25 0 52 26t56 83q13 -7 22 -16t16 -21q-28 -60 -68.5 -94t-82.5 -34z" />
    <glyph glyph-name="ibreve" unicode="&#x12d;" horiz-adv-x="272" 
d="M47 0v17q20 7 36.5 21.5t16.5 32.5v338l-64 27v21q34 10 66 14.5t53 4.5h32l-5 -54v-380l56 -15v-19q-25 -9 -51.5 -13t-64.5 -4q-17 0 -37.5 2t-37.5 7zM145 527q-41 0 -83.5 31.5t-78.5 98.5q13 11 25 19t30 13q30 -58 58 -82t54 -24q25 0 52 26t56 83q13 -7 22 -16
t16 -21q-28 -60 -68.5 -94t-82.5 -34z" />
    <glyph glyph-name="Iogonek" unicode="&#x12e;" horiz-adv-x="299" 
d="M48 0v19q25 7 41.5 23.5t16.5 53.5v492l-63 16v22q31 8 59 12t56 4t50 -2.5t43 -7.5v-19q-32 -9 -45 -25.5t-13 -46.5v-496l63 -16v-22q-20 -6 -42.5 -10.5t-47.5 -5.5l-36 -47q-9 -12 -17 -28.5t-8 -31.5q0 -24 13.5 -37t34.5 -13q19 0 38.5 5.5t36.5 13.5
q0 -29 -22 -47.5t-69 -18.5q-44 0 -70.5 23t-26.5 63q0 25 14 46.5t34 38.5l36 32q-23 1 -41 3.5t-35 6.5z" />
    <glyph glyph-name="iogonek" unicode="&#x12f;" horiz-adv-x="272" 
d="M142 568q-22 0 -37.5 16t-15.5 41q0 23 15.5 41t41.5 18q21 0 36.5 -14.5t15.5 -39.5q0 -26 -16 -44t-40 -18zM47 0v17q20 7 36.5 21.5t16.5 32.5v338l-64 27v21q34 10 66 14.5t53 4.5h32l-5 -54v-380l56 -15v-19q-19 -7 -38 -11t-42 -5l-37 -48q-9 -12 -17 -28.5
t-8 -31.5q0 -24 13.5 -37t34.5 -13q19 0 38.5 5.5t36.5 13.5q0 -29 -22 -47.5t-69 -18.5q-44 0 -70.5 23t-26.5 63q0 25 14 46.5t34 38.5l38 33q-16 1 -35 3t-35 6z" />
    <glyph glyph-name="Idotaccent" unicode="&#x130;" horiz-adv-x="299" 
d="M48 0v19q25 7 41.5 23.5t16.5 53.5v492l-63 16v22q31 8 59 12t56 4t50 -2.5t43 -7.5v-19q-32 -9 -45 -25.5t-13 -46.5v-496l63 -16v-22q-25 -7 -54 -12t-61 -5q-30 0 -51.5 2.5t-41.5 7.5zM149 707q-21 0 -32.5 13t-11.5 32q0 17 14 33.5t35 16.5q18 0 29.5 -14t11.5 -33
t-14 -33.5t-32 -14.5z" />
    <glyph glyph-name="dotlessi" unicode="&#x131;" horiz-adv-x="272" 
d="M47 0v17q20 7 36.5 21.5t16.5 32.5v338l-64 27v21q34 10 66 14.5t53 4.5h32l-5 -54v-380l56 -15v-19q-25 -9 -51.5 -13t-64.5 -4q-17 0 -37.5 2t-37.5 7z" />
    <glyph glyph-name="IJ" unicode="&#x132;" horiz-adv-x="590" 
d="M48 0v19q25 7 41.5 23.5t16.5 53.5v492l-63 16v22q31 8 59 12t56 4t50 -2.5t43 -7.5v-19q-32 -9 -45 -25.5t-13 -46.5v-496l63 -16v-22q-25 -7 -54 -12t-61 -5q-30 0 -51.5 2.5t-41.5 7.5zM328 -103q32 20 54.5 65.5t22.5 110.5v515l-63 16v22q31 8 58.5 12t56.5 4
q28 0 48.5 -2.5t44.5 -7.5v-19q-30 -8 -44 -24t-14 -49v-452q0 -109 -36.5 -161t-79.5 -52q-12 0 -23.5 2t-24.5 7v13z" />
    <glyph glyph-name="ij" unicode="&#x133;" horiz-adv-x="530" 
d="M142 568q-22 0 -37.5 16t-15.5 41q0 23 15.5 41t41.5 18q21 0 36.5 -14.5t15.5 -39.5q0 -26 -16 -44t-40 -18zM410 568q-22 0 -37.5 16t-15.5 41q0 23 15.5 41t41.5 18q21 0 36.5 -14.5t15.5 -39.5q0 -26 -16 -44t-40 -18zM47 0v17q20 7 36.5 21.5t16.5 32.5v338l-64 27
v21q34 10 66 14.5t53 4.5h32l-5 -54v-380l56 -15v-19q-25 -9 -51.5 -13t-64.5 -4q-17 0 -37.5 2t-37.5 7zM281 -204q33 0 60 38t27 114v461l-64 27v21q34 10 66 14.5t54 4.5h32l-6 -56v-449q0 -122 -32.5 -168.5t-80.5 -46.5q-16 0 -31.5 6t-24.5 18v16z" />
    <glyph glyph-name="Jcircumflex" unicode="&#x134;" horiz-adv-x="291" 
d="M29 -103q32 20 54.5 65.5t22.5 110.5v515l-63 16v22q31 8 58.5 12t56.5 4q28 0 48.5 -2.5t44.5 -7.5v-19q-30 -8 -44 -24t-14 -49v-452q0 -109 -36.5 -161t-79.5 -52q-12 0 -23.5 2t-24.5 7v13zM31 679q-13 7 -22 16t-16 22l134 127l36 6l141 -154l-14 -14
q-27 0 -49.5 10t-47.5 35q-14 14 -27 31t-22 35z" />
    <glyph glyph-name="jcircumflex" unicode="&#x135;" horiz-adv-x="258" 
d="M10 528q-13 7 -22 16t-15 22l134 127l36 6l140 -154l-14 -14q-26 0 -49 10t-48 35q-14 14 -26.5 31t-21.5 35zM96 -52v461l-64 27v21q34 10 66 14.5t54 4.5h32l-6 -56v-449q0 -122 -32.5 -168.5t-80.5 -46.5q-16 0 -31.5 6t-24.5 18v16q33 0 60 38t27 114z" />
    <glyph glyph-name="Kcommaaccent" unicode="&#x136;" horiz-adv-x="557" 
d="M48 0v19q32 10 45 27.5t13 49.5v492l-63 16v22q28 8 57.5 12t56.5 4t49.5 -2.5t44.5 -7.5v-19q-31 -9 -44.5 -25t-13.5 -49v-494l63 -16v-22q-28 -8 -54.5 -12.5t-64.5 -4.5q-28 0 -49.5 2.5t-39.5 7.5zM196 319v4l237 269v1l-54 12v21q33 10 56.5 13t52.5 3q19 0 36 -2
t33 -7v-19q-21 -10 -38 -22t-35 -31l-200 -223l178 -226q25 -32 49 -50t62 -35v-20q-16 -10 -32 -16t-39 -6q-36 0 -62.5 16.5t-62.5 66.5zM243 -90q9 18 24.5 28.5t31.5 10.5q21 0 34.5 -13.5t13.5 -36.5q0 -43 -30 -82t-50 -39q-5 0 -9 1.5t-8 4.5q11 19 17 40t6 48z" />
    <glyph glyph-name="kcommaaccent" unicode="&#x137;" horiz-adv-x="471" 
d="M46 0v17q20 7 37 21.5t17 32.5v580l-66 27v22q34 10 66.5 14t53.5 4h34l-6 -56v-400l55 48q40 34 71.5 80t31.5 80q13 4 25.5 6t27.5 2q11 0 20.5 -2.5t19.5 -6.5q-1 -32 -34.5 -79.5t-101.5 -96.5l-35 -25l154 -187q21 -25 39.5 -36.5t34.5 -11.5v-21q-16 -11 -34 -16
t-40 -5q-21 0 -39 9.5t-32 28.5l-163 215v-202l52 -16v-19q-28 -9 -53 -12.5t-60 -3.5q-17 0 -37.5 2t-37.5 7zM222 -90q9 18 24.5 28.5t31.5 10.5q21 0 34.5 -13.5t13.5 -36.5q0 -43 -30 -82t-50 -39q-5 0 -9 1.5t-8 4.5q11 19 17 40t6 48z" />
    <glyph glyph-name="Lacute" unicode="&#x139;" horiz-adv-x="450" 
d="M48 0v23q28 6 43 22.5t15 48.5v494l-63 16v22q28 7 57.5 11.5t55.5 4.5q30 0 50 -2t45 -8v-19q-32 -10 -45 -26t-13 -47v-481h112q43 0 69.5 13.5t39.5 41.5l11 23h25l-23 -137h-379zM125 665l-8 6q25 28 52.5 80.5t36.5 95.5q36 0 50 -9.5t14 -28.5q0 -42 -55.5 -93
t-89.5 -51z" />
    <glyph glyph-name="lacute" unicode="&#x13a;" horiz-adv-x="268" 
d="M47 0v17q19 7 36 21.5t17 32.5v580l-65 27v22q34 10 66.5 14t53.5 4h32l-5 -56v-620l56 -15v-19q-25 -9 -52 -13t-64 -4q-18 0 -38 2t-37 7zM87 739l-8 6q25 28 52.5 80.5t36.5 95.5q36 0 50 -9.5t14 -28.5q0 -42 -55.5 -93t-89.5 -51z" />
    <glyph glyph-name="Lcommaaccent" unicode="&#x13b;" horiz-adv-x="450" 
d="M48 0v23q28 6 43 22.5t15 48.5v494l-63 16v22q28 7 57.5 11.5t55.5 4.5q30 0 50 -2t45 -8v-19q-32 -10 -45 -26t-13 -47v-481h112q43 0 69.5 13.5t39.5 41.5l11 23h25l-23 -137h-379zM201 -90q9 18 24.5 28.5t31.5 10.5q21 0 34.5 -13.5t13.5 -36.5q0 -43 -30 -82
t-50 -39q-5 0 -9 1.5t-8 4.5q11 19 17 40t6 48z" />
    <glyph glyph-name="lcommaaccent" unicode="&#x13c;" horiz-adv-x="268" 
d="M47 0v17q19 7 36 21.5t17 32.5v580l-65 27v22q34 10 66.5 14t53.5 4h32l-5 -56v-620l56 -15v-19q-25 -9 -52 -13t-64 -4q-18 0 -38 2t-37 7zM87 -90q9 18 24.5 28.5t31.5 10.5q21 0 34.5 -13.5t13.5 -36.5q0 -43 -30 -82t-50 -39q-5 0 -9 1.5t-8 4.5q11 19 17 40t6 48z
" />
    <glyph glyph-name="Lcaron" unicode="&#x13d;" horiz-adv-x="450" 
d="M48 0v23q28 6 43 22.5t15 48.5v494l-63 16v22q28 7 57.5 11.5t55.5 4.5q30 0 50 -2t45 -8v-19q-32 -10 -45 -26t-13 -47v-481h112q43 0 69.5 13.5t39.5 41.5l11 23h25l-23 -137h-379zM307 623q9 18 24.5 28.5t31.5 10.5q21 0 34.5 -13.5t13.5 -36.5q0 -43 -30 -82
t-50 -39q-5 0 -9 1.5t-8 4.5q11 19 17 40t6 48z" />
    <glyph glyph-name="lcaron" unicode="&#x13e;" horiz-adv-x="268" 
d="M47 0v17q19 7 36 21.5t17 32.5v580l-65 27v22q34 10 66.5 14t53.5 4h32l-5 -56v-620l56 -15v-19q-25 -9 -52 -13t-64 -4q-18 0 -38 2t-37 7zM223 660q9 18 24.5 28.5t31.5 10.5q21 0 34.5 -13.5t13.5 -36.5q0 -43 -30 -82t-50 -39q-5 0 -9 1.5t-8 4.5q11 19 17 40t6 48z
" />
    <glyph glyph-name="Ldot" unicode="&#x13f;" horiz-adv-x="450" 
d="M48 0v23q28 6 43 22.5t15 48.5v494l-63 16v22q28 7 57.5 11.5t55.5 4.5q30 0 50 -2t45 -8v-19q-32 -10 -45 -26t-13 -47v-481h112q43 0 69.5 13.5t39.5 41.5l11 23h25l-23 -137h-379zM320 265q0 24 18 43.5t44 19.5q22 0 36.5 -17t14.5 -42q0 -24 -17 -42.5t-41 -18.5
t-39.5 17t-15.5 40z" />
    <glyph glyph-name="ldot" unicode="&#x140;" horiz-adv-x="277" 
d="M47 0v17q19 7 36 21.5t17 32.5v580l-65 27v22q34 10 66.5 14t53.5 4h32l-5 -56v-620l56 -15v-19q-25 -9 -52 -13t-64 -4q-18 0 -38 2t-37 7zM211 243q0 24 18 43.5t44 19.5q22 0 36.5 -17t14.5 -41t-17 -42.5t-41 -18.5t-39.5 16.5t-15.5 39.5z" />
    <glyph glyph-name="Lslash" unicode="&#x141;" horiz-adv-x="450" 
d="M48 0v23q28 6 43 22.5t15 48.5v166l-52 -30l-25 43l77 44v271l-63 16v22q28 7 57.5 11.5t55.5 4.5q30 0 50 -2t45 -8v-19q-32 -10 -45 -26t-13 -47v-172l116 67l24 -43l-140 -82v-251h112q43 0 69.5 13.5t39.5 41.5l11 23h25l-23 -137h-379z" />
    <glyph glyph-name="lslash" unicode="&#x142;" horiz-adv-x="268" 
d="M47 0v17q19 7 36 21.5t17 32.5v232l-80 -46l-25 42l105 61v291l-65 27v22q34 10 66.5 14t53.5 4h32l-5 -56v-254l86 50l25 -43l-111 -64v-309l56 -15v-19q-25 -9 -52 -13t-64 -4q-18 0 -38 2t-37 7z" />
    <glyph glyph-name="Nacute" unicode="&#x143;" horiz-adv-x="631" 
d="M48 0v19q33 9 45.5 28.5t12.5 59.5v481l-63 17v29q28 4 57 5.5t53 1.5h37l278 -457l2 1v406l-64 16v21q25 7 50 12t50 5q30 0 47.5 -2.5t36.5 -8.5v-18q-33 -10 -45 -29t-12 -65v-524l-47 -11l-316 521l-1 -1v-462l61 -16v-22q-22 -8 -44 -12.5t-47 -4.5q-30 0 -51.5 2.5
t-39.5 7.5zM293 665l-8 6q25 28 52.5 80.5t36.5 95.5q36 0 50 -9.5t14 -28.5q0 -42 -55.5 -93t-89.5 -51z" />
    <glyph glyph-name="nacute" unicode="&#x144;" horiz-adv-x="550" 
d="M47 0v17q19 7 36 21.5t17 32.5v338l-65 27v22q34 10 66 14t54 4h24v-54q25 25 65 40.5t83 15.5q62 0 101 -39.5t39 -116.5v-280l52 -15v-19q-20 -8 -46.5 -12.5t-58.5 -4.5q-16 0 -33 2t-32 7v17q19 8 27.5 23.5t8.5 42.5v191q0 73 -28 104t-72 31q-31 0 -59 -9t-44 -22
v-336l56 -15v-19q-25 -9 -52 -13t-64 -4q-18 0 -38 2t-37 7zM206 515l-8 6q25 28 52.5 80.5t36.5 95.5q36 0 50 -9.5t14 -28.5q0 -42 -55.5 -93t-89.5 -51z" />
    <glyph glyph-name="Ncommaaccent" unicode="&#x145;" horiz-adv-x="631" 
d="M48 0v19q33 9 45.5 28.5t12.5 59.5v481l-63 17v29q28 4 57 5.5t53 1.5h37l278 -457l2 1v406l-64 16v21q25 7 50 12t50 5q30 0 47.5 -2.5t36.5 -8.5v-18q-33 -10 -45 -29t-12 -65v-524l-47 -11l-316 521l-1 -1v-462l61 -16v-22q-22 -8 -44 -12.5t-47 -4.5q-30 0 -51.5 2.5
t-39.5 7.5zM266 -90q9 18 24.5 28.5t31.5 10.5q21 0 34.5 -13.5t13.5 -36.5q0 -43 -30 -82t-50 -39q-5 0 -9 1.5t-8 4.5q11 19 17 40t6 48z" />
    <glyph glyph-name="ncommaaccent" unicode="&#x146;" horiz-adv-x="550" 
d="M47 0v17q19 7 36 21.5t17 32.5v338l-65 27v22q34 10 66 14t54 4h24v-54q25 25 65 40.5t83 15.5q62 0 101 -39.5t39 -116.5v-280l52 -15v-19q-20 -8 -46.5 -12.5t-58.5 -4.5q-16 0 -33 2t-32 7v17q19 8 27.5 23.5t8.5 42.5v191q0 73 -28 104t-72 31q-31 0 -59 -9t-44 -22
v-336l56 -15v-19q-25 -9 -52 -13t-64 -4q-18 0 -38 2t-37 7zM223 -90q9 18 24.5 28.5t31.5 10.5q21 0 34.5 -13.5t13.5 -36.5q0 -43 -30 -82t-50 -39q-5 0 -9 1.5t-8 4.5q11 19 17 40t6 48z" />
    <glyph glyph-name="Ncaron" unicode="&#x147;" horiz-adv-x="631" 
d="M48 0v19q33 9 45.5 28.5t12.5 59.5v481l-63 17v29q28 4 57 5.5t53 1.5h37l278 -457l2 1v406l-64 16v21q25 7 50 12t50 5q30 0 47.5 -2.5t36.5 -8.5v-18q-33 -10 -45 -29t-12 -65v-524l-47 -11l-316 521l-1 -1v-462l61 -16v-22q-22 -8 -44 -12.5t-47 -4.5q-30 0 -51.5 2.5
t-39.5 7.5zM310 674l-137 147q13 11 26.5 19t32.5 15l100 -123l114 124q13 -7 22 -16t16 -22l-138 -138z" />
    <glyph glyph-name="ncaron" unicode="&#x148;" horiz-adv-x="550" 
d="M47 0v17q19 7 36 21.5t17 32.5v338l-65 27v22q34 10 66 14t54 4h24v-54q25 25 65 40.5t83 15.5q62 0 101 -39.5t39 -116.5v-280l52 -15v-19q-20 -8 -46.5 -12.5t-58.5 -4.5q-16 0 -33 2t-32 7v17q19 8 27.5 23.5t8.5 42.5v191q0 73 -28 104t-72 31q-31 0 -59 -9t-44 -22
v-336l56 -15v-19q-25 -9 -52 -13t-64 -4q-18 0 -38 2t-37 7zM256 524l-137 147q13 11 26.5 19t32.5 15l100 -123l114 124q13 -7 22 -16t16 -22l-138 -138z" />
    <glyph glyph-name="napostrophe" unicode="&#x149;" horiz-adv-x="550" 
d="M47 0v17q19 7 36 21.5t17 32.5v338l-65 27v22q34 10 66 14t54 4h24v-54q25 25 65 40.5t83 15.5q62 0 101 -39.5t39 -116.5v-280l52 -15v-19q-20 -8 -46.5 -12.5t-58.5 -4.5q-16 0 -33 2t-32 7v17q19 8 27.5 23.5t8.5 42.5v191q0 73 -28 104t-72 31q-31 0 -59 -9t-44 -22
v-336l56 -15v-19q-25 -9 -52 -13t-64 -4q-18 0 -38 2t-37 7zM86 645q9 18 24.5 28.5t31.5 10.5q21 0 34.5 -13.5t13.5 -36.5q0 -43 -30 -82t-50 -39q-5 0 -9 1.5t-8 4.5q11 19 17 40t6 48z" />
    <glyph glyph-name="Eng" unicode="&#x14a;" horiz-adv-x="631" 
d="M48 0v19q33 9 45.5 28.5t12.5 59.5v481l-63 17v29q28 4 57 5.5t53 1.5h37l278 -457l2 1v406l-64 16v21q25 7 50 12t50 5q30 0 47.5 -2.5t36.5 -8.5v-18q-33 -10 -45 -29t-12 -65v-489q0 -118 -31 -167t-74 -49q-12 0 -23.5 2t-24.5 7v13q32 20 55.5 67.5t23.5 112.5v12
l-289 477l-1 -1v-462l61 -16v-22q-22 -8 -44 -12.5t-47 -4.5q-30 0 -51.5 2.5t-39.5 7.5z" />
    <glyph glyph-name="eng" unicode="&#x14b;" horiz-adv-x="550" 
d="M47 0v17q19 7 36 21.5t17 32.5v338l-65 27v22q34 10 66 14t54 4h24v-54q25 25 65 40.5t83 15.5q62 0 101 -39.5t39 -116.5v-352q0 -122 -32.5 -168.5t-80.5 -46.5q-16 0 -31.5 6t-24.5 18v16q33 0 60.5 38t27.5 114l-1 327q0 73 -28 104t-72 31q-31 0 -59 -9t-44 -22
v-336l56 -15v-19q-25 -9 -52 -13t-64 -4q-18 0 -38 2t-37 7z" />
    <glyph glyph-name="Omacron" unicode="&#x14c;" horiz-adv-x="653" 
d="M43 301q0 156 93 251.5t209 95.5q110 0 187.5 -81.5t77.5 -219.5q0 -172 -91 -268t-210 -96q-110 0 -188 85t-78 233zM319 47q72 0 132.5 68.5t60.5 213.5q0 131 -54.5 193t-123.5 62q-72 0 -132 -70t-60 -201t54.5 -198.5t122.5 -67.5zM199 725v59h266v-59h-266z" />
    <glyph glyph-name="omacron" unicode="&#x14d;" horiz-adv-x="533" 
d="M40 215q0 122 71.5 195.5t163.5 73.5t155 -63.5t63 -167.5q0 -123 -72.5 -196t-161.5 -73q-90 0 -154.5 61t-64.5 170zM131 225q0 -90 40.5 -136.5t93.5 -46.5q50 0 93.5 50t43.5 152q0 87 -40.5 134.5t-93.5 47.5q-51 0 -94 -51t-43 -150zM142 575v59h266v-59h-266z" />
    <glyph glyph-name="Obreve" unicode="&#x14e;" horiz-adv-x="653" 
d="M43 301q0 156 93 251.5t209 95.5q110 0 187.5 -81.5t77.5 -219.5q0 -172 -91 -268t-210 -96q-110 0 -188 85t-78 233zM319 47q72 0 132.5 68.5t60.5 213.5q0 131 -54.5 193t-123.5 62q-72 0 -132 -70t-60 -201t54.5 -198.5t122.5 -67.5zM332 679q-41 0 -83.5 31.5
t-78.5 98.5q13 11 25 19t30 13q30 -58 58 -82t54 -24q25 0 52 26t56 83q13 -7 22 -16t16 -21q-28 -60 -68.5 -94t-82.5 -34z" />
    <glyph glyph-name="obreve" unicode="&#x14f;" horiz-adv-x="533" 
d="M40 215q0 122 71.5 195.5t163.5 73.5t155 -63.5t63 -167.5q0 -123 -72.5 -196t-161.5 -73q-90 0 -154.5 61t-64.5 170zM131 225q0 -90 40.5 -136.5t93.5 -46.5q50 0 93.5 50t43.5 152q0 87 -40.5 134.5t-93.5 47.5q-51 0 -94 -51t-43 -150zM272 527q-41 0 -83.5 31.5
t-78.5 98.5q13 11 25 19t30 13q30 -58 58 -82t54 -24q25 0 52 26t56 83q13 -7 22 -16t16 -21q-28 -60 -68.5 -94t-82.5 -34z" />
    <glyph glyph-name="Ohungarumlaut" unicode="&#x150;" horiz-adv-x="653" 
d="M43 301q0 156 93 251.5t209 95.5q110 0 187.5 -81.5t77.5 -219.5q0 -172 -91 -268t-210 -96q-110 0 -188 85t-78 233zM319 47q72 0 132.5 68.5t60.5 213.5q0 131 -54.5 193t-123.5 62q-72 0 -132 -70t-60 -201t54.5 -198.5t122.5 -67.5zM207 664l-7 8q26 25 58.5 74.5
t44.5 92.5q26 0 43.5 -10t17.5 -27q0 -42 -58.5 -90t-98.5 -48zM390 664l-7 8q26 25 58.5 74.5t44.5 92.5q26 0 43.5 -10t17.5 -27q0 -42 -58.5 -90t-98.5 -48z" />
    <glyph glyph-name="ohungarumlaut" unicode="&#x151;" horiz-adv-x="533" 
d="M40 215q0 122 71.5 195.5t163.5 73.5t155 -63.5t63 -167.5q0 -123 -72.5 -196t-161.5 -73q-90 0 -154.5 61t-64.5 170zM131 225q0 -90 40.5 -136.5t93.5 -46.5q50 0 93.5 50t43.5 152q0 87 -40.5 134.5t-93.5 47.5q-51 0 -94 -51t-43 -150zM132 514l-7 8q26 25 58.5 74.5
t44.5 92.5q26 0 43.5 -10t17.5 -27q0 -42 -58.5 -90t-98.5 -48zM315 514l-7 8q26 25 58.5 74.5t44.5 92.5q26 0 43.5 -10t17.5 -27q0 -42 -58.5 -90t-98.5 -48z" />
    <glyph glyph-name="OE" unicode="&#x152;" horiz-adv-x="780" 
d="M319 49q28 0 51.5 8t46.5 22v479q-19 11 -38.5 17.5t-43.5 6.5q-74 0 -133.5 -70.5t-59.5 -198.5q0 -131 54.5 -197.5t122.5 -66.5zM43 301q0 153 92 250t209 97q20 0 40.5 -3t38.5 -9h308l-8 -147h-29l-3 18q-6 37 -23.5 53.5t-63.5 16.5h-100v-230h102q30 0 46.5 9
t22.5 28l7 24h27v-189h-27l-5 23q-5 25 -18.5 38t-32.5 13h-122v-234h119q42 0 63.5 14.5t34.5 39.5l10 19h28l-21 -132h-326q-31 -10 -53 -13.5t-50 -3.5q-110 0 -188 85t-78 233z" />
    <glyph glyph-name="oe" unicode="&#x153;" horiz-adv-x="817" 
d="M490 284h214q0 73 -28.5 109t-72.5 36q-41 0 -77 -43t-36 -102zM131 225q0 -90 40.5 -136.5t93.5 -46.5q50 0 93.5 50t43.5 152q0 87 -40.5 134.5t-93.5 47.5q-51 0 -94 -51t-43 -150zM40 215q0 122 71.5 195.5t163.5 73.5q61 0 106.5 -25.5t71.5 -71.5q28 47 70 71.5
t88 24.5q81 0 127 -50.5t46 -136.5v-29.5t-1 -34.5h-295q0 -84 43 -130.5t105 -46.5q37 0 75 12t66 31q1 -4 2.5 -11.5t1.5 -14.5q0 -34 -46.5 -60.5t-125.5 -26.5q-55 0 -99.5 26.5t-69.5 73.5q-31 -48 -78.5 -74.5t-102.5 -26.5q-90 0 -154.5 61t-64.5 170z" />
    <glyph glyph-name="Racute" unicode="&#x154;" horiz-adv-x="548" 
d="M48 0v19q29 8 43.5 25t14.5 51v491l-63 20v22q47 8 93.5 11.5t105.5 3.5q113 0 168 -43.5t55 -125.5q0 -74 -39 -122.5t-105 -68.5l141 -189q18 -24 42 -41.5t51 -26.5v-19q-14 -10 -33 -16t-43 -6q-32 0 -56 15.5t-51 55.5l-132 200h-47v-211l63 -16v-22q-25 -7 -53 -12
t-61 -5q-26 0 -49 2.5t-45 7.5zM193 304h39q58 0 100 38.5t42 116.5q0 61 -37 95t-101 34q-10 0 -21.5 -1.5t-21.5 -2.5v-280zM208 665l-8 6q25 28 52.5 80.5t36.5 95.5q36 0 50 -9.5t14 -28.5q0 -42 -55.5 -93t-89.5 -51z" />
    <glyph glyph-name="racute" unicode="&#x155;" horiz-adv-x="336" 
d="M47 0v17q19 7 36 21.5t17 32.5v338l-65 27v22q34 10 66 14t54 4h24v-70h1l28 31q20 22 41.5 33t46.5 11q26 0 39 -11t13 -32q0 -14 -4.5 -30t-11.5 -30q-14 11 -30 17t-32 6q-23 0 -45 -10.5t-43 -30.5v-318l69 -15v-19q-25 -9 -53 -13t-71 -4q-22 0 -42.5 2t-37.5 7z
M167 515l-8 6q25 28 52.5 80.5t36.5 95.5q36 0 50 -9.5t14 -28.5q0 -42 -55.5 -93t-89.5 -51z" />
    <glyph glyph-name="Rcommaaccent" unicode="&#x156;" horiz-adv-x="548" 
d="M48 0v19q29 8 43.5 25t14.5 51v491l-63 20v22q47 8 93.5 11.5t105.5 3.5q113 0 168 -43.5t55 -125.5q0 -74 -39 -122.5t-105 -68.5l141 -189q18 -24 42 -41.5t51 -26.5v-19q-14 -10 -33 -16t-43 -6q-32 0 -56 15.5t-51 55.5l-132 200h-47v-211l63 -16v-22q-25 -7 -53 -12
t-61 -5q-26 0 -49 2.5t-45 7.5zM193 304h39q58 0 100 38.5t42 116.5q0 61 -37 95t-101 34q-10 0 -21.5 -1.5t-21.5 -2.5v-280zM240 -90q9 18 24.5 28.5t31.5 10.5q21 0 34.5 -13.5t13.5 -36.5q0 -43 -30 -82t-50 -39q-5 0 -9 1.5t-8 4.5q11 19 17 40t6 48z" />
    <glyph glyph-name="rcommaaccent" unicode="&#x157;" horiz-adv-x="336" 
d="M47 0v17q19 7 36 21.5t17 32.5v338l-65 27v22q34 10 66 14t54 4h24v-70h1l28 31q20 22 41.5 33t46.5 11q26 0 39 -11t13 -32q0 -14 -4.5 -30t-11.5 -30q-14 11 -30 17t-32 6q-23 0 -45 -10.5t-43 -30.5v-318l69 -15v-19q-25 -9 -53 -13t-71 -4q-22 0 -42.5 2t-37.5 7z
M90 -90q9 18 24.5 28.5t31.5 10.5q21 0 34.5 -13.5t13.5 -36.5q0 -43 -30 -82t-50 -39q-5 0 -9 1.5t-8 4.5q11 19 17 40t6 48z" />
    <glyph glyph-name="Rcaron" unicode="&#x158;" horiz-adv-x="548" 
d="M48 0v19q29 8 43.5 25t14.5 51v491l-63 20v22q47 8 93.5 11.5t105.5 3.5q113 0 168 -43.5t55 -125.5q0 -74 -39 -122.5t-105 -68.5l141 -189q18 -24 42 -41.5t51 -26.5v-19q-14 -10 -33 -16t-43 -6q-32 0 -56 15.5t-51 55.5l-132 200h-47v-211l63 -16v-22q-25 -7 -53 -12
t-61 -5q-26 0 -49 2.5t-45 7.5zM193 304h39q58 0 100 38.5t42 116.5q0 61 -37 95t-101 34q-10 0 -21.5 -1.5t-21.5 -2.5v-280zM258 674l-137 147q13 11 26.5 19t32.5 15l100 -123l114 124q13 -7 22 -16t16 -22l-138 -138z" />
    <glyph glyph-name="rcaron" unicode="&#x159;" horiz-adv-x="336" 
d="M47 0v17q19 7 36 21.5t17 32.5v338l-65 27v22q34 10 66 14t54 4h24v-70h1l28 31q20 22 41.5 33t46.5 11q26 0 39 -11t13 -32q0 -14 -4.5 -30t-11.5 -30q-14 11 -30 17t-32 6q-23 0 -45 -10.5t-43 -30.5v-318l69 -15v-19q-25 -9 -53 -13t-71 -4q-22 0 -42.5 2t-37.5 7z
M189 524l-137 147q13 11 26.5 19t32.5 15l100 -123l114 124q13 -7 22 -16t16 -22l-138 -138z" />
    <glyph glyph-name="Sacute" unicode="&#x15a;" horiz-adv-x="451" 
d="M35 8v145h29l7 -25q11 -41 38.5 -60t84.5 -19q55 0 93 29t38 75q0 29 -20.5 57t-66.5 55l-95 56q-46 27 -68.5 65t-22.5 87q0 74 61 124.5t148 50.5q46 0 78 -5.5t62 -17.5l-9 -141h-29l-4 20q-10 46 -34 63.5t-74 17.5q-54 0 -86 -28.5t-32 -65.5q0 -31 17 -55.5
t57 -45.5l99 -54q52 -28 78.5 -67t26.5 -87q0 -78 -66 -136.5t-156 -58.5q-47 0 -84.5 5t-69.5 16zM179 665l-8 6q25 28 52.5 80.5t36.5 95.5q36 0 50 -9.5t14 -28.5q0 -42 -55.5 -93t-89.5 -51z" />
    <glyph glyph-name="sacute" unicode="&#x15b;" horiz-adv-x="370" 
d="M32 67q0 10 2.5 21.5t6.5 19.5q34 -31 67.5 -47t73.5 -16q42 0 63.5 18t21.5 44t-18.5 45t-67.5 40l-50 21q-43 19 -66.5 50t-23.5 74q0 59 48 103t126 44q60 0 86 -17t26 -45q0 -11 -1.5 -21.5t-3.5 -20.5q-24 16 -55 27t-59 11q-48 0 -71 -18.5t-23 -43.5
q0 -27 16.5 -44.5t61.5 -34.5l54 -21q54 -21 76.5 -50.5t22.5 -73.5q0 -57 -51 -102t-135 -45q-66 0 -96.5 21t-30.5 61zM146 515l-8 6q25 28 52.5 80.5t36.5 95.5q36 0 50 -9.5t14 -28.5q0 -42 -55.5 -93t-89.5 -51z" />
    <glyph glyph-name="Scircumflex" unicode="&#x15c;" horiz-adv-x="451" 
d="M35 8v145h29l7 -25q11 -41 38.5 -60t84.5 -19q55 0 93 29t38 75q0 29 -20.5 57t-66.5 55l-95 56q-46 27 -68.5 65t-22.5 87q0 74 61 124.5t148 50.5q46 0 78 -5.5t62 -17.5l-9 -141h-29l-4 20q-10 46 -34 63.5t-74 17.5q-54 0 -86 -28.5t-32 -65.5q0 -31 17 -55.5
t57 -45.5l99 -54q52 -28 78.5 -67t26.5 -87q0 -78 -66 -136.5t-156 -58.5q-47 0 -84.5 5t-69.5 16zM126 679q-13 7 -22 16t-16 22l134 127l36 6l141 -154l-14 -14q-27 0 -49.5 10t-47.5 35q-14 14 -27 31t-22 35z" />
    <glyph glyph-name="scircumflex" unicode="&#x15d;" horiz-adv-x="370" 
d="M32 67q0 10 2.5 21.5t6.5 19.5q34 -31 67.5 -47t73.5 -16q42 0 63.5 18t21.5 44t-18.5 45t-67.5 40l-50 21q-43 19 -66.5 50t-23.5 74q0 59 48 103t126 44q60 0 86 -17t26 -45q0 -11 -1.5 -21.5t-3.5 -20.5q-24 16 -55 27t-59 11q-48 0 -71 -18.5t-23 -43.5
q0 -27 16.5 -44.5t61.5 -34.5l54 -21q54 -21 76.5 -50.5t22.5 -73.5q0 -57 -51 -102t-135 -45q-66 0 -96.5 21t-30.5 61zM83 528q-13 7 -22 16t-16 22l134 127l36 6l141 -154l-14 -14q-27 0 -49.5 10t-47.5 35q-14 14 -27 31t-22 35z" />
    <glyph glyph-name="uni015E" unicode="&#x15e;" horiz-adv-x="451" 
d="M35 8v145h29l7 -25q11 -41 38.5 -60t84.5 -19q55 0 93 29t38 75q0 29 -20.5 57t-66.5 55l-95 56q-46 27 -68.5 65t-22.5 87q0 74 61 124.5t148 50.5q46 0 78 -5.5t62 -17.5l-9 -141h-29l-4 20q-10 46 -34 63.5t-74 17.5q-54 0 -86 -28.5t-32 -65.5q0 -31 17 -55.5
t57 -45.5l99 -54q52 -28 78.5 -67t26.5 -87q0 -78 -66 -137q-52 -45 -118 -55v-42q37 0 56.5 -16t19.5 -40q0 -40 -40 -72.5t-89 -32.5q-35 0 -54.5 19.5t-19.5 54.5q19 -12 39.5 -19t42.5 -7q25 0 40 13t15 26q0 16 -13.5 26t-47.5 10l13 77q-47 0 -84.5 5t-69.5 16z" />
    <glyph glyph-name="uni015F" unicode="&#x15f;" horiz-adv-x="370" 
d="M32 67q0 10 2.5 21.5t6.5 19.5q34 -31 67.5 -47t73.5 -16q42 0 63.5 18t21.5 44t-18.5 45t-67.5 40l-50 21q-43 19 -66.5 50t-23.5 74q0 59 48 103t126 44q60 0 86 -17t26 -45q0 -11 -1.5 -21.5t-3.5 -20.5q-24 16 -55 27t-59 11q-48 0 -71 -18.5t-23 -43.5
q0 -27 16.5 -44.5t61.5 -34.5l54 -21q54 -21 76.5 -50.5t22.5 -73.5q0 -57 -51 -102q-38 -33 -94 -42v-40q37 0 56.5 -16t19.5 -40q0 -40 -40 -72.5t-89 -32.5q-35 0 -54.5 19.5t-19.5 54.5q19 -12 39.5 -19t42.5 -7q25 0 40 13t15 26q0 16 -13.5 26t-47.5 10l13 75h-3
q-66 0 -96.5 21t-30.5 61z" />
    <glyph glyph-name="Scaron" unicode="&#x160;" horiz-adv-x="451" 
d="M35 8v145h29l7 -25q11 -41 38.5 -60t84.5 -19q55 0 93 29t38 75q0 29 -20.5 57t-66.5 55l-95 56q-46 27 -68.5 65t-22.5 87q0 74 61 124.5t148 50.5q46 0 78 -5.5t62 -17.5l-9 -141h-29l-4 20q-10 46 -34 63.5t-74 17.5q-54 0 -86 -28.5t-32 -65.5q0 -31 17 -55.5
t57 -45.5l99 -54q52 -28 78.5 -67t26.5 -87q0 -78 -66 -136.5t-156 -58.5q-47 0 -84.5 5t-69.5 16zM214 674l-137 147q13 11 26.5 19t32.5 15l100 -123l114 124q13 -7 22 -16t16 -22l-138 -138z" />
    <glyph glyph-name="scaron" unicode="&#x161;" horiz-adv-x="370" 
d="M32 67q0 10 2.5 21.5t6.5 19.5q34 -31 67.5 -47t73.5 -16q42 0 63.5 18t21.5 44t-18.5 45t-67.5 40l-50 21q-43 19 -66.5 50t-23.5 74q0 59 48 103t126 44q60 0 86 -17t26 -45q0 -11 -1.5 -21.5t-3.5 -20.5q-24 16 -55 27t-59 11q-48 0 -71 -18.5t-23 -43.5
q0 -27 16.5 -44.5t61.5 -34.5l54 -21q54 -21 76.5 -50.5t22.5 -73.5q0 -57 -51 -102t-135 -45q-66 0 -96.5 21t-30.5 61zM170 524l-137 147q13 11 26.5 19t32.5 15l100 -123l114 124q13 -7 22 -16t16 -22l-138 -138z" />
    <glyph glyph-name="uni0162" unicode="&#x162;" horiz-adv-x="464" 
d="M130 0v19q28 8 43.5 25.5t15.5 47.5v491h-75q-34 0 -52.5 -17.5t-25.5 -49.5l-6 -23h-31v146q51 -1 123 -2t117 -1q66 0 118.5 2t107.5 6v-151h-31l-4 23q-4 33 -19 50t-45 17h-91v-538l74 -16v-22q-27 -8 -56 -12q-23 -4 -48 -5v-42q37 0 56.5 -16t19.5 -40
q0 -40 -40 -72.5t-89 -32.5q-35 0 -54.5 19.5t-19.5 54.5q19 -12 39.5 -19t42.5 -7q25 0 40 13t15 26q0 16 -13.5 26t-47.5 10l14 80q-19 1 -34 2q-22 2 -44 8z" />
    <glyph glyph-name="uni0163" unicode="&#x163;" horiz-adv-x="310" 
d="M87 126q0 36 1 74.5t2 72.5l3 133h-55v33l108 107l33 4l-4 -90h132l-7 -54h-128l-2 -126q-1 -31 -1 -60v-57q0 -60 16.5 -84.5t44.5 -24.5q22 0 40.5 7t33.5 19l10 -4q-3 -44 -30 -66.5t-78 -22.5h-9v-39q37 0 56.5 -16t19.5 -40q0 -40 -40 -72.5t-89 -32.5
q-35 0 -54.5 19.5t-19.5 54.5q19 -12 39.5 -19t42.5 -7q25 0 40 13t15 26q0 16 -13.5 26t-47.5 10l14 83q-27 8 -44 27q-29 34 -29 106z" />
    <glyph glyph-name="Tcaron" unicode="&#x164;" horiz-adv-x="464" 
d="M130 0v19q28 8 43.5 25.5t15.5 47.5v491h-75q-34 0 -52.5 -17.5t-25.5 -49.5l-6 -23h-31v146q51 -1 123 -2t117 -1q66 0 118.5 2t107.5 6v-151h-31l-4 23q-4 33 -19 50t-45 17h-91v-538l74 -16v-22q-27 -8 -56 -12.5t-64 -4.5q-32 0 -54.5 2t-44.5 8zM211 674l-137 147
q13 11 26.5 19t32.5 15l100 -123l114 124q13 -7 22 -16t16 -22l-138 -138z" />
    <glyph glyph-name="tcaron" unicode="&#x165;" horiz-adv-x="314" 
d="M87 126q0 36 1 74.5t2 72.5l3 133h-55v33l108 107l33 4l-4 -90h132l-7 -54h-128l-2 -126q-1 -31 -1 -60v-57q0 -60 16.5 -84.5t44.5 -24.5q22 0 40.5 7t33.5 19l10 -4q-3 -44 -30 -66.5t-78 -22.5q-60 0 -89.5 33.5t-29.5 105.5zM249 660q9 18 24.5 28.5t31.5 10.5
q21 0 34.5 -13.5t13.5 -36.5q0 -43 -30 -82t-50 -39q-5 0 -9 1.5t-8 4.5q11 19 17 40t6 48z" />
    <glyph glyph-name="Tbar" unicode="&#x166;" horiz-adv-x="464" 
d="M130 0v19q28 8 43.5 25.5t15.5 47.5v190h-27q-25 -1 -47 -2t-47 -3q-1 4 -2.5 9.5t-1.5 11.5q0 19 17.5 25.5t86.5 8.5h21v251h-75q-34 0 -52.5 -17.5t-25.5 -49.5l-6 -23h-31v146q51 -1 123 -2t117 -1q66 0 118.5 2t107.5 6v-151h-31l-4 23q-4 33 -19 50t-45 17h-91
v-248l20 1q25 1 47.5 1.5t47.5 2.5q1 -4 2.5 -13.5t1.5 -15.5q0 -16 -19 -21t-88 -6h-12v-239l74 -16v-22q-27 -8 -56 -12.5t-64 -4.5q-32 0 -54.5 2t-44.5 8z" />
    <glyph glyph-name="tbar" unicode="&#x167;" horiz-adv-x="314" 
d="M87 126q0 27 0.5 56t1.5 57h-59v47h60l3 120h-55v33l108 107l33 4l-4 -90h132l-7 -54h-128l-2 -120h115l-10 -47h-106v-76q0 -60 16.5 -84.5t44.5 -24.5q22 0 40.5 7t33.5 19l10 -4q-3 -44 -30 -66.5t-78 -22.5q-60 0 -89.5 33.5t-29.5 105.5z" />
    <glyph glyph-name="Utilde" unicode="&#x168;" horiz-adv-x="635" 
d="M92 183v405l-64 16v22q28 7 57 11.5t57 4.5q25 0 47.5 -2t47.5 -7v-20q-32 -8 -45.5 -25t-13.5 -54v-334q0 -69 40 -109.5t107 -40.5q65 0 106.5 43t41.5 133v362l-64 16v22q28 8 54.5 12.5t52.5 4.5q24 0 43.5 -3t41.5 -8v-19q-33 -11 -45.5 -27.5t-12.5 -47.5v-300
q0 -126 -65 -189t-164 -63q-108 0 -165 52t-57 145zM197 693q-11 9 -18 23t-7 30q0 24 17.5 38t49.5 14q16 0 33 -3t36 -9l48 -14q12 -4 25 -6t23 -2q18 0 33 15t15 34q11 -10 18 -23t7 -29q0 -25 -21 -42.5t-49 -17.5q-16 0 -33.5 3t-33.5 8l-49 15q-14 4 -26.5 6t-22.5 2
q-18 0 -31.5 -13t-13.5 -29z" />
    <glyph glyph-name="utilde" unicode="&#x169;" horiz-adv-x="531" 
d="M90 153v256l-57 28v21q34 10 62.5 14.5t49.5 4.5h33l-6 -56v-226q0 -78 24.5 -108.5t72.5 -30.5q28 0 54.5 9t43.5 20v324l-58 28v21q34 10 63 14.5t50 4.5h33l-6 -56v-338q5 -13 15.5 -26t22.5 -26q-11 -12 -30 -25t-38 -22q-15 10 -27.5 25.5t-19.5 32.5
q-19 -17 -58.5 -35t-85.5 -18q-63 0 -100.5 39t-37.5 125zM138 541q-11 9 -18 23t-7 30q0 24 17.5 38t49.5 14q16 0 33 -3t36 -9l48 -14q12 -4 25 -6t23 -2q18 0 33 15t15 34q11 -10 18 -23t7 -29q0 -25 -21 -42.5t-49 -17.5q-16 0 -33.5 3t-33.5 8l-49 15q-14 4 -26.5 6
t-22.5 2q-18 0 -31.5 -13t-13.5 -29z" />
    <glyph glyph-name="Umacron" unicode="&#x16a;" horiz-adv-x="635" 
d="M92 183v405l-64 16v22q28 7 57 11.5t57 4.5q25 0 47.5 -2t47.5 -7v-20q-32 -8 -45.5 -25t-13.5 -54v-334q0 -69 40 -109.5t107 -40.5q65 0 106.5 43t41.5 133v362l-64 16v22q28 8 54.5 12.5t52.5 4.5q24 0 43.5 -3t41.5 -8v-19q-33 -11 -45.5 -27.5t-12.5 -47.5v-300
q0 -126 -65 -189t-164 -63q-108 0 -165 52t-57 145zM184 725v59h266v-59h-266z" />
    <glyph glyph-name="umacron" unicode="&#x16b;" horiz-adv-x="531" 
d="M90 153v256l-57 28v21q34 10 62.5 14.5t49.5 4.5h33l-6 -56v-226q0 -78 24.5 -108.5t72.5 -30.5q28 0 54.5 9t43.5 20v324l-58 28v21q34 10 63 14.5t50 4.5h33l-6 -56v-338q5 -13 15.5 -26t22.5 -26q-11 -12 -30 -25t-38 -22q-15 10 -27.5 25.5t-19.5 32.5
q-19 -17 -58.5 -35t-85.5 -18q-63 0 -100.5 39t-37.5 125zM132 575v59h266v-59h-266z" />
    <glyph glyph-name="Ubreve" unicode="&#x16c;" horiz-adv-x="635" 
d="M92 183v405l-64 16v22q28 7 57 11.5t57 4.5q25 0 47.5 -2t47.5 -7v-20q-32 -8 -45.5 -25t-13.5 -54v-334q0 -69 40 -109.5t107 -40.5q65 0 106.5 43t41.5 133v362l-64 16v22q28 8 54.5 12.5t52.5 4.5q24 0 43.5 -3t41.5 -8v-19q-33 -11 -45.5 -27.5t-12.5 -47.5v-300
q0 -126 -65 -189t-164 -63q-108 0 -165 52t-57 145zM322 678q-41 0 -83.5 31.5t-78.5 98.5q13 11 25 19t30 13q30 -58 58 -82t54 -24q25 0 52 26t56 83q13 -7 22 -16t16 -21q-28 -60 -68.5 -94t-82.5 -34z" />
    <glyph glyph-name="ubreve" unicode="&#x16d;" horiz-adv-x="531" 
d="M90 153v256l-57 28v21q34 10 62.5 14.5t49.5 4.5h33l-6 -56v-226q0 -78 24.5 -108.5t72.5 -30.5q28 0 54.5 9t43.5 20v324l-58 28v21q34 10 63 14.5t50 4.5h33l-6 -56v-338q5 -13 15.5 -26t22.5 -26q-11 -12 -30 -25t-38 -22q-15 10 -27.5 25.5t-19.5 32.5
q-19 -17 -58.5 -35t-85.5 -18q-63 0 -100.5 39t-37.5 125zM271 527q-41 0 -83.5 31.5t-78.5 98.5q13 11 25 19t30 13q30 -58 58 -82t54 -24q25 0 52 26t56 83q13 -7 22 -16t16 -21q-28 -60 -68.5 -94t-82.5 -34z" />
    <glyph glyph-name="Uring" unicode="&#x16e;" horiz-adv-x="635" 
d="M92 183v405l-64 16v22q28 7 57 11.5t57 4.5q25 0 47.5 -2t47.5 -7v-20q-32 -8 -45.5 -25t-13.5 -54v-334q0 -69 40 -109.5t107 -40.5q65 0 106.5 43t41.5 133v362l-64 16v22q28 8 54.5 12.5t52.5 4.5q24 0 43.5 -3t41.5 -8v-19q-33 -11 -45.5 -27.5t-12.5 -47.5v-300
q0 -126 -65 -189t-164 -63q-108 0 -165 52t-57 145zM318 682q-37 0 -62.5 23.5t-25.5 62.5q0 37 25.5 63.5t60.5 26.5q38 0 64 -24t26 -64q0 -37 -26 -62.5t-62 -25.5zM318 716q22 0 34.5 14t12.5 38q0 25 -13.5 40.5t-34.5 15.5t-34 -16t-13 -40q0 -23 14.5 -37.5
t33.5 -14.5z" />
    <glyph glyph-name="uring" unicode="&#x16f;" horiz-adv-x="531" 
d="M90 153v256l-57 28v21q34 10 62.5 14.5t49.5 4.5h33l-6 -56v-226q0 -78 24.5 -108.5t72.5 -30.5q28 0 54.5 9t43.5 20v324l-58 28v21q34 10 63 14.5t50 4.5h33l-6 -56v-338q5 -13 15.5 -26t22.5 -26q-11 -12 -30 -25t-38 -22q-15 10 -27.5 25.5t-19.5 32.5
q-19 -17 -58.5 -35t-85.5 -18q-63 0 -100.5 39t-37.5 125zM266 530q-37 0 -62.5 23.5t-25.5 62.5q0 37 25.5 63.5t60.5 26.5q38 0 64 -24t26 -64q0 -37 -26 -62.5t-62 -25.5zM266 564q22 0 34.5 14t12.5 38q0 25 -13.5 40.5t-34.5 15.5t-34 -16t-13 -40q0 -23 14.5 -37.5
t33.5 -14.5z" />
    <glyph glyph-name="Uhungarumlaut" unicode="&#x170;" horiz-adv-x="635" 
d="M92 183v405l-64 16v22q28 7 57 11.5t57 4.5q25 0 47.5 -2t47.5 -7v-20q-32 -8 -45.5 -25t-13.5 -54v-334q0 -69 40 -109.5t107 -40.5q65 0 106.5 43t41.5 133v362l-64 16v22q28 8 54.5 12.5t52.5 4.5q24 0 43.5 -3t41.5 -8v-19q-33 -11 -45.5 -27.5t-12.5 -47.5v-300
q0 -126 -65 -189t-164 -63q-108 0 -165 52t-57 145zM207 665l-7 8q26 25 58.5 74.5t44.5 92.5q26 0 43.5 -10t17.5 -27q0 -42 -58.5 -90t-98.5 -48zM390 665l-7 8q26 25 58.5 74.5t44.5 92.5q26 0 43.5 -10t17.5 -27q0 -42 -58.5 -90t-98.5 -48z" />
    <glyph glyph-name="uhungarumlaut" unicode="&#x171;" horiz-adv-x="531" 
d="M90 153v256l-57 28v21q34 10 62.5 14.5t49.5 4.5h33l-6 -56v-226q0 -78 24.5 -108.5t72.5 -30.5q28 0 54.5 9t43.5 20v324l-58 28v21q34 10 63 14.5t50 4.5h33l-6 -56v-338q5 -13 15.5 -26t22.5 -26q-11 -12 -30 -25t-38 -22q-15 10 -27.5 25.5t-19.5 32.5
q-19 -17 -58.5 -35t-85.5 -18q-63 0 -100.5 39t-37.5 125zM127 516l-7 8q26 25 58.5 74.5t44.5 92.5q26 0 43.5 -10t17.5 -27q0 -42 -58.5 -90t-98.5 -48zM310 516l-7 8q26 25 58.5 74.5t44.5 92.5q26 0 43.5 -10t17.5 -27q0 -42 -58.5 -90t-98.5 -48z" />
    <glyph glyph-name="Uogonek" unicode="&#x172;" horiz-adv-x="635" 
d="M92 183v405l-64 16v22q28 7 57 11.5t57 4.5q25 0 47.5 -2t47.5 -7v-20q-32 -8 -45.5 -25t-13.5 -54v-334q0 -69 40 -109.5t107 -40.5q65 0 106.5 43t41.5 133v362l-64 16v22q28 8 54.5 12.5t52.5 4.5q24 0 43.5 -3t41.5 -8v-19q-33 -11 -45.5 -27.5t-12.5 -47.5v-300
q0 -101 -43 -162t-112 -80l-40 -52q-9 -12 -17 -28.5t-8 -31.5q0 -24 13.5 -37t34.5 -13q19 0 38.5 5.5t36.5 13.5q0 -29 -22 -47.5t-69 -18.5q-44 0 -70.5 23t-26.5 63q0 25 14 46.5t34 38.5l33 29q-6 0 -12.5 -0.5t-12.5 -0.5q-108 0 -165 52t-57 145z" />
    <glyph glyph-name="uogonek" unicode="&#x173;" horiz-adv-x="531" 
d="M90 153v256l-57 28v21q34 10 62.5 14.5t49.5 4.5h33l-6 -56v-226q0 -78 24.5 -108.5t72.5 -30.5q28 0 54.5 9t43.5 20v324l-58 28v21q34 10 63 14.5t50 4.5h33l-6 -56v-338q5 -13 15.5 -26t22.5 -26q-7 -8 -18 -16.5t-24 -15.5v-1l-42 -54q-9 -12 -17 -28.5t-8 -31.5
q0 -24 13.5 -37t34.5 -13q19 0 38.5 5.5t36.5 13.5q0 -29 -22 -47.5t-69 -18.5q-44 0 -70.5 23t-26.5 63q0 25 14 46.5t34 38.5l43 38q-10 9 -19 21t-13 25q-19 -17 -58.5 -35t-85.5 -18q-63 0 -100.5 39t-37.5 125z" />
    <glyph glyph-name="Wcircumflex" unicode="&#x174;" horiz-adv-x="798" 
d="M224 -9l-187 597l-55 17v21q25 8 51.5 12.5t50.5 4.5t45 -1.5t44 -7.5v-19q-23 -5 -30.5 -19t-0.5 -38l109 -403h1l106 433l-53 16v22q28 8 54.5 12t54.5 4q22 0 44 -2.5t37 -7.5v-19q-15 -5 -19.5 -17.5t0.5 -34.5l97 -405h1l110 431l-61 19v21q28 8 54 12t51 4
q20 0 35 -2.5t30 -7.5v-18q-19 -13 -31 -28.5t-19 -41.5l-164 -550l-39 -4l-139 528h-1l-138 -524zM290 679q-13 7 -22 16t-16 22l134 127l36 6l141 -154l-14 -14q-27 0 -49.5 10t-47.5 35q-14 14 -27 31t-22 35z" />
    <glyph glyph-name="wcircumflex" unicode="&#x175;" horiz-adv-x="667" 
d="M173 -14l-150 436l-43 30v24h194v-24l-58 -24l89 -321h1l99 319l-55 26v24h170v-24l-29 -22l90 -322h1l103 317l-57 27v24h154v-24l-27 -22l-168 -442l-42 -2l-111 368h-1l-115 -366zM205 528q-13 7 -22 16t-16 22l134 127l36 6l141 -154l-14 -14q-27 0 -49.5 10
t-47.5 35q-14 14 -27 31t-22 35z" />
    <glyph glyph-name="Ycircumflex" unicode="&#x176;" horiz-adv-x="498" 
d="M147 0v19q25 6 42 22t17 50v189l-165 310l-54 16v21q24 7 50 11.5t51 4.5q27 0 46.5 -2t47.5 -7v-19q-24 -7 -32 -22t2 -37l112 -214h1l121 246l-60 17v21q28 8 53 12t51 4q21 0 36 -2t33 -7v-19q-19 -8 -30.5 -21.5t-25.5 -41.5l-151 -268v-238l64 -16v-22
q-25 -7 -53.5 -12t-63.5 -5q-28 0 -49.5 2.5t-42.5 7.5zM136 679q-13 7 -22 16t-16 22l134 127l36 6l141 -154l-14 -14q-27 0 -49.5 10t-47.5 35q-14 14 -27 31t-22 35z" />
    <glyph glyph-name="ycircumflex" unicode="&#x177;" horiz-adv-x="399" 
d="M161 -15l17 45l-158 393l-38 29v24h184v-24l-54 -24l106 -305h1l95 302l-56 27v24h150v-24l-25 -22l-141 -390q-59 -164 -115 -224.5t-94 -60.5q-30 0 -45.5 16.5t-15.5 61.5q10 -2 21 -3t24 -1q31 0 72 37.5t72 118.5zM76 528q-13 7 -22 16t-16 22l134 127l36 6
l141 -154l-14 -14q-27 0 -49.5 10t-47.5 35q-14 14 -27 31t-22 35z" />
    <glyph glyph-name="Ydieresis" unicode="&#x178;" horiz-adv-x="498" 
d="M147 0v19q25 6 42 22t17 50v189l-165 310l-54 16v21q24 7 50 11.5t51 4.5q27 0 46.5 -2t47.5 -7v-19q-24 -7 -32 -22t2 -37l112 -214h1l121 246l-60 17v21q28 8 53 12t51 4q21 0 36 -2t33 -7v-19q-19 -8 -30.5 -21.5t-25.5 -41.5l-151 -268v-238l64 -16v-22
q-25 -7 -53.5 -12t-63.5 -5q-28 0 -49.5 2.5t-42.5 7.5zM180 676q-20 0 -34 14t-14 34t14 34t34 14t34 -14t14 -34t-14 -34t-34 -14zM336 676q-20 0 -34 14t-14 34t14 34t34 14t34 -14t14 -34t-14 -34t-34 -14z" />
    <glyph glyph-name="Zacute" unicode="&#x179;" horiz-adv-x="463" 
d="M28 0l-9 25l316 552h-175q-30 0 -50.5 -17t-31.5 -51l-7 -22h-32l12 149h389l9 -22l-314 -555h177q48 0 69 16t35 55l6 19h32l-16 -149h-410zM210 665l-8 6q25 28 52.5 80.5t36.5 95.5q36 0 50 -9.5t14 -28.5q0 -42 -55.5 -93t-89.5 -51z" />
    <glyph glyph-name="zacute" unicode="&#x17a;" horiz-adv-x="390" 
d="M17 15l246 400h-117q-29 0 -47 -12t-25 -31l-9 -25h-30l11 125l320 -1l8 -18l-243 -397h123q39 0 56.5 9.5t26.5 28.5l16 33h27l-14 -127h-341zM152 515l-8 6q25 28 52.5 80.5t36.5 95.5q36 0 50 -9.5t14 -28.5q0 -42 -55.5 -93t-89.5 -51z" />
    <glyph glyph-name="Zdotaccent" unicode="&#x17b;" horiz-adv-x="463" 
d="M28 0l-9 25l316 552h-175q-30 0 -50.5 -17t-31.5 -51l-7 -22h-32l12 149h389l9 -22l-314 -555h177q48 0 69 16t35 55l6 19h32l-16 -149h-410zM249 708q-21 0 -32.5 13t-11.5 32q0 17 14 33.5t35 16.5q18 0 29.5 -14t11.5 -33t-14 -33.5t-32 -14.5z" />
    <glyph glyph-name="zdotaccent" unicode="&#x17c;" horiz-adv-x="390" 
d="M17 15l246 400h-117q-29 0 -47 -12t-25 -31l-9 -25h-30l11 125l320 -1l8 -18l-243 -397h123q39 0 56.5 9.5t26.5 28.5l16 33h27l-14 -127h-341zM206 557q-21 0 -32.5 13t-11.5 32q0 17 14 33.5t35 16.5q18 0 29.5 -14t11.5 -33t-14 -33.5t-32 -14.5z" />
    <glyph glyph-name="Zcaron" unicode="&#x17d;" horiz-adv-x="463" 
d="M28 0l-9 25l316 552h-175q-30 0 -50.5 -17t-31.5 -51l-7 -22h-32l12 149h389l9 -22l-314 -555h177q48 0 69 16t35 55l6 19h32l-16 -149h-410zM233 674l-137 147q13 11 26.5 19t32.5 15l100 -123l114 124q13 -7 22 -16t16 -22l-138 -138z" />
    <glyph glyph-name="zcaron" unicode="&#x17e;" horiz-adv-x="390" 
d="M17 15l246 400h-117q-29 0 -47 -12t-25 -31l-9 -25h-30l11 125l320 -1l8 -18l-243 -397h123q39 0 56.5 9.5t26.5 28.5l16 33h27l-14 -127h-341zM181 524l-137 147q13 11 26.5 19t32.5 15l100 -123l114 124q13 -7 22 -16t16 -22l-138 -138z" />
    <glyph glyph-name="florin" unicode="&#x192;" 
d="M165 -62l15 354h-109l7 52h105l5 148q2 69 53.5 113t123.5 44q59 0 82.5 -12.5t23.5 -33.5q0 -9 -2.5 -20t-7.5 -21q-28 16 -56 23.5t-54 7.5q-34 0 -58 -25.5t-26 -72.5l-6 -151h167l-7 -52h-162l-12 -347q-2 -73 -37.5 -108t-76.5 -35q-16 0 -36 5t-32 13v16
q40 7 69.5 34.5t30.5 67.5z" />
    <glyph glyph-name="uni0218" unicode="&#x218;" horiz-adv-x="451" 
d="M35 8v145h29l7 -25q11 -41 38.5 -60t84.5 -19q55 0 93 29t38 75q0 29 -20.5 57t-66.5 55l-95 56q-46 27 -68.5 65t-22.5 87q0 74 61 124.5t148 50.5q46 0 78 -5.5t62 -17.5l-9 -141h-29l-4 20q-10 46 -34 63.5t-74 17.5q-54 0 -86 -28.5t-32 -65.5q0 -31 17 -55.5
t57 -45.5l99 -54q52 -28 78.5 -67t26.5 -87q0 -78 -66 -136.5t-156 -58.5q-47 0 -84.5 5t-69.5 16zM166 -90q9 18 24.5 28.5t31.5 10.5q21 0 34.5 -13.5t13.5 -36.5q0 -43 -30 -82t-50 -39q-5 0 -9 1.5t-8 4.5q11 19 17 40t6 48z" />
    <glyph glyph-name="uni0219" unicode="&#x219;" horiz-adv-x="370" 
d="M32 67q0 10 2.5 21.5t6.5 19.5q34 -31 67.5 -47t73.5 -16q42 0 63.5 18t21.5 44t-18.5 45t-67.5 40l-50 21q-43 19 -66.5 50t-23.5 74q0 59 48 103t126 44q60 0 86 -17t26 -45q0 -11 -1.5 -21.5t-3.5 -20.5q-24 16 -55 27t-59 11q-48 0 -71 -18.5t-23 -43.5
q0 -27 16.5 -44.5t61.5 -34.5l54 -21q54 -21 76.5 -50.5t22.5 -73.5q0 -57 -51 -102t-135 -45q-66 0 -96.5 21t-30.5 61zM126 -90q9 18 24.5 28.5t31.5 10.5q21 0 34.5 -13.5t13.5 -36.5q0 -43 -30 -82t-50 -39q-5 0 -9 1.5t-8 4.5q11 19 17 40t6 48z" />
    <glyph glyph-name="uni021A" unicode="&#x21a;" horiz-adv-x="464" 
d="M130 0v19q28 8 43.5 25.5t15.5 47.5v491h-75q-34 0 -52.5 -17.5t-25.5 -49.5l-6 -23h-31v146q51 -1 123 -2t117 -1q66 0 118.5 2t107.5 6v-151h-31l-4 23q-4 33 -19 50t-45 17h-91v-538l74 -16v-22q-27 -8 -56 -12.5t-64 -4.5q-32 0 -54.5 2t-44.5 8zM177 -90
q9 18 24.5 28.5t31.5 10.5q21 0 34.5 -13.5t13.5 -36.5q0 -43 -30 -82t-50 -39q-5 0 -9 1.5t-8 4.5q11 19 17 40t6 48z" />
    <glyph glyph-name="uni021B" unicode="&#x21b;" horiz-adv-x="310" 
d="M87 126q0 36 1 74.5t2 72.5l3 133h-55v33l108 107l33 4l-4 -90h132l-7 -54h-128l-2 -126q-1 -31 -1 -60v-57q0 -60 16.5 -84.5t44.5 -24.5q22 0 40.5 7t33.5 19l10 -4q-3 -44 -30 -66.5t-78 -22.5q-60 0 -89.5 33.5t-29.5 105.5zM139 -90q9 18 24.5 28.5t31.5 10.5
q21 0 34.5 -13.5t13.5 -36.5q0 -43 -30 -82t-50 -39q-5 0 -9 1.5t-8 4.5q11 19 17 40t6 48z" />
    <glyph glyph-name="circumflex" unicode="&#x2c6;" horiz-adv-x="450" 
d="M113 528q-13 7 -22 16t-16 22l134 127l36 6l141 -154l-14 -14q-27 0 -49.5 10t-47.5 35q-14 14 -27 31t-22 35z" />
    <glyph glyph-name="caron" unicode="&#x2c7;" horiz-adv-x="450" 
d="M206 524l-137 147q13 11 26.5 19t32.5 15l100 -123l114 124q13 -7 22 -16t16 -22l-138 -138z" />
    <glyph glyph-name="uni02C9" unicode="&#x2c9;" horiz-adv-x="242" 
d="M14 546v57h219v-57h-219z" />
    <glyph glyph-name="breve" unicode="&#x2d8;" horiz-adv-x="450" 
d="M229 527q-41 0 -83.5 31.5t-78.5 98.5q13 11 25 19t30 13q30 -58 58 -82t54 -24q25 0 52 26t56 83q13 -7 22 -16t16 -21q-28 -60 -68.5 -94t-82.5 -34z" />
    <glyph glyph-name="dotaccent" unicode="&#x2d9;" horiz-adv-x="450" 
d="M224 557q-21 0 -32.5 13t-11.5 32q0 17 14 33.5t35 16.5q18 0 29.5 -14t11.5 -33t-14 -33.5t-32 -14.5z" />
    <glyph glyph-name="ring" unicode="&#x2da;" horiz-adv-x="450" 
d="M224 530q-37 0 -62.5 23.5t-25.5 62.5q0 37 25.5 63.5t60.5 26.5q38 0 64 -24t26 -64q0 -37 -26 -62.5t-62 -25.5zM224 564q22 0 34.5 14t12.5 38q0 25 -13.5 40.5t-34.5 15.5t-34 -16t-13 -40q0 -23 14.5 -37.5t33.5 -14.5z" />
    <glyph glyph-name="ogonek" unicode="&#x2db;" horiz-adv-x="270" 
d="M98 -42l55 48h35l-48 -62q-9 -12 -17 -28.5t-8 -31.5q0 -24 13.5 -37t34.5 -13q19 0 38.5 5.5t36.5 13.5q0 -29 -22 -47.5t-69 -18.5q-44 0 -70.5 23t-26.5 63q0 25 14 46.5t34 38.5z" />
    <glyph glyph-name="tilde" unicode="&#x2dc;" horiz-adv-x="450" 
d="M98 541q-11 9 -18 23t-7 30q0 24 17.5 38t49.5 14q16 0 33 -3t36 -9l48 -14q12 -4 25 -6t23 -2q18 0 33 15t15 34q11 -10 18 -23t7 -29q0 -25 -21 -42.5t-49 -17.5q-16 0 -33.5 3t-33.5 8l-49 15q-14 4 -26.5 6t-22.5 2q-18 0 -31.5 -13t-13.5 -29z" />
    <glyph glyph-name="hungarumlaut" unicode="&#x2dd;" horiz-adv-x="450" 
d="M53 522l-7 8q26 25 58.5 74.5t44.5 92.5q26 0 43.5 -10t17.5 -27q0 -42 -58.5 -90t-98.5 -48zM236 522l-7 8q26 25 58.5 74.5t44.5 92.5q26 0 43.5 -10t17.5 -27q0 -42 -58.5 -90t-98.5 -48z" />
    <glyph glyph-name="uni0394" unicode="&#x394;" horiz-adv-x="582" 
d="M20 0l277 670l265 -670h-542zM87 43h371l-182 458z" />
    <glyph glyph-name="uni03A9" unicode="&#x3a9;" horiz-adv-x="653" 
d="M53 0l-27 124h28l10 -19q13 -25 34.5 -35.5t63.5 -10.5h74v44q-84 19 -138.5 81t-54.5 163q0 120 93 210.5t209 90.5q107 0 186 -75t79 -179q0 -116 -57 -190.5t-140 -99.5v-45h74q42 0 63.5 10.5t34.5 35.5l10 19h28l-27 -124h-231v147q59 13 103 68.5t44 159.5
q0 96 -54 151.5t-124 55.5q-73 0 -132.5 -63t-59.5 -159q0 -91 40.5 -143.5t101.5 -70.5v-146h-231z" />
    <glyph glyph-name="uni03BC" unicode="&#x3bc;" horiz-adv-x="535" 
d="M175 7v-246h-81v648l-57 28v21q34 10 62.5 14.5t49.5 4.5h33l-6 -56v-226q0 -78 24.5 -108.5t72.5 -30.5q28 0 54.5 9t43.5 20v324l-58 28v21q34 10 63 14.5t50 4.5h33l-6 -56v-338q5 -13 15.5 -26t22.5 -26q-11 -12 -30 -25t-38 -22q-15 10 -27.5 25.5t-19.5 32.5
q-19 -17 -55.5 -35t-82.5 -18q-17 0 -33.5 5t-29.5 13z" />
    <glyph glyph-name="pi" unicode="&#x3c0;" horiz-adv-x="563" 
d="M45 0v17q19 7 36 21.5t17 32.5v335l-63 16v22q28 7 55 12.5t62 5.5h280q22 0 46.5 -2.5t45.5 -7.5v-19q-27 -7 -43 -23t-16 -47v-321l52 -15v-19q-20 -8 -46.5 -12.5t-58.5 -4.5q-16 0 -33 2t-32 7v17q19 8 27.5 23.5t8.5 42.5v321h-203v-362l56 -15v-19q-25 -9 -52 -13
t-64 -4q-18 0 -38 2t-37 7z" />
    <glyph glyph-name="Wgrave" unicode="&#x1e80;" horiz-adv-x="798" 
d="M224 -9l-187 597l-55 17v21q25 8 51.5 12.5t50.5 4.5t45 -1.5t44 -7.5v-19q-23 -5 -30.5 -19t-0.5 -38l109 -403h1l106 433l-53 16v22q28 8 54.5 12t54.5 4q22 0 44 -2.5t37 -7.5v-19q-15 -5 -19.5 -17.5t0.5 -34.5l97 -405h1l110 431l-61 19v21q28 8 54 12t51 4
q20 0 35 -2.5t30 -7.5v-18q-19 -13 -31 -28.5t-19 -41.5l-164 -550l-39 -4l-139 528h-1l-138 -524zM471 665q-34 0 -89.5 51t-55.5 93q0 19 14 28.5t50 9.5q9 -43 36.5 -95.5t52.5 -80.5z" />
    <glyph glyph-name="wgrave" unicode="&#x1e81;" horiz-adv-x="667" 
d="M173 -14l-150 436l-43 30v24h194v-24l-58 -24l89 -321h1l99 319l-55 26v24h170v-24l-29 -22l90 -322h1l103 317l-57 27v24h154v-24l-27 -22l-168 -442l-42 -2l-111 368h-1l-115 -366zM388 515q-34 0 -89.5 51t-55.5 93q0 19 14 28.5t50 9.5q9 -43 36.5 -95.5t52.5 -80.5z
" />
    <glyph glyph-name="Wacute" unicode="&#x1e82;" horiz-adv-x="798" 
d="M224 -9l-187 597l-55 17v21q25 8 51.5 12.5t50.5 4.5t45 -1.5t44 -7.5v-19q-23 -5 -30.5 -19t-0.5 -38l109 -403h1l106 433l-53 16v22q28 8 54.5 12t54.5 4q22 0 44 -2.5t37 -7.5v-19q-15 -5 -19.5 -17.5t0.5 -34.5l97 -405h1l110 431l-61 19v21q28 8 54 12t51 4
q20 0 35 -2.5t30 -7.5v-18q-19 -13 -31 -28.5t-19 -41.5l-164 -550l-39 -4l-139 528h-1l-138 -524zM348 665l-8 6q25 28 52.5 80.5t36.5 95.5q36 0 50 -9.5t14 -28.5q0 -42 -55.5 -93t-89.5 -51z" />
    <glyph glyph-name="wacute" unicode="&#x1e83;" horiz-adv-x="667" 
d="M173 -14l-150 436l-43 30v24h194v-24l-58 -24l89 -321h1l99 319l-55 26v24h170v-24l-29 -22l90 -322h1l103 317l-57 27v24h154v-24l-27 -22l-168 -442l-42 -2l-111 368h-1l-115 -366zM251 515l-8 6q25 28 52.5 80.5t36.5 95.5q36 0 50 -9.5t14 -28.5q0 -42 -55.5 -93
t-89.5 -51z" />
    <glyph glyph-name="Wdieresis" unicode="&#x1e84;" horiz-adv-x="798" 
d="M224 -9l-187 597l-55 17v21q25 8 51.5 12.5t50.5 4.5t45 -1.5t44 -7.5v-19q-23 -5 -30.5 -19t-0.5 -38l109 -403h1l106 433l-53 16v22q28 8 54.5 12t54.5 4q22 0 44 -2.5t37 -7.5v-19q-15 -5 -19.5 -17.5t0.5 -34.5l97 -405h1l110 431l-61 19v21q28 8 54 12t51 4
q20 0 35 -2.5t30 -7.5v-18q-19 -13 -31 -28.5t-19 -41.5l-164 -550l-39 -4l-139 528h-1l-138 -524zM329 708q-20 0 -34 14t-14 34t14 34t34 14t34 -14t14 -34t-14 -34t-34 -14zM485 708q-20 0 -34 14t-14 34t14 34t34 14t34 -14t14 -34t-14 -34t-34 -14z" />
    <glyph glyph-name="wdieresis" unicode="&#x1e85;" horiz-adv-x="667" 
d="M173 -14l-150 436l-43 30v24h194v-24l-58 -24l89 -321h1l99 319l-55 26v24h170v-24l-29 -22l90 -322h1l103 317l-57 27v24h154v-24l-27 -22l-168 -442l-42 -2l-111 368h-1l-115 -366zM254 568q-20 0 -34 14t-14 34t14 34t34 14t34 -14t14 -34t-14 -34t-34 -14zM410 568
q-20 0 -34 14t-14 34t14 34t34 14t34 -14t14 -34t-14 -34t-34 -14z" />
    <glyph glyph-name="Ygrave" unicode="&#x1ef2;" horiz-adv-x="498" 
d="M147 0v19q25 6 42 22t17 50v189l-165 310l-54 16v21q24 7 50 11.5t51 4.5q27 0 46.5 -2t47.5 -7v-19q-24 -7 -32 -22t2 -37l112 -214h1l121 246l-60 17v21q28 8 53 12t51 4q21 0 36 -2t33 -7v-19q-19 -8 -30.5 -21.5t-25.5 -41.5l-151 -268v-238l64 -16v-22
q-25 -7 -53.5 -12t-63.5 -5q-28 0 -49.5 2.5t-42.5 7.5zM322 665q-34 0 -89.5 51t-55.5 93q0 19 14 28.5t50 9.5q9 -43 36.5 -95.5t52.5 -80.5z" />
    <glyph glyph-name="ygrave" unicode="&#x1ef3;" horiz-adv-x="399" 
d="M161 -15l17 45l-158 393l-38 29v24h184v-24l-54 -24l106 -305h1l95 302l-56 27v24h150v-24l-25 -22l-141 -390q-59 -164 -115 -224.5t-94 -60.5q-30 0 -45.5 16.5t-15.5 61.5q10 -2 21 -3t24 -1q31 0 72 37.5t72 118.5zM250 515q-34 0 -89.5 51t-55.5 93q0 19 14 28.5
t50 9.5q9 -43 36.5 -95.5t52.5 -80.5z" />
    <glyph glyph-name="endash" unicode="&#x2013;" horiz-adv-x="500" 
d="M0 200v51h500v-51h-500z" />
    <glyph glyph-name="emdash" unicode="&#x2014;" horiz-adv-x="1000" 
d="M0 200v51h1000v-51h-1000z" />
    <glyph glyph-name="quoteleft" unicode="&#x2018;" horiz-adv-x="253" 
d="M114 466q-23 0 -38.5 15.5t-15.5 41.5q0 69 43.5 122t74.5 62l27 -7q-31 -32 -46.5 -67.5t-15.5 -78.5l35 -44q-12 -19 -30 -31.5t-34 -12.5z" />
    <glyph glyph-name="quoteright" unicode="&#x2019;" horiz-adv-x="253" 
d="M75 462l-27 7q31 32 46.5 67.5t15.5 78.5l-35 44q12 19 30 31.5t34 12.5q23 0 38.5 -15.5t15.5 -41.5q0 -69 -43.5 -122t-74.5 -62z" />
    <glyph glyph-name="quotesinglbase" unicode="&#x201a;" horiz-adv-x="253" 
d="M75 65q12 19 30 31.5t34 12.5q23 0 38.5 -15.5t15.5 -41.5q0 -69 -43.5 -122t-74.5 -62l-27 7q31 32 46.5 67.5t15.5 78.5z" />
    <glyph glyph-name="quotedblleft" unicode="&#x201c;" horiz-adv-x="399" 
d="M100 466q-23 0 -38.5 15.5t-15.5 41.5q0 69 43.5 122t74.5 62l27 -7q-31 -32 -46.5 -67.5t-15.5 -78.5l35 -44q-12 -19 -30 -31.5t-34 -12.5zM260 466q-23 0 -38.5 15.5t-15.5 41.5q0 69 43.5 122t74.5 62l27 -7q-31 -32 -46.5 -67.5t-15.5 -78.5l35 -44
q-12 -19 -30 -31.5t-34 -12.5z" />
    <glyph glyph-name="quotedblright" unicode="&#x201d;" horiz-adv-x="399" 
d="M75 462l-27 7q31 32 46.5 67.5t15.5 78.5l-35 44q12 19 30 31.5t34 12.5q23 0 38.5 -15.5t15.5 -41.5q0 -69 -43.5 -122t-74.5 -62zM199 469q31 32 46.5 67.5t15.5 78.5l-35 44q12 19 30 31.5t34 12.5q23 0 38.5 -15.5t15.5 -41.5q0 -69 -43.5 -122t-74.5 -62z" />
    <glyph glyph-name="quotedblbase" unicode="&#x201e;" horiz-adv-x="399" 
d="M75 65q12 19 30 31.5t34 12.5q23 0 38.5 -15.5t15.5 -41.5q0 -69 -43.5 -122t-74.5 -62l-27 7q31 32 46.5 67.5t15.5 78.5zM199 -125q31 32 46.5 67.5t15.5 78.5l-35 44q12 19 30 31.5t34 12.5q23 0 38.5 -15.5t15.5 -41.5q0 -69 -43.5 -122t-74.5 -62z" />
    <glyph glyph-name="dagger" unicode="&#x2020;" horiz-adv-x="531" 
d="M238 -110v537l-165 -13q-9 16 -13 31t-4 34q39 0 91 -4t91 -14v61q0 25 -7.5 55.5t-18.5 50.5q19 7 32.5 10.5t27.5 3.5q9 0 18.5 -1.5t19.5 -4.5q-7 -19 -12 -47.5t-5 -48.5v-79q39 10 92 14t90 4q0 -19 -4 -34t-13 -31l-165 13v-532q0 -42 -5.5 -71.5t-22.5 -66.5
q-17 36 -22 62.5t-5 70.5z" />
    <glyph glyph-name="daggerdbl" unicode="&#x2021;" horiz-adv-x="531" 
d="M265 220q-17 35 -22 61.5t-5 65.5v80l-165 -13q-9 16 -13 30t-4 35q37 0 90 -4t92 -14v64q0 23 -7.5 53t-18.5 50q19 7 30.5 10.5t27.5 3.5q12 0 21 -1.5t19 -4.5q-6 -19 -11.5 -46t-5.5 -47v-82q39 10 92 14t90 4q0 -22 -4 -35.5t-13 -29.5l-165 13v-75q0 -45 -5 -70.5
t-23 -61.5zM73 -14l165 -12v75q0 44 5 69.5t23 62.5q17 -36 22 -62.5t5 -64.5v-80l165 12q9 -16 13 -29.5t4 -35.5q-37 0 -90 4.5t-92 14.5v-64q0 -23 7.5 -53.5t18.5 -49.5q-19 -7 -30.5 -10.5t-27.5 -3.5q-12 0 -21 1.5t-19 4.5q6 19 11.5 46t5.5 46v83q-39 -10 -92 -14.5
t-90 -4.5q0 22 4 36t13 29z" />
    <glyph glyph-name="bullet" unicode="&#x2022;" horiz-adv-x="361" 
d="M181 140q-51 0 -86 37t-35 87t35 87t86 37t85.5 -37t34.5 -87t-34.5 -87t-85.5 -37z" />
    <glyph glyph-name="ellipsis" unicode="&#x2026;" horiz-adv-x="658" 
d="M79 47q0 24 17 41t41 17t41 -17t17 -41t-17 -41t-41 -17t-41 17t-17 41zM280 47q0 24 17 41t41 17t41 -17t17 -41t-17 -41t-41 -17t-41 17t-17 41zM480 47q0 24 17 41t41 17t41 -17t17 -41t-17 -41t-41 -17t-41 17t-17 41z" />
    <glyph glyph-name="perthousand" unicode="&#x2030;" horiz-adv-x="1052" 
d="M115 -33l429 717l37 -21l-429 -717zM180 310q-63 0 -101 40t-38 116q0 82 41.5 129t107.5 47q62 0 100 -40t38 -116q0 -79 -42.5 -127.5t-105.5 -48.5zM183 350q31 0 51 32.5t20 95.5q0 68 -19.5 96t-48.5 28q-31 0 -51 -32.5t-20 -95.5q0 -68 19.5 -96t48.5 -28z
M383 148q0 82 41.5 129t107.5 47q62 0 100 -40t38 -116q0 -79 -42.5 -127.5t-105.5 -48.5t-101 40t-38 116zM723 148q0 82 41.5 129t107.5 47q62 0 100 -40t38 -116q0 -79 -42.5 -127.5t-105.5 -48.5t-101 40t-38 116zM457 156q0 -68 19.5 -96t48.5 -28q31 0 51 32.5
t20 95.5q0 68 -19.5 96t-48.5 28q-31 0 -51 -32.5t-20 -95.5zM797 156q0 -68 19.5 -96t48.5 -28q31 0 51 32.5t20 95.5q0 68 -19.5 96t-48.5 28q-31 0 -51 -32.5t-20 -95.5z" />
    <glyph glyph-name="guilsinglleft" unicode="&#x2039;" horiz-adv-x="272" 
d="M102 138l-65 115l54 79q41 60 69.5 83.5t45.5 23.5q14 0 26 -4.5t25 -14.5q-31 -25 -62 -57.5t-55 -63.5l-29 -38l48 -80q19 -31 41 -57.5t44 -47.5q-13 -5 -27.5 -8.5t-30.5 -3.5q-19 0 -39 15.5t-45 58.5z" />
    <glyph glyph-name="guilsinglright" unicode="&#x203a;" horiz-adv-x="272" 
d="M16 84q31 25 62.5 57.5t54.5 63.5l29 38l-48 80q-19 31 -40.5 57.5t-43.5 47.5q13 5 27 8.5t31 3.5q19 0 38.5 -15.5t44.5 -58.5l66 -115l-55 -79q-41 -60 -69.5 -83.5t-44.5 -23.5q-15 0 -27 4.5t-25 14.5z" />
    <glyph glyph-name="fraction" unicode="&#x2044;" horiz-adv-x="15" 
d="M-238 -101l-37 21l519 753l37 -21z" />
    <glyph glyph-name="Euro" unicode="&#x20ac;" 
d="M11 219v41l52 3q-1 8 -1 17v19t0.5 19.5t1.5 19.5l-55 -3v41l60 3q23 122 107.5 195t186.5 73q33 0 71.5 -7t64.5 -20l-8 -139h-27l-4 18q-12 46 -39.5 66.5t-65.5 20.5q-63 0 -118 -52.5t-71 -148.5l282 16l-3 -39l-284 -18q-1 -7 -1 -15.5v-16.5q0 -11 0.5 -22.5
t1.5 -21.5l288 17l-3 -39l-280 -18q17 -94 69 -138.5t110 -44.5q51 0 77.5 18.5t42.5 58.5l10 24h27l-10 -132q-28 -14 -71.5 -22.5t-90.5 -8.5q-94 0 -169 60.5t-94 178.5z" />
    <glyph glyph-name="trademark" unicode="&#x2122;" horiz-adv-x="756" 
d="M105 327v15q15 4 23.5 11.5t8.5 19.5v223h-35q-17 0 -28 -7.5t-15 -21.5l-4 -14h-20v81q28 -1 69 -1h65q35 0 69.5 1t63.5 3v-84h-21l-2 15q-1 13 -10.5 20.5t-22.5 7.5h-46v-241l40 -8v-17q-19 -5 -38 -8t-38 -3q-15 0 -30 2t-29 6zM307 327v15q15 4 22.5 10t9.5 21
l38 235l-32 8v17q16 2 34 2.5t34 0.5h32l65 -230l1 1l68 229h26q16 0 34 -0.5t34 -2.5v-17l-32 -8l40 -257l32 -8v-13q-14 -6 -30 -8.5t-30 -2.5q-18 0 -34 2.5t-29 5.5v15q15 4 20 10t4 21l-24 202l-1 -1l-73 -253l-32 -5l-77 261l-1 -1l-23 -225l31 -8v-13
q-13 -6 -27.5 -8.5t-27.5 -2.5q-18 0 -29 2t-23 6z" />
    <glyph glyph-name="uni2126" unicode="&#x2126;" horiz-adv-x="653" 
d="M53 0l-27 124h28l10 -19q13 -25 34.5 -35.5t63.5 -10.5h74v44q-84 19 -138.5 81t-54.5 163q0 120 93 210.5t209 90.5q107 0 186 -75t79 -179q0 -116 -57 -190.5t-140 -99.5v-45h74q42 0 63.5 10.5t34.5 35.5l10 19h28l-27 -124h-231v147q59 13 103 68.5t44 159.5
q0 96 -54 151.5t-124 55.5q-73 0 -132.5 -63t-59.5 -159q0 -91 40.5 -143.5t101.5 -70.5v-146h-231z" />
    <glyph glyph-name="arrowleft" unicode="&#x2190;" horiz-adv-x="864" 
d="M35 319l218 218l36 -37q-22 -37 -51.5 -73t-67.5 -70v-2h659v-72h-659v-2q38 -34 68 -70t52 -73l-37 -37z" />
    <glyph glyph-name="arrowup" unicode="&#x2191;" horiz-adv-x="546" 
d="M273 696l218 -218l-37 -36q-37 22 -73 52t-70 67h-2v-659h-72v659h-2q-34 -38 -70.5 -67.5t-73.5 -51.5l-36 36z" />
    <glyph glyph-name="arrowright" unicode="&#x2192;" horiz-adv-x="864" 
d="M829 319l-218 -218l-37 37q22 37 51 73t69 70v2h-659v72h659v2q-38 34 -67.5 70t-51.5 73l36 37z" />
    <glyph glyph-name="arrowdown" unicode="&#x2193;" horiz-adv-x="546" 
d="M273 -98l-218 218l36 36q37 -22 73.5 -51.5t70.5 -67.5h2v659h72v-659h2q34 38 70 67.5t73 51.5l37 -36z" />
    <glyph glyph-name="arrowboth" unicode="&#x2194;" horiz-adv-x="864" 
d="M829 319l-218 -218l-36 36q22 37 51.5 73.5t67.5 70.5v2h-524v-2q38 -34 67.5 -70t51.5 -73l-36 -37l-218 218l218 218l36 -36q-22 -37 -51.5 -73.5t-67.5 -70.5v-2h524v2q-38 34 -67.5 70t-51.5 73l36 37z" />
    <glyph glyph-name="arrowupdn" unicode="&#x2195;" horiz-adv-x="546" 
d="M273 -98l-218 218l36 36q37 -22 73.5 -51.5t70.5 -67.5h2v524h-2q-34 -38 -70 -67.5t-73 -51.5l-37 36l218 218l218 -218l-36 -36q-37 22 -73.5 51.5t-70.5 67.5h-2v-524h2q34 38 70 67.5t73 51.5l37 -36z" />
    <glyph glyph-name="uni2196" unicode="&#x2196;" horiz-adv-x="695" 
d="M55 696h308v-52q-41 -10 -87.5 -14.5t-97.5 -2.5l-2 -1l466 -466l-51 -51l-466 466l-1 -2q2 -51 -2 -97.5t-14 -88.5h-53v309z" />
    <glyph glyph-name="uni2197" unicode="&#x2197;" horiz-adv-x="695" 
d="M640 696v-309h-53q-10 42 -14 88.5t-2 97.5l-1 2l-466 -466l-51 51l466 466l-2 1q-51 -2 -97.5 2.5t-87.5 14.5v52h308z" />
    <glyph glyph-name="uni2198" unicode="&#x2198;" horiz-adv-x="695" 
d="M640 -98h-308v52q41 10 87.5 14.5t97.5 2.5l2 1l-466 466l51 51l466 -466l1 2q-2 51 2 97.5t14 88.5h53v-309z" />
    <glyph glyph-name="uni2199" unicode="&#x2199;" horiz-adv-x="695" 
d="M55 -98v309h53q10 -42 14 -88.5t2 -97.5l1 -2l466 466l51 -51l-466 -466l2 -1q51 2 97.5 -2.5t87.5 -14.5v-52h-308z" />
    <glyph glyph-name="partialdiff" unicode="&#x2202;" horiz-adv-x="545" 
d="M40 215q0 122 71.5 195.5t162.5 73.5q34 0 62.5 -10.5t53.5 -32.5l2 1q-32 102 -95 160t-132 58q-25 0 -50.5 -7t-49.5 -19q-2 9 -3.5 16t-1.5 15q0 20 26 36.5t89 16.5q112 0 215 -112.5t103 -342.5q0 -132 -72.5 -205.5t-162.5 -73.5t-154 61t-64 170zM131 225
q0 -90 40.5 -136.5t92.5 -46.5q50 0 94 49.5t44 156.5q0 31 -3 65.5t-8 64.5q-22 20 -57.5 34t-66.5 14q-51 0 -93.5 -51t-42.5 -150z" />
    <glyph glyph-name="product" unicode="&#x220f;" horiz-adv-x="659" 
d="M48 0v19q27 7 42.5 24.5t15.5 48.5v488l-63 16v22q28 7 55 12.5t62 5.5h360q22 0 46.5 -2.5t45.5 -7.5v-19q-27 -7 -43 -23t-16 -47v-492l64 -16v-22q-28 -8 -57 -12.5t-60 -4.5q-22 0 -46 2.5t-45 7.5v19q27 7 42.5 24.5t15.5 48.5v484h-274v-531l63 -16v-22
q-28 -8 -57 -12.5t-60 -4.5q-21 0 -45.5 2.5t-45.5 7.5z" />
    <glyph glyph-name="summation" unicode="&#x2211;" horiz-adv-x="463" 
d="M40 0q0 34 6.5 57t23.5 39l188 221l-163 215q-19 25 -28 51t-9 48q28 3 57 4t50 1h262l-9 -149h-29l-3 18q-6 37 -23.5 53.5t-63.5 16.5h-132l179 -242l-219 -263h181q42 0 63.5 14.5t34.5 39.5l10 19h28l-29 -143h-375z" />
    <glyph glyph-name="minus" unicode="&#x2212;" 
d="M46 200v51h427v-51h-427z" />
    <glyph glyph-name="uni2215" unicode="&#x2215;" horiz-adv-x="15" 
d="M-238 -101l-37 21l519 753l37 -21z" />
    <glyph glyph-name="uni2219" unicode="&#x2219;" horiz-adv-x="275" 
d="M135 187q-24 0 -39 16.5t-15 39.5q0 24 18 43.5t43 19.5q22 0 36.5 -17t14.5 -41t-17 -42.5t-41 -18.5z" />
    <glyph glyph-name="radical" unicode="&#x221a;" horiz-adv-x="424" 
d="M225 -13l-154 444l-89 -26l-10 38l148 45l125 -370h1l224 649l39 -11l-264 -769h-20z" />
    <glyph glyph-name="infinity" unicode="&#x221e;" horiz-adv-x="660" 
d="M171 163q-51 0 -93 44.5t-42 107.5q0 67 45 114t99 47q40 0 82 -30.5t64 -77.5l33 42q25 33 58 50.5t74 17.5q54 0 97 -46.5t43 -113.5q0 -70 -43.5 -114.5t-98.5 -44.5q-46 0 -87.5 29t-67.5 85h-1l-33 -44q-25 -34 -56.5 -50t-72.5 -16zM171 217q25 0 49.5 15.5
t53.5 58.5l30 44q-21 37 -55 60.5t-71 23.5q-39 0 -68 -29.5t-29 -73.5q0 -43 27 -71t63 -28zM356 306q22 -44 55.5 -69.5t74.5 -25.5t70 29.5t29 76.5q0 44 -26 73t-69 29q-25 0 -49 -16t-52 -53z" />
    <glyph glyph-name="integral" unicode="&#x222b;" horiz-adv-x="390" 
d="M-23 -170q27 -10 52.5 -15t56.5 -5q30 0 51 25.5t21 82.5v709q0 80 49 131.5t130 51.5q51 0 69.5 -13t18.5 -35q0 -7 -1.5 -16.5t-3.5 -16.5q-27 9 -52.5 14.5t-56.5 5.5q-30 0 -51 -26t-21 -83v-709q0 -80 -48.5 -131t-129.5 -51q-52 0 -70.5 13t-18.5 35q0 6 1.5 15.5
t3.5 17.5z" />
    <glyph glyph-name="approxequal" unicode="&#x2248;" 
d="M58 266l-15 49q22 14 50 23.5t50 9.5q21 0 44.5 -3t40.5 -10l78 -30q20 -7 38.5 -11t37.5 -4q17 0 39.5 8.5t39.5 19.5l15 -49q-22 -14 -49.5 -23.5t-47.5 -9.5q-24 0 -47 3.5t-40 10.5l-78 30q-17 7 -36.5 10t-38.5 3t-40 -8.5t-41 -18.5zM58 133l-15 49q22 14 50 23.5
t50 9.5q21 0 44.5 -3t40.5 -10l78 -30q20 -7 38.5 -11t37.5 -4q17 0 39.5 8.5t39.5 19.5l15 -49q-22 -14 -49.5 -23.5t-47.5 -9.5q-24 0 -47 3.5t-40 10.5l-78 30q-17 7 -36.5 10t-38.5 3t-40 -8.5t-41 -18.5z" />
    <glyph glyph-name="notequal" unicode="&#x2260;" 
d="M75 -51l110 184h-136v52h166l49 81h-215v52h246l117 195l32 -16l-107 -179h133v-52h-163l-49 -81h212v-52h-242l-120 -201z" />
    <glyph glyph-name="lessequal" unicode="&#x2264;" 
d="M75 286l313 180l27 -47l-241 -130l241 -134l-28 -49zM46 0v52h427v-52h-427z" />
    <glyph glyph-name="greaterequal" unicode="&#x2265;" 
d="M125 107l-27 47l241 130l-241 133l28 50l312 -180zM46 0v52h427v-52h-427z" />
    <glyph glyph-name="lozenge" unicode="&#x25ca;" horiz-adv-x="474" 
d="M238 -6l-213 331l213 325l211 -325zM239 65l162 258l-164 257l-162 -253z" />
    <glyph glyph-name="commaaccent" unicode="&#xf6c3;" horiz-adv-x="178" 
d="M36 -90q9 18 24.5 28.5t31.5 10.5q21 0 34.5 -13.5t13.5 -36.5q0 -43 -30 -82t-50 -39q-5 0 -9 1.5t-8 4.5q11 19 17 40t6 48z" />
    <glyph glyph-name="fiets" unicode="&#x1f6b2;" horiz-adv-x="988" 
d="M363 395l135 -181q2 1 4.5 1h4.5h1t7 -1l106 208h-247zM635 407l-103 -203l4 -6t3 -7h31q3 49 29.5 89t66.5 62zM754 -3q-73 0 -126.5 51t-57.5 123h-30q-4 -10 -13 -17t-20 -7q-13 0 -23.5 10t-10.5 24q0 6 2 11.5t6 9.5l-127 173l-18 -41q37 -25 59.5 -65.5t22.5 -87.5
q0 -75 -54.5 -129.5t-129.5 -54.5t-129.5 54.5t-54.5 129.5t54.5 129.5t129.5 54.5q23 0 44.5 -5.5t40.5 -15.5l102 239h102v-20h-89l-52 -121h249l31 61h-67v21l139 4l-4 -25h-47l-38 -75l38 -77q16 7 34 10.5t37 3.5q75 0 129.5 -54.5t54.5 -129.5t-54.5 -129.5
t-129.5 -54.5zM738 191l1 1l-64 132q-36 -19 -59 -54.5t-26 -78.5h148zM234 17q67 0 115.5 48.5t48.5 115.5q0 41 -19 77t-50 58l-20 -46q-11 -26 -25.5 -45t-32.5 -37q1 -1 1.5 -3t0.5 -4q0 -7 -6 -13t-13 -6t-13 6t-6 13t6 13t13 6q2 0 4 -0.5t3 -1.5q14 16 28 38t22 41
l21 49q-17 10 -36.5 15t-40.5 5q-67 0 -115.5 -48.5t-48.5 -115.5t48 -116t115 -49zM754 17q67 0 115.5 48.5t48.5 115.5t-48.5 115.5t-115.5 48.5q-16 0 -32 -3t-30 -9l64 -133q7 0 12 -6t5 -13t-6 -13t-13 -6q-5 0 -9.5 2.5t-6.5 6.5h-148q4 -64 51.5 -109t112.5 -45z" />
    <glyph glyph-name="zero.osf" horiz-adv-x="518" 
d="M55 220q0 130 64.5 198t152.5 68q77 0 135.5 -59.5t58.5 -178.5q0 -130 -64.5 -198t-152.5 -68q-77 0 -135.5 59.5t-58.5 178.5zM257 37q49 0 82 51t33 149t-31 146t-77 48q-49 0 -82 -51t-33 -148q0 -99 31 -147t77 -48z" />
    <glyph glyph-name="one.osf" horiz-adv-x="356" 
d="M72 0v19q29 7 51 28.5t22 44.5v312l-90 -3v32q33 20 74 31.5t71 11.5q7 0 17 -0.5t16 -0.5q-3 -15 -6 -37.5t-3 -40.5v-349l65 -15v-15q-20 -12 -52.5 -19.5t-72.5 -7.5q-24 0 -49 2.5t-43 6.5z" />
    <glyph glyph-name="two.osf" horiz-adv-x="442" 
d="M35 0l-4 61l189 172q37 32 53 57.5t16 53.5q0 31 -22.5 51.5t-61.5 20.5q-34 0 -71.5 -18.5t-72.5 -54.5q-4 10 -7 25t-3 29q0 31 41 56.5t126 25.5q74 0 118 -35t44 -83q0 -46 -24.5 -83t-87.5 -86l-160 -125v-1h81q54 0 110 9t103 25q3 -9 4.5 -21t1.5 -22
q0 -31 -22.5 -46.5t-80.5 -15.5q-42 0 -117 2.5t-153 2.5z" />
    <glyph glyph-name="three.osf" horiz-adv-x="433" 
d="M30 -77q26 -16 62 -27.5t70 -11.5q51 0 93.5 34t42.5 88t-42 84.5t-117 30.5q-10 0 -21 -1.5t-20 -3.5l-10 54l39 2q67 3 117.5 45t50.5 101q0 46 -30 72t-78 26q-34 0 -67.5 -17.5t-68.5 -51.5q-4 11 -7.5 25t-3.5 26q0 30 41 55.5t124 25.5q80 0 128 -42t48 -103
q0 -54 -44.5 -106t-104.5 -71v-1q64 0 108 -35t44 -99q0 -78 -73 -136.5t-156 -58.5q-71 0 -100.5 18.5t-29.5 50.5q0 7 1.5 14t3.5 13z" />
    <glyph glyph-name="four.osf" horiz-adv-x="483" 
d="M38 10l-3 50q28 123 118.5 249.5t184.5 171.5l43 -10q-4 -51 -6 -94t-2 -92v-208h27q15 0 26.5 4t24.5 11q3 -6 5 -15t2 -19q0 -25 -14 -37t-47 -12h-24v-73q0 -61 -16 -84.5t-47 -23.5q-10 0 -19 2.5t-17 7.5q9 19 14.5 43.5t5.5 46.5v82h-256zM105 77h190v197
q0 32 1 61t5 52l-2 2q-54 -43 -114.5 -138t-79.5 -174z" />
    <glyph glyph-name="five.osf" horiz-adv-x="433" 
d="M32 -76q28 -19 65 -29.5t66 -10.5q57 0 103 39.5t46 101.5q0 57 -42 90t-115 33q-22 0 -46 -3.5t-42 -9.5l16 342q18 -2 46.5 -3t45.5 -1q45 0 111.5 3.5t115.5 8.5q1 -5 2.5 -13.5t1.5 -15.5q0 -27 -19 -41.5t-73 -14.5h-172l-8 -194q14 3 33 5.5t37 2.5q81 0 135.5 -45
t54.5 -124q0 -91 -73 -154.5t-167 -63.5q-68 0 -97.5 19.5t-29.5 50.5q0 7 1.5 14.5t3.5 12.5z" />
    <glyph glyph-name="six.osf" horiz-adv-x="490" 
d="M43 228q0 196 102.5 307t222.5 111q60 0 81.5 -11.5t21.5 -32.5q0 -10 -3.5 -20.5t-8.5 -18.5q-20 12 -47 19t-55 7q-60 0 -122 -53t-86 -154l1 -1q21 12 49 19.5t53 7.5q89 0 143 -51t54 -139q0 -104 -65 -170t-143 -66q-81 0 -139.5 66t-58.5 180zM248 37
q43 0 77.5 39.5t34.5 117.5q0 79 -39 117t-98 38q-21 0 -44.5 -3.5t-39.5 -9.5q-3 -17 -5.5 -44.5t-2.5 -46.5q0 -103 34 -155.5t83 -52.5z" />
    <glyph glyph-name="seven.osf" horiz-adv-x="426" 
d="M70 -135q0 25 41 109.5t120 238.5l95 184h-227q-40 0 -56.5 18t-16.5 64q57 -4 120 -6t110 -2q22 0 65 2t72 4l16 -27l-108 -234q-39 -84 -81 -186.5t-76 -203.5q-41 0 -57.5 10t-16.5 29z" />
    <glyph glyph-name="eight.osf" horiz-adv-x="476" 
d="M38 138q0 56 38 105t109 76v1l-57 43q-31 24 -46.5 52.5t-15.5 68.5q0 60 53 109.5t133 49.5q75 0 123.5 -41.5t48.5 -104.5q0 -47 -33 -92.5t-83 -71.5v-1l68 -51q35 -26 49.5 -53t14.5 -66q0 -74 -63.5 -127t-142.5 -53q-90 0 -143 44.5t-53 111.5zM266 353
q36 22 59.5 59t23.5 78q0 44 -29 71t-75 27q-47 0 -75.5 -27.5t-28.5 -61.5q0 -31 15.5 -56t56.5 -53zM117 147q0 -50 36 -80t88 -30q44 0 81 29t37 80q0 29 -17.5 54.5t-58.5 56.5l-56 40q-51 -25 -80.5 -64.5t-29.5 -85.5z" />
    <glyph glyph-name="nine.osf" horiz-adv-x="490" 
d="M261 125q23 0 48.5 5t43.5 11q2 15 3.5 35t1.5 35q0 113 -38 162t-83 49q-43 0 -75.5 -40t-32.5 -107q0 -71 39 -110.5t93 -39.5zM34 -82q27 -16 58.5 -25t64.5 -9q55 0 117 61t72 151l-1 1q-21 -11 -47 -18t-57 -7q-85 0 -141 52t-56 138q0 94 61.5 155t140.5 61
q83 0 142.5 -63t59.5 -185q0 -193 -98.5 -298.5t-206.5 -105.5q-64 0 -89 17.5t-25 49.5q0 6 2 12.5t3 12.5z" />
    <glyph glyph-name="Gcedilla" horiz-adv-x="592" 
d="M43 293q0 166 94 260t219 94q52 0 92 -7t70 -21l-10 -138h-28l-4 19q-10 46 -41.5 66t-89.5 20q-81 0 -142.5 -71.5t-61.5 -199.5q0 -134 54.5 -202t135.5 -68q28 0 56 5.5t49 14.5v194l-63 16v22q31 9 57 12.5t57 3.5q28 0 49 -2t43 -8v-19q-29 -7 -43.5 -25.5
t-14.5 -43.5v-227q-31 0 -47.5 7t-29.5 25q-19 -15 -57.5 -26t-83.5 -11q-109 0 -184.5 83t-75.5 227zM284 -90q9 18 24.5 28.5t31.5 10.5q21 0 34.5 -13.5t13.5 -36.5q0 -43 -30 -82t-50 -39q-5 0 -9 1.5t-8 4.5q11 19 17 40t6 48z" />
    <glyph glyph-name="Kcedilla" horiz-adv-x="557" 
d="M48 0v19q32 10 45 27.5t13 49.5v492l-63 16v22q28 8 57.5 12t56.5 4t49.5 -2.5t44.5 -7.5v-19q-31 -9 -44.5 -25t-13.5 -49v-494l63 -16v-22q-28 -8 -54.5 -12.5t-64.5 -4.5q-28 0 -49.5 2.5t-39.5 7.5zM196 319v4l237 269v1l-54 12v21q33 10 56.5 13t52.5 3q19 0 36 -2
t33 -7v-19q-21 -10 -38 -22t-35 -31l-200 -223l178 -226q25 -32 49 -50t62 -35v-20q-16 -10 -32 -16t-39 -6q-36 0 -62.5 16.5t-62.5 66.5zM243 -90q9 18 24.5 28.5t31.5 10.5q21 0 34.5 -13.5t13.5 -36.5q0 -43 -30 -82t-50 -39q-5 0 -9 1.5t-8 4.5q11 19 17 40t6 48z" />
    <glyph glyph-name="Lcedilla" horiz-adv-x="450" 
d="M48 0v23q28 6 43 22.5t15 48.5v494l-63 16v22q28 7 57.5 11.5t55.5 4.5q30 0 50 -2t45 -8v-19q-32 -10 -45 -26t-13 -47v-481h112q43 0 69.5 13.5t39.5 41.5l11 23h25l-23 -137h-379zM201 -90q9 18 24.5 28.5t31.5 10.5q21 0 34.5 -13.5t13.5 -36.5q0 -43 -30 -82
t-50 -39q-5 0 -9 1.5t-8 4.5q11 19 17 40t6 48z" />
    <glyph glyph-name="Ncedilla" horiz-adv-x="631" 
d="M48 0v19q33 9 45.5 28.5t12.5 59.5v481l-63 17v29q28 4 57 5.5t53 1.5h37l278 -457l2 1v406l-64 16v21q25 7 50 12t50 5q30 0 47.5 -2.5t36.5 -8.5v-18q-33 -10 -45 -29t-12 -65v-524l-47 -11l-316 521l-1 -1v-462l61 -16v-22q-22 -8 -44 -12.5t-47 -4.5q-30 0 -51.5 2.5
t-39.5 7.5zM267 -90q9 18 24.5 28.5t31.5 10.5q21 0 34.5 -13.5t13.5 -36.5q0 -43 -30 -82t-50 -39q-5 0 -9 1.5t-8 4.5q11 19 17 40t6 48z" />
    <glyph glyph-name="Rcedilla" horiz-adv-x="548" 
d="M48 0v19q29 8 43.5 25t14.5 51v491l-63 20v22q47 8 93.5 11.5t105.5 3.5q113 0 168 -43.5t55 -125.5q0 -74 -39 -122.5t-105 -68.5l141 -189q18 -24 42 -41.5t51 -26.5v-19q-14 -10 -33 -16t-43 -6q-32 0 -56 15.5t-51 55.5l-132 200h-47v-211l63 -16v-22q-25 -7 -53 -12
t-61 -5q-26 0 -49 2.5t-45 7.5zM193 304h39q58 0 100 38.5t42 116.5q0 61 -37 95t-101 34q-10 0 -21.5 -1.5t-21.5 -2.5v-280zM241 -90q9 18 24.5 28.5t31.5 10.5q21 0 34.5 -13.5t13.5 -36.5q0 -43 -30 -82t-50 -39q-5 0 -9 1.5t-8 4.5q11 19 17 40t6 48z" />
    <glyph glyph-name="caronquoteleft" horiz-adv-x="178" 
d="M89 510q-21 0 -34.5 13.5t-13.5 36.5q0 43 30.5 82t49.5 39q5 0 9 -1.5t8 -4.5q-11 -19 -17 -40t-6 -49l30 -37q-9 -18 -24.5 -28.5t-31.5 -10.5z" />
    <glyph glyph-name="caronquoteright" horiz-adv-x="178" 
d="M58 491q-6 0 -10 1.5t-8 4.5q12 19 17.5 40t5.5 48l-30 38q10 18 25.5 28.5t31.5 10.5q20 0 34 -13.5t14 -36.5q0 -43 -30.5 -82t-49.5 -39z" />
    <glyph glyph-name="gcedilla" horiz-adv-x="469" 
d="M287 554q-9 -18 -24.5 -28.5t-31.5 -10.5q-21 0 -34.5 13.5t-13.5 36.5q0 43 30 82t50 39q5 0 9 -1.5t8 -4.5q-11 -19 -17 -40t-6 -48zM226 167q46 0 77.5 34.5t31.5 107.5q0 63 -30 93.5t-70 30.5q-43 0 -74 -38t-31 -103q0 -63 29.5 -94t66.5 -31zM62 56q0 28 21 54
t49 36v1q-34 13 -62 50.5t-28 88.5q0 84 59 141t140 57q31 0 63 -10.5t45 -22.5q13 13 38.5 22.5t49.5 9.5q13 0 24.5 -2t18.5 -4l-7 -66q-24 5 -51 8t-56 3v-1q25 -19 41 -48.5t16 -60.5q0 -87 -61 -141t-142 -54q-16 0 -32.5 3.5t-29.5 8.5q-11 -7 -21.5 -21t-10.5 -27
q0 -22 17.5 -34t46.5 -12l140 1q63 1 97 -28t34 -84q0 -71 -70 -123t-174 -52q-94 0 -142.5 34t-48.5 83q0 40 27.5 70t67.5 41v1q-28 10 -43.5 30t-15.5 48zM102 -117q0 -31 32.5 -53.5t95.5 -22.5q71 0 114.5 29.5t43.5 65.5q0 29 -19 45t-55 16h-161q-22 -10 -36.5 -32.5
t-14.5 -47.5z" />
    <glyph glyph-name="kcedilla" horiz-adv-x="471" 
d="M46 0v17q20 7 37 21.5t17 32.5v580l-66 27v22q34 10 66.5 14t53.5 4h34l-6 -56v-400l55 48q40 34 71.5 80t31.5 80q13 4 25.5 6t27.5 2q11 0 20.5 -2.5t19.5 -6.5q-1 -32 -34.5 -79.5t-101.5 -96.5l-35 -25l154 -187q21 -25 39.5 -36.5t34.5 -11.5v-21q-16 -11 -34 -16
t-40 -5q-21 0 -39 9.5t-32 28.5l-163 215v-202l52 -16v-19q-28 -9 -53 -12.5t-60 -3.5q-17 0 -37.5 2t-37.5 7zM222 -90q9 18 24.5 28.5t31.5 10.5q21 0 34.5 -13.5t13.5 -36.5q0 -43 -30 -82t-50 -39q-5 0 -9 1.5t-8 4.5q11 19 17 40t6 48z" />
    <glyph glyph-name="lcedilla" horiz-adv-x="268" 
d="M47 0v17q19 7 36 21.5t17 32.5v580l-65 27v22q34 10 66.5 14t53.5 4h32l-5 -56v-620l56 -15v-19q-25 -9 -52 -13t-64 -4q-18 0 -38 2t-37 7zM87 -90q9 18 24.5 28.5t31.5 10.5q21 0 34.5 -13.5t13.5 -36.5q0 -43 -30 -82t-50 -39q-5 0 -9 1.5t-8 4.5q11 19 17 40t6 48z
" />
    <glyph glyph-name="ncedilla" horiz-adv-x="550" 
d="M47 0v17q19 7 36 21.5t17 32.5v338l-65 27v22q34 10 66 14t54 4h24v-54q25 25 65 40.5t83 15.5q62 0 101 -39.5t39 -116.5v-280l52 -15v-19q-20 -8 -46.5 -12.5t-58.5 -4.5q-16 0 -33 2t-32 7v17q19 8 27.5 23.5t8.5 42.5v191q0 73 -28 104t-72 31q-31 0 -59 -9t-44 -22
v-336l56 -15v-19q-25 -9 -52 -13t-64 -4q-18 0 -38 2t-37 7zM223 -90q9 18 24.5 28.5t31.5 10.5q21 0 34.5 -13.5t13.5 -36.5q0 -43 -30 -82t-50 -39q-5 0 -9 1.5t-8 4.5q11 19 17 40t6 48z" />
    <glyph glyph-name="rcedilla" horiz-adv-x="336" 
d="M47 0v17q19 7 36 21.5t17 32.5v338l-65 27v22q34 10 66 14t54 4h24v-70h1l28 31q20 22 41.5 33t46.5 11q26 0 39 -11t13 -32q0 -14 -4.5 -30t-11.5 -30q-14 11 -30 17t-32 6q-23 0 -45 -10.5t-43 -30.5v-318l69 -15v-19q-25 -9 -53 -13t-71 -4q-22 0 -42.5 2t-37.5 7z
M91 -90q9 18 24.5 28.5t31.5 10.5q21 0 34.5 -13.5t13.5 -36.5q0 -43 -30 -82t-50 -39q-5 0 -9 1.5t-8 4.5q11 19 17 40t6 48z" />
    </font>
</defs>
</svg>
