<?xml version="1.0" encoding="UTF-8" standalone="no"?>
<!-- Created with Inkscape (http://www.inkscape.org/) -->

<svg
   xmlns:dc="http://purl.org/dc/elements/1.1/"
   xmlns:cc="http://creativecommons.org/ns#"
   xmlns:rdf="http://www.w3.org/1999/02/22-rdf-syntax-ns#"
   xmlns:svg="http://www.w3.org/2000/svg"
   xmlns="http://www.w3.org/2000/svg"
   xmlns:sodipodi="http://sodipodi.sourceforge.net/DTD/sodipodi-0.dtd"
   xmlns:inkscape="http://www.inkscape.org/namespaces/inkscape"
   width="259.29166mm"
   height="259.29166mm"
   viewBox="0 0 259.29166 259.29166"
   version="1.1"
   id="svg4324"
   inkscape:version="0.92.4 (5da689c313, 2019-01-14)"
   sodipodi:docname="grain-worker-re-entrant.svg">
  <defs
     id="defs4318" />
  <sodipodi:namedview
     id="base"
     pagecolor="#ffffff"
     bordercolor="#666666"
     borderopacity="1.0"
     inkscape:pageopacity="0.0"
     inkscape:pageshadow="2"
     inkscape:zoom="0.35"
     inkscape:cx="207.14285"
     inkscape:cy="718.57142"
     inkscape:document-units="mm"
     inkscape:current-layer="layer1"
     showgrid="false"
     inkscape:window-width="2560"
     inkscape:window-height="1017"
     inkscape:window-x="-8"
     inkscape:window-y="-8"
     inkscape:window-maximized="1" />
  <metadata
     id="metadata4321">
    <rdf:RDF>
      <cc:Work
         rdf:about="">
        <dc:format>image/svg+xml</dc:format>
        <dc:type
           rdf:resource="http://purl.org/dc/dcmitype/StillImage" />
        <dc:title></dc:title>
      </cc:Work>
    </rdf:RDF>
  </metadata>
  <g
     inkscape:label="Layer 1"
     inkscape:groupmode="layer"
     id="layer1"
     transform="translate(-51.026787,-79.663692)">
    <g
       id="g4212"
       transform="matrix(0.17789594,0,0,0.15581822,90.213087,131.77881)"
       style="fill:#e6e6e6">
      <g
         id="g4210"
         transform="matrix(0.1,0,0,-0.1,0,511)"
         style="fill:#e6e6e6">
        <path
           id="path4204"
           d="m 4727.7,4994.6 c -67.5,-10.2 -194.2,-38.8 -282.1,-63.4 l -161.5,-42.9 10.2,-65.4 c 26.6,-149.2 132.9,-1081.4 132.9,-1157 0,-67.5 -6.1,-81.8 -40.9,-81.8 -49,0 -59.3,34.8 -206.5,684.8 -57.2,259.6 -114.5,478.3 -122.6,488.6 -10.2,12.3 -75.6,-18.4 -155.4,-73.6 -449.7,-298.4 -690.9,-682.8 -772.7,-1222.4 -32.7,-210.5 -67.5,-296.4 -132.9,-316.9 -20.4,-6.1 -61.3,-30.7 -89.9,-53.1 -53.2,-40.9 -53.2,-47 -53.2,-304.6 0,-243.3 4.1,-267.8 47,-316.8 30.7,-36.8 73.6,-57.2 137,-65.4 51.1,-6.1 120.6,-32.7 153.3,-57.2 116.5,-87.9 286.2,-171.7 492.7,-241.2 977.1,-339.3 2424.4,-237.1 3092.8,218.7 73.6,49.1 130.8,73.6 179.9,73.6 51.1,0 87.9,16.3 130.8,59.3 l 59.3,59.3 v 265.7 c 0,290.3 0,290.3 -139,359.8 -81.8,42.9 -116.5,118.6 -134.9,298.4 -55.2,511 -323,942.4 -774.7,1242.9 -79.7,55.2 -145.1,85.8 -155.4,73.6 -8.2,-10.2 -65.4,-228.9 -122.6,-488.6 -145.2,-641.9 -159.5,-684.8 -204.4,-684.8 -20.4,0 -42.9,12.3 -47,26.6 -8.2,20.4 98.1,964.9 134.9,1202 l 12.3,73.6 -118.6,34.7 c -276,79.6 -635.7,110.2 -868.8,73.5 z"
           inkscape:connector-curvature="0"
           style="fill:#e6e6e6" />
        <path
           id="path4206"
           d="m 3119,1981.4 c 0,-26.6 -30.7,-79.7 -69.5,-120.6 -83.8,-90 -114.5,-208.5 -114.5,-451.8 0,-335.2 147.2,-715.5 396.6,-1026.2 102.2,-126.7 149.2,-208.5 196.2,-339.3 204.4,-564.2 650,-995.5 1165.2,-1132.5 703.2,-184 1477.9,310.7 1780.5,1138.6 40.9,110.4 92,206.5 149.2,273.9 202.4,239.2 333.2,486.5 402.7,764.5 81.8,325 30.7,719.6 -104.2,803.4 -24.5,16.3 -40.9,49.1 -40.9,81.8 v 55.2 l -147.2,-69.5 c -357.7,-163.5 -766.6,-276 -1159,-314.8 -316.8,-32.7 -983.3,-28.6 -1249,8.2 -394.5,55.2 -746.1,159.4 -1046.6,308.7 -75.6,38.8 -143.1,69.5 -149.2,69.5 -6.2,0 -10.3,-22.5 -10.3,-49.1 z"
           inkscape:connector-curvature="0"
           style="fill:#e6e6e6" />
        <path
           id="path4208"
           d="m 3200.7,-884.5 c -1263.3,-455.8 -1584.2,-613.3 -1901.1,-928.1 -331.2,-333.2 -623.5,-924 -756.3,-1527 -49.1,-220.8 -92,-654.1 -73.6,-727.7 16.3,-71.5 65.4,-100.2 327.1,-200.3 742,-278 1888.8,-449.7 3415.8,-511 554,-20.4 1727.3,-12.3 1886.8,16.3 l 65.4,10.2 v 795.2 795.2 H 5664 c -670.5,0 -658.2,-26.6 -202.4,431.3 l 343.4,345.4 860.6,-4.1 858.6,-6.1 v -378.2 -378.2 l -341.4,-6.1 -343.4,-4.1 v -776.8 c 0,-519.2 6.1,-776.8 20.4,-776.8 12.3,0 157.4,14.3 323,30.7 836.1,87.9 1582.2,245.3 2085,443.6 284.2,110.4 284.2,110.4 253.5,443.6 -30.7,323 -83.8,572.4 -186,883.1 -245.3,733.9 -648,1236.7 -1197.9,1500.4 -296.4,143.1 -899.4,376.2 -1559.7,605.1 l -233,81.8 -149.2,-141.1 c -316.8,-302.5 -635.7,-464 -1024.1,-517.2 -462,-65.4 -1001.6,143.1 -1388,533.5 -67.5,67.5 -130.8,122.7 -143.1,120.6 -10.3,0.1 -208.6,-69.4 -439.6,-153.2 z"
           inkscape:connector-curvature="0"
           style="fill:#e6e6e6" />
      </g>
    </g>
    <g
       id="g4142"
       transform="matrix(0.26458333,0,0,0.26458333,49.138253,76.791757)"
       style="fill:#e6e6e6">
      <g
         id="g4140"
         transform="matrix(0.1,0,0,-0.1,0,512)"
         style="fill:#e6e6e6">
        <path
           id="path4124"
           d="m 4641.8,4999.8 c -30.7,-3.8 -140,-17.2 -239.7,-28.8 -228.2,-24.9 -571.4,-95.9 -788.1,-163 l -164.9,-49.9 134.2,-320.2 c 72.9,-174.5 134.2,-320.2 136.1,-322.1 0,-1.9 70.9,17.3 157.2,42.2 350.9,101.6 615.5,134.2 1100.6,132.3 488.9,-1.9 713.3,-28.8 1089.1,-134.2 97.8,-28.8 180.2,-47.9 184.1,-44.1 13.4,15.3 260.7,623.1 260.7,642.3 0,34.5 -487,155.3 -853.2,210.9 -182.1,26.9 -895.3,51.9 -1016.1,34.6 z"
           inkscape:connector-curvature="0"
           style="fill:#e6e6e6" />
        <path
           id="path4126"
           d="M 2549.9,4353.7 C 1888.4,3962.5 1370.7,3481.3 947,2863.9 816.6,2676 605.7,2309.8 605.7,2275.3 c 0,-15.3 345.1,-168.7 605.9,-268.4 11.5,-3.8 63.3,63.3 113.1,151.5 128.5,224.3 318.3,496.6 475.5,682.6 264.6,314.5 682.6,669.2 1012.4,860.9 84.4,47.9 157.2,95.9 163,105.4 7.7,11.5 -222.4,600.1 -251.2,642.3 -1.9,3.8 -80.5,-40.3 -174.5,-95.9 z"
           inkscape:connector-curvature="0"
           style="fill:#e6e6e6" />
        <path
           id="path4128"
           d="m 7113.3,4125.5 -136.2,-329.8 172.6,-107.4 c 531.1,-333.6 970.2,-759.3 1303.8,-1265.5 72.9,-111.2 157.2,-251.2 187.9,-310.6 30.7,-61.3 63.3,-111.2 70.9,-111.2 13.4,0 659.6,268.4 673,278 13.4,13.4 -178.3,345.1 -326,563.7 -343.2,513.9 -813,983.6 -1321.1,1324.9 -153.4,101.6 -464,287.6 -481.2,287.6 -5.7,0.1 -70.9,-147.6 -143.7,-329.7 z"
           inkscape:connector-curvature="0"
           style="fill:#e6e6e6" />
        <path
           id="path4130"
           d="m 9406.4,1433.5 c -132.3,-55.6 -279.9,-118.9 -329.8,-140 l -88.2,-36.4 34.5,-141.9 c 90.1,-349 103.5,-488.9 105.5,-964.4 0,-510 -26.9,-724.8 -141.9,-1119.7 -32.6,-111.2 -55.6,-203.3 -53.7,-205.2 23,-21.1 688.3,-278 697.9,-270.4 26.8,28.8 143.8,460.2 186,690.2 138,747.8 105.5,1443.8 -105.5,2222.2 -9.6,40.3 -28.8,72.9 -42.2,70.9 -13.3,-1.7 -130.3,-47.8 -262.6,-105.3 z"
           inkscape:connector-curvature="0"
           style="fill:#e6e6e6" />
        <path
           id="path4132"
           d="M 272.1,1423.9 C 228,1276.3 153.2,906.2 124.4,697.2 c -32.6,-233.9 -32.6,-916.5 0,-1150.4 53.7,-395 212.8,-1018.1 258.8,-1016.2 11.5,1.9 159.2,61.4 327.9,132.3 197.5,84.3 304.8,140 302.9,157.2 -1.9,15.3 -28.8,117 -61.4,224.3 C 824.3,-514.5 768.7,77.9 814.7,515.1 c 19.2,176.4 90.1,569.5 126.6,709.4 9.6,34.5 -23,51.8 -281.9,157.2 -161.1,65.2 -308.7,124.6 -326,130.4 -24.9,9.6 -38.3,-7.6 -61.3,-88.2 z"
           inkscape:connector-curvature="0"
           style="fill:#e6e6e6" />
        <path
           id="path4134"
           d="m 8480.3,-2088.7 c -308.7,-479.3 -701.8,-880.1 -1188.8,-1209.9 -103.5,-69 -228.2,-147.6 -281.9,-174.5 -51.8,-26.8 -95.9,-57.5 -95.9,-67.1 0,-19.2 266.5,-673 281.9,-690.2 24.9,-28.8 598.2,329.8 859,536.9 343.2,274.2 749.7,711.3 991.3,1064.1 143.8,212.8 272.3,431.4 258.8,442.9 -9.6,9.6 -406.5,178.3 -609.7,258.8 l -90.1,34.5 z"
           inkscape:connector-curvature="0"
           style="fill:#e6e6e6" />
        <path
           id="path4136"
           d="m 1002.6,-2067.6 -320.2,-136.1 49.8,-88.2 c 381.6,-661.5 945.3,-1255.9 1589.5,-1673.9 105.5,-69 258.8,-161 339.4,-207.1 l 149.6,-80.5 17.2,46 c 9.6,23 74.8,180.2 143.8,347 l 124.6,301 -109.3,55.6 c -170.7,86.3 -494.7,306.8 -684.5,465.9 -326,270.3 -646.2,634.6 -853.2,968.3 -47.9,76.7 -94,138.1 -105.5,138.1 -9.5,0 -162.9,-61.3 -341.2,-136.1 z"
           inkscape:connector-curvature="0"
           style="fill:#e6e6e6" />
        <path
           id="path4138"
           d="m 6031.9,-3868 c -278,-82.5 -536.9,-117 -931.9,-126.6 -431.4,-11.5 -665.3,7.7 -1004.7,84.4 -120.8,26.8 -232,49.8 -245.4,51.8 -15.4,1.9 -82.5,-136.1 -166.8,-343.2 -78.6,-187.9 -140,-345.1 -138.1,-347 15.3,-15.4 408.4,-109.3 588.6,-140 467.8,-82.4 908.8,-97.8 1367.1,-49.8 385.4,40.3 964.4,168.7 956.8,210.9 -5.8,38.3 -281.9,699.8 -291.4,697.9 -5.8,-2 -65.2,-19.2 -134.2,-38.4 z"
           inkscape:connector-curvature="0"
           style="fill:#e6e6e6" />
      </g>
    </g>
  </g>
</svg>
