<?xml version="1.0" standalone="no"?>
<!DOCTYPE svg PUBLIC "-//W3C//DTD SVG 1.1//EN" "http://www.w3.org/Graphics/SVG/1.1/DTD/svg11.dtd" >
<svg xmlns="http://www.w3.org/2000/svg" xmlns:xlink="http://www.w3.org/1999/xlink" version="1.1">
<metadata>
Created by FontForge 20170731 at Tue Jan 21 18:19:06 2014
 By Aleksey,,,
Copyright 2008. OurType &#38; Peter Verheul. www.ourtype.com
</metadata>
<defs>
<font id="RijksoverheidSerifWeb-Italic" horiz-adv-x="450" >
  <font-face 
    font-family="RijksoverheidSerifWeb Italic"
    font-weight="400"
    font-style="italic"
    font-stretch="normal"
    units-per-em="1000"
    panose-1="2 0 5 6 6 0 0 9 0 4"
    ascent="740"
    descent="-260"
    x-height="483"
    cap-height="642"
    bbox="-344 -264 1007 928"
    underline-thickness="50"
    underline-position="-200"
    slope="-6"
    unicode-range="U+0020-1F6B2"
  />
<missing-glyph horiz-adv-x="629" 
d="M0 0v635h629v-635h-629zM175 147l141 141l140 -141l37 37l-141 140l141 141l-37 37l-140 -142l-141 142l-38 -37l142 -141l-141 -139z" />
    <glyph glyph-name="fi" unicode="fi" horiz-adv-x="463" 
d="M38 -120l60 528h-53q0 23 17.5 39.5t41.5 16.5l9 93q8 69 61 114.5t133 45.5q71 0 96 -13t25 -35q0 -12 -3.5 -25t-8.5 -26q-26 18 -65 32t-67 14q-37 0 -64 -28.5t-32 -76.5l-11 -98h108q24 12 48.5 18.5t51.5 6.5q13 0 24 -1t21 -5l-45 -294q-3 -22 -5.5 -55t-2.5 -52
q0 -25 9.5 -37.5t30.5 -19.5v-17q-16 -7 -34.5 -10.5t-40.5 -3.5q-24 0 -36 12t-12 34q0 21 5 61.5t9 70.5l32 203l3 44h-171l-57 -530q-7 -70 -35 -101.5t-63 -31.5q-19 0 -36 5.5t-26 13.5v15q34 10 56.5 33t26.5 60z" />
    <glyph glyph-name="fl" unicode="fl" horiz-adv-x="466" 
d="M38 -120v-1l60 529h-53q0 23 17.5 39.5t41.5 16.5l10 93q7 68 61 114t126 46q19 0 32 -2t26 -6q13 4 28 7t31 3q13 0 25 -1.5t21 -4.5l-75 -524q-4 -24 -6 -56t-2 -54q0 -25 11.5 -37.5t33.5 -19.5v-17q-16 -7 -35.5 -10.5t-41.5 -3.5q-25 0 -37.5 12.5t-12.5 34.5
q0 21 4 62t8 69l67 474q-33 13 -52 17t-45 4q-31 0 -59 -29t-33 -76l-12 -97h46q22 0 41 1.5t39 2.5q0 -29 -19 -42.5t-71 -13.5h-42l-56 -524q-7 -70 -35 -101.5t-63 -31.5q-19 0 -36 5.5t-26 13.5v15q34 10 56.5 33t26.5 60z" />
    <glyph glyph-name=".notdef" horiz-adv-x="629" 
d="M0 0v635h629v-635h-629zM175 147l141 141l140 -141l37 37l-141 140l141 141l-37 37l-140 -142l-141 142l-38 -37l142 -141l-141 -139z" />
    <glyph glyph-name=".null" horiz-adv-x="0" 
 />
    <glyph glyph-name="nonmarkingreturn" horiz-adv-x="333" 
 />
    <glyph glyph-name="space" unicode=" " horiz-adv-x="160" 
 />
    <glyph glyph-name="exclam" unicode="!" horiz-adv-x="272" 
d="M173 176q-34 7 -54 31.5t-20 70.5q0 53 37 161t37 150q0 17 -4.5 30.5t-14.5 29.5q27 13 55.5 18.5t79.5 5.5q-33 -57 -76.5 -201.5t-43.5 -246.5q0 -9 1.5 -22.5t2.5 -26.5zM65 37q0 27 16.5 45t39.5 18q21 0 33.5 -14t12.5 -37q0 -25 -17 -42t-39 -17q-21 0 -33.5 13
t-12.5 34z" />
    <glyph glyph-name="quotedbl" unicode="&#x22;" horiz-adv-x="266" 
d="M79 435l-6 55t-4 83l6 73h84l-10 -71q-4 -29 -22 -84.5l-18 -55.5h-30zM216 435l-5 55t-3 83l5 73h84l-9 -71q-4 -29 -22.5 -84.5l-18.5 -55.5h-31z" />
    <glyph glyph-name="numbersign" unicode="#" horiz-adv-x="520" 
d="M188 211h129l47 229h-130zM90 -15l37 180h-120l11 48h120l47 226h-120l11 48h120l37 177h52l-38 -177h127l38 177h51l-37 -177h118l-11 -48h-118l-47 -226h118l-11 -48h-118l-38 -180h-51l37 180h-126l-38 -180h-51z" />
    <glyph glyph-name="dollar" unicode="$" horiz-adv-x="519" 
d="M262 382l49 208h-2q-49 0 -81.5 -28t-32.5 -70q0 -27 11.5 -50.5t48.5 -53.5zM220 42q48 2 83 29.5t35 73.5q0 28 -12.5 55.5t-52.5 64.5zM59 9l12 129h33l3 -22q5 -35 23.5 -52t50.5 -21l59 250l-61 53q-36 31 -48.5 60t-12.5 66q0 69 59.5 121t140.5 52h6l23 95h39
l-23 -97q30 -2 54 -7.5t42 -14.5l-12 -125h-29l-2 18q-4 30 -21 47.5t-46 24.5l-54 -230l34 -27q55 -44 74 -78.5t19 -74.5q0 -81 -66.5 -134t-148.5 -55l-20 -85h-40l20 86q-31 2 -59 7.5t-49 13.5z" />
    <glyph glyph-name="percent" unicode="%" horiz-adv-x="712" 
d="M80 -33l517 717l34 -21l-517 -717zM189 308q-59 0 -88.5 34.5t-29.5 97.5q0 90 49 147t120 57q58 0 87.5 -34.5t29.5 -97.5q0 -90 -49 -147t-119 -57zM197 348q34 0 62 43.5t28 120.5q0 49 -15.5 70.5t-40.5 21.5q-34 0 -62 -43.5t-28 -120.5q0 -49 15.5 -70.5
t40.5 -21.5zM371 120q0 90 49 147t120 57q58 0 87.5 -34.5t29.5 -97.5q0 -90 -49 -147t-119 -57q-59 0 -88.5 34.5t-29.5 97.5zM441 120q0 -49 15.5 -70.5t40.5 -21.5q34 0 62 43.5t28 120.5q0 49 -15.5 70.5t-40.5 21.5q-34 0 -62 -43.5t-28 -120.5z" />
    <glyph glyph-name="ampersand" unicode="&#x26;" horiz-adv-x="576" 
d="M73 144q0 65 44 119t106 74q-36 31 -53.5 63t-17.5 75q0 69 60 119t143 50q77 0 106 -19.5t29 -46.5q0 -14 -6 -26t-17 -25q-26 30 -58.5 47t-68.5 17q-50 0 -81 -31.5t-31 -73.5q0 -41 22.5 -79t60.5 -63v-14q-68 -19 -109.5 -68t-41.5 -105q0 -52 31.5 -86t79.5 -34
q60 0 108 46.5t48 115.5q0 15 -2.5 32.5t-6.5 28.5q-16 -3 -35.5 -22.5t-26.5 -38.5q-8 7 -13 17.5t-5 23.5q0 21 16 43t48 34l74 27q25 9 45 22.5t32 28.5q5 -6 7.5 -15.5t2.5 -19.5q0 -35 -24 -55t-61 -20q2 -7 5 -24.5t3 -30.5q0 -112 -66.5 -177.5t-162.5 -65.5
q-84 0 -134 44.5t-50 112.5z" />
    <glyph glyph-name="quotesingle" unicode="'" horiz-adv-x="245" 
d="M134 435l-6 55t-4 83l5 73h84l-9 -71q-4 -29 -22 -84.5l-18 -55.5h-30z" />
    <glyph glyph-name="parenleft" unicode="(" horiz-adv-x="268" 
d="M57 140q0 245 113 406.5t162 161.5q10 0 16.5 -4.5t10.5 -13.5q-84 -51 -160.5 -195t-76.5 -330q0 -178 51.5 -282t91.5 -104q-10 -9 -24.5 -15.5t-33.5 -6.5q-44 0 -97 100t-53 283z" />
    <glyph glyph-name="parenright" unicode=")" horiz-adv-x="268" 
d="M-91 -226q84 51 160.5 195t76.5 330q0 178 -51 282t-91 104q10 9 24.5 15.5t32.5 6.5q44 0 97.5 -100t53.5 -283q0 -246 -113.5 -407t-161.5 -161q-11 0 -17.5 4t-10.5 14z" />
    <glyph glyph-name="asterisk" unicode="*" horiz-adv-x="500" 
d="M186 299q-10 0 -16.5 8t-6.5 24q0 26 26.5 67.5t64.5 66.5v1q-43 1 -76 -2t-63 -11q-7 11 -10 18.5t-3 14.5q0 16 15 28t43 12t58.5 -11.5t48.5 -28.5l1 1q-3 33 -15 70.5t-25 60.5q13 19 22.5 25.5t18.5 6.5q16 0 27.5 -18.5t11.5 -54.5q0 -30 -6 -55t-14 -40l1 -1
q26 16 59.5 44.5t52.5 51.5q23 -7 30 -14.5t7 -17.5q0 -31 -46 -59t-104 -28v-1q20 -19 52.5 -42t57.5 -33q-2 -31 -12 -41t-25 -10q-27 0 -57.5 37t-36.5 80h-1q-14 -29 -28.5 -70t-18.5 -71q-9 -4 -16.5 -6t-16.5 -2z" />
    <glyph glyph-name="plus" unicode="+" horiz-adv-x="520" 
d="M203 0l25 200h-185l6 51h185l24 199h54l-24 -199h185l-6 -51h-185l-25 -200h-54z" />
    <glyph glyph-name="comma" unicode="," horiz-adv-x="262" 
d="M63 66q13 19 31.5 30.5t34.5 11.5q20 0 35.5 -16t15.5 -45q0 -57 -43.5 -112t-83.5 -65l-28 6q33 32 54 74t21 74z" />
    <glyph glyph-name="hyphen" unicode="-" horiz-adv-x="298" 
d="M38 230l21 67l205 18l-24 -71z" />
    <glyph glyph-name="period" unicode="." horiz-adv-x="264" 
d="M63 41q0 27 17.5 46.5t41.5 19.5q22 0 35 -14.5t13 -39.5q0 -26 -17.5 -44.5t-41.5 -18.5q-22 0 -35 14t-13 37z" />
    <glyph glyph-name="slash" unicode="/" horiz-adv-x="325" 
d="M-62 -231l400 951l49 -9l-399 -951z" />
    <glyph glyph-name="zero" unicode="0" horiz-adv-x="519" 
d="M216 -16q-80 0 -123.5 57t-43.5 175q0 213 84 320.5t185 107.5q80 0 123.5 -57t43.5 -175q0 -213 -84 -320.5t-185 -107.5zM230 42q60 0 115 94.5t55 275.5q0 90 -25.5 132t-70.5 42q-60 0 -115 -94.5t-55 -275.5q0 -90 25.5 -132t70.5 -42z" />
    <glyph glyph-name="one" unicode="1" horiz-adv-x="519" 
d="M100 3v16q49 7 77.5 28t31.5 45l55 481l-118 -7l3 34q34 17 86.5 29t87.5 12q8 0 18 -1t17 -2q-6 -18 -11 -40.5t-7 -42.5l-58 -510l110 -11v-19q-37 -12 -80.5 -18t-83.5 -6q-34 0 -70 3.5t-58 8.5z" />
    <glyph glyph-name="two" unicode="2" horiz-adv-x="519" 
d="M32 0l-3 53l245 241q53 52 80 97.5t27 89.5q0 48 -30.5 75.5t-85.5 27.5q-40 0 -84.5 -24.5t-77.5 -64.5q-3 13 -5 26t-2 30q0 33 49 63.5t139 30.5q80 0 131 -41t51 -101t-33.5 -117t-120.5 -138l-199 -184v-1h114q55 0 110 9.5t108 29.5q3 -7 6 -15.5t3 -18.5
q0 -39 -27.5 -56.5t-87.5 -17.5q-49 0 -142 3t-165 3z" />
    <glyph glyph-name="three" unicode="3" horiz-adv-x="519" 
d="M41 57q0 9 3 17.5t7 15.5q31 -18 69.5 -30t78.5 -12q65 0 109 37.5t44 89.5q0 46 -40 77t-123 31q-10 0 -26 -1.5t-25 -3.5l-4 63l49 2q78 3 133.5 47t55.5 106q0 41 -29.5 65t-78.5 24q-40 0 -81 -20.5t-72 -50.5q-3 10 -5 21.5t-2 24.5q0 32 39 58.5t133 26.5
q85 0 132.5 -38.5t47.5 -98.5q0 -57 -47.5 -110t-119.5 -75v-1q68 -4 108 -39.5t40 -92.5q0 -80 -74.5 -141t-168.5 -61q-91 0 -122 18.5t-31 50.5z" />
    <glyph glyph-name="four" unicode="4" horiz-adv-x="519" 
d="M30 156q22 130 138 276.5t240 209.5h43q-13 -54 -23.5 -112.5t-15.5 -107.5l-22 -200h38q13 0 27 4.5t27 13.5q3 -7 4 -13t1 -13q0 -30 -15.5 -44t-54.5 -14h-36l-11 -113l56 -16v-20q-22 -7 -43 -11t-48 -4q-22 0 -42.5 3t-36.5 7v17q14 4 26 15.5t13 24.5l11 97h-276z
M109 222h204l21 177q4 35 11.5 78t14.5 74h-1q-70 -51 -144.5 -148t-105.5 -181z" />
    <glyph glyph-name="five" unicode="5" horiz-adv-x="519" 
d="M40 51q0 10 4 21.5t8 18.5q30 -20 68 -31.5t74 -11.5q64 0 113.5 42.5t49.5 110.5q0 51 -37 78.5t-103 27.5q-25 0 -54.5 -3t-53.5 -7l39 338h219q28 0 54.5 2.5t52.5 6.5q1 -4 1.5 -10.5t0.5 -11.5q0 -31 -22.5 -44.5t-94.5 -13.5h-157l-23 -198q19 3 38 4.5t38 1.5
q90 0 138 -44.5t48 -110.5q0 -93 -79 -161t-176 -68q-78 0 -112 18.5t-34 44.5z" />
    <glyph glyph-name="six" unicode="6" horiz-adv-x="519" 
d="M56 192q0 202 121.5 327.5t244.5 125.5q58 0 75 -8.5t17 -26.5q0 -7 -2 -16t-5 -17q-26 7 -47 10t-43 3q-63 0 -134.5 -53t-108.5 -157q22 12 52 18.5t61 6.5q83 0 131 -45t48 -122q0 -110 -73.5 -182t-159.5 -72q-77 0 -127 54.5t-50 153.5zM136 204q0 -90 32 -127
t76 -37q49 0 94 46t45 134q0 63 -36 96t-89 33q-27 0 -52.5 -4t-46.5 -11q-9 -22 -16 -59.5t-7 -70.5z" />
    <glyph glyph-name="seven" unicode="7" horiz-adv-x="519" 
d="M113 13q0 24 39 104t149 264l107 181h-251q-31 0 -45 14.5t-14 63.5q33 -2 64 -3.5t57 -1.5h295l-144 -250q-50 -87 -100.5 -189t-87.5 -206q-10 -4 -20 -5.5t-20 -1.5q-13 0 -21 7t-8 23z" />
    <glyph glyph-name="eight" unicode="8" horiz-adv-x="519" 
d="M35 138q0 55 43.5 108.5t127.5 82.5l-48 39q-31 25 -44 50.5t-13 58.5q0 68 58 118t148 50q73 0 120 -41t47 -97q0 -53 -38.5 -99.5t-95.5 -73.5l55 -43q32 -25 47 -51.5t15 -57.5q0 -78 -69.5 -138t-165.5 -60q-84 0 -135.5 44t-51.5 110zM294 356q48 26 76 62t28 78
q0 43 -29.5 67.5t-72.5 24.5q-54 0 -86.5 -29t-32.5 -67q0 -28 14 -47t53 -50zM112 147q0 -49 33.5 -77.5t89.5 -28.5q57 0 98.5 32t41.5 81q0 27 -16 54t-52 52l-59 42q-61 -22 -98.5 -66.5t-37.5 -88.5z" />
    <glyph glyph-name="nine" unicode="9" horiz-adv-x="519" 
d="M285 291q26 0 54.5 3t48.5 7q7 33 10.5 68.5t3.5 67.5q0 80 -32 116t-82 36t-89.5 -45.5t-39.5 -113.5q0 -64 37.5 -101.5t88.5 -37.5zM19 45q0 11 2.5 20.5t6.5 15.5q25 -15 62 -25.5t76 -10.5q54 0 117 52.5t90 157.5q-25 -9 -52.5 -14.5t-53.5 -5.5q-82 0 -136.5 49
t-54.5 133q0 96 65.5 162t157.5 66q84 0 135.5 -54.5t51.5 -152.5q0 -213 -105.5 -331.5t-228.5 -118.5q-74 0 -104 15.5t-29 41.5z" />
    <glyph glyph-name="colon" unicode=":" horiz-adv-x="262" 
d="M156 376q-23 0 -36 14t-13 37q0 27 18 46.5t41 19.5q22 0 35 -14.5t13 -39.5q0 -26 -17.5 -44.5t-40.5 -18.5zM63 41q0 27 17.5 46.5t41.5 19.5q22 0 35 -14.5t13 -39.5q0 -26 -17.5 -44.5t-41.5 -18.5q-22 0 -35 14t-13 37z" />
    <glyph glyph-name="semicolon" unicode=";" horiz-adv-x="262" 
d="M156 376q-23 0 -36 14t-13 37q0 27 18 46.5t41 19.5t35.5 -14.5t12.5 -39.5q0 -26 -17.5 -44.5t-40.5 -18.5zM63 66q13 19 31.5 30.5t34.5 11.5q20 0 35.5 -16t15.5 -45q0 -57 -43.5 -112t-83.5 -65l-28 6q33 32 54 74t21 74z" />
    <glyph glyph-name="less" unicode="&#x3c;" horiz-adv-x="520" 
d="M74 222l330 244l35 -44l-275 -202l221 -192l-41 -45z" />
    <glyph glyph-name="equal" unicode="=" horiz-adv-x="520" 
d="M52 266l6 52h421l-6 -52h-421zM35 133l7 52h421l-7 -52h-421z" />
    <glyph glyph-name="greater" unicode="&#x3e;" horiz-adv-x="520" 
d="M76 27l275 202l-221 192l41 45l270 -239l-330 -244z" />
    <glyph glyph-name="question" unicode="?" horiz-adv-x="414" 
d="M159 183q-25 0 -48.5 25.5t-23.5 56.5q0 27 14 45.5t45 38.5l88 56q44 28 65.5 62t21.5 77q0 39 -23.5 61.5t-59.5 22.5q-48 0 -78.5 -32t-30.5 -81q-24 0 -37.5 13t-13.5 40q0 40 47 73t130 33q69 0 112.5 -34t43.5 -87q0 -49 -43.5 -100.5t-145.5 -110.5l-78 -45
q0 -25 12.5 -54t31.5 -54q-6 -2 -14 -4t-15 -2zM71 37q0 27 17 45t39 18q21 0 33 -14t12 -37q0 -25 -16.5 -42t-38.5 -17t-34 13t-12 34z" />
    <glyph glyph-name="at" unicode="@" horiz-adv-x="807" 
d="M40 207q0 188 122.5 318t298.5 130q120 0 214.5 -82.5t94.5 -231.5q0 -177 -98.5 -263.5t-199.5 -86.5q-10 0 -20.5 2t-20.5 5l22 149h-1q-28 -75 -69 -118t-79 -43q-34 0 -61 45t-27 131q0 154 73 239.5t170 85.5q24 0 54 -4.5t54 -11.5l-34 -175q-7 -38 -14 -97t-7 -91
q0 -15 1 -33t4 -34q63 0 129.5 71.5t66.5 221.5q0 137 -76.5 206t-183.5 69q-143 0 -247 -110.5t-104 -285.5q0 -180 78.5 -257.5t151.5 -77.5q31 0 65.5 5.5t68.5 18.5q2 -4 3 -8.5t1 -9.5q0 -15 -48.5 -37t-102.5 -22q-97 0 -188 97.5t-91 284.5zM292 176q0 -63 15 -91.5
t32 -28.5q31 0 66.5 51t51.5 152l26 166q-10 3 -24.5 4.5t-24.5 1.5q-57 0 -99.5 -64.5t-42.5 -190.5z" />
    <glyph glyph-name="A" unicode="A" horiz-adv-x="472" 
d="M31 -8q-18 0 -35 3t-33 7v17q15 4 29.5 17t21.5 31l238 536q4 8 5.5 17t1.5 16l81 11l83 -607l51 -13v-20q-19 -7 -39.5 -11t-46.5 -4q-25 0 -46.5 2.5t-42.5 7.5v17q18 5 26.5 17.5t6.5 37.5l-14 144h-173l-74 -180l55 -11v-20q-19 -7 -45 -11t-50 -4zM165 265l145 4
l-30 271h-1z" />
    <glyph glyph-name="B" unicode="B" horiz-adv-x="487" 
d="M25 2v17q14 7 25.5 20t13.5 34l61 516l-54 16v22q43 7 94.5 11.5t102.5 4.5q89 0 137 -36t48 -98q0 -65 -43 -113.5t-112 -63.5v-1q62 0 105 -38t43 -95q0 -94 -76.5 -150.5t-195.5 -56.5q-49 0 -83.5 2t-65.5 9zM175 348q87 0 138.5 40.5t51.5 109.5q0 46 -32 70t-81 24
q-13 0 -23.5 -0.5t-24.5 -1.5zM139 49q16 -2 32 -3t32 -1q66 0 110.5 38.5t44.5 99.5q0 57 -42.5 88t-144.5 31z" />
    <glyph glyph-name="C" unicode="C" horiz-adv-x="460" 
d="M45 221q0 214 93.5 320t200.5 106q38 0 65 -4t55 -14l-19 -128h-26l-5 24q-7 37 -27 52.5t-56 15.5q-65 0 -129.5 -87.5t-64.5 -271.5q0 -98 35.5 -146t84.5 -48q46 0 73 16.5t46 57.5l10 25h28l-16 -122q-34 -16 -71.5 -24t-86.5 -8q-84 0 -137 57t-53 179z" />
    <glyph glyph-name="D" unicode="D" horiz-adv-x="562" 
d="M25 2v17q16 7 26.5 20t13.5 39l59 511l-56 16v22q49 8 92 11.5t102 3.5q128 0 204 -64.5t76 -185.5q0 -185 -115.5 -292.5t-274.5 -107.5q-47 0 -74.5 2.5t-52.5 7.5zM140 50q10 -1 22 -2t22 -1q102 0 186 87t84 243q0 110 -56.5 162.5t-141.5 52.5q-14 0 -26.5 -1
t-26.5 -2z" />
    <glyph glyph-name="E" unicode="E" horiz-adv-x="420" 
d="M25 0v21q16 4 26 15.5t13 35.5l61 519l-57 17v28h357l-17 -134h-28l-2 19q-3 31 -20 46.5t-47 15.5h-108l-29 -237h113q25 0 39 10.5t20 29.5l5 15h28l-19 -173h-28l-1 17q-1 28 -12.5 39.5t-32.5 11.5h-118l-28 -243h122q37 0 60 12.5t34 35.5l9 21h29l-28 -122h-341z
" />
    <glyph glyph-name="F" unicode="F" horiz-adv-x="399" 
d="M25 2v17q16 5 26 16.5t12 30.5l62 525l-57 17v28h357l-18 -134h-29l-2 20q-3 30 -19 45.5t-50 15.5h-104l-29 -237h116q25 0 37 11t19 30l6 18h28l-20 -178h-28l-1 17q-1 29 -11.5 40.5t-29.5 11.5h-122l-29 -253l66 -16v-20q-21 -7 -45.5 -11t-52.5 -4q-25 0 -45.5 3
t-36.5 7z" />
    <glyph glyph-name="G" unicode="G" horiz-adv-x="503" 
d="M45 220q0 218 98 322.5t212 104.5q42 0 72.5 -4t67.5 -14l-22 -128h-26l-5 24q-7 36 -29 52t-68 16q-80 0 -146.5 -88t-66.5 -272q0 -98 36.5 -145.5t87.5 -47.5q26 0 52 4.5t50 13.5l22 206l-55 13v21q22 8 44.5 11.5t50.5 3.5q22 0 38.5 -2.5t29.5 -7.5v-17
q-12 -4 -22 -16t-11 -25l-28 -256q-22 0 -36.5 7t-23.5 20q-28 -16 -57.5 -23.5t-72.5 -7.5q-85 0 -138.5 56.5t-53.5 178.5z" />
    <glyph glyph-name="H" unicode="H" horiz-adv-x="567" 
d="M25 2v17q13 5 25 16.5t13 27.5l61 528l-56 16v20q22 8 43.5 11.5t48.5 3.5q22 0 42 -2.5t36 -7.5v-17q-14 -5 -25 -16t-12 -27l-26 -221l245 8l25 232l-55 16v20q22 8 43 11.5t48 3.5q22 0 42.5 -2.5t36.5 -7.5v-17q-14 -5 -25.5 -16t-12.5 -27l-61 -529l57 -16v-20
q-22 -7 -43.5 -11t-48.5 -4q-22 0 -42 3t-36 7v17q13 5 24.5 16.5t12.5 27.5l27 237h-243l-30 -257l56 -16v-20q-22 -7 -43 -11t-48 -4q-22 0 -42.5 3t-36.5 7z" />
    <glyph glyph-name="I" unicode="I" horiz-adv-x="245" 
d="M25 2v17q13 5 25 16.5t13 27.5l61 528l-56 16v20q22 8 43.5 11.5t48.5 3.5q22 0 42 -2.5t36 -7.5v-17q-14 -5 -25 -16t-12 -27l-62 -529l56 -16v-20q-22 -7 -43 -11t-48 -4q-22 0 -42.5 3t-36.5 7z" />
    <glyph glyph-name="J" unicode="J" horiz-adv-x="247" 
d="M-36 -103q40 27 67.5 80t37.5 137l57 477l-56 16v20q22 8 43.5 11.5t48.5 3.5q22 0 42.5 -2.5t36.5 -7.5v-17q-16 -5 -26.5 -16t-11.5 -27l-53 -443q-17 -149 -55.5 -201t-84.5 -52q-13 0 -24.5 2t-21.5 7v12z" />
    <glyph glyph-name="K" unicode="K" horiz-adv-x="481" 
d="M288 121l-105 202l1 5l90 80q57 51 84.5 94.5t27.5 73.5q0 15 -8 24t-28 15v15q17 7 33.5 11t35.5 4q22 0 35.5 -11.5t13.5 -32.5q0 -44 -33 -96t-99 -109l-73 -62l96 -174q37 -67 69.5 -95.5t58.5 -32.5v-21q-18 -13 -34 -17.5t-39 -4.5q-28 0 -56 25.5t-70 106.5zM25 2
v17q13 5 25 16.5t13 27.5l61 528l-56 16v20q22 8 43.5 11.5t48.5 3.5q22 0 42 -2.5t36 -7.5v-17q-14 -5 -25 -16t-12 -27l-62 -529l56 -16v-20q-22 -7 -43 -11t-48 -4q-22 0 -42.5 3t-36.5 7z" />
    <glyph glyph-name="L" unicode="L" horiz-adv-x="404" 
d="M25 0v21q15 5 26.5 19.5t13.5 36.5l59 514l-56 16v20q22 8 43.5 11.5t48.5 3.5q22 0 42 -2.5t36 -7.5v-17q-14 -5 -25 -16t-12 -27l-61 -520h127q41 0 61 12t33 43l8 17h29l-29 -124h-344z" />
    <glyph glyph-name="M" unicode="M" horiz-adv-x="667" 
d="M1 2v17q13 6 22 15t13 23l125 535l-54 12v24q19 5 50 8.5t53 3.5h33l88 -477h1l165 477h25q19 0 46.5 -2t49.5 -6v-24l-47 -12l23 -554l55 -15v-20q-22 -7 -41 -11t-41 -4q-31 0 -51 2.5t-37 7.5v17q14 7 22.5 18t8.5 34l-6 443h-1l-182 -525l-30 2l-98 523h-1l-96 -471
l57 -16v-20q-21 -8 -40.5 -11.5t-42.5 -3.5q-18 0 -36 3t-33 7z" />
    <glyph glyph-name="N" unicode="N" horiz-adv-x="542" 
d="M25 2v17q14 4 25.5 16t12.5 28l61 532l-42 9v23q21 6 47.5 9.5t45.5 3.5h28l201 -466h1l43 417l-56 16v20q20 8 40.5 11.5t42.5 3.5q20 0 36 -2.5t32 -7.5v-17q-18 -5 -27.5 -16.5t-11.5 -27.5l-69 -580l-33 -5l-232 542h-1l-49 -485l56 -16v-20q-21 -7 -38 -11t-41 -4
q-19 0 -37 3t-35 7z" />
    <glyph glyph-name="O" unicode="O" horiz-adv-x="548" 
d="M45 214q0 206 87 319.5t196 113.5q87 0 141 -58t54 -165q0 -226 -95 -335t-203 -109q-74 0 -127 59t-53 175zM245 40q61 0 126.5 85t65.5 280q0 93 -35 137.5t-87 44.5q-69 0 -126 -92t-57 -263q0 -96 33.5 -144t79.5 -48z" />
    <glyph glyph-name="P" unicode="P" horiz-adv-x="484" 
d="M170 316q16 -5 32 -7.5t32 -2.5q65 0 109.5 45t44.5 117q0 57 -34.5 90.5t-96.5 33.5q-13 0 -27.5 -0.5t-27.5 -2.5zM25 2v17q13 5 25 16.5t13 27.5l61 526l-56 16v22q47 8 88.5 11.5t102.5 3.5q104 0 160 -43.5t56 -127.5q0 -91 -74 -154.5t-166 -63.5q-21 0 -39.5 7
t-28.5 16l-28 -233l65 -16v-20q-22 -7 -45 -11t-55 -4q-25 0 -44 3t-35 7z" />
    <glyph glyph-name="Q" unicode="Q" horiz-adv-x="548" 
d="M202 -18q-66 8 -111.5 66.5t-45.5 165.5q0 206 87 319.5t196 113.5q87 0 141 -58t54 -165q0 -200 -77 -309t-173 -130v-1q22 -6 42 -14.5t41 -20.5l84 -49q25 -14 53.5 -21.5t59.5 -7.5q0 -22 -21.5 -42t-52.5 -20q-27 0 -52 10t-60 38zM245 40q61 0 126.5 85t65.5 280
q0 93 -35 137.5t-87 44.5q-69 0 -126 -92t-57 -263q0 -96 33.5 -144t79.5 -48z" />
    <glyph glyph-name="R" unicode="R" horiz-adv-x="488" 
d="M25 2v17q13 5 25 16.5t13 27.5l61 526l-56 16v22q41 7 89 11.5t111 4.5q91 0 139.5 -38t48.5 -101q0 -77 -51 -133.5t-132 -75.5l110 -182q21 -34 48.5 -54t61.5 -27v-21q-12 -10 -31 -15t-44 -5q-31 0 -57.5 18.5t-53.5 69.5l-119 218v19q64 0 121.5 47.5t57.5 125.5
q0 48 -32 76.5t-80 28.5q-13 0 -27.5 -1.5t-24.5 -2.5l-64 -547l55 -16v-20q-22 -7 -42.5 -11t-47.5 -4q-25 0 -44 3t-35 7z" />
    <glyph glyph-name="S" unicode="S" horiz-adv-x="408" 
d="M12 9l12 129h33l3 -22q7 -43 29.5 -58.5t71.5 -15.5q51 0 86.5 28t35.5 75q0 31 -17 60t-68 78l-66 63q-34 33 -47.5 61t-13.5 65q0 69 56 121t140 52q43 0 74 -6t55 -18l-12 -125h-29l-2 18q-4 39 -27 57.5t-68 18.5q-52 0 -81 -28t-29 -70q0 -27 12 -47.5t48 -52.5
l66 -59q53 -47 73 -82t20 -75q0 -82 -66.5 -135.5t-150.5 -53.5q-39 0 -75 6t-63 16z" />
    <glyph glyph-name="T" unicode="T" 
d="M130 2v17q14 5 25.5 16.5t12.5 27.5l62 522h-68q-42 0 -62.5 -16.5t-30.5 -47.5l-7 -18h-27l15 137q54 -2 118 -4.5t115 -2.5q49 0 105.5 1.5t110.5 7.5l-15 -139h-27l-2 20q-4 33 -18.5 47.5t-39.5 14.5h-88l-65 -542l65 -16v-20q-22 -7 -45 -11t-55 -4q-22 0 -42.5 3
t-36.5 7z" />
    <glyph glyph-name="U" unicode="U" horiz-adv-x="568" 
d="M63 130q0 23 5.5 63t9.5 66l45 332l-56 16v20q22 8 44 11.5t50 3.5q22 0 41 -2.5t35 -7.5v-17q-13 -5 -24 -16t-13 -27l-41 -299q-4 -26 -9 -67t-5 -63q0 -48 30.5 -75t81.5 -27q62 0 112 56.5t65 178.5l37 314l-59 17v20q24 9 41 12t47 3q16 0 32 -2.5t32 -7.5v-17
q-13 -6 -20.5 -14t-8.5 -25l-34 -292q-17 -154 -91 -226t-170 -72q-83 0 -130 36t-47 108z" />
    <glyph glyph-name="V" unicode="V" horiz-adv-x="455" 
d="M165 -10l-89 600l-47 17v20q22 8 42 11.5t42 3.5t39.5 -2.5t36.5 -7.5v-17q-13 -4 -19.5 -12t-5.5 -17l58 -487h1l177 492l-54 16v20q23 7 47 11t50 4q14 0 29.5 -2.5t28.5 -7.5v-17q-13 -4 -22 -11t-13 -18l-233 -593z" />
    <glyph glyph-name="W" unicode="W" horiz-adv-x="708" 
d="M154 -10l-79 600l-51 17v20q22 8 43 11.5t42 3.5q22 0 41 -2t38 -8v-17q-13 -4 -19.5 -12.5t-5.5 -16.5l47 -464h1l162 513l92 5l40 -536h1l154 487l-53 16v20q22 7 46.5 11t49.5 4q15 0 30 -2.5t28 -7.5v-17q-13 -4 -22 -11.5t-13 -17.5l-212 -593l-71 -3l-46 563h-1
l-175 -560z" />
    <glyph glyph-name="X" unicode="X" 
d="M-30 1v18q34 11 52 25.5t32 39.5l137 248l-107 261l-50 14v20q19 7 39.5 11t44.5 4q23 0 42.5 -2.5t38.5 -7.5v-17q-14 -5 -20.5 -14t-2.5 -19l70 -202h2l117 213l-54 14v20q24 7 46.5 11t54.5 4q16 0 31.5 -3t28.5 -7v-17q-16 -5 -27 -13t-18 -20l-149 -249l129 -292
l54 -14v-20q-19 -7 -38 -11t-41 -4q-35 0 -58.5 2.5t-37.5 6.5v18q16 3 23.5 14t3.5 21l-93 221h-1l-119 -237l49 -11v-20q-25 -8 -49 -11.5t-52 -3.5q-21 0 -40 2.5t-38 6.5z" />
    <glyph glyph-name="Y" unicode="Y" horiz-adv-x="438" 
d="M119 2v17q13 5 22 16.5t10 27.5l26 200l-115 330l-50 14v20q21 8 41 11.5t40 3.5q22 0 42 -2.5t39 -7.5v-17q-14 -3 -21 -12.5t-4 -18.5l84 -259h1l147 269l-54 13v20q21 7 44 11t48 4q15 0 30 -2.5t28 -7.5v-17q-13 -4 -21.5 -11t-15.5 -20l-186 -320l-26 -223l64 -14
v-20q-22 -7 -47 -11t-53 -4q-22 0 -40 3t-33 7z" />
    <glyph glyph-name="Z" unicode="Z" horiz-adv-x="426" 
d="M4 0v21l331 562h-147q-32 0 -53 -15.5t-40 -53.5l-7 -14h-31l21 136h361v-21l-329 -562h168q36 0 56.5 15.5t34.5 49.5l8 19h34l-23 -137h-384z" />
    <glyph glyph-name="bracketleft" unicode="[" horiz-adv-x="268" 
d="M119 -189h100l-7 -45h-156l117 941h160l-9 -45h-97z" />
    <glyph glyph-name="backslash" unicode="\" horiz-adv-x="325" 
d="M216 -240l-159 951l49 9l160 -951z" />
    <glyph glyph-name="bracketright" unicode="]" horiz-adv-x="268" 
d="M41 -190l108 852h-101l8 45h156l-118 -942h-159l8 45h98z" />
    <glyph glyph-name="asciicircum" unicode="^" horiz-adv-x="520" 
d="M46 115l-38 34l281 300l201 -299l-48 -36l-166 251z" />
    <glyph glyph-name="underscore" unicode="_" horiz-adv-x="500" 
d="M-40 -78h500v-51h-500v51z" />
    <glyph glyph-name="grave" unicode="`" 
d="M301 515q-40 13 -83 57.5t-43 78.5q0 22 16 34t48 12q7 -46 29.5 -99t47.5 -79z" />
    <glyph glyph-name="a" unicode="a" horiz-adv-x="427" 
d="M164 55q32 0 69.5 51t54.5 153l28 166q-10 3 -25.5 4.5t-26.5 1.5q-60 0 -105 -64t-45 -191q0 -63 16 -92t34 -29zM128 -14q-35 0 -63 45t-28 131q0 154 76.5 239.5t177.5 85.5q24 0 55 -4.5t56 -11.5l-35 -175q-9 -39 -15.5 -97.5t-7.5 -90.5q0 -48 11 -62.5t37 -18.5
v-21q-19 -7 -42.5 -11t-46.5 -4q-12 0 -22 2t-20 5l23 149h-1q-29 -74 -72 -117.5t-83 -43.5z" />
    <glyph glyph-name="b" unicode="b" horiz-adv-x="429" 
d="M42 8l48 304l41 353l-62 19v19q24 8 48 12t54 4q13 0 24.5 -1.5t21.5 -4.5l-62 -385h1q25 70 68.5 116.5t82.5 46.5q37 0 65 -43t28 -131q0 -157 -77 -242.5t-170 -85.5q-28 0 -58 6t-53 13zM123 49q12 -4 26.5 -5.5t28.5 -1.5q51 0 97.5 63.5t46.5 189.5
q0 72 -15.5 99.5t-34.5 27.5q-30 0 -68.5 -55t-57.5 -170z" />
    <glyph glyph-name="c" unicode="c" horiz-adv-x="320" 
d="M164 -17q-54 0 -90 44.5t-36 134.5q0 165 65.5 246.5t143.5 81.5q45 0 66 -14t21 -34q0 -19 -6 -36.5t-17 -33.5q-16 28 -38 43t-48 15q-35 0 -72.5 -61t-37.5 -192q0 -69 23 -100.5t50 -31.5t54.5 17.5t47.5 42.5q4 -4 6.5 -11t2.5 -16q0 -37 -34.5 -66t-100.5 -29z" />
    <glyph glyph-name="d" unicode="d" horiz-adv-x="428" 
d="M164 55q30 0 69 50.5t55 154.5l28 166q-10 2 -23 3.5t-25 1.5q-62 0 -108 -61.5t-46 -193.5q0 -62 15.5 -91.5t34.5 -29.5zM128 -14q-34 0 -62.5 44.5t-28.5 131.5q0 150 74.5 237.5t174.5 87.5q9 0 19.5 -0.5t18.5 -1.5l29 180l-66 19v19q23 8 48.5 12t57.5 4
q13 0 24.5 -1.5t21.5 -4.5l-73 -414q-5 -31 -13.5 -97t-8.5 -94q0 -49 11.5 -63t36.5 -18v-21q-23 -7 -43.5 -11t-45.5 -4q-13 0 -23 2t-19 5l25 151h-1q-28 -69 -71 -116t-86 -47z" />
    <glyph glyph-name="e" unicode="e" horiz-adv-x="358" 
d="M38 159q0 168 69 249.5t141 81.5q51 0 79 -26t28 -77q0 -88 -75 -139t-164 -51q0 -90 23.5 -120t66.5 -30q27 0 60 14t49 36q3 -3 6.5 -9.5t3.5 -14.5q0 -36 -42.5 -62t-102.5 -26q-63 0 -102.5 42.5t-39.5 131.5zM120 243q68 0 111.5 34.5t43.5 91.5q0 35 -13 50t-35 15
q-33 0 -70 -52.5t-37 -138.5z" />
    <glyph glyph-name="f" unicode="f" horiz-adv-x="254" 
d="M38 -120l60 528h-53q0 23 15.5 39.5t43.5 16.5l10 85q9 77 61 122.5t122 45.5t89 -10t19 -29q0 -10 -3 -22.5t-8 -24.5q-27 16 -52 23.5t-55 7.5q-39 0 -66.5 -28t-32.5 -75l-11 -96h43q21 0 39.5 1t40.5 3q0 -31 -14.5 -44.5t-65.5 -13.5h-49l-56 -523
q-7 -70 -35 -101.5t-63 -31.5q-19 0 -36 5.5t-26 13.5v15q34 10 56.5 33t26.5 60z" />
    <glyph glyph-name="g" unicode="g" horiz-adv-x="421" 
d="M166 55q31 0 70 52t54 159l23 160q-12 3 -24.5 4t-25.5 1q-57 0 -102.5 -63.5t-45.5 -191.5q0 -64 16 -92.5t35 -28.5zM61 -70q-15 -16 -21 -31.5t-6 -33.5q0 -29 22.5 -47.5t64.5 -18.5q54 0 94.5 41.5t50.5 128.5l19 176h-1q-28 -71 -71.5 -114.5t-83.5 -43.5
q-33 0 -62 44t-29 134q0 143 74 232.5t175 89.5q29 0 60 -4.5t56 -11.5l-39 -192q-7 -36 -11 -99.5t-4 -102.5q0 -170 -72.5 -247.5t-171.5 -77.5q-67 0 -105 26t-38 66q0 36 31 61t68 25z" />
    <glyph glyph-name="h" unicode="h" horiz-adv-x="449" 
d="M47 0l42 325l33 340l-62 19v19q24 8 50.5 12t51.5 4q13 0 24.5 -1.5t21.5 -4.5l-53 -366h1q31 64 75 102.5t93 38.5q37 0 58 -25.5t21 -66.5q0 -25 -5 -60t-10 -66l-18 -105q-3 -18 -5.5 -44t-2.5 -42q0 -25 11.5 -36.5t35.5 -15.5v-17q-17 -9 -37 -14t-43 -5t-36 12
t-13 34q0 19 4.5 52t8.5 58l18 111q4 22 7 53t3 48q0 33 -13 46.5t-32 13.5q-37 0 -81.5 -60.5t-51.5 -167.5l-12 -191h-84z" />
    <glyph glyph-name="i" unicode="i" horiz-adv-x="221" 
d="M160 583q-20 0 -33 13t-13 35q0 25 17 43.5t39 18.5q19 0 32.5 -13.5t13.5 -34.5q0 -25 -17 -43.5t-39 -18.5zM52 37q0 21 5 61.5t9 70.5l32 203l5 59l-60 19v19q24 9 48.5 13t51.5 4q13 0 24 -1t21 -5l-45 -294q-3 -22 -5.5 -55t-2.5 -52q0 -25 9.5 -37.5t30.5 -19.5
v-17q-16 -7 -34.5 -10.5t-40.5 -3.5q-24 0 -36 12t-12 34z" />
    <glyph glyph-name="j" unicode="j" horiz-adv-x="215" 
d="M151 583q-20 0 -33 13t-13 35q0 25 17 43.5t39 18.5q19 0 32.5 -13.5t13.5 -34.5q0 -25 -17 -43.5t-39 -18.5zM38 -64l55 435l3 60l-61 19v19q24 9 49 13t50 4q12 0 23.5 -1.5t21.5 -4.5l-64 -540q-13 -101 -51.5 -144t-87.5 -43q-19 0 -39 7.5t-30 19.5v18
q49 0 85.5 31.5t45.5 106.5z" />
    <glyph glyph-name="k" unicode="k" horiz-adv-x="379" 
d="M42 0l40 261l41 404l-62 19v19q23 8 47 12t55 4q12 0 23.5 -1.5t21.5 -4.5l-58 -439h1l56 44q31 25 64.5 77t44.5 98q37 0 52 -9t15 -24q0 -28 -41 -76.5t-96 -85.5l-43 -30l126 -193q13 -19 28 -31.5t37 -22.5v-17q-14 -8 -28 -11.5t-34 -3.5q-22 0 -43 13.5t-40 49.5
l-103 190h-1l-17 -242h-86z" />
    <glyph glyph-name="l" unicode="l" horiz-adv-x="221" 
d="M54 38q0 21 4 62t8 69l70 496l-63 19v19q24 8 48 12t52 4q13 0 25 -1.5t21 -4.5l-75 -524q-4 -24 -6 -56t-2 -54q0 -25 11.5 -37.5t33.5 -19.5v-17q-16 -7 -35.5 -10.5t-41.5 -3.5q-25 0 -37.5 12.5t-12.5 34.5z" />
    <glyph glyph-name="m" unicode="m" horiz-adv-x="681" 
d="M51 0l50 431l-61 19v19q24 9 47.5 13t51.5 4q10 0 20.5 -1.5t20.5 -5.5l-32 -154h1q34 75 79.5 119t98.5 44q33 0 51.5 -20t18.5 -50q0 -13 -2 -27.5t-4 -24.5l-10 -36h1q27 60 78 109t97 49q33 0 55 -23.5t22 -66.5q0 -28 -5 -61.5t-10 -68.5l-15 -91q-3 -19 -7 -50.5
t-4 -47.5q0 -25 12.5 -35.5t35.5 -15.5v-17q-17 -9 -37.5 -14t-42.5 -5q-24 0 -36.5 12t-12.5 34q0 21 5 59t9 62l17 100q4 24 7.5 53.5t3.5 49.5q0 31 -10.5 44.5t-26.5 13.5q-44 0 -89.5 -63t-50.5 -153l-10 -204h-89q4 18 7.5 45.5t5.5 44.5l25 175q2 22 5 48.5t3 44.5
q0 34 -11 48t-30 14q-42 0 -90 -71t-51 -180l-6 -169h-85z" />
    <glyph glyph-name="n" unicode="n" horiz-adv-x="454" 
d="M51 0l50 431l-61 19v19q24 9 47.5 13t51.5 4q10 0 20.5 -1.5t20.5 -5.5l-32 -153h1q34 76 81.5 119t98.5 43q33 0 56 -23t23 -69q0 -24 -5.5 -59t-9.5 -67l-18 -108q-2 -17 -5 -42t-3 -41q0 -25 12 -36.5t35 -15.5v-17q-17 -9 -37 -14t-43 -5t-36 12t-13 34q0 19 4 50.5
t8 55.5l19 115q4 23 7 52t3 49q0 34 -13 47t-31 13q-42 0 -89.5 -72t-50.5 -178l-6 -169h-85z" />
    <glyph glyph-name="o" unicode="o" horiz-adv-x="426" 
d="M39 165q0 157 68.5 241.5t150.5 84.5q60 0 99.5 -41t39.5 -126q0 -158 -70.5 -247.5t-144.5 -89.5q-58 0 -100.5 45t-42.5 133zM200 43q36 0 75.5 64t39.5 197q0 66 -22 97.5t-55 31.5q-40 0 -80 -64t-40 -169q0 -85 24.5 -121t57.5 -36z" />
    <glyph glyph-name="p" unicode="p" horiz-adv-x="430" 
d="M125 48q15 -4 29.5 -5t27.5 -1q52 0 97 62.5t45 187.5q0 73 -15.5 101.5t-34.5 28.5q-31 0 -71.5 -57.5t-54.5 -164.5zM116 9l-14 -143q-4 -42 5 -59t30 -23v-17q-19 -7 -37.5 -9.5t-40.5 -2.5q-13 0 -26.5 1.5t-23.5 4.5l18 84l78 587l-61 19v19q24 8 49 12t50 4
q10 0 20.5 -1.5t19.5 -4.5l-26 -154h1q25 73 69 119t82 46q36 0 64 -41t28 -125q0 -166 -71.5 -249.5t-146.5 -83.5q-20 0 -35 3.5t-32 13.5z" />
    <glyph glyph-name="q" unicode="q" horiz-adv-x="422" 
d="M129 -14q-39 0 -65 47.5t-26 132.5q0 150 68.5 236t138.5 86q25 0 45.5 -7.5t33.5 -20.5q10 14 27.5 22.5t53.5 8.5l-47 -247l-39 -378q-4 -42 6 -59t31 -23v-17q-19 -7 -37.5 -9.5t-42.5 -2.5q-13 0 -25.5 1.5t-22.5 4.5l55 374h-1q-25 -65 -69.5 -107t-83.5 -42z
M168 57q33 0 70 55t51 148l24 158q-16 7 -33.5 11t-36.5 4q-46 0 -87 -63t-41 -192q0 -62 15 -91.5t38 -29.5z" />
    <glyph glyph-name="r" unicode="r" horiz-adv-x="286" 
d="M51 0l49 431l-61 19v19q24 9 47.5 13t49.5 4q10 0 21 -1.5t21 -5.5l-30 -145h1l53 88q19 32 40 47.5t44 15.5q16 0 24.5 -10t8.5 -27q0 -12 -3 -26t-8 -26q-7 2 -15 3t-16 1q-47 0 -87.5 -58t-47.5 -196l-8 -146h-83z" />
    <glyph glyph-name="s" unicode="s" horiz-adv-x="312" 
d="M1 44q0 13 4 23t11 19q21 -20 45.5 -31t52.5 -11q35 0 60 19t25 50q0 25 -12.5 45.5t-49.5 53.5l-35 32q-34 31 -46.5 55.5t-12.5 57.5q0 49 43 90.5t112 41.5q54 0 81.5 -15t27.5 -39q0 -13 -5 -27.5t-13 -24.5q-22 22 -51.5 35.5t-57.5 13.5q-33 0 -50 -16t-17 -40
q0 -22 12.5 -39.5t49.5 -51.5l38 -34q36 -32 50 -57.5t14 -58.5q0 -59 -53.5 -103.5t-131.5 -44.5q-47 0 -69 14.5t-22 42.5z" />
    <glyph glyph-name="t" unicode="t" horiz-adv-x="261" 
d="M58 111q0 46 9.5 116t21.5 127l13 64q-16 0 -28 1t-28 2v13q24 34 59.5 65.5t75.5 54.5h15l-17 -82h29q21 0 39 1.5t38 5.5q0 -32 -20 -47t-67 -15h-28l-17 -104q-6 -36 -13 -88.5t-7 -82.5q0 -49 22 -72t55 -23q12 0 21 1.5t20 5.5v-18q-7 -18 -32 -33t-60 -15
q-49 0 -75 32t-26 91z" />
    <glyph glyph-name="u" unicode="u" horiz-adv-x="437" 
d="M51 81q0 17 4 38t7 37l23 118q5 25 10 61.5t5 59.5q0 25 -12 38t-34 18v17q17 8 36.5 13t42.5 5q24 0 36.5 -12t12.5 -34q0 -25 -7 -68.5t-14 -86.5l-22 -111q-4 -16 -6.5 -38t-2.5 -37q0 -21 9.5 -32t25.5 -11q35 0 84 61.5t58 174.5l11 173q19 8 43 13.5t47 5.5
l-28 -156q-10 -51 -17.5 -112.5t-7.5 -106.5q0 -49 10.5 -63.5t35.5 -18.5v-21q-22 -7 -44.5 -11t-45.5 -4q-12 0 -22 1.5t-19 5.5l27 137h-1q-29 -51 -77 -98.5t-91 -47.5q-33 0 -55 25t-22 67z" />
    <glyph glyph-name="v" unicode="v" horiz-adv-x="370" 
d="M103 -17l-41 450l-43 17v21q23 8 42 11.5t40 3.5q10 0 20.5 -1.5t20.5 -4.5l22 -409h1q54 67 90 160t36 170q0 20 -9.5 33t-27.5 22v16q13 7 28 11t34 4q24 0 39 -14t15 -46q0 -77 -61 -207.5t-133 -199.5q-14 -13 -27 -21.5t-26 -15.5h-20z" />
    <glyph glyph-name="w" unicode="w" horiz-adv-x="605" 
d="M98 -17l-35 450l-44 17v21q23 8 41.5 11.5t40.5 3.5q10 0 20.5 -1.5t20.5 -4.5l15 -403h1q44 51 87.5 169t43.5 229q12 5 24.5 8t23.5 3q25 0 37.5 -10.5t13.5 -32.5l19 -363h1q51 66 85.5 154.5t34.5 154.5q0 24 -8 39t-30 28v17q13 6 28 10t34 4q22 0 37.5 -15
t15.5 -46q0 -93 -63 -216t-143 -198q-13 -12 -20.5 -18t-17.5 -11h-17l-14 486h-1q-1 -131 -53 -262.5t-116 -191.5q-12 -10 -22 -18t-20 -14h-20z" />
    <glyph glyph-name="x" unicode="x" horiz-adv-x="370" 
d="M-21 10v17q28 8 47.5 22t33.5 37l92 149l-87 203l-43 14v20q23 9 39.5 12t34.5 3q11 0 20.5 -1t20.5 -4l69 -197h1l49 75q13 19 18.5 34.5t5.5 29.5q0 13 -9.5 20.5t-30.5 12.5v17q13 6 30.5 9.5t32.5 3.5q23 0 35.5 -12t12.5 -31q0 -21 -8.5 -40.5t-29.5 -47.5l-81 -105
l73 -161q11 -25 26.5 -39.5t37.5 -22.5v-18q-14 -10 -30 -14.5t-35 -4.5q-21 0 -38 15t-31 51l-54 140h-1l-63 -131q-19 -41 -41 -58t-47 -17q-16 0 -27.5 4.5t-22.5 14.5z" />
    <glyph glyph-name="y" unicode="y" horiz-adv-x="365" 
d="M107 -42l14 34l-66 440l-44 18v21q23 8 41.5 12t40.5 4q10 0 20.5 -2t20.5 -5l45 -405h1q43 75 76.5 175.5t33.5 148.5q0 21 -9.5 34.5t-25.5 22.5v16q13 7 29 11t34 4q25 0 38.5 -14.5t13.5 -45.5q0 -33 -22 -97.5t-67 -151.5l-113 -221q-54 -107 -111.5 -153.5
t-108.5 -46.5q-37 0 -57.5 14.5t-20.5 37.5q0 8 1.5 18.5t5.5 17.5q20 -11 44 -15.5t49 -4.5q34 0 71 31.5t66 101.5z" />
    <glyph glyph-name="z" unicode="z" horiz-adv-x="336" 
d="M-16 -8l267 419h-107q-33 0 -50.5 -8t-24.5 -23l-8 -17l-23 4q0 52 23 84t63 32q53 0 92.5 -3.5t58.5 -3.5t39 1.5t40 4.5q-60 -115 -124.5 -216t-136.5 -204h127q40 0 58 7t25 23l10 21l20 -2q0 -63 -26 -93t-81 -30q-33 0 -86 5t-82 5q-17 0 -38 -1.5t-36 -4.5z" />
    <glyph glyph-name="braceleft" unicode="{" horiz-adv-x="268" 
d="M101 105q5 37 -24.5 71.5t-100.5 56.5v22q71 9 112 36.5t45 62.5l32 239q7 54 42 87.5t86 33.5q19 0 29.5 -9t10.5 -27q-54 0 -80 -20.5t-30 -54.5l-33 -240q-7 -54 -44.5 -82.5t-121.5 -39.5v-1q66 0 103 -38t30 -87l-31 -247q-4 -36 18.5 -55.5t78.5 -19.5
q0 -16 -14 -26.5t-36 -10.5q-52 0 -82 30t-24 74z" />
    <glyph glyph-name="bar" unicode="|" horiz-adv-x="300" 
d="M123 -264v1000h54v-1000h-54z" />
    <glyph glyph-name="braceright" unicode="}" horiz-adv-x="268" 
d="M78 107q7 54 44.5 83t121.5 40v1q-66 0 -103 37.5t-30 86.5l31 247q4 36 -18.5 55.5t-78.5 19.5q0 16 14 26.5t36 10.5q52 0 82 -30t24 -74l-34 -245q-5 -37 24.5 -71.5t100.5 -56.5v-22q-71 -9 -112 -36.5t-45 -62.5l-32 -239q-7 -53 -42 -87t-86 -34q-19 0 -29.5 9
t-10.5 27q54 0 80 20.5t30 54.5z" />
    <glyph glyph-name="asciitilde" unicode="~" horiz-adv-x="520" 
d="M129 214q-10 9 -15 22.5t-3 30.5q3 23 23.5 41t51.5 18q13 0 27 -4t29 -12l40 -24q13 -7 23.5 -11t21.5 -4q14 0 31 17.5t19 40.5q10 -10 15 -23.5t3 -29.5q-3 -25 -26.5 -46t-50.5 -21q-16 0 -29.5 3.5t-26.5 10.5l-41 25q-13 9 -24.5 13t-21.5 4q-14 0 -29 -16.5
t-17 -34.5z" />
    <glyph glyph-name="uni00A0" unicode="&#xa0;" horiz-adv-x="160" 
 />
    <glyph glyph-name="exclamdown" unicode="&#xa1;" horiz-adv-x="272" 
d="M171 382q-20 0 -32.5 13.5t-12.5 36.5q0 25 16.5 42t39.5 17q21 0 33.5 -12.5t12.5 -34.5q0 -26 -17 -44t-40 -18zM4 -192q32 57 76 201.5t44 246.5q0 10 -1.5 23.5t-3.5 26.5q34 -7 54.5 -31.5t20.5 -70.5q0 -53 -37.5 -161t-37.5 -151q0 -16 4.5 -29.5t14.5 -29.5
q-27 -14 -55 -19.5t-79 -5.5z" />
    <glyph glyph-name="cent" unicode="&#xa2;" horiz-adv-x="519" 
d="M184 177q0 -66 21 -97t47 -35l46 387q-38 -1 -76 -62t-38 -193zM107 162q0 157 61 238.5t136 88.5l10 76h30l-9 -76q35 -2 53 -15.5t18 -31.5q0 -16 -6 -35t-16 -35q-11 19 -26.5 33t-31.5 21l-46 -378q21 5 42.5 21t36.5 36q4 -4 6.5 -11t2.5 -16q0 -31 -24 -57t-71 -35
l-10 -77h-31l9 74h-8q-54 0 -90 44.5t-36 134.5z" />
    <glyph glyph-name="sterling" unicode="&#xa3;" horiz-adv-x="519" 
d="M84 0v21q16 4 26 15.5t13 35.5l26 225h-77q0 21 13 35.5t32 14.5h38l15 145q7 68 65 112.5t138 44.5q72 0 96.5 -12t24.5 -33q0 -10 -4.5 -21.5t-10.5 -20.5q-26 16 -59 24.5t-67 8.5q-42 0 -72 -26.5t-35 -73.5l-17 -148h115q16 0 31.5 1t33.5 3q0 -29 -16 -41.5
t-59 -12.5h-110l-24 -243h150q41 0 61 12t33 43l8 17h29l-29 -126h-368z" />
    <glyph glyph-name="currency" unicode="&#xa4;" horiz-adv-x="519" 
d="M117 162l-36 36l44 43q-16 22 -25.5 49.5t-9.5 57.5t9.5 57t26.5 49l-45 44l36 36l44 -45q22 16 49 26t57 10t57 -9.5t49 -26.5l44 45l36 -36l-45 -44q16 -22 26 -49t10 -57t-9.5 -57.5t-25.5 -49.5l44 -43l-36 -36l-44 44q-22 -16 -49 -25.5t-57 -9.5t-57 9.5t-49 26.5z
M267 227q50 0 85.5 35.5t35.5 85.5t-35.5 85.5t-85.5 35.5t-85.5 -35.5t-35.5 -85.5t35.5 -85.5t85.5 -35.5z" />
    <glyph glyph-name="yen" unicode="&#xa5;" horiz-adv-x="519" 
d="M158 2v17q13 5 22 16.5t10 27.5l13 104h-135l4 35h136l7 56h-137l4 35h124l-101 300l-50 14v20q21 8 41 11.5t40 3.5q22 0 42 -2.5t39 -7.5v-17q-14 -3 -21 -12.5t-4 -18.5l80 -259h1l147 269l-54 13v20q21 7 44 11t48 4q15 0 30 -2.5t28 -7.5v-17q-13 -4 -21.5 -11
t-15.5 -20l-169 -291h125l-4 -35h-139l-7 -56h139l-4 -35h-139l-14 -126l64 -14v-20q-22 -7 -47 -11t-53 -4q-22 0 -40 3t-33 7z" />
    <glyph glyph-name="brokenbar" unicode="&#xa6;" horiz-adv-x="300" 
d="M123 322v414h54v-414h-54zM123 151h54v-415h-54v415z" />
    <glyph glyph-name="section" unicode="&#xa7;" horiz-adv-x="500" 
d="M271 -176q29 0 73.5 55.5t44.5 137.5q0 43 -13.5 80t-38.5 72l-89 128q-34 49 -50 88t-16 73q0 40 18 77t49 59q-38 0 -75 -45.5t-37 -112.5q0 -36 13.5 -73.5t39.5 -74.5l100 -142q25 -34 40 -73t15 -85q0 -51 -20.5 -95t-53.5 -69zM78 -84h33l3 -22q6 -38 25.5 -57.5
t58.5 -19.5q40 0 72 39.5t32 109.5q0 39 -16.5 80t-44.5 82l-94 135q-29 40 -42.5 79t-13.5 81q0 83 63 152t162 69q35 0 61.5 -7t47.5 -17l-12 -133h-29l-2 18q-4 36 -24 55.5t-57 19.5q-36 0 -57.5 -33t-21.5 -73q0 -28 17.5 -66.5t51.5 -86.5l94 -135q24 -34 36.5 -72.5
t12.5 -83.5q0 -107 -84.5 -189.5t-168.5 -82.5q-37 0 -65 8t-50 17z" />
    <glyph glyph-name="dieresis" unicode="&#xa8;" 
d="M185 568q-16 0 -25 11.5t-9 31.5t13 35.5t33 15.5q15 0 24.5 -10.5t9.5 -32.5q0 -21 -13 -36t-33 -15zM334 568q-16 0 -25 11.5t-9 31.5t13 35.5t33 15.5q15 0 24.5 -10.5t9.5 -32.5q0 -21 -13 -36t-33 -15z" />
    <glyph glyph-name="copyright" unicode="&#xa9;" horiz-adv-x="856" 
d="M89 313q0 138 101 238t239 100q139 0 235.5 -96t96.5 -234t-100.5 -239t-239.5 -101t-235.5 96.5t-96.5 235.5zM143 317q0 -121 82.5 -207t199.5 -86t199.5 86t82.5 207q0 119 -83 205t-199 86q-117 0 -199.5 -86t-82.5 -205zM288 281q0 112 55 174.5t121 62.5
q24 0 45.5 -3.5t38.5 -10.5l-12 -83h-20l-3 14q-4 21 -19.5 31t-37.5 10q-40 0 -71 -46t-31 -139q0 -55 24 -84t55 -29q25 1 39 10.5t23 31.5l6 15h21l-10 -79q-21 -10 -41 -16t-58 -6q-48 0 -86.5 39t-38.5 108z" />
    <glyph glyph-name="ordfeminine" unicode="&#xaa;" horiz-adv-x="304" 
d="M152 361q20 0 45.5 33.5t37.5 99.5l19 103q-8 1 -17.5 2.5t-17.5 1.5q-40 0 -70.5 -41.5t-30.5 -122.5q0 -40 11 -58t23 -18zM122 313q-26 0 -46.5 28.5t-20.5 85.5q0 101 54 157t128 56q19 0 43.5 -3.5t43.5 -7.5l-25 -111q-5 -25 -10.5 -61.5t-5.5 -60.5
q0 -31 7.5 -41.5t25.5 -13.5v-16q-16 -4 -32.5 -6.5t-34.5 -2.5q-10 0 -17.5 1.5t-15.5 3.5l17 97h-1q-22 -49 -51.5 -77t-58.5 -28z" />
    <glyph glyph-name="guillemotleft" unicode="&#xab;" horiz-adv-x="434" 
d="M257 138l-52 116l59 78q46 62 73.5 84.5t46.5 22.5q15 0 25 -4t21 -14q-34 -27 -63 -56.5t-56 -63.5l-34 -44l41 -80q16 -31 33 -56t39 -45q-13 -5 -28.5 -8.5t-30.5 -3.5q-19 0 -37 15.5t-37 58.5zM85 138l-52 116l59 78q46 62 73.5 84.5t46.5 22.5q15 0 25 -4t21 -14
q-34 -27 -63 -56.5t-56 -63.5l-34 -44l41 -80q16 -31 33 -56t39 -45q-13 -5 -28.5 -8.5t-30.5 -3.5q-19 0 -37 15.5t-37 58.5z" />
    <glyph glyph-name="logicalnot" unicode="&#xac;" horiz-adv-x="520" 
d="M51 264l7 51h421l-24 -196h-55l17 145h-366z" />
    <glyph glyph-name="uni00AD" unicode="&#xad;" horiz-adv-x="298" 
d="M34 230l25 67l205 18l-24 -71z" />
    <glyph glyph-name="registered" unicode="&#xae;" horiz-adv-x="850" 
d="M89 313q0 138 101 238t239 100q139 0 235.5 -96t96.5 -234t-100.5 -239t-239.5 -101t-235.5 96.5t-96.5 235.5zM143 317q0 -121 82.5 -207t199.5 -86t199.5 86t82.5 207q0 119 -83 205t-199 86q-117 0 -199.5 -86t-82.5 -205zM277 146v12q9 3 18.5 10t10.5 17l34 292
l-40 11v18q28 4 57.5 6.5t72.5 2.5q62 0 93 -22.5t31 -63.5q0 -39 -31 -70.5t-67 -41.5l64 -96q13 -21 30 -34t42 -21v-12q-12 -7 -28.5 -12t-32.5 -5q-19 0 -37 13.5t-31 38.5l-67 122v12q30 0 59.5 28.5t29.5 71.5q0 31 -15 45.5t-40 14.5q-7 0 -14.5 -1t-14.5 -3
l-39 -307l37 -11v-13q-15 -4 -29.5 -6.5t-33.5 -2.5q-17 0 -32.5 2t-26.5 5z" />
    <glyph glyph-name="macron" unicode="&#xaf;" 
d="M128 577v55h266v-55h-266z" />
    <glyph glyph-name="degree" unicode="&#xb0;" horiz-adv-x="420" 
d="M239 368q-60 0 -104 40.5t-44 97.5q0 58 44.5 101t104.5 43q61 0 106 -41t45 -101q0 -57 -46 -98.5t-106 -41.5zM240 411q38 0 67.5 28.5t29.5 67.5q0 40 -30 70t-67 30t-66 -29.5t-29 -69.5q0 -39 29 -68t66 -29z" />
    <glyph glyph-name="plusminus" unicode="&#xb1;" horiz-adv-x="520" 
d="M218 119l17 145h-184l7 51h184l16 136h55l-16 -136h182l-7 -51h-182l-17 -145h-55zM19 0l6 52h421l-6 -52h-421z" />
    <glyph glyph-name="twosuperior" unicode="&#xb2;" horiz-adv-x="326" 
d="M41 322v32l141 104q32 25 48 48t16 48q0 22 -17 34t-47 12q-22 0 -51 -11.5t-48 -30.5q-2 7 -3.5 15.5t-1.5 17.5q0 18 30 35t89 17q61 0 90.5 -21.5t29.5 -55.5t-23 -64.5t-74 -64.5l-108 -71v-1h67q33 0 68 4.5t66 14.5q2 -5 2.5 -11t0.5 -13q0 -22 -17 -32t-54 -10
q-29 0 -93.5 2t-110.5 2z" />
    <glyph glyph-name="threesuperior" unicode="&#xb3;" horiz-adv-x="326" 
d="M139 314q-51 0 -72 10.5t-21 28.5q0 6 2 12t6 11q19 -10 43 -18t45 -8q34 0 62 17t28 43q0 21 -26 34.5t-72 13.5q-6 0 -14.5 -0.5t-14.5 -1.5l-3 39l28 -1q44 -1 78 18.5t34 48.5q0 20 -17.5 30.5t-46.5 10.5q-21 0 -46 -9t-45 -24q-1 6 -2.5 11.5t-1.5 12.5
q0 21 26 35.5t86 14.5q54 0 84.5 -20.5t30.5 -49.5q0 -31 -31.5 -55.5t-79.5 -34.5q48 0 74.5 -18.5t26.5 -46.5q0 -43 -47.5 -73.5t-113.5 -30.5z" />
    <glyph glyph-name="acute" unicode="&#xb4;" 
d="M188 519q25 26 48 79t30 99q32 0 47.5 -12t15.5 -34q0 -34 -43 -78.5t-83 -57.5z" />
    <glyph glyph-name="uni00B5" unicode="&#xb5;" horiz-adv-x="434" 
d="M105 -1l-41 -237h-70l91 512q5 25 10 61.5t5 59.5q0 25 -12 38t-34 18v17q17 8 36.5 13t42.5 5q24 0 36.5 -12t12.5 -34q0 -25 -7 -68.5t-14 -86.5l-22 -111q-4 -16 -6.5 -38t-2.5 -37q0 -21 9.5 -32t25.5 -11q35 0 84 61.5t58 174.5l11 173q19 8 43 13.5t47 5.5
l-28 -156q-10 -52 -17.5 -115.5t-7.5 -103.5q0 -49 10.5 -63.5t35.5 -18.5v-21q-22 -7 -44.5 -11t-45.5 -4q-12 0 -22 1.5t-19 5.5l27 137h-1q-29 -50 -75.5 -98t-81.5 -48q-10 0 -17.5 2t-16.5 8z" />
    <glyph glyph-name="paragraph" unicode="&#xb6;" horiz-adv-x="500" 
d="M182 -205q21 5 35.5 19t16.5 36l40 385q-13 -10 -31.5 -16t-37.5 -6q-69 0 -113 40t-44 115q0 110 86.5 191.5t201.5 81.5q31 0 63 -3.5t59 -8.5q-13 -27 -21.5 -57t-11.5 -61l-77 -695q-3 -26 -26.5 -42.5t-57.5 -16.5q-28 0 -49.5 10.5t-32.5 27.5zM268 -190h39l87 793
h-40z" />
    <glyph glyph-name="periodcentered" unicode="&#xb7;" horiz-adv-x="264" 
d="M124 188q-23 0 -35.5 14t-12.5 37q0 27 17.5 46.5t40.5 19.5t36 -14.5t13 -39.5q0 -26 -18 -44.5t-41 -18.5z" />
    <glyph glyph-name="cedilla" unicode="&#xb8;" horiz-adv-x="270" 
d="M97 6h31l-6 -57q32 0 50 -15.5t18 -40.5q0 -40 -38 -72t-89 -32q-31 0 -51.5 22.5t-20.5 58.5q22 -17 42.5 -25t40.5 -8q22 0 37.5 11t15.5 27q0 17 -15 26.5t-45 9.5z" />
    <glyph glyph-name="onesuperior" unicode="&#xb9;" horiz-adv-x="326" 
d="M77 327v13q30 5 50.5 16.5t21.5 23.5l27 221l-75 -5l2 22q22 9 56.5 16t59.5 7q7 0 15.5 -1t15.5 -2q-4 -10 -8 -23t-5 -25l-29 -236l74 -11v-15q-25 -5 -55.5 -8t-58.5 -3t-49 2t-42 8z" />
    <glyph glyph-name="ordmasculine" unicode="&#xba;" horiz-adv-x="312" 
d="M159 312q-46 0 -76.5 30.5t-30.5 87.5q0 101 50 155.5t111 54.5q46 0 75 -28t29 -84q0 -102 -50.5 -159t-107.5 -57zM172 351q24 0 51.5 41t27.5 125q0 43 -15.5 63t-36.5 20q-28 0 -54.5 -40.5t-26.5 -108.5q0 -54 16 -77t38 -23z" />
    <glyph glyph-name="guillemotright" unicode="&#xbb;" horiz-adv-x="434" 
d="M50 63q-15 0 -25 4t-21 14q34 27 63 56.5t56 63.5l34 44l-41 80q-16 31 -33.5 56t-39.5 45q14 5 29.5 8.5t29.5 3.5q19 0 37.5 -15.5t37.5 -58.5l52 -116l-59 -78q-46 -62 -73.5 -84.5t-46.5 -22.5zM176 81q34 27 63 56.5t55 63.5l35 44l-41 80q-16 31 -33.5 56t-39.5 45
q14 5 29.5 8.5t29.5 3.5q19 0 37.5 -15.5t37.5 -58.5l51 -116l-58 -78q-46 -62 -74 -84.5t-47 -22.5q-14 0 -24 4t-21 14z" />
    <glyph glyph-name="onequarter" unicode="&#xbc;" horiz-adv-x="712" 
d="M100 -33l517 717l34 -21l-517 -717zM89 327v13q30 5 50.5 16.5t21.5 23.5l27 221l-75 -5l2 22q22 9 56.5 16t59.5 7q7 0 15.5 -1t15.5 -2q-4 -10 -8 -23t-5 -25l-29 -236l74 -11v-15q-25 -5 -55.5 -8t-58.5 -3t-49 2t-42 8zM374 74q13 75 88 149.5t160 96.5h21
q-7 -25 -12.5 -53t-8.5 -51l-12 -97h18q7 0 14.5 2t15.5 5q2 -4 3 -8.5t1 -9.5q0 -19 -10 -26.5t-34 -7.5h-15l-4 -43l39 -13v-13q-16 -6 -29 -8t-33 -2q-17 0 -33.5 2t-28.5 6v13q13 4 20 12.5t8 21.5l2 24h-170zM434 117h116l10 80q3 19 7 36t9 31h-1q-43 -20 -84 -63.5
t-57 -83.5z" />
    <glyph glyph-name="onehalf" unicode="&#xbd;" horiz-adv-x="712" 
d="M80 -33l517 717l34 -21l-517 -717zM89 327v13q30 5 50.5 16.5t21.5 23.5l27 221l-75 -5l2 22q22 9 56.5 16t59.5 7q7 0 15.5 -1t15.5 -2q-4 -10 -8 -23t-5 -25l-29 -236l74 -11v-15q-25 -5 -55.5 -8t-58.5 -3t-49 2t-42 8zM381 0v32l141 104q32 25 48 48t16 48
q0 22 -17 34t-47 12q-22 0 -51 -11.5t-48 -30.5q-2 7 -3.5 15.5t-1.5 17.5q0 18 30 35t89 17q61 0 90.5 -21.5t29.5 -55.5t-23 -64.5t-74 -64.5l-108 -71v-1h67q33 0 68 4.5t66 14.5q2 -5 2.5 -11t0.5 -13q0 -22 -17 -32t-54 -10q-29 0 -93.5 2t-110.5 2z" />
    <glyph glyph-name="threequarters" unicode="&#xbe;" horiz-adv-x="712" 
d="M92 -33l517 717l34 -21l-517 -717zM58 353q0 6 2 12t6 11q19 -10 43 -18t45 -8q34 0 62 17t28 43q0 21 -26 34.5t-72 13.5q-6 0 -14.5 -0.5t-14.5 -1.5l-3 39l28 -1q44 -1 78 18.5t34 48.5q0 20 -17.5 30.5t-46.5 10.5q-21 0 -46 -9t-45 -24q-1 6 -2.5 11.5t-1.5 12.5
q0 21 26 35.5t86 14.5q54 0 84.5 -20.5t30.5 -49.5q0 -31 -31.5 -55.5t-79.5 -34.5q48 0 74.5 -18.5t26.5 -46.5q0 -43 -47.5 -73.5t-113.5 -30.5q-51 0 -72 10.5t-21 28.5zM374 74q13 75 88 149.5t160 96.5h21q-7 -25 -12.5 -53t-8.5 -51l-12 -97h18q7 0 14.5 2t15.5 5
q2 -4 3 -8.5t1 -9.5q0 -19 -10 -26.5t-34 -7.5h-15l-4 -43l39 -13v-13q-16 -6 -29 -8t-33 -2q-17 0 -33.5 2t-28.5 6v13q13 4 20 12.5t8 21.5l2 24h-170zM434 117h116l10 80q3 19 7 36t9 31h-1q-43 -20 -84 -63.5t-57 -83.5z" />
    <glyph glyph-name="questiondown" unicode="&#xbf;" horiz-adv-x="412" 
d="M302 382q-20 0 -32.5 13.5t-12.5 36.5q0 25 17 42t39 17q21 0 33.5 -12.5t12.5 -34.5q0 -26 -16.5 -44t-40.5 -18zM20 -71q0 49 43 100t146 110l78 45q-1 26 -13.5 55t-32.5 53q7 2 15 4t15 2q25 0 48 -25t23 -56q0 -27 -13 -46t-44 -39l-89 -56q-43 -28 -65.5 -62
t-22.5 -77q0 -39 24.5 -61.5t59.5 -22.5q48 0 78.5 32.5t30.5 81.5q24 0 38 -13.5t14 -39.5q0 -40 -47.5 -73.5t-131.5 -33.5q-69 0 -111.5 34t-42.5 88z" />
    <glyph glyph-name="Agrave" unicode="&#xc0;" horiz-adv-x="472" 
d="M31 -8q-18 0 -35 3t-33 7v17q15 4 29.5 17t21.5 31l238 536q4 8 5.5 17t1.5 16l81 11l83 -607l51 -13v-20q-19 -7 -39.5 -11t-46.5 -4q-25 0 -46.5 2.5t-42.5 7.5v17q18 5 26.5 17.5t6.5 37.5l-14 144h-173l-74 -180l55 -11v-20q-19 -7 -45 -11t-50 -4zM165 265l145 4
l-30 271h-1zM354 665q-40 13 -83 57.5t-43 78.5q0 22 16 34t48 12q7 -46 29.5 -99t47.5 -79z" />
    <glyph glyph-name="Aacute" unicode="&#xc1;" horiz-adv-x="472" 
d="M31 -8q-18 0 -35 3t-33 7v17q15 4 29.5 17t21.5 31l238 536q4 8 5.5 17t1.5 16l81 11l83 -607l51 -13v-20q-19 -7 -39.5 -11t-46.5 -4q-25 0 -46.5 2.5t-42.5 7.5v17q18 5 26.5 17.5t6.5 37.5l-14 144h-173l-74 -180l55 -11v-20q-19 -7 -45 -11t-50 -4zM165 265l145 4
l-30 271h-1zM258 669q25 26 48 79t30 99q32 0 47.5 -12t15.5 -34q0 -34 -43 -78.5t-83 -57.5z" />
    <glyph glyph-name="Acircumflex" unicode="&#xc2;" horiz-adv-x="472" 
d="M31 -8q-18 0 -35 3t-33 7v17q15 4 29.5 17t21.5 31l238 536q4 8 5.5 17t1.5 16l81 11l83 -607l51 -13v-20q-19 -7 -39.5 -11t-46.5 -4q-25 0 -46.5 2.5t-42.5 7.5v17q18 5 26.5 17.5t6.5 37.5l-14 144h-173l-74 -180l55 -11v-20q-19 -7 -45 -11t-50 -4zM165 265l145 4
l-30 271h-1zM195 679q-13 7 -21 15t-15 18l142 131l37 6l117 -154l-14 -14q-18 0 -35.5 9.5t-43.5 34.5q-13 13 -26 32t-21 39z" />
    <glyph glyph-name="Atilde" unicode="&#xc3;" horiz-adv-x="472" 
d="M31 -8q-18 0 -35 3t-33 7v17q15 4 29.5 17t21.5 31l238 536q4 8 5.5 17t1.5 16l81 11l83 -607l51 -13v-20q-19 -7 -39.5 -11t-46.5 -4q-25 0 -46.5 2.5t-42.5 7.5v17q18 5 26.5 17.5t6.5 37.5l-14 144h-173l-74 -180l55 -11v-20q-19 -7 -45 -11t-50 -4zM165 265l145 4
l-30 271h-1zM193 695q-11 9 -18 22.5t-7 30.5q0 24 19 41.5t49 17.5q13 0 28 -4t31 -13l42 -23q13 -8 24.5 -12t22.5 -4q14 0 28 18t15 41q10 -10 17 -23t7 -29q0 -26 -21 -46t-48 -20q-16 0 -30 3.5t-27 10.5l-44 24q-15 9 -27 13t-22 4q-14 0 -26 -17t-13 -35z" />
    <glyph glyph-name="Adieresis" unicode="&#xc4;" horiz-adv-x="472" 
d="M31 -8q-18 0 -35 3t-33 7v17q15 4 29.5 17t21.5 31l238 536q4 8 5.5 17t1.5 16l81 11l83 -607l51 -13v-20q-19 -7 -39.5 -11t-46.5 -4q-25 0 -46.5 2.5t-42.5 7.5v17q18 5 26.5 17.5t6.5 37.5l-14 144h-173l-74 -180l55 -11v-20q-19 -7 -45 -11t-50 -4zM165 265l145 4
l-30 271h-1zM240 704q-16 0 -25 11.5t-9 31.5t13 35.5t33 15.5q15 0 24.5 -10.5t9.5 -32.5q0 -21 -13 -36t-33 -15zM389 704q-16 0 -25 11.5t-9 31.5t13 35.5t33 15.5q15 0 24.5 -10.5t9.5 -32.5q0 -21 -13 -36t-33 -15z" />
    <glyph glyph-name="Aring" unicode="&#xc5;" horiz-adv-x="472" 
d="M31 -8q-18 0 -35 3t-33 7v17q15 4 29.5 17t21.5 31l238 536q4 8 5.5 17t1.5 16l81 11l83 -607l51 -13v-20q-19 -7 -39.5 -11t-46.5 -4q-25 0 -46.5 2.5t-42.5 7.5v17q18 5 26.5 17.5t6.5 37.5l-14 144h-173l-74 -180l55 -11v-20q-19 -7 -45 -11t-50 -4zM165 265l145 4
l-30 271h-1zM328 680q-37 0 -62 23.5t-25 62.5q0 37 25 63.5t61 26.5q37 0 62.5 -24.5t25.5 -63.5q0 -37 -26 -62.5t-61 -25.5zM327 713q22 0 35 14t13 39q0 24 -13 40.5t-35 16.5q-21 0 -34 -16.5t-13 -40.5q0 -23 13 -38t34 -15z" />
    <glyph glyph-name="AE" unicode="&#xc6;" horiz-adv-x="659" 
d="M202 266l122 5l30 260h-1zM31 -9q-18 0 -35 3t-33 7v17q15 4 32.5 18.5t27.5 30.5l317 538q3 5 5.5 14.5t2.5 16.5h316l-17 -134h-28l-2 19q-3 31 -20 46.5t-47 15.5h-108l-29 -237h113q25 0 39 10.5t20 29.5l5 15h28l-19 -173h-28l-1 17q-1 28 -12.5 39.5t-32.5 11.5
h-118l-28 -243h122q37 0 60 12.5t34 35.5l9 21h29l-28 -122h-344v21q16 4 26 15.5t13 35.5l18 147h-142l-97 -183l39 -10v-20q-19 -7 -41 -11t-46 -4z" />
    <glyph glyph-name="Ccedilla" unicode="&#xc7;" horiz-adv-x="460" 
d="M103 -130q22 -17 42.5 -25t40.5 -8q22 0 37.5 11t15.5 27q0 17 -15 26.5t-45 9.5l24 76q-72 10 -115 67t-43 167q0 214 93.5 320t200.5 106q38 0 65 -4t55 -14l-19 -128h-26l-5 24q-7 37 -27 52.5t-56 15.5q-65 0 -129.5 -87.5t-64.5 -271.5q0 -98 35.5 -146t84.5 -48
q46 0 73 16.5t46 57.5l10 25h28l-16 -122q-34 -15 -71 -23t-84 -9l-4 -36q32 0 50 -15.5t18 -40.5q0 -40 -38 -72t-89 -32q-31 0 -51.5 22.5t-20.5 58.5z" />
    <glyph glyph-name="Egrave" unicode="&#xc8;" horiz-adv-x="420" 
d="M25 0v21q16 4 26 15.5t13 35.5l61 519l-57 17v28h357l-17 -134h-28l-2 19q-3 31 -20 46.5t-47 15.5h-108l-29 -237h113q25 0 39 10.5t20 29.5l5 15h28l-19 -173h-28l-1 17q-1 28 -12.5 39.5t-32.5 11.5h-118l-28 -243h122q37 0 60 12.5t34 35.5l9 21h29l-28 -122h-341z
M325 665q-40 13 -83 57.5t-43 78.5q0 22 16 34t48 12q7 -46 29.5 -99t47.5 -79z" />
    <glyph glyph-name="Eacute" unicode="&#xc9;" horiz-adv-x="420" 
d="M25 0v21q16 4 26 15.5t13 35.5l61 519l-57 17v28h357l-17 -134h-28l-2 19q-3 31 -20 46.5t-47 15.5h-108l-29 -237h113q25 0 39 10.5t20 29.5l5 15h28l-19 -173h-28l-1 17q-1 28 -12.5 39.5t-32.5 11.5h-118l-28 -243h122q37 0 60 12.5t34 35.5l9 21h29l-28 -122h-341z
M246 669q25 26 48 79t30 99q32 0 47.5 -12t15.5 -34q0 -34 -43 -78.5t-83 -57.5z" />
    <glyph glyph-name="Ecircumflex" unicode="&#xca;" horiz-adv-x="420" 
d="M25 0v21q16 4 26 15.5t13 35.5l61 519l-57 17v28h357l-17 -134h-28l-2 19q-3 31 -20 46.5t-47 15.5h-108l-29 -237h113q25 0 39 10.5t20 29.5l5 15h28l-19 -173h-28l-1 17q-1 28 -12.5 39.5t-32.5 11.5h-118l-28 -243h122q37 0 60 12.5t34 35.5l9 21h29l-28 -122h-341z
M161 679q-13 7 -21 15t-15 18l142 131l37 6l117 -154l-14 -14q-18 0 -35.5 9.5t-43.5 34.5q-13 13 -26 32t-21 39z" />
    <glyph glyph-name="Edieresis" unicode="&#xcb;" horiz-adv-x="420" 
d="M25 0v21q16 4 26 15.5t13 35.5l61 519l-57 17v28h357l-17 -134h-28l-2 19q-3 31 -20 46.5t-47 15.5h-108l-29 -237h113q25 0 39 10.5t20 29.5l5 15h28l-19 -173h-28l-1 17q-1 28 -12.5 39.5t-32.5 11.5h-118l-28 -243h122q37 0 60 12.5t34 35.5l9 21h29l-28 -122h-341z
M196 704q-16 0 -25 11.5t-9 31.5t13 35.5t33 15.5q15 0 24.5 -10.5t9.5 -32.5q0 -21 -13 -36t-33 -15zM345 704q-16 0 -25 11.5t-9 31.5t13 35.5t33 15.5q15 0 24.5 -10.5t9.5 -32.5q0 -21 -13 -36t-33 -15z" />
    <glyph glyph-name="Igrave" unicode="&#xcc;" horiz-adv-x="245" 
d="M25 2v17q13 5 25 16.5t13 27.5l61 528l-56 16v20q22 8 43.5 11.5t48.5 3.5q22 0 42 -2.5t36 -7.5v-17q-14 -5 -25 -16t-12 -27l-62 -529l56 -16v-20q-22 -7 -43 -11t-48 -4q-22 0 -42.5 3t-36.5 7zM207 665q-40 13 -83 57.5t-43 78.5q0 22 16 34t48 12q7 -46 29.5 -99
t47.5 -79z" />
    <glyph glyph-name="Iacute" unicode="&#xcd;" horiz-adv-x="245" 
d="M25 2v17q13 5 25 16.5t13 27.5l61 528l-56 16v20q22 8 43.5 11.5t48.5 3.5q22 0 42 -2.5t36 -7.5v-17q-14 -5 -25 -16t-12 -27l-62 -529l56 -16v-20q-22 -7 -43 -11t-48 -4q-22 0 -42.5 3t-36.5 7zM121 669q25 26 48 79t30 99q32 0 47.5 -12t15.5 -34q0 -34 -43 -78.5
t-83 -57.5z" />
    <glyph glyph-name="Icircumflex" unicode="&#xce;" horiz-adv-x="245" 
d="M25 2v17q13 5 25 16.5t13 27.5l61 528l-56 16v20q22 8 43.5 11.5t48.5 3.5q22 0 42 -2.5t36 -7.5v-17q-14 -5 -25 -16t-12 -27l-62 -529l56 -16v-20q-22 -7 -43 -11t-48 -4q-22 0 -42.5 3t-36.5 7zM62 666q-13 7 -21 15t-15 18l142 131l37 6l117 -154l-14 -14
q-18 0 -35.5 9.5t-43.5 34.5q-13 13 -26 32t-21 39z" />
    <glyph glyph-name="Idieresis" unicode="&#xcf;" horiz-adv-x="245" 
d="M101 700q-16 0 -25 11.5t-9 31.5t13 35.5t33 15.5q15 0 24.5 -10.5t9.5 -32.5q0 -21 -13 -36t-33 -15zM250 700q-16 0 -25 11.5t-9 31.5t13 35.5t33 15.5q15 0 24.5 -10.5t9.5 -32.5q0 -21 -13 -36t-33 -15zM25 2v17q13 5 25 16.5t13 27.5l61 528l-56 16v20
q22 8 43.5 11.5t48.5 3.5q22 0 42 -2.5t36 -7.5v-17q-14 -5 -25 -16t-12 -27l-62 -529l56 -16v-20q-22 -7 -43 -11t-48 -4q-22 0 -42.5 3t-36.5 7z" />
    <glyph glyph-name="Eth" unicode="&#xd0;" horiz-adv-x="562" 
d="M25 2v17q16 7 26.5 20t13.5 39l26 226h-76v39h80l29 246l-56 16v22q49 8 92 11.5t102 3.5q128 0 204 -64.5t76 -185.5q0 -185 -115.5 -292.5t-274.5 -107.5q-47 0 -74.5 2.5t-52.5 7.5zM140 50q10 -1 22 -2t22 -1q102 0 186 87t84 243q0 110 -56.5 162.5t-141.5 52.5
q-14 0 -26.5 -1t-26.5 -2l-29 -246h112v-39h-117z" />
    <glyph glyph-name="Ntilde" unicode="&#xd1;" horiz-adv-x="542" 
d="M25 2v17q14 4 25.5 16t12.5 28l61 532l-42 9v23q21 6 47.5 9.5t45.5 3.5h28l201 -466h1l43 417l-56 16v20q20 8 40.5 11.5t42.5 3.5q20 0 36 -2.5t32 -7.5v-17q-18 -5 -27.5 -16.5t-11.5 -27.5l-69 -580l-33 -5l-232 542h-1l-49 -485l56 -16v-20q-21 -7 -38 -11t-41 -4
q-19 0 -37 3t-35 7zM220 695q-11 9 -18 22.5t-7 30.5q0 24 19 41.5t49 17.5q13 0 28 -4t31 -13l42 -23q13 -8 24.5 -12t22.5 -4q14 0 28 18t15 41q10 -10 17 -23t7 -29q0 -26 -21 -46t-48 -20q-16 0 -30 3.5t-27 10.5l-44 24q-15 9 -27 13t-22 4q-14 0 -26 -17t-13 -35z" />
    <glyph glyph-name="Ograve" unicode="&#xd2;" horiz-adv-x="548" 
d="M45 214q0 206 87 319.5t196 113.5q87 0 141 -58t54 -165q0 -226 -95 -335t-203 -109q-74 0 -127 59t-53 175zM245 40q61 0 126.5 85t65.5 280q0 93 -35 137.5t-87 44.5q-69 0 -126 -92t-57 -263q0 -96 33.5 -144t79.5 -48zM394 665q-40 13 -83 57.5t-43 78.5q0 22 16 34
t48 12q7 -46 29.5 -99t47.5 -79z" />
    <glyph glyph-name="Oacute" unicode="&#xd3;" horiz-adv-x="548" 
d="M45 214q0 206 87 319.5t196 113.5q87 0 141 -58t54 -165q0 -226 -95 -335t-203 -109q-74 0 -127 59t-53 175zM245 40q61 0 126.5 85t65.5 280q0 93 -35 137.5t-87 44.5q-69 0 -126 -92t-57 -263q0 -96 33.5 -144t79.5 -48zM305 669q25 26 48 79t30 99q32 0 47.5 -12
t15.5 -34q0 -34 -43 -78.5t-83 -57.5z" />
    <glyph glyph-name="Ocircumflex" unicode="&#xd4;" horiz-adv-x="548" 
d="M45 214q0 206 87 319.5t196 113.5q87 0 141 -58t54 -165q0 -226 -95 -335t-203 -109q-74 0 -127 59t-53 175zM245 40q61 0 126.5 85t65.5 280q0 93 -35 137.5t-87 44.5q-69 0 -126 -92t-57 -263q0 -96 33.5 -144t79.5 -48zM245 679q-13 7 -21 15t-15 18l142 131l37 6
l117 -154l-14 -14q-18 0 -35.5 9.5t-43.5 34.5q-13 13 -26 32t-21 39z" />
    <glyph glyph-name="Otilde" unicode="&#xd5;" horiz-adv-x="548" 
d="M45 214q0 206 87 319.5t196 113.5q87 0 141 -58t54 -165q0 -226 -95 -335t-203 -109q-74 0 -127 59t-53 175zM245 40q61 0 126.5 85t65.5 280q0 93 -35 137.5t-87 44.5q-69 0 -126 -92t-57 -263q0 -96 33.5 -144t79.5 -48zM235 695q-11 9 -18 22.5t-7 30.5q0 24 19 41.5
t49 17.5q13 0 28 -4t31 -13l42 -23q13 -8 24.5 -12t22.5 -4q14 0 28 18t15 41q10 -10 17 -23t7 -29q0 -26 -21 -46t-48 -20q-16 0 -30 3.5t-27 10.5l-44 24q-15 9 -27 13t-22 4q-14 0 -26 -17t-13 -35z" />
    <glyph glyph-name="Odieresis" unicode="&#xd6;" horiz-adv-x="548" 
d="M45 214q0 206 87 319.5t196 113.5q87 0 141 -58t54 -165q0 -226 -95 -335t-203 -109q-74 0 -127 59t-53 175zM245 40q61 0 126.5 85t65.5 280q0 93 -35 137.5t-87 44.5q-69 0 -126 -92t-57 -263q0 -96 33.5 -144t79.5 -48zM288 704q-16 0 -25 11.5t-9 31.5t13 35.5
t33 15.5q15 0 24.5 -10.5t9.5 -32.5q0 -21 -13 -36t-33 -15zM437 704q-16 0 -25 11.5t-9 31.5t13 35.5t33 15.5q15 0 24.5 -10.5t9.5 -32.5q0 -21 -13 -36t-33 -15z" />
    <glyph glyph-name="multiply" unicode="&#xd7;" horiz-adv-x="520" 
d="M63 85l159 139l-125 141l42 37l124 -142l157 142l33 -37l-158 -141l123 -140l-41 -37l-123 141l-158 -141z" />
    <glyph glyph-name="Oslash" unicode="&#xd8;" horiz-adv-x="548" 
d="M140 150l265 388q-16 25 -39.5 37t-50.5 12q-69 0 -126 -92t-57 -263q0 -23 2 -43.5t6 -38.5zM155 106q16 -33 39.5 -49.5t50.5 -16.5q61 0 126.5 85t65.5 280q0 28 -3.5 52.5t-10.5 43.5zM0 -56l81 119q-17 28 -26.5 66t-9.5 85q0 206 87 319.5t196 113.5
q36 0 67.5 -10.5t55.5 -30.5l64 94l32 -17l-70 -103q22 -28 34 -67.5t12 -88.5q0 -226 -95 -335t-203 -109q-34 0 -65.5 13t-55.5 38l-70 -104z" />
    <glyph glyph-name="Ugrave" unicode="&#xd9;" horiz-adv-x="568" 
d="M63 130q0 23 5.5 63t9.5 66l45 332l-56 16v20q22 8 44 11.5t50 3.5q22 0 41 -2.5t35 -7.5v-17q-13 -5 -24 -16t-13 -27l-41 -299q-4 -26 -9 -67t-5 -63q0 -48 30.5 -75t81.5 -27q62 0 112 56.5t65 178.5l37 314l-59 17v20q24 9 41 12t47 3q16 0 32 -2.5t32 -7.5v-17
q-13 -6 -20.5 -14t-8.5 -25l-34 -292q-17 -154 -91 -226t-170 -72q-83 0 -130 36t-47 108zM378 664q-40 13 -83 57.5t-43 78.5q0 22 16 34t48 12q7 -46 29.5 -99t47.5 -79z" />
    <glyph glyph-name="Uacute" unicode="&#xda;" horiz-adv-x="568" 
d="M63 130q0 23 5.5 63t9.5 66l45 332l-56 16v20q22 8 44 11.5t50 3.5q22 0 41 -2.5t35 -7.5v-17q-13 -5 -24 -16t-13 -27l-41 -299q-4 -26 -9 -67t-5 -63q0 -48 30.5 -75t81.5 -27q62 0 112 56.5t65 178.5l37 314l-59 17v20q24 9 41 12t47 3q16 0 32 -2.5t32 -7.5v-17
q-13 -6 -20.5 -14t-8.5 -25l-34 -292q-17 -154 -91 -226t-170 -72q-83 0 -130 36t-47 108zM295 655q25 26 48 79t30 99q32 0 47.5 -12t15.5 -34q0 -34 -43 -78.5t-83 -57.5z" />
    <glyph glyph-name="Ucircumflex" unicode="&#xdb;" horiz-adv-x="568" 
d="M63 130q0 23 5.5 63t9.5 66l45 332l-56 16v20q22 8 44 11.5t50 3.5q22 0 41 -2.5t35 -7.5v-17q-13 -5 -24 -16t-13 -27l-41 -299q-4 -26 -9 -67t-5 -63q0 -48 30.5 -75t81.5 -27q62 0 112 56.5t65 178.5l37 314l-59 17v20q24 9 41 12t47 3q16 0 32 -2.5t32 -7.5v-17
q-13 -6 -20.5 -14t-8.5 -25l-34 -292q-17 -154 -91 -226t-170 -72q-83 0 -130 36t-47 108zM236 670q-13 7 -21 15t-15 18l142 131l37 6l117 -154l-14 -14q-18 0 -35.5 9.5t-43.5 34.5q-13 13 -26 32t-21 39z" />
    <glyph glyph-name="Udieresis" unicode="&#xdc;" horiz-adv-x="568" 
d="M268 704q-16 0 -25 11.5t-9 31.5t13 35.5t33 15.5q15 0 24.5 -10.5t9.5 -32.5q0 -21 -13 -36t-33 -15zM417 704q-16 0 -25 11.5t-9 31.5t13 35.5t33 15.5q15 0 24.5 -10.5t9.5 -32.5q0 -21 -13 -36t-33 -15zM63 130q0 23 5.5 63t9.5 66l45 332l-56 16v20q22 8 44 11.5
t50 3.5q22 0 41 -2.5t35 -7.5v-17q-13 -5 -24 -16t-13 -27l-41 -299q-4 -26 -9 -67t-5 -63q0 -48 30.5 -75t81.5 -27q62 0 112 56.5t65 178.5l37 314l-59 17v20q24 9 41 12t47 3q16 0 32 -2.5t32 -7.5v-17q-13 -6 -20.5 -14t-8.5 -25l-34 -292q-17 -154 -91 -226t-170 -72
q-83 0 -130 36t-47 108z" />
    <glyph glyph-name="Yacute" unicode="&#xdd;" horiz-adv-x="438" 
d="M119 2v17q13 5 22 16.5t10 27.5l26 200l-115 330l-50 14v20q21 8 41 11.5t40 3.5q22 0 42 -2.5t39 -7.5v-17q-14 -3 -21 -12.5t-4 -18.5l84 -259h1l147 269l-54 13v20q21 7 44 11t48 4q15 0 30 -2.5t28 -7.5v-17q-13 -4 -21.5 -11t-15.5 -20l-186 -320l-26 -223l64 -14
v-20q-22 -7 -47 -11t-53 -4q-22 0 -40 3t-33 7zM228 669q25 26 48 79t30 99q32 0 47.5 -12t15.5 -34q0 -34 -43 -78.5t-83 -57.5z" />
    <glyph glyph-name="Thorn" unicode="&#xde;" horiz-adv-x="483" 
d="M155 184l2 1q16 -5 32 -7.5t32 -2.5q65 0 109.5 45t44.5 117q0 57 -34.5 91t-96.5 34q-13 0 -28 -1t-28 -3h-1zM25 2v17q13 5 25 16.5t13 27.5l61 528l-56 16v20q22 8 43.5 11.5t48.5 3.5q22 0 42 -2.5t36 -7.5v-17q-15 -5 -25 -16t-12 -27l-8 -63q13 1 26.5 1.5
t26.5 0.5q104 0 160 -43.5t56 -127.5q0 -91 -74 -154.5t-166 -63.5q-21 0 -39.5 7t-28.5 16l-3 -2l-12 -100l56 -16v-20q-22 -7 -43 -11t-48 -4q-22 0 -42.5 3t-36.5 7z" />
    <glyph glyph-name="germandbls" unicode="&#xdf;" horiz-adv-x="509" 
d="M38 -120l60 528h-54q0 20 18 38t43 18l9 93q7 72 62.5 116t137.5 44q74 0 117.5 -38.5t43.5 -94.5q0 -69 -76.5 -118t-76.5 -89q0 -25 12 -42t50 -51l39 -32q36 -32 51 -58.5t15 -59.5q0 -60 -52.5 -103.5t-131.5 -43.5q-43 0 -65 15t-22 44q0 11 3.5 22.5t7.5 17.5
q26 -20 51 -31t47 -11q37 0 59.5 19t22.5 50q0 23 -12.5 45.5t-48.5 54.5l-35 31q-33 30 -47.5 56t-14.5 58q0 62 75 108t75 109q0 45 -25.5 68.5t-71.5 23.5q-49 0 -79.5 -29.5t-35.5 -79.5l-74 -672q-7 -70 -35 -101.5t-63 -31.5q-19 0 -36 5.5t-26 13.5v15q34 10 56.5 33
t26.5 60z" />
    <glyph glyph-name="agrave" unicode="&#xe0;" horiz-adv-x="427" 
d="M164 55q32 0 69.5 51t54.5 153l28 166q-10 3 -25.5 4.5t-26.5 1.5q-60 0 -105 -64t-45 -191q0 -63 16 -92t34 -29zM128 -14q-35 0 -63 45t-28 131q0 154 76.5 239.5t177.5 85.5q24 0 55 -4.5t56 -11.5l-35 -175q-9 -39 -15.5 -97.5t-7.5 -90.5q0 -48 11 -62.5t37 -18.5
v-21q-19 -7 -42.5 -11t-46.5 -4q-12 0 -22 2t-20 5l23 149h-1q-29 -74 -72 -117.5t-83 -43.5zM323 515q-40 13 -83 57.5t-43 78.5q0 22 16 34t48 12q7 -46 29.5 -99t47.5 -79z" />
    <glyph glyph-name="aacute" unicode="&#xe1;" horiz-adv-x="427" 
d="M164 55q32 0 69.5 51t54.5 153l28 166q-10 3 -25.5 4.5t-26.5 1.5q-60 0 -105 -64t-45 -191q0 -63 16 -92t34 -29zM128 -14q-35 0 -63 45t-28 131q0 154 76.5 239.5t177.5 85.5q24 0 55 -4.5t56 -11.5l-35 -175q-9 -39 -15.5 -97.5t-7.5 -90.5q0 -48 11 -62.5t37 -18.5
v-21q-19 -7 -42.5 -11t-46.5 -4q-12 0 -22 2t-20 5l23 149h-1q-29 -74 -72 -117.5t-83 -43.5zM225 519q25 26 48 79t30 99q32 0 47.5 -12t15.5 -34q0 -34 -43 -78.5t-83 -57.5z" />
    <glyph glyph-name="acircumflex" unicode="&#xe2;" horiz-adv-x="427" 
d="M164 55q32 0 69.5 51t54.5 153l28 166q-10 3 -25.5 4.5t-26.5 1.5q-60 0 -105 -64t-45 -191q0 -63 16 -92t34 -29zM128 -14q-35 0 -63 45t-28 131q0 154 76.5 239.5t177.5 85.5q24 0 55 -4.5t56 -11.5l-35 -175q-9 -39 -15.5 -97.5t-7.5 -90.5q0 -48 11 -62.5t37 -18.5
v-21q-19 -7 -42.5 -11t-46.5 -4q-12 0 -22 2t-20 5l23 149h-1q-29 -74 -72 -117.5t-83 -43.5zM184 529q-13 7 -21 15t-15 18l142 131l37 6l117 -154l-14 -14q-18 0 -35.5 9.5t-43.5 34.5q-13 13 -26 32t-21 39z" />
    <glyph glyph-name="atilde" unicode="&#xe3;" horiz-adv-x="427" 
d="M164 55q32 0 69.5 51t54.5 153l28 166q-10 3 -25.5 4.5t-26.5 1.5q-60 0 -105 -64t-45 -191q0 -63 16 -92t34 -29zM128 -14q-35 0 -63 45t-28 131q0 154 76.5 239.5t177.5 85.5q24 0 55 -4.5t56 -11.5l-35 -175q-9 -39 -15.5 -97.5t-7.5 -90.5q0 -48 11 -62.5t37 -18.5
v-21q-19 -7 -42.5 -11t-46.5 -4q-12 0 -22 2t-20 5l23 149h-1q-29 -74 -72 -117.5t-83 -43.5zM170 545q-11 9 -18 22.5t-7 30.5q0 24 19 41.5t49 17.5q13 0 28 -4t31 -13l42 -23q13 -8 24.5 -12t22.5 -4q14 0 28 18t15 41q10 -10 17 -23t7 -29q0 -26 -21 -46t-48 -20
q-16 0 -30 3.5t-27 10.5l-44 24q-15 9 -27 13t-22 4q-14 0 -26 -17t-13 -35z" />
    <glyph glyph-name="adieresis" unicode="&#xe4;" horiz-adv-x="427" 
d="M164 55q32 0 69.5 51t54.5 153l28 166q-10 3 -25.5 4.5t-26.5 1.5q-60 0 -105 -64t-45 -191q0 -63 16 -92t34 -29zM128 -14q-35 0 -63 45t-28 131q0 154 76.5 239.5t177.5 85.5q24 0 55 -4.5t56 -11.5l-35 -175q-9 -39 -15.5 -97.5t-7.5 -90.5q0 -48 11 -62.5t37 -18.5
v-21q-19 -7 -42.5 -11t-46.5 -4q-12 0 -22 2t-20 5l23 149h-1q-29 -74 -72 -117.5t-83 -43.5zM217 568q-16 0 -25 11.5t-9 31.5t13 35.5t33 15.5q15 0 24.5 -10.5t9.5 -32.5q0 -21 -13 -36t-33 -15zM366 568q-16 0 -25 11.5t-9 31.5t13 35.5t33 15.5q15 0 24.5 -10.5
t9.5 -32.5q0 -21 -13 -36t-33 -15z" />
    <glyph glyph-name="aring" unicode="&#xe5;" horiz-adv-x="427" 
d="M164 55q32 0 69.5 51t54.5 153l28 166q-10 3 -25.5 4.5t-26.5 1.5q-60 0 -105 -64t-45 -191q0 -63 16 -92t34 -29zM128 -14q-35 0 -63 45t-28 131q0 154 76.5 239.5t177.5 85.5q24 0 55 -4.5t56 -11.5l-35 -175q-9 -39 -15.5 -97.5t-7.5 -90.5q0 -48 11 -62.5t37 -18.5
v-21q-19 -7 -42.5 -11t-46.5 -4q-12 0 -22 2t-20 5l23 149h-1q-29 -74 -72 -117.5t-83 -43.5zM300 530q-37 0 -62 23.5t-25 62.5q0 37 25 63.5t61 26.5q37 0 62.5 -24.5t25.5 -63.5q0 -37 -26 -62.5t-61 -25.5zM299 563q22 0 35 14t13 39q0 24 -13 40.5t-35 16.5
q-21 0 -34 -16.5t-13 -40.5q0 -23 13 -38t34 -15z" />
    <glyph glyph-name="ae" unicode="&#xe6;" horiz-adv-x="604" 
d="M132 -14q-36 0 -63.5 46t-27.5 130q0 147 73.5 236t179.5 89q29 0 56 -9t46 -24q22 18 48.5 27t49.5 9q51 0 79 -26t28 -77q0 -88 -75.5 -139t-163.5 -51q0 -90 23.5 -120t66.5 -30q28 0 60.5 14t48.5 36q2 -3 5.5 -9t3.5 -15q0 -37 -42 -62.5t-102 -25.5q-63 0 -99 38.5
t-41 99.5h-1q-24 -49 -66 -93t-87 -44zM366 243q68 0 111.5 34.5t43.5 91.5q0 35 -13 50t-35 15q-32 0 -69.5 -52.5t-37.5 -138.5zM168 57q33 0 71 51.5t53 150.5l25 166q-12 2 -25 3.5t-24 1.5q-63 0 -106.5 -65.5t-43.5 -188.5q0 -63 16 -91t34 -28z" />
    <glyph glyph-name="ccedilla" unicode="&#xe7;" horiz-adv-x="335" 
d="M47 -130q22 -17 42.5 -25t40.5 -8q22 0 37.5 11t15.5 27q0 17 -15 26.5t-45 9.5l23 73q-47 7 -77.5 51t-30.5 127q0 165 65.5 246.5t143.5 81.5q45 0 66 -14t21 -34q0 -19 -6 -36.5t-17 -33.5q-16 28 -38 43t-48 15q-35 0 -72.5 -61t-37.5 -192q0 -69 23 -100.5t50 -31.5
t54.5 17.5t47.5 42.5q4 -4 6.5 -11t2.5 -16q0 -35 -30 -62.5t-88 -31.5l-3 -35q32 0 50 -15.5t18 -40.5q0 -40 -38 -72t-89 -32q-31 0 -51.5 22.5t-20.5 58.5z" />
    <glyph glyph-name="egrave" unicode="&#xe8;" horiz-adv-x="358" 
d="M38 159q0 168 69 249.5t141 81.5q51 0 79 -26t28 -77q0 -88 -75 -139t-164 -51q0 -90 23.5 -120t66.5 -30q27 0 60 14t49 36q3 -3 6.5 -9.5t3.5 -14.5q0 -36 -42.5 -62t-102.5 -26q-63 0 -102.5 42.5t-39.5 131.5zM120 243q68 0 111.5 34.5t43.5 91.5q0 35 -13 50t-35 15
q-33 0 -70 -52.5t-37 -138.5zM307 515q-40 13 -83 57.5t-43 78.5q0 22 16 34t48 12q7 -46 29.5 -99t47.5 -79z" />
    <glyph glyph-name="eacute" unicode="&#xe9;" horiz-adv-x="358" 
d="M38 159q0 168 69 249.5t141 81.5q51 0 79 -26t28 -77q0 -88 -75 -139t-164 -51q0 -90 23.5 -120t66.5 -30q27 0 60 14t49 36q3 -3 6.5 -9.5t3.5 -14.5q0 -36 -42.5 -62t-102.5 -26q-63 0 -102.5 42.5t-39.5 131.5zM120 243q68 0 111.5 34.5t43.5 91.5q0 35 -13 50t-35 15
q-33 0 -70 -52.5t-37 -138.5zM204 519q25 26 48 79t30 99q32 0 47.5 -12t15.5 -34q0 -34 -43 -78.5t-83 -57.5z" />
    <glyph glyph-name="ecircumflex" unicode="&#xea;" horiz-adv-x="358" 
d="M38 159q0 168 69 249.5t141 81.5q51 0 79 -26t28 -77q0 -88 -75 -139t-164 -51q0 -90 23.5 -120t66.5 -30q27 0 60 14t49 36q3 -3 6.5 -9.5t3.5 -14.5q0 -36 -42.5 -62t-102.5 -26q-63 0 -102.5 42.5t-39.5 131.5zM120 243q68 0 111.5 34.5t43.5 91.5q0 35 -13 50t-35 15
q-33 0 -70 -52.5t-37 -138.5zM142 529q-13 7 -21 15t-15 18l142 131l37 6l117 -154l-14 -14q-18 0 -35.5 9.5t-43.5 34.5q-13 13 -26 32t-21 39z" />
    <glyph glyph-name="edieresis" unicode="&#xeb;" horiz-adv-x="358" 
d="M38 159q0 168 69 249.5t141 81.5q51 0 79 -26t28 -77q0 -88 -75 -139t-164 -51q0 -90 23.5 -120t66.5 -30q27 0 60 14t49 36q3 -3 6.5 -9.5t3.5 -14.5q0 -36 -42.5 -62t-102.5 -26q-63 0 -102.5 42.5t-39.5 131.5zM120 243q68 0 111.5 34.5t43.5 91.5q0 35 -13 50t-35 15
q-33 0 -70 -52.5t-37 -138.5zM174 568q-16 0 -25 11.5t-9 31.5t13 35.5t33 15.5q15 0 24.5 -10.5t9.5 -32.5q0 -21 -13 -36t-33 -15zM323 568q-16 0 -25 11.5t-9 31.5t13 35.5t33 15.5q15 0 24.5 -10.5t9.5 -32.5q0 -21 -13 -36t-33 -15z" />
    <glyph glyph-name="igrave" unicode="&#xec;" horiz-adv-x="221" 
d="M52 37q0 21 5 61.5t9 70.5l32 203l5 59l-60 19v19q24 9 48.5 13t51.5 4q13 0 24 -1t21 -5l-45 -294q-3 -22 -5.5 -55t-2.5 -52q0 -25 9.5 -37.5t30.5 -19.5v-17q-16 -7 -34.5 -10.5t-40.5 -3.5q-24 0 -36 12t-12 34zM212 515q-40 13 -83 57.5t-43 78.5q0 22 16 34t48 12
q7 -46 29.5 -99t47.5 -79z" />
    <glyph glyph-name="iacute" unicode="&#xed;" horiz-adv-x="221" 
d="M52 37q0 21 5 61.5t9 70.5l32 203l5 59l-60 19v19q24 9 48.5 13t51.5 4q13 0 24 -1t21 -5l-45 -294q-3 -22 -5.5 -55t-2.5 -52q0 -25 9.5 -37.5t30.5 -19.5v-17q-16 -7 -34.5 -10.5t-40.5 -3.5q-24 0 -36 12t-12 34zM89 519q25 26 48 79t30 99q32 0 47.5 -12t15.5 -34
q0 -34 -43 -78.5t-83 -57.5z" />
    <glyph glyph-name="icircumflex" unicode="&#xee;" horiz-adv-x="221" 
d="M52 37q0 21 5 61.5t9 70.5l32 203l5 59l-60 19v19q24 9 48.5 13t51.5 4q13 0 24 -1t21 -5l-45 -294q-3 -22 -5.5 -55t-2.5 -52q0 -25 9.5 -37.5t30.5 -19.5v-17q-16 -7 -34.5 -10.5t-40.5 -3.5q-24 0 -36 12t-12 34zM44 529q-13 7 -21 15t-15 18l142 131l37 6l117 -154
l-14 -14q-18 0 -35.5 9.5t-43.5 34.5q-13 13 -26 32t-21 39z" />
    <glyph glyph-name="idieresis" unicode="&#xef;" horiz-adv-x="221" 
d="M52 37q0 21 5 61.5t9 70.5l32 203l5 59l-60 19v19q24 9 48.5 13t51.5 4q13 0 24 -1t21 -5l-45 -294q-3 -22 -5.5 -55t-2.5 -52q0 -25 9.5 -37.5t30.5 -19.5v-17q-16 -7 -34.5 -10.5t-40.5 -3.5q-24 0 -36 12t-12 34zM78 568q-16 0 -25 11.5t-9 31.5t13 35.5t33 15.5
q15 0 24.5 -10.5t9.5 -32.5q0 -21 -13 -36t-33 -15zM227 568q-16 0 -25 11.5t-9 31.5t13 35.5t33 15.5q15 0 24.5 -10.5t9.5 -32.5q0 -21 -13 -36t-33 -15z" />
    <glyph glyph-name="eth" unicode="&#xf0;" horiz-adv-x="433" 
d="M39 165q0 157 68.5 241.5t150.5 84.5q13 0 25 -4.5t22 -12.5l1 1q-13 41 -35.5 73.5t-48.5 56.5l-137 -74l-20 35l123 66q-22 14 -44 22t-40 8q-22 0 -45.5 -3.5t-49.5 -12.5q-1 5 -2 11t-1 11q0 21 23.5 35.5t81.5 14.5q34 0 71.5 -12.5t72.5 -37.5l104 56l19 -35
l-90 -49q46 -45 77.5 -120t31.5 -182q0 -166 -68.5 -258.5t-146.5 -92.5q-58 0 -100.5 45t-42.5 133zM200 43q36 0 75.5 64t39.5 197q0 28 -0.5 52.5t-2.5 52.5q-13 12 -31.5 18t-42.5 6q-40 0 -80 -64t-40 -169q0 -85 24.5 -121t57.5 -36z" />
    <glyph glyph-name="ntilde" unicode="&#xf1;" horiz-adv-x="454" 
d="M51 0l50 431l-61 19v19q24 9 47.5 13t51.5 4q10 0 20.5 -1.5t20.5 -5.5l-32 -153h1q34 76 81.5 119t98.5 43q33 0 56 -23t23 -69q0 -24 -5.5 -59t-9.5 -67l-18 -108q-2 -17 -5 -42t-3 -41q0 -25 12 -36.5t35 -15.5v-17q-17 -9 -37 -14t-43 -5t-36 12t-13 34q0 19 4 50.5
t8 55.5l19 115q4 23 7 52t3 49q0 34 -13 47t-31 13q-42 0 -89.5 -72t-50.5 -178l-6 -169h-85zM151 545q-11 9 -18 22.5t-7 30.5q0 24 19 41.5t49 17.5q13 0 28 -4t31 -13l42 -23q13 -8 24.5 -12t22.5 -4q14 0 28 18t15 41q10 -10 17 -23t7 -29q0 -26 -21 -46t-48 -20
q-16 0 -30 3.5t-27 10.5l-44 24q-15 9 -27 13t-22 4q-14 0 -26 -17t-13 -35z" />
    <glyph glyph-name="ograve" unicode="&#xf2;" horiz-adv-x="426" 
d="M39 165q0 157 68.5 241.5t150.5 84.5q60 0 99.5 -41t39.5 -126q0 -158 -70.5 -247.5t-144.5 -89.5q-58 0 -100.5 45t-42.5 133zM200 43q36 0 75.5 64t39.5 197q0 66 -22 97.5t-55 31.5q-40 0 -80 -64t-40 -169q0 -85 24.5 -121t57.5 -36zM310 515q-40 13 -83 57.5
t-43 78.5q0 22 16 34t48 12q7 -46 29.5 -99t47.5 -79z" />
    <glyph glyph-name="oacute" unicode="&#xf3;" horiz-adv-x="426" 
d="M39 165q0 157 68.5 241.5t150.5 84.5q60 0 99.5 -41t39.5 -126q0 -158 -70.5 -247.5t-144.5 -89.5q-58 0 -100.5 45t-42.5 133zM200 43q36 0 75.5 64t39.5 197q0 66 -22 97.5t-55 31.5q-40 0 -80 -64t-40 -169q0 -85 24.5 -121t57.5 -36zM201 519q25 26 48 79t30 99
q32 0 47.5 -12t15.5 -34q0 -34 -43 -78.5t-83 -57.5z" />
    <glyph glyph-name="ocircumflex" unicode="&#xf4;" horiz-adv-x="426" 
d="M39 165q0 157 68.5 241.5t150.5 84.5q60 0 99.5 -41t39.5 -126q0 -158 -70.5 -247.5t-144.5 -89.5q-58 0 -100.5 45t-42.5 133zM200 43q36 0 75.5 64t39.5 197q0 66 -22 97.5t-55 31.5q-40 0 -80 -64t-40 -169q0 -85 24.5 -121t57.5 -36zM157 529q-13 7 -21 15t-15 18
l142 131l37 6l117 -154l-14 -14q-18 0 -35.5 9.5t-43.5 34.5q-13 13 -26 32t-21 39z" />
    <glyph glyph-name="otilde" unicode="&#xf5;" horiz-adv-x="426" 
d="M39 165q0 157 68.5 241.5t150.5 84.5q60 0 99.5 -41t39.5 -126q0 -158 -70.5 -247.5t-144.5 -89.5q-58 0 -100.5 45t-42.5 133zM200 43q36 0 75.5 64t39.5 197q0 66 -22 97.5t-55 31.5q-40 0 -80 -64t-40 -169q0 -85 24.5 -121t57.5 -36zM149 545q-11 9 -18 22.5t-7 30.5
q0 24 19 41.5t49 17.5q13 0 28 -4t31 -13l42 -23q13 -8 24.5 -12t22.5 -4q14 0 28 18t15 41q10 -10 17 -23t7 -29q0 -26 -21 -46t-48 -20q-16 0 -30 3.5t-27 10.5l-44 24q-15 9 -27 13t-22 4q-14 0 -26 -17t-13 -35z" />
    <glyph glyph-name="odieresis" unicode="&#xf6;" horiz-adv-x="426" 
d="M39 165q0 157 68.5 241.5t150.5 84.5q60 0 99.5 -41t39.5 -126q0 -158 -70.5 -247.5t-144.5 -89.5q-58 0 -100.5 45t-42.5 133zM200 43q36 0 75.5 64t39.5 197q0 66 -22 97.5t-55 31.5q-40 0 -80 -64t-40 -169q0 -85 24.5 -121t57.5 -36zM185 568q-16 0 -25 11.5t-9 31.5
t13 35.5t33 15.5q15 0 24.5 -10.5t9.5 -32.5q0 -21 -13 -36t-33 -15zM334 568q-16 0 -25 11.5t-9 31.5t13 35.5t33 15.5q15 0 24.5 -10.5t9.5 -32.5q0 -21 -13 -36t-33 -15z" />
    <glyph glyph-name="divide" unicode="&#xf7;" horiz-adv-x="520" 
d="M273 363q-21 0 -31 12.5t-8 31.5t18 34.5t37 15.5q18 0 28 -13.5t7 -33.5q-1 -17 -17 -32t-34 -15zM44 200l6 51h421l-6 -51h-421zM189 37q2 19 18 34.5t37 15.5q18 0 27.5 -13.5t7.5 -33.5q-2 -18 -18 -33t-34 -15q-21 0 -30.5 13t-7.5 32z" />
    <glyph glyph-name="oslash" unicode="&#xf8;" horiz-adv-x="426" 
d="M122 140l174 255q-10 19 -25 28.5t-33 9.5q-40 0 -80 -64t-40 -169q0 -17 1 -32t3 -28zM135 92q11 -26 28.5 -37.5t36.5 -11.5q36 0 75.5 64t39.5 197q0 13 -1.5 25t-2.5 22zM-11 -56l75 111q-12 21 -18.5 48.5t-6.5 61.5q0 157 68.5 241.5t150.5 84.5q25 0 46.5 -7
t38.5 -20l58 85l32 -17l-65 -95q14 -20 21.5 -48.5t7.5 -64.5q0 -158 -70.5 -247.5t-144.5 -89.5q-26 0 -50 9.5t-43 26.5l-65 -96z" />
    <glyph glyph-name="ugrave" unicode="&#xf9;" horiz-adv-x="437" 
d="M51 81q0 17 4 38t7 37l23 118q5 25 10 61.5t5 59.5q0 25 -12 38t-34 18v17q17 8 36.5 13t42.5 5q24 0 36.5 -12t12.5 -34q0 -25 -7 -68.5t-14 -86.5l-22 -111q-4 -16 -6.5 -38t-2.5 -37q0 -21 9.5 -32t25.5 -11q35 0 84 61.5t58 174.5l11 173q19 8 43 13.5t47 5.5
l-28 -156q-10 -51 -17.5 -112.5t-7.5 -106.5q0 -49 10.5 -63.5t35.5 -18.5v-21q-22 -7 -44.5 -11t-45.5 -4q-12 0 -22 1.5t-19 5.5l27 137h-1q-29 -51 -77 -98.5t-91 -47.5q-33 0 -55 25t-22 67zM317 515q-40 13 -83 57.5t-43 78.5q0 22 16 34t48 12q7 -46 29.5 -99
t47.5 -79z" />
    <glyph glyph-name="uacute" unicode="&#xfa;" horiz-adv-x="437" 
d="M51 81q0 17 4 38t7 37l23 118q5 25 10 61.5t5 59.5q0 25 -12 38t-34 18v17q17 8 36.5 13t42.5 5q24 0 36.5 -12t12.5 -34q0 -25 -7 -68.5t-14 -86.5l-22 -111q-4 -16 -6.5 -38t-2.5 -37q0 -21 9.5 -32t25.5 -11q35 0 84 61.5t58 174.5l11 173q19 8 43 13.5t47 5.5
l-28 -156q-10 -51 -17.5 -112.5t-7.5 -106.5q0 -49 10.5 -63.5t35.5 -18.5v-21q-22 -7 -44.5 -11t-45.5 -4q-12 0 -22 1.5t-19 5.5l27 137h-1q-29 -51 -77 -98.5t-91 -47.5q-33 0 -55 25t-22 67zM205 519q25 26 48 79t30 99q32 0 47.5 -12t15.5 -34q0 -34 -43 -78.5
t-83 -57.5z" />
    <glyph glyph-name="ucircumflex" unicode="&#xfb;" horiz-adv-x="437" 
d="M51 81q0 17 4 38t7 37l23 118q5 25 10 61.5t5 59.5q0 25 -12 38t-34 18v17q17 8 36.5 13t42.5 5q24 0 36.5 -12t12.5 -34q0 -25 -7 -68.5t-14 -86.5l-22 -111q-4 -16 -6.5 -38t-2.5 -37q0 -21 9.5 -32t25.5 -11q35 0 84 61.5t58 174.5l11 173q19 8 43 13.5t47 5.5
l-28 -156q-10 -51 -17.5 -112.5t-7.5 -106.5q0 -49 10.5 -63.5t35.5 -18.5v-21q-22 -7 -44.5 -11t-45.5 -4q-12 0 -22 1.5t-19 5.5l27 137h-1q-29 -51 -77 -98.5t-91 -47.5q-33 0 -55 25t-22 67zM155 529q-13 7 -21 15t-15 18l142 131l37 6l117 -154l-14 -14
q-18 0 -35.5 9.5t-43.5 34.5q-13 13 -26 32t-21 39z" />
    <glyph glyph-name="udieresis" unicode="&#xfc;" horiz-adv-x="437" 
d="M51 81q0 17 4 38t7 37l23 118q5 25 10 61.5t5 59.5q0 25 -12 38t-34 18v17q17 8 36.5 13t42.5 5q24 0 36.5 -12t12.5 -34q0 -25 -7 -68.5t-14 -86.5l-22 -111q-4 -16 -6.5 -38t-2.5 -37q0 -21 9.5 -32t25.5 -11q35 0 84 61.5t58 174.5l11 173q19 8 43 13.5t47 5.5
l-28 -156q-10 -51 -17.5 -112.5t-7.5 -106.5q0 -49 10.5 -63.5t35.5 -18.5v-21q-22 -7 -44.5 -11t-45.5 -4q-12 0 -22 1.5t-19 5.5l27 137h-1q-29 -51 -77 -98.5t-91 -47.5q-33 0 -55 25t-22 67zM182 568q-16 0 -25 11.5t-9 31.5t13 35.5t33 15.5q15 0 24.5 -10.5t9.5 -32.5
q0 -21 -13 -36t-33 -15zM331 568q-16 0 -25 11.5t-9 31.5t13 35.5t33 15.5q15 0 24.5 -10.5t9.5 -32.5q0 -21 -13 -36t-33 -15z" />
    <glyph glyph-name="yacute" unicode="&#xfd;" horiz-adv-x="365" 
d="M107 -42l14 34l-66 440l-44 18v21q23 8 41.5 12t40.5 4q10 0 20.5 -2t20.5 -5l45 -405h1q43 75 76.5 175.5t33.5 148.5q0 21 -9.5 34.5t-25.5 22.5v16q13 7 29 11t34 4q25 0 38.5 -14.5t13.5 -45.5q0 -33 -22 -97.5t-67 -151.5l-113 -221q-54 -107 -111.5 -153.5
t-108.5 -46.5q-37 0 -57.5 14.5t-20.5 37.5q0 8 1.5 18.5t5.5 17.5q20 -11 44 -15.5t49 -4.5q34 0 71 31.5t66 101.5zM172 519q25 26 48 79t30 99q32 0 47.5 -12t15.5 -34q0 -34 -43 -78.5t-83 -57.5z" />
    <glyph glyph-name="thorn" unicode="&#xfe;" horiz-adv-x="428" 
d="M120 48q15 -4 29.5 -5t27.5 -1q52 0 97 62.5t45 187.5q0 73 -15.5 101.5t-34.5 28.5q-31 0 -71.5 -57.5t-54.5 -164.5zM111 9l-14 -143q-4 -42 5 -59t30 -23v-17q-19 -7 -37.5 -9.5t-40.5 -2.5q-13 0 -26.5 1.5t-23.5 4.5l18 84l109 820l-60 19v19q24 8 46 12t52 4
q13 0 24.5 -1.5t21.5 -4.5l-63 -387h1q25 73 69 119t82 46q36 0 64 -41t28 -125q0 -166 -71.5 -249.5t-146.5 -83.5q-20 0 -35 3.5t-32 13.5z" />
    <glyph glyph-name="ydieresis" unicode="&#xff;" horiz-adv-x="365" 
d="M107 -42l14 34l-66 440l-44 18v21q23 8 41.5 12t40.5 4q10 0 20.5 -2t20.5 -5l45 -405h1q43 75 76.5 175.5t33.5 148.5q0 21 -9.5 34.5t-25.5 22.5v16q13 7 29 11t34 4q25 0 38.5 -14.5t13.5 -45.5q0 -33 -22 -97.5t-67 -151.5l-113 -221q-54 -107 -111.5 -153.5
t-108.5 -46.5q-37 0 -57.5 14.5t-20.5 37.5q0 8 1.5 18.5t5.5 17.5q20 -11 44 -15.5t49 -4.5q34 0 71 31.5t66 101.5zM142 568q-16 0 -25 11.5t-9 31.5t13 35.5t33 15.5q15 0 24.5 -10.5t9.5 -32.5q0 -21 -13 -36t-33 -15zM291 568q-16 0 -25 11.5t-9 31.5t13 35.5t33 15.5
q15 0 24.5 -10.5t9.5 -32.5q0 -21 -13 -36t-33 -15z" />
    <glyph glyph-name="Amacron" unicode="&#x100;" horiz-adv-x="472" 
d="M31 -8q-18 0 -35 3t-33 7v17q15 4 29.5 17t21.5 31l238 536q4 8 5.5 17t1.5 16l81 11l83 -607l51 -13v-20q-19 -7 -39.5 -11t-46.5 -4q-25 0 -46.5 2.5t-42.5 7.5v17q18 5 26.5 17.5t6.5 37.5l-14 144h-173l-74 -180l55 -11v-20q-19 -7 -45 -11t-50 -4zM165 265l145 4
l-30 271h-1zM180 726v55h266v-55h-266z" />
    <glyph glyph-name="amacron" unicode="&#x101;" horiz-adv-x="427" 
d="M164 55q32 0 69.5 51t54.5 153l28 166q-10 3 -25.5 4.5t-26.5 1.5q-60 0 -105 -64t-45 -191q0 -63 16 -92t34 -29zM128 -14q-35 0 -63 45t-28 131q0 154 76.5 239.5t177.5 85.5q24 0 55 -4.5t56 -11.5l-35 -175q-9 -39 -15.5 -97.5t-7.5 -90.5q0 -48 11 -62.5t37 -18.5
v-21q-19 -7 -42.5 -11t-46.5 -4q-12 0 -22 2t-20 5l23 149h-1q-29 -74 -72 -117.5t-83 -43.5zM154 577v55h266v-55h-266z" />
    <glyph glyph-name="Abreve" unicode="&#x102;" horiz-adv-x="472" 
d="M31 -8q-18 0 -35 3t-33 7v17q15 4 29.5 17t21.5 31l238 536q4 8 5.5 17t1.5 16l81 11l83 -607l51 -13v-20q-19 -7 -39.5 -11t-46.5 -4q-25 0 -46.5 2.5t-42.5 7.5v17q18 5 26.5 17.5t6.5 37.5l-14 144h-173l-74 -180l55 -11v-20q-19 -7 -45 -11t-50 -4zM165 265l145 4
l-30 271h-1zM300 674q-39 0 -78 32.5t-68 98.5q13 11 24 18t31 14q22 -59 47.5 -84t49.5 -25q30 0 63.5 31t58.5 81q13 -7 21.5 -16t15.5 -21q-28 -57 -77.5 -93t-87.5 -36z" />
    <glyph glyph-name="abreve" unicode="&#x103;" horiz-adv-x="427" 
d="M164 55q32 0 69.5 51t54.5 153l28 166q-10 3 -25.5 4.5t-26.5 1.5q-60 0 -105 -64t-45 -191q0 -63 16 -92t34 -29zM128 -14q-35 0 -63 45t-28 131q0 154 76.5 239.5t177.5 85.5q24 0 55 -4.5t56 -11.5l-35 -175q-9 -39 -15.5 -97.5t-7.5 -90.5q0 -48 11 -62.5t37 -18.5
v-21q-19 -7 -42.5 -11t-46.5 -4q-12 0 -22 2t-20 5l23 149h-1q-29 -74 -72 -117.5t-83 -43.5zM281 526q-39 0 -78 32.5t-68 98.5q13 11 24 18t31 14q22 -59 47.5 -84t49.5 -25q30 0 63.5 31t58.5 81q13 -7 21.5 -16t15.5 -21q-28 -57 -77.5 -93t-87.5 -36z" />
    <glyph glyph-name="Aogonek" unicode="&#x104;" horiz-adv-x="472" 
d="M31 -8q-18 0 -35 3t-33 7v17q15 4 29.5 17t21.5 31l238 536q4 8 5.5 17t1.5 16l81 11l83 -607l51 -13v-20q-15 -6 -31.5 -9.5t-35.5 -4.5l-44 -49q-13 -14 -20.5 -30t-7.5 -32q0 -22 12.5 -35.5t34.5 -13.5q18 0 37 5t38 15q0 -28 -25.5 -47t-63.5 -19q-42 0 -68.5 22.5
t-26.5 58.5q0 24 13 46.5t38 42.5l44 35q-19 1 -36 3.5t-33 6.5v17q18 5 26.5 17.5t6.5 37.5l-14 144h-173l-74 -180l55 -11v-20q-19 -7 -45 -11t-50 -4zM165 265l145 4l-30 271h-1z" />
    <glyph glyph-name="aogonek" unicode="&#x105;" horiz-adv-x="427" 
d="M128 -14q-35 0 -63 45t-28 131q0 154 76.5 239.5t177.5 85.5q24 0 55 -4.5t56 -11.5l-35 -175q-9 -39 -15.5 -97.5t-7.5 -90.5q0 -48 11 -62.5t37 -18.5v-21q-16 -5 -35.5 -9t-38.5 -5l-43 -48q-13 -14 -20.5 -30t-7.5 -32q0 -22 12.5 -35.5t34.5 -13.5q18 0 37 5t38 15
q0 -28 -25.5 -47t-63.5 -19q-42 0 -68.5 22.5t-26.5 58.5q0 24 13 46.5t38 42.5l45 36l-20 5l23 149h-1q-29 -74 -72 -117.5t-83 -43.5zM164 55q32 0 69.5 51t54.5 153l28 166q-10 3 -25.5 4.5t-26.5 1.5q-60 0 -105 -64t-45 -191q0 -63 16 -92t34 -29z" />
    <glyph glyph-name="Cacute" unicode="&#x106;" horiz-adv-x="460" 
d="M45 221q0 214 93.5 320t200.5 106q38 0 65 -4t55 -14l-19 -128h-26l-5 24q-7 37 -27 52.5t-56 15.5q-65 0 -129.5 -87.5t-64.5 -271.5q0 -98 35.5 -146t84.5 -48q46 0 73 16.5t46 57.5l10 25h28l-16 -122q-34 -16 -71.5 -24t-86.5 -8q-84 0 -137 57t-53 179zM267 668
q25 26 48 79t30 99q32 0 47.5 -12t15.5 -34q0 -34 -43 -78.5t-83 -57.5z" />
    <glyph glyph-name="cacute" unicode="&#x107;" horiz-adv-x="335" 
d="M164 -17q-54 0 -90 44.5t-36 134.5q0 165 65.5 246.5t143.5 81.5q45 0 66 -14t21 -34q0 -19 -6 -36.5t-17 -33.5q-16 28 -38 43t-48 15q-35 0 -72.5 -61t-37.5 -192q0 -69 23 -100.5t50 -31.5t54.5 17.5t47.5 42.5q4 -4 6.5 -11t2.5 -16q0 -37 -34.5 -66t-100.5 -29z
M174 519q25 26 48 79t30 99q32 0 47.5 -12t15.5 -34q0 -34 -43 -78.5t-83 -57.5z" />
    <glyph glyph-name="Ccircumflex" unicode="&#x108;" horiz-adv-x="460" 
d="M45 221q0 214 93.5 320t200.5 106q38 0 65 -4t55 -14l-19 -128h-26l-5 24q-7 37 -27 52.5t-56 15.5q-65 0 -129.5 -87.5t-64.5 -271.5q0 -98 35.5 -146t84.5 -48q46 0 73 16.5t46 57.5l10 25h28l-16 -122q-34 -16 -71.5 -24t-86.5 -8q-84 0 -137 57t-53 179zM218 677
q-13 7 -21 15t-15 18l142 131l37 6l117 -154l-14 -14q-18 0 -35.5 9.5t-43.5 34.5q-13 13 -26 32t-21 39z" />
    <glyph glyph-name="ccircumflex" unicode="&#x109;" horiz-adv-x="335" 
d="M164 -17q-54 0 -90 44.5t-36 134.5q0 165 65.5 246.5t143.5 81.5q45 0 66 -14t21 -34q0 -19 -6 -36.5t-17 -33.5q-16 28 -38 43t-48 15q-35 0 -72.5 -61t-37.5 -192q0 -69 23 -100.5t50 -31.5t54.5 17.5t47.5 42.5q4 -4 6.5 -11t2.5 -16q0 -37 -34.5 -66t-100.5 -29z
M131 529q-13 7 -21 15t-15 18l142 131l37 6l117 -154l-14 -14q-18 0 -35.5 9.5t-43.5 34.5q-13 13 -26 32t-21 39z" />
    <glyph glyph-name="Cdotaccent" unicode="&#x10a;" horiz-adv-x="460" 
d="M45 221q0 214 93.5 320t200.5 106q38 0 65 -4t55 -14l-19 -128h-26l-5 24q-7 37 -27 52.5t-56 15.5q-65 0 -129.5 -87.5t-64.5 -271.5q0 -98 35.5 -146t84.5 -48q46 0 73 16.5t46 57.5l10 25h28l-16 -122q-34 -16 -71.5 -24t-86.5 -8q-84 0 -137 57t-53 179zM345 708
q-16 0 -25 10.5t-9 28.5q0 20 13 35t31 15q15 0 24 -11.5t9 -30.5q0 -20 -13.5 -33.5t-29.5 -13.5z" />
    <glyph glyph-name="cdotaccent" unicode="&#x10b;" horiz-adv-x="335" 
d="M164 -17q-54 0 -90 44.5t-36 134.5q0 165 65.5 246.5t143.5 81.5q45 0 66 -14t21 -34q0 -19 -6 -36.5t-17 -33.5q-16 28 -38 43t-48 15q-35 0 -72.5 -61t-37.5 -192q0 -69 23 -100.5t50 -31.5t54.5 17.5t47.5 42.5q4 -4 6.5 -11t2.5 -16q0 -37 -34.5 -66t-100.5 -29z
M250 560q-16 0 -25 10.5t-9 28.5q0 20 13 35t31 15q15 0 24 -11.5t9 -30.5q0 -20 -13.5 -33.5t-29.5 -13.5z" />
    <glyph glyph-name="Ccaron" unicode="&#x10c;" horiz-adv-x="460" 
d="M45 221q0 214 93.5 320t200.5 106q38 0 65 -4t55 -14l-19 -128h-26l-5 24q-7 37 -27 52.5t-56 15.5q-65 0 -129.5 -87.5t-64.5 -271.5q0 -98 35.5 -146t84.5 -48q46 0 73 16.5t46 57.5l10 25h28l-16 -122q-34 -16 -71.5 -24t-86.5 -8q-84 0 -137 57t-53 179zM313 672
l-116 143q14 11 27 18t32 13l85 -120l119 119q13 -7 21.5 -14t17.5 -18l-146 -134z" />
    <glyph glyph-name="ccaron" unicode="&#x10d;" horiz-adv-x="335" 
d="M164 -17q-54 0 -90 44.5t-36 134.5q0 165 65.5 246.5t143.5 81.5q45 0 66 -14t21 -34q0 -19 -6 -36.5t-17 -33.5q-16 28 -38 43t-48 15q-35 0 -72.5 -61t-37.5 -192q0 -69 23 -100.5t50 -31.5t54.5 17.5t47.5 42.5q4 -4 6.5 -11t2.5 -16q0 -37 -34.5 -66t-100.5 -29z
M212 524l-116 143q14 11 27 18t32 13l85 -120l119 119q13 -7 21.5 -14t17.5 -18l-146 -134z" />
    <glyph glyph-name="Dcaron" unicode="&#x10e;" horiz-adv-x="562" 
d="M25 2v17q16 7 26.5 20t13.5 39l59 511l-56 16v22q49 8 92 11.5t102 3.5q128 0 204 -64.5t76 -185.5q0 -185 -115.5 -292.5t-274.5 -107.5q-47 0 -74.5 2.5t-52.5 7.5zM140 50q10 -1 22 -2t22 -1q102 0 186 87t84 243q0 110 -56.5 162.5t-141.5 52.5q-14 0 -26.5 -1
t-26.5 -2zM289 672l-116 143q14 11 27 18t32 13l85 -120l119 119q13 -7 21.5 -14t17.5 -18l-146 -134z" />
    <glyph glyph-name="dcaron" unicode="&#x10f;" horiz-adv-x="428" 
d="M164 55q30 0 69 50.5t55 154.5l28 166q-10 2 -23 3.5t-25 1.5q-62 0 -108 -61.5t-46 -193.5q0 -62 15.5 -91.5t34.5 -29.5zM128 -14q-34 0 -62.5 44.5t-28.5 131.5q0 150 74.5 237.5t174.5 87.5q9 0 19.5 -0.5t18.5 -1.5l29 180l-66 19v19q23 8 48.5 12t57.5 4
q13 0 24.5 -1.5t21.5 -4.5l-73 -414q-5 -31 -13.5 -97t-8.5 -94q0 -49 11.5 -63t36.5 -18v-21q-23 -7 -43.5 -11t-45.5 -4q-13 0 -23 2t-19 5l25 151h-1q-28 -69 -71 -116t-86 -47zM511 690q21 0 34 -13.5t13 -35.5q0 -43 -31 -82.5t-50 -39.5q-5 0 -9 1.5t-8 4.5
q12 19 18 40.5t6 47.5l-30 38q10 18 25.5 28.5t31.5 10.5z" />
    <glyph glyph-name="Dcroat" unicode="&#x110;" horiz-adv-x="562" 
d="M25 2v17q16 7 26.5 20t13.5 39l26 226h-76v39h80l29 246l-56 16v22q49 8 92 11.5t102 3.5q128 0 204 -64.5t76 -185.5q0 -185 -115.5 -292.5t-274.5 -107.5q-47 0 -74.5 2.5t-52.5 7.5zM140 50q10 -1 22 -2t22 -1q102 0 186 87t84 243q0 110 -56.5 162.5t-141.5 52.5
q-14 0 -26.5 -1t-26.5 -2l-29 -246h112v-39h-117z" />
    <glyph glyph-name="dcroat" unicode="&#x111;" horiz-adv-x="428" 
d="M164 55q30 0 69 50.5t55 154.5l28 166q-10 2 -23 3.5t-25 1.5q-62 0 -108 -61.5t-46 -193.5q0 -62 15.5 -91.5t34.5 -29.5zM128 -14q-34 0 -62.5 44.5t-28.5 131.5q0 150 74.5 237.5t174.5 87.5q9 0 19.5 -0.5t18.5 -1.5l13 83q-31 -1 -65.5 -3.5t-69.5 -4.5
q0 24 11.5 37.5t57.5 13.5q8 0 29 0.5t44 1.5l9 52l-66 19v19q23 8 48.5 12t57.5 4q13 0 24.5 -1.5t21.5 -4.5l-18 -97q18 1 35.5 2t36.5 2q0 -25 -12 -37.5t-57 -12.5h-11l-47 -271q-5 -31 -13.5 -97t-8.5 -94q0 -49 11.5 -63t36.5 -18v-21q-23 -7 -43.5 -11t-45.5 -4
q-13 0 -23 2t-19 5l25 151h-1q-28 -69 -71 -116t-86 -47z" />
    <glyph glyph-name="Emacron" unicode="&#x112;" horiz-adv-x="420" 
d="M25 0v21q16 4 26 15.5t13 35.5l61 519l-57 17v28h357l-17 -134h-28l-2 19q-3 31 -20 46.5t-47 15.5h-108l-29 -237h113q25 0 39 10.5t20 29.5l5 15h28l-19 -173h-28l-1 17q-1 28 -12.5 39.5t-32.5 11.5h-118l-28 -243h122q37 0 60 12.5t34 35.5l9 21h29l-28 -122h-341z
M140 726v55h266v-55h-266z" />
    <glyph glyph-name="emacron" unicode="&#x113;" horiz-adv-x="358" 
d="M38 159q0 168 69 249.5t141 81.5q51 0 79 -26t28 -77q0 -88 -75 -139t-164 -51q0 -90 23.5 -120t66.5 -30q27 0 60 14t49 36q3 -3 6.5 -9.5t3.5 -14.5q0 -36 -42.5 -62t-102.5 -26q-63 0 -102.5 42.5t-39.5 131.5zM120 243q68 0 111.5 34.5t43.5 91.5q0 35 -13 50t-35 15
q-33 0 -70 -52.5t-37 -138.5zM121 577v55h266v-55h-266z" />
    <glyph glyph-name="Ebreve" unicode="&#x114;" horiz-adv-x="420" 
d="M25 0v21q16 4 26 15.5t13 35.5l61 519l-57 17v28h357l-17 -134h-28l-2 19q-3 31 -20 46.5t-47 15.5h-108l-29 -237h113q25 0 39 10.5t20 29.5l5 15h28l-19 -173h-28l-1 17q-1 28 -12.5 39.5t-32.5 11.5h-118l-28 -243h122q37 0 60 12.5t34 35.5l9 21h29l-28 -122h-341z
M267 674q-39 0 -78 32.5t-68 98.5q13 11 24 18t31 14q22 -59 47.5 -84t49.5 -25q30 0 63.5 31t58.5 81q13 -7 21.5 -16t15.5 -21q-28 -57 -77.5 -93t-87.5 -36z" />
    <glyph glyph-name="ebreve" unicode="&#x115;" horiz-adv-x="358" 
d="M38 159q0 168 69 249.5t141 81.5q51 0 79 -26t28 -77q0 -88 -75 -139t-164 -51q0 -90 23.5 -120t66.5 -30q27 0 60 14t49 36q3 -3 6.5 -9.5t3.5 -14.5q0 -36 -42.5 -62t-102.5 -26q-63 0 -102.5 42.5t-39.5 131.5zM120 243q68 0 111.5 34.5t43.5 91.5q0 35 -13 50t-35 15
q-33 0 -70 -52.5t-37 -138.5zM252 526q-39 0 -78 32.5t-68 98.5q13 11 24 18t31 14q22 -59 47.5 -84t49.5 -25q30 0 63.5 31t58.5 81q13 -7 21.5 -16t15.5 -21q-28 -57 -77.5 -93t-87.5 -36z" />
    <glyph glyph-name="Edotaccent" unicode="&#x116;" horiz-adv-x="420" 
d="M25 0v21q16 4 26 15.5t13 35.5l61 519l-57 17v28h357l-17 -134h-28l-2 19q-3 31 -20 46.5t-47 15.5h-108l-29 -237h113q25 0 39 10.5t20 29.5l5 15h28l-19 -173h-28l-1 17q-1 28 -12.5 39.5t-32.5 11.5h-118l-28 -243h122q37 0 60 12.5t34 35.5l9 21h29l-28 -122h-341z
M284 708q-16 0 -25 10.5t-9 28.5q0 20 13 35t31 15q15 0 24 -11.5t9 -30.5q0 -20 -13.5 -33.5t-29.5 -13.5z" />
    <glyph glyph-name="edotaccent" unicode="&#x117;" horiz-adv-x="358" 
d="M38 159q0 168 69 249.5t141 81.5q51 0 79 -26t28 -77q0 -88 -75 -139t-164 -51q0 -90 23.5 -120t66.5 -30q27 0 60 14t49 36q3 -3 6.5 -9.5t3.5 -14.5q0 -36 -42.5 -62t-102.5 -26q-63 0 -102.5 42.5t-39.5 131.5zM120 243q68 0 111.5 34.5t43.5 91.5q0 35 -13 50t-35 15
q-33 0 -70 -52.5t-37 -138.5zM257 560q-16 0 -25 10.5t-9 28.5q0 20 13 35t31 15q15 0 24 -11.5t9 -30.5q0 -20 -13.5 -33.5t-29.5 -13.5z" />
    <glyph glyph-name="Eogonek" unicode="&#x118;" horiz-adv-x="420" 
d="M25 0v21q16 4 26 15.5t13 35.5l61 519l-57 17v28h357l-17 -134h-28l-2 19q-3 31 -20 46.5t-47 15.5h-108l-29 -237h113q25 0 39 10.5t20 29.5l5 15h28l-19 -173h-28l-1 17q-1 28 -12.5 39.5t-32.5 11.5h-118l-28 -243h122q37 0 60 12.5t34 35.5l9 21h29l-28 -122h-60
l-51 -56q-13 -14 -20.5 -30t-7.5 -32q0 -22 12.5 -35.5t34.5 -13.5q18 0 37 5t38 15q0 -28 -25.5 -47t-63.5 -19q-42 0 -68.5 22.5t-26.5 58.5q0 24 13 46.5t38 42.5l54 43h-245z" />
    <glyph glyph-name="eogonek" unicode="&#x119;" horiz-adv-x="358" 
d="M152 -43l35 28h-7q-63 0 -102.5 42.5t-39.5 131.5q0 168 69 249.5t141 81.5q51 0 79 -26t28 -77q0 -88 -75 -139t-164 -51q0 -90 23.5 -120t66.5 -30q27 0 60 14t49 36q3 -3 6.5 -9.5t3.5 -14.5q0 -28 -25.5 -50t-65.5 -31l-43 -48q-13 -14 -20.5 -30t-7.5 -32
q0 -22 12.5 -35.5t34.5 -13.5q18 0 37 5t38 15q0 -28 -25.5 -47t-63.5 -19q-42 0 -68.5 22.5t-26.5 58.5q0 24 13 46.5t38 42.5zM120 243q68 0 111.5 34.5t43.5 91.5q0 35 -13 50t-35 15q-33 0 -70 -52.5t-37 -138.5z" />
    <glyph glyph-name="Ecaron" unicode="&#x11a;" horiz-adv-x="420" 
d="M25 0v21q16 4 26 15.5t13 35.5l61 519l-57 17v28h357l-17 -134h-28l-2 19q-3 31 -20 46.5t-47 15.5h-108l-29 -237h113q25 0 39 10.5t20 29.5l5 15h28l-19 -173h-28l-1 17q-1 28 -12.5 39.5t-32.5 11.5h-118l-28 -243h122q37 0 60 12.5t34 35.5l9 21h29l-28 -122h-341z
M258 673l-116 143q14 11 27 18t32 13l85 -120l119 119q13 -7 21.5 -14t17.5 -18l-146 -134z" />
    <glyph glyph-name="ecaron" unicode="&#x11b;" horiz-adv-x="358" 
d="M38 159q0 168 69 249.5t141 81.5q51 0 79 -26t28 -77q0 -88 -75 -139t-164 -51q0 -90 23.5 -120t66.5 -30q27 0 60 14t49 36q3 -3 6.5 -9.5t3.5 -14.5q0 -36 -42.5 -62t-102.5 -26q-63 0 -102.5 42.5t-39.5 131.5zM120 243q68 0 111.5 34.5t43.5 91.5q0 35 -13 50t-35 15
q-33 0 -70 -52.5t-37 -138.5zM228 524l-116 143q14 11 27 18t32 13l85 -120l119 119q13 -7 21.5 -14t17.5 -18l-146 -134z" />
    <glyph glyph-name="Gcircumflex" unicode="&#x11c;" horiz-adv-x="503" 
d="M45 220q0 218 98 322.5t212 104.5q42 0 72.5 -4t67.5 -14l-22 -128h-26l-5 24q-7 36 -29 52t-68 16q-80 0 -146.5 -88t-66.5 -272q0 -98 36.5 -145.5t87.5 -47.5q26 0 52 4.5t50 13.5l22 206l-55 13v21q22 8 44.5 11.5t50.5 3.5q22 0 38.5 -2.5t29.5 -7.5v-17
q-12 -4 -22 -16t-11 -25l-28 -256q-22 0 -36.5 7t-23.5 20q-28 -16 -57.5 -23.5t-72.5 -7.5q-85 0 -138.5 56.5t-53.5 178.5zM253 677q-13 7 -21 15t-15 18l142 131l37 6l117 -154l-14 -14q-18 0 -35.5 9.5t-43.5 34.5q-13 13 -26 32t-21 39z" />
    <glyph glyph-name="gcircumflex" unicode="&#x11d;" horiz-adv-x="421" 
d="M166 55q31 0 70 52t54 159l23 160q-12 3 -24.5 4t-25.5 1q-57 0 -102.5 -63.5t-45.5 -191.5q0 -64 16 -92.5t35 -28.5zM61 -70q-15 -16 -21 -31.5t-6 -33.5q0 -29 22.5 -47.5t64.5 -18.5q54 0 94.5 41.5t50.5 128.5l19 176h-1q-28 -71 -71.5 -114.5t-83.5 -43.5
q-33 0 -62 44t-29 134q0 143 74 232.5t175 89.5q29 0 60 -4.5t56 -11.5l-39 -192q-7 -36 -11 -99.5t-4 -102.5q0 -170 -72.5 -247.5t-171.5 -77.5q-67 0 -105 26t-38 66q0 36 31 61t68 25zM167 529q-13 7 -21 15t-15 18l142 131l37 6l117 -154l-14 -14q-18 0 -35.5 9.5
t-43.5 34.5q-13 13 -26 32t-21 39z" />
    <glyph glyph-name="Gbreve" unicode="&#x11e;" horiz-adv-x="503" 
d="M45 220q0 218 98 322.5t212 104.5q42 0 72.5 -4t67.5 -14l-22 -128h-26l-5 24q-7 36 -29 52t-68 16q-80 0 -146.5 -88t-66.5 -272q0 -98 36.5 -145.5t87.5 -47.5q26 0 52 4.5t50 13.5l22 206l-55 13v21q22 8 44.5 11.5t50.5 3.5q22 0 38.5 -2.5t29.5 -7.5v-17
q-12 -4 -22 -16t-11 -25l-28 -256q-22 0 -36.5 7t-23.5 20q-28 -16 -57.5 -23.5t-72.5 -7.5q-85 0 -138.5 56.5t-53.5 178.5zM357 674q-39 0 -78 32.5t-68 98.5q13 11 24 18t31 14q22 -59 47.5 -84t49.5 -25q30 0 63.5 31t58.5 81q13 -7 21.5 -16t15.5 -21
q-28 -57 -77.5 -93t-87.5 -36z" />
    <glyph glyph-name="gbreve" unicode="&#x11f;" horiz-adv-x="421" 
d="M166 55q31 0 70 52t54 159l23 160q-12 3 -24.5 4t-25.5 1q-57 0 -102.5 -63.5t-45.5 -191.5q0 -64 16 -92.5t35 -28.5zM61 -70q-15 -16 -21 -31.5t-6 -33.5q0 -29 22.5 -47.5t64.5 -18.5q54 0 94.5 41.5t50.5 128.5l19 176h-1q-28 -71 -71.5 -114.5t-83.5 -43.5
q-33 0 -62 44t-29 134q0 143 74 232.5t175 89.5q29 0 60 -4.5t56 -11.5l-39 -192q-7 -36 -11 -99.5t-4 -102.5q0 -170 -72.5 -247.5t-171.5 -77.5q-67 0 -105 26t-38 66q0 36 31 61t68 25zM280 526q-39 0 -78 32.5t-68 98.5q13 11 24 18t31 14q22 -59 47.5 -84t49.5 -25
q30 0 63.5 31t58.5 81q13 -7 21.5 -16t15.5 -21q-28 -57 -77.5 -93t-87.5 -36z" />
    <glyph glyph-name="Gdotaccent" unicode="&#x120;" horiz-adv-x="503" 
d="M45 220q0 218 98 322.5t212 104.5q42 0 72.5 -4t67.5 -14l-22 -128h-26l-5 24q-7 36 -29 52t-68 16q-80 0 -146.5 -88t-66.5 -272q0 -98 36.5 -145.5t87.5 -47.5q26 0 52 4.5t50 13.5l22 206l-55 13v21q22 8 44.5 11.5t50.5 3.5q22 0 38.5 -2.5t29.5 -7.5v-17
q-12 -4 -22 -16t-11 -25l-28 -256q-22 0 -36.5 7t-23.5 20q-28 -16 -57.5 -23.5t-72.5 -7.5q-85 0 -138.5 56.5t-53.5 178.5zM352 708q-16 0 -25 10.5t-9 28.5q0 20 13 35t31 15q15 0 24 -11.5t9 -30.5q0 -20 -13.5 -33.5t-29.5 -13.5z" />
    <glyph glyph-name="gdotaccent" unicode="&#x121;" horiz-adv-x="421" 
d="M166 55q31 0 70 52t54 159l23 160q-12 3 -24.5 4t-25.5 1q-57 0 -102.5 -63.5t-45.5 -191.5q0 -64 16 -92.5t35 -28.5zM61 -70q-15 -16 -21 -31.5t-6 -33.5q0 -29 22.5 -47.5t64.5 -18.5q54 0 94.5 41.5t50.5 128.5l19 176h-1q-28 -71 -71.5 -114.5t-83.5 -43.5
q-33 0 -62 44t-29 134q0 143 74 232.5t175 89.5q29 0 60 -4.5t56 -11.5l-39 -192q-7 -36 -11 -99.5t-4 -102.5q0 -170 -72.5 -247.5t-171.5 -77.5q-67 0 -105 26t-38 66q0 36 31 61t68 25zM281 560q-16 0 -25 10.5t-9 28.5q0 20 13 35t31 15q15 0 24 -11.5t9 -30.5
q0 -20 -13.5 -33.5t-29.5 -13.5z" />
    <glyph glyph-name="Gcommaaccent" unicode="&#x122;" horiz-adv-x="503" 
d="M45 220q0 218 98 322.5t212 104.5q42 0 72.5 -4t67.5 -14l-22 -128h-26l-5 24q-7 36 -29 52t-68 16q-80 0 -146.5 -88t-66.5 -272q0 -98 36.5 -145.5t87.5 -47.5q26 0 52 4.5t50 13.5l22 206l-55 13v21q22 8 44.5 11.5t50.5 3.5q22 0 38.5 -2.5t29.5 -7.5v-17
q-12 -4 -22 -16t-11 -25l-28 -256q-22 0 -36.5 7t-23.5 20q-28 -16 -57.5 -23.5t-72.5 -7.5q-85 0 -138.5 56.5t-53.5 178.5zM253 -51q21 0 34 -13.5t13 -35.5q0 -43 -31 -82.5t-50 -39.5q-5 0 -9 1.5t-8 4.5q12 19 18 40.5t6 47.5l-30 38q10 18 25.5 28.5t31.5 10.5z" />
    <glyph glyph-name="gcommaaccent" unicode="&#x123;" horiz-adv-x="421" 
d="M275 516q-21 0 -34 13.5t-13 35.5q0 43 31 82.5t50 39.5q5 0 9 -1.5t8 -4.5q-12 -19 -18 -40.5t-6 -47.5l30 -38q-10 -18 -25.5 -28.5t-31.5 -10.5zM166 55q31 0 70 52t54 159l23 160q-12 3 -24.5 4t-25.5 1q-57 0 -102.5 -63.5t-45.5 -191.5q0 -64 16 -92.5t35 -28.5z
M61 -70q-15 -16 -21 -31.5t-6 -33.5q0 -29 22.5 -47.5t64.5 -18.5q54 0 94.5 41.5t50.5 128.5l19 176h-1q-28 -71 -71.5 -114.5t-83.5 -43.5q-33 0 -62 44t-29 134q0 143 74 232.5t175 89.5q29 0 60 -4.5t56 -11.5l-39 -192q-7 -36 -11 -99.5t-4 -102.5q0 -170 -72.5 -247.5
t-171.5 -77.5q-67 0 -105 26t-38 66q0 36 31 61t68 25z" />
    <glyph glyph-name="Hcircumflex" unicode="&#x124;" horiz-adv-x="567" 
d="M25 2v17q13 5 25 16.5t13 27.5l61 528l-56 16v20q22 8 43.5 11.5t48.5 3.5q22 0 42 -2.5t36 -7.5v-17q-14 -5 -25 -16t-12 -27l-26 -221l245 8l25 232l-55 16v20q22 8 43 11.5t48 3.5q22 0 42.5 -2.5t36.5 -7.5v-17q-14 -5 -25.5 -16t-12.5 -27l-61 -529l57 -16v-20
q-22 -7 -43.5 -11t-48.5 -4q-22 0 -42 3t-36 7v17q13 5 24.5 16.5t12.5 27.5l27 237h-243l-30 -257l56 -16v-20q-22 -7 -43 -11t-48 -4q-22 0 -42.5 3t-36.5 7zM209 686q-13 7 -21 15t-15 18l142 131l37 6l117 -154l-14 -14q-18 0 -35.5 9.5t-43.5 34.5q-13 13 -26 32
t-21 39z" />
    <glyph glyph-name="hcircumflex" unicode="&#x125;" horiz-adv-x="449" 
d="M47 0l42 325l33 340l-62 19v19q24 8 50.5 12t51.5 4q13 0 24.5 -1.5t21.5 -4.5l-53 -366h1q31 64 75 102.5t93 38.5q37 0 58 -25.5t21 -66.5q0 -25 -5 -60t-10 -66l-18 -105q-3 -18 -5.5 -44t-2.5 -42q0 -25 11.5 -36.5t35.5 -15.5v-17q-17 -9 -37 -14t-43 -5t-36 12
t-13 34q0 19 4.5 52t8.5 58l18 111q4 22 7 53t3 48q0 33 -13 46.5t-32 13.5q-37 0 -81.5 -60.5t-51.5 -167.5l-12 -191h-84zM155 723q-13 7 -21 15t-15 18l142 131l37 6l117 -154l-14 -14q-18 0 -35.5 9.5t-43.5 34.5q-13 13 -26 32t-21 39z" />
    <glyph glyph-name="Hbar" unicode="&#x126;" horiz-adv-x="567" 
d="M25 2v17q13 5 25 16.5t13 27.5l47 408h-1l-34 -2t-35 -2q-1 4 -2 10t-1 12q0 13 14 17t62 4h1l10 81l-56 16v20q22 8 43.5 11.5t48.5 3.5q22 0 42 -2.5t36 -7.5v-17q-14 -5 -25 -16t-12 -27l-8 -62l243 2l9 79l-55 16v20q22 8 43 11.5t48 3.5q22 0 42.5 -2.5t36.5 -7.5
v-17q-14 -5 -25.5 -16t-12.5 -27l-7 -59q14 0 29 1.5t31 2.5q1 -4 2.5 -8.5t1.5 -8.5q-1 -15 -13.5 -20.5t-55.5 -6.5l-49 -430l57 -16v-20q-22 -7 -43.5 -11t-48.5 -4q-22 0 -42 3t-36 7v17q13 5 24.5 16.5t12.5 27.5l27 237h-243l-30 -257l56 -16v-20q-22 -7 -43 -11
t-48 -4q-22 0 -42.5 3t-36.5 7zM175 351l245 8l12 113l-243 -1z" />
    <glyph glyph-name="hbar" unicode="&#x127;" horiz-adv-x="467" 
d="M55 0l42 325l23 235l-77 -5q0 23 10.5 36t53.5 14h17l6 60l-62 19v19q24 8 50.5 12t51.5 4q13 0 24.5 -1.5t21.5 -4.5l-16 -106h1q32 1 65.5 3t67.5 4q0 -25 -12 -37.5t-58 -12.5q-7 0 -27.5 -0.5t-42.5 -1.5l-31 -215h1q31 64 75 102.5t93 38.5q37 0 58 -25.5t21 -66.5
q0 -25 -5 -60t-10 -66l-18 -105q-3 -18 -5.5 -44t-2.5 -42q0 -25 11.5 -36.5t35.5 -15.5v-17q-17 -9 -37 -14t-43 -5t-36 12t-13 34q0 19 4.5 52t8.5 58l18 111q4 22 7 53t3 48q0 33 -13 46.5t-32 13.5q-37 0 -81.5 -60.5t-51.5 -167.5l-12 -191h-84z" />
    <glyph glyph-name="Itilde" unicode="&#x128;" horiz-adv-x="245" 
d="M56 694q-11 9 -18 22.5t-7 29.5q0 24 19 41.5t51 17.5q14 0 29.5 -4t31.5 -13l45 -23q14 -8 25.5 -11.5t22.5 -3.5q15 0 30 17.5t16 40.5q10 -9 17.5 -22t7.5 -29q0 -25 -22.5 -45.5t-50.5 -20.5q-18 0 -32 3.5t-28 10.5l-45 24q-16 10 -28 13.5t-23 3.5
q-15 0 -27.5 -16.5t-13.5 -35.5zM25 2v17q13 5 25 16.5t13 27.5l61 528l-56 16v20q22 8 43.5 11.5t48.5 3.5q22 0 42 -2.5t36 -7.5v-17q-15 -5 -25 -16t-12 -27l-62 -529l56 -16v-20q-22 -7 -43 -11t-48 -4q-22 0 -42.5 3t-36.5 7z" />
    <glyph glyph-name="itilde" unicode="&#x129;" horiz-adv-x="221" 
d="M52 37q0 21 5 61.5t9 70.5l32 203l5 59l-60 19v19q24 9 48.5 13t51.5 4q13 0 24 -1t21 -5l-45 -294q-3 -22 -5.5 -55t-2.5 -52q0 -25 9.5 -37.5t30.5 -19.5v-17q-16 -7 -34.5 -10.5t-40.5 -3.5q-24 0 -36 12t-12 34zM33 543q-11 9 -18 22.5t-7 30.5q0 24 19 41.5t49 17.5
q13 0 28 -4t31 -13l42 -23q13 -8 24.5 -12t22.5 -4q14 0 28 18t15 41q10 -10 17 -23t7 -29q0 -26 -21 -46t-48 -20q-16 0 -30 3.5t-27 10.5l-44 24q-15 9 -27 13t-22 4q-14 0 -26 -17t-13 -35z" />
    <glyph glyph-name="Imacron" unicode="&#x12a;" horiz-adv-x="245" 
d="M39 726v55h279v-55h-279zM25 2v17q13 5 25 16.5t13 27.5l61 528l-56 16v20q22 8 43.5 11.5t48.5 3.5q22 0 42 -2.5t36 -7.5v-17q-15 -5 -25 -16t-12 -27l-62 -529l56 -16v-20q-22 -7 -43 -11t-48 -4q-22 0 -42.5 3t-36.5 7z" />
    <glyph glyph-name="imacron" unicode="&#x12b;" horiz-adv-x="221" 
d="M52 37q0 21 5 61.5t9 70.5l32 203l5 59l-60 19v19q24 9 48.5 13t51.5 4q13 0 24 -1t21 -5l-45 -294q-3 -22 -5.5 -55t-2.5 -52q0 -25 9.5 -37.5t30.5 -19.5v-17q-16 -7 -34.5 -10.5t-40.5 -3.5q-24 0 -36 12t-12 34zM13 577v55h266v-55h-266z" />
    <glyph glyph-name="Ibreve" unicode="&#x12c;" horiz-adv-x="245" 
d="M164 674q-41 0 -81.5 32.5t-70.5 98.5q12 11 23.5 18t31.5 14q24 -60 50.5 -84.5t51.5 -24.5q31 0 66.5 31t61.5 81q14 -7 23.5 -16t15.5 -22q-30 -56 -81.5 -92t-90.5 -36zM25 2v17q13 5 25 16.5t13 27.5l61 528l-56 16v20q22 8 43.5 11.5t48.5 3.5q22 0 42 -2.5
t36 -7.5v-17q-15 -5 -25 -16t-12 -27l-62 -529l56 -16v-20q-22 -7 -43 -11t-48 -4q-22 0 -42.5 3t-36.5 7z" />
    <glyph glyph-name="ibreve" unicode="&#x12d;" horiz-adv-x="221" 
d="M52 37q0 21 5 61.5t9 70.5l32 203l5 59l-60 19v19q24 9 48.5 13t51.5 4q13 0 24 -1t21 -5l-45 -294q-3 -22 -5.5 -55t-2.5 -52q0 -25 9.5 -37.5t30.5 -19.5v-17q-16 -7 -34.5 -10.5t-40.5 -3.5q-24 0 -36 12t-12 34zM132 526q-39 0 -78 32.5t-68 98.5q13 11 24 18t31 14
q22 -59 47.5 -84t49.5 -25q30 0 63.5 31t58.5 81q13 -7 21.5 -16t15.5 -21q-28 -57 -77.5 -93t-87.5 -36z" />
    <glyph glyph-name="Iogonek" unicode="&#x12e;" horiz-adv-x="245" 
d="M25 2v17q13 5 25 16.5t13 27.5l61 528l-56 16v20q22 8 43.5 11.5t48.5 3.5q22 0 42 -2.5t36 -7.5v-17q-15 -5 -25 -16t-12 -27l-62 -529l56 -16v-20q-19 -6 -36.5 -10t-39.5 -5l-44 -48q-13 -14 -20.5 -30t-7.5 -32q0 -22 12.5 -35.5t34.5 -13.5q18 0 37 5t38 15
q0 -28 -25.5 -47t-63.5 -19q-42 0 -68.5 22.5t-26.5 58.5q0 24 13 46.5t38 42.5l45 36q-16 1 -30.5 3.5t-25.5 5.5z" />
    <glyph glyph-name="iogonek" unicode="&#x12f;" horiz-adv-x="221" 
d="M159 583q-20 0 -33 13t-13 35q0 25 17 43.5t39 18.5q19 0 32.5 -13.5t13.5 -34.5q0 -25 -17 -43.5t-39 -18.5zM40 -43l45 36q-16 3 -24.5 14.5t-8.5 29.5q0 21 5 61.5t9 70.5l32 203l5 59l-60 19v19q24 9 48.5 13t51.5 4q13 0 24 -1t21 -5l-45 -294q-3 -22 -5.5 -55
t-2.5 -52q0 -25 9.5 -37.5t30.5 -19.5v-17q-12 -4 -25 -8t-27 -5l-44 -48q-13 -14 -20.5 -30t-7.5 -32q0 -22 12.5 -35.5t34.5 -13.5q18 0 37 5t38 15q0 -28 -25.5 -47t-63.5 -19q-42 0 -68.5 22.5t-26.5 58.5q0 24 13 46.5t38 42.5z" />
    <glyph glyph-name="Idotaccent" unicode="&#x130;" horiz-adv-x="245" 
d="M169 709q-16 0 -26 11t-10 28q0 20 14 34.5t33 14.5q16 0 25 -11t9 -29q0 -20 -14 -34t-31 -14zM25 2v17q13 5 25 16.5t13 27.5l61 528l-56 16v20q22 8 43.5 11.5t48.5 3.5q22 0 42 -2.5t36 -7.5v-17q-15 -5 -25 -16t-12 -27l-62 -529l56 -16v-20q-22 -7 -43 -11t-48 -4
q-22 0 -42.5 3t-36.5 7z" />
    <glyph glyph-name="dotlessi" unicode="&#x131;" horiz-adv-x="221" 
d="M52 37q0 21 5 61.5t9 70.5l32 203l5 59l-60 19v19q24 9 48.5 13t51.5 4q13 0 24 -1t21 -5l-45 -294q-3 -22 -5.5 -55t-2.5 -52q0 -25 9.5 -37.5t30.5 -19.5v-17q-16 -7 -34.5 -10.5t-40.5 -3.5q-24 0 -36 12t-12 34z" />
    <glyph glyph-name="IJ" unicode="&#x132;" horiz-adv-x="492" 
d="M25 2v17q13 5 25 16.5t13 27.5l61 528l-56 16v20q22 8 43.5 11.5t48.5 3.5q22 0 42 -2.5t36 -7.5v-17q-14 -5 -25 -16t-12 -27l-62 -529l56 -16v-20q-22 -7 -43 -11t-48 -4q-22 0 -42.5 3t-36.5 7zM209 -103q40 27 67.5 80t37.5 137l57 477l-56 16v20q22 8 43.5 11.5
t48.5 3.5q22 0 42.5 -2.5t36.5 -7.5v-17q-16 -5 -26.5 -16t-11.5 -27l-53 -443q-17 -149 -55.5 -201t-84.5 -52q-13 0 -24.5 2t-21.5 7v12z" />
    <glyph glyph-name="ij" unicode="&#x133;" horiz-adv-x="436" 
d="M160 583q-20 0 -33 13t-13 35q0 25 17 43.5t39 18.5q19 0 32.5 -13.5t13.5 -34.5q0 -25 -17 -43.5t-39 -18.5zM372 583q-20 0 -33 13t-13 35q0 25 17 43.5t39 18.5q19 0 32.5 -13.5t13.5 -34.5q0 -25 -17 -43.5t-39 -18.5zM52 37q0 21 5 61.5t9 70.5l32 203l5 59l-60 19
v19q24 9 48.5 13t51.5 4q13 0 24 -1t21 -5l-45 -294q-3 -22 -5.5 -55t-2.5 -52q0 -25 9.5 -37.5t30.5 -19.5v-17q-16 -7 -34.5 -10.5t-40.5 -3.5q-24 0 -36 12t-12 34zM128 -202q49 0 85.5 31.5t45.5 106.5l55 435l3 60l-61 19v19q24 9 49 13t50 4q12 0 23.5 -1.5t21.5 -4.5
l-64 -540q-13 -101 -51.5 -144t-87.5 -43q-19 0 -39 7.5t-30 19.5v18z" />
    <glyph glyph-name="Jcircumflex" unicode="&#x134;" horiz-adv-x="247" 
d="M-36 -103q40 27 67.5 80t37.5 137l57 477l-56 16v20q22 8 43.5 11.5t48.5 3.5q22 0 42.5 -2.5t36.5 -7.5v-17q-16 -5 -26.5 -16t-11.5 -27l-53 -443q-17 -149 -55.5 -201t-84.5 -52q-13 0 -24.5 2t-21.5 7v12zM56 677q-13 7 -21 15t-15 18l142 131l37 6l117 -154l-14 -14
q-18 0 -35.5 9.5t-43.5 34.5q-13 13 -26 32t-21 39z" />
    <glyph glyph-name="jcircumflex" unicode="&#x135;" horiz-adv-x="215" 
d="M14 529q-13 7 -22 14.5t-16 18.5l148 130l39 7l123 -154l-15 -14q-18 0 -36 9.5t-45 34.5q-14 13 -27.5 32.5t-22.5 38.5zM38 -64l55 435l3 60l-61 19v19q24 9 49 13t50 4q12 0 23.5 -1.5t21.5 -4.5l-64 -540q-13 -101 -51.5 -144t-87.5 -43q-19 0 -39 7.5t-30 19.5v18
q49 0 85.5 31.5t45.5 106.5z" />
    <glyph glyph-name="Kcommaaccent" unicode="&#x136;" horiz-adv-x="480" 
d="M288 121l-105 202l1 5l90 80q57 51 84.5 94.5t27.5 73.5q0 15 -8 24t-28 15v15q17 7 33.5 11t35.5 4q22 0 35.5 -11.5t13.5 -32.5q0 -44 -33 -96t-99 -109l-73 -62l96 -174q37 -67 69.5 -95.5t58.5 -32.5v-21q-18 -13 -34 -17.5t-39 -4.5q-28 0 -56 25.5t-70 106.5zM25 2
v17q13 5 25 16.5t13 27.5l61 528l-56 16v20q22 8 43.5 11.5t48.5 3.5q22 0 42 -2.5t36 -7.5v-17q-14 -5 -25 -16t-12 -27l-62 -529l56 -16v-20q-22 -7 -43 -11t-48 -4q-22 0 -42.5 3t-36.5 7zM242 -51q21 0 34 -13.5t13 -35.5q0 -43 -31 -82.5t-50 -39.5q-5 0 -9 1.5t-8 4.5
q12 19 18 40.5t6 47.5l-30 38q10 18 25.5 28.5t31.5 10.5z" />
    <glyph glyph-name="kcommaaccent" unicode="&#x137;" horiz-adv-x="379" 
d="M42 0l40 261l41 404l-62 19v19q23 8 47 12t55 4q12 0 23.5 -1.5t21.5 -4.5l-58 -439h1l56 44q31 25 64.5 77t44.5 98q37 0 52 -9t15 -24q0 -28 -41 -76.5t-96 -85.5l-43 -30l126 -193q13 -19 28 -31.5t37 -22.5v-17q-14 -8 -28 -11.5t-34 -3.5q-22 0 -43 13.5t-40 49.5
l-103 190h-1l-17 -242h-86zM203 -51q21 0 34 -13.5t13 -35.5q0 -43 -31 -82.5t-50 -39.5q-5 0 -9 1.5t-8 4.5q12 19 18 40.5t6 47.5l-30 38q10 18 25.5 28.5t31.5 10.5z" />
    <glyph glyph-name="Lacute" unicode="&#x139;" horiz-adv-x="404" 
d="M25 0v21q15 5 26.5 19.5t13.5 36.5l59 514l-56 16v20q22 8 43.5 11.5t48.5 3.5q22 0 42 -2.5t36 -7.5v-17q-14 -5 -25 -16t-12 -27l-61 -520h127q41 0 61 12t33 43l8 17h29l-29 -124h-344zM128 669q25 26 48 79t30 99q32 0 47.5 -12t15.5 -34q0 -34 -43 -78.5t-83 -57.5z
" />
    <glyph glyph-name="lacute" unicode="&#x13a;" horiz-adv-x="221" 
d="M54 38q0 21 4 62t8 69l70 496l-63 19v19q24 8 48 12t52 4q13 0 25 -1.5t21 -4.5l-75 -524q-4 -24 -6 -56t-2 -54q0 -25 11.5 -37.5t33.5 -19.5v-17q-16 -7 -35.5 -10.5t-41.5 -3.5q-25 0 -37.5 12.5t-12.5 34.5zM110 750q25 26 48 79t30 99q32 0 47.5 -12t15.5 -34
q0 -34 -43 -78.5t-83 -57.5z" />
    <glyph glyph-name="Lcommaaccent" unicode="&#x13b;" horiz-adv-x="404" 
d="M25 0v21q15 5 26.5 19.5t13.5 36.5l59 514l-56 16v20q22 8 43.5 11.5t48.5 3.5q22 0 42 -2.5t36 -7.5v-17q-14 -5 -25 -16t-12 -27l-61 -520h127q41 0 61 12t33 43l8 17h29l-29 -124h-344zM204 -51q21 0 34 -13.5t13 -35.5q0 -43 -31 -82.5t-50 -39.5q-5 0 -9 1.5t-8 4.5
q12 19 18 40.5t6 47.5l-30 38q10 18 25.5 28.5t31.5 10.5z" />
    <glyph glyph-name="lcommaaccent" unicode="&#x13c;" horiz-adv-x="221" 
d="M54 38q0 21 4 62t8 69l70 496l-63 19v19q24 8 48 12t52 4q13 0 25 -1.5t21 -4.5l-75 -524q-4 -24 -6 -56t-2 -54q0 -25 11.5 -37.5t33.5 -19.5v-17q-16 -7 -35.5 -10.5t-41.5 -3.5q-25 0 -37.5 12.5t-12.5 34.5zM109 -51q21 0 34 -13.5t13 -35.5q0 -43 -31 -82.5
t-50 -39.5q-5 0 -9 1.5t-8 4.5q12 19 18 40.5t6 47.5l-30 38q10 18 25.5 28.5t31.5 10.5z" />
    <glyph glyph-name="Lcaron" unicode="&#x13d;" horiz-adv-x="404" 
d="M25 0v21q15 5 26.5 19.5t13.5 36.5l59 514l-56 16v20q22 8 43.5 11.5t48.5 3.5q22 0 42 -2.5t36 -7.5v-17q-14 -5 -25 -16t-12 -27l-61 -520h127q41 0 61 12t33 43l8 17h29l-29 -124h-344zM342 663q21 0 34 -13.5t13 -35.5q0 -43 -31 -82.5t-50 -39.5q-5 0 -9 1.5t-8 4.5
q12 19 18 40.5t6 47.5l-30 38q10 18 25.5 28.5t31.5 10.5z" />
    <glyph glyph-name="lcaron" unicode="&#x13e;" horiz-adv-x="221" 
d="M54 38q0 21 4 62t8 69l70 496l-63 19v19q24 8 48 12t52 4q13 0 25 -1.5t21 -4.5l-75 -524q-4 -24 -6 -56t-2 -54q0 -25 11.5 -37.5t33.5 -19.5v-17q-16 -7 -35.5 -10.5t-41.5 -3.5q-25 0 -37.5 12.5t-12.5 34.5zM300 690q21 0 34 -13.5t13 -35.5q0 -43 -31 -82.5
t-50 -39.5q-5 0 -9 1.5t-8 4.5q12 19 18 40.5t6 47.5l-30 38q10 18 25.5 28.5t31.5 10.5z" />
    <glyph glyph-name="Ldot" unicode="&#x13f;" horiz-adv-x="404" 
d="M25 0v21q15 5 26.5 19.5t13.5 36.5l59 514l-56 16v20q22 8 43.5 11.5t48.5 3.5q22 0 42 -2.5t36 -7.5v-17q-14 -5 -25 -16t-12 -27l-61 -520h127q41 0 61 12t33 43l8 17h29l-29 -124h-344zM273 252q0 27 17.5 46.5t41.5 19.5q22 0 35 -14.5t13 -39.5q0 -26 -17.5 -44.5
t-41.5 -18.5q-22 0 -35 14t-13 37z" />
    <glyph glyph-name="ldot" unicode="&#x140;" horiz-adv-x="272" 
d="M54 38q0 21 4 62t8 69l70 496l-63 19v19q24 8 48 12t52 4q13 0 25 -1.5t21 -4.5l-75 -524q-4 -24 -6 -56t-2 -54q0 -25 11.5 -37.5t33.5 -19.5v-17q-16 -7 -35.5 -10.5t-41.5 -3.5q-25 0 -37.5 12.5t-12.5 34.5zM246 188q-22 0 -35 14t-13 37q0 27 17 46.5t42 19.5
q22 0 35 -14.5t13 -39.5q0 -26 -17.5 -44.5t-41.5 -18.5z" />
    <glyph glyph-name="Lslash" unicode="&#x141;" horiz-adv-x="404" 
d="M25 0v21q15 5 26.5 19.5t13.5 36.5l20 178l-58 -28l-15 41l79 38l33 285l-56 16v20q22 8 43.5 11.5t48.5 3.5q22 0 42 -2.5t36 -7.5v-17q-14 -5 -25 -16t-12 -27l-27 -226l117 56l17 -41l-140 -67l-28 -242h127q41 0 61 12t33 43l8 17h29l-29 -124h-344z" />
    <glyph glyph-name="lslash" unicode="&#x142;" horiz-adv-x="221" 
d="M54 38q0 21 4 62t8 69l19 138l-53 -26l-17 41l78 37l43 306l-63 19v19q24 8 48 12t52 4q13 0 25 -1.5t21 -4.5l-45 -315l78 38l16 -41l-102 -49l-22 -157q-4 -24 -6 -56t-2 -54q0 -25 11.5 -37.5t33.5 -19.5v-17q-16 -7 -35.5 -10.5t-41.5 -3.5q-25 0 -37.5 12.5
t-12.5 34.5z" />
    <glyph glyph-name="Nacute" unicode="&#x143;" horiz-adv-x="542" 
d="M25 2v17q14 4 25.5 16t12.5 28l61 532l-42 9v23q21 6 47.5 9.5t45.5 3.5h28l201 -466h1l43 417l-56 16v20q20 8 40.5 11.5t42.5 3.5q20 0 36 -2.5t32 -7.5v-17q-18 -5 -27.5 -16.5t-11.5 -27.5l-69 -580l-33 -5l-232 542h-1l-49 -485l56 -16v-20q-21 -7 -38 -11t-41 -4
q-19 0 -37 3t-35 7zM292 669q25 26 48 79t30 99q32 0 47.5 -12t15.5 -34q0 -34 -43 -78.5t-83 -57.5z" />
    <glyph glyph-name="nacute" unicode="&#x144;" horiz-adv-x="454" 
d="M51 0l50 431l-61 19v19q24 9 47.5 13t51.5 4q10 0 20.5 -1.5t20.5 -5.5l-32 -153h1q34 76 81.5 119t98.5 43q33 0 56 -23t23 -69q0 -24 -5.5 -59t-9.5 -67l-18 -108q-2 -17 -5 -42t-3 -41q0 -25 12 -36.5t35 -15.5v-17q-17 -9 -37 -14t-43 -5t-36 12t-13 34q0 19 4 50.5
t8 55.5l19 115q4 23 7 52t3 49q0 34 -13 47t-31 13q-42 0 -89.5 -72t-50.5 -178l-6 -169h-85zM228 519q25 26 48 79t30 99q32 0 47.5 -12t15.5 -34q0 -34 -43 -78.5t-83 -57.5z" />
    <glyph glyph-name="Ncommaaccent" unicode="&#x145;" horiz-adv-x="542" 
d="M25 2v17q14 4 25.5 16t12.5 28l61 532l-42 9v23q21 6 47.5 9.5t45.5 3.5h28l201 -466h1l43 417l-56 16v20q20 8 40.5 11.5t42.5 3.5q20 0 36 -2.5t32 -7.5v-17q-18 -5 -27.5 -16.5t-11.5 -27.5l-69 -580l-33 -5l-232 542h-1l-49 -485l56 -16v-20q-21 -7 -38 -11t-41 -4
q-19 0 -37 3t-35 7zM259 -51q21 0 34 -13.5t13 -35.5q0 -43 -31 -82.5t-50 -39.5q-5 0 -9 1.5t-8 4.5q12 19 18 40.5t6 47.5l-30 38q10 18 25.5 28.5t31.5 10.5z" />
    <glyph glyph-name="ncommaaccent" unicode="&#x146;" horiz-adv-x="454" 
d="M51 0l50 431l-61 19v19q24 9 47.5 13t51.5 4q10 0 20.5 -1.5t20.5 -5.5l-32 -153h1q34 76 81.5 119t98.5 43q33 0 56 -23t23 -69q0 -24 -5.5 -59t-9.5 -67l-18 -108q-2 -17 -5 -42t-3 -41q0 -25 12 -36.5t35 -15.5v-17q-17 -9 -37 -14t-43 -5t-36 12t-13 34q0 19 4 50.5
t8 55.5l19 115q4 23 7 52t3 49q0 34 -13 47t-31 13q-42 0 -89.5 -72t-50.5 -178l-6 -169h-85zM204 -51q21 0 34 -13.5t13 -35.5q0 -43 -31 -82.5t-50 -39.5q-5 0 -9 1.5t-8 4.5q12 19 18 40.5t6 47.5l-30 38q10 18 25.5 28.5t31.5 10.5z" />
    <glyph glyph-name="Ncaron" unicode="&#x147;" horiz-adv-x="542" 
d="M25 2v17q14 4 25.5 16t12.5 28l61 532l-42 9v23q21 6 47.5 9.5t45.5 3.5h28l201 -466h1l43 417l-56 16v20q20 8 40.5 11.5t42.5 3.5q20 0 36 -2.5t32 -7.5v-17q-18 -5 -27.5 -16.5t-11.5 -27.5l-69 -580l-33 -5l-232 542h-1l-49 -485l56 -16v-20q-21 -7 -38 -11t-41 -4
q-19 0 -37 3t-35 7zM313 672l-116 143q14 11 27 18t32 13l85 -120l119 119q13 -7 21.5 -14t17.5 -18l-146 -134z" />
    <glyph glyph-name="ncaron" unicode="&#x148;" horiz-adv-x="454" 
d="M51 0l50 431l-61 19v19q24 9 47.5 13t51.5 4q10 0 20.5 -1.5t20.5 -5.5l-32 -153h1q34 76 81.5 119t98.5 43q33 0 56 -23t23 -69q0 -24 -5.5 -59t-9.5 -67l-18 -108q-2 -17 -5 -42t-3 -41q0 -25 12 -36.5t35 -15.5v-17q-17 -9 -37 -14t-43 -5t-36 12t-13 34q0 19 4 50.5
t8 55.5l19 115q4 23 7 52t3 49q0 34 -13 47t-31 13q-42 0 -89.5 -72t-50.5 -178l-6 -169h-85zM241 524l-116 143q14 11 27 18t32 13l85 -120l119 119q13 -7 21.5 -14t17.5 -18l-146 -134z" />
    <glyph glyph-name="napostrophe" unicode="&#x149;" horiz-adv-x="454" 
d="M128 517q-5 0 -9 1.5t-9 4.5q13 19 19.5 40t6.5 48l-32 37q10 18 26.5 28.5t32.5 10.5q22 0 36 -13.5t14 -35.5q0 -43 -32 -82t-53 -39zM51 0l50 431l-61 19v19q24 9 47.5 13t51.5 4q10 0 20.5 -1.5t20.5 -5.5l-32 -153h1q34 76 81.5 119t98.5 43q33 0 56 -23t23 -69
q0 -24 -5.5 -59t-9.5 -67l-18 -108q-2 -17 -5 -42t-3 -41q0 -25 12 -36.5t35 -15.5v-17q-17 -9 -37 -14t-43 -5t-36 12t-13 34q0 19 4 50.5t8 55.5l19 115q4 23 7 52t3 49q0 34 -13 47t-31 13q-42 0 -89.5 -72t-50.5 -178l-6 -169h-85z" />
    <glyph glyph-name="Eng" unicode="&#x14a;" horiz-adv-x="542" 
d="M25 2v17q14 4 25.5 16t12.5 28l61 532l-42 9v23q21 6 47.5 9.5t45.5 3.5h28l201 -466h1l43 417l-56 16v20q20 8 40.5 11.5t42.5 3.5q20 0 36 -2.5t32 -7.5v-17q-18 -5 -27.5 -16.5t-11.5 -27.5l-61 -521q-16 -146 -51.5 -200.5t-81.5 -52.5q-11 1 -24.5 4.5t-22.5 7.5v11
q38 23 68 70.5t43 159.5l-204 478h-1l-49 -485l56 -16v-20q-21 -7 -38 -11t-41 -4q-19 0 -37 3t-35 7z" />
    <glyph glyph-name="eng" unicode="&#x14b;" horiz-adv-x="454" 
d="M51 0l50 431l-61 19v19q24 9 47.5 13t51.5 4q10 0 20.5 -1.5t20.5 -5.5l-32 -153h1q34 76 81.5 119t98.5 43q33 0 56 -23t23 -69q0 -24 -5.5 -59t-9.5 -67l-47 -330q-14 -101 -52 -144t-87 -43q-19 0 -39 7.5t-30 19.5v18q49 0 84.5 31.5t46.5 106.5l47 322q3 23 6.5 52
t3.5 49q0 34 -13 47t-31 13q-42 0 -89.5 -72t-50.5 -178l-6 -169h-85z" />
    <glyph glyph-name="Omacron" unicode="&#x14c;" horiz-adv-x="548" 
d="M45 214q0 206 87 319.5t196 113.5q87 0 141 -58t54 -165q0 -226 -95 -335t-203 -109q-74 0 -127 59t-53 175zM245 40q61 0 126.5 85t65.5 280q0 93 -35 137.5t-87 44.5q-69 0 -126 -92t-57 -263q0 -96 33.5 -144t79.5 -48zM218 726v55h266v-55h-266z" />
    <glyph glyph-name="omacron" unicode="&#x14d;" horiz-adv-x="426" 
d="M39 165q0 157 68.5 241.5t150.5 84.5q60 0 99.5 -41t39.5 -126q0 -158 -70.5 -247.5t-144.5 -89.5q-58 0 -100.5 45t-42.5 133zM200 43q36 0 75.5 64t39.5 197q0 66 -22 97.5t-55 31.5q-40 0 -80 -64t-40 -169q0 -85 24.5 -121t57.5 -36zM144 577v55h266v-55h-266z" />
    <glyph glyph-name="Obreve" unicode="&#x14e;" horiz-adv-x="548" 
d="M45 214q0 206 87 319.5t196 113.5q87 0 141 -58t54 -165q0 -226 -95 -335t-203 -109q-74 0 -127 59t-53 175zM245 40q61 0 126.5 85t65.5 280q0 93 -35 137.5t-87 44.5q-69 0 -126 -92t-57 -263q0 -96 33.5 -144t79.5 -48zM343 674q-39 0 -78 32.5t-68 98.5q13 11 24 18
t31 14q22 -59 47.5 -84t49.5 -25q30 0 63.5 31t58.5 81q13 -7 21.5 -16t15.5 -21q-28 -57 -77.5 -93t-87.5 -36z" />
    <glyph glyph-name="obreve" unicode="&#x14f;" horiz-adv-x="426" 
d="M39 165q0 157 68.5 241.5t150.5 84.5q60 0 99.5 -41t39.5 -126q0 -158 -70.5 -247.5t-144.5 -89.5q-58 0 -100.5 45t-42.5 133zM200 43q36 0 75.5 64t39.5 197q0 66 -22 97.5t-55 31.5q-40 0 -80 -64t-40 -169q0 -85 24.5 -121t57.5 -36zM260 526q-39 0 -78 32.5
t-68 98.5q13 11 24 18t31 14q22 -59 47.5 -84t49.5 -25q30 0 63.5 31t58.5 81q13 -7 21.5 -16t15.5 -21q-28 -57 -77.5 -93t-87.5 -36z" />
    <glyph glyph-name="Ohungarumlaut" unicode="&#x150;" horiz-adv-x="548" 
d="M45 214q0 206 87 319.5t196 113.5q87 0 141 -58t54 -165q0 -226 -95 -335t-203 -109q-74 0 -127 59t-53 175zM245 40q61 0 126.5 85t65.5 280q0 93 -35 137.5t-87 44.5q-69 0 -126 -92t-57 -263q0 -96 33.5 -144t79.5 -48zM205 664l-7 7q37 27 72.5 72t48.5 87
q28 0 44.5 -10t16.5 -27q0 -33 -67.5 -81t-107.5 -48zM386 664l-6 7q37 27 72.5 72t48.5 87q28 0 44.5 -10t16.5 -27q0 -33 -67.5 -81t-108.5 -48z" />
    <glyph glyph-name="ohungarumlaut" unicode="&#x151;" horiz-adv-x="426" 
d="M39 165q0 157 68.5 241.5t150.5 84.5q60 0 99.5 -41t39.5 -126q0 -158 -70.5 -247.5t-144.5 -89.5q-58 0 -100.5 45t-42.5 133zM200 43q36 0 75.5 64t39.5 197q0 66 -22 97.5t-55 31.5q-40 0 -80 -64t-40 -169q0 -85 24.5 -121t57.5 -36zM117 516l-7 7q37 27 72.5 72
t48.5 87q28 0 44.5 -10t16.5 -27q0 -33 -67.5 -81t-107.5 -48zM298 516l-6 7q37 27 72.5 72t48.5 87q28 0 44.5 -10t16.5 -27q0 -33 -67.5 -81t-108.5 -48z" />
    <glyph glyph-name="OE" unicode="&#x152;" horiz-adv-x="718" 
d="M251 40q32 0 58.5 9.5t51.5 29.5l48 417q0 2 2.5 30.5t2.5 30.5q-19 14 -44 22t-50 8q-69 0 -125.5 -92t-56.5 -263q0 -96 35 -144t78 -48zM51 214q0 204 87.5 317t198.5 113q22 0 39 -2t36 -6h311l-17 -134h-28l-2 19q-3 31 -20 46.5t-47 15.5h-108l-29 -237h113
q25 0 39 10.5t20 29.5l5 15h28l-19 -173h-28l-1 17q-1 28 -12.5 39.5t-32.5 11.5h-118l-28 -243h122q37 0 60 12.5t34 35.5l9 21h29l-28 -122h-325q-28 -7 -55.5 -13.5t-55.5 -6.5q-74 0 -125.5 59t-51.5 175z" />
    <glyph glyph-name="oe" unicode="&#x153;" horiz-adv-x="614" 
d="M35 160q0 163 63.5 247t150.5 84q41 0 71 -20.5t44 -60.5q28 39 65.5 59.5t74.5 20.5q51 0 79 -26t28 -77q0 -88 -75.5 -139t-163.5 -51q0 -90 23.5 -120t66.5 -30q27 0 60 14t49 36q3 -3 6.5 -9.5t3.5 -14.5q0 -37 -42.5 -62.5t-102.5 -25.5q-54 0 -85 23.5t-45 63.5
q-25 -39 -61 -62t-76 -23q-63 0 -98.5 43.5t-35.5 129.5zM376 243q67 0 111 34.5t44 91.5q0 35 -13 50t-35 15q-33 0 -70 -52.5t-37 -138.5zM191 45q37 0 72.5 63.5t35.5 196.5q0 69 -21.5 98.5t-52.5 29.5q-42 0 -76.5 -65.5t-34.5 -167.5q0 -84 22.5 -119.5t54.5 -35.5z
" />
    <glyph glyph-name="Racute" unicode="&#x154;" horiz-adv-x="488" 
d="M25 2v17q13 5 25 16.5t13 27.5l61 526l-56 16v22q41 7 89 11.5t111 4.5q91 0 139.5 -38t48.5 -101q0 -77 -51 -133.5t-132 -75.5l110 -182q21 -34 48.5 -54t61.5 -27v-21q-12 -10 -31 -15t-44 -5q-31 0 -57.5 18.5t-53.5 69.5l-119 218v19q64 0 121.5 47.5t57.5 125.5
q0 48 -32 76.5t-80 28.5q-13 0 -27.5 -1.5t-24.5 -2.5l-64 -547l55 -16v-20q-22 -7 -42.5 -11t-47.5 -4q-25 0 -44 3t-35 7zM231 669q25 26 48 79t30 99q32 0 47.5 -12t15.5 -34q0 -34 -43 -78.5t-83 -57.5z" />
    <glyph glyph-name="racute" unicode="&#x155;" horiz-adv-x="286" 
d="M51 0l49 431l-61 19v19q24 9 47.5 13t49.5 4q10 0 21 -1.5t21 -5.5l-30 -145h1l53 88q19 32 40 47.5t44 15.5q16 0 24.5 -10t8.5 -27q0 -12 -3 -26t-8 -26q-7 2 -15 3t-16 1q-47 0 -87.5 -58t-47.5 -196l-8 -146h-83zM178 519q25 26 48 79t30 99q32 0 47.5 -12t15.5 -34
q0 -34 -43 -78.5t-83 -57.5z" />
    <glyph glyph-name="Rcommaaccent" unicode="&#x156;" horiz-adv-x="488" 
d="M25 2v17q13 5 25 16.5t13 27.5l61 526l-56 16v22q41 7 89 11.5t111 4.5q91 0 139.5 -38t48.5 -101q0 -77 -51 -133.5t-132 -75.5l110 -182q21 -34 48.5 -54t61.5 -27v-21q-12 -10 -31 -15t-44 -5q-31 0 -57.5 18.5t-53.5 69.5l-119 218v19q64 0 121.5 47.5t57.5 125.5
q0 48 -32 76.5t-80 28.5q-13 0 -27.5 -1.5t-24.5 -2.5l-64 -547l55 -16v-20q-22 -7 -42.5 -11t-47.5 -4q-25 0 -44 3t-35 7zM246 -51q21 0 34 -13.5t13 -35.5q0 -43 -31 -82.5t-50 -39.5q-5 0 -9 1.5t-8 4.5q12 19 18 40.5t6 47.5l-30 38q10 18 25.5 28.5t31.5 10.5z" />
    <glyph glyph-name="rcommaaccent" unicode="&#x157;" horiz-adv-x="286" 
d="M51 0l49 431l-61 19v19q24 9 47.5 13t49.5 4q10 0 21 -1.5t21 -5.5l-30 -145h1l53 88q19 32 40 47.5t44 15.5q16 0 24.5 -10t8.5 -27q0 -12 -3 -26t-8 -26q-7 2 -15 3t-16 1q-47 0 -87.5 -58t-47.5 -196l-8 -146h-83zM86 -51q21 0 34 -13.5t13 -35.5q0 -43 -31 -82.5
t-50 -39.5q-5 0 -9 1.5t-8 4.5q12 19 18 40.5t6 47.5l-30 38q10 18 25.5 28.5t31.5 10.5z" />
    <glyph glyph-name="Rcaron" unicode="&#x158;" horiz-adv-x="488" 
d="M25 2v17q13 5 25 16.5t13 27.5l61 526l-56 16v22q41 7 89 11.5t111 4.5q91 0 139.5 -38t48.5 -101q0 -77 -51 -133.5t-132 -75.5l110 -182q21 -34 48.5 -54t61.5 -27v-21q-12 -10 -31 -15t-44 -5q-31 0 -57.5 18.5t-53.5 69.5l-119 218v19q64 0 121.5 47.5t57.5 125.5
q0 48 -32 76.5t-80 28.5q-13 0 -27.5 -1.5t-24.5 -2.5l-64 -547l55 -16v-20q-22 -7 -42.5 -11t-47.5 -4q-25 0 -44 3t-35 7zM270 672l-116 143q14 11 27 18t32 13l85 -120l119 119q13 -7 21.5 -14t17.5 -18l-146 -134z" />
    <glyph glyph-name="rcaron" unicode="&#x159;" horiz-adv-x="286" 
d="M51 0l49 431l-61 19v19q24 9 47.5 13t49.5 4q10 0 21 -1.5t21 -5.5l-30 -145h1l53 88q19 32 40 47.5t44 15.5q16 0 24.5 -10t8.5 -27q0 -12 -3 -26t-8 -26q-7 2 -15 3t-16 1q-47 0 -87.5 -58t-47.5 -196l-8 -146h-83zM184 524l-116 143q14 11 27 18t32 13l85 -120
l119 119q13 -7 21.5 -14t17.5 -18l-146 -134z" />
    <glyph glyph-name="Sacute" unicode="&#x15a;" horiz-adv-x="408" 
d="M12 9l12 129h33l3 -22q7 -43 29.5 -58.5t71.5 -15.5q51 0 86.5 28t35.5 75q0 31 -17 60t-68 78l-66 63q-34 33 -47.5 61t-13.5 65q0 69 56 121t140 52q43 0 74 -6t55 -18l-12 -125h-29l-2 18q-4 39 -27 57.5t-68 18.5q-52 0 -81 -28t-29 -70q0 -27 12 -47.5t48 -52.5
l66 -59q53 -47 73 -82t20 -75q0 -82 -66.5 -135.5t-150.5 -53.5q-39 0 -75 6t-63 16zM203 669q25 26 48 79t30 99q32 0 47.5 -12t15.5 -34q0 -34 -43 -78.5t-83 -57.5z" />
    <glyph glyph-name="sacute" unicode="&#x15b;" horiz-adv-x="312" 
d="M1 44q0 13 4 23t11 19q21 -20 45.5 -31t52.5 -11q35 0 60 19t25 50q0 25 -12.5 45.5t-49.5 53.5l-35 32q-34 31 -46.5 55.5t-12.5 57.5q0 49 43 90.5t112 41.5q54 0 81.5 -15t27.5 -39q0 -13 -5 -27.5t-13 -24.5q-22 22 -51.5 35.5t-57.5 13.5q-33 0 -50 -16t-17 -40
q0 -22 12.5 -39.5t49.5 -51.5l38 -34q36 -32 50 -57.5t14 -58.5q0 -59 -53.5 -103.5t-131.5 -44.5q-47 0 -69 14.5t-22 42.5zM139 519q25 26 48 79t30 99q32 0 47.5 -12t15.5 -34q0 -34 -43 -78.5t-83 -57.5z" />
    <glyph glyph-name="Scircumflex" unicode="&#x15c;" horiz-adv-x="408" 
d="M12 9l12 129h33l3 -22q7 -43 29.5 -58.5t71.5 -15.5q51 0 86.5 28t35.5 75q0 31 -17 60t-68 78l-66 63q-34 33 -47.5 61t-13.5 65q0 69 56 121t140 52q43 0 74 -6t55 -18l-12 -125h-29l-2 18q-4 39 -27 57.5t-68 18.5q-52 0 -81 -28t-29 -70q0 -27 12 -47.5t48 -52.5
l66 -59q53 -47 73 -82t20 -75q0 -82 -66.5 -135.5t-150.5 -53.5q-39 0 -75 6t-63 16zM171 677q-13 7 -21 15t-15 18l142 131l37 6l117 -154l-14 -14q-18 0 -35.5 9.5t-43.5 34.5q-13 13 -26 32t-21 39z" />
    <glyph glyph-name="scircumflex" unicode="&#x15d;" horiz-adv-x="312" 
d="M1 44q0 13 4 23t11 19q21 -20 45.5 -31t52.5 -11q35 0 60 19t25 50q0 25 -12.5 45.5t-49.5 53.5l-35 32q-34 31 -46.5 55.5t-12.5 57.5q0 49 43 90.5t112 41.5q54 0 81.5 -15t27.5 -39q0 -13 -5 -27.5t-13 -24.5q-22 22 -51.5 35.5t-57.5 13.5q-33 0 -50 -16t-17 -40
q0 -22 12.5 -39.5t49.5 -51.5l38 -34q36 -32 50 -57.5t14 -58.5q0 -59 -53.5 -103.5t-131.5 -44.5q-47 0 -69 14.5t-22 42.5zM103 529q-13 7 -21 15t-15 18l142 131l37 6l117 -154l-14 -14q-18 0 -35.5 9.5t-43.5 34.5q-13 13 -26 32t-21 39z" />
    <glyph glyph-name="uni015E" unicode="&#x15e;" horiz-adv-x="408" 
d="M12 9l12 129h33l3 -22q7 -43 29.5 -58.5t71.5 -15.5q51 0 86.5 28t35.5 75q0 31 -17 60t-68 78l-66 63q-34 33 -47.5 61t-13.5 65q0 69 56 121t140 52q43 0 74 -6t55 -18l-12 -125h-29l-2 18q-4 39 -27 57.5t-68 18.5q-52 0 -81 -28t-29 -70q0 -27 12 -47.5t48 -52.5
l66 -59q53 -47 73 -82t20 -75q0 -82 -67 -136q-60 -48 -134 -52l-4 -39q32 0 50 -15.5t18 -40.5q0 -40 -38 -72t-89 -32q-31 0 -51.5 22.5t-20.5 58.5q22 -17 42.5 -25t40.5 -8q22 0 37.5 11t15.5 27q0 17 -15 26.5t-45 9.5l24 76q-29 2 -56 6q-36 6 -63 16z" />
    <glyph glyph-name="uni015F" unicode="&#x15f;" horiz-adv-x="312" 
d="M1 44q0 13 4 23t11 19q21 -20 45.5 -31t52.5 -11q35 0 60 19t25 50q0 25 -12.5 45.5t-49.5 53.5l-35 32q-34 31 -46.5 55.5t-12.5 57.5q0 49 43 90.5t112 41.5q54 0 81.5 -15t27.5 -39q0 -13 -5 -27.5t-13 -24.5q-22 22 -51.5 35.5t-57.5 13.5q-33 0 -50 -16t-17 -40
q0 -22 12.5 -39.5t49.5 -51.5l38 -34q36 -32 50 -57.5t14 -58.5q0 -59 -54 -104q-37 -31 -87 -40l-4 -42q32 0 50 -15.5t18 -40.5q0 -40 -38 -72t-89 -32q-31 0 -51.5 22.5t-20.5 58.5q22 -17 42.5 -25t40.5 -8q22 0 37.5 11t15.5 27q0 17 -15 26.5t-45 9.5l24 76h-9
q-47 0 -69 14.5t-22 42.5z" />
    <glyph glyph-name="Scaron" unicode="&#x160;" horiz-adv-x="408" 
d="M12 9l12 129h33l3 -22q7 -43 29.5 -58.5t71.5 -15.5q51 0 86.5 28t35.5 75q0 31 -17 60t-68 78l-66 63q-34 33 -47.5 61t-13.5 65q0 69 56 121t140 52q43 0 74 -6t55 -18l-12 -125h-29l-2 18q-4 39 -27 57.5t-68 18.5q-52 0 -81 -28t-29 -70q0 -27 12 -47.5t48 -52.5
l66 -59q53 -47 73 -82t20 -75q0 -82 -66.5 -135.5t-150.5 -53.5q-39 0 -75 6t-63 16zM230 674l-116 143q14 11 27 18t32 13l85 -120l119 119q13 -7 21.5 -14t17.5 -18l-146 -134z" />
    <glyph glyph-name="scaron" unicode="&#x161;" horiz-adv-x="312" 
d="M1 44q0 13 4 23t11 19q21 -20 45.5 -31t52.5 -11q35 0 60 19t25 50q0 25 -12.5 45.5t-49.5 53.5l-35 32q-34 31 -46.5 55.5t-12.5 57.5q0 49 43 90.5t112 41.5q54 0 81.5 -15t27.5 -39q0 -13 -5 -27.5t-13 -24.5q-22 22 -51.5 35.5t-57.5 13.5q-33 0 -50 -16t-17 -40
q0 -22 12.5 -39.5t49.5 -51.5l38 -34q36 -32 50 -57.5t14 -58.5q0 -59 -53.5 -103.5t-131.5 -44.5q-47 0 -69 14.5t-22 42.5zM174 524l-116 143q14 11 27 18t32 13l85 -120l119 119q13 -7 21.5 -14t17.5 -18l-146 -134z" />
    <glyph glyph-name="uni0162" unicode="&#x162;" 
d="M130 2v17q14 5 25.5 16.5t12.5 27.5l62 522h-68q-42 0 -62.5 -16.5t-30.5 -47.5l-7 -18h-27l15 137q54 -2 118 -4.5t115 -2.5q49 0 105.5 1.5t110.5 7.5l-15 -139h-27l-2 20q-4 33 -18.5 47.5t-39.5 14.5h-88l-65 -542l65 -16v-20q-22 -7 -45 -11q-20 -3 -46 -4l-4 -43
q32 0 50 -15.5t18 -40.5q0 -40 -38 -72t-89 -32q-31 0 -51.5 22.5t-20.5 58.5q22 -17 42.5 -25t40.5 -8q22 0 37.5 11t15.5 27q0 17 -15 26.5t-45 9.5l26 82q-10 1 -19 2q-20 3 -36 7z" />
    <glyph glyph-name="uni0163" unicode="&#x163;" horiz-adv-x="261" 
d="M58 111q0 46 9.5 116t21.5 127l13 64q-16 0 -28 1t-28 2v13q24 34 59.5 65.5t75.5 54.5h15l-17 -82h29q21 0 39 1.5t38 5.5q0 -32 -20 -47t-67 -15h-28l-17 -104q-6 -36 -13 -88.5t-7 -82.5q0 -49 22 -72t55 -23q12 0 21 1.5t20 5.5v-18q-7 -18 -32 -33t-60 -15h-11
l-4 -39q32 0 50 -15.5t18 -40.5q0 -40 -38 -72t-89 -32q-31 0 -51.5 22.5t-20.5 58.5q22 -17 42.5 -25t40.5 -8q22 0 37.5 11t15.5 27q0 17 -15 26.5t-45 9.5l27 85q-19 8 -32 24q-26 32 -26 91z" />
    <glyph glyph-name="Tcaron" unicode="&#x164;" 
d="M130 2v17q14 5 25.5 16.5t12.5 27.5l62 522h-68q-42 0 -62.5 -16.5t-30.5 -47.5l-7 -18h-27l15 137q54 -2 118 -4.5t115 -2.5q49 0 105.5 1.5t110.5 7.5l-15 -139h-27l-2 20q-4 33 -18.5 47.5t-39.5 14.5h-88l-65 -542l65 -16v-20q-22 -7 -45 -11t-55 -4q-22 0 -42.5 3
t-36.5 7zM259 672l-116 143q14 11 27 18t32 13l85 -120l119 119q13 -7 21.5 -14t17.5 -18l-146 -134z" />
    <glyph glyph-name="tcaron" unicode="&#x165;" horiz-adv-x="261" 
d="M58 111q0 46 9.5 116t21.5 127l13 64q-16 0 -28 1t-28 2v13q24 34 59.5 65.5t75.5 54.5h15l-17 -82h29q21 0 39 1.5t38 5.5q0 -32 -20 -47t-67 -15h-28l-17 -104q-6 -36 -13 -88.5t-7 -82.5q0 -49 22 -72t55 -23q12 0 21 1.5t20 5.5v-18q-7 -18 -32 -33t-60 -15
q-49 0 -75 32t-26 91zM325 692q21 0 34 -13.5t13 -35.5q0 -43 -31 -82.5t-50 -39.5q-5 0 -9 1.5t-8 4.5q12 19 18 40.5t6 47.5l-30 38q10 18 25.5 28.5t31.5 10.5z" />
    <glyph glyph-name="Tbar" unicode="&#x166;" 
d="M130 2v17q14 5 25.5 16.5t12.5 27.5l29 245h-44q-22 0 -43 -1t-44 -3q-1 3 -2 9.5t-1 12.5q0 15 17 19t82 5h40l28 235h-68q-42 0 -62.5 -16.5t-30.5 -47.5l-7 -18h-27l15 137q54 -2 118 -4.5t115 -2.5q49 0 105.5 1.5t110.5 7.5l-15 -139h-27l-2 20q-4 33 -18.5 47.5
t-39.5 14.5h-88l-28 -234l56 1q23 0 43.5 1t43.5 3q1 -4 2 -11.5t1 -11.5q0 -13 -17.5 -17.5t-81.5 -5.5l-52 -1l-32 -266l65 -16v-20q-22 -7 -45 -11t-55 -4q-22 0 -42.5 3t-36.5 7z" />
    <glyph glyph-name="tbar" unicode="&#x167;" horiz-adv-x="261" 
d="M58 111q0 25 3 58t8 69h-48l5 51h51l12 65l13 64q-16 0 -28 1t-28 2v13q24 34 59.5 65.5t75.5 54.5h15l-17 -82h29q21 0 39 1.5t38 5.5q0 -32 -20 -47t-67 -15h-28l-17 -104l-4 -24h106l-6 -51h-108q-4 -28 -6 -53.5t-2 -42.5q0 -49 22 -72t55 -23q12 0 21 1.5t20 5.5
v-18q-7 -18 -32 -33t-60 -15q-49 0 -75 32t-26 91z" />
    <glyph glyph-name="Utilde" unicode="&#x168;" horiz-adv-x="568" 
d="M63 130q0 23 5.5 63t9.5 66l45 332l-56 16v20q22 8 44 11.5t50 3.5q22 0 41 -2.5t35 -7.5v-17q-13 -5 -24 -16t-13 -27l-41 -299q-4 -26 -9 -67t-5 -63q0 -48 30.5 -75t81.5 -27q62 0 112 56.5t65 178.5l37 314l-59 17v20q24 9 41 12t47 3q16 0 32 -2.5t32 -7.5v-17
q-13 -6 -20.5 -14t-8.5 -25l-34 -292q-17 -154 -91 -226t-170 -72q-83 0 -130 36t-47 108zM217 694q-11 9 -18 22.5t-7 30.5q0 24 19 41.5t49 17.5q13 0 28 -4t31 -13l42 -23q13 -8 24.5 -12t22.5 -4q14 0 28 18t15 41q10 -10 17 -23t7 -29q0 -26 -21 -46t-48 -20
q-16 0 -30 3.5t-27 10.5l-44 24q-15 9 -27 13t-22 4q-14 0 -26 -17t-13 -35z" />
    <glyph glyph-name="utilde" unicode="&#x169;" horiz-adv-x="437" 
d="M51 81q0 17 4 38t7 37l23 118q5 25 10 61.5t5 59.5q0 25 -12 38t-34 18v17q17 8 36.5 13t42.5 5q24 0 36.5 -12t12.5 -34q0 -25 -7 -68.5t-14 -86.5l-22 -111q-4 -16 -6.5 -38t-2.5 -37q0 -21 9.5 -32t25.5 -11q35 0 84 61.5t58 174.5l11 173q19 8 43 13.5t47 5.5
l-28 -156q-10 -51 -17.5 -112.5t-7.5 -106.5q0 -49 10.5 -63.5t35.5 -18.5v-21q-22 -7 -44.5 -11t-45.5 -4q-12 0 -22 1.5t-19 5.5l27 137h-1q-29 -51 -77 -98.5t-91 -47.5q-33 0 -55 25t-22 67zM145 545q-11 9 -18 22.5t-7 30.5q0 24 19 41.5t49 17.5q13 0 28 -4t31 -13
l42 -23q13 -8 24.5 -12t22.5 -4q14 0 28 18t15 41q10 -10 17 -23t7 -29q0 -26 -21 -46t-48 -20q-16 0 -30 3.5t-27 10.5l-44 24q-15 9 -27 13t-22 4q-14 0 -26 -17t-13 -35z" />
    <glyph glyph-name="Umacron" unicode="&#x16a;" horiz-adv-x="568" 
d="M63 130q0 23 5.5 63t9.5 66l45 332l-56 16v20q22 8 44 11.5t50 3.5q22 0 41 -2.5t35 -7.5v-17q-13 -5 -24 -16t-13 -27l-41 -299q-4 -26 -9 -67t-5 -63q0 -48 30.5 -75t81.5 -27q62 0 112 56.5t65 178.5l37 314l-59 17v20q24 9 41 12t47 3q16 0 32 -2.5t32 -7.5v-17
q-13 -6 -20.5 -14t-8.5 -25l-34 -292q-17 -154 -91 -226t-170 -72q-83 0 -130 36t-47 108zM209 725v55h266v-55h-266z" />
    <glyph glyph-name="umacron" unicode="&#x16b;" horiz-adv-x="437" 
d="M51 81q0 17 4 38t7 37l23 118q5 25 10 61.5t5 59.5q0 25 -12 38t-34 18v17q17 8 36.5 13t42.5 5q24 0 36.5 -12t12.5 -34q0 -25 -7 -68.5t-14 -86.5l-22 -111q-4 -16 -6.5 -38t-2.5 -37q0 -21 9.5 -32t25.5 -11q35 0 84 61.5t58 174.5l11 173q19 8 43 13.5t47 5.5
l-28 -156q-10 -51 -17.5 -112.5t-7.5 -106.5q0 -49 10.5 -63.5t35.5 -18.5v-21q-22 -7 -44.5 -11t-45.5 -4q-12 0 -22 1.5t-19 5.5l27 137h-1q-29 -51 -77 -98.5t-91 -47.5q-33 0 -55 25t-22 67zM141 577v55h266v-55h-266z" />
    <glyph glyph-name="Ubreve" unicode="&#x16c;" horiz-adv-x="568" 
d="M63 130q0 23 5.5 63t9.5 66l45 332l-56 16v20q22 8 44 11.5t50 3.5q22 0 41 -2.5t35 -7.5v-17q-13 -5 -24 -16t-13 -27l-41 -299q-4 -26 -9 -67t-5 -63q0 -48 30.5 -75t81.5 -27q62 0 112 56.5t65 178.5l37 314l-59 17v20q24 9 41 12t47 3q16 0 32 -2.5t32 -7.5v-17
q-13 -6 -20.5 -14t-8.5 -25l-34 -292q-17 -154 -91 -226t-170 -72q-83 0 -130 36t-47 108zM333 674q-39 0 -78 32.5t-68 98.5q13 11 24 18t31 14q22 -59 47.5 -84t49.5 -25q30 0 63.5 31t58.5 81q13 -7 21.5 -16t15.5 -21q-28 -57 -77.5 -93t-87.5 -36z" />
    <glyph glyph-name="ubreve" unicode="&#x16d;" horiz-adv-x="437" 
d="M51 81q0 17 4 38t7 37l23 118q5 25 10 61.5t5 59.5q0 25 -12 38t-34 18v17q17 8 36.5 13t42.5 5q24 0 36.5 -12t12.5 -34q0 -25 -7 -68.5t-14 -86.5l-22 -111q-4 -16 -6.5 -38t-2.5 -37q0 -21 9.5 -32t25.5 -11q35 0 84 61.5t58 174.5l11 173q19 8 43 13.5t47 5.5
l-28 -156q-10 -51 -17.5 -112.5t-7.5 -106.5q0 -49 10.5 -63.5t35.5 -18.5v-21q-22 -7 -44.5 -11t-45.5 -4q-12 0 -22 1.5t-19 5.5l27 137h-1q-29 -51 -77 -98.5t-91 -47.5q-33 0 -55 25t-22 67zM260 526q-39 0 -78 32.5t-68 98.5q13 11 24 18t31 14q22 -59 47.5 -84
t49.5 -25q30 0 63.5 31t58.5 81q13 -7 21.5 -16t15.5 -21q-28 -57 -77.5 -93t-87.5 -36z" />
    <glyph glyph-name="Uring" unicode="&#x16e;" horiz-adv-x="568" 
d="M63 130q0 23 5.5 63t9.5 66l45 332l-56 16v20q22 8 44 11.5t50 3.5q22 0 41 -2.5t35 -7.5v-17q-13 -5 -24 -16t-13 -27l-41 -299q-4 -26 -9 -67t-5 -63q0 -48 30.5 -75t81.5 -27q62 0 112 56.5t65 178.5l37 314l-59 17v20q24 9 41 12t47 3q16 0 32 -2.5t32 -7.5v-17
q-13 -6 -20.5 -14t-8.5 -25l-34 -292q-17 -154 -91 -226t-170 -72q-83 0 -130 36t-47 108zM340 680q-37 0 -62 23.5t-25 62.5q0 37 25 63.5t61 26.5q37 0 62.5 -24.5t25.5 -63.5q0 -37 -26 -62.5t-61 -25.5zM339 713q22 0 35 14t13 39q0 24 -13 40.5t-35 16.5
q-21 0 -34 -16.5t-13 -40.5q0 -23 13 -38t34 -15z" />
    <glyph glyph-name="uring" unicode="&#x16f;" horiz-adv-x="437" 
d="M51 81q0 17 4 38t7 37l23 118q5 25 10 61.5t5 59.5q0 25 -12 38t-34 18v17q17 8 36.5 13t42.5 5q24 0 36.5 -12t12.5 -34q0 -25 -7 -68.5t-14 -86.5l-22 -111q-4 -16 -6.5 -38t-2.5 -37q0 -21 9.5 -32t25.5 -11q35 0 84 61.5t58 174.5l11 173q19 8 43 13.5t47 5.5
l-28 -156q-10 -51 -17.5 -112.5t-7.5 -106.5q0 -49 10.5 -63.5t35.5 -18.5v-21q-22 -7 -44.5 -11t-45.5 -4q-12 0 -22 1.5t-19 5.5l27 137h-1q-29 -51 -77 -98.5t-91 -47.5q-33 0 -55 25t-22 67zM279 530q-37 0 -62 23.5t-25 62.5q0 37 25 63.5t61 26.5q37 0 62.5 -24.5
t25.5 -63.5q0 -37 -26 -62.5t-61 -25.5zM278 563q22 0 35 14t13 39q0 24 -13 40.5t-35 16.5q-21 0 -34 -16.5t-13 -40.5q0 -23 13 -38t34 -15z" />
    <glyph glyph-name="Uhungarumlaut" unicode="&#x170;" horiz-adv-x="568" 
d="M63 130q0 23 5.5 63t9.5 66l45 332l-56 16v20q22 8 44 11.5t50 3.5q22 0 41 -2.5t35 -7.5v-17q-13 -5 -24 -16t-13 -27l-41 -299q-4 -26 -9 -67t-5 -63q0 -48 30.5 -75t81.5 -27q62 0 112 56.5t65 178.5l37 314l-59 17v20q24 9 41 12t47 3q16 0 32 -2.5t32 -7.5v-17
q-13 -6 -20.5 -14t-8.5 -25l-34 -292q-17 -154 -91 -226t-170 -72q-83 0 -130 36t-47 108zM168 664l-7 7q37 27 72.5 72t48.5 87q28 0 44.5 -10t16.5 -27q0 -33 -67.5 -81t-107.5 -48zM349 664l-6 7q37 27 72.5 72t48.5 87q28 0 44.5 -10t16.5 -27q0 -33 -67.5 -81
t-108.5 -48z" />
    <glyph glyph-name="uhungarumlaut" unicode="&#x171;" horiz-adv-x="437" 
d="M51 81q0 17 4 38t7 37l23 118q5 25 10 61.5t5 59.5q0 25 -12 38t-34 18v17q17 8 36.5 13t42.5 5q24 0 36.5 -12t12.5 -34q0 -25 -7 -68.5t-14 -86.5l-22 -111q-4 -16 -6.5 -38t-2.5 -37q0 -21 9.5 -32t25.5 -11q35 0 84 61.5t58 174.5l11 173q19 8 43 13.5t47 5.5
l-28 -156q-10 -51 -17.5 -112.5t-7.5 -106.5q0 -49 10.5 -63.5t35.5 -18.5v-21q-22 -7 -44.5 -11t-45.5 -4q-12 0 -22 1.5t-19 5.5l27 137h-1q-29 -51 -77 -98.5t-91 -47.5q-33 0 -55 25t-22 67zM126 517l-7 7q37 27 72.5 72t48.5 87q28 0 44.5 -10t16.5 -27
q0 -33 -67.5 -81t-107.5 -48zM307 517l-6 7q37 27 72.5 72t48.5 87q28 0 44.5 -10t16.5 -27q0 -33 -67.5 -81t-108.5 -48z" />
    <glyph glyph-name="Uogonek" unicode="&#x172;" horiz-adv-x="568" 
d="M63 130q0 23 5.5 63t9.5 66l45 332l-56 16v20q22 8 44 11.5t50 3.5q22 0 41 -2.5t35 -7.5v-17q-13 -5 -24 -16t-13 -27l-41 -299q-4 -26 -9 -67t-5 -63q0 -48 30.5 -75t81.5 -27q62 0 112 56.5t65 178.5l37 314l-59 17v20q24 9 41 12t47 3q16 0 32 -2.5t32 -7.5v-17
q-13 -6 -20.5 -14t-8.5 -25l-34 -292q-15 -129 -70.5 -200t-130.5 -90l-45 -50q-13 -14 -20.5 -30t-7.5 -32q0 -22 12.5 -35.5t34.5 -13.5q18 0 37 5t38 15q0 -28 -25.5 -47t-63.5 -19q-42 0 -68.5 22.5t-26.5 58.5q0 24 13 46.5t38 42.5l37 29h-13q-83 0 -130 36t-47 108z
" />
    <glyph glyph-name="uogonek" unicode="&#x173;" horiz-adv-x="437" 
d="M51 81q0 17 4 38t7 37l23 118q5 25 10 61.5t5 59.5q0 25 -12 38t-34 18v17q17 8 36.5 13t42.5 5q24 0 36.5 -12t12.5 -34q0 -25 -7 -68.5t-14 -86.5l-22 -111q-4 -16 -6.5 -38t-2.5 -37q0 -21 9.5 -32t25.5 -11q35 0 84 61.5t58 174.5l11 173q19 8 43 13.5t47 5.5
l-28 -156q-10 -51 -17.5 -112.5t-7.5 -106.5q0 -49 10.5 -63.5t35.5 -18.5v-21q-16 -4 -32.5 -8.5t-33.5 -5.5l-44 -48q-13 -14 -20.5 -30t-7.5 -32q0 -22 12.5 -35.5t34.5 -13.5q18 0 37 5t38 15q0 -28 -25.5 -47t-63.5 -19q-42 0 -68.5 22.5t-26.5 58.5q0 24 13 46.5
t38 42.5l44 35q-7 1 -13.5 2.5t-12.5 3.5l27 137h-1q-29 -51 -77 -98.5t-91 -47.5q-33 0 -55 25t-22 67z" />
    <glyph glyph-name="Wcircumflex" unicode="&#x174;" horiz-adv-x="708" 
d="M154 -10l-79 600l-51 17v20q22 8 43 11.5t42 3.5q22 0 41 -2t38 -8v-17q-13 -4 -19.5 -12.5t-5.5 -16.5l47 -464h1l162 513l92 5l40 -536h1l154 487l-53 16v20q22 7 46.5 11t49.5 4q15 0 30 -2.5t28 -7.5v-17q-13 -4 -22 -11.5t-13 -17.5l-212 -593l-71 -3l-46 563h-1
l-175 -560zM308 678q-13 7 -21 15t-15 18l142 131l37 6l117 -154l-14 -14q-18 0 -35.5 9.5t-43.5 34.5q-13 13 -26 32t-21 39z" />
    <glyph glyph-name="wcircumflex" unicode="&#x175;" horiz-adv-x="605" 
d="M98 -17l-35 450l-44 17v21q23 8 41.5 11.5t40.5 3.5q10 0 20.5 -1.5t20.5 -4.5l15 -403h1q44 51 87.5 169t43.5 229q12 5 24.5 8t23.5 3q25 0 37.5 -10.5t13.5 -32.5l19 -363h1q51 66 85.5 154.5t34.5 154.5q0 24 -8 39t-30 28v17q13 6 28 10t34 4q22 0 37.5 -15
t15.5 -46q0 -93 -63 -216t-143 -198q-13 -12 -20.5 -18t-17.5 -11h-17l-14 486h-1q-1 -131 -53 -262.5t-116 -191.5q-12 -10 -22 -18t-20 -14h-20zM231 529q-13 7 -21 15t-15 18l142 131l37 6l117 -154l-14 -14q-18 0 -35.5 9.5t-43.5 34.5q-13 13 -26 32t-21 39z" />
    <glyph glyph-name="Ycircumflex" unicode="&#x176;" horiz-adv-x="438" 
d="M119 2v17q13 5 22 16.5t10 27.5l26 200l-115 330l-50 14v20q21 8 41 11.5t40 3.5q22 0 42 -2.5t39 -7.5v-17q-14 -3 -21 -12.5t-4 -18.5l84 -259h1l147 269l-54 13v20q21 7 44 11t48 4q15 0 30 -2.5t28 -7.5v-17q-13 -4 -21.5 -11t-15.5 -20l-186 -320l-26 -223l64 -14
v-20q-22 -7 -47 -11t-53 -4q-22 0 -40 3t-33 7zM161 677q-13 7 -21 15t-15 18l142 131l37 6l117 -154l-14 -14q-18 0 -35.5 9.5t-43.5 34.5q-13 13 -26 32t-21 39z" />
    <glyph glyph-name="ycircumflex" unicode="&#x177;" horiz-adv-x="365" 
d="M107 -42l14 34l-66 440l-44 18v21q23 8 41.5 12t40.5 4q10 0 20.5 -2t20.5 -5l45 -405h1q43 75 76.5 175.5t33.5 148.5q0 21 -9.5 34.5t-25.5 22.5v16q13 7 29 11t34 4q25 0 38.5 -14.5t13.5 -45.5q0 -33 -22 -97.5t-67 -151.5l-113 -221q-54 -107 -111.5 -153.5
t-108.5 -46.5q-37 0 -57.5 14.5t-20.5 37.5q0 8 1.5 18.5t5.5 17.5q20 -11 44 -15.5t49 -4.5q34 0 71 31.5t66 101.5zM93 529q-13 7 -21 15t-15 18l142 131l37 6l117 -154l-14 -14q-18 0 -35.5 9.5t-43.5 34.5q-13 13 -26 32t-21 39z" />
    <glyph glyph-name="Ydieresis" unicode="&#x178;" horiz-adv-x="438" 
d="M119 2v17q13 5 22 16.5t10 27.5l26 200l-115 330l-50 14v20q21 8 41 11.5t40 3.5q22 0 42 -2.5t39 -7.5v-17q-14 -3 -21 -12.5t-4 -18.5l84 -259h1l147 269l-54 13v20q21 7 44 11t48 4q15 0 30 -2.5t28 -7.5v-17q-13 -4 -21.5 -11t-15.5 -20l-186 -320l-26 -223l64 -14
v-20q-22 -7 -47 -11t-53 -4q-22 0 -40 3t-33 7zM196 688q-16 0 -25 11.5t-9 31.5t13 35.5t33 15.5q15 0 24.5 -10.5t9.5 -32.5q0 -21 -13 -36t-33 -15zM345 688q-16 0 -25 11.5t-9 31.5t13 35.5t33 15.5q15 0 24.5 -10.5t9.5 -32.5q0 -21 -13 -36t-33 -15z" />
    <glyph glyph-name="Zacute" unicode="&#x179;" horiz-adv-x="426" 
d="M4 0v21l331 562h-147q-32 0 -53 -15.5t-40 -53.5l-7 -14h-31l21 136h361v-21l-329 -562h168q36 0 56.5 15.5t34.5 49.5l8 19h34l-23 -137h-384zM207 669q25 26 48 79t30 99q32 0 47.5 -12t15.5 -34q0 -34 -43 -78.5t-83 -57.5z" />
    <glyph glyph-name="zacute" unicode="&#x17a;" horiz-adv-x="336" 
d="M-16 -8l267 419h-107q-33 0 -50.5 -8t-24.5 -23l-8 -17l-23 4q0 52 23 84t63 32q53 0 92.5 -3.5t58.5 -3.5t39 1.5t40 4.5q-60 -115 -124.5 -216t-136.5 -204h127q40 0 58 7t25 23l10 21l20 -2q0 -63 -26 -93t-81 -30q-33 0 -86 5t-82 5q-17 0 -38 -1.5t-36 -4.5z
M159 519q25 26 48 79t30 99q32 0 47.5 -12t15.5 -34q0 -34 -43 -78.5t-83 -57.5z" />
    <glyph glyph-name="Zdotaccent" unicode="&#x17b;" horiz-adv-x="426" 
d="M4 0v21l331 562h-147q-32 0 -53 -15.5t-40 -53.5l-7 -14h-31l21 136h361v-21l-329 -562h168q36 0 56.5 15.5t34.5 49.5l8 19h34l-23 -137h-384zM270 709q-16 0 -25 10.5t-9 28.5q0 20 13 35t31 15q15 0 24 -11.5t9 -30.5q0 -20 -13.5 -33.5t-29.5 -13.5z" />
    <glyph glyph-name="zdotaccent" unicode="&#x17c;" horiz-adv-x="336" 
d="M-16 -8l267 419h-107q-33 0 -50.5 -8t-24.5 -23l-8 -17l-23 4q0 52 23 84t63 32q53 0 92.5 -3.5t58.5 -3.5t39 1.5t40 4.5q-60 -115 -124.5 -216t-136.5 -204h127q40 0 58 7t25 23l10 21l20 -2q0 -63 -26 -93t-81 -30q-33 0 -86 5t-82 5q-17 0 -38 -1.5t-36 -4.5z
M222 560q-16 0 -25 10.5t-9 28.5q0 20 13 35t31 15q15 0 24 -11.5t9 -30.5q0 -20 -13.5 -33.5t-29.5 -13.5z" />
    <glyph glyph-name="Zcaron" unicode="&#x17d;" horiz-adv-x="426" 
d="M4 0v21l331 562h-147q-32 0 -53 -15.5t-40 -53.5l-7 -14h-31l21 136h361v-21l-329 -562h168q36 0 56.5 15.5t34.5 49.5l8 19h34l-23 -137h-384zM245 673l-116 143q14 11 27 18t32 13l85 -120l119 119q13 -7 21.5 -14t17.5 -18l-146 -134z" />
    <glyph glyph-name="zcaron" unicode="&#x17e;" horiz-adv-x="336" 
d="M-16 -8l267 419h-107q-33 0 -50.5 -8t-24.5 -23l-8 -17l-23 4q0 52 23 84t63 32q53 0 92.5 -3.5t58.5 -3.5t39 1.5t40 4.5q-60 -115 -124.5 -216t-136.5 -204h127q40 0 58 7t25 23l10 21l20 -2q0 -63 -26 -93t-81 -30q-33 0 -86 5t-82 5q-17 0 -38 -1.5t-36 -4.5z
M188 524l-116 143q14 11 27 18t32 13l85 -120l119 119q13 -7 21.5 -14t17.5 -18l-146 -134z" />
    <glyph glyph-name="florin" unicode="&#x192;" horiz-adv-x="519" 
d="M55 -164q39 4 73 31.5t38 68.5l36 357h-122q0 25 14 38t31 13h81l14 148q7 67 59 111.5t127 44.5q69 0 89.5 -10.5t20.5 -29.5q0 -11 -3.5 -22.5t-9.5 -23.5q-28 16 -59 24.5t-58 8.5q-34 0 -60.5 -24.5t-30.5 -75.5l-15 -151h108q17 0 33 1t35 3q0 -30 -16 -42.5
t-62 -12.5h-102l-32 -349q-6 -72 -43.5 -107t-80.5 -35q-15 0 -34.5 5.5t-30.5 12.5v16z" />
    <glyph glyph-name="uni0218" unicode="&#x218;" horiz-adv-x="408" 
d="M12 9l12 129h33l3 -22q7 -43 29.5 -58.5t71.5 -15.5q51 0 86.5 28t35.5 75q0 31 -17 60t-68 78l-66 63q-34 33 -47.5 61t-13.5 65q0 69 56 121t140 52q43 0 74 -6t55 -18l-12 -125h-29l-2 18q-4 39 -27 57.5t-68 18.5q-52 0 -81 -28t-29 -70q0 -27 12 -47.5t48 -52.5
l66 -59q53 -47 73 -82t20 -75q0 -82 -66.5 -135.5t-150.5 -53.5q-39 0 -75 6t-63 16zM156 -51q21 0 34 -13.5t13 -35.5q0 -43 -31 -82.5t-50 -39.5q-5 0 -9 1.5t-8 4.5q12 19 18 40.5t6 47.5l-30 38q10 18 25.5 28.5t31.5 10.5z" />
    <glyph glyph-name="uni0219" unicode="&#x219;" horiz-adv-x="312" 
d="M1 44q0 13 4 23t11 19q21 -20 45.5 -31t52.5 -11q35 0 60 19t25 50q0 25 -12.5 45.5t-49.5 53.5l-35 32q-34 31 -46.5 55.5t-12.5 57.5q0 49 43 90.5t112 41.5q54 0 81.5 -15t27.5 -39q0 -13 -5 -27.5t-13 -24.5q-22 22 -51.5 35.5t-57.5 13.5q-33 0 -50 -16t-17 -40
q0 -22 12.5 -39.5t49.5 -51.5l38 -34q36 -32 50 -57.5t14 -58.5q0 -59 -53.5 -103.5t-131.5 -44.5q-47 0 -69 14.5t-22 42.5zM124 -51q21 0 34 -13.5t13 -35.5q0 -43 -31 -82.5t-50 -39.5q-5 0 -9 1.5t-8 4.5q12 19 18 40.5t6 47.5l-30 38q10 18 25.5 28.5t31.5 10.5z" />
    <glyph glyph-name="uni021A" unicode="&#x21a;" 
d="M130 2v17q14 5 25.5 16.5t12.5 27.5l62 522h-68q-42 0 -62.5 -16.5t-30.5 -47.5l-7 -18h-27l15 137q54 -2 118 -4.5t115 -2.5q49 0 105.5 1.5t110.5 7.5l-15 -139h-27l-2 20q-4 33 -18.5 47.5t-39.5 14.5h-88l-65 -542l65 -16v-20q-22 -7 -45 -11t-55 -4q-22 0 -42.5 3
t-36.5 7zM217 -51q21 0 34 -13.5t13 -35.5q0 -43 -31 -82.5t-50 -39.5q-5 0 -9 1.5t-8 4.5q12 19 18 40.5t6 47.5l-30 38q10 18 25.5 28.5t31.5 10.5z" />
    <glyph glyph-name="uni021B" unicode="&#x21b;" horiz-adv-x="261" 
d="M58 111q0 46 9.5 116t21.5 127l13 64q-16 0 -28 1t-28 2v13q24 34 59.5 65.5t75.5 54.5h15l-17 -82h29q21 0 39 1.5t38 5.5q0 -32 -20 -47t-67 -15h-28l-17 -104q-6 -36 -13 -88.5t-7 -82.5q0 -49 22 -72t55 -23q12 0 21 1.5t20 5.5v-18q-7 -18 -32 -33t-60 -15
q-49 0 -75 32t-26 91zM142 -51q21 0 34 -13.5t13 -35.5q0 -43 -31 -82.5t-50 -39.5q-5 0 -9 1.5t-8 4.5q12 19 18 40.5t6 47.5l-30 38q10 18 25.5 28.5t31.5 10.5z" />
    <glyph glyph-name="circumflex" unicode="&#x2c6;" 
d="M150 529q-13 7 -21 15t-15 18l142 131l37 6l117 -154l-14 -14q-18 0 -35.5 9.5t-43.5 34.5q-13 13 -26 32t-21 39z" />
    <glyph glyph-name="caron" unicode="&#x2c7;" 
d="M243 524l-116 143q14 11 27 18t32 13l85 -120l119 119q13 -7 21.5 -14t17.5 -18l-146 -134z" />
    <glyph glyph-name="uni02C9" unicode="&#x2c9;" horiz-adv-x="242" 
d="M14 546l9 57h219l-9 -57h-219z" />
    <glyph glyph-name="breve" unicode="&#x2d8;" 
d="M260 526q-39 0 -78 32.5t-68 98.5q13 11 24 18t31 14q22 -59 47.5 -84t49.5 -25q30 0 63.5 31t58.5 81q13 -7 21.5 -16t15.5 -21q-28 -57 -77.5 -93t-87.5 -36z" />
    <glyph glyph-name="dotaccent" unicode="&#x2d9;" 
d="M257 560q-16 0 -25 10.5t-9 28.5q0 20 13 35t31 15q15 0 24 -11.5t9 -30.5q0 -20 -13.5 -33.5t-29.5 -13.5z" />
    <glyph glyph-name="ring" unicode="&#x2da;" 
d="M272 530q-37 0 -62 23.5t-25 62.5q0 37 25 63.5t61 26.5q37 0 62.5 -24.5t25.5 -63.5q0 -37 -26 -62.5t-61 -25.5zM271 563q22 0 35 14t13 39q0 24 -13 40.5t-35 16.5q-21 0 -34 -16.5t-13 -40.5q0 -23 13 -38t34 -15z" />
    <glyph glyph-name="ogonek" unicode="&#x2db;" horiz-adv-x="270" 
d="M52 -43l62 49h34l-57 -62q-13 -14 -20.5 -30t-7.5 -32q0 -22 12.5 -35.5t34.5 -13.5q18 0 37 5t38 15q0 -28 -25.5 -47t-63.5 -19q-42 0 -68.5 22.5t-26.5 58.5q0 24 13 46.5t38 42.5z" />
    <glyph glyph-name="tilde" unicode="&#x2dc;" 
d="M154 545q-11 9 -18 22.5t-7 30.5q0 24 19 41.5t49 17.5q13 0 28 -4t31 -13l42 -23q13 -8 24.5 -12t22.5 -4q14 0 28 18t15 41q10 -10 17 -23t7 -29q0 -26 -21 -46t-48 -20q-16 0 -30 3.5t-27 10.5l-44 24q-15 9 -27 13t-22 4q-14 0 -26 -17t-13 -35z" />
    <glyph glyph-name="hungarumlaut" unicode="&#x2dd;" 
d="M93 531l-7 7q37 27 72.5 72t48.5 87q28 0 44.5 -10t16.5 -27q0 -33 -67.5 -81t-107.5 -48zM274 531l-6 7q37 27 72.5 72t48.5 87q28 0 44.5 -10t16.5 -27q0 -33 -67.5 -81t-108.5 -48z" />
    <glyph glyph-name="uni0394" unicode="&#x394;" horiz-adv-x="560" 
d="M2 0l343 670l179 -670h-522zM74 43h359l-122 467z" />
    <glyph glyph-name="uni03A9" unicode="&#x3a9;" horiz-adv-x="576" 
d="M22 0l19 124h25l2 -21q3 -29 27 -38.5t61 -9.5h18l6 47q-56 25 -88.5 79t-32.5 137q0 153 86.5 241t198.5 88q86 0 139.5 -55t53.5 -155q0 -136 -53 -218t-135 -113l-7 -51h28q37 0 60 12.5t34 35.5l9 21h29l-27 -124h-187l18 150q61 16 102.5 83.5t41.5 186.5
q0 89 -35 129t-87 40q-71 0 -127 -68.5t-56 -184.5q0 -79 25.5 -124t62.5 -60l-18 -152h-193z" />
    <glyph glyph-name="uni03BC" unicode="&#x3bc;" horiz-adv-x="434" 
d="M105 -1l-41 -237h-70l91 512q5 25 10 61.5t5 59.5q0 25 -12 38t-34 18v17q17 8 36.5 13t42.5 5q24 0 36.5 -12t12.5 -34q0 -25 -7 -68.5t-14 -86.5l-22 -111q-4 -16 -6.5 -38t-2.5 -37q0 -21 9.5 -32t25.5 -11q35 0 84 61.5t58 174.5l11 173q19 8 43 13.5t47 5.5
l-28 -156q-10 -52 -17.5 -115.5t-7.5 -103.5q0 -49 10.5 -63.5t35.5 -18.5v-21q-22 -7 -44.5 -11t-45.5 -4q-12 0 -22 1.5t-19 5.5l27 137h-1q-29 -50 -75.5 -98t-81.5 -48q-10 0 -17.5 2t-16.5 8z" />
    <glyph glyph-name="pi" unicode="&#x3c0;" horiz-adv-x="517" 
d="M84 37q0 21 5 61.5t9 70.5l26 223q2 22 0 36.5t-15 23.5v10h341l-34 -276q-3 -22 -6 -55t-3 -52q0 -25 9.5 -37.5t30.5 -19.5v-17q-16 -7 -34.5 -10.5t-40.5 -3.5q-24 0 -36 12t-12 34q0 21 5 61.5t9 70.5l28 240h-162l-28 -223q-3 -22 -6 -55t-3 -52q0 -25 9.5 -37.5
t30.5 -19.5v-17q-16 -7 -34.5 -10.5t-40.5 -3.5q-24 0 -36 12t-12 34z" />
    <glyph glyph-name="Wgrave" unicode="&#x1e80;" horiz-adv-x="708" 
d="M154 -10l-79 600l-51 17v20q22 8 43 11.5t42 3.5q22 0 41 -2t38 -8v-17q-13 -4 -19.5 -12.5t-5.5 -16.5l47 -464h1l162 513l92 5l40 -536h1l154 487l-53 16v20q22 7 46.5 11t49.5 4q15 0 30 -2.5t28 -7.5v-17q-13 -4 -22 -11.5t-13 -17.5l-212 -593l-71 -3l-46 563h-1
l-175 -560zM450 672q-40 13 -83 57.5t-43 78.5q0 22 16 34t48 12q7 -46 29.5 -99t47.5 -79z" />
    <glyph glyph-name="wgrave" unicode="&#x1e81;" horiz-adv-x="605" 
d="M98 -17l-35 450l-44 17v21q23 8 41.5 11.5t40.5 3.5q10 0 20.5 -1.5t20.5 -4.5l15 -403h1q44 51 87.5 169t43.5 229q12 5 24.5 8t23.5 3q25 0 37.5 -10.5t13.5 -32.5l19 -363h1q51 66 85.5 154.5t34.5 154.5q0 24 -8 39t-30 28v17q13 6 28 10t34 4q22 0 37.5 -15
t15.5 -46q0 -93 -63 -216t-143 -198q-13 -12 -20.5 -18t-17.5 -11h-17l-14 486h-1q-1 -131 -53 -262.5t-116 -191.5q-12 -10 -22 -18t-20 -14h-20zM360 515q-40 13 -83 57.5t-43 78.5q0 22 16 34t48 12q7 -46 29.5 -99t47.5 -79z" />
    <glyph glyph-name="Wacute" unicode="&#x1e82;" horiz-adv-x="708" 
d="M154 -10l-79 600l-51 17v20q22 8 43 11.5t42 3.5q22 0 41 -2t38 -8v-17q-13 -4 -19.5 -12.5t-5.5 -16.5l47 -464h1l162 513l92 5l40 -536h1l154 487l-53 16v20q22 7 46.5 11t49.5 4q15 0 30 -2.5t28 -7.5v-17q-13 -4 -22 -11.5t-13 -17.5l-212 -593l-71 -3l-46 563h-1
l-175 -560zM367 676q25 26 48 79t30 99q32 0 47.5 -12t15.5 -34q0 -34 -43 -78.5t-83 -57.5z" />
    <glyph glyph-name="wacute" unicode="&#x1e83;" horiz-adv-x="605" 
d="M98 -17l-35 450l-44 17v21q23 8 41.5 11.5t40.5 3.5q10 0 20.5 -1.5t20.5 -4.5l15 -403h1q44 51 87.5 169t43.5 229q12 5 24.5 8t23.5 3q25 0 37.5 -10.5t13.5 -32.5l19 -363h1q51 66 85.5 154.5t34.5 154.5q0 24 -8 39t-30 28v17q13 6 28 10t34 4q22 0 37.5 -15
t15.5 -46q0 -93 -63 -216t-143 -198q-13 -12 -20.5 -18t-17.5 -11h-17l-14 486h-1q-1 -131 -53 -262.5t-116 -191.5q-12 -10 -22 -18t-20 -14h-20zM276 519q25 26 48 79t30 99q32 0 47.5 -12t15.5 -34q0 -34 -43 -78.5t-83 -57.5z" />
    <glyph glyph-name="Wdieresis" unicode="&#x1e84;" horiz-adv-x="708" 
d="M154 -10l-79 600l-51 17v20q22 8 43 11.5t42 3.5q22 0 41 -2t38 -8v-17q-13 -4 -19.5 -12.5t-5.5 -16.5l47 -464h1l162 513l92 5l40 -536h1l154 487l-53 16v20q22 7 46.5 11t49.5 4q15 0 30 -2.5t28 -7.5v-17q-13 -4 -22 -11.5t-13 -17.5l-212 -593l-71 -3l-46 563h-1
l-175 -560zM348 704q-16 0 -25 11.5t-9 31.5t13 35.5t33 15.5q15 0 24.5 -10.5t9.5 -32.5q0 -21 -13 -36t-33 -15zM497 704q-16 0 -25 11.5t-9 31.5t13 35.5t33 15.5q15 0 24.5 -10.5t9.5 -32.5q0 -21 -13 -36t-33 -15z" />
    <glyph glyph-name="wdieresis" unicode="&#x1e85;" horiz-adv-x="605" 
d="M98 -17l-35 450l-44 17v21q23 8 41.5 11.5t40.5 3.5q10 0 20.5 -1.5t20.5 -4.5l15 -403h1q44 51 87.5 169t43.5 229q12 5 24.5 8t23.5 3q25 0 37.5 -10.5t13.5 -32.5l19 -363h1q51 66 85.5 154.5t34.5 154.5q0 24 -8 39t-30 28v17q13 6 28 10t34 4q22 0 37.5 -15
t15.5 -46q0 -93 -63 -216t-143 -198q-13 -12 -20.5 -18t-17.5 -11h-17l-14 486h-1q-1 -131 -53 -262.5t-116 -191.5q-12 -10 -22 -18t-20 -14h-20zM265 568q-16 0 -25 11.5t-9 31.5t13 35.5t33 15.5q15 0 24.5 -10.5t9.5 -32.5q0 -21 -13 -36t-33 -15zM414 568
q-16 0 -25 11.5t-9 31.5t13 35.5t33 15.5q15 0 24.5 -10.5t9.5 -32.5q0 -21 -13 -36t-33 -15z" />
    <glyph glyph-name="Ygrave" unicode="&#x1ef2;" horiz-adv-x="438" 
d="M119 2v17q13 5 22 16.5t10 27.5l26 200l-115 330l-50 14v20q21 8 41 11.5t40 3.5q22 0 42 -2.5t39 -7.5v-17q-14 -3 -21 -12.5t-4 -18.5l84 -259h1l147 269l-54 13v20q21 7 44 11t48 4q15 0 30 -2.5t28 -7.5v-17q-13 -4 -21.5 -11t-15.5 -20l-186 -320l-26 -223l64 -14
v-20q-22 -7 -47 -11t-53 -4q-22 0 -40 3t-33 7zM281 665q-40 13 -83 57.5t-43 78.5q0 22 16 34t48 12q7 -46 29.5 -99t47.5 -79z" />
    <glyph glyph-name="ygrave" unicode="&#x1ef3;" horiz-adv-x="365" 
d="M107 -42l14 34l-66 440l-44 18v21q23 8 41.5 12t40.5 4q10 0 20.5 -2t20.5 -5l45 -405h1q43 75 76.5 175.5t33.5 148.5q0 21 -9.5 34.5t-25.5 22.5v16q13 7 29 11t34 4q25 0 38.5 -14.5t13.5 -45.5q0 -33 -22 -97.5t-67 -151.5l-113 -221q-54 -107 -111.5 -153.5
t-108.5 -46.5q-37 0 -57.5 14.5t-20.5 37.5q0 8 1.5 18.5t5.5 17.5q20 -11 44 -15.5t49 -4.5q34 0 71 31.5t66 101.5zM248 515q-40 13 -83 57.5t-43 78.5q0 22 16 34t48 12q7 -46 29.5 -99t47.5 -79z" />
    <glyph glyph-name="endash" unicode="&#x2013;" horiz-adv-x="500" 
d="M0 260l7 53h500l-7 -53h-500z" />
    <glyph glyph-name="emdash" unicode="&#x2014;" horiz-adv-x="1000" 
d="M0 260l7 53h1000l-7 -53h-1000z" />
    <glyph glyph-name="quoteleft" unicode="&#x2018;" horiz-adv-x="245" 
d="M142 467q-19 0 -34.5 16t-15.5 46q0 64 50.5 119.5t78.5 55.5q8 0 14 -1.5t11 -3.5q-33 -32 -53.5 -74t-20.5 -74l37 -42q-13 -19 -32 -30.5t-35 -11.5z" />
    <glyph glyph-name="quoteright" unicode="&#x2019;" horiz-adv-x="245" 
d="M66 471q34 32 54.5 74t20.5 74l-37 42q13 19 31.5 30.5t35.5 11.5q19 0 34.5 -16t15.5 -45q0 -65 -50.5 -120t-78.5 -55q-8 0 -14 1t-12 3z" />
    <glyph glyph-name="quotesinglbase" unicode="&#x201a;" horiz-adv-x="245" 
d="M55 66q13 19 31.5 30.5t34.5 11.5q20 0 35.5 -16t15.5 -45q0 -65 -50.5 -120.5t-78.5 -55.5q-8 0 -14 1.5t-12 3.5q33 32 54 74t21 74z" />
    <glyph glyph-name="quotedblleft" unicode="&#x201c;" horiz-adv-x="379" 
d="M136 467q-19 0 -34 16t-15 46q0 64 50 119.5t79 55.5q7 0 13 -1.5t12 -3.5q-34 -32 -55 -74t-21 -74l38 -42q-13 -19 -32 -30.5t-35 -11.5zM289 467q-19 0 -34.5 16t-15.5 46q0 64 50.5 119.5t78.5 55.5q8 0 14 -1.5t12 -3.5q-34 -32 -54.5 -74t-20.5 -74l37 -42
q-13 -19 -32 -30.5t-35 -11.5z" />
    <glyph glyph-name="quotedblright" unicode="&#x201d;" horiz-adv-x="379" 
d="M63 471q34 32 54.5 74t20.5 74l-37 42q13 19 31.5 30.5t34.5 11.5q20 0 35.5 -16t15.5 -45q0 -65 -50.5 -120t-78.5 -55q-8 0 -14 1t-12 3zM213 471q34 32 54.5 74t20.5 74l-38 42q13 19 32 30.5t36 11.5q19 0 34 -16t15 -45q0 -65 -50 -120t-79 -55q-7 0 -13 1t-12 3z
" />
    <glyph glyph-name="quotedblbase" unicode="&#x201e;" horiz-adv-x="379" 
d="M48 66q13 19 31.5 30.5t34.5 11.5q19 0 34.5 -16t15.5 -45q0 -65 -50.5 -120.5t-78.5 -55.5q-7 0 -13 1.5t-13 3.5q34 32 55 74t21 74zM154 -124q33 32 54 74t21 74l-37 42q13 19 31.5 30.5t34.5 11.5q19 0 34.5 -16t15.5 -45q0 -65 -50.5 -120.5t-78.5 -55.5
q-7 0 -13.5 1.5t-11.5 3.5z" />
    <glyph glyph-name="dagger" unicode="&#x2020;" horiz-adv-x="487" 
d="M167 -110l60 537l-166 -13q-5 11 -8 22.5t-3 19.5v11t1 12q37 0 90 -4t91 -14l7 61q3 24 -1 55.5t-13 50.5q15 7 30 10.5t28 3.5q11 0 20.5 -3.5t18.5 -6.5q-9 -19 -16 -43.5t-11 -50.5l-9 -77q41 10 94.5 14t90.5 4q-2 -19 -8.5 -34.5t-16.5 -30.5l-164 13l-60 -533
q-7 -55 -14.5 -80.5t-29.5 -56.5q-13 31 -15 56.5t4 76.5z" />
    <glyph glyph-name="daggerdbl" unicode="&#x2021;" horiz-adv-x="487" 
d="M233 213q-12 31 -14.5 52.5t1.5 57.5l11 104l-166 -13q-5 11 -8 22.5t-3 22.5v10t1 10q37 0 90 -4t91 -14l7 56q3 27 0 56.5t-14 54.5q19 7 31 10.5t26 3.5q11 0 21 -3t19 -7q-8 -16 -16 -43t-10 -48l-10 -80q41 10 94.5 14t90.5 4q-3 -21 -8.5 -35t-16.5 -30l-164 13
l-12 -98q-5 -43 -13.5 -66.5t-27.5 -49.5zM16 -15l164 -13l12 98q5 43 13.5 66.5t27.5 49.5q13 -31 15.5 -52.5t-1.5 -57.5l-12 -104l167 13q4 -11 7.5 -22.5t3.5 -22.5q0 -5 -0.5 -10t-1.5 -10q-37 0 -90 4t-90 14l-7 -56q-4 -27 -1 -56.5t14 -54.5q-19 -7 -31 -10.5
t-26 -3.5q-11 0 -21 3t-19 7q8 16 16 43t10 48l10 80q-40 -10 -94 -14t-91 -4q3 21 9 35t16 30z" />
    <glyph glyph-name="bullet" unicode="&#x2022;" horiz-adv-x="361" 
d="M181 140q-51 0 -86 37t-35 87t35 87t86 37t85.5 -37t34.5 -87t-34.5 -87t-85.5 -37z" />
    <glyph glyph-name="ellipsis" unicode="&#x2026;" horiz-adv-x="626" 
d="M35 41q0 27 17.5 46.5t41.5 19.5q22 0 35 -14.5t13 -39.5q0 -26 -17.5 -44.5t-41.5 -18.5q-22 0 -35 14t-13 37zM234 41q0 27 17.5 46.5t40.5 19.5t36 -14.5t13 -39.5q0 -26 -18 -44.5t-41 -18.5t-35.5 14t-12.5 37zM433 41q0 27 17 46.5t42 19.5q22 0 34.5 -14.5
t12.5 -39.5q0 -26 -17 -44.5t-41 -18.5q-22 0 -35 14t-13 37z" />
    <glyph glyph-name="perthousand" unicode="&#x2030;" horiz-adv-x="1048" 
d="M80 -33l517 717l34 -21l-517 -717zM189 308q-59 0 -88.5 34.5t-29.5 97.5q0 90 49 147t120 57q58 0 87.5 -34.5t29.5 -97.5q0 -90 -49 -147t-119 -57zM197 348q34 0 62 43.5t28 120.5q0 49 -15.5 70.5t-40.5 21.5q-34 0 -62 -43.5t-28 -120.5q0 -49 15.5 -70.5
t40.5 -21.5zM371 120q0 90 49 147t120 57q58 0 87.5 -34.5t29.5 -97.5q0 -90 -49 -147t-119 -57q-59 0 -88.5 34.5t-29.5 97.5zM707 120q0 90 49 147t120 57q58 0 87.5 -34.5t29.5 -97.5q0 -90 -49 -147t-119 -57q-59 0 -88.5 34.5t-29.5 97.5zM441 120q0 -49 15.5 -70.5
t40.5 -21.5q34 0 62 43.5t28 120.5q0 49 -15.5 70.5t-40.5 21.5q-34 0 -62 -43.5t-28 -120.5zM777 120q0 -49 15.5 -70.5t40.5 -21.5q34 0 62 43.5t28 120.5q0 49 -15.5 70.5t-40.5 21.5q-34 0 -62 -43.5t-28 -120.5z" />
    <glyph glyph-name="guilsinglleft" unicode="&#x2039;" horiz-adv-x="262" 
d="M85 138l-52 116l59 78q46 62 73.5 84.5t46.5 22.5q15 0 25 -4t21 -14q-34 -27 -63 -56.5t-56 -63.5l-34 -44l41 -80q16 -31 33 -56t39 -45q-13 -5 -28.5 -8.5t-30.5 -3.5q-19 0 -37 15.5t-37 58.5z" />
    <glyph glyph-name="guilsinglright" unicode="&#x203a;" horiz-adv-x="262" 
d="M50 62q-15 0 -25 4.5t-21 14.5q34 26 63 56t56 63l34 44l-41 81q-16 31 -33.5 55.5t-39.5 44.5q14 5 29.5 8.5t29.5 3.5q19 0 37.5 -15.5t37.5 -57.5l52 -116l-59 -79q-46 -62 -73.5 -84.5t-46.5 -22.5z" />
    <glyph glyph-name="fraction" unicode="&#x2044;" horiz-adv-x="10" 
d="M-306 -102l-38 22l650 753l38 -21z" />
    <glyph glyph-name="Euro" unicode="&#x20ac;" horiz-adv-x="519" 
d="M37 224l3 34l64 4q1 20 2.5 39.5t4.5 37.5l-65 -4l3 34l69 4q30 138 107.5 206t164.5 68q38 0 65 -4t55 -14l-19 -128h-26l-5 24q-7 37 -27 52.5t-56 15.5q-51 0 -103.5 -52.5t-76.5 -162.5l262 16l-3 -32l-265 -18q-3 -18 -4.5 -37.5t-2.5 -39.5l266 16l-3 -32l-264 -18
q0 -97 35.5 -145t84.5 -48q46 0 73 16.5t46 57.5l10 25h28l-16 -122q-34 -16 -71.5 -24t-86.5 -8q-84 0 -133.5 59t-49.5 181v3z" />
    <glyph glyph-name="trademark" unicode="&#x2122;" horiz-adv-x="724" 
d="M145 323v12q8 2 14.5 8t7.5 13l30 246h-32q-25 0 -34.5 -7t-16.5 -23l-4 -8h-18l9 74q31 -1 67.5 -2.5t65.5 -1.5q28 0 60 1t63 3l-10 -74h-20v9q-2 16 -10.5 22.5t-23.5 6.5h-35l-32 -256l38 -8v-14q-13 -3 -30.5 -5t-35.5 -2q-13 0 -28.5 1.5t-24.5 4.5zM348 323v12
q7 2 13 6.5t8 11.5l61 251l-29 10v15q10 3 27.5 5t30.5 2h26l36 -218h2l79 218h17q10 0 26.5 -1t29.5 -3v-17l-27 -9l12 -260l30 -8v-14q-13 -3 -25.5 -5t-25.5 -2q-16 0 -32 1.5t-26 4.5v12q8 3 13 8.5t5 16.5l1 198h-1l-88 -245l-15 2l-45 245h-1l-44 -214l28 -8v-14
q-10 -4 -21.5 -5.5t-23.5 -1.5q-11 0 -22 1.5t-19 4.5z" />
    <glyph glyph-name="uni2126" unicode="&#x2126;" horiz-adv-x="576" 
d="M22 0l19 124h25l2 -21q3 -29 27 -38.5t61 -9.5h18l6 47q-56 25 -88.5 79t-32.5 137q0 153 86.5 241t198.5 88q86 0 139.5 -55t53.5 -155q0 -136 -53 -218t-135 -113l-7 -51h28q37 0 60 12.5t34 35.5l9 21h29l-27 -124h-187l18 150q61 16 102.5 83.5t41.5 186.5
q0 89 -35 129t-87 40q-71 0 -127 -68.5t-56 -184.5q0 -79 25.5 -124t62.5 -60l-18 -152h-193z" />
    <glyph glyph-name="arrowleft" unicode="&#x2190;" horiz-adv-x="864" 
d="M35 319l218 218l36 -37q-22 -37 -51.5 -73t-67.5 -70v-2h659v-72h-659v-2q38 -34 68 -70t52 -73l-37 -37z" />
    <glyph glyph-name="arrowup" unicode="&#x2191;" horiz-adv-x="546" 
d="M273 696l218 -218l-37 -36q-37 22 -73 52t-70 67h-2v-659h-72v659h-2q-34 -38 -70.5 -67.5t-73.5 -51.5l-36 36z" />
    <glyph glyph-name="arrowright" unicode="&#x2192;" horiz-adv-x="864" 
d="M829 319l-218 -218l-37 37q22 37 51 73t69 70v2h-659v72h659v2q-38 34 -67.5 70t-51.5 73l36 37z" />
    <glyph glyph-name="arrowdown" unicode="&#x2193;" horiz-adv-x="546" 
d="M273 -98l-218 218l36 36q37 -22 73.5 -51.5t70.5 -67.5h2v659h72v-659h2q34 38 70 67.5t73 51.5l37 -36z" />
    <glyph glyph-name="arrowboth" unicode="&#x2194;" horiz-adv-x="864" 
d="M829 319l-218 -218l-36 36q22 37 51.5 73.5t67.5 70.5v2h-524v-2q38 -34 67.5 -70t51.5 -73l-36 -37l-218 218l218 218l36 -36q-22 -37 -51.5 -73.5t-67.5 -70.5v-2h524v2q-38 34 -67.5 70t-51.5 73l36 37z" />
    <glyph glyph-name="arrowupdn" unicode="&#x2195;" horiz-adv-x="546" 
d="M273 -98l-218 218l36 36q37 -22 73.5 -51.5t70.5 -67.5h2v524h-2q-34 -38 -70 -67.5t-73 -51.5l-37 36l218 218l218 -218l-36 -36q-37 22 -73.5 51.5t-70.5 67.5h-2v-524h2q34 38 70 67.5t73 51.5l37 -36z" />
    <glyph glyph-name="uni2196" unicode="&#x2196;" horiz-adv-x="695" 
d="M55 696h308v-52q-41 -10 -87.5 -14.5t-97.5 -2.5l-2 -1l466 -466l-51 -51l-466 466l-1 -2q2 -51 -2 -97.5t-14 -88.5h-53v309z" />
    <glyph glyph-name="uni2197" unicode="&#x2197;" horiz-adv-x="695" 
d="M640 696v-309h-53q-10 42 -14 88.5t-2 97.5l-1 2l-466 -466l-51 51l466 466l-2 1q-51 -2 -97.5 2.5t-87.5 14.5v52h308z" />
    <glyph glyph-name="uni2198" unicode="&#x2198;" horiz-adv-x="695" 
d="M640 -98h-308v52q41 10 87.5 14.5t97.5 2.5l2 1l-466 466l51 51l466 -466l1 2q-2 51 2 97.5t14 88.5h53v-309z" />
    <glyph glyph-name="uni2199" unicode="&#x2199;" horiz-adv-x="695" 
d="M55 -98v309h53q10 -42 14 -88.5t2 -97.5l1 -2l466 466l51 -51l-466 -466l2 -1q51 2 97.5 -2.5t87.5 -14.5v-52h-308z" />
    <glyph glyph-name="partialdiff" unicode="&#x2202;" horiz-adv-x="433" 
d="M39 165q0 157 68.5 241.5t150.5 84.5q13 0 25 -4.5t22 -12.5l1 1q-29 89 -92 138t-110 49q-22 0 -45.5 -3.5t-49.5 -12.5q-1 5 -2 11t-1 11q0 21 23.5 35.5t81.5 14.5q90 0 188 -89.5t98 -290.5q0 -166 -68.5 -258.5t-146.5 -92.5q-58 0 -100.5 45t-42.5 133zM200 43
q36 0 75.5 64t39.5 197q0 28 -0.5 52.5t-2.5 52.5q-13 12 -31.5 18t-42.5 6q-40 0 -80 -64t-40 -169q0 -85 24.5 -121t57.5 -36z" />
    <glyph glyph-name="product" unicode="&#x220f;" horiz-adv-x="564" 
d="M25 2v17q13 5 25 16.5t13 27.5l54 463q4 38 3 59.5t-16 40.5v9h425l-70 -592l56 -16v-20q-22 -7 -43 -11t-48 -4q-22 0 -42.5 3t-36.5 7v17q13 5 25 16.5t13 27.5l60 516h-241l-63 -536l56 -16v-20q-22 -7 -43 -11t-48 -4q-22 0 -42.5 3t-36.5 7z" />
    <glyph glyph-name="summation" unicode="&#x2211;" horiz-adv-x="462" 
d="M16 0q0 28 10 51t30 43l210 226l-145 214q-15 23 -22 46.5t-7 51.5q31 3 55 3.5t47 0.5h251l-17 -139h-28l-2 19q-3 31 -20 46.5t-47 15.5h-146l161 -249l-246 -267h183q37 0 60 12.5t34 35.5l9 21h29l-29 -131h-370z" />
    <glyph glyph-name="minus" unicode="&#x2212;" horiz-adv-x="520" 
d="M41 200l6 51h427l-6 -51h-427z" />
    <glyph glyph-name="uni2215" unicode="&#x2215;" horiz-adv-x="10" 
d="M-306 -102l-38 22l650 753l38 -21z" />
    <glyph glyph-name="uni2219" unicode="&#x2219;" horiz-adv-x="264" 
d="M124 188q-23 0 -35.5 14t-12.5 37q0 27 17.5 46.5t40.5 19.5t36 -14.5t13 -39.5q0 -26 -18 -44.5t-41 -18.5z" />
    <glyph glyph-name="radical" unicode="&#x221a;" horiz-adv-x="407" 
d="M183 -13l-103 444l-82 -23l-7 37l142 41l84 -375h1l284 656l36 -11l-334 -769h-21z" />
    <glyph glyph-name="infinity" unicode="&#x221e;" horiz-adv-x="660" 
d="M154 163q-43 0 -81 36.5t-38 97.5q0 69 51.5 124t111.5 55q38 0 76.5 -30t58.5 -77l37 41q29 33 64 50.5t75 17.5q48 0 85 -40t37 -100q0 -76 -50 -127.5t-110 -51.5q-46 0 -85 28.5t-60 84.5h-1l-35 -41q-31 -37 -63.5 -52.5t-72.5 -15.5zM159 216q27 0 53 16t61 59
l36 46q-20 39 -50.5 61t-67.5 22q-44 0 -77.5 -33.5t-33.5 -82.5q0 -40 23.5 -64t55.5 -24zM352 305q19 -46 50.5 -71t70.5 -25q45 0 79.5 35.5t34.5 86.5q0 41 -24 65t-61 24q-25 0 -51 -16t-58 -53z" />
    <glyph glyph-name="integral" unicode="&#x222b;" horiz-adv-x="373" 
d="M97 -94l83 742q7 69 59 114.5t122 45.5q58 0 77.5 -10t19.5 -29q0 -10 -3 -22.5t-10 -24.5q-27 16 -53 24.5t-54 8.5t-54 -28t-31 -77l-79 -737q-7 -69 -59.5 -114.5t-123.5 -45.5q-58 0 -77.5 10t-19.5 29q0 10 3 22.5t10 24.5q26 -16 52.5 -24.5t54.5 -8.5t53 28t30 72
z" />
    <glyph glyph-name="approxequal" unicode="&#x2248;" horiz-adv-x="520" 
d="M61 266l-9 49q24 14 53 23.5t51 9.5q21 0 44 -3t39 -10l74 -30q19 -7 37.5 -11t37.5 -4q17 0 40 8.5t42 19.5l9 -49q-24 -14 -52.5 -23.5t-48.5 -9.5q-24 0 -46.5 3.5t-38.5 10.5l-75 30q-16 7 -35 10t-38 3t-41 -8.5t-43 -18.5zM44 133l-9 49q25 14 53.5 23.5t50.5 9.5
q21 0 44.5 -3t39.5 -10l74 -30q19 -7 37 -11t37 -4q17 0 40.5 8.5t42.5 19.5l9 -49q-25 -14 -53 -23.5t-48 -9.5q-24 0 -47 3.5t-39 10.5l-74 30q-16 7 -35 10t-38 3t-41 -8.5t-44 -18.5z" />
    <glyph glyph-name="notequal" unicode="&#x2260;" horiz-adv-x="520" 
d="M39 -51l132 184h-136l7 52h166l59 81h-215l6 52h246l141 195l30 -16l-129 -179h133l-6 -52h-163l-59 -81h212l-7 -52h-242l-144 -201z" />
    <glyph glyph-name="lessequal" unicode="&#x2264;" horiz-adv-x="520" 
d="M80 286l335 180l24 -49l-251 -132l216 -130l-34 -49zM16 0l6 52h427l-6 -52h-427z" />
    <glyph glyph-name="greaterequal" unicode="&#x2265;" horiz-adv-x="520" 
d="M108 107l-24 49l251 132l-216 130l34 49l290 -180zM16 0l6 52h427l-6 -52h-427z" />
    <glyph glyph-name="lozenge" unicode="&#x25ca;" horiz-adv-x="452" 
d="M191 -6l-166 331l240 325l164 -325zM196 61l188 264l-126 256l-186 -257z" />
    <glyph glyph-name="commaaccent" unicode="&#xf6c3;" horiz-adv-x="178" 
d="M57 -51q21 0 34 -13.5t13 -35.5q0 -43 -31 -82.5t-50 -39.5q-5 0 -9 1.5t-8 4.5q12 19 18 40.5t6 47.5l-30 38q10 18 25.5 28.5t31.5 10.5z" />
    <glyph glyph-name="fiets" unicode="&#x1f6b2;" horiz-adv-x="998" 
d="M380 396l110 -213q2 1 3.5 1h3.5h3.5t4.5 -1l124 241h-233zM642 415l-122 -240q3 -2 6 -5.5t4 -7.5l49 7q-1 3 -1 5.5v5.5q0 51 28 95t71 67zM764 -3q-68 0 -120 45t-63 111l-49 -7q-1 -13 -11 -21.5t-23 -8.5t-23.5 10t-10.5 24q0 7 3 13.5t8 10.5l-105 204l-28 -48
q34 -25 55 -64.5t21 -84.5q0 -75 -54.5 -129.5t-129.5 -54.5t-129.5 54.5t-54.5 129.5t54.5 129.5t129.5 54.5q25 0 49 -6.5t45 -19.5l102 185q-17 7 -34 10t-39 3q-51 0 -78 -21t-27 -48q0 -22 15 -35t34 -13q9 0 18 1.5t14 2.5v-18q-6 -2 -15 -3.5t-20 -1.5
q-26 0 -46.5 17t-20.5 48q0 37 33.5 63.5t94.5 26.5q24 0 44 -4t37 -11l17 -7l-52 -92h233l60 119h-77q0 13 6.5 17.5t22.5 5.5l130 4q0 -13 -6.5 -20t-21.5 -7h-36l-64 -127l40 -83q16 7 34.5 10.5t37.5 3.5q75 0 129.5 -54.5t54.5 -129.5t-54.5 -129.5t-129.5 -54.5z
M595 180v-3.5t1 -5.5l151 16q0 1 1 3t2 3l-66 134q-38 -21 -63.5 -60.5t-25.5 -86.5zM234 14q69 0 118 49t49 118q0 40 -18.5 76t-48.5 58l-32 -58q-10 -19 -24.5 -36t-27.5 -30q1 -2 2 -4.5t1 -5.5q0 -7 -6 -13t-13 -6t-13 6t-6 13t6 13t13 6h1t5 -1q12 13 25.5 32.5
t21.5 33.5l33 59q-19 11 -41 17.5t-45 6.5q-69 0 -118 -49t-49 -118t49 -118t118 -49zM764 14q69 0 118 49t49 118t-49 118t-118 49q-16 0 -33 -3t-31 -10l66 -135q7 -1 12 -6.5t5 -12.5t-6 -13t-13 -6q-4 0 -8.5 2.5t-6.5 6.5l-151 -16q10 -59 57 -100t109 -41z" />
    <glyph glyph-name="zero.osf" horiz-adv-x="482" 
d="M46 172q0 157 73.5 240t166.5 83q69 0 110.5 -49.5t41.5 -140.5q0 -157 -71.5 -240t-164.5 -83q-69 0 -112.5 49.5t-43.5 140.5zM216 33q53 0 94.5 70t41.5 195q0 69 -20.5 107.5t-59.5 38.5q-53 0 -96.5 -70t-43.5 -195q0 -69 22.5 -107.5t61.5 -38.5z" />
    <glyph glyph-name="one.osf" horiz-adv-x="314" 
d="M40 3v15q30 10 52.5 30.5t23.5 43.5l27 327l-85 -5l3 28q32 18 73.5 31t67.5 13q9 0 18.5 -1t16.5 -2q-6 -13 -10 -36.5t-5 -39.5l-33 -360l60 -14v-15q-21 -13 -53.5 -20t-68.5 -7q-25 0 -46.5 3t-40.5 9z" />
    <glyph glyph-name="two.osf" horiz-adv-x="422" 
d="M32 0l-12 59l205 183q34 31 49 56t15 52q0 35 -22.5 55.5t-61.5 20.5q-36 0 -67 -16.5t-63 -49.5q-4 10 -8 23.5t-4 25.5q0 30 38 53t122 23q72 0 112 -33.5t40 -85.5q0 -43 -24.5 -80t-81.5 -82l-177 -142v-1h86q46 0 101 9t97 21q2 -8 3.5 -17t1.5 -16q0 -30 -24.5 -47
t-76.5 -17q-40 0 -114 3t-134 3z" />
    <glyph glyph-name="three.osf" horiz-adv-x="407" 
d="M-4 -81q27 -17 59 -26t66 -9q53 0 93.5 36.5t40.5 93.5q0 48 -39 79.5t-99 31.5q-7 0 -18 -1.5t-21 -4.5l-4 47l49 7q63 8 109 54.5t46 105.5q0 44 -26 68.5t-66 24.5q-35 0 -69 -17t-61 -45q-6 12 -8.5 24.5t-2.5 23.5q0 27 35.5 50t120.5 23q75 0 119 -37.5t44 -97.5
q0 -61 -49 -116.5t-115 -74.5v-2q57 0 99 -36.5t42 -92.5q0 -78 -74.5 -139t-158.5 -61q-63 0 -92.5 17.5t-29.5 42.5q0 8 3 17t7 14z" />
    <glyph glyph-name="four.osf" horiz-adv-x="443" 
d="M10 21q4 143 113 289.5t228 177.5l37 -12q-11 -51 -22 -111.5t-17 -106.5l-23 -174h29q18 0 33 2.5t31 10.5q2 -6 3.5 -13.5t1.5 -14.5q0 -26 -18 -37t-60 -11h-27l-8 -80q-3 -31 -1.5 -55t7.5 -50q-8 -3 -18.5 -5t-21.5 -2q-27 0 -39.5 23.5t-5.5 78.5l12 90h-234z
M80 82h172l22 164q7 48 15.5 93.5t18.5 82.5h-1q-66 -40 -137 -141t-90 -199z" />
    <glyph glyph-name="five.osf" horiz-adv-x="403" 
d="M12 -80q25 -15 58.5 -25t57.5 -10q57 0 100.5 39.5t43.5 110.5q0 49 -33 79.5t-94 30.5q-22 0 -46 -3t-43 -8l51 347q19 -2 39.5 -3.5t39.5 -1.5q50 0 101.5 4t99.5 11l2.5 -12.5t1.5 -15.5q0 -29 -17.5 -42t-68.5 -13h-151l-30 -206q16 3 35 4.5t35 1.5q66 0 114 -42
t48 -111q0 -96 -75.5 -161.5t-160.5 -65.5q-63 0 -89 18.5t-26 44.5q0 7 2 14.5t5 14.5z" />
    <glyph glyph-name="six.osf" horiz-adv-x="476" 
d="M44 196q0 174 119.5 303t259.5 129q40 0 54 -10t14 -27q0 -16 -5 -27t-12 -18q-11 10 -30 17t-44 7q-62 0 -130 -53t-105 -146q19 9 42.5 14t48.5 5q78 0 125.5 -46t47.5 -122q0 -102 -61.5 -171t-145.5 -69q-71 0 -124.5 56t-53.5 158zM232 34q42 0 76.5 42.5
t34.5 124.5q0 66 -34 101.5t-83 35.5q-18 0 -38.5 -2.5t-36.5 -6.5q-9 -27 -15 -61.5t-6 -66.5q0 -93 31 -130t71 -37z" />
    <glyph glyph-name="seven.osf" horiz-adv-x="393" 
d="M29 -153q0 31 32.5 101t139.5 266l104 192h-202q-42 0 -57 11t-15 30q0 10 1.5 18.5t4.5 16.5q52 -3 118 -4.5t120 -1.5q29 0 64 2.5t67 6.5l-130 -257q-46 -88 -91.5 -192t-82.5 -203q-10 -4 -20.5 -6.5t-20.5 -2.5q-16 0 -24 6t-8 17z" />
    <glyph glyph-name="eight.osf" horiz-adv-x="452" 
d="M34 128q0 59 41 107.5t110 73.5l-46 43q-25 24 -37.5 50t-12.5 64q0 60 51 111t131 51q66 0 108 -41t42 -97q0 -51 -33.5 -99.5t-81.5 -72.5l55 -48q24 -21 35 -46t11 -57q0 -75 -61 -130t-142 -55q-78 0 -124 40.5t-46 105.5zM261 336q36 23 62 61.5t26 82.5
q0 43 -25.5 69.5t-61.5 26.5q-45 0 -72 -31t-27 -68q0 -25 11.5 -48t45.5 -55zM110 138q0 -47 27 -75.5t76 -28.5q46 0 80.5 31.5t34.5 80.5q0 27 -13 50.5t-44 48.5l-50 40q-45 -15 -78 -58t-33 -89z" />
    <glyph glyph-name="nine.osf" horiz-adv-x="476" 
d="M257 139q21 0 43.5 3.5t38.5 7.5q5 25 7.5 53t2.5 53q0 90 -35 134t-77 44q-43 0 -76.5 -41.5t-33.5 -106.5q0 -72 39.5 -109.5t90.5 -37.5zM0 -84q22 -14 56.5 -24t62.5 -10q58 0 123.5 59.5t84.5 160.5q-20 -7 -46 -11t-58 -4q-72 0 -127 50.5t-55 131.5q0 96 64 156.5
t141 60.5q75 0 132 -57t57 -164q0 -213 -109 -326.5t-226 -113.5q-54 0 -80.5 15t-26.5 47q0 7 1.5 15.5t5.5 13.5z" />
    <glyph glyph-name="Gcedilla" horiz-adv-x="503" 
d="M45 220q0 218 98 322.5t212 104.5q42 0 72.5 -4t67.5 -14l-22 -128h-26l-5 24q-7 36 -29 52t-68 16q-80 0 -146.5 -88t-66.5 -272q0 -98 36.5 -145.5t87.5 -47.5q26 0 52 4.5t50 13.5l22 206l-55 13v21q22 8 44.5 11.5t50.5 3.5q22 0 38.5 -2.5t29.5 -7.5v-17
q-12 -4 -22 -16t-11 -25l-28 -256q-22 0 -36.5 7t-23.5 20q-28 -16 -57.5 -23.5t-72.5 -7.5q-85 0 -138.5 56.5t-53.5 178.5zM253 -51q21 0 34 -13.5t13 -35.5q0 -43 -31 -82.5t-50 -39.5q-5 0 -9 1.5t-8 4.5q12 19 18 40.5t6 47.5l-30 38q10 18 25.5 28.5t31.5 10.5z" />
    <glyph glyph-name="Kcedilla" horiz-adv-x="481" 
d="M288 121l-105 202l1 5l90 80q57 51 84.5 94.5t27.5 73.5q0 15 -8 24t-28 15v15q17 7 33.5 11t35.5 4q22 0 35.5 -11.5t13.5 -32.5q0 -44 -33 -96t-99 -109l-73 -62l96 -174q37 -67 69.5 -95.5t58.5 -32.5v-21q-18 -13 -34 -17.5t-39 -4.5q-28 0 -56 25.5t-70 106.5zM25 2
v17q13 5 25 16.5t13 27.5l61 528l-56 16v20q22 8 43.5 11.5t48.5 3.5q22 0 42 -2.5t36 -7.5v-17q-14 -5 -25 -16t-12 -27l-62 -529l56 -16v-20q-22 -7 -43 -11t-48 -4q-22 0 -42.5 3t-36.5 7zM242 -51q21 0 34 -13.5t13 -35.5q0 -43 -31 -82.5t-50 -39.5q-5 0 -9 1.5t-8 4.5
q12 19 18 40.5t6 47.5l-30 38q10 18 25.5 28.5t31.5 10.5z" />
    <glyph glyph-name="Lcedilla" horiz-adv-x="404" 
d="M25 0v21q15 5 26.5 19.5t13.5 36.5l59 514l-56 16v20q22 8 43.5 11.5t48.5 3.5q22 0 42 -2.5t36 -7.5v-17q-14 -5 -25 -16t-12 -27l-61 -520h127q41 0 61 12t33 43l8 17h29l-29 -124h-344zM204 -51q21 0 34 -13.5t13 -35.5q0 -43 -31 -82.5t-50 -39.5q-5 0 -9 1.5t-8 4.5
q12 19 18 40.5t6 47.5l-30 38q10 18 25.5 28.5t31.5 10.5z" />
    <glyph glyph-name="Ncedilla" horiz-adv-x="542" 
d="M25 2v17q14 4 25.5 16t12.5 28l61 532l-42 9v23q21 6 47.5 9.5t45.5 3.5h28l201 -466h1l43 417l-56 16v20q20 8 40.5 11.5t42.5 3.5q20 0 36 -2.5t32 -7.5v-17q-18 -5 -27.5 -16.5t-11.5 -27.5l-69 -580l-33 -5l-232 542h-1l-49 -485l56 -16v-20q-21 -7 -38 -11t-41 -4
q-19 0 -37 3t-35 7zM261 -51q21 0 34 -13.5t13 -35.5q0 -43 -31 -82.5t-50 -39.5q-5 0 -9 1.5t-8 4.5q12 19 18 40.5t6 47.5l-30 38q10 18 25.5 28.5t31.5 10.5z" />
    <glyph glyph-name="Rcedilla" horiz-adv-x="488" 
d="M25 2v17q13 5 25 16.5t13 27.5l61 526l-56 16v22q41 7 89 11.5t111 4.5q91 0 139.5 -38t48.5 -101q0 -77 -51 -133.5t-132 -75.5l110 -182q21 -34 48.5 -54t61.5 -27v-21q-12 -10 -31 -15t-44 -5q-31 0 -57.5 18.5t-53.5 69.5l-119 218v19q64 0 121.5 47.5t57.5 125.5
q0 48 -32 76.5t-80 28.5q-13 0 -27.5 -1.5t-24.5 -2.5l-64 -547l55 -16v-20q-22 -7 -42.5 -11t-47.5 -4q-25 0 -44 3t-35 7zM247 -51q21 0 34 -13.5t13 -35.5q0 -43 -31 -82.5t-50 -39.5q-5 0 -9 1.5t-8 4.5q12 19 18 40.5t6 47.5l-30 38q10 18 25.5 28.5t31.5 10.5z" />
    <glyph glyph-name="caronquoteleft" horiz-adv-x="178" 
d="M122 510q-21 0 -34 14t-13 36q0 43 31 82.5t50 39.5q5 0 9.5 -1.5t8.5 -4.5q-12 -19 -18 -40.5t-6 -48.5l29 -37q-10 -18 -25.5 -29t-31.5 -11z" />
    <glyph glyph-name="caronquoteright" horiz-adv-x="178" 
d="M107 515q-5 0 -9 1.5t-8 4.5q12 19 18 40t6 48l-30 37q10 19 25.5 29.5t31.5 10.5q21 0 34 -13.5t13 -35.5q0 -43 -31 -82.5t-50 -39.5z" />
    <glyph glyph-name="gcedilla" horiz-adv-x="421" 
d="M273 517q-22 0 -35.5 13.5t-13.5 35.5q0 43 32 82t52 39q5 0 9.5 -1.5t8.5 -4.5q-12 -19 -18 -40t-6 -48l30 -37q-10 -18 -26 -28.5t-33 -10.5zM166 55q31 0 70 52t54 159l23 160q-12 3 -24.5 4t-25.5 1q-57 0 -102.5 -63.5t-45.5 -191.5q0 -64 16 -92.5t35 -28.5z
M61 -70q-15 -16 -21 -31.5t-6 -33.5q0 -29 22.5 -47.5t64.5 -18.5q54 0 94.5 41.5t50.5 128.5l19 176h-1q-28 -71 -71.5 -114.5t-83.5 -43.5q-33 0 -62 44t-29 134q0 143 74 232.5t175 89.5q29 0 60 -4.5t56 -11.5l-39 -192q-7 -36 -11 -99.5t-4 -102.5q0 -170 -72.5 -247.5
t-171.5 -77.5q-67 0 -105 26t-38 66q0 36 31 61t68 25z" />
    <glyph glyph-name="kcedilla" horiz-adv-x="379" 
d="M42 0l40 261l41 404l-62 19v19q23 8 47 12t55 4q12 0 23.5 -1.5t21.5 -4.5l-58 -439h1l56 44q31 25 64.5 77t44.5 98q37 0 52 -9t15 -24q0 -28 -41 -76.5t-96 -85.5l-43 -30l126 -193q13 -19 28 -31.5t37 -22.5v-17q-14 -8 -28 -11.5t-34 -3.5q-22 0 -43 13.5t-40 49.5
l-103 190h-1l-17 -242h-86zM200 -51q21 0 34 -13.5t13 -35.5q0 -43 -31 -82.5t-50 -39.5q-5 0 -9 1.5t-8 4.5q12 19 18 40.5t6 47.5l-30 38q10 18 25.5 28.5t31.5 10.5z" />
    <glyph glyph-name="lcedilla" horiz-adv-x="221" 
d="M54 38q0 21 4 62t8 69l70 496l-63 19v19q24 8 48 12t52 4q13 0 25 -1.5t21 -4.5l-75 -524q-4 -24 -6 -56t-2 -54q0 -25 11.5 -37.5t33.5 -19.5v-17q-16 -7 -35.5 -10.5t-41.5 -3.5q-25 0 -37.5 12.5t-12.5 34.5zM108 -51q21 0 34 -13.5t13 -35.5q0 -43 -31 -82.5
t-50 -39.5q-5 0 -9 1.5t-8 4.5q12 19 18 40.5t6 47.5l-30 38q10 18 25.5 28.5t31.5 10.5z" />
    <glyph glyph-name="ncedilla" horiz-adv-x="454" 
d="M51 0l50 431l-61 19v19q24 9 47.5 13t51.5 4q10 0 20.5 -1.5t20.5 -5.5l-32 -153h1q34 76 81.5 119t98.5 43q33 0 56 -23t23 -69q0 -24 -5.5 -59t-9.5 -67l-18 -108q-2 -17 -5 -42t-3 -41q0 -25 12 -36.5t35 -15.5v-17q-17 -9 -37 -14t-43 -5t-36 12t-13 34q0 19 4 50.5
t8 55.5l19 115q4 23 7 52t3 49q0 34 -13 47t-31 13q-42 0 -89.5 -72t-50.5 -178l-6 -169h-85zM205 -51q21 0 34 -13.5t13 -35.5q0 -43 -31 -82.5t-50 -39.5q-5 0 -9 1.5t-8 4.5q12 19 18 40.5t6 47.5l-30 38q10 18 25.5 28.5t31.5 10.5z" />
    <glyph glyph-name="rcedilla" horiz-adv-x="286" 
d="M51 0l49 431l-61 19v19q24 9 47.5 13t49.5 4q10 0 21 -1.5t21 -5.5l-30 -145h1l53 88q19 32 40 47.5t44 15.5q16 0 24.5 -10t8.5 -27q0 -12 -3 -26t-8 -26q-7 2 -15 3t-16 1q-47 0 -87.5 -58t-47.5 -196l-8 -146h-83zM87 -51q21 0 34 -13.5t13 -35.5q0 -43 -31 -82.5
t-50 -39.5q-5 0 -9 1.5t-8 4.5q12 19 18 40.5t6 47.5l-30 38q10 18 25.5 28.5t31.5 10.5z" />
    </font>
</defs>
</svg>
