<?xml version="1.0" encoding="UTF-8" standalone="no"?>
<!-- Created with Inkscape (http://www.inkscape.org/) -->

<svg
   xmlns:dc="http://purl.org/dc/elements/1.1/"
   xmlns:cc="http://creativecommons.org/ns#"
   xmlns:rdf="http://www.w3.org/1999/02/22-rdf-syntax-ns#"
   xmlns:svg="http://www.w3.org/2000/svg"
   xmlns="http://www.w3.org/2000/svg"
   xmlns:sodipodi="http://sodipodi.sourceforge.net/DTD/sodipodi-0.dtd"
   xmlns:inkscape="http://www.inkscape.org/namespaces/inkscape"
   width="259.29166mm"
   height="259.29166mm"
   viewBox="0 0 259.29166 259.29166"
   version="1.1"
   id="svg4407"
   sodipodi:docname="grain-observer2.svg"
   inkscape:version="0.92.4 (5da689c313, 2019-01-14)">
  <defs
     id="defs4401" />
  <sodipodi:namedview
     id="base"
     pagecolor="#ffffff"
     bordercolor="#666666"
     borderopacity="1.0"
     inkscape:pageopacity="0.0"
     inkscape:pageshadow="2"
     inkscape:zoom="0.35"
     inkscape:cx="541.42856"
     inkscape:cy="504.28572"
     inkscape:document-units="mm"
     inkscape:current-layer="layer1"
     showgrid="false"
     inkscape:window-width="2560"
     inkscape:window-height="1017"
     inkscape:window-x="-8"
     inkscape:window-y="-8"
     inkscape:window-maximized="1" />
  <metadata
     id="metadata4404">
    <rdf:RDF>
      <cc:Work
         rdf:about="">
        <dc:format>image/svg+xml</dc:format>
        <dc:type
           rdf:resource="http://purl.org/dc/dcmitype/StillImage" />
        <dc:title></dc:title>
      </cc:Work>
    </rdf:RDF>
  </metadata>
  <g
     inkscape:label="Layer 1"
     inkscape:groupmode="layer"
     id="layer1"
     transform="translate(37.419639,-22.967267)">
    <g
       transform="matrix(0.26458333,0,0,0.26458333,-39.687499,24.475856)"
       id="g8"
       style="fill:#e6e6e6">
      <g
         id="g6"
         style="fill:#e6e6e6">
        <path
           inkscape:connector-curvature="0"
           d="m 500,700 c -54.7,0 -99,44.7 -99,100 0,55.2 44.3,100 99,100 54.7,0 99,-44.8 99,-100 0,-55.3 -44.3,-100 -99,-100 z m -210,-112.1 70,70.7 c 77.3,-78.1 202.7,-78.1 280,0 l 69.9,-70.7 C 594.1,470.8 406,470.8 290,587.9 Z M 150,446.4 220,517.1 C 374.6,361 625.3,361 780,517.1 l 70,-70.7 C 656.8,251.2 343.3,251.2 150,446.4 Z M 10,305 80,375.7 c 231.9,-234.3 608,-234.3 840,0 L 990,305 C 719.4,31.7 280.6,31.7 10,305 Z"
           id="path4"
           style="fill:#e6e6e6" />
      </g>
    </g>
  </g>
</svg>
