<?xml version="1.0" encoding="UTF-8" standalone="no"?>
<!-- Created with Inkscape (http://www.inkscape.org/) -->

<svg
   xmlns:dc="http://purl.org/dc/elements/1.1/"
   xmlns:cc="http://creativecommons.org/ns#"
   xmlns:rdf="http://www.w3.org/1999/02/22-rdf-syntax-ns#"
   xmlns:svg="http://www.w3.org/2000/svg"
   xmlns="http://www.w3.org/2000/svg"
   xmlns:sodipodi="http://sodipodi.sourceforge.net/DTD/sodipodi-0.dtd"
   xmlns:inkscape="http://www.inkscape.org/namespaces/inkscape"
   width="259.29166mm"
   height="259.29166mm"
   viewBox="0 0 259.29166 259.29166"
   version="1.1"
   id="svg4407"
   sodipodi:docname="molecule.svg"
   inkscape:version="0.92.4 (5da689c313, 2019-01-14)">
  <defs
     id="defs4401" />
  <sodipodi:namedview
     id="base"
     pagecolor="#ffffff"
     bordercolor="#666666"
     borderopacity="1.0"
     inkscape:pageopacity="0.0"
     inkscape:pageshadow="2"
     inkscape:zoom="0.35"
     inkscape:cx="541.42856"
     inkscape:cy="504.28572"
     inkscape:document-units="mm"
     inkscape:current-layer="layer1"
     showgrid="false"
     inkscape:window-width="2560"
     inkscape:window-height="1017"
     inkscape:window-x="-8"
     inkscape:window-y="-8"
     inkscape:window-maximized="1" />
  <metadata
     id="metadata4404">
    <rdf:RDF>
      <cc:Work
         rdf:about="">
        <dc:format>image/svg+xml</dc:format>
        <dc:type
           rdf:resource="http://purl.org/dc/dcmitype/StillImage" />
        <dc:title></dc:title>
      </cc:Work>
    </rdf:RDF>
  </metadata>
  <g
     inkscape:label="Layer 1"
     inkscape:groupmode="layer"
     id="layer1"
     transform="translate(37.419639,-22.967267)">
    <path
       inkscape:connector-curvature="0"
       d="m 216.18482,227.16285 a 26.43698,26.43698 0 0 0 -44.70963,0.27183 l -37.86706,-21.8494 a 34.990121,34.990121 0 0 0 1.78826,-3.38242 46.653494,46.653494 0 0 0 -10.26376,-54.00139 46.847884,46.847884 0 0 0 -31.102244,-12.51871 V 91.050981 a 26.475858,26.475858 0 1 0 -9.058563,-51.668857 26.125957,26.125957 0 0 0 -15.55126,13.10192 26.43698,26.43698 0 0 0 11.469112,35.689854 25.542788,25.542788 0 0 0 11.118958,2.877083 v 44.554049 a 46.653494,46.653494 0 0 0 -12.557504,1.98281 c -1.477336,0.46727 -2.954672,0.97275 -4.393209,1.55507 a 46.653494,46.653494 0 0 0 -26.514766,56.68407 45.564913,45.564913 0 0 0 3.30469,7.77548 l -38.878017,22.51035 a 26.514735,26.514735 0 1 0 -22.4714063,40.58854 h 1.3606661 A 26.475858,26.475858 0 0 0 13.94184,227.82349 l 38.877861,-22.51035 a 46.148082,46.148082 0 0 0 40.510806,23.56009 45.953692,45.953692 0 0 0 13.412853,-1.94402 46.653494,46.653494 0 0 0 9.48616,-3.88774 45.603791,45.603791 0 0 0 16.36766,-15.55112 l 37.86707,21.84941 a 29.352824,29.352824 0 0 0 -2.48814,6.84242 26.553615,26.553615 0 0 0 20.33313,31.49118 28.030974,28.030974 0 0 0 5.63721,0.58335 26.475858,26.475858 0 0 0 22.23822,-40.86067 z M 84.621952,81.292834 a 18.622521,18.622521 0 0 1 -9.252961,-10.963496 18.739154,18.739154 0 0 1 12.090971,-23.560093 18.155985,18.155985 0 0 1 5.753882,-0.893395 18.816909,18.816909 0 0 1 8.514306,2.060542 18.739154,18.739154 0 0 1 8.12549,25.231828 18.778032,18.778032 0 0 1 -25.231688,8.125496 z M 4.2223353,252.86121 A 18.739154,18.739154 0 1 1 -10.590111,221.75883 h 0.9330697 A 18.739154,18.739154 0 0 1 9.043295,239.56489 18.544764,18.544764 0 0 1 4.2223353,252.86121 Z M 112.38072,216.08268 A 38.877911,38.877911 0 1 1 78.245927,146.33562 v 0 c 1.204908,-0.50547 2.44935,-0.93306 3.887749,-1.32245 a 38.139231,38.139231 0 0 1 11.196831,-1.67174 39.266692,39.266692 0 0 1 26.709173,10.53591 38.877911,38.877911 0 0 1 10.57485,17.06738 38.061476,38.061476 0 0 1 1.51612,14.4238 38.644644,38.644644 0 0 1 -19.43886,30.71357 z m 99.83848,29.3917 a 18.700275,18.700275 0 1 1 -2.56587,-14.11272 v 0 a 18.583642,18.583642 0 0 1 2.56587,14.11272 z"
       id="path4-3"
       style="stroke-width:3.88779116;fill:#e6e6e6" />
  </g>
</svg>
