<?xml version="1.0" encoding="UTF-8" standalone="no"?>
<svg xmlns:rdf="http://www.w3.org/1999/02/22-rdf-syntax-ns#" xmlns="http://www.w3.org/2000/svg" xml:space="preserve" height="234.43" viewBox="0 0 192.45746 234.43388" width="192.46" version="1.1" xmlns:cc="http://creativecommons.org/ns#" xmlns:dc="http://purl.org/dc/elements/1.1/"><g transform="matrix(1.25 0 0 -1.25 -285.69 611.52)"><g transform="matrix(.25 0 0 .25 229.57 296.66)"><path d="m545.82 471.95c-54.724 31.797-108.59 24.44-149.44 6.2411-1.8024 13.43-5.3063 28.172-11.157 45.422-8.6621 25.657-18.158 50.177-26.524 71.819-11.003 28.421-19.376 52.773-23.969 69.062l-29.77 102.05-30.91-102.11c-4.72-16.23-12.87-40.71-23.82-69.15-8.32-21.66-17.74-46.21-26.35-71.86-5.79-17.28-9.28-32.04-11.05-45.49-40.89 18.12-94.78 25.37-149.43-6.55-44.677-26.12-68.599-71.52-62.445-118.49 5.6156-42.73 34.837-76.3 76.238-87.68l30.835-8.4672 7.5457 31.064c1.0828 4.2167 12.206 43.109 47.232 42.403 24.298-0.5044 44.468-21.978 54.555-35.866-3.2618-9.8189-4.9969-21.588-3.3358-34.265l-13.71 18.29-24.81-18.5c-22.35-16.63-54.79-57.76-34.74-106.3 8.7429-21.164 27.54-35.583 52.921-40.641 15.522-3.0869 33.156-2.3673 49.498 1.224 6.4294-20.64 18.152-45.611 39.471-67.912l22.489-23.498 22.415 23.552c21.279 22.355 32.927 47.366 39.336 68.013 16.349-3.5308 33.969-4.2168 49.491-1.0895 25.368 5.0977 44.125 19.57 52.827 40.755 19.94 48.59-12.623 89.641-34.985 106.23l-24.857 18.42-13.672-18.313c1.641 12.677-0.1345 24.433-3.4165 34.272 10.061 13.894 30.176 35.422 54.468 35.974 35.032 0.7868 46.23-38.079 47.4-42.517l7.6063-31.051c-0.0471 0.2354 30.761 8.7697 30.761 8.7697 41.394 11.46 70.514 45.12 76.029 87.879 6.046 46.956-17.99 92.304-62.727 118.31"/><path d="m294.69 660.06c-3.7729-17.768-13.498-43.055-24.762-72.357-8.252-21.454-17.593-45.766-26.047-70.985-8.1107-24.231-11.42-42.288-11.42-59.129 0-5.387 0.6188-10.653 1.2509-15.946-31.185 21.413-92.634 50.688-159.65 11.52-37.224-21.77-57.219-59.122-52.188-97.516 4.479-34.151 27.816-61.025 60.911-70.118l9.8189-2.6901 2.4413 9.9131c0.612 2.4278 15.354 59.593 68.181 58.53 42.517-0.8541 70.306-42.188 77.812-54.892-3.5711-6.6043-6.537-15.71-6.537-26.161 0-11.204 3.8132-23.949 13.545-36.727-3.8805-5.2592-10.236-11.709-17.654-12.321-10.579-0.8676-21.286 10.27-28.401 19.779l-5.9384 7.9224-7.9425-5.925c-16.248-12.112-43.001-44.689-27.863-81.335 6.0595-14.648 19.039-24.325 37.54-28.004 19.127-3.793 43.27-0.343 60.42 7.4718 3.3223-19.349 12.731-52.094 39.693-80.266l7.196-7.5256 7.1759 7.539c26.894 28.253 36.229 61.025 39.504 80.387 17.176-7.7744 41.354-11.177 60.48-7.3171 18.468 3.7191 31.42 13.437 37.433 28.085 15.031 36.673-11.762 69.196-28.038 81.268l-7.9492 5.8981-5.925-7.9493c-7.1019-9.5096-17.788-20.687-28.374-19.833-7.4113 0.6053-13.78 7.028-17.674 12.267 9.6642 12.758 13.45 25.455 13.45 36.633 0 10.512-2.9927 19.651-6.5975 26.276 7.4785 12.711 35.187 54.138 77.684 55.087 52.82 1.1836 67.71-55.954 68.315-58.389l2.4682-9.8728 9.8189 2.6902c33.061 9.1665 56.338 36.081 60.736 70.246 4.9498 38.408-15.125 75.726-52.397 97.402-67.152 39.047-128.57 9.5633-159.68-11.931 0.5784 5.1515 1.1769 10.263 1.1769 15.515 0 17.022-3.2886 35.375-11.467 59.579-8.5075 25.173-17.903 49.444-26.195 70.864-11.339 29.282-21.117 54.569-24.931 72.337l-9.7651 45.557-9.6508-45.577" fill="#fff"/><path d="m305.14 67.692c38.031 39.948 38.489 90.334 38.489 90.334 16.827-16.773 82.216-27.991 96.878 7.734 16.08 39.222-24.762 69.526-24.762 69.526-39.585-53.062-66.143-1.1298-66.143-1.1298 30.143 32.577 7.5255 61.946 7.5255 61.946 1.9705 5.898 35.402 64.26 88.928 65.457 61.691 1.3921 78.175-65.928 78.175-65.928 64.69 17.93 77.186 108.12 5.999 149.5-90.334 52.524-169.04-27.493-169.04-27.493 7.3238 29.948 9.4087 52.329-5.36 96.064-20.021 59.297-44.562 112.28-51.422 144.3-6.7992-32.026-31.232-85.095-51.105-144.43-14.654-43.775-12.502-66.156-5.1381-96.077 0 0-78.887 79.822-169.09 27.096-71.1-41.556-58.389-131.69 6.3419-149.48 0 0 16.322 67.354 78.02 66.096 53.54-1.0626 87.092-59.344 89.076-65.228 0 0-22.55-29.436 7.6735-61.933 0 0-26.45-52.02-66.136 0.955 0 0-40.802-30.392-24.615-69.573 14.755-35.691 80.105-24.319 96.891-7.5055 0 0 0.5784-50.386 38.684-90.24"/><path d="m380.65 188.16-0.16797 1.0508v-1.0254s-7.1886 36.996-42.521 128.91c-35.341 91.909 4.1363 168.65 7.4316 185.69 0 0-75.592-104.16-167.48-104.05-91.876 0.10087-168.38 104.67-83.469 166.42 0 0 24.85-77.155 110.49-77.314 62.982-0.1345 126.08 67.429 128.75 100.91 0 0-28.833 40.713 11.258 74.785 0 0-43.311 91.111-103.36 25.48 0 0-46.177 57.771 14.207 71.76 47.909 11.08 95.096-37.52 95.096-37.52s-5.1464 76.769 30.338 118.73v-0.3789l0.17774 0.36133c35.392-42.033 30.062-118.81 30.062-118.81s47.304 48.499 95.213 37.293c60.343-14.123 14.021-71.793 14.021-71.793-59.88 65.765-103.38-25.229-103.38-25.229 39.982-34.173 11.047-74.811 11.047-74.811 2.5892-33.458 65.512-101.19 128.52-101.21 85.655 0 110.68 77.072 110.68 77.072 84.764-61.948 8.0124-166.38-83.863-166.26-91.892 0.0925-167.24 104.45-167.24 104.45 3.2701-17.074 42.555-93.901 7.0039-185.73-35.551-91.817-42.807-128.81-42.807-128.81z" transform="matrix(.8 0 0 -.8 .00045987 766.54)" fill="#d3bc8d"/></g></g></svg>