<?xml version="1.0" standalone="no"?>
<!DOCTYPE svg PUBLIC "-//W3C//DTD SVG 1.1//EN" "http://www.w3.org/Graphics/SVG/1.1/DTD/svg11.dtd" >
<svg xmlns="http://www.w3.org/2000/svg" xmlns:xlink="http://www.w3.org/1999/xlink" version="1.1">
<metadata>
Created by FontForge 20170731 at Tue Jan 14 23:10:56 2020
 By Aleksey,,,
Copyright (c) 2020 by MARSNEV. All rights reserved.
</metadata>
<defs>
<font id="LEMONMILK-Medium" horiz-adv-x="0" >
  <font-face 
    font-family="LEMON MILK Medium"
    font-weight="500"
    font-stretch="normal"
    units-per-em="2048"
    panose-1="0 0 6 0 0 0 0 0 0 0"
    ascent="1638"
    descent="-410"
    cap-height="1612"
    bbox="-1209 -567 2507 2156"
    underline-thickness="50"
    underline-position="-200"
    unicode-range="U+0020-3000"
  />
<missing-glyph horiz-adv-x="1332" 
d="M200 0v1612h932v-1612h-932zM316 97h701v1417h-701v-1417z" />
    <glyph glyph-name=".notdef" horiz-adv-x="1332" 
d="M200 0v1612h932v-1612h-932zM316 97h701v1417h-701v-1417z" />
    <glyph glyph-name=".null" 
 />
    <glyph glyph-name="nonmarkingreturn" horiz-adv-x="682" 
 />
    <glyph glyph-name="space" unicode=" " horiz-adv-x="600" 
 />
    <glyph glyph-name="exclam" unicode="!" horiz-adv-x="694" 
d="M211 557l-53 1055h374l-51 -1055h-270zM347 -51q-86 0 -146.5 60.5t-60.5 145.5q0 84 60.5 143.5t144.5 59.5q86 0 147.5 -61.5t61.5 -145.5t-61 -143t-146 -59z" />
    <glyph glyph-name="quotedbl" unicode="&#x22;" horiz-adv-x="867" 
d="M141 1128l-71 525h325l-72 -525h-182zM543 1128l-71 525h325l-72 -525h-182z" />
    <glyph glyph-name="numbersign" unicode="#" horiz-adv-x="1516" 
d="M1436 940h-227l-43 -325h227l-32 -241h-227l-49 -374h-260l49 374h-325l-49 -374h-260l49 374h-239l30 241h241l43 325h-241l32 241h240l57 431h260l-57 -431h325l57 431h260l-57 -431h226zM906 615l43 325h-325l-43 -325h325z" />
    <glyph glyph-name="dollar" unicode="$" horiz-adv-x="1264" 
d="M1208 449q0 -181 -113 -303.5t-305 -161.5v-209h-273v199q-318 39 -461 304l259 182q103 -166 313 -166q113 0 183.5 41.5t70.5 106.5q0 28 -13 55t-42.5 54t-55.5 47t-76 48t-77.5 42t-85.5 43q-4 2 -6.5 3.5t-5.5 2.5q-52 26 -79 40t-74.5 42.5t-73.5 50.5t-59.5 57.5
t-51 71t-30 83t-12.5 101.5q0 167 104.5 286t272.5 159v210h273v-201q128 -22 221 -91.5t136 -185.5l-239 -167q-34 68 -96 101.5t-135 33.5q-90 0 -150.5 -45t-60.5 -108q0 -20 6.5 -37t22.5 -33t32.5 -28t47.5 -27t55.5 -26.5t68 -30.5t74.5 -34q107 -50 182 -98.5
t134.5 -109.5t89 -136t29.5 -166z" />
    <glyph glyph-name="percent" unicode="%" horiz-adv-x="1770" 
d="M447 877q-154 0 -265.5 110.5t-111.5 265.5t111.5 266.5t266.5 111.5t266 -111t111 -266t-111.5 -266t-266.5 -111zM193 0l1099 1613h270l-1098 -1613h-271zM447 1086q70 0 118.5 49t48.5 118q0 70 -48.5 119t-118.5 49t-119.5 -49t-49.5 -119q0 -69 49.5 -118t119.5 -49
zM1322 -20q-154 0 -265.5 111t-111.5 266t111.5 266t266.5 111t266 -110.5t111 -265.5t-111.5 -266.5t-266.5 -111.5zM1322 189q70 0 118.5 49t48.5 119q0 69 -48.5 118t-118.5 49t-119.5 -49t-49.5 -118q0 -70 49.5 -119t119.5 -49z" />
    <glyph glyph-name="ampersand" unicode="&#x26;" horiz-adv-x="1523" 
d="M1481 285l-1 -300q-165 1 -409 158q-179 -179 -449 -179q-109 0 -202 31t-156 81.5t-108 116t-65.5 133.5t-20.5 134q0 132 76.5 261t174.5 195q-102 182 -102 314q0 78 36 155.5t96 137.5t144.5 98t175.5 38q107 0 203 -52.5t157 -134t81 -175.5l-310 -62
q-13 52 -54.5 89t-87.5 37q-47 0 -84 -40t-37 -103q0 -115 125.5 -294t306.5 -344q32 98 38 225l303 4q-6 -239 -84 -427q157 -97 253 -97zM605 281q118 0 204 60q-184 159 -327 340q-105 -89 -105 -197q0 -96 57.5 -149.5t170.5 -53.5z" />
    <glyph glyph-name="quotesingle" unicode="'" horiz-adv-x="465" 
d="M141 1128l-71 525h325l-72 -525h-182z" />
    <glyph glyph-name="parenleft" unicode="(" horiz-adv-x="708" 
d="M346 -120q-276 387 -276 927q0 536 276 925h290q-109 -181 -184 -447.5t-75 -477.5q0 -212 75.5 -479.5t185.5 -447.5h-292z" />
    <glyph glyph-name="parenright" unicode=")" horiz-adv-x="708" 
d="M362 -120h-292q110 180 185.5 447.5t75.5 479.5q0 211 -75 477.5t-184 447.5h290q276 -389 276 -925q0 -540 -276 -927z" />
    <glyph glyph-name="asterisk" unicode="*" horiz-adv-x="866" 
d="M326 945l38 259l-181 -158l-113 166l256 108l-256 105l113 167l181 -157l-38 258h214l-39 -258l182 157l113 -167l-256 -111l256 -102l-113 -166l-182 156l39 -257h-214z" />
    <glyph glyph-name="plus" unicode="+" horiz-adv-x="1281" 
d="M1141 926v-300h-350v-397h-300v397h-351v300h351v396h300v-396h350z" />
    <glyph glyph-name="comma" unicode="," horiz-adv-x="653" 
d="M228 -364q-35 0 -63.5 11.5t-41 24.5t-12.5 22q68 0 128.5 50t60.5 137q0 47 -15 75q-62 0 -121 50t-59 137q0 90 63 154.5t157 64.5q99 0 161 -78t62 -218q0 -81 -22 -157.5t-61.5 -137.5t-101 -98t-135.5 -37z" />
    <glyph glyph-name="hyphen" unicode="-" horiz-adv-x="930" 
d="M70 644v283h790v-283h-790z" />
    <glyph glyph-name="period" unicode="." horiz-adv-x="624" 
d="M312 -51q-86 0 -146.5 60.5t-60.5 145.5t61 146t146 61q84 0 145.5 -61.5t61.5 -145.5q0 -85 -61 -145.5t-146 -60.5z" />
    <glyph glyph-name="slash" unicode="/" horiz-adv-x="974" 
d="M21 -120l648 1852h284l-649 -1852h-283z" />
    <glyph glyph-name="zero" unicode="0" horiz-adv-x="1476" 
d="M739 -28q-197 0 -350 106.5t-236 296t-83 431.5t83 432t236 296.5t350 106.5t349 -106.5t235 -296.5t83 -432t-83 -431.5t-235 -296t-349 -106.5zM737 299q156 0 250 141t94 366q0 226 -94 367.5t-250 141.5t-250 -141.5t-94 -367.5q0 -225 94 -366t250 -141z" />
    <glyph glyph-name="one" unicode="1" horiz-adv-x="717" 
d="M482 1632h95v-1632h-324v1216l-183 -53v338z" />
    <glyph glyph-name="two" unicode="2" horiz-adv-x="1353" 
d="M760 323h523v-323h-1213v59q470 425 667.5 648t197.5 348q0 109 -72 185.5t-154 76.5q-111 0 -193.5 -83t-82.5 -198l-294 75q0 143 76 265.5t205 193.5t278 71q114 0 218.5 -47.5t179.5 -125t119.5 -182t44.5 -214.5q0 -95 -45 -204.5t-118.5 -208.5t-160.5 -185.5
t-176 -150.5z" />
    <glyph glyph-name="three" unicode="3" horiz-adv-x="1234" 
d="M905 908q111 -52 185 -160.5t74 -255.5q0 -140 -71.5 -257.5t-196 -186t-274.5 -68.5q-195 0 -353 116.5t-199 282.5l318 81q18 -71 81 -115.5t146 -44.5q98 0 160 62.5t62 153.5q0 127 -122 209.5t-298 82.5l49 184q124 0 207 58.5t83 147.5q0 64 -42 105.5t-103 41.5
q-51 0 -87.5 -30.5t-47.5 -82.5l-332 69q36 151 165.5 256.5t303.5 105.5q125 0 231.5 -55.5t171.5 -157t65 -226.5q0 -106 -48 -191.5t-128 -124.5z" />
    <glyph glyph-name="four" unicode="4" horiz-adv-x="1379" 
d="M1337 669v-323h-162v-346h-323v346h-831l551 1273l341 -2l-410 -948h349v447h323v-447h162z" />
    <glyph glyph-name="five" unicode="5" horiz-adv-x="1289" 
d="M661 1124q168 0 296 -73t195 -199t67 -285q0 -130 -46.5 -240.5t-126.5 -185.5t-188 -117.5t-230 -42.5q-184 0 -336 92.5t-222 247.5l322 103q37 -56 95.5 -88t126.5 -32q45 0 90 15t86 44.5t66.5 82.5t25.5 121q0 113 -71.5 178.5t-196.5 65.5q-88 0 -172.5 -33.5
t-137.5 -95.5l-180 93l122 838h831v-322h-590l-35 -222q77 55 209 55z" />
    <glyph glyph-name="six" unicode="6" horiz-adv-x="1274" 
d="M730 1028q91 0 177 -37.5t151.5 -102.5t105.5 -159t40 -200q0 -150 -75.5 -277.5t-207 -202.5t-288.5 -75q-158 0 -285.5 64.5t-202.5 188t-75 286.5q0 104 60 234t339 645q25 46 39 72t37 68.5t43 79.5l369 -2l-335 -596q56 14 108 14zM638 296q100 0 172.5 72t72.5 171
t-72 171.5t-172 72.5t-172 -72.5t-72 -172.5q0 -99 71.5 -170.5t171.5 -71.5z" />
    <glyph glyph-name="seven" unicode="7" horiz-adv-x="1165" 
d="M42 1612h1102v-60l-609 -1552h-340l494 1296h-647v316z" />
    <glyph glyph-name="eight" unicode="8" horiz-adv-x="1255" 
d="M627 -34q-122 0 -227.5 43t-177 114.5t-112 166t-40.5 197.5q0 91 31 171.5t78.5 132t97 83.5t91.5 39q-83 21 -147 110t-64 202q0 79 35 155t95.5 135.5t150 95.5t190.5 36t190 -35.5t150.5 -94t97 -135t35.5 -156.5q0 -61 -21 -117.5t-53.5 -95.5t-68 -65t-67.5 -35
q29 -6 65 -26t77 -57.5t74.5 -85t55.5 -115.5t22 -143q0 -103 -41 -198t-113 -166t-177.5 -113.5t-226.5 -42.5zM629 1058q64 0 112 36t48 107q0 69 -46 107.5t-114 38.5q-67 0 -113 -37.5t-46 -105.5q0 -69 46.5 -107.5t112.5 -38.5zM626 289q98 0 166 63t68 155
q0 94 -68.5 160t-162.5 66t-164 -66.5t-70 -161.5q0 -91 66.5 -153.5t164.5 -62.5z" />
    <glyph glyph-name="nine" unicode="9" horiz-adv-x="1274" 
d="M637 1640q117 0 223 -45.5t181 -122t119 -180.5t44 -217q0 -41 -4.5 -74.5t-11 -65t-29 -80.5t-42 -90t-67.5 -126.5t-88.5 -157t-122.5 -214t-152 -267.5h-371l321 577q-48 -12 -96 -12q-122 0 -230 67.5t-174.5 186.5t-66.5 260q0 112 44.5 215.5t119.5 179.5
t180.5 121t222.5 45zM636 831q100 0 172 72t72 171t-72 171.5t-172 72.5t-171.5 -72.5t-71.5 -171.5t72 -171t171 -72z" />
    <glyph glyph-name="colon" unicode=":" horiz-adv-x="624" 
d="M312 744q-86 0 -146.5 60.5t-60.5 145.5q0 86 60.5 146.5t146.5 60.5q85 0 146 -61t61 -146t-61 -145.5t-146 -60.5zM312 0q-86 0 -146.5 61t-60.5 146t61 146t146 61q84 0 145.5 -61.5t61.5 -145.5q0 -85 -61 -146t-146 -61z" />
    <glyph glyph-name="semicolon" unicode=";" horiz-adv-x="676" 
d="M312 744q-86 0 -146.5 60.5t-60.5 145.5q0 86 60.5 146.5t146.5 60.5q85 0 146 -61t61 -146t-61 -145.5t-146 -60.5zM251 -364q-35 0 -63.5 11.5t-41 24.5t-12.5 22q68 0 128.5 50t60.5 137q0 47 -15 75q-62 0 -121 50t-59 137q0 90 63 154.5t157 64.5q99 0 161 -78
t62 -218q0 -81 -22 -157.5t-61.5 -137.5t-101 -98t-135.5 -37z" />
    <glyph glyph-name="less" unicode="&#x3c;" horiz-adv-x="1249" 
d="M1099 208l-959 610v20l969 610l-10 -337l-498 -283l498 -282v-338z" />
    <glyph glyph-name="equal" unicode="=" horiz-adv-x="1396" 
d="M140 916v284h1116v-284h-1116zM140 351v283h1116v-283h-1116z" />
    <glyph glyph-name="greater" unicode="&#x3e;" horiz-adv-x="1249" 
d="M150 208v338l498 282l-498 283l-10 337l969 -610v-20z" />
    <glyph glyph-name="question" unicode="?" horiz-adv-x="1043" 
d="M312 555v29q0 129 68.5 229t217.5 214q33 25 56.5 67t23.5 87q0 86 -57 132t-155 46q-94 0 -171.5 -44.5t-109.5 -119.5l-115 254q13 25 28 46.5t50.5 56.5t77.5 59t110.5 42.5t147.5 18.5q106 0 199.5 -39.5t155.5 -101.5t98 -138t36 -151q0 -113 -31 -194t-102 -154
q-25 -26 -61.5 -52.5t-62 -45.5t-50 -45t-37.5 -63t-13 -87q0 -29 2 -45zM468 -51q-86 0 -146.5 60.5t-60.5 145.5q0 84 60.5 143.5t144.5 59.5q86 0 147.5 -61.5t61.5 -145.5t-61 -143t-146 -59z" />
    <glyph glyph-name="at" unicode="@" horiz-adv-x="2315" 
d="M1073 -480q-212 0 -383.5 52.5t-285 141t-190.5 209t-110.5 252t-33.5 275.5q0 252 97 479.5t262 392t394.5 261.5t483.5 97q180 0 333 -48t263 -132.5t188 -198.5t116 -246.5t38 -275.5q0 -124 -30 -245.5t-87.5 -226.5t-135.5 -185.5t-181 -126.5t-217 -46
q-153 0 -230.5 94t-74.5 263q-8 -72 -91 -120.5t-184 -48.5q-143 0 -230 102t-87 268q0 137 52.5 258t152.5 196.5t224 75.5q91 -1 153 -45.5t62 -114.5l63 151h223l-77 -626q-4 -38 -4 -57q0 -68 24.5 -111t80.5 -43q62 0 114 51.5t83.5 132.5t48.5 173t17 179
q0 129 -34.5 236t-95.5 181t-144.5 125t-181 74t-205.5 22q-180 -1 -340.5 -71t-275.5 -187t-182.5 -279.5t-67.5 -342.5q0 -143 48 -264.5t137.5 -211t226.5 -140t306 -50.5q114 0 214 42l82 -278q-97 -37 -162.5 -50t-165.5 -13zM1114 391q83 0 139 70t56 159
q0 67 -37 114t-109 47q-86 0 -146.5 -68t-60.5 -156q0 -71 44 -118.5t114 -47.5z" />
    <glyph glyph-name="A" unicode="A" horiz-adv-x="1593" 
d="M1221 0l-102 225h-645l-103 -225h-350l770 1652h10l771 -1652h-351zM600 501h393l-196 431z" />
    <glyph glyph-name="A" unicode="a" horiz-adv-x="1593" 
d="M1221 0l-102 225h-645l-103 -225h-350l770 1652h10l771 -1652h-351zM600 501h393l-196 431z" />
    <glyph glyph-name="B" unicode="B" horiz-adv-x="1294" 
d="M896 908q59 0 121 -29.5t115 -82t86.5 -133.5t33.5 -174q0 -72 -20 -142t-62 -133t-100.5 -110.5t-141.5 -75.5t-179 -28h-609v1612h440q104 0 193.5 -36t148.5 -96t92.5 -136.5t33.5 -158.5q0 -60 -18 -114.5t-43.5 -88.5t-50 -54t-40.5 -20zM600 1297h-137v-315h131
q60 0 106 46t46 114q0 66 -44 110.5t-102 44.5zM719 316q85 0 151 54t66 142q0 77 -55 131.5t-163 54.5h-255v-382h256z" />
    <glyph glyph-name="B" unicode="b" horiz-adv-x="1294" 
d="M896 908q59 0 121 -29.5t115 -82t86.5 -133.5t33.5 -174q0 -72 -20 -142t-62 -133t-100.5 -110.5t-141.5 -75.5t-179 -28h-609v1612h440q104 0 193.5 -36t148.5 -96t92.5 -136.5t33.5 -158.5q0 -60 -18 -114.5t-43.5 -88.5t-50 -54t-40.5 -20zM600 1297h-137v-315h131
q60 0 106 46t46 114q0 66 -44 110.5t-102 44.5zM719 316q85 0 151 54t66 142q0 77 -55 131.5t-163 54.5h-255v-382h256z" />
    <glyph glyph-name="C" unicode="C" horiz-adv-x="1514" 
d="M913 -31q-228 0 -422.5 114t-307.5 306.5t-113 415.5q0 167 67.5 322.5t180 268.5t267.5 181t322 68q311 -4 565 -249l-187 -255q-177 174 -381 174q-128 0 -245 -68.5t-189 -187.5t-72 -256q0 -104 44 -200t115 -163t162 -106.5t184 -39.5q195 0 383 184l186 -262
q-118 -117 -253 -182t-306 -65z" />
    <glyph glyph-name="C" unicode="c" horiz-adv-x="1514" 
d="M913 -31q-228 0 -422.5 114t-307.5 306.5t-113 415.5q0 167 67.5 322.5t180 268.5t267.5 181t322 68q311 -4 565 -249l-187 -255q-177 174 -381 174q-128 0 -245 -68.5t-189 -187.5t-72 -256q0 -104 44 -200t115 -163t162 -106.5t184 -39.5q195 0 383 184l186 -262
q-118 -117 -253 -182t-306 -65z" />
    <glyph glyph-name="D" unicode="D" horiz-adv-x="1518" 
d="M609 1612q391 1 615 -215t224 -593q0 -375 -224 -589.5t-615 -214.5h-469v1611zM611 323q238 0 374 128.5t136 353.5q0 227 -137 356.5t-376 129.5h-145v-968h148z" />
    <glyph glyph-name="D" unicode="d" horiz-adv-x="1518" 
d="M609 1612q391 1 615 -215t224 -593q0 -375 -224 -589.5t-615 -214.5h-469v1611zM611 323q238 0 374 128.5t136 353.5q0 227 -137 356.5t-376 129.5h-145v-968h148z" />
    <glyph glyph-name="E" unicode="E" horiz-adv-x="1210" 
d="M1112 1293h-648v-315h556v-323h-556v-333h648v-322h-972v1612h972v-319z" />
    <glyph glyph-name="E" unicode="e" horiz-adv-x="1210" 
d="M1112 1293h-648v-315h556v-323h-556v-333h648v-322h-972v1612h972v-319z" />
    <glyph glyph-name="F" unicode="F" horiz-adv-x="1154" 
d="M1112 1293h-648v-325h556v-323h-556v-647h-324v1618h972v-323z" />
    <glyph glyph-name="F" unicode="f" horiz-adv-x="1154" 
d="M1112 1293h-648v-325h556v-323h-556v-647h-324v1618h972v-323z" />
    <glyph glyph-name="G" unicode="G" horiz-adv-x="1758" 
d="M1680 905q8 -75 8 -136q0 -185 -61 -338t-166 -253t-244.5 -155t-297.5 -55q-175 0 -332.5 66.5t-270.5 178.5t-179.5 266.5t-66.5 324.5t66.5 325.5t178.5 268.5t267 180t325 67q156 -1 313.5 -68.5t276.5 -183.5l-180 -269q-198 193 -414 193q-93 0 -184 -38.5
t-161.5 -104.5t-114 -163.5t-43.5 -206.5q0 -104 39.5 -197.5t108.5 -162.5t169 -109.5t216 -40.5q175 0 286.5 84t119.5 228h-417v299h758z" />
    <glyph glyph-name="G" unicode="g" horiz-adv-x="1758" 
d="M1680 905q8 -75 8 -136q0 -185 -61 -338t-166 -253t-244.5 -155t-297.5 -55q-175 0 -332.5 66.5t-270.5 178.5t-179.5 266.5t-66.5 324.5t66.5 325.5t178.5 268.5t267 180t325 67q156 -1 313.5 -68.5t276.5 -183.5l-180 -269q-198 193 -414 193q-93 0 -184 -38.5
t-161.5 -104.5t-114 -163.5t-43.5 -206.5q0 -104 39.5 -197.5t108.5 -162.5t169 -109.5t216 -40.5q175 0 286.5 84t119.5 228h-417v299h758z" />
    <glyph glyph-name="H" unicode="H" horiz-adv-x="1505" 
d="M1042 1612h323v-1612h-323v646h-579v-646h-323v1612h323v-645h579v645z" />
    <glyph glyph-name="H" unicode="h" horiz-adv-x="1505" 
d="M1042 1612h323v-1612h-323v646h-579v-646h-323v1612h323v-645h579v645z" />
    <glyph glyph-name="I" unicode="I" horiz-adv-x="604" 
d="M140 0v1612h324v-1612h-324z" />
    <glyph glyph-name="J" unicode="J" horiz-adv-x="1184" 
d="M404 -36q-202 0 -362 111l164 284q86 -72 200 -72h7q132 0 226.5 96.5t94.5 228.5l-6 1000l324 -1l6 -1001q0 -178 -86 -327t-233.5 -234t-323.5 -85h-11z" />
    <glyph glyph-name="J" unicode="j" horiz-adv-x="1184" 
d="M404 -36q-202 0 -362 111l164 284q86 -72 200 -72h7q132 0 226.5 96.5t94.5 228.5l-6 1000l324 -1l6 -1001q0 -178 -86 -327t-233.5 -234t-323.5 -85h-11z" />
    <glyph glyph-name="K" unicode="K" horiz-adv-x="1361" 
d="M1347 0h-394l-490 706v-706h-323v1612h323v-697l453 697h374l-517 -789z" />
    <glyph glyph-name="K" unicode="k" horiz-adv-x="1361" 
d="M1347 0h-394l-490 706v-706h-323v1612h323v-697l453 697h374l-517 -789z" />
    <glyph glyph-name="L" unicode="L" horiz-adv-x="1154" 
d="M464 322h648v-322h-972v1612h324v-1290z" />
    <glyph glyph-name="L" unicode="l" horiz-adv-x="1154" 
d="M464 322h648v-322h-972v1612h324v-1290z" />
    <glyph glyph-name="M" unicode="M" horiz-adv-x="1859" 
d="M1701 1652h18v-1652h-324v702l-464 -675h-2l-465 675v-702h-324v1652h18l772 -1065z" />
    <glyph glyph-name="M" unicode="m" horiz-adv-x="1859" 
d="M1701 1652h18v-1652h-324v702l-464 -675h-2l-465 675v-702h-324v1652h18l772 -1065z" />
    <glyph glyph-name="N" unicode="N" horiz-adv-x="1576" 
d="M1111 1616h325v-1646h-15l-957 931v-903h-324v1644h16l955 -929v903z" />
    <glyph glyph-name="N" unicode="n" horiz-adv-x="1576" 
d="M1111 1616h325v-1646h-15l-957 931v-903h-324v1644h16l955 -929v903z" />
    <glyph glyph-name="O" unicode="O" horiz-adv-x="1817" 
d="M907 -31q-169 0 -324 66.5t-267.5 178.5t-179 266.5t-66.5 323.5q0 171 66.5 326.5t179 268t267.5 179.5t325 67q227 0 420 -113t306 -306.5t113 -421.5q0 -169 -67 -323.5t-179.5 -266.5t-268 -178.5t-325.5 -66.5zM907 297q139 0 257 68.5t186.5 185.5t68.5 255
q0 104 -40.5 198.5t-109.5 163.5t-163.5 109.5t-198.5 40.5q-138 0 -255.5 -68.5t-186 -186.5t-68.5 -257q0 -138 68.5 -255t186 -185.5t255.5 -68.5z" />
    <glyph glyph-name="O" unicode="o" horiz-adv-x="1817" 
d="M907 -31q-169 0 -324 66.5t-267.5 178.5t-179 266.5t-66.5 323.5q0 171 66.5 326.5t179 268t267.5 179.5t325 67q227 0 420 -113t306 -306.5t113 -421.5q0 -169 -67 -323.5t-179.5 -266.5t-268 -178.5t-325.5 -66.5zM907 297q139 0 257 68.5t186.5 185.5t68.5 255
q0 104 -40.5 198.5t-109.5 163.5t-163.5 109.5t-198.5 40.5q-138 0 -255.5 -68.5t-186 -186.5t-68.5 -257q0 -138 68.5 -255t186 -185.5t255.5 -68.5z" />
    <glyph glyph-name="P" unicode="P" horiz-adv-x="1315" 
d="M140 0v1612h566q115 0 220 -43.5t181 -116.5t121 -174t45 -211q0 -147 -76 -272t-207 -198t-284 -73h-242v-524h-324zM706 844q100 -1 171.5 65.5t71.5 160.5q0 91 -71 156t-172 65h-242v-446z" />
    <glyph glyph-name="P" unicode="p" horiz-adv-x="1315" 
d="M140 0v1612h566q115 0 220 -43.5t181 -116.5t121 -174t45 -211q0 -147 -76 -272t-207 -198t-284 -73h-242v-524h-324zM706 844q100 -1 171.5 65.5t71.5 160.5q0 91 -71 156t-172 65h-242v-446z" />
    <glyph glyph-name="Q" unicode="Q" horiz-adv-x="1817" 
d="M1747 804q0 -149 -51 -286t-144 -248q85 -25 177 -30l-26 -316q-234 15 -413 138q-178 -93 -383 -93q-169 0 -324 66.5t-267.5 178.5t-179 266.5t-66.5 323.5q0 171 66.5 326.5t179 268t267.5 179.5t325 67q227 0 420 -113t306 -306.5t113 -421.5zM397 806
q0 -138 68.5 -255t186 -185.5t255.5 -68.5q62 0 114 13q-96 102 -173.5 155t-175.5 60l17 278q64 -5 120.5 -18.5t103 -36.5t84 -46.5t76 -59t65.5 -62.5t65.5 -68t64.5 -66q71 70 111 163.5t40 196.5q0 104 -40.5 198.5t-109.5 163.5t-163.5 109.5t-198.5 40.5
q-138 0 -255.5 -68.5t-186 -186.5t-68.5 -257z" />
    <glyph glyph-name="Q" unicode="q" horiz-adv-x="1817" 
d="M1747 804q0 -149 -51 -286t-144 -248q85 -25 177 -30l-26 -316q-234 15 -413 138q-178 -93 -383 -93q-169 0 -324 66.5t-267.5 178.5t-179 266.5t-66.5 323.5q0 171 66.5 326.5t179 268t267.5 179.5t325 67q227 0 420 -113t306 -306.5t113 -421.5zM397 806
q0 -138 68.5 -255t186 -185.5t255.5 -68.5q62 0 114 13q-96 102 -173.5 155t-175.5 60l17 278q64 -5 120.5 -18.5t103 -36.5t84 -46.5t76 -59t65.5 -62.5t65.5 -68t64.5 -66q71 70 111 163.5t40 196.5q0 104 -40.5 198.5t-109.5 163.5t-163.5 109.5t-198.5 40.5
q-138 0 -255.5 -68.5t-186 -186.5t-68.5 -257z" />
    <glyph glyph-name="R" unicode="R" horiz-adv-x="1388" 
d="M1374 0h-396l-513 762v-762h-324l-1 1612h526q148 0 274.5 -69.5t200 -190t73.5 -262.5q0 -154 -83.5 -278.5t-214.5 -170.5zM464 1291v-405l208 -1q84 -1 146 58.5t62 144.5t-62.5 144t-145.5 59h-208z" />
    <glyph glyph-name="R" unicode="r" horiz-adv-x="1388" 
d="M1374 0h-396l-513 762v-762h-324l-1 1612h526q148 0 274.5 -69.5t200 -190t73.5 -262.5q0 -154 -83.5 -278.5t-214.5 -170.5zM464 1291v-405l208 -1q84 -1 146 58.5t62 144.5t-62.5 144t-145.5 59h-208z" />
    <glyph glyph-name="S" unicode="S" horiz-adv-x="1264" 
d="M623 -32q-197 0 -341.5 79.5t-225.5 230.5l259 182q103 -166 313 -166q113 0 183.5 41.5t70.5 106.5q0 28 -13 55t-42.5 54t-55.5 47t-76 48t-77.5 42t-85.5 43q-4 2 -6.5 3.5t-5.5 2.5q-52 26 -79 40t-74.5 42.5t-73.5 50.5t-59.5 57.5t-51 71t-30 83t-12.5 101.5
q0 136 71.5 242.5t192 163.5t268.5 57q171 0 296.5 -72t178.5 -214l-239 -167q-34 68 -96 101.5t-135 33.5q-90 0 -150.5 -45t-60.5 -108q0 -20 6.5 -37t22.5 -33t32.5 -28t47.5 -27t55.5 -26.5t68 -30.5t74.5 -34q107 -50 182 -98.5t134.5 -109.5t89 -136t29.5 -166
q0 -219 -162 -350t-423 -131z" />
    <glyph glyph-name="S" unicode="s" horiz-adv-x="1264" 
d="M623 -32q-197 0 -341.5 79.5t-225.5 230.5l259 182q103 -166 313 -166q113 0 183.5 41.5t70.5 106.5q0 28 -13 55t-42.5 54t-55.5 47t-76 48t-77.5 42t-85.5 43q-4 2 -6.5 3.5t-5.5 2.5q-52 26 -79 40t-74.5 42.5t-73.5 50.5t-59.5 57.5t-51 71t-30 83t-12.5 101.5
q0 136 71.5 242.5t192 163.5t268.5 57q171 0 296.5 -72t178.5 -214l-239 -167q-34 68 -96 101.5t-135 33.5q-90 0 -150.5 -45t-60.5 -108q0 -20 6.5 -37t22.5 -33t32.5 -28t47.5 -27t55.5 -26.5t68 -30.5t74.5 -34q107 -50 182 -98.5t134.5 -109.5t89 -136t29.5 -166
q0 -219 -162 -350t-423 -131z" />
    <glyph glyph-name="T" unicode="T" horiz-adv-x="1202" 
d="M1160 1612v-321h-396v-1291h-325v1291h-397v321h1118z" />
    <glyph glyph-name="T" unicode="t" horiz-adv-x="1202" 
d="M1160 1612v-321h-396v-1291h-325v1291h-397v321h1118z" />
    <glyph glyph-name="U" unicode="U" horiz-adv-x="1496" 
d="M748 -35q-170 0 -312.5 81t-226 226t-83.5 324v1016h326v-1015q0 -129 87.5 -216.5t207.5 -87.5t208.5 87.5t88.5 216.5v1015h326v-1016q0 -179 -83.5 -324t-226 -226t-312.5 -81z" />
    <glyph glyph-name="U" unicode="u" horiz-adv-x="1496" 
d="M748 -35q-170 0 -312.5 81t-226 226t-83.5 324v1016h326v-1015q0 -129 87.5 -216.5t207.5 -87.5t208.5 87.5t88.5 216.5v1015h326v-1016q0 -179 -83.5 -324t-226 -226t-312.5 -81z" />
    <glyph glyph-name="V" unicode="V" horiz-adv-x="1559" 
d="M1191 1612h347l-754 -1652h-12l-751 1652h343l413 -936z" />
    <glyph glyph-name="V" unicode="v" horiz-adv-x="1559" 
d="M1191 1612h347l-754 -1652h-12l-751 1652h343l413 -936z" />
    <glyph glyph-name="W" unicode="W" horiz-adv-x="1933" 
d="M546 -20l-525 1632h349l248 -813l346 807h6l345 -806l247 812h350l-525 -1632h-19l-405 876l-399 -876h-18z" />
    <glyph glyph-name="W" unicode="w" horiz-adv-x="1933" 
d="M546 -20l-525 1632h349l248 -813l346 807h6l345 -806l247 812h350l-525 -1632h-19l-405 876l-399 -876h-18z" />
    <glyph glyph-name="X" unicode="X" horiz-adv-x="1397" 
d="M21 0l490 837l-460 775h372l276 -488l275 488h372l-461 -774l491 -838h-372l-306 541l-305 -541h-372z" />
    <glyph glyph-name="X" unicode="x" horiz-adv-x="1397" 
d="M21 0l490 837l-460 775h372l276 -488l275 488h372l-461 -774l491 -838h-372l-306 541l-305 -541h-372z" />
    <glyph glyph-name="Y" unicode="Y" horiz-adv-x="1363" 
d="M520 0v692l-499 920h366l294 -560l294 560h367l-500 -920v-692h-322z" />
    <glyph glyph-name="Y" unicode="y" horiz-adv-x="1363" 
d="M520 0v692l-499 920h366l294 -560l294 560h367l-500 -920v-692h-322z" />
    <glyph glyph-name="Z" unicode="Z" horiz-adv-x="1302" 
d="M84 0l621 1291h-621v321h1134l-621 -1290h621v-322h-1134z" />
    <glyph glyph-name="Z" unicode="z" horiz-adv-x="1302" 
d="M84 0l621 1291h-621v321h1134l-621 -1290h621v-322h-1134z" />
    <glyph glyph-name="bracketleft" unicode="[" horiz-adv-x="736" 
d="M666 1490h-248v-1368h248v-242h-526v1852h526v-242z" />
    <glyph glyph-name="backslash" unicode="\" horiz-adv-x="974" 
d="M953 -120h-283l-649 1852h284z" />
    <glyph glyph-name="bracketright" unicode="]" horiz-adv-x="736" 
d="M596 1732v-1852h-526v242h248v1368h-248v242h526z" />
    <glyph glyph-name="asciicircum" unicode="^" horiz-adv-x="950" 
d="M21 1096l443 584h20l445 -584h-281l-173 225l-174 -225h-280z" />
    <glyph glyph-name="underscore" unicode="_" horiz-adv-x="1209" 
d="M0 -110v221h1209v-221h-1209z" />
    <glyph glyph-name="grave" unicode="`" horiz-adv-x="600" 
d="M238 1333l-238 327h280l187 -327h-229z" />
    <glyph glyph-name="i" unicode="i" horiz-adv-x="604" 
d="M140 0v1612h324v-1612h-324z" />
    <glyph glyph-name="braceleft" unicode="{" horiz-adv-x="886" 
d="M568 -120q-115 0 -196.5 87t-81.5 209v206q0 140 -64.5 240t-155.5 100v185q91 0 155.5 100t64.5 240v189q0 122 81.5 209t196.5 87h248v-242l-161 -4q-36 -1 -61.5 -56.5t-25.5 -132.5v-82q0 -165 -62.5 -282.5t-150.5 -117.5q88 0 150.5 -117.5t62.5 -283.5v-99
q0 -80 25.5 -136.5t61.5 -56.5h161v-242h-248z" />
    <glyph glyph-name="bar" unicode="|" horiz-adv-x="593" 
d="M200 -450v2300h193v-2300h-193z" />
    <glyph glyph-name="braceright" unicode="}" horiz-adv-x="886" 
d="M318 -120h-248v242h161q36 0 61.5 56.5t25.5 136.5v99q0 166 62.5 283.5t150.5 117.5q-88 0 -150.5 117.5t-62.5 282.5v82q0 77 -25.5 132.5t-61.5 56.5l-161 4v242h248q115 0 196.5 -87t81.5 -209v-189q0 -140 64.5 -240t155.5 -100v-185q-91 0 -155.5 -100t-64.5 -240
v-206q0 -122 -81.5 -209t-196.5 -87z" />
    <glyph glyph-name="asciitilde" unicode="~" horiz-adv-x="1595" 
d="M388 555l-248 96q20 96 59.5 168t83 110t97.5 60.5t93 28.5t81 6q68 0 128 -21t104 -51t84 -59.5t83.5 -50.5t87.5 -21q68 0 106.5 53t59.5 150l248 -96q-20 -96 -59.5 -168t-83 -110t-97.5 -60.5t-93 -28.5t-81 -6q-67 0 -127.5 21t-104 50.5t-83.5 59.5t-84 51t-88 21
q-69 0 -106.5 -52.5t-59.5 -150.5z" />
    <glyph glyph-name="uni007F" horiz-adv-x="1992" 
 />
    <glyph glyph-name="exclamdown" unicode="&#xa1;" horiz-adv-x="694" 
d="M347 1213q86 0 146.5 -60.5t60.5 -145.5q0 -84 -60.5 -143.5t-144.5 -59.5q-86 0 -147.5 61.5t-61.5 145.5t61 143t146 59zM483 605l53 -1055h-374l51 1055h270z" />
    <glyph glyph-name="cent" unicode="&#xa2;" horiz-adv-x="1185" 
d="M1120 262q-138 -118 -320 -145v-204h-261v219q-208 55 -341 226.5t-133 391.5t133 391.5t341 226.5v232l261 1v-218q169 -25 305 -133l-173 -258q-95 90 -226 90q-138 0 -235.5 -97t-97.5 -235t97 -235t236 -97q132 0 227 90z" />
    <glyph glyph-name="sterling" unicode="&#xa3;" horiz-adv-x="1186" 
d="M523 291h593v-291h-1046v291h124q79 139 79 291q0 37 -10 84h-185v230h122q-18 75 -18 147q0 167 73 302t211 214t317 79q69 0 154 -17t156 -49l-157 -270q-21 19 -60 31.5t-80 12.5q-135 0 -211.5 -88.5t-76.5 -215.5q0 -74 18 -146h319v-230h-256q7 -47 7 -84
q0 -172 -73 -291z" />
    <glyph glyph-name="currency" unicode="&#xa4;" horiz-adv-x="1231" 
d="M1041 806q0 -128 -72 -235l187 -189l-121 -120l-189 190q-104 -68 -230 -68q-129 0 -235 73l-191 -188l-120 122l192 188q-66 102 -66 224q0 130 71 237l-188 190l122 121l187 -191q104 68 230 68q127 0 232 -69l189 187l122 -122l-189 -187q69 -104 69 -231zM618 633
q72 0 122 51t50 123q0 74 -54 123t-124 49q-71 0 -119.5 -50t-48.5 -123q0 -72 51 -122.5t123 -50.5z" />
    <glyph glyph-name="yen" unicode="&#xa5;" horiz-adv-x="1461" 
d="M1391 1612l-383 -704h347v-249h-464v-108h464v-249h-464v-302h-322v302h-447v249h447v108h-447v249h330l-382 704h366l294 -560l294 560h367z" />
    <glyph glyph-name="brokenbar" unicode="&#xa6;" horiz-adv-x="593" 
d="M200 850v1000h193v-1000h-193zM200 -450v1000h193v-1000h-193z" />
    <glyph glyph-name="section" unicode="&#xa7;" horiz-adv-x="1330" 
d="M1033 558q90 -87 90 -220q0 -178 -134 -289t-331 -111q-158 0 -283 71t-175 172l173 201q46 -65 122.5 -104.5t174.5 -39.5q145 0 145 82q0 28 -14.5 50.5t-57.5 46t-69 35t-99 39.5q-5 2 -7 3q-53 21 -93.5 40t-88 51.5t-78 68t-51 87.5t-20.5 112q0 141 102 234
q-95 93 -95 224q0 84 37.5 155t100 117t141.5 71.5t163 25.5q132 0 248 -62t159 -158l-212 -178q-78 98 -208 98q-121 0 -121 -83q0 -9 1.5 -16t6 -13.5t9 -11.5t16 -11.5t21.5 -11.5t30 -13t37 -15t47 -19t56 -23q70 -29 117 -52.5t95.5 -56.5t77 -68t46.5 -83.5t18 -106.5
q0 -142 -97 -238zM535 840q0 -13 3.5 -22.5t13.5 -18.5t20.5 -15.5t32.5 -15.5t42 -16.5t55.5 -21t66.5 -26.5h1q62 24 62 75q0 46 -49 79t-146 71q-43 -6 -72.5 -29t-29.5 -60z" />
    <glyph glyph-name="dieresis" unicode="&#xa8;" horiz-adv-x="600" 
d="M71 1366q-50 0 -85.5 35.5t-35.5 84.5t36 85t85 36t84.5 -36t35.5 -85t-35.5 -84.5t-84.5 -35.5zM519 1366q-49 0 -84.5 35t-35.5 85q0 49 35.5 85t84.5 36t85 -36t36 -85t-35.5 -84.5t-85.5 -35.5z" />
    <glyph glyph-name="copyright" unicode="&#xa9;" horiz-adv-x="1742" 
d="M871 -89q-165 0 -313.5 63t-255 170t-169.5 255.5t-63 313.5q0 219 106 403t290 290.5t405 106.5t405.5 -108t290 -291.5t105.5 -400.5q0 -221 -108 -406t-292 -290.5t-401 -105.5zM871 68q130 0 249 51.5t205.5 138t138 205.5t51.5 249t-51.5 249.5t-138 206.5
t-205.5 138.5t-249 51.5t-249 -51.5t-205.5 -138.5t-138 -206.5t-51.5 -249.5t51.5 -249t138.5 -205.5t206 -138t248 -51.5zM894 232q-133 0 -245.5 65t-177.5 177t-65 245q0 132 65 243.5t177.5 177t245.5 65.5q168 0 303 -106l-132 -197q-71 69 -171 69
q-106 0 -179.5 -73.5t-73.5 -178.5t74 -179.5t179 -74.5q98 0 172 69l142 -187q-134 -115 -314 -115z" />
    <glyph glyph-name="guillemotleft" unicode="&#xab;" horiz-adv-x="1255" 
d="M655 1298l-286 -498l286 -497l-204 -41l-381 538l381 538zM1185 1298l-286 -498l286 -497l-204 -41l-381 538l381 538z" />
    <glyph glyph-name="logicalnot" unicode="&#xac;" horiz-adv-x="1481" 
d="M140 1036h1201v-627h-300v327h-901v300z" />
    <glyph glyph-name="registered" unicode="&#xae;" horiz-adv-x="1060" 
d="M530 1612q189 0 319.5 -131.5t130.5 -317.5q0 -125 -60.5 -229t-164 -163t-225.5 -59q-188 0 -319 131.5t-131 319.5q0 187 130.5 318t319.5 131zM530 806q146 0 251 105t105 251q0 147 -105 252t-251 105t-251 -105t-105 -252q0 -146 105 -251t251 -105zM689 1248
q0 -43 -23.5 -78.5t-59.5 -48.5l128 -180h-111l-144 213v-213h-91l-1 453h148q64 0 109 -42.5t45 -103.5zM478 1304v-114h59q24 0 41 16.5t17 40.5t-17 40.5t-41 16.5h-59z" />
    <glyph glyph-name="macron" unicode="&#xaf;" horiz-adv-x="600" 
d="M9 1396v162h582v-162h-582z" />
    <glyph glyph-name="degree" unicode="&#xb0;" horiz-adv-x="694" 
d="M347 1079q-115 0 -198.5 83.5t-83.5 198.5t83.5 199t198.5 84t198.5 -83.5t83.5 -199.5t-83.5 -199t-198.5 -83zM347 1223q57 0 98 40.5t41 98.5q0 56 -41.5 97.5t-97.5 41.5t-97.5 -41.5t-41.5 -98.5t40.5 -97.5t98.5 -40.5z" />
    <glyph glyph-name="plusminus" unicode="&#xb1;" horiz-adv-x="1171" 
d="M736 1147h295v-273h-295v-295h-300v295h-296v273h296v265h300v-265zM140 200v253h891v-253h-891z" />
    <glyph glyph-name="acute" unicode="&#xb4;" horiz-adv-x="600" 
d="M229 1333h-229l187 327h280z" />
    <glyph glyph-name="uni00B5" unicode="&#xb5;" horiz-adv-x="1350" 
d="M912 1200h308v-649q0 -136 -24 -239.5t-63.5 -167.5t-97 -104t-118 -55t-134.5 -15q-209 0 -345 141v-561h-308v1650h308v-649q0 -135 64 -209t178 -74q119 0 175.5 65t56.5 218v649z" />
    <glyph glyph-name="paragraph" unicode="&#xb6;" horiz-adv-x="1545" 
d="M200 1176q0 128 65.5 237.5t177.5 173t244 63.5h270v-1752h-225v804h-45q-132 0 -244 63.5t-177.5 173t-65.5 237.5zM1125 1650h220v-1760h-220v1760z" />
    <glyph glyph-name="periodcentered" unicode="&#xb7;" horiz-adv-x="624" 
d="M312 579q-86 0 -146.5 60.5t-60.5 145.5t61 146t146 61q84 0 145.5 -61.5t61.5 -145.5q0 -85 -61 -145.5t-146 -60.5z" />
    <glyph glyph-name="cedilla" unicode="&#xb8;" horiz-adv-x="600" 
d="M126 -550l-81 196q262 0 262 91q0 23 -17.5 38t-55.5 15q-22 0 -50 -6l-40 52l151 198h159l-104 -131q24 3 42 3q56 0 95.5 -45.5t39.5 -113.5q0 -120 -116.5 -208.5t-284.5 -88.5z" />
    <glyph glyph-name="guillemotright" unicode="&#xbb;" horiz-adv-x="1255" 
d="M274 1338l381 -538l-381 -538l-204 41l286 497l-286 498zM804 1338l381 -538l-381 -538l-204 41l286 497l-286 498z" />
    <glyph glyph-name="questiondown" unicode="&#xbf;" horiz-adv-x="1043" 
d="M575 1248q86 0 146.5 -60.5t60.5 -145.5q0 -84 -60.5 -143.5t-144.5 -59.5q-86 0 -147.5 61.5t-61.5 145.5t61 143t146 59zM731 642v-29q0 -129 -68.5 -229t-217.5 -214q-33 -25 -56.5 -67t-23.5 -87q0 -86 57 -132t155 -46q94 0 171.5 44.5t109.5 119.5l115 -254
q-13 -25 -28 -46.5t-50.5 -56.5t-77.5 -59t-110.5 -42.5t-147.5 -18.5q-106 0 -199.5 39.5t-155.5 101.5t-98 138t-36 151q0 113 31 194t102 154q25 26 61.5 52.5t62 45.5t50 45t37.5 63t13 87q0 29 -2 45z" />
    <glyph glyph-name="Agrave" unicode="&#xc0;" horiz-adv-x="1593" 
d="M1031 1745h-229l-238 327h280zM1221 0l-102 225h-645l-103 -225h-350l770 1652h10l771 -1652h-351zM600 501h393l-196 431z" />
    <glyph glyph-name="Agrave" unicode="&#xe0;" horiz-adv-x="1593" 
d="M1031 1745h-229l-238 327h280zM1221 0l-102 225h-645l-103 -225h-350l770 1652h10l771 -1652h-351zM600 501h393l-196 431z" />
    <glyph glyph-name="Aacute" unicode="&#xc1;" horiz-adv-x="1593" 
d="M1105 2072l-238 -327h-229l187 327h280zM1221 0l-102 225h-645l-103 -225h-350l770 1652h10l771 -1652h-351zM600 501h393l-196 431z" />
    <glyph glyph-name="Aacute" unicode="&#xe1;" horiz-adv-x="1593" 
d="M1105 2072l-238 -327h-229l187 327h280zM1221 0l-102 225h-645l-103 -225h-350l770 1652h10l771 -1652h-351zM600 501h393l-196 431z" />
    <glyph glyph-name="Acircumflex" unicode="&#xc2;" horiz-adv-x="1593" 
d="M796 1906l-148 -147h-257l315 293h179l319 -293h-259zM1221 0l-102 225h-645l-103 -225h-350l770 1652h10l771 -1652h-351zM600 501h393l-196 431z" />
    <glyph glyph-name="Acircumflex" unicode="&#xe2;" horiz-adv-x="1593" 
d="M796 1906l-148 -147h-257l315 293h179l319 -293h-259zM1221 0l-102 225h-645l-103 -225h-350l770 1652h10l771 -1652h-351zM600 501h393l-196 431z" />
    <glyph glyph-name="Atilde" unicode="&#xc3;" horiz-adv-x="1593" 
d="M645 1896q-43 0 -67 -33t-37 -94l-155 60q12 60 37 105t52 68.5t61 38t58.5 18t50.5 3.5q51 0 97.5 -20t74.5 -43.5t63.5 -43.5t68.5 -20q43 0 67 33t37 94l155 -60q-12 -60 -37 -105t-52 -68.5t-61 -38t-58.5 -18t-50.5 -3.5q-51 0 -97.5 20t-74.5 43.5t-63.5 43.5
t-68.5 20zM1221 0l-102 225h-645l-103 -225h-350l770 1652h10l771 -1652h-351zM600 501h393l-196 431z" />
    <glyph glyph-name="Atilde" unicode="&#xe3;" horiz-adv-x="1593" 
d="M645 1896q-43 0 -67 -33t-37 -94l-155 60q12 60 37 105t52 68.5t61 38t58.5 18t50.5 3.5q51 0 97.5 -20t74.5 -43.5t63.5 -43.5t68.5 -20q43 0 67 33t37 94l155 -60q-12 -60 -37 -105t-52 -68.5t-61 -38t-58.5 -18t-50.5 -3.5q-51 0 -97.5 20t-74.5 43.5t-63.5 43.5
t-68.5 20zM1221 0l-102 225h-645l-103 -225h-350l770 1652h10l771 -1652h-351zM600 501h393l-196 431z" />
    <glyph glyph-name="Adieresis" unicode="&#xc4;" horiz-adv-x="1593" 
d="M573 1778q-50 0 -85.5 35.5t-35.5 84.5t36 85t85 36t84.5 -36t35.5 -85t-35.5 -84.5t-84.5 -35.5zM1021 1778q-49 0 -84.5 35t-35.5 85q0 49 35.5 85t84.5 36t85 -36t36 -85t-35.5 -84.5t-85.5 -35.5zM1221 0l-102 225h-645l-103 -225h-350l770 1652h10l771 -1652h-351z
M600 501h393l-196 431z" />
    <glyph glyph-name="Adieresis" unicode="&#xe4;" horiz-adv-x="1593" 
d="M573 1778q-50 0 -85.5 35.5t-35.5 84.5t36 85t85 36t84.5 -36t35.5 -85t-35.5 -84.5t-84.5 -35.5zM1021 1778q-49 0 -84.5 35t-35.5 85q0 49 35.5 85t84.5 36t85 -36t36 -85t-35.5 -84.5t-85.5 -35.5zM1221 0l-102 225h-645l-103 -225h-350l770 1652h10l771 -1652h-351z
M600 501h393l-196 431z" />
    <glyph glyph-name="Aring" unicode="&#xc5;" horiz-adv-x="1593" 
d="M798 1708q-92 0 -157 65t-65 157t65 157t157 65q90 0 155.5 -65.5t65.5 -156.5t-65.5 -156.5t-155.5 -65.5zM798 2020q-38 0 -64.5 -27t-26.5 -64t26.5 -63.5t64.5 -26.5t64 26.5t26 63.5q0 38 -26.5 64.5t-63.5 26.5zM1221 0l-102 225h-645l-103 -225h-350l770 1652h10
l771 -1652h-351zM600 501h393l-196 431z" />
    <glyph glyph-name="Aring" unicode="&#xe5;" horiz-adv-x="1593" 
d="M798 1708q-92 0 -157 65t-65 157t65 157t157 65q90 0 155.5 -65.5t65.5 -156.5t-65.5 -156.5t-155.5 -65.5zM798 2020q-38 0 -64.5 -27t-26.5 -64t26.5 -63.5t64.5 -26.5t64 26.5t26 63.5q0 38 -26.5 64.5t-63.5 26.5zM1221 0l-102 225h-645l-103 -225h-350l770 1652h10
l771 -1652h-351zM600 501h393l-196 431z" />
    <glyph glyph-name="AE" unicode="&#xc6;" horiz-adv-x="2051" 
d="M1953 1293h-648v-315h556v-323h-556v-333h648v-322h-972v248h-488l-123 -248h-349l784 1612h1148v-319zM635 535h346v696z" />
    <glyph glyph-name="AE" unicode="&#xe6;" horiz-adv-x="2051" 
d="M1953 1293h-648v-315h556v-323h-556v-333h648v-322h-972v248h-488l-123 -248h-349l784 1612h1148v-319zM635 535h346v696z" />
    <glyph glyph-name="Ccedilla" unicode="&#xc7;" horiz-adv-x="1514" 
d="M1472 216q-111 -110 -236 -174t-282 -72l-53 -67q24 3 42 3q56 0 95.5 -45.5t39.5 -113.5q0 -120 -116.5 -208.5t-284.5 -88.5l-81 196q262 0 262 91q0 23 -17.5 38t-55.5 15q-21 0 -50 -6l-40 52l107 140q-204 27 -371.5 145t-264 298.5t-96.5 385.5q0 167 67.5 322.5
t180 268.5t267.5 181t322 68q311 -4 565 -249l-187 -255q-177 174 -381 174q-128 0 -245 -68.5t-189 -187.5t-72 -256q0 -104 44 -200t115 -163t162 -106.5t184 -39.5q195 0 383 184z" />
    <glyph glyph-name="Ccedilla" unicode="&#xe7;" horiz-adv-x="1514" 
d="M1472 216q-111 -110 -236 -174t-282 -72l-53 -67q24 3 42 3q56 0 95.5 -45.5t39.5 -113.5q0 -120 -116.5 -208.5t-284.5 -88.5l-81 196q262 0 262 91q0 23 -17.5 38t-55.5 15q-21 0 -50 -6l-40 52l107 140q-204 27 -371.5 145t-264 298.5t-96.5 385.5q0 167 67.5 322.5
t180 268.5t267.5 181t322 68q311 -4 565 -249l-187 -255q-177 174 -381 174q-128 0 -245 -68.5t-189 -187.5t-72 -256q0 -104 44 -200t115 -163t162 -106.5t184 -39.5q195 0 383 184z" />
    <glyph glyph-name="Egrave" unicode="&#xc8;" horiz-adv-x="1210" 
d="M830 1745h-229l-238 327h280zM1112 1293h-648v-315h556v-323h-556v-333h648v-322h-972v1612h972v-319z" />
    <glyph glyph-name="Egrave" unicode="&#xe8;" horiz-adv-x="1210" 
d="M830 1745h-229l-238 327h280zM1112 1293h-648v-315h556v-323h-556v-333h648v-322h-972v1612h972v-319z" />
    <glyph glyph-name="Eacute" unicode="&#xc9;" horiz-adv-x="1210" 
d="M904 2072l-238 -327h-229l187 327h280zM1112 1293h-648v-315h556v-323h-556v-333h648v-322h-972v1612h972v-319z" />
    <glyph glyph-name="Eacute" unicode="&#xe9;" horiz-adv-x="1210" 
d="M904 2072l-238 -327h-229l187 327h280zM1112 1293h-648v-315h556v-323h-556v-333h648v-322h-972v1612h972v-319z" />
    <glyph glyph-name="Ecircumflex" unicode="&#xca;" horiz-adv-x="1210" 
d="M595 1906l-148 -147h-257l315 293h179l319 -293h-259zM1112 1293h-648v-315h556v-323h-556v-333h648v-322h-972v1612h972v-319z" />
    <glyph glyph-name="Ecircumflex" unicode="&#xea;" horiz-adv-x="1210" 
d="M595 1906l-148 -147h-257l315 293h179l319 -293h-259zM1112 1293h-648v-315h556v-323h-556v-333h648v-322h-972v1612h972v-319z" />
    <glyph glyph-name="Edieresis" unicode="&#xcb;" horiz-adv-x="1210" 
d="M372 1778q-50 0 -85.5 35.5t-35.5 84.5t36 85t85 36t84.5 -36t35.5 -85t-35.5 -84.5t-84.5 -35.5zM820 1778q-50 0 -85 35t-35 85q0 49 35.5 85t84.5 36t85 -36t36 -85t-35.5 -84.5t-85.5 -35.5zM1112 1293h-648v-315h556v-323h-556v-333h648v-322h-972v1612h972v-319z
" />
    <glyph glyph-name="Edieresis" unicode="&#xeb;" horiz-adv-x="1210" 
d="M372 1778q-50 0 -85.5 35.5t-35.5 84.5t36 85t85 36t84.5 -36t35.5 -85t-35.5 -84.5t-84.5 -35.5zM820 1778q-50 0 -85 35t-35 85q0 49 35.5 85t84.5 36t85 -36t36 -85t-35.5 -84.5t-85.5 -35.5zM1112 1293h-648v-315h556v-323h-556v-333h648v-322h-972v1612h972v-319z
" />
    <glyph glyph-name="Igrave" unicode="&#xcc;" horiz-adv-x="604" 
d="M307 1745l-238 327h280l187 -327h-229zM140 0v1612h324v-1612h-324z" />
    <glyph glyph-name="Igrave" unicode="&#xec;" horiz-adv-x="604" 
d="M307 1745l-238 327h280l187 -327h-229zM140 0v1612h324v-1612h-324z" />
    <glyph glyph-name="Iacute" unicode="&#xcd;" horiz-adv-x="604" 
d="M372 1745h-229l187 327h280zM140 0v1612h324v-1612h-324z" />
    <glyph glyph-name="Iacute" unicode="&#xed;" horiz-adv-x="604" 
d="M372 1745h-229l187 327h280zM140 0v1612h324v-1612h-324z" />
    <glyph glyph-name="Icircumflex" unicode="&#xce;" horiz-adv-x="604" 
d="M-105 1759l315 293h179l319 -293h-259l-149 147l-148 -147h-257zM140 0v1612h324v-1612h-324z" />
    <glyph glyph-name="Icircumflex" unicode="&#xee;" horiz-adv-x="604" 
d="M-105 1759l315 293h179l319 -293h-259l-149 147l-148 -147h-257zM140 0v1612h324v-1612h-324z" />
    <glyph glyph-name="Idieresis" unicode="&#xcf;" horiz-adv-x="604" 
d="M78 1778q-50 0 -85.5 35.5t-35.5 84.5t36 85t85 36t84.5 -36t35.5 -85t-35.5 -84.5t-84.5 -35.5zM526 1778q-50 0 -85 35t-35 85q0 49 35.5 85t84.5 36t85 -36t36 -85t-35.5 -84.5t-85.5 -35.5zM140 0v1612h324v-1612h-324z" />
    <glyph glyph-name="Idieresis" unicode="&#xef;" horiz-adv-x="604" 
d="M78 1778q-50 0 -85.5 35.5t-35.5 84.5t36 85t85 36t84.5 -36t35.5 -85t-35.5 -84.5t-84.5 -35.5zM526 1778q-50 0 -85 35t-35 85q0 49 35.5 85t84.5 36t85 -36t36 -85t-35.5 -84.5t-85.5 -35.5zM140 0v1612h324v-1612h-324z" />
    <glyph glyph-name="Eth" unicode="&#xd0;" horiz-adv-x="1594" 
d="M685 1612q391 1 615 -215t224 -593q0 -375 -224 -589.5t-615 -214.5h-469v693h-174v212h174v706zM687 323q238 0 374 128.5t136 353.5q0 227 -137 356.5t-376 129.5h-145v-387h255v-211h-255v-370h148z" />
    <glyph glyph-name="Eth" unicode="&#xf0;" horiz-adv-x="1594" 
d="M685 1612q391 1 615 -215t224 -593q0 -375 -224 -589.5t-615 -214.5h-469v693h-174v212h174v706zM687 323q238 0 374 128.5t136 353.5q0 227 -137 356.5t-376 129.5h-145v-387h255v-211h-255v-370h148z" />
    <glyph glyph-name="Ntilde" unicode="&#xd1;" horiz-adv-x="1576" 
d="M636 1896q-43 0 -67 -33t-37 -94l-155 60q12 60 37 105t52 68.5t61 38t58.5 18t50.5 3.5q51 0 97.5 -20t74.5 -43.5t63.5 -43.5t68.5 -20q43 0 67 33t37 94l155 -60q-12 -60 -37 -105t-52 -68.5t-61 -38t-58.5 -18t-50.5 -3.5q-51 0 -97.5 20t-74.5 43.5t-63.5 43.5
t-68.5 20zM1111 1616h325v-1646h-15l-957 931v-903h-324v1644h16l955 -929v903z" />
    <glyph glyph-name="Ntilde" unicode="&#xf1;" horiz-adv-x="1576" 
d="M636 1896q-43 0 -67 -33t-37 -94l-155 60q12 60 37 105t52 68.5t61 38t58.5 18t50.5 3.5q51 0 97.5 -20t74.5 -43.5t63.5 -43.5t68.5 -20q43 0 67 33t37 94l155 -60q-12 -60 -37 -105t-52 -68.5t-61 -38t-58.5 -18t-50.5 -3.5q-51 0 -97.5 20t-74.5 43.5t-63.5 43.5
t-68.5 20zM1111 1616h325v-1646h-15l-957 931v-903h-324v1644h16l955 -929v903z" />
    <glyph glyph-name="Ograve" unicode="&#xd2;" horiz-adv-x="1817" 
d="M913 1745l-238 327h280l187 -327h-229zM907 -31q-169 0 -324 66.5t-267.5 178.5t-179 266.5t-66.5 323.5q0 171 66.5 326.5t179 268t267.5 179.5t325 67q227 0 420 -113t306 -306.5t113 -421.5q0 -169 -67 -323.5t-179.5 -266.5t-268 -178.5t-325.5 -66.5zM907 297
q139 0 257 68.5t186.5 185.5t68.5 255q0 104 -40.5 198.5t-109.5 163.5t-163.5 109.5t-198.5 40.5q-138 0 -255.5 -68.5t-186 -186.5t-68.5 -257q0 -138 68.5 -255t186 -185.5t255.5 -68.5z" />
    <glyph glyph-name="Ograve" unicode="&#xf2;" horiz-adv-x="1817" 
d="M913 1745l-238 327h280l187 -327h-229zM907 -31q-169 0 -324 66.5t-267.5 178.5t-179 266.5t-66.5 323.5q0 171 66.5 326.5t179 268t267.5 179.5t325 67q227 0 420 -113t306 -306.5t113 -421.5q0 -169 -67 -323.5t-179.5 -266.5t-268 -178.5t-325.5 -66.5zM907 297
q139 0 257 68.5t186.5 185.5t68.5 255q0 104 -40.5 198.5t-109.5 163.5t-163.5 109.5t-198.5 40.5q-138 0 -255.5 -68.5t-186 -186.5t-68.5 -257q0 -138 68.5 -255t186 -185.5t255.5 -68.5z" />
    <glyph glyph-name="Oacute" unicode="&#xd3;" horiz-adv-x="1817" 
d="M978 1745h-229l187 327h280zM907 -31q-169 0 -324 66.5t-267.5 178.5t-179 266.5t-66.5 323.5q0 171 66.5 326.5t179 268t267.5 179.5t325 67q227 0 420 -113t306 -306.5t113 -421.5q0 -169 -67 -323.5t-179.5 -266.5t-268 -178.5t-325.5 -66.5zM907 297q139 0 257 68.5
t186.5 185.5t68.5 255q0 104 -40.5 198.5t-109.5 163.5t-163.5 109.5t-198.5 40.5q-138 0 -255.5 -68.5t-186 -186.5t-68.5 -257q0 -138 68.5 -255t186 -185.5t255.5 -68.5z" />
    <glyph glyph-name="Oacute" unicode="&#xf3;" horiz-adv-x="1817" 
d="M978 1745h-229l187 327h280zM907 -31q-169 0 -324 66.5t-267.5 178.5t-179 266.5t-66.5 323.5q0 171 66.5 326.5t179 268t267.5 179.5t325 67q227 0 420 -113t306 -306.5t113 -421.5q0 -169 -67 -323.5t-179.5 -266.5t-268 -178.5t-325.5 -66.5zM907 297q139 0 257 68.5
t186.5 185.5t68.5 255q0 104 -40.5 198.5t-109.5 163.5t-163.5 109.5t-198.5 40.5q-138 0 -255.5 -68.5t-186 -186.5t-68.5 -257q0 -138 68.5 -255t186 -185.5t255.5 -68.5z" />
    <glyph glyph-name="Ocircumflex" unicode="&#xd4;" horiz-adv-x="1817" 
d="M502 1759l315 293h179l319 -293h-259l-149 147l-148 -147h-257zM907 -31q-169 0 -324 66.5t-267.5 178.5t-179 266.5t-66.5 323.5q0 171 66.5 326.5t179 268t267.5 179.5t325 67q227 0 420 -113t306 -306.5t113 -421.5q0 -169 -67 -323.5t-179.5 -266.5t-268 -178.5
t-325.5 -66.5zM907 297q139 0 257 68.5t186.5 185.5t68.5 255q0 104 -40.5 198.5t-109.5 163.5t-163.5 109.5t-198.5 40.5q-138 0 -255.5 -68.5t-186 -186.5t-68.5 -257q0 -138 68.5 -255t186 -185.5t255.5 -68.5z" />
    <glyph glyph-name="Ocircumflex" unicode="&#xf4;" horiz-adv-x="1817" 
d="M502 1759l315 293h179l319 -293h-259l-149 147l-148 -147h-257zM907 -31q-169 0 -324 66.5t-267.5 178.5t-179 266.5t-66.5 323.5q0 171 66.5 326.5t179 268t267.5 179.5t325 67q227 0 420 -113t306 -306.5t113 -421.5q0 -169 -67 -323.5t-179.5 -266.5t-268 -178.5
t-325.5 -66.5zM907 297q139 0 257 68.5t186.5 185.5t68.5 255q0 104 -40.5 198.5t-109.5 163.5t-163.5 109.5t-198.5 40.5q-138 0 -255.5 -68.5t-186 -186.5t-68.5 -257q0 -138 68.5 -255t186 -185.5t255.5 -68.5z" />
    <glyph glyph-name="Otilde" unicode="&#xd5;" horiz-adv-x="1817" 
d="M652 1769l-155 60q12 60 37 105t52 68.5t61 38t58.5 18t50.5 3.5q51 0 97.5 -20t74.5 -43.5t63.5 -43.5t68.5 -20q43 0 67 33t37 94l155 -60q-12 -60 -37 -105t-52 -68.5t-61 -38t-58.5 -18t-50.5 -3.5q-51 0 -97.5 20t-74.5 43.5t-63.5 43.5t-68.5 20q-43 0 -67 -33
t-37 -94zM907 -31q-169 0 -324 66.5t-267.5 178.5t-179 266.5t-66.5 323.5q0 171 66.5 326.5t179 268t267.5 179.5t325 67q227 0 420 -113t306 -306.5t113 -421.5q0 -169 -67 -323.5t-179.5 -266.5t-268 -178.5t-325.5 -66.5zM907 297q139 0 257 68.5t186.5 185.5t68.5 255
q0 104 -40.5 198.5t-109.5 163.5t-163.5 109.5t-198.5 40.5q-138 0 -255.5 -68.5t-186 -186.5t-68.5 -257q0 -138 68.5 -255t186 -185.5t255.5 -68.5z" />
    <glyph glyph-name="Otilde" unicode="&#xf5;" horiz-adv-x="1817" 
d="M652 1769l-155 60q12 60 37 105t52 68.5t61 38t58.5 18t50.5 3.5q51 0 97.5 -20t74.5 -43.5t63.5 -43.5t68.5 -20q43 0 67 33t37 94l155 -60q-12 -60 -37 -105t-52 -68.5t-61 -38t-58.5 -18t-50.5 -3.5q-51 0 -97.5 20t-74.5 43.5t-63.5 43.5t-68.5 20q-43 0 -67 -33
t-37 -94zM907 -31q-169 0 -324 66.5t-267.5 178.5t-179 266.5t-66.5 323.5q0 171 66.5 326.5t179 268t267.5 179.5t325 67q227 0 420 -113t306 -306.5t113 -421.5q0 -169 -67 -323.5t-179.5 -266.5t-268 -178.5t-325.5 -66.5zM907 297q139 0 257 68.5t186.5 185.5t68.5 255
q0 104 -40.5 198.5t-109.5 163.5t-163.5 109.5t-198.5 40.5q-138 0 -255.5 -68.5t-186 -186.5t-68.5 -257q0 -138 68.5 -255t186 -185.5t255.5 -68.5z" />
    <glyph glyph-name="Odieresis" unicode="&#xd6;" horiz-adv-x="1817" 
d="M684 1778q-50 0 -85.5 35.5t-35.5 84.5t36 85t85 36t84.5 -36t35.5 -85t-35.5 -84.5t-84.5 -35.5zM1132 1778q-50 0 -85 35t-35 85q0 49 35.5 85t84.5 36t85 -36t36 -85t-35.5 -84.5t-85.5 -35.5zM907 -31q-169 0 -324 66.5t-267.5 178.5t-179 266.5t-66.5 323.5
q0 171 66.5 326.5t179 268t267.5 179.5t325 67q227 0 420 -113t306 -306.5t113 -421.5q0 -169 -67 -323.5t-179.5 -266.5t-268 -178.5t-325.5 -66.5zM907 297q139 0 257 68.5t186.5 185.5t68.5 255q0 104 -40.5 198.5t-109.5 163.5t-163.5 109.5t-198.5 40.5
q-138 0 -255.5 -68.5t-186 -186.5t-68.5 -257q0 -138 68.5 -255t186 -185.5t255.5 -68.5z" />
    <glyph glyph-name="Odieresis" unicode="&#xf6;" horiz-adv-x="1817" 
d="M684 1778q-50 0 -85.5 35.5t-35.5 84.5t36 85t85 36t84.5 -36t35.5 -85t-35.5 -84.5t-84.5 -35.5zM1132 1778q-50 0 -85 35t-35 85q0 49 35.5 85t84.5 36t85 -36t36 -85t-35.5 -84.5t-85.5 -35.5zM907 -31q-169 0 -324 66.5t-267.5 178.5t-179 266.5t-66.5 323.5
q0 171 66.5 326.5t179 268t267.5 179.5t325 67q227 0 420 -113t306 -306.5t113 -421.5q0 -169 -67 -323.5t-179.5 -266.5t-268 -178.5t-325.5 -66.5zM907 297q139 0 257 68.5t186.5 185.5t68.5 255q0 104 -40.5 198.5t-109.5 163.5t-163.5 109.5t-198.5 40.5
q-138 0 -255.5 -68.5t-186 -186.5t-68.5 -257q0 -138 68.5 -255t186 -185.5t255.5 -68.5z" />
    <glyph glyph-name="multiply" unicode="&#xd7;" horiz-adv-x="1356" 
d="M1216 404l-202 -189l-336 359l-335 -360l-202 188l348 375l-349 374l202 189l336 -360l335 361l202 -190l-348 -374z" />
    <glyph glyph-name="Oslash" unicode="&#xd8;" horiz-adv-x="1817" 
d="M1484 1414q124 -117 193.5 -275t69.5 -335q0 -169 -67 -323.5t-179.5 -266.5t-268 -178.5t-325.5 -66.5q-191 0 -363 83l-94 -135h-274l180 260q-134 118 -210 281t-76 346q0 171 66.5 326.5t179 268t267.5 179.5t325 67q209 0 394 -99l71 103h273zM397 806
q0 -208 147 -357l570 825q-99 44 -207 44q-138 0 -255.5 -68.5t-186 -186.5t-68.5 -257zM907 297q139 0 257 68.5t186.5 185.5t68.5 255q0 189 -124 334l-562 -813q87 -30 174 -30z" />
    <glyph glyph-name="Oslash" unicode="&#xf8;" horiz-adv-x="1817" 
d="M1484 1414q124 -117 193.5 -275t69.5 -335q0 -169 -67 -323.5t-179.5 -266.5t-268 -178.5t-325.5 -66.5q-191 0 -363 83l-94 -135h-274l180 260q-134 118 -210 281t-76 346q0 171 66.5 326.5t179 268t267.5 179.5t325 67q209 0 394 -99l71 103h273zM397 806
q0 -208 147 -357l570 825q-99 44 -207 44q-138 0 -255.5 -68.5t-186 -186.5t-68.5 -257zM907 297q139 0 257 68.5t186.5 185.5t68.5 255q0 189 -124 334l-562 -813q87 -30 174 -30z" />
    <glyph glyph-name="Ugrave" unicode="&#xd9;" horiz-adv-x="1496" 
d="M753 1745l-238 327h280l187 -327h-229zM748 -35q-170 0 -312.5 81t-226 226t-83.5 324v1016h326v-1015q0 -129 87.5 -216.5t207.5 -87.5t208.5 87.5t88.5 216.5v1015h326v-1016q0 -179 -83.5 -324t-226 -226t-312.5 -81z" />
    <glyph glyph-name="Ugrave" unicode="&#xf9;" horiz-adv-x="1496" 
d="M753 1745l-238 327h280l187 -327h-229zM748 -35q-170 0 -312.5 81t-226 226t-83.5 324v1016h326v-1015q0 -129 87.5 -216.5t207.5 -87.5t208.5 87.5t88.5 216.5v1015h326v-1016q0 -179 -83.5 -324t-226 -226t-312.5 -81z" />
    <glyph glyph-name="Uacute" unicode="&#xda;" horiz-adv-x="1496" 
d="M818 1745h-229l187 327h280zM748 -35q-170 0 -312.5 81t-226 226t-83.5 324v1016h326v-1015q0 -129 87.5 -216.5t207.5 -87.5t208.5 87.5t88.5 216.5v1015h326v-1016q0 -179 -83.5 -324t-226 -226t-312.5 -81z" />
    <glyph glyph-name="Uacute" unicode="&#xfa;" horiz-adv-x="1496" 
d="M818 1745h-229l187 327h280zM748 -35q-170 0 -312.5 81t-226 226t-83.5 324v1016h326v-1015q0 -129 87.5 -216.5t207.5 -87.5t208.5 87.5t88.5 216.5v1015h326v-1016q0 -179 -83.5 -324t-226 -226t-312.5 -81z" />
    <glyph glyph-name="Ucircumflex" unicode="&#xdb;" horiz-adv-x="1496" 
d="M342 1759l315 293h179l319 -293h-259l-149 147l-148 -147h-257zM748 -35q-170 0 -312.5 81t-226 226t-83.5 324v1016h326v-1015q0 -129 87.5 -216.5t207.5 -87.5t208.5 87.5t88.5 216.5v1015h326v-1016q0 -179 -83.5 -324t-226 -226t-312.5 -81z" />
    <glyph glyph-name="Ucircumflex" unicode="&#xfb;" horiz-adv-x="1496" 
d="M342 1759l315 293h179l319 -293h-259l-149 147l-148 -147h-257zM748 -35q-170 0 -312.5 81t-226 226t-83.5 324v1016h326v-1015q0 -129 87.5 -216.5t207.5 -87.5t208.5 87.5t88.5 216.5v1015h326v-1016q0 -179 -83.5 -324t-226 -226t-312.5 -81z" />
    <glyph glyph-name="Udieresis" unicode="&#xdc;" horiz-adv-x="1496" 
d="M524 1778q-50 0 -85.5 35.5t-35.5 84.5t36 85t85 36t84.5 -36t35.5 -85t-35.5 -84.5t-84.5 -35.5zM972 1778q-50 0 -85 35t-35 85q0 49 35.5 85t84.5 36t85 -36t36 -85t-35.5 -84.5t-85.5 -35.5zM748 -35q-170 0 -312.5 81t-226 226t-83.5 324v1016h326v-1015
q0 -129 87.5 -216.5t207.5 -87.5t208.5 87.5t88.5 216.5v1015h326v-1016q0 -179 -83.5 -324t-226 -226t-312.5 -81z" />
    <glyph glyph-name="Udieresis" unicode="&#xfc;" horiz-adv-x="1496" 
d="M524 1778q-50 0 -85.5 35.5t-35.5 84.5t36 85t85 36t84.5 -36t35.5 -85t-35.5 -84.5t-84.5 -35.5zM972 1778q-50 0 -85 35t-35 85q0 49 35.5 85t84.5 36t85 -36t36 -85t-35.5 -84.5t-85.5 -35.5zM748 -35q-170 0 -312.5 81t-226 226t-83.5 324v1016h326v-1015
q0 -129 87.5 -216.5t207.5 -87.5t208.5 87.5t88.5 216.5v1015h326v-1016q0 -179 -83.5 -324t-226 -226t-312.5 -81z" />
    <glyph glyph-name="Yacute" unicode="&#xdd;" horiz-adv-x="1363" 
d="M752 1745h-229l187 327h280zM520 0v692l-499 920h366l294 -560l294 560h367l-500 -920v-692h-322z" />
    <glyph glyph-name="Yacute" unicode="&#xfd;" horiz-adv-x="1363" 
d="M752 1745h-229l187 327h280zM520 0v692l-499 920h366l294 -560l294 560h367l-500 -920v-692h-322z" />
    <glyph glyph-name="Thorn" unicode="&#xde;" horiz-adv-x="1310" 
d="M140 0v1612h323v-267h247q146 0 267.5 -70t192 -192t70.5 -267t-70.5 -267t-192 -192t-267.5 -70h-247v-287h-323zM463 585h247q95 0 163.5 67.5t68.5 163.5q0 95 -68.5 163.5t-163.5 68.5h-247v-463z" />
    <glyph glyph-name="Thorn" unicode="&#xfe;" horiz-adv-x="1310" 
d="M140 0v1612h323v-267h247q146 0 267.5 -70t192 -192t70.5 -267t-70.5 -267t-192 -192t-267.5 -70h-247v-287h-323zM463 585h247q95 0 163.5 67.5t68.5 163.5q0 95 -68.5 163.5t-163.5 68.5h-247v-463z" />
    <glyph glyph-name="uni1E9E" unicode="&#xdf;" horiz-adv-x="1814" 
d="M1367 990q208 -101 306.5 -229t98.5 -293q0 -216 -151.5 -358t-411.5 -142q-373 0 -549 320l226 225q72 -107 149 -163t181 -56q98 0 163.5 45.5t65.5 113.5q0 80 -88.5 161t-216.5 150q-248 129 -367 165l256 372q-93 43 -210 43q-144 0 -248.5 -79t-104.5 -204v-1061
h-326v1061q0 109 37.5 203t105.5 163t161 118t204.5 73.5t235.5 24.5q171 0 343 -45.5t311 -135.5l-337 -409q70 -16 166 -63z" />
    <glyph glyph-name="uni1E9E" unicode="&#x1e9e;" horiz-adv-x="1814" 
d="M1367 990q208 -101 306.5 -229t98.5 -293q0 -216 -151.5 -358t-411.5 -142q-373 0 -549 320l226 225q72 -107 149 -163t181 -56q98 0 163.5 45.5t65.5 113.5q0 80 -88.5 161t-216.5 150q-248 129 -367 165l256 372q-93 43 -210 43q-144 0 -248.5 -79t-104.5 -204v-1061
h-326v1061q0 109 37.5 203t105.5 163t161 118t204.5 73.5t235.5 24.5q171 0 343 -45.5t311 -135.5l-337 -409q70 -16 166 -63z" />
    <glyph glyph-name="divide" unicode="&#xf7;" horiz-adv-x="1516" 
d="M742 1076q-82 -1 -141.5 58.5t-59.5 142.5q0 82 59 141t140 59q82 0 142.5 -60t60.5 -141q0 -80 -59.5 -139.5t-141.5 -60.5zM140 635v269h1236v-269h-1236zM741 49q-81 0 -140.5 59.5t-59.5 142.5t59.5 141.5t140.5 58.5t141.5 -60t60.5 -141q0 -80 -60 -140.5
t-142 -60.5z" />
    <glyph glyph-name="Ydieresis" unicode="&#xff;" horiz-adv-x="1363" 
d="M458 1778q-50 0 -85.5 35.5t-35.5 84.5t36 85t85 36t84.5 -36t35.5 -85t-35.5 -84.5t-84.5 -35.5zM906 1778q-50 0 -85 35t-35 85q0 49 35.5 85t84.5 36t85 -36t36 -85t-35.5 -84.5t-85.5 -35.5zM520 0v692l-499 920h366l294 -560l294 560h367l-500 -920v-692h-322z" />
    <glyph glyph-name="Ydieresis" unicode="&#x178;" horiz-adv-x="1363" 
d="M458 1778q-50 0 -85.5 35.5t-35.5 84.5t36 85t85 36t84.5 -36t35.5 -85t-35.5 -84.5t-84.5 -35.5zM906 1778q-50 0 -85 35t-35 85q0 49 35.5 85t84.5 36t85 -36t36 -85t-35.5 -84.5t-85.5 -35.5zM520 0v692l-499 920h366l294 -560l294 560h367l-500 -920v-692h-322z" />
    <glyph glyph-name="Amacron" unicode="&#x100;" horiz-adv-x="1593" 
d="M1088 1970v-162h-582v162h582zM1221 0l-102 225h-645l-103 -225h-350l770 1652h10l771 -1652h-351zM600 501h393l-196 431z" />
    <glyph glyph-name="Amacron" unicode="&#x101;" horiz-adv-x="1593" 
d="M1088 1970v-162h-582v162h582zM1221 0l-102 225h-645l-103 -225h-350l770 1652h10l771 -1652h-351zM600 501h393l-196 431z" />
    <glyph glyph-name="Abreve" unicode="&#x102;" horiz-adv-x="1593" 
d="M797 1763q-120 0 -205 85.5t-85 205.5h150q0 -62 41 -106t99 -44q59 0 100 44t41 106h150q0 -120 -85.5 -205.5t-205.5 -85.5zM1221 0l-102 225h-645l-103 -225h-350l770 1652h10l771 -1652h-351zM600 501h393l-196 431z" />
    <glyph glyph-name="Abreve" unicode="&#x103;" horiz-adv-x="1593" 
d="M797 1763q-120 0 -205 85.5t-85 205.5h150q0 -62 41 -106t99 -44q59 0 100 44t41 106h150q0 -120 -85.5 -205.5t-205.5 -85.5zM1221 0l-102 225h-645l-103 -225h-350l770 1652h10l771 -1652h-351zM600 501h393l-196 431z" />
    <glyph glyph-name="Aogonek" unicode="&#x104;" horiz-adv-x="1593" 
d="M1398 -326q42 0 113 16l35 -224q-89 -20 -166 -20q-136 0 -209.5 62t-73.5 172q0 103 60.5 188t155.5 132h-92l-102 225h-645l-103 -225h-350l770 1652h10l771 -1652h-40q-111 -81 -158.5 -135t-47.5 -109q0 -11 2 -22t8.5 -26t22.5 -24.5t39 -9.5zM600 501h393l-196 431
z" />
    <glyph glyph-name="Aogonek" unicode="&#x105;" horiz-adv-x="1593" 
d="M1398 -326q42 0 113 16l35 -224q-89 -20 -166 -20q-136 0 -209.5 62t-73.5 172q0 103 60.5 188t155.5 132h-92l-102 225h-645l-103 -225h-350l770 1652h10l771 -1652h-40q-111 -81 -158.5 -135t-47.5 -109q0 -11 2 -22t8.5 -26t22.5 -24.5t39 -9.5zM600 501h393l-196 431
z" />
    <glyph glyph-name="Cacute" unicode="&#x106;" horiz-adv-x="1514" 
d="M919 1745h-229l187 327h280zM913 -31q-228 0 -422.5 114t-307.5 306.5t-113 415.5q0 167 67.5 322.5t180 268.5t267.5 181t322 68q311 -4 565 -249l-187 -255q-177 174 -381 174q-128 0 -245 -68.5t-189 -187.5t-72 -256q0 -104 44 -200t115 -163t162 -106.5t184 -39.5
q195 0 383 184l186 -262q-118 -117 -253 -182t-306 -65z" />
    <glyph glyph-name="Cacute" unicode="&#x107;" horiz-adv-x="1514" 
d="M919 1745h-229l187 327h280zM913 -31q-228 0 -422.5 114t-307.5 306.5t-113 415.5q0 167 67.5 322.5t180 268.5t267.5 181t322 68q311 -4 565 -249l-187 -255q-177 174 -381 174q-128 0 -245 -68.5t-189 -187.5t-72 -256q0 -104 44 -200t115 -163t162 -106.5t184 -39.5
q195 0 383 184l186 -262q-118 -117 -253 -182t-306 -65z" />
    <glyph glyph-name="Cdotaccent" unicode="&#x10a;" horiz-adv-x="1514" 
d="M850 1776q-58 0 -99 40.5t-41 97.5t41.5 99.5t98.5 42.5t98.5 -42t41.5 -99t-41.5 -98t-98.5 -41zM913 -31q-228 0 -422.5 114t-307.5 306.5t-113 415.5q0 167 67.5 322.5t180 268.5t267.5 181t322 68q311 -4 565 -249l-187 -255q-177 174 -381 174q-128 0 -245 -68.5
t-189 -187.5t-72 -256q0 -104 44 -200t115 -163t162 -106.5t184 -39.5q195 0 383 184l186 -262q-118 -117 -253 -182t-306 -65z" />
    <glyph glyph-name="Cdotaccent" unicode="&#x10b;" horiz-adv-x="1514" 
d="M850 1776q-58 0 -99 40.5t-41 97.5t41.5 99.5t98.5 42.5t98.5 -42t41.5 -99t-41.5 -98t-98.5 -41zM913 -31q-228 0 -422.5 114t-307.5 306.5t-113 415.5q0 167 67.5 322.5t180 268.5t267.5 181t322 68q311 -4 565 -249l-187 -255q-177 174 -381 174q-128 0 -245 -68.5
t-189 -187.5t-72 -256q0 -104 44 -200t115 -163t162 -106.5t184 -39.5q195 0 383 184l186 -262q-118 -117 -253 -182t-306 -65z" />
    <glyph glyph-name="Ccaron" unicode="&#x10c;" horiz-adv-x="1514" 
d="M443 2052h257l148 -147l149 147h259l-319 -293h-179zM913 -31q-228 0 -422.5 114t-307.5 306.5t-113 415.5q0 167 67.5 322.5t180 268.5t267.5 181t322 68q311 -4 565 -249l-187 -255q-177 174 -381 174q-128 0 -245 -68.5t-189 -187.5t-72 -256q0 -104 44 -200t115 -163
t162 -106.5t184 -39.5q195 0 383 184l186 -262q-118 -117 -253 -182t-306 -65z" />
    <glyph glyph-name="Ccaron" unicode="&#x10d;" horiz-adv-x="1514" 
d="M443 2052h257l148 -147l149 147h259l-319 -293h-179zM913 -31q-228 0 -422.5 114t-307.5 306.5t-113 415.5q0 167 67.5 322.5t180 268.5t267.5 181t322 68q311 -4 565 -249l-187 -255q-177 174 -381 174q-128 0 -245 -68.5t-189 -187.5t-72 -256q0 -104 44 -200t115 -163
t162 -106.5t184 -39.5q195 0 383 184l186 -262q-118 -117 -253 -182t-306 -65z" />
    <glyph glyph-name="Dcaron" unicode="&#x10e;" horiz-adv-x="1518" 
d="M847 1759h-179l-315 293h257l148 -147l149 147h259zM609 1612q391 1 615 -215t224 -593q0 -375 -224 -589.5t-615 -214.5h-469v1611zM611 323q238 0 374 128.5t136 353.5q0 227 -137 356.5t-376 129.5h-145v-968h148z" />
    <glyph glyph-name="Dcaron" unicode="&#x10f;" horiz-adv-x="1518" 
d="M847 1759h-179l-315 293h257l148 -147l149 147h259zM609 1612q391 1 615 -215t224 -593q0 -375 -224 -589.5t-615 -214.5h-469v1611zM611 323q238 0 374 128.5t136 353.5q0 227 -137 356.5t-376 129.5h-145v-968h148z" />
    <glyph glyph-name="Dcroat" unicode="&#x110;" horiz-adv-x="1594" 
d="M685 1612q391 1 615 -215t224 -593q0 -375 -224 -589.5t-615 -214.5h-469v693h-174v212h174v706zM687 323q238 0 374 128.5t136 353.5q0 227 -137 356.5t-376 129.5h-145v-387h255v-211h-255v-370h148z" />
    <glyph glyph-name="Dcroat" unicode="&#x111;" horiz-adv-x="1594" 
d="M685 1612q391 1 615 -215t224 -593q0 -375 -224 -589.5t-615 -214.5h-469v693h-174v212h174v706zM687 323q238 0 374 128.5t136 353.5q0 227 -137 356.5t-376 129.5h-145v-387h255v-211h-255v-370h148z" />
    <glyph glyph-name="Emacron" unicode="&#x112;" horiz-adv-x="1210" 
d="M887 1970v-162h-582v162h582zM1112 1293h-648v-315h556v-323h-556v-333h648v-322h-972v1612h972v-319z" />
    <glyph glyph-name="Emacron" unicode="&#x113;" horiz-adv-x="1210" 
d="M887 1970v-162h-582v162h582zM1112 1293h-648v-315h556v-323h-556v-333h648v-322h-972v1612h972v-319z" />
    <glyph glyph-name="Ebreve" unicode="&#x114;" horiz-adv-x="1210" 
d="M596 1763q-120 0 -205 85.5t-85 205.5h150q0 -62 41 -106t99 -44q59 0 100 44t41 106h150q0 -120 -85.5 -205.5t-205.5 -85.5zM1112 1293h-648v-315h556v-323h-556v-333h648v-322h-972v1612h972v-319z" />
    <glyph glyph-name="Ebreve" unicode="&#x115;" horiz-adv-x="1210" 
d="M596 1763q-120 0 -205 85.5t-85 205.5h150q0 -62 41 -106t99 -44q59 0 100 44t41 106h150q0 -120 -85.5 -205.5t-205.5 -85.5zM1112 1293h-648v-315h556v-323h-556v-333h648v-322h-972v1612h972v-319z" />
    <glyph glyph-name="Edotaccent" unicode="&#x116;" horiz-adv-x="1210" 
d="M597 1776q-58 0 -99 40.5t-41 97.5t41.5 99.5t98.5 42.5t98.5 -42t41.5 -99t-41.5 -98t-98.5 -41zM1112 1293h-648v-315h556v-323h-556v-333h648v-322h-972v1612h972v-319z" />
    <glyph glyph-name="Edotaccent" unicode="&#x117;" horiz-adv-x="1210" 
d="M597 1776q-58 0 -99 40.5t-41 97.5t41.5 99.5t98.5 42.5t98.5 -42t41.5 -99t-41.5 -98t-98.5 -41zM1112 1293h-648v-315h556v-323h-556v-333h648v-322h-972v1612h972v-319z" />
    <glyph glyph-name="Eogonek" unicode="&#x118;" horiz-adv-x="1210" 
d="M1091 -310l35 -224q-89 -20 -166 -20q-136 0 -209.5 62t-73.5 172q0 103 60.5 188t155.5 132h-753v1612h972v-319h-648v-315h556v-323h-556v-333h648v-322q-111 -81 -158.5 -135t-47.5 -109q0 -11 2 -22t8.5 -26t22.5 -24.5t39 -9.5q42 0 113 16z" />
    <glyph glyph-name="Eogonek" unicode="&#x119;" horiz-adv-x="1210" 
d="M1091 -310l35 -224q-89 -20 -166 -20q-136 0 -209.5 62t-73.5 172q0 103 60.5 188t155.5 132h-753v1612h972v-319h-648v-315h556v-323h-556v-333h648v-322q-111 -81 -158.5 -135t-47.5 -109q0 -11 2 -22t8.5 -26t22.5 -24.5t39 -9.5q42 0 113 16z" />
    <glyph glyph-name="Ecaron" unicode="&#x11a;" horiz-adv-x="1210" 
d="M684 1759h-179l-315 293h257l148 -147l149 147h259zM1112 1293h-648v-315h556v-323h-556v-333h648v-322h-972v1612h972v-319z" />
    <glyph glyph-name="Ecaron" unicode="&#x11b;" horiz-adv-x="1210" 
d="M684 1759h-179l-315 293h257l148 -147l149 147h259zM1112 1293h-648v-315h556v-323h-556v-333h648v-322h-972v1612h972v-319z" />
    <glyph glyph-name="Gbreve" unicode="&#x11e;" horiz-adv-x="1758" 
d="M907 1763q-120 0 -205 85.5t-85 205.5h150q0 -62 41 -106t99 -44q59 0 100 44t41 106h150q0 -120 -85.5 -205.5t-205.5 -85.5zM1680 905q8 -75 8 -136q0 -185 -61 -338t-166 -253t-244.5 -155t-297.5 -55q-175 0 -332.5 66.5t-270.5 178.5t-179.5 266.5t-66.5 324.5
t66.5 325.5t178.5 268.5t267 180t325 67q156 -1 313.5 -68.5t276.5 -183.5l-180 -269q-198 193 -414 193q-93 0 -184 -38.5t-161.5 -104.5t-114 -163.5t-43.5 -206.5q0 -104 39.5 -197.5t108.5 -162.5t169 -109.5t216 -40.5q175 0 286.5 84t119.5 228h-417v299h758z" />
    <glyph glyph-name="Gbreve" unicode="&#x11f;" horiz-adv-x="1758" 
d="M907 1763q-120 0 -205 85.5t-85 205.5h150q0 -62 41 -106t99 -44q59 0 100 44t41 106h150q0 -120 -85.5 -205.5t-205.5 -85.5zM1680 905q8 -75 8 -136q0 -185 -61 -338t-166 -253t-244.5 -155t-297.5 -55q-175 0 -332.5 66.5t-270.5 178.5t-179.5 266.5t-66.5 324.5
t66.5 325.5t178.5 268.5t267 180t325 67q156 -1 313.5 -68.5t276.5 -183.5l-180 -269q-198 193 -414 193q-93 0 -184 -38.5t-161.5 -104.5t-114 -163.5t-43.5 -206.5q0 -104 39.5 -197.5t108.5 -162.5t169 -109.5t216 -40.5q175 0 286.5 84t119.5 228h-417v299h758z" />
    <glyph glyph-name="Gdotaccent" unicode="&#x120;" horiz-adv-x="1758" 
d="M908 1776q-58 0 -99 40.5t-41 97.5t41.5 99.5t98.5 42.5t98.5 -42t41.5 -99t-41.5 -98t-98.5 -41zM1680 905q8 -75 8 -136q0 -185 -61 -338t-166 -253t-244.5 -155t-297.5 -55q-175 0 -332.5 66.5t-270.5 178.5t-179.5 266.5t-66.5 324.5t66.5 325.5t178.5 268.5t267 180
t325 67q156 -1 313.5 -68.5t276.5 -183.5l-180 -269q-198 193 -414 193q-93 0 -184 -38.5t-161.5 -104.5t-114 -163.5t-43.5 -206.5q0 -104 39.5 -197.5t108.5 -162.5t169 -109.5t216 -40.5q175 0 286.5 84t119.5 228h-417v299h758z" />
    <glyph glyph-name="Gdotaccent" unicode="&#x121;" horiz-adv-x="1758" 
d="M908 1776q-58 0 -99 40.5t-41 97.5t41.5 99.5t98.5 42.5t98.5 -42t41.5 -99t-41.5 -98t-98.5 -41zM1680 905q8 -75 8 -136q0 -185 -61 -338t-166 -253t-244.5 -155t-297.5 -55q-175 0 -332.5 66.5t-270.5 178.5t-179.5 266.5t-66.5 324.5t66.5 325.5t178.5 268.5t267 180
t325 67q156 -1 313.5 -68.5t276.5 -183.5l-180 -269q-198 193 -414 193q-93 0 -184 -38.5t-161.5 -104.5t-114 -163.5t-43.5 -206.5q0 -104 39.5 -197.5t108.5 -162.5t169 -109.5t216 -40.5q175 0 286.5 84t119.5 228h-417v299h758z" />
    <glyph glyph-name="uni0122" unicode="&#x122;" horiz-adv-x="1758" 
d="M1680 905q8 -75 8 -136q0 -185 -61 -338t-166 -253t-244.5 -155t-297.5 -55q-175 0 -332.5 66.5t-270.5 178.5t-179.5 266.5t-66.5 324.5t66.5 325.5t178.5 268.5t267 180t325 67q156 -1 313.5 -68.5t276.5 -183.5l-180 -269q-198 193 -414 193q-93 0 -184 -38.5
t-161.5 -104.5t-114 -163.5t-43.5 -206.5q0 -104 39.5 -197.5t108.5 -162.5t169 -109.5t216 -40.5q175 0 286.5 84t119.5 228h-417v299h758zM910 -115q65 0 108 -47t43 -131q0 -105 -64 -185t-163 -80q-23 0 -41.5 7t-27 14.5t-8.5 13.5q48 0 94 32t46 88q0 30 -12 46
q-43 0 -83 31t-40 81q0 53 42.5 91.5t105.5 38.5z" />
    <glyph glyph-name="uni0122" unicode="&#x123;" horiz-adv-x="1758" 
d="M1680 905q8 -75 8 -136q0 -185 -61 -338t-166 -253t-244.5 -155t-297.5 -55q-175 0 -332.5 66.5t-270.5 178.5t-179.5 266.5t-66.5 324.5t66.5 325.5t178.5 268.5t267 180t325 67q156 -1 313.5 -68.5t276.5 -183.5l-180 -269q-198 193 -414 193q-93 0 -184 -38.5
t-161.5 -104.5t-114 -163.5t-43.5 -206.5q0 -104 39.5 -197.5t108.5 -162.5t169 -109.5t216 -40.5q175 0 286.5 84t119.5 228h-417v299h758zM910 -115q65 0 108 -47t43 -131q0 -105 -64 -185t-163 -80q-23 0 -41.5 7t-27 14.5t-8.5 13.5q48 0 94 32t46 88q0 30 -12 46
q-43 0 -83 31t-40 81q0 53 42.5 91.5t105.5 38.5z" />
    <glyph glyph-name="Hbar" unicode="&#x126;" horiz-adv-x="1505" 
d="M1486 1355v-230h-121v-1125h-323v646h-579v-646h-323v1125h-121v230h121v257h323v-257h579v257h323v-257h121zM1042 967v158h-579v-158h579z" />
    <glyph glyph-name="Hbar" unicode="&#x127;" horiz-adv-x="1505" 
d="M1486 1355v-230h-121v-1125h-323v646h-579v-646h-323v1125h-121v230h121v257h323v-257h579v257h323v-257h121zM1042 967v158h-579v-158h579z" />
    <glyph glyph-name="Imacron" unicode="&#x12a;" horiz-adv-x="604" 
d="M11 1808v162h582v-162h-582zM140 0v1612h324v-1612h-324z" />
    <glyph glyph-name="Imacron" unicode="&#x12b;" horiz-adv-x="604" 
d="M11 1808v162h582v-162h-582zM140 0v1612h324v-1612h-324z" />
    <glyph glyph-name="Iogonek" unicode="&#x12e;" horiz-adv-x="604" 
d="M443 -310l35 -224q-89 -20 -166 -20q-136 0 -209.5 62t-73.5 172q0 103 60.5 188t155.5 132h-105v1612h324v-1612q-111 -81 -158.5 -135t-47.5 -109q0 -11 2 -22t8.5 -26t22.5 -24.5t39 -9.5q42 0 113 16z" />
    <glyph glyph-name="Iogonek" unicode="&#x12f;" horiz-adv-x="604" 
d="M443 -310l35 -224q-89 -20 -166 -20q-136 0 -209.5 62t-73.5 172q0 103 60.5 188t155.5 132h-105v1612h324v-1612q-111 -81 -158.5 -135t-47.5 -109q0 -11 2 -22t8.5 -26t22.5 -24.5t39 -9.5q42 0 113 16z" />
    <glyph glyph-name="Idotaccent" unicode="&#x130;" horiz-adv-x="604" 
d="M303 1776q-58 0 -99 40.5t-41 97.5t41.5 99.5t98.5 42.5t98.5 -42t41.5 -99t-41.5 -98t-98.5 -41zM140 0v1612h324v-1612h-324z" />
    <glyph glyph-name="dotlessi" unicode="&#x131;" horiz-adv-x="604" 
d="M140 0v1612h324v-1612h-324z" />
    <glyph glyph-name="uni0136" unicode="&#x136;" horiz-adv-x="1361" 
d="M773 823l574 -823h-394l-490 706v-706h-323v1612h323v-697l453 697h374zM707 -115q65 0 108 -47t43 -131q0 -105 -64 -185t-163 -80q-23 0 -41.5 7t-27 14.5t-8.5 13.5q48 0 94 32t46 88q0 30 -12 46q-43 0 -83 31t-40 81q0 53 42.5 91.5t105.5 38.5z" />
    <glyph glyph-name="uni0136" unicode="&#x137;" horiz-adv-x="1361" 
d="M773 823l574 -823h-394l-490 706v-706h-323v1612h323v-697l453 697h374zM707 -115q65 0 108 -47t43 -131q0 -105 -64 -185t-163 -80q-23 0 -41.5 7t-27 14.5t-8.5 13.5q48 0 94 32t46 88q0 30 -12 46q-43 0 -83 31t-40 81q0 53 42.5 91.5t105.5 38.5z" />
    <glyph glyph-name="Lacute" unicode="&#x139;" horiz-adv-x="1154" 
d="M904 2072l-238 -327h-229l187 327h280zM464 322h648v-322h-972v1612h324v-1290z" />
    <glyph glyph-name="Lacute" unicode="&#x13a;" horiz-adv-x="1154" 
d="M904 2072l-238 -327h-229l187 327h280zM464 322h648v-322h-972v1612h324v-1290z" />
    <glyph glyph-name="uni013B" unicode="&#x13b;" horiz-adv-x="1154" 
d="M464 322h648v-322h-972v1612h324v-1290zM599 -115q65 0 108 -47t43 -131q0 -105 -64 -185t-163 -80q-23 0 -41.5 7t-27 14.5t-8.5 13.5q48 0 94 32t46 88q0 30 -12 46q-43 0 -83 31t-40 81q0 53 42.5 91.5t105.5 38.5z" />
    <glyph glyph-name="uni013B" unicode="&#x13c;" horiz-adv-x="1154" 
d="M464 322h648v-322h-972v1612h324v-1290zM599 -115q65 0 108 -47t43 -131q0 -105 -64 -185t-163 -80q-23 0 -41.5 7t-27 14.5t-8.5 13.5q48 0 94 32t46 88q0 30 -12 46q-43 0 -83 31t-40 81q0 53 42.5 91.5t105.5 38.5z" />
    <glyph glyph-name="Lcaron" unicode="&#x13d;" horiz-adv-x="1154" 
d="M920 1678l-120 -470h-200l70 470h250zM464 322h648v-322h-972v1612h324v-1290z" />
    <glyph glyph-name="Lcaron" unicode="&#x13e;" horiz-adv-x="1154" 
d="M920 1678l-120 -470h-200l70 470h250zM464 322h648v-322h-972v1612h324v-1290z" />
    <glyph glyph-name="Lslash" unicode="&#x141;" horiz-adv-x="1154" 
d="M464 322h648v-322h-972v539l-186 -134v253l186 134v820h324v-586l198 143v-254l-198 -143v-450z" />
    <glyph glyph-name="Lslash" unicode="&#x142;" horiz-adv-x="1154" 
d="M464 322h648v-322h-972v539l-186 -134v253l186 134v820h324v-586l198 143v-254l-198 -143v-450z" />
    <glyph glyph-name="Nacute" unicode="&#x143;" horiz-adv-x="1576" 
d="M1096 2072l-238 -327h-229l187 327h280zM1111 1616h325v-1646h-15l-957 931v-903h-324v1644h16l955 -929v903z" />
    <glyph glyph-name="Nacute" unicode="&#x144;" horiz-adv-x="1576" 
d="M1096 2072l-238 -327h-229l187 327h280zM1111 1616h325v-1646h-15l-957 931v-903h-324v1644h16l955 -929v903z" />
    <glyph glyph-name="uni0145" unicode="&#x145;" horiz-adv-x="1576" 
d="M1111 1616h325v-1646h-15l-957 931v-903h-324v1644h16l955 -929v903zM791 -115q65 0 108 -47t43 -131q0 -105 -64 -185t-163 -80q-23 0 -41.5 7t-27 14.5t-8.5 13.5q48 0 94 32t46 88q0 30 -12 46q-43 0 -83 31t-40 81q0 53 42.5 91.5t105.5 38.5z" />
    <glyph glyph-name="uni0145" unicode="&#x146;" horiz-adv-x="1576" 
d="M1111 1616h325v-1646h-15l-957 931v-903h-324v1644h16l955 -929v903zM791 -115q65 0 108 -47t43 -131q0 -105 -64 -185t-163 -80q-23 0 -41.5 7t-27 14.5t-8.5 13.5q48 0 94 32t46 88q0 30 -12 46q-43 0 -83 31t-40 81q0 53 42.5 91.5t105.5 38.5z" />
    <glyph glyph-name="Ncaron" unicode="&#x147;" horiz-adv-x="1576" 
d="M876 1759h-179l-315 293h257l148 -147l149 147h259zM1111 1616h325v-1646h-15l-957 931v-903h-324v1644h16l955 -929v903z" />
    <glyph glyph-name="Ncaron" unicode="&#x148;" horiz-adv-x="1576" 
d="M876 1759h-179l-315 293h257l148 -147l149 147h259zM1111 1616h325v-1646h-15l-957 931v-903h-324v1644h16l955 -929v903z" />
    <glyph glyph-name="Eng" unicode="&#x14a;" horiz-adv-x="1576" 
d="M1111 1616h325v-1649q0 -146 -69.5 -268.5t-197.5 -206.5l-211 163q88 48 129 118.5t41 187.5v294l-664 646v-903h-324v1644h16l955 -929v903z" />
    <glyph glyph-name="Eng" unicode="&#x14b;" horiz-adv-x="1576" 
d="M1111 1616h325v-1649q0 -146 -69.5 -268.5t-197.5 -206.5l-211 163q88 48 129 118.5t41 187.5v294l-664 646v-903h-324v1644h16l955 -929v903z" />
    <glyph glyph-name="Omacron" unicode="&#x14c;" horiz-adv-x="1817" 
d="M617 1808v162h582v-162h-582zM907 -31q-169 0 -324 66.5t-267.5 178.5t-179 266.5t-66.5 323.5q0 171 66.5 326.5t179 268t267.5 179.5t325 67q227 0 420 -113t306 -306.5t113 -421.5q0 -169 -67 -323.5t-179.5 -266.5t-268 -178.5t-325.5 -66.5zM907 297q139 0 257 68.5
t186.5 185.5t68.5 255q0 104 -40.5 198.5t-109.5 163.5t-163.5 109.5t-198.5 40.5q-138 0 -255.5 -68.5t-186 -186.5t-68.5 -257q0 -138 68.5 -255t186 -185.5t255.5 -68.5z" />
    <glyph glyph-name="Omacron" unicode="&#x14d;" horiz-adv-x="1817" 
d="M617 1808v162h582v-162h-582zM907 -31q-169 0 -324 66.5t-267.5 178.5t-179 266.5t-66.5 323.5q0 171 66.5 326.5t179 268t267.5 179.5t325 67q227 0 420 -113t306 -306.5t113 -421.5q0 -169 -67 -323.5t-179.5 -266.5t-268 -178.5t-325.5 -66.5zM907 297q139 0 257 68.5
t186.5 185.5t68.5 255q0 104 -40.5 198.5t-109.5 163.5t-163.5 109.5t-198.5 40.5q-138 0 -255.5 -68.5t-186 -186.5t-68.5 -257q0 -138 68.5 -255t186 -185.5t255.5 -68.5z" />
    <glyph glyph-name="Ohungarumlaut" unicode="&#x150;" horiz-adv-x="1817" 
d="M570 1745l146 327h250l-198 -327h-198zM909 1745l207 327h270l-268 -327h-209zM907 -31q-169 0 -324 66.5t-267.5 178.5t-179 266.5t-66.5 323.5q0 171 66.5 326.5t179 268t267.5 179.5t325 67q227 0 420 -113t306 -306.5t113 -421.5q0 -169 -67 -323.5t-179.5 -266.5
t-268 -178.5t-325.5 -66.5zM907 297q139 0 257 68.5t186.5 185.5t68.5 255q0 104 -40.5 198.5t-109.5 163.5t-163.5 109.5t-198.5 40.5q-138 0 -255.5 -68.5t-186 -186.5t-68.5 -257q0 -138 68.5 -255t186 -185.5t255.5 -68.5z" />
    <glyph glyph-name="Ohungarumlaut" unicode="&#x151;" horiz-adv-x="1817" 
d="M570 1745l146 327h250l-198 -327h-198zM909 1745l207 327h270l-268 -327h-209zM907 -31q-169 0 -324 66.5t-267.5 178.5t-179 266.5t-66.5 323.5q0 171 66.5 326.5t179 268t267.5 179.5t325 67q227 0 420 -113t306 -306.5t113 -421.5q0 -169 -67 -323.5t-179.5 -266.5
t-268 -178.5t-325.5 -66.5zM907 297q139 0 257 68.5t186.5 185.5t68.5 255q0 104 -40.5 198.5t-109.5 163.5t-163.5 109.5t-198.5 40.5q-138 0 -255.5 -68.5t-186 -186.5t-68.5 -257q0 -138 68.5 -255t186 -185.5t255.5 -68.5z" />
    <glyph glyph-name="OE" unicode="&#x152;" horiz-adv-x="2489" 
d="M2391 1293h-648v-315h556v-323h-556v-333h648v-322h-972v170q-215 -201 -532 -201q-162 0 -312.5 66.5t-261.5 178.5t-177 266.5t-66 323.5q0 170 66.5 326t177 268.5t261 179.5t313.5 67q316 0 531 -202v169h972v-319zM907 297q139 0 257 68.5t186.5 185.5t68.5 255
q0 104 -40.5 198.5t-109.5 163.5t-163.5 109.5t-198.5 40.5q-138 0 -255.5 -68.5t-186 -186.5t-68.5 -257q0 -138 68.5 -255t186 -185.5t255.5 -68.5z" />
    <glyph glyph-name="OE" unicode="&#x153;" horiz-adv-x="2489" 
d="M2391 1293h-648v-315h556v-323h-556v-333h648v-322h-972v170q-215 -201 -532 -201q-162 0 -312.5 66.5t-261.5 178.5t-177 266.5t-66 323.5q0 170 66.5 326t177 268.5t261 179.5t313.5 67q316 0 531 -202v169h972v-319zM907 297q139 0 257 68.5t186.5 185.5t68.5 255
q0 104 -40.5 198.5t-109.5 163.5t-163.5 109.5t-198.5 40.5q-138 0 -255.5 -68.5t-186 -186.5t-68.5 -257q0 -138 68.5 -255t186 -185.5t255.5 -68.5z" />
    <glyph glyph-name="Racute" unicode="&#x154;" horiz-adv-x="1388" 
d="M1010 2072l-238 -327h-229l187 327h280zM1374 0h-396l-513 762v-762h-324l-1 1612h526q148 0 274.5 -69.5t200 -190t73.5 -262.5q0 -154 -83.5 -278.5t-214.5 -170.5zM464 1291v-405l208 -1q84 -1 146 58.5t62 144.5t-62.5 144t-145.5 59h-208z" />
    <glyph glyph-name="Racute" unicode="&#x155;" horiz-adv-x="1388" 
d="M1010 2072l-238 -327h-229l187 327h280zM1374 0h-396l-513 762v-762h-324l-1 1612h526q148 0 274.5 -69.5t200 -190t73.5 -262.5q0 -154 -83.5 -278.5t-214.5 -170.5zM464 1291v-405l208 -1q84 -1 146 58.5t62 144.5t-62.5 144t-145.5 59h-208z" />
    <glyph glyph-name="uni0156" unicode="&#x156;" horiz-adv-x="1388" 
d="M916 641l458 -641h-396l-513 762v-762h-324l-1 1612h526q148 0 274.5 -69.5t200 -190t73.5 -262.5q0 -154 -83.5 -278.5t-214.5 -170.5zM464 1291v-405l208 -1q84 -1 146 58.5t62 144.5t-62.5 144t-145.5 59h-208zM705 -115q65 0 108 -47t43 -131q0 -105 -64 -185
t-163 -80q-23 0 -41.5 7t-27 14.5t-8.5 13.5q48 0 94 32t46 88q0 30 -12 46q-43 0 -83 31t-40 81q0 53 42.5 91.5t105.5 38.5z" />
    <glyph glyph-name="uni0156" unicode="&#x157;" horiz-adv-x="1388" 
d="M916 641l458 -641h-396l-513 762v-762h-324l-1 1612h526q148 0 274.5 -69.5t200 -190t73.5 -262.5q0 -154 -83.5 -278.5t-214.5 -170.5zM464 1291v-405l208 -1q84 -1 146 58.5t62 144.5t-62.5 144t-145.5 59h-208zM705 -115q65 0 108 -47t43 -131q0 -105 -64 -185
t-163 -80q-23 0 -41.5 7t-27 14.5t-8.5 13.5q48 0 94 32t46 88q0 30 -12 46q-43 0 -83 31t-40 81q0 53 42.5 91.5t105.5 38.5z" />
    <glyph glyph-name="Rcaron" unicode="&#x158;" horiz-adv-x="1388" 
d="M790 1759h-179l-315 293h257l148 -147l149 147h259zM1374 0h-396l-513 762v-762h-324l-1 1612h526q148 0 274.5 -69.5t200 -190t73.5 -262.5q0 -154 -83.5 -278.5t-214.5 -170.5zM464 1291v-405l208 -1q84 -1 146 58.5t62 144.5t-62.5 144t-145.5 59h-208z" />
    <glyph glyph-name="Rcaron" unicode="&#x159;" horiz-adv-x="1388" 
d="M790 1759h-179l-315 293h257l148 -147l149 147h259zM1374 0h-396l-513 762v-762h-324l-1 1612h526q148 0 274.5 -69.5t200 -190t73.5 -262.5q0 -154 -83.5 -278.5t-214.5 -170.5zM464 1291v-405l208 -1q84 -1 146 58.5t62 144.5t-62.5 144t-145.5 59h-208z" />
    <glyph glyph-name="Sacute" unicode="&#x15a;" horiz-adv-x="1264" 
d="M715 1745h-229l187 327h280zM623 -32q-197 0 -341.5 79.5t-225.5 230.5l259 182q103 -166 313 -166q113 0 183.5 41.5t70.5 106.5q0 28 -13 55t-42.5 54t-55.5 47t-76 48t-77.5 42t-85.5 43q-4 2 -6.5 3.5t-5.5 2.5q-52 26 -79 40t-74.5 42.5t-73.5 50.5t-59.5 57.5
t-51 71t-30 83t-12.5 101.5q0 136 71.5 242.5t192 163.5t268.5 57q171 0 296.5 -72t178.5 -214l-239 -167q-34 68 -96 101.5t-135 33.5q-90 0 -150.5 -45t-60.5 -108q0 -20 6.5 -37t22.5 -33t32.5 -28t47.5 -27t55.5 -26.5t68 -30.5t74.5 -34q107 -50 182 -98.5
t134.5 -109.5t89 -136t29.5 -166q0 -219 -162 -350t-423 -131z" />
    <glyph glyph-name="Sacute" unicode="&#x15b;" horiz-adv-x="1264" 
d="M715 1745h-229l187 327h280zM623 -32q-197 0 -341.5 79.5t-225.5 230.5l259 182q103 -166 313 -166q113 0 183.5 41.5t70.5 106.5q0 28 -13 55t-42.5 54t-55.5 47t-76 48t-77.5 42t-85.5 43q-4 2 -6.5 3.5t-5.5 2.5q-52 26 -79 40t-74.5 42.5t-73.5 50.5t-59.5 57.5
t-51 71t-30 83t-12.5 101.5q0 136 71.5 242.5t192 163.5t268.5 57q171 0 296.5 -72t178.5 -214l-239 -167q-34 68 -96 101.5t-135 33.5q-90 0 -150.5 -45t-60.5 -108q0 -20 6.5 -37t22.5 -33t32.5 -28t47.5 -27t55.5 -26.5t68 -30.5t74.5 -34q107 -50 182 -98.5
t134.5 -109.5t89 -136t29.5 -166q0 -219 -162 -350t-423 -131z" />
    <glyph glyph-name="Scedilla" unicode="&#x15e;" horiz-adv-x="1264" 
d="M1208 449q0 -196 -132.5 -323.5t-352.5 -151.5l-56 -71q24 3 42 3q56 0 95.5 -45.5t39.5 -113.5q0 -120 -116.5 -208.5t-284.5 -88.5l-81 196q262 0 262 91q0 23 -17.5 38t-55.5 15q-21 0 -50 -6l-40 52l102 134q-175 12 -303.5 90.5t-203.5 217.5l259 182
q103 -166 313 -166q113 0 183.5 41.5t70.5 106.5q0 28 -13 55t-42.5 54t-55.5 47t-76 48t-77.5 42t-85.5 43q-4 2 -6.5 3.5t-5.5 2.5q-52 26 -79 40t-74.5 42.5t-73.5 50.5t-59.5 57.5t-51 71t-30 83t-12.5 101.5q0 136 71.5 242.5t192 163.5t268.5 57q171 0 296.5 -72
t178.5 -214l-239 -167q-34 68 -96 101.5t-135 33.5q-90 0 -150.5 -45t-60.5 -108q0 -20 6.5 -37t22.5 -33t32.5 -28t47.5 -27t55.5 -26.5t68 -30.5t74.5 -34q107 -50 182 -98.5t134.5 -109.5t89 -136t29.5 -166z" />
    <glyph glyph-name="Scedilla" unicode="&#x15f;" horiz-adv-x="1264" 
d="M1208 449q0 -196 -132.5 -323.5t-352.5 -151.5l-56 -71q24 3 42 3q56 0 95.5 -45.5t39.5 -113.5q0 -120 -116.5 -208.5t-284.5 -88.5l-81 196q262 0 262 91q0 23 -17.5 38t-55.5 15q-21 0 -50 -6l-40 52l102 134q-175 12 -303.5 90.5t-203.5 217.5l259 182
q103 -166 313 -166q113 0 183.5 41.5t70.5 106.5q0 28 -13 55t-42.5 54t-55.5 47t-76 48t-77.5 42t-85.5 43q-4 2 -6.5 3.5t-5.5 2.5q-52 26 -79 40t-74.5 42.5t-73.5 50.5t-59.5 57.5t-51 71t-30 83t-12.5 101.5q0 136 71.5 242.5t192 163.5t268.5 57q171 0 296.5 -72
t178.5 -214l-239 -167q-34 68 -96 101.5t-135 33.5q-90 0 -150.5 -45t-60.5 -108q0 -20 6.5 -37t22.5 -33t32.5 -28t47.5 -27t55.5 -26.5t68 -30.5t74.5 -34q107 -50 182 -98.5t134.5 -109.5t89 -136t29.5 -166z" />
    <glyph glyph-name="Scaron" unicode="&#x160;" horiz-adv-x="1264" 
d="M239 2052h257l148 -147l149 147h259l-319 -293h-179zM623 -32q-197 0 -341.5 79.5t-225.5 230.5l259 182q103 -166 313 -166q113 0 183.5 41.5t70.5 106.5q0 28 -13 55t-42.5 54t-55.5 47t-76 48t-77.5 42t-85.5 43q-4 2 -6.5 3.5t-5.5 2.5q-52 26 -79 40t-74.5 42.5
t-73.5 50.5t-59.5 57.5t-51 71t-30 83t-12.5 101.5q0 136 71.5 242.5t192 163.5t268.5 57q171 0 296.5 -72t178.5 -214l-239 -167q-34 68 -96 101.5t-135 33.5q-90 0 -150.5 -45t-60.5 -108q0 -20 6.5 -37t22.5 -33t32.5 -28t47.5 -27t55.5 -26.5t68 -30.5t74.5 -34
q107 -50 182 -98.5t134.5 -109.5t89 -136t29.5 -166q0 -219 -162 -350t-423 -131z" />
    <glyph glyph-name="Scaron" unicode="&#x161;" horiz-adv-x="1264" 
d="M239 2052h257l148 -147l149 147h259l-319 -293h-179zM623 -32q-197 0 -341.5 79.5t-225.5 230.5l259 182q103 -166 313 -166q113 0 183.5 41.5t70.5 106.5q0 28 -13 55t-42.5 54t-55.5 47t-76 48t-77.5 42t-85.5 43q-4 2 -6.5 3.5t-5.5 2.5q-52 26 -79 40t-74.5 42.5
t-73.5 50.5t-59.5 57.5t-51 71t-30 83t-12.5 101.5q0 136 71.5 242.5t192 163.5t268.5 57q171 0 296.5 -72t178.5 -214l-239 -167q-34 68 -96 101.5t-135 33.5q-90 0 -150.5 -45t-60.5 -108q0 -20 6.5 -37t22.5 -33t32.5 -28t47.5 -27t55.5 -26.5t68 -30.5t74.5 -34
q107 -50 182 -98.5t134.5 -109.5t89 -136t29.5 -166q0 -219 -162 -350t-423 -131z" />
    <glyph glyph-name="uni0162" unicode="&#x162;" horiz-adv-x="1202" 
d="M764 0h-64l-77 -97q24 3 42 3q56 0 95.5 -45.5t39.5 -113.5q0 -120 -116.5 -208.5t-284.5 -88.5l-81 196q262 0 262 91q0 23 -17.5 38t-55.5 15q-21 0 -50 -6l-40 52l125 164h-103v1291h-397v321h1118v-321h-396v-1291z" />
    <glyph glyph-name="uni0162" unicode="&#x163;" horiz-adv-x="1202" 
d="M764 0h-64l-77 -97q24 3 42 3q56 0 95.5 -45.5t39.5 -113.5q0 -120 -116.5 -208.5t-284.5 -88.5l-81 196q262 0 262 91q0 23 -17.5 38t-55.5 15q-21 0 -50 -6l-40 52l125 164h-103v1291h-397v321h1118v-321h-396v-1291z" />
    <glyph glyph-name="Tcaron" unicode="&#x164;" horiz-adv-x="1202" 
d="M689 1759h-179l-315 293h257l148 -147l149 147h259zM1160 1612v-321h-396v-1291h-325v1291h-397v321h1118z" />
    <glyph glyph-name="Tcaron" unicode="&#x165;" horiz-adv-x="1202" 
d="M689 1759h-179l-315 293h257l148 -147l149 147h259zM1160 1612v-321h-396v-1291h-325v1291h-397v321h1118z" />
    <glyph glyph-name="Tbar" unicode="&#x166;" horiz-adv-x="1202" 
d="M1160 1291h-396v-369h232v-230h-232v-692h-325v692h-232v230h232v369h-397v321h1118v-321z" />
    <glyph glyph-name="Tbar" unicode="&#x167;" horiz-adv-x="1202" 
d="M1160 1291h-396v-369h232v-230h-232v-692h-325v692h-232v230h232v369h-397v321h1118v-321z" />
    <glyph glyph-name="Umacron" unicode="&#x16a;" horiz-adv-x="1496" 
d="M457 1808v162h582v-162h-582zM748 -35q-170 0 -312.5 81t-226 226t-83.5 324v1016h326v-1015q0 -129 87.5 -216.5t207.5 -87.5t208.5 87.5t88.5 216.5v1015h326v-1016q0 -179 -83.5 -324t-226 -226t-312.5 -81z" />
    <glyph glyph-name="Umacron" unicode="&#x16b;" horiz-adv-x="1496" 
d="M457 1808v162h582v-162h-582zM748 -35q-170 0 -312.5 81t-226 226t-83.5 324v1016h326v-1015q0 -129 87.5 -216.5t207.5 -87.5t208.5 87.5t88.5 216.5v1015h326v-1016q0 -179 -83.5 -324t-226 -226t-312.5 -81z" />
    <glyph glyph-name="Uring" unicode="&#x16e;" horiz-adv-x="1496" 
d="M749 1708q-91 0 -156.5 65t-65.5 157t65.5 157t156.5 65q90 0 155.5 -65.5t65.5 -156.5t-65.5 -156.5t-155.5 -65.5zM749 1839q37 0 63.5 26.5t26.5 63.5q0 38 -26.5 64.5t-63.5 26.5t-64 -27t-27 -64t26.5 -63.5t64.5 -26.5zM748 -35q-170 0 -312.5 81t-226 226
t-83.5 324v1016h326v-1015q0 -129 87.5 -216.5t207.5 -87.5t208.5 87.5t88.5 216.5v1015h326v-1016q0 -179 -83.5 -324t-226 -226t-312.5 -81z" />
    <glyph glyph-name="Uring" unicode="&#x16f;" horiz-adv-x="1496" 
d="M749 1708q-91 0 -156.5 65t-65.5 157t65.5 157t156.5 65q90 0 155.5 -65.5t65.5 -156.5t-65.5 -156.5t-155.5 -65.5zM749 1839q37 0 63.5 26.5t26.5 63.5q0 38 -26.5 64.5t-63.5 26.5t-64 -27t-27 -64t26.5 -63.5t64.5 -26.5zM748 -35q-170 0 -312.5 81t-226 226
t-83.5 324v1016h326v-1015q0 -129 87.5 -216.5t207.5 -87.5t208.5 87.5t88.5 216.5v1015h326v-1016q0 -179 -83.5 -324t-226 -226t-312.5 -81z" />
    <glyph glyph-name="Uhungarumlaut" unicode="&#x170;" horiz-adv-x="1496" 
d="M410 1745l146 327h250l-198 -327h-198zM749 1745l207 327h270l-268 -327h-209zM748 -35q-170 0 -312.5 81t-226 226t-83.5 324v1016h326v-1015q0 -129 87.5 -216.5t207.5 -87.5t208.5 87.5t88.5 216.5v1015h326v-1016q0 -179 -83.5 -324t-226 -226t-312.5 -81z" />
    <glyph glyph-name="Uhungarumlaut" unicode="&#x171;" horiz-adv-x="1496" 
d="M410 1745l146 327h250l-198 -327h-198zM749 1745l207 327h270l-268 -327h-209zM748 -35q-170 0 -312.5 81t-226 226t-83.5 324v1016h326v-1015q0 -129 87.5 -216.5t207.5 -87.5t208.5 87.5t88.5 216.5v1015h326v-1016q0 -179 -83.5 -324t-226 -226t-312.5 -81z" />
    <glyph glyph-name="Uogonek" unicode="&#x172;" horiz-adv-x="1496" 
d="M1044 1612h326v-1016q0 -232 -137 -401.5t-349 -215.5q-88 -67 -126.5 -115.5t-38.5 -97.5q0 -11 2 -22t8.5 -26t22.5 -24.5t39 -9.5q42 0 113 16l35 -224q-89 -20 -166 -20q-136 0 -209.5 62t-73.5 172q0 85 42 158.5t113 124.5q-224 36 -371.5 208.5t-147.5 414.5v1016
h326v-1015q0 -129 87.5 -216.5t207.5 -87.5t208.5 87.5t88.5 216.5v1015z" />
    <glyph glyph-name="Uogonek" unicode="&#x173;" horiz-adv-x="1496" 
d="M1044 1612h326v-1016q0 -232 -137 -401.5t-349 -215.5q-88 -67 -126.5 -115.5t-38.5 -97.5q0 -11 2 -22t8.5 -26t22.5 -24.5t39 -9.5q42 0 113 16l35 -224q-89 -20 -166 -20q-136 0 -209.5 62t-73.5 172q0 85 42 158.5t113 124.5q-224 36 -371.5 208.5t-147.5 414.5v1016
h326v-1015q0 -129 87.5 -216.5t207.5 -87.5t208.5 87.5t88.5 216.5v1015z" />
    <glyph glyph-name="Wcircumflex" unicode="&#x174;" horiz-adv-x="1933" 
d="M561 1759l315 293h179l319 -293h-259l-149 147l-148 -147h-257zM546 -20l-525 1632h349l248 -813l346 807h6l345 -806l247 812h350l-525 -1632h-19l-405 876l-399 -876h-18z" />
    <glyph glyph-name="Wcircumflex" unicode="&#x175;" horiz-adv-x="1933" 
d="M561 1759l315 293h179l319 -293h-259l-149 147l-148 -147h-257zM546 -20l-525 1632h349l248 -813l346 807h6l345 -806l247 812h350l-525 -1632h-19l-405 876l-399 -876h-18z" />
    <glyph glyph-name="Ycircumflex" unicode="&#x176;" horiz-adv-x="1363" 
d="M276 1759l315 293h179l319 -293h-259l-149 147l-148 -147h-257zM520 0v692l-499 920h366l294 -560l294 560h367l-500 -920v-692h-322z" />
    <glyph glyph-name="Ycircumflex" unicode="&#x177;" horiz-adv-x="1363" 
d="M276 1759l315 293h179l319 -293h-259l-149 147l-148 -147h-257zM520 0v692l-499 920h366l294 -560l294 560h367l-500 -920v-692h-322z" />
    <glyph glyph-name="Zacute" unicode="&#x179;" horiz-adv-x="1302" 
d="M721 1745h-229l187 327h280zM84 0l621 1291h-621v321h1134l-621 -1290h621v-322h-1134z" />
    <glyph glyph-name="Zacute" unicode="&#x17a;" horiz-adv-x="1302" 
d="M721 1745h-229l187 327h280zM84 0l621 1291h-621v321h1134l-621 -1290h621v-322h-1134z" />
    <glyph glyph-name="Zdotaccent" unicode="&#x17b;" horiz-adv-x="1302" 
d="M652 1776q-58 0 -99 40.5t-41 97.5t41.5 99.5t98.5 42.5t98.5 -42t41.5 -99t-41.5 -98t-98.5 -41zM84 0l621 1291h-621v321h1134l-621 -1290h621v-322h-1134z" />
    <glyph glyph-name="Zdotaccent" unicode="&#x17c;" horiz-adv-x="1302" 
d="M652 1776q-58 0 -99 40.5t-41 97.5t41.5 99.5t98.5 42.5t98.5 -42t41.5 -99t-41.5 -98t-98.5 -41zM84 0l621 1291h-621v321h1134l-621 -1290h621v-322h-1134z" />
    <glyph glyph-name="Zcaron" unicode="&#x17d;" horiz-adv-x="1302" 
d="M245 2052h257l148 -147l149 147h259l-319 -293h-179zM84 0l621 1291h-621v321h1134l-621 -1290h621v-322h-1134z" />
    <glyph glyph-name="Zcaron" unicode="&#x17e;" horiz-adv-x="1302" 
d="M245 2052h257l148 -147l149 147h259l-319 -293h-179zM84 0l621 1291h-621v321h1134l-621 -1290h621v-322h-1134z" />
    <glyph glyph-name="uni018F" unicode="&#x18f;" horiz-adv-x="1775" 
d="M889 -12q-168 0 -320 64t-261 173t-173.5 261t-64.5 320q0 89 16 162h1263q-54 148 -180 238.5t-284 90.5q-150 0 -271 -83l-176 273q97 63 214 99.5t237 37.5q170 1 322.5 -65t260 -177t170.5 -262t63 -316q0 -167 -64 -318.5t-172.5 -260.5t-260 -173t-319.5 -64z
M889 314q156 0 282 91.5t178 235.5h-925q49 -139 173.5 -233t291.5 -94z" />
    <glyph glyph-name="uni018F" unicode="&#x259;" horiz-adv-x="1775" 
d="M889 -12q-168 0 -320 64t-261 173t-173.5 261t-64.5 320q0 89 16 162h1263q-54 148 -180 238.5t-284 90.5q-150 0 -271 -83l-176 273q97 63 214 99.5t237 37.5q170 1 322.5 -65t260 -177t170.5 -262t63 -316q0 -167 -64 -318.5t-172.5 -260.5t-260 -173t-319.5 -64z
M889 314q156 0 282 91.5t178 235.5h-925q49 -139 173.5 -233t291.5 -94z" />
    <glyph glyph-name="florin" unicode="&#x192;" horiz-adv-x="1281" 
d="M1090 1318q-49 0 -79.5 -5.5t-59.5 -22.5t-48.5 -51t-37 -87.5t-33.5 -136.5l-7 -35h338v-280h-393l-35 -177q-28 -140 -62 -232t-89 -160.5t-136 -99.5t-196 -31h-210v310h149q32 0 47.5 0.5t40.5 4.5t37.5 12.5t31.5 24.5t30.5 40.5t26.5 59.5t27 83t24 111l11 54h-347
v280h401l31 158q26 132 61 220.5t90.5 151t135 90.5t190.5 28h210v-310h-149z" />
    <glyph glyph-name="uni0218" unicode="&#x218;" horiz-adv-x="1264" 
d="M623 -32q-197 0 -341.5 79.5t-225.5 230.5l259 182q103 -166 313 -166q113 0 183.5 41.5t70.5 106.5q0 28 -13 55t-42.5 54t-55.5 47t-76 48t-77.5 42t-85.5 43q-4 2 -6.5 3.5t-5.5 2.5q-52 26 -79 40t-74.5 42.5t-73.5 50.5t-59.5 57.5t-51 71t-30 83t-12.5 101.5
q0 136 71.5 242.5t192 163.5t268.5 57q171 0 296.5 -72t178.5 -214l-239 -167q-34 68 -96 101.5t-135 33.5q-90 0 -150.5 -45t-60.5 -108q0 -20 6.5 -37t22.5 -33t32.5 -28t47.5 -27t55.5 -26.5t68 -30.5t74.5 -34q107 -50 182 -98.5t134.5 -109.5t89 -136t29.5 -166
q0 -219 -162 -350t-423 -131zM572 -558q-23 0 -41.5 7t-27 14.5t-8.5 13.5q48 0 94 32t46 88q0 30 -12 46q-43 0 -83 31t-40 81q0 53 42.5 91.5t105.5 38.5q65 0 108 -47t43 -131q0 -105 -64 -185t-163 -80z" />
    <glyph glyph-name="uni0218" unicode="&#x219;" horiz-adv-x="1264" 
d="M623 -32q-197 0 -341.5 79.5t-225.5 230.5l259 182q103 -166 313 -166q113 0 183.5 41.5t70.5 106.5q0 28 -13 55t-42.5 54t-55.5 47t-76 48t-77.5 42t-85.5 43q-4 2 -6.5 3.5t-5.5 2.5q-52 26 -79 40t-74.5 42.5t-73.5 50.5t-59.5 57.5t-51 71t-30 83t-12.5 101.5
q0 136 71.5 242.5t192 163.5t268.5 57q171 0 296.5 -72t178.5 -214l-239 -167q-34 68 -96 101.5t-135 33.5q-90 0 -150.5 -45t-60.5 -108q0 -20 6.5 -37t22.5 -33t32.5 -28t47.5 -27t55.5 -26.5t68 -30.5t74.5 -34q107 -50 182 -98.5t134.5 -109.5t89 -136t29.5 -166
q0 -219 -162 -350t-423 -131zM572 -558q-23 0 -41.5 7t-27 14.5t-8.5 13.5q48 0 94 32t46 88q0 30 -12 46q-43 0 -83 31t-40 81q0 53 42.5 91.5t105.5 38.5q65 0 108 -47t43 -131q0 -105 -64 -185t-163 -80z" />
    <glyph glyph-name="uni021A" unicode="&#x21a;" horiz-adv-x="1202" 
d="M1160 1612v-321h-396v-1291h-325v1291h-397v321h1118zM604 -115q65 0 108 -47t43 -131q0 -105 -64 -185t-163 -80q-23 0 -41.5 7t-27 14.5t-8.5 13.5q48 0 94 32t46 88q0 30 -12 46q-43 0 -83 31t-40 81q0 53 42.5 91.5t105.5 38.5z" />
    <glyph glyph-name="uni021A" unicode="&#x21b;" horiz-adv-x="1202" 
d="M1160 1612v-321h-396v-1291h-325v1291h-397v321h1118zM604 -115q65 0 108 -47t43 -131q0 -105 -64 -185t-163 -80q-23 0 -41.5 7t-27 14.5t-8.5 13.5q48 0 94 32t46 88q0 30 -12 46q-43 0 -83 31t-40 81q0 53 42.5 91.5t105.5 38.5z" />
    <glyph glyph-name="uni02BC" unicode="&#x2bc;" horiz-adv-x="412" 
d="M21 1120l70 530h300l-120 -530h-250z" />
    <glyph glyph-name="circumflex" unicode="&#x2c6;" horiz-adv-x="600" 
d="M-60 1347l315 293h179l319 -293h-259l-149 147l-148 -147h-257z" />
    <glyph glyph-name="caron" unicode="&#x2c7;" horiz-adv-x="600" 
d="M-60 1640h257l148 -147l149 147h259l-319 -293h-179z" />
    <glyph glyph-name="breve" unicode="&#x2d8;" horiz-adv-x="600" 
d="M299 1351q-120 0 -205 85.5t-85 205.5h150q0 -62 41 -106t99 -44q59 0 100 44t41 106h150q0 -120 -85.5 -205.5t-205.5 -85.5z" />
    <glyph glyph-name="dotaccent" unicode="&#x2d9;" horiz-adv-x="600" 
d="M301 1364q-58 0 -99 40.5t-41 97.5t41.5 99.5t98.5 42.5t98.5 -42t41.5 -99t-41.5 -98t-98.5 -41z" />
    <glyph glyph-name="ring" unicode="&#x2da;" horiz-adv-x="600" 
d="M233 1296q-91 0 -156.5 65t-65.5 157t65.5 157t156.5 65q90 0 155.5 -65.5t65.5 -156.5t-65.5 -156.5t-155.5 -65.5zM233 1427q37 0 63.5 26.5t26.5 63.5q0 38 -26.5 64.5t-63.5 26.5t-64 -27t-27 -64t26.5 -63.5t64.5 -26.5z" />
    <glyph glyph-name="ogonek" unicode="&#x2db;" horiz-adv-x="600" 
d="M493 -534q-89 -20 -166 -20q-136 0 -209.5 62t-73.5 172q0 122 83.5 217.5t203.5 130.5l148 -28q-111 -81 -158.5 -135t-47.5 -109q0 -11 2 -22t8.5 -26t22.5 -24.5t39 -9.5q42 0 113 16z" />
    <glyph glyph-name="tilde" unicode="&#x2dc;" horiz-adv-x="741" 
d="M155 1357l-155 60q12 60 37 105t52 68.5t61 38t58.5 18t50.5 3.5q51 0 97.5 -20t74.5 -43.5t63.5 -43.5t68.5 -20q43 0 67 33t37 94l155 -60q-12 -60 -37 -105t-52 -68.5t-61 -38t-58.5 -18t-50.5 -3.5q-51 0 -97.5 20t-74.5 43.5t-63.5 43.5t-68.5 20q-43 0 -67 -33
t-37 -94z" />
    <glyph glyph-name="hungarumlaut" unicode="&#x2dd;" horiz-adv-x="600" 
d="M-20 1333l146 327h250l-198 -327h-198zM319 1333l207 327h270l-268 -327h-209z" />
    <glyph glyph-name="gravecomb" unicode="&#x300;" 
d="M-229 1333l-238 327h280l187 -327h-229z" />
    <glyph glyph-name="acutecomb" unicode="&#x301;" 
d="M-238 1333h-229l187 327h280z" />
    <glyph glyph-name="uni0302" unicode="&#x302;" 
d="M-753 1347l315 293h179l319 -293h-259l-149 147l-148 -147h-257z" />
    <glyph glyph-name="tildecomb" unicode="&#x303;" 
d="M-667 1357l-155 60q12 60 37 105t52 68.5t61 38t58.5 18t50.5 3.5q51 0 97.5 -20t74.5 -43.5t63.5 -43.5t68.5 -20q43 0 67 33t37 94l155 -60q-12 -60 -37 -105t-52 -68.5t-61 -38t-58.5 -18t-50.5 -3.5q-51 0 -97.5 20t-74.5 43.5t-63.5 43.5t-68.5 20q-43 0 -67 -33
t-37 -94z" />
    <glyph glyph-name="uni0304" unicode="&#x304;" 
d="M-591 1396v162h582v-162h-582z" />
    <glyph glyph-name="uni0306" unicode="&#x306;" 
d="M-301 1351q-120 0 -205 85.5t-85 205.5h150q0 -62 41 -106t99 -44q59 0 100 44t41 106h150q0 -120 -85.5 -205.5t-205.5 -85.5z" />
    <glyph glyph-name="uni0307" unicode="&#x307;" 
d="M-299 1364q-58 0 -99 40.5t-41 97.5t41.5 99.5t98.5 42.5t98.5 -42t41.5 -99t-41.5 -98t-98.5 -41z" />
    <glyph glyph-name="uni0308" unicode="&#x308;" 
d="M-529 1366q-50 0 -85.5 35.5t-35.5 84.5t36 85t85 36t84.5 -36t35.5 -85t-35.5 -84.5t-84.5 -35.5zM-81 1366q-49 0 -84.5 35t-35.5 85q0 49 35.5 85t84.5 36t85 -36t36 -85t-35.5 -84.5t-85.5 -35.5z" />
    <glyph glyph-name="uni030A" unicode="&#x30a;" 
d="M-232 1296q-92 0 -157 65t-65 157t65 157t157 65q90 0 155.5 -65.5t65.5 -156.5t-65.5 -156.5t-155.5 -65.5zM-232 1427q38 0 64 26.5t26 63.5q0 38 -26.5 64.5t-63.5 26.5q-38 0 -64.5 -27t-26.5 -64t26.5 -63.5t64.5 -26.5z" />
    <glyph glyph-name="uni030B" unicode="&#x30b;" 
d="M-756 1333l146 327h250l-198 -327h-198zM-417 1333l207 327h270l-268 -327h-209z" />
    <glyph glyph-name="uni030C" unicode="&#x30c;" 
d="M-753 1640h257l148 -147l149 147h259l-319 -293h-179z" />
    <glyph glyph-name="uni0312" unicode="&#x312;" 
d="M-225 1761q23 0 41.5 -7t27 -14.5t8.5 -13.5q-48 0 -94 -32t-46 -88q0 -30 12 -46q43 0 83 -31t40 -81q0 -53 -42.5 -91.5t-105.5 -38.5q-65 0 -108 47t-43 131q0 105 64 185t163 80z" />
    <glyph glyph-name="uni0326" unicode="&#x326;" 
d="M-376 -567q-23 0 -41.5 7t-27 14.5t-8.5 13.5q48 0 94 32t46 88q0 30 -12 46q-43 0 -83 31t-40 81q0 53 42.5 91.5t105.5 38.5q65 0 108 -47t43 -131q0 -105 -64 -185t-163 -80z" />
    <glyph glyph-name="uni0327" unicode="&#x327;" 
d="M-474 -550l-81 196q262 0 262 91q0 23 -17.5 38t-55.5 15q-21 0 -50 -6l-40 52l151 198h159l-104 -131q24 3 42 3q56 0 95.5 -45.5t39.5 -113.5q0 -120 -116.5 -208.5t-284.5 -88.5z" />
    <glyph glyph-name="uni0328" unicode="&#x328;" 
d="M-107 -534q-89 -20 -166 -20q-136 0 -209.5 62t-73.5 172q0 122 83.5 217.5t203.5 130.5l148 -28q-111 -81 -158.5 -135t-47.5 -109q0 -11 2 -22t8.5 -26t22.5 -24.5t39 -9.5q42 0 113 16z" />
    <glyph glyph-name="uni0335" unicode="&#x335;" 
d="M-789 628v230h789v-230h-789z" />
    <glyph glyph-name="uni0336" unicode="&#x336;" 
d="M-1042 628v230h1467v-230h-1467z" />
    <glyph glyph-name="uni0337" unicode="&#x337;" 
d="M-661 921v253l708 511v-254z" />
    <glyph glyph-name="uni0338" unicode="&#x338;" 
d="M-1209 -112l961 1405h273l-960 -1405h-274z" />
    <glyph glyph-name="uni0E3F" unicode="&#xe3f;" horiz-adv-x="1284" 
d="M896 908q59 0 121 -29.5t115 -82t86.5 -133.5t33.5 -174q0 -72 -20 -142t-62 -133t-100.5 -110.5t-141.5 -75.5t-179 -28h-29v-225h-273v225h-307v1612h307v226h273v-244q150 -41 239 -156t89 -253q0 -60 -18 -114.5t-43.5 -88.5t-50 -54t-40.5 -20zM463 1297v-315h131
q60 0 106 46t46 114q0 66 -44 110.5t-102 44.5h-137zM719 316q85 0 151 54t66 142q0 77 -55 131.5t-163 54.5h-255v-382h256z" />
    <glyph glyph-name="Wgrave" unicode="&#x1e80;" horiz-adv-x="1933" 
d="M972 1745l-238 327h280l187 -327h-229zM546 -20l-525 1632h349l248 -813l346 807h6l345 -806l247 812h350l-525 -1632h-19l-405 876l-399 -876h-18z" />
    <glyph glyph-name="Wgrave" unicode="&#x1e81;" horiz-adv-x="1933" 
d="M972 1745l-238 327h280l187 -327h-229zM546 -20l-525 1632h349l248 -813l346 807h6l345 -806l247 812h350l-525 -1632h-19l-405 876l-399 -876h-18z" />
    <glyph glyph-name="Wacute" unicode="&#x1e82;" horiz-adv-x="1933" 
d="M1037 1745h-229l187 327h280zM546 -20l-525 1632h349l248 -813l346 807h6l345 -806l247 812h350l-525 -1632h-19l-405 876l-399 -876h-18z" />
    <glyph glyph-name="Wacute" unicode="&#x1e83;" horiz-adv-x="1933" 
d="M1037 1745h-229l187 327h280zM546 -20l-525 1632h349l248 -813l346 807h6l345 -806l247 812h350l-525 -1632h-19l-405 876l-399 -876h-18z" />
    <glyph glyph-name="Wdieresis" unicode="&#x1e84;" horiz-adv-x="1933" 
d="M743 1778q-50 0 -85.5 35.5t-35.5 84.5t36 85t85 36t84.5 -36t35.5 -85t-35.5 -84.5t-84.5 -35.5zM1191 1778q-49 0 -84.5 35t-35.5 85q0 49 35.5 85t84.5 36t85 -36t36 -85t-35.5 -84.5t-85.5 -35.5zM546 -20l-525 1632h349l248 -813l346 807h6l345 -806l247 812h350
l-525 -1632h-19l-405 876l-399 -876h-18z" />
    <glyph glyph-name="Wdieresis" unicode="&#x1e85;" horiz-adv-x="1933" 
d="M743 1778q-50 0 -85.5 35.5t-35.5 84.5t36 85t85 36t84.5 -36t35.5 -85t-35.5 -84.5t-84.5 -35.5zM1191 1778q-49 0 -84.5 35t-35.5 85q0 49 35.5 85t84.5 36t85 -36t36 -85t-35.5 -84.5t-85.5 -35.5zM546 -20l-525 1632h349l248 -813l346 807h6l345 -806l247 812h350
l-525 -1632h-19l-405 876l-399 -876h-18z" />
    <glyph glyph-name="Ygrave" unicode="&#x1ef2;" horiz-adv-x="1363" 
d="M687 1745l-238 327h280l187 -327h-229zM520 0v692l-499 920h366l294 -560l294 560h367l-500 -920v-692h-322z" />
    <glyph glyph-name="Ygrave" unicode="&#x1ef3;" horiz-adv-x="1363" 
d="M687 1745l-238 327h280l187 -327h-229zM520 0v692l-499 920h366l294 -560l294 560h367l-500 -920v-692h-322z" />
    <glyph glyph-name="uni2000" unicode="&#x2000;" horiz-adv-x="1024" 
 />
    <glyph glyph-name="uni2001" unicode="&#x2001;" horiz-adv-x="2048" 
 />
    <glyph glyph-name="uni2002" unicode="&#x2002;" horiz-adv-x="1024" 
 />
    <glyph glyph-name="uni2003" unicode="&#x2003;" horiz-adv-x="2048" 
 />
    <glyph glyph-name="uni2004" unicode="&#x2004;" horiz-adv-x="683" 
 />
    <glyph glyph-name="uni2005" unicode="&#x2005;" horiz-adv-x="512" 
 />
    <glyph glyph-name="uni2006" unicode="&#x2006;" horiz-adv-x="341" 
 />
    <glyph glyph-name="uni2007" unicode="&#x2007;" horiz-adv-x="1476" 
 />
    <glyph glyph-name="uni2008" unicode="&#x2008;" horiz-adv-x="624" 
 />
    <glyph glyph-name="uni2009" unicode="&#x2009;" horiz-adv-x="410" 
 />
    <glyph glyph-name="uni200A" unicode="&#x200a;" horiz-adv-x="293" 
 />
    <glyph glyph-name="uni200B" unicode="&#x200b;" 
 />
    <glyph glyph-name="uni200C" unicode="&#x200c;" 
 />
    <glyph glyph-name="uni200D" unicode="&#x200d;" 
 />
    <glyph glyph-name="figuredash" unicode="&#x2012;" horiz-adv-x="1040" 
d="M70 644v283h900v-283h-900z" />
    <glyph glyph-name="endash" unicode="&#x2013;" horiz-adv-x="1416" 
d="M70 644v283h1276v-283h-1276z" />
    <glyph glyph-name="emdash" unicode="&#x2014;" horiz-adv-x="2048" 
d="M44 644v283h1960v-283h-1960z" />
    <glyph glyph-name="quoteleft" unicode="&#x2018;" horiz-adv-x="543" 
d="M361 1636q32 0 57.5 -10.5t37 -22t11.5 -20.5q-62 0 -117 -45t-55 -125q0 -43 14 -68q57 0 110.5 -45.5t53.5 -124.5q0 -82 -57 -140.5t-143 -58.5q-91 0 -147 70.5t-56 198.5q0 74 20 143.5t56 125t92 89t123 33.5z" />
    <glyph glyph-name="quoteright" unicode="&#x2019;" horiz-adv-x="543" 
d="M182 989q-32 0 -57.5 10.5t-37 22t-11.5 20.5q62 0 117 45t55 125q0 43 -14 68q-57 0 -110.5 45.5t-53.5 124.5q0 82 57 140.5t143 58.5q91 0 147 -70.5t56 -198.5q0 -74 -20 -143.5t-56 -125t-92 -89t-123 -33.5z" />
    <glyph glyph-name="quotesinglbase" unicode="&#x201a;" horiz-adv-x="543" 
d="M182 -302q-32 0 -57.5 10.5t-37 22t-11.5 20.5q62 0 117 45t55 125q0 43 -14 68q-57 0 -110.5 45.5t-53.5 124.5q0 82 57 140.5t143 58.5q91 0 147 -70.5t56 -198.5q0 -74 -20 -143.5t-56 -125t-92 -89t-123 -33.5z" />
    <glyph glyph-name="quotereversed" unicode="&#x201b;" horiz-adv-x="543" 
d="M361 995q-67 0 -123 33.5t-92 89t-56 125t-20 143.5q0 128 56 198.5t147 70.5q86 0 143 -58.5t57 -140.5q0 -79 -53.5 -124.5t-110.5 -45.5q-14 -25 -14 -68q0 -80 55 -125t117 -45q0 -9 -11.5 -20.5t-37 -22t-57.5 -10.5z" />
    <glyph glyph-name="quotedblleft" unicode="&#x201c;" horiz-adv-x="1066" 
d="M361 1636q32 0 57.5 -10.5t37 -22t11.5 -20.5q-62 0 -117 -45t-55 -125q0 -43 14 -68q57 0 110.5 -45.5t53.5 -124.5q0 -82 -57 -140.5t-143 -58.5q-91 0 -147 70.5t-56 198.5q0 74 20 143.5t56 125t92 89t123 33.5zM884 1636q32 0 57.5 -10.5t37 -22t11.5 -20.5
q-62 0 -117 -45t-55 -125q0 -43 14 -68q57 0 110.5 -45.5t53.5 -124.5q0 -82 -57 -140.5t-143 -58.5q-91 0 -147 70.5t-56 198.5q0 74 20 143.5t56 125t92 89t123 33.5z" />
    <glyph glyph-name="quotedblright" unicode="&#x201d;" horiz-adv-x="1066" 
d="M182 986q-32 0 -57.5 10.5t-37 22t-11.5 20.5q62 0 117 45t55 125q0 43 -14 68q-57 0 -110.5 45.5t-53.5 124.5q0 82 57 140.5t143 58.5q91 0 147 -70.5t56 -198.5q0 -74 -20 -143.5t-56 -125t-92 -89t-123 -33.5zM705 986q-32 0 -57.5 10.5t-37 22t-11.5 20.5
q62 0 117 45t55 125q0 43 -14 68q-57 0 -110.5 45.5t-53.5 124.5q0 82 57 140.5t143 58.5q91 0 147 -70.5t56 -198.5q0 -74 -20 -143.5t-56 -125t-92 -89t-123 -33.5z" />
    <glyph glyph-name="quotedblbase" unicode="&#x201e;" horiz-adv-x="1066" 
d="M182 -303q-32 0 -57.5 10.5t-37 22t-11.5 20.5q62 0 117 45t55 125q0 43 -14 68q-57 0 -110.5 45.5t-53.5 124.5q0 82 57 140.5t143 58.5q91 0 147 -70.5t56 -198.5q0 -74 -20 -143.5t-56 -125t-92 -89t-123 -33.5zM705 -303q-32 0 -57.5 10.5t-37 22t-11.5 20.5
q62 0 117 45t55 125q0 43 -14 68q-57 0 -110.5 45.5t-53.5 124.5q0 82 57 140.5t143 58.5q91 0 147 -70.5t56 -198.5q0 -74 -20 -143.5t-56 -125t-92 -89t-123 -33.5z" />
    <glyph glyph-name="dagger" unicode="&#x2020;" horiz-adv-x="683" 
d="M662 1420v-163h-230v-1257h-181v1257h-230v163h230v230h181v-230h230z" />
    <glyph glyph-name="daggerdbl" unicode="&#x2021;" horiz-adv-x="683" 
d="M662 1257h-230v-864h230v-163h-230v-230h-181v230h-230v163h230v864h-230v163h230v230h181v-230h230v-163z" />
    <glyph glyph-name="bullet" unicode="&#x2022;" horiz-adv-x="1054" 
d="M526 461q-134 0 -230 95t-96 228q0 134 96 230t231 96t231 -95.5t96 -229.5q0 -133 -96.5 -228.5t-231.5 -95.5z" />
    <glyph glyph-name="twodotenleader" unicode="&#x2025;" horiz-adv-x="1454" 
d="M407 -51q-86 0 -146.5 60.5t-60.5 145.5t61 146t146 61q84 0 145.5 -61.5t61.5 -145.5q0 -85 -61 -145.5t-146 -60.5zM1047 -51q-86 0 -146.5 60.5t-60.5 145.5t61 146t146 61q84 0 145.5 -61.5t61.5 -145.5q0 -85 -61 -145.5t-146 -60.5z" />
    <glyph glyph-name="ellipsis" unicode="&#x2026;" horiz-adv-x="2214" 
d="M407 -51q-86 0 -146.5 60.5t-60.5 145.5t61 146t146 61q84 0 145.5 -61.5t61.5 -145.5q0 -85 -61 -145.5t-146 -60.5zM1107 -51q-86 0 -146.5 60.5t-60.5 145.5t61 146t146 61q84 0 145.5 -61.5t61.5 -145.5q0 -85 -61 -145.5t-146 -60.5zM1807 -51q-86 0 -146.5 60.5
t-60.5 145.5t61 146t146 61q84 0 145.5 -61.5t61.5 -145.5q0 -85 -61 -145.5t-146 -60.5z" />
    <glyph glyph-name="uni202F" unicode="&#x202f;" horiz-adv-x="480" 
 />
    <glyph glyph-name="perthousand" unicode="&#x2030;" horiz-adv-x="2577" 
d="M447 877q-154 0 -265.5 110.5t-111.5 265.5t111.5 266.5t266.5 111.5t266 -111t111 -266t-111.5 -266t-266.5 -111zM193 0l1099 1613h270l-1098 -1613h-271zM447 1086q70 0 118.5 49t48.5 118q0 70 -48.5 119t-118.5 49t-119.5 -49t-49.5 -119q0 -69 49.5 -118t119.5 -49
zM1322 -20q-154 0 -265.5 111t-111.5 266t111.5 266t266.5 111t266 -110.5t111 -265.5t-111.5 -266.5t-266.5 -111.5zM2129 -20q-154 0 -265.5 111t-111.5 266t111.5 266t266.5 111t266 -110.5t111 -265.5t-111.5 -266.5t-266.5 -111.5zM1322 189q70 0 118.5 49t48.5 119
q0 69 -48.5 118t-118.5 49t-119.5 -49t-49.5 -118q0 -70 49.5 -119t119.5 -49zM2129 189q70 0 118.5 49t48.5 119q0 69 -48.5 118t-118.5 49t-119.5 -49t-49.5 -118q0 -70 49.5 -119t119.5 -49z" />
    <glyph glyph-name="guilsinglleft" unicode="&#x2039;" horiz-adv-x="725" 
d="M655 1298l-286 -498l286 -497l-204 -41l-381 538l381 538z" />
    <glyph glyph-name="guilsinglright" unicode="&#x203a;" horiz-adv-x="725" 
d="M274 1338l381 -538l-381 -538l-204 41l286 497l-286 498z" />
    <glyph glyph-name="uni205F" unicode="&#x205f;" horiz-adv-x="9216" 
 />
    <glyph glyph-name="franc" unicode="&#x20a3;" horiz-adv-x="1154" 
d="M1112 1293h-648v-325h556v-323h-556v-159h335v-230h-335v-258h-324v258h-130v230h130v1130h972v-323z" />
    <glyph glyph-name="lira" unicode="&#x20a4;" horiz-adv-x="1186" 
d="M523 291h593v-291h-1046v291h124q65 114 76 237h-192v209h167l-24 80h-143v209h104v17q0 167 73 302t211 214t317 79q69 0 154 -17t156 -49l-157 -270q-21 19 -60 31.5t-80 12.5q-135 0 -211.5 -88.5t-76.5 -215.5v-16h337v-209h-297q2 -5 11 -34.5t13 -45.5h273v-209
h-251q-7 -132 -71 -237z" />
    <glyph glyph-name="uni20A6" unicode="&#x20a6;" horiz-adv-x="1636" 
d="M1626 950v-280h-160v-700h-15l-957 931v-903h-324v672h-160v280h160v692h16l955 -929v903h325v-666h160z" />
    <glyph glyph-name="uni20A8" unicode="&#x20a8;" horiz-adv-x="1355" 
d="M829 613q-48 -15 -109 -12l548 -601h-396l-710 837v9l394 -1q76 0 132.5 41.5t80.5 112.5h-620l38 215h569q-28 55 -81 86t-119 31h-416l50 281h1100l-50 -281h-176q27 -54 42 -117h181l-38 -215h-139q-23 -143 -102.5 -249.5t-178.5 -136.5z" />
    <glyph glyph-name="uni20A9" unicode="&#x20a9;" horiz-adv-x="1933" 
d="M1912 1612l-213 -662h204v-280h-294l-222 -690h-19l-405 876l-399 -876h-18l-222 690h-294v280h204l-213 662h349l248 -813l346 807h6l345 -806l247 812h350z" />
    <glyph glyph-name="Euro" unicode="&#x20ac;" horiz-adv-x="1698" 
d="M1059 294q195 0 383 184l186 -262q-118 -117 -253 -182t-306 -65q-193 0 -364 83.5t-289 227t-164 321.5h-182l17 162h140q-1 14 -1 42q0 19 2 57h-158l17 162h169q49 176 167 317t286 222.5t354 81.5q311 -4 565 -249l-187 -255q-177 174 -381 174q-139 0 -263.5 -80.5
t-189.5 -210.5h639l-17 -162h-671q-4 -25 -4 -59q0 -14 2 -40h663l-17 -162h-603q63 -137 191.5 -222t268.5 -85z" />
    <glyph glyph-name="uni20AD" unicode="&#x20ad;" horiz-adv-x="1361" 
d="M953 0l-465 670h-25v-670h-323v670h-130v280h130v662h323v-662h23l430 662h374l-434 -662h377v-280h-353l467 -670h-394z" />
    <glyph glyph-name="uni20AE" unicode="&#x20ae;" horiz-adv-x="1202" 
d="M1160 1291h-396v-225l261 133v-214l-261 -133v-107l261 133v-214l-261 -133v-531h-325v366l-263 -134v214l263 134v107l-263 -134v214l263 134v390h-397v321h1118v-321z" />
    <glyph glyph-name="uni20B1" unicode="&#x20b1;" horiz-adv-x="1551" 
d="M1509 1300v-210h-171q1 -8 1 -23v-17h170v-210h-222q-69 -142 -208 -229t-307 -87h-242v-524h-324v840h-164v210h164v40h-164v210h164v312h566q166 0 304.5 -86t207.5 -226h225zM772 844q100 -1 171.5 65.5t71.5 160.5q0 91 -71 156t-172 65h-242v-446z" />
    <glyph glyph-name="uni20B8" unicode="&#x20b8;" horiz-adv-x="1202" 
d="M42 1612h1118v-311h-1118v311zM1160 1200v-311h-405l9 -889h-325l-9 889h-388v311h1118z" />
    <glyph glyph-name="uni20BD" unicode="&#x20bd;" horiz-adv-x="1487" 
d="M820 584h-212v-131h422v-230h-422v-223h-324v223h-214v230h214v131h-214v301h214v727h566q125 0 232.5 -42.5t180 -113.5t113.5 -164.5t41 -194.5q0 -147 -77.5 -264.5t-214 -183t-305.5 -65.5zM608 1291v-386l242 -1q121 0 182 50.5t61 145.5q0 76 -64 133.5t-179 57.5
h-242z" />
    <glyph glyph-name="uni20BF" unicode="&#x20bf;" horiz-adv-x="1284" 
d="M1252 489q0 -84 -28 -164.5t-80.5 -148t-136.5 -114t-187 -58.5v-229h-203v225h-87v-225h-203v225h-187v1612h187v226h203v-226h50q25 0 37 -1v227h203v-284q107 -57 167.5 -157t60.5 -212q0 -60 -18 -114.5t-43.5 -88.5t-50 -54t-40.5 -20q59 0 121 -29.5t115 -82
t86.5 -133.5t33.5 -174zM600 1297h-137v-315h131q60 0 106 46t46 114q0 66 -44 110.5t-102 44.5zM719 316q85 0 151 54t66 142q0 77 -55 131.5t-163 54.5h-255v-382h256z" />
    <glyph glyph-name="trademark" unicode="&#x2122;" horiz-adv-x="1303" 
d="M1262 1629h8v-701h-137v298l-197 -287h-1l-197 286v-297h-138v701h8l327 -452zM51 1476v136h474v-136h-168v-548h-138v548h-168z" />
    <glyph glyph-name="estimated" unicode="&#x212e;" horiz-adv-x="1942" 
d="M1001 -32q-144 0 -282.5 40.5t-255 117t-205 178t-138.5 230.5t-50 268q0 171 75.5 326t202.5 266t299.5 176.5t359.5 65.5q180 0 341.5 -61t276 -164.5t181 -244t66.5 -295.5q0 -69 -8 -127h-1496v-416q133 -127 299.5 -194t334.5 -67q221 0 413 104.5t266 247.5h109
q-36 -81 -108 -159.5t-171.5 -144.5t-233 -106.5t-276.5 -40.5zM368 856h1226v444q-254 237 -587 237q-180 0 -344 -68t-295 -190v-423z" />
    <glyph glyph-name="arrowleft" unicode="&#x2190;" horiz-adv-x="2148" 
d="M1948 913v-280h-1257l313 -308l-168 -168l-636 616l636 616l168 -168l-313 -308h1257z" />
    <glyph glyph-name="arrowup" unicode="&#x2191;" horiz-adv-x="2148" 
d="M1690 1011l-168 -168l-308 313v-1257h-280v1257l-308 -313l-168 168l616 636z" />
    <glyph glyph-name="arrowright" unicode="&#x2192;" horiz-adv-x="2148" 
d="M1312 1389l636 -616l-636 -616l-168 168l313 308h-1257v280h1257l-313 308z" />
    <glyph glyph-name="arrowdown" unicode="&#x2193;" horiz-adv-x="2148" 
d="M1522 703l168 -168l-616 -636l-616 636l168 168l308 -313v1257h280v-1257z" />
    <glyph glyph-name="arrowboth" unicode="&#x2194;" horiz-adv-x="2148" 
d="M1392 1389l636 -616l-636 -616l-168 168l313 308h-926l313 -308l-168 -168l-636 616l636 616l168 -168l-313 -308h926l-313 308z" />
    <glyph glyph-name="arrowupdn" unicode="&#x2195;" horiz-adv-x="2148" 
d="M1690 455l-616 -636l-616 636l168 168l308 -313v926l-308 -313l-168 168l616 636l616 -636l-168 -168l-308 313v-926l308 313z" />
    <glyph glyph-name="uni2196" unicode="&#x2196;" horiz-adv-x="2148" 
d="M1791 254l-198 -198l-889 889l4 -439h-238l-14 885l885 -14v-238l-439 4z" />
    <glyph glyph-name="uni2197" unicode="&#x2197;" horiz-adv-x="2148" 
d="M857 1398l885 14l-14 -885h-238l4 439l-889 -889l-198 198l889 889l-439 -4v238z" />
    <glyph glyph-name="uni2198" unicode="&#x2198;" horiz-adv-x="2148" 
d="M856 149v238l439 -4l-889 889l198 198l889 -889l-4 439h238l14 -885z" />
    <glyph glyph-name="uni2199" unicode="&#x2199;" horiz-adv-x="2148" 
d="M1791 1292l-889 -889l439 4v-238l-885 -14l14 885h238l-4 -439l889 889z" />
    <glyph glyph-name="partialdiff" unicode="&#x2202;" horiz-adv-x="1261" 
d="M619 -40q-123 0 -228 45.5t-176 122t-110.5 178.5t-39.5 214q0 152 67 280.5t185.5 204t262.5 75.5q122 0 214 -52t121 -140q-32 363 -451 553l250 185q68 -28 133.5 -79.5t129.5 -135t112 -187.5t77.5 -246.5t29.5 -302.5q0 -214 -70 -375.5t-201.5 -250.5t-305.5 -89z
M645 268q112 0 186 73t74 174q0 104 -78 180.5t-187 76.5q-107 0 -187 -73t-80 -179q0 -104 79.5 -178t192.5 -74z" />
    <glyph glyph-name="emptyset" unicode="&#x2205;" horiz-adv-x="1489" 
d="M1172 1287q115 -94 181 -229.5t66 -289.5q0 -137 -53.5 -262t-144.5 -216t-215.5 -144.5t-261.5 -53.5q-150 0 -286 64l-108 -171h-241l180 285q-103 94 -161 222.5t-58 272.5q0 137 53.5 262t144 216t215 144.5t261.5 53.5q131 0 253 -50l131 207h240zM343 765
q0 -147 96 -257l406 643q-52 13 -101 13q-166 0 -283.5 -117t-117.5 -282zM744 368q164 0 281 116.5t117 280.5q0 167 -120 285l-415 -658q65 -24 137 -24z" />
    <glyph glyph-name="product" unicode="&#x220f;" horiz-adv-x="1484" 
d="M1442 1950v-300h-224v-1900h-320v1900h-300v-1900h-320v1900h-236v300h1400z" />
    <glyph glyph-name="summation" unicode="&#x2211;" horiz-adv-x="1482" 
d="M1384 1900v-300h-826l479 -798v-3l-479 -799l825 -1v-299l-1362 1v18l652 1082l-652 1081v18h1363z" />
    <glyph glyph-name="minus" unicode="&#x2212;" horiz-adv-x="1258" 
d="M140 627v300h978v-300h-978z" />
    <glyph glyph-name="radical" unicode="&#x221a;" horiz-adv-x="1062" 
d="M1562 2156v-300h-381l-664 -1912h-22l-474 1318h309l172 -560l480 1454h580z" />
    <glyph glyph-name="infinity" unicode="&#x221e;" horiz-adv-x="2372" 
d="M1747 1385q113 0 215.5 -45t177 -121.5t118.5 -183.5t44 -225q0 -158 -74.5 -290.5t-202.5 -208.5t-278 -76q-162 0 -309.5 80t-251.5 217q-104 -137 -251.5 -217t-309.5 -80q-150 0 -278 76t-202.5 208.5t-74.5 290.5q0 118 44 225t118.5 183.5t177 121.5t215.5 45
q162 0 309.5 -80t251.5 -217q104 137 251.5 217t309.5 80zM628 522q115 0 224 78t196 210q-88 131 -197 209.5t-223 78.5q-109 0 -189 -85t-80 -203t81 -203t188 -85zM1744 522q107 0 188 85t81 203t-80 203t-189 85q-114 0 -223 -78.5t-197 -209.5q87 -132 196 -210
t224 -78z" />
    <glyph glyph-name="integral" unicode="&#x222b;" horiz-adv-x="1181" 
d="M42 -300v290h99q86 0 144 59t71 152l192 1336q26 180 136 271.5t295 91.5h160v-290h-99q-86 0 -144 -59t-71 -152l-192 -1336q-26 -180 -136 -271.5t-295 -91.5h-160z" />
    <glyph glyph-name="approxequal" unicode="&#x2248;" horiz-adv-x="1349" 
d="M341 857l-201 78q16 78 48 136.5t67.5 89t79.5 49t76 23.5t66 5q55 0 103.5 -17t84 -41t68 -48.5t68.5 -41.5t71 -17q55 0 86.5 43t48.5 122l202 -78q-16 -78 -48.5 -136.5t-67.5 -89t-79.5 -49t-76 -23.5t-65.5 -5q-55 0 -104 17t-84.5 41.5t-67.5 48.5t-68 41t-71 17
q-57 0 -87.5 -42.5t-48.5 -122.5zM341 344l-201 78q16 78 48 136.5t67.5 89t79.5 49t76 23.5t66 5q55 0 103.5 -17t84 -41.5t68 -48.5t68.5 -41t71 -17q55 0 86.5 43t48.5 122l202 -78q-16 -78 -48.5 -136.5t-67.5 -89t-79.5 -49t-76 -23.5t-65.5 -5q-55 0 -104 17t-84.5 41
t-67.5 48.5t-68 41.5t-71 17q-57 0 -87.5 -42.5t-48.5 -122.5z" />
    <glyph glyph-name="notequal" unicode="&#x2260;" horiz-adv-x="1396" 
d="M1256 916h-393l-97 -282h490v-283h-587l-109 -319h-190l109 319h-339v283h436l97 282h-533v284h630l121 352h190l-121 -352h296v-284z" />
    <glyph glyph-name="lessequal" unicode="&#x2264;" horiz-adv-x="1265" 
d="M1115 526l-959 488v16l969 488l-10 -269l-498 -227l498 -225v-271zM140 100v230h976v-230h-976z" />
    <glyph glyph-name="greaterequal" unicode="&#x2265;" horiz-adv-x="1265" 
d="M150 526v271l498 225l-498 227l-10 269l969 -488v-16zM1125 100h-976v230h976v-230z" />
    <glyph glyph-name="lozenge" unicode="&#x25ca;" horiz-adv-x="1197" 
d="M596 1514l401 -735l-401 -735l-396 735zM596 399l201 380l-201 380l-197 -380z" />
    <glyph glyph-name="uni3000" unicode="&#x3000;" horiz-adv-x="2048" 
 />
    <glyph glyph-name="Q.ss04" horiz-adv-x="1845" 
d="M1775 0h-370l-75 83q-198 -114 -423 -114q-169 0 -324 66.5t-267.5 178.5t-179 266.5t-66.5 323.5q0 171 66.5 326.5t179 268t267.5 179.5t325 67q227 0 420 -113t306 -306.5t113 -421.5q0 -153 -54 -293t-151 -253zM907 297q100 0 195 38l-351 389h370l198 -219
q100 133 100 301q0 104 -40.5 198.5t-109.5 163.5t-163.5 109.5t-198.5 40.5q-138 0 -255.5 -68.5t-186 -186.5t-68.5 -257q0 -138 68.5 -255t186 -185.5t255.5 -68.5z" />
    <glyph glyph-name="R.ss04" horiz-adv-x="1357" 
d="M1343 0h-344l-253 505q-13 -1 -40 -1h-242v-504h-324v1612h566q115 0 220 -44t181 -118t121 -177t45 -216q0 -144 -71 -267t-191 -198zM464 1291v-466l242 -1q96 -1 169.5 69t73.5 167q0 96 -72 163.5t-171 67.5h-242z" />
    <glyph glyph-name="i.loclTRK" horiz-adv-x="604" 
d="M303 1776q-58 0 -99 40.5t-41 97.5t41.5 99.5t98.5 42.5t98.5 -42t41.5 -99t-41.5 -98t-98.5 -41zM140 0v1612h324v-1612h-324z" />
    <glyph glyph-name="zero.lf" horiz-adv-x="1476" 
d="M739 -28q-197 0 -350 106.5t-236 296t-83 431.5t83 432t236 296.5t350 106.5t349 -106.5t235 -296.5t83 -432t-83 -431.5t-235 -296t-349 -106.5zM737 299q156 0 250 141t94 366q0 226 -94 367.5t-250 141.5t-250 -141.5t-94 -367.5q0 -225 94 -366t250 -141z" />
    <glyph glyph-name="zero.tf" horiz-adv-x="1416" 
d="M769 -28q-197 0 -350 106.5t-236 296t-83 431.5t83 432t236 296.5t350 106.5t349 -106.5t235 -296.5t83 -432t-83 -431.5t-235 -296t-349 -106.5zM767 299q156 0 250 141t94 366q0 226 -94 367.5t-250 141.5t-250 -141.5t-94 -367.5q0 -225 94 -366t250 -141z" />
    <glyph glyph-name="one.lf" horiz-adv-x="717" 
d="M482 1632h95v-1632h-324v1216l-183 -53v338z" />
    <glyph glyph-name="one.tf" horiz-adv-x="1416" 
d="M866 300h292v-300h-900v300h284v916l-183 -53v338l412 131h95v-1332z" />
    <glyph glyph-name="two.lf" horiz-adv-x="1353" 
d="M760 323h523v-323h-1213v59q470 425 667.5 648t197.5 348q0 109 -72 185.5t-154 76.5q-111 0 -193.5 -83t-82.5 -198l-294 75q0 143 76 265.5t205 193.5t278 71q114 0 218.5 -47.5t179.5 -125t119.5 -182t44.5 -214.5q0 -95 -45 -204.5t-118.5 -208.5t-160.5 -185.5
t-176 -150.5z" />
    <glyph glyph-name="two.tf" horiz-adv-x="1416" 
d="M805 323h523v-323h-1213v59q470 425 667.5 648t197.5 348q0 109 -72 185.5t-154 76.5q-111 0 -193.5 -83t-82.5 -198l-294 75q0 143 76 265.5t205 193.5t278 71q114 0 218.5 -47.5t179.5 -125t119.5 -182t44.5 -214.5q0 -95 -45 -204.5t-118.5 -208.5t-160.5 -185.5
t-176 -150.5z" />
    <glyph glyph-name="three.lf" horiz-adv-x="1234" 
d="M905 908q111 -52 185 -160.5t74 -255.5q0 -140 -71.5 -257.5t-196 -186t-274.5 -68.5q-195 0 -353 116.5t-199 282.5l318 81q18 -71 81 -115.5t146 -44.5q98 0 160 62.5t62 153.5q0 127 -122 209.5t-298 82.5l49 184q124 0 207 58.5t83 147.5q0 64 -42 105.5t-103 41.5
q-51 0 -87.5 -30.5t-47.5 -82.5l-332 69q36 151 165.5 256.5t303.5 105.5q125 0 231.5 -55.5t171.5 -157t65 -226.5q0 -106 -48 -191.5t-128 -124.5z" />
    <glyph glyph-name="three.tf" horiz-adv-x="1416" 
d="M1001 908q111 -52 185 -160.5t74 -255.5q0 -140 -71.5 -257.5t-196 -186t-274.5 -68.5q-195 0 -353 116.5t-199 282.5l318 81q18 -71 81 -115.5t146 -44.5q98 0 160 62.5t62 153.5q0 127 -122 209.5t-298 82.5l49 184q124 0 207 58.5t83 147.5q0 64 -42 105.5t-103 41.5
q-51 0 -87.5 -30.5t-47.5 -82.5l-332 69q36 151 165.5 256.5t303.5 105.5q125 0 231.5 -55.5t171.5 -157t65 -226.5q0 -106 -48 -191.5t-128 -124.5z" />
    <glyph glyph-name="four.lf" horiz-adv-x="1379" 
d="M1337 669v-323h-162v-346h-323v346h-831l551 1273l341 -2l-410 -948h349v447h323v-447h162z" />
    <glyph glyph-name="four.tf" horiz-adv-x="1416" 
d="M1337 669v-323h-162v-346h-323v346h-831l551 1273l341 -2l-410 -948h349v447h323v-447h162z" />
    <glyph glyph-name="five.lf" horiz-adv-x="1289" 
d="M661 1124q168 0 296 -73t195 -199t67 -285q0 -130 -46.5 -240.5t-126.5 -185.5t-188 -117.5t-230 -42.5q-184 0 -336 92.5t-222 247.5l322 103q37 -56 95.5 -88t126.5 -32q45 0 90 15t86 44.5t66.5 82.5t25.5 121q0 113 -71.5 178.5t-196.5 65.5q-88 0 -172.5 -33.5
t-137.5 -95.5l-180 93l122 838h831v-322h-590l-35 -222q77 55 209 55z" />
    <glyph glyph-name="five.tf" horiz-adv-x="1416" 
d="M734 1124q168 0 296 -73t195 -199t67 -285q0 -130 -46.5 -240.5t-126.5 -185.5t-188 -117.5t-230 -42.5q-184 0 -336 92.5t-222 247.5l322 103q37 -56 95.5 -88t126.5 -32q45 0 90 15t86 44.5t66.5 82.5t25.5 121q0 113 -71.5 178.5t-196.5 65.5q-88 0 -172.5 -33.5
t-137.5 -95.5l-180 93l122 838h831v-322h-590l-35 -222q77 55 209 55z" />
    <glyph glyph-name="six.lf" horiz-adv-x="1274" 
d="M730 1028q91 0 177 -37.5t151.5 -102.5t105.5 -159t40 -200q0 -150 -75.5 -277.5t-207 -202.5t-288.5 -75q-158 0 -285.5 64.5t-202.5 188t-75 286.5q0 104 60 234t339 645q25 46 39 72t37 68.5t43 79.5l369 -2l-335 -596q56 14 108 14zM638 296q100 0 172.5 72t72.5 171
t-72 171.5t-172 72.5t-172 -72.5t-72 -172.5q0 -99 71.5 -170.5t171.5 -71.5z" />
    <glyph glyph-name="six.tf" horiz-adv-x="1416" 
d="M801 1028q91 0 177 -37.5t151.5 -102.5t105.5 -159t40 -200q0 -150 -75.5 -277.5t-207 -202.5t-288.5 -75q-158 0 -285.5 64.5t-202.5 188t-75 286.5q0 104 60 234t339 645q25 46 39 72t37 68.5t43 79.5l369 -2l-335 -596q56 14 108 14zM709 296q100 0 172.5 72t72.5 171
t-72 171.5t-172 72.5t-172 -72.5t-72 -172.5q0 -99 71.5 -170.5t171.5 -71.5z" />
    <glyph glyph-name="seven.lf" horiz-adv-x="1165" 
d="M42 1612h1102v-60l-609 -1552h-340l494 1296h-647v316z" />
    <glyph glyph-name="seven.tf" horiz-adv-x="1416" 
d="M189 1612h1102v-60l-609 -1552h-340l494 1296h-647v316z" />
    <glyph glyph-name="eight.lf" horiz-adv-x="1255" 
d="M627 -34q-122 0 -227.5 43t-177 114.5t-112 166t-40.5 197.5q0 91 31 171.5t78.5 132t97 83.5t91.5 39q-83 21 -147 110t-64 202q0 79 35 155t95.5 135.5t150 95.5t190.5 36t190 -35.5t150.5 -94t97 -135t35.5 -156.5q0 -61 -21 -117.5t-53.5 -95.5t-68 -65t-67.5 -35
q29 -6 65 -26t77 -57.5t74.5 -85t55.5 -115.5t22 -143q0 -103 -41 -198t-113 -166t-177.5 -113.5t-226.5 -42.5zM629 1058q64 0 112 36t48 107q0 69 -46 107.5t-114 38.5q-67 0 -113 -37.5t-46 -105.5q0 -69 46.5 -107.5t112.5 -38.5zM626 289q98 0 166 63t68 155
q0 94 -68.5 160t-162.5 66t-164 -66.5t-70 -161.5q0 -91 66.5 -153.5t164.5 -62.5z" />
    <glyph glyph-name="eight.tf" horiz-adv-x="1416" 
d="M708 -34q-122 0 -227.5 43t-177 114.5t-112 166t-40.5 197.5q0 91 31 171.5t78.5 132t97 83.5t91.5 39q-83 21 -147 110t-64 202q0 79 35 155t95.5 135.5t150 95.5t190.5 36t190 -35.5t150.5 -94t97 -135t35.5 -156.5q0 -61 -21 -117.5t-53.5 -95.5t-68 -65t-67.5 -35
q29 -6 65 -26t77 -57.5t74.5 -85t55.5 -115.5t22 -143q0 -103 -41 -198t-113 -166t-177.5 -113.5t-226.5 -42.5zM710 1058q64 0 112 36t48 107q0 69 -46 107.5t-114 38.5q-67 0 -113 -37.5t-46 -105.5q0 -69 46.5 -107.5t112.5 -38.5zM707 289q98 0 166 63t68 155
q0 94 -68.5 160t-162.5 66t-164 -66.5t-70 -161.5q0 -91 66.5 -153.5t164.5 -62.5z" />
    <glyph glyph-name="nine.lf" horiz-adv-x="1274" 
d="M637 1640q117 0 223 -45.5t181 -122t119 -180.5t44 -217q0 -41 -4.5 -74.5t-11 -65t-29 -80.5t-42 -90t-67.5 -126.5t-88.5 -157t-122.5 -214t-152 -267.5h-371l321 577q-48 -12 -96 -12q-122 0 -230 67.5t-174.5 186.5t-66.5 260q0 112 44.5 215.5t119.5 179.5
t180.5 121t222.5 45zM636 831q100 0 172 72t72 171t-72 171.5t-172 72.5t-171.5 -72.5t-71.5 -171.5t72 -171t171 -72z" />
    <glyph glyph-name="nine.tf" horiz-adv-x="1416" 
d="M708 1640q117 0 223 -45.5t181 -122t119 -180.5t44 -217q0 -41 -4.5 -74.5t-11 -65t-29 -80.5t-42 -90t-67.5 -126.5t-88.5 -157t-122.5 -214t-152 -267.5h-371l321 577q-48 -12 -96 -12q-122 0 -230 67.5t-174.5 186.5t-66.5 260q0 112 44.5 215.5t119.5 179.5
t180.5 121t222.5 45zM707 831q100 0 172 72t72 171t-72 171.5t-172 72.5t-171.5 -72.5t-71.5 -171.5t72 -171t171 -72z" />
    <glyph glyph-name="trademark.ss04" horiz-adv-x="1436" 
d="M289 1612v-112h111v-140h-111v-232q0 -3 0.5 -7.5t3.5 -15t8.5 -18.5t18 -14.5t29.5 -6.5q23 0 51 11v-132q-45 -14 -88 -14q-167 0 -167 197v232h-75v140h75v112h144zM1176 1518q190 0 190 -275v-303h-144v303q0 71 -22 101.5t-72 30.5q-113 0 -113 -132v-303h-144v303
q0 71 -22 101.5t-72 30.5q-113 0 -113 -132v-303h-143v560h134l5 -52q64 70 165 70q118 0 161 -102q65 102 190 102z" />
    <glyph glyph-name="trademark.ss05" horiz-adv-x="1454" 
d="M1433 1294v-104h-137v-262h-137v262h-25l-172 -251h-1l-173 251h-24v-262h-138v262h-243v-262h-138v262h-224v104h224v182h-168v136h474v-136h-168v-182h243v335h8l242 -335h170l242 335h8v-335h137zM961 1177l10 13h-19z" />
    <glyph glyph-name="uni030C.alt" 
d="M-320 1280l70 470h250l-120 -470h-200z" />
    <glyph glyph-name="uni0338.case" 
d="M-1031 -82l1197 1732h273l-1196 -1732h-274z" />
    </font>
</defs>
</svg>
